<svg xmlns="http://www.w3.org/2000/svg" width="500" height="500" viewBox="0 0 500 500">
<rect width="500" height="500" fill="#00343b"/>
<line x1="250.0" y1="251.34" x2="443.1" y2="251.3" stroke="#3223153" stroke-width="2.57" opacity="0.31"/>
<line x1="250.0" y1="251.34" x2="412.8" y2="355.2" stroke="#3b2814a" stroke-width="2.57" opacity="0.33"/>
<line x1="250.0" y1="251.34" x2="331.5" y2="426.4" stroke="#452d140" stroke-width="2.57" opacity="0.35"/>
<line x1="250.0" y1="251.34" x2="224.6" y2="442.8" stroke="#4e32137" stroke-width="2.57" opacity="0.37"/>
<line x1="250.0" y1="251.34" x2="125.7" y2="399.1" stroke="#583812d" stroke-width="2.57" opacity="0.39"/>
<line x1="250.0" y1="251.34" x2="65.7" y2="309.1" stroke="#613d124" stroke-width="2.57" opacity="0.41"/>
<line x1="250.0" y1="251.34" x2="63.6" y2="201.0" stroke="#6b4211a" stroke-width="2.57" opacity="0.43"/>
<line x1="250.0" y1="251.34" x2="119.9" y2="108.6" stroke="#7447111" stroke-width="2.57" opacity="0.45"/>
<line x1="250.0" y1="251.34" x2="217.0" y2="61.1" stroke="#7e4d107" stroke-width="2.57" opacity="0.47"/>
<line x1="250.0" y1="251.34" x2="324.5" y2="73.2" stroke="#8752fe" stroke-width="2.57" opacity="0.49"/>
<line x1="250.0" y1="251.34" x2="408.6" y2="141.1" stroke="#9158f4" stroke-width="2.57" opacity="0.51"/>
<line x1="250.0" y1="251.34" x2="443.0" y2="243.7" stroke="#9a5deb" stroke-width="2.57" opacity="0.53"/>
<line x1="250.0" y1="251.34" x2="416.8" y2="348.6" stroke="#a462e1" stroke-width="2.57" opacity="0.55"/>
<line x1="250.0" y1="251.34" x2="338.4" y2="423.0" stroke="#ad67d8" stroke-width="2.57" opacity="0.57"/>
<line x1="250.0" y1="251.34" x2="232.2" y2="443.6" stroke="#b76dce" stroke-width="2.57" opacity="0.59"/>
<circle cx="291.1" cy="251.3" r="3.0" fill="#90bfde" fill-opacity="0.6"/>
<circle cx="332.2" cy="251.3" r="3.0" fill="#90bfde" fill-opacity="0.6"/>
<circle cx="373.3" cy="251.3" r="3.0" fill="#90bfde" fill-opacity="0.6"/>
<circle cx="414.5" cy="251.3" r="3.0" fill="#90bfde" fill-opacity="0.6"/>
<circle cx="455.6" cy="251.3" r="3.0" fill="#90bfde" fill-opacity="0.6"/>
<circle cx="263.7" cy="290.1" r="3.0" fill="#90bfde" fill-opacity="0.6"/>
<circle cx="277.4" cy="328.9" r="3.0" fill="#90bfde" fill-opacity="0.6"/>
<circle cx="291.0" cy="367.6" r="3.0" fill="#90bfde" fill-opacity="0.6"/>
<circle cx="304.7" cy="406.4" r="3.0" fill="#90bfde" fill-opacity="0.6"/>
<circle cx="318.4" cy="445.2" r="3.0" fill="#90bfde" fill-opacity="0.6"/>
<circle cx="218.0" cy="277.1" r="3.0" fill="#90bfde" fill-opacity="0.6"/>
<circle cx="186.0" cy="303.0" r="3.0" fill="#90bfde" fill-opacity="0.6"/>
<circle cx="154.0" cy="328.8" r="3.0" fill="#90bfde" fill-opacity="0.6"/>
<circle cx="122.0" cy="354.6" r="3.0" fill="#90bfde" fill-opacity="0.6"/>
<circle cx="90.0" cy="380.4" r="3.0" fill="#90bfde" fill-opacity="0.6"/>
<circle cx="215.0" cy="229.7" r="3.0" fill="#90bfde" fill-opacity="0.6"/>
<circle cx="180.0" cy="208.2" r="3.0" fill="#90bfde" fill-opacity="0.6"/>
<circle cx="145.0" cy="186.6" r="3.0" fill="#90bfde" fill-opacity="0.6"/>
<circle cx="110.1" cy="165.0" r="3.0" fill="#90bfde" fill-opacity="0.6"/>
<circle cx="75.1" cy="143.4" r="3.0" fill="#90bfde" fill-opacity="0.6"/>
<circle cx="258.7" cy="211.2" r="3.0" fill="#90bfde" fill-opacity="0.6"/>
<circle cx="267.4" cy="171.0" r="3.0" fill="#90bfde" fill-opacity="0.6"/>
<circle cx="276.1" cy="130.8" r="3.0" fill="#90bfde" fill-opacity="0.6"/>
<circle cx="284.9" cy="90.6" r="3.0" fill="#90bfde" fill-opacity="0.6"/>
<circle cx="293.6" cy="50.4" r="3.0" fill="#90bfde" fill-opacity="0.6"/>
<circle cx="290.8" cy="246.2" r="3.0" fill="#90bfde" fill-opacity="0.6"/>
<circle cx="331.6" cy="241.0" r="3.0" fill="#90bfde" fill-opacity="0.6"/>
<circle cx="372.4" cy="235.9" r="3.0" fill="#90bfde" fill-opacity="0.6"/>
<circle cx="413.2" cy="230.7" r="3.0" fill="#90bfde" fill-opacity="0.6"/>
<circle cx="453.9" cy="225.6" r="3.0" fill="#90bfde" fill-opacity="0.6"/>
<circle cx="268.4" cy="288.1" r="3.0" fill="#90bfde" fill-opacity="0.6"/>
<circle cx="286.9" cy="324.8" r="3.0" fill="#90bfde" fill-opacity="0.6"/>
<circle cx="305.3" cy="361.6" r="3.0" fill="#90bfde" fill-opacity="0.6"/>
<circle cx="323.7" cy="398.3" r="3.0" fill="#90bfde" fill-opacity="0.6"/>
<circle cx="342.2" cy="435.1" r="3.0" fill="#90bfde" fill-opacity="0.6"/>
<circle cx="221.5" cy="281.0" r="3.0" fill="#90bfde" fill-opacity="0.6"/>
<circle cx="193.0" cy="310.6" r="3.0" fill="#90bfde" fill-opacity="0.6"/>
<circle cx="164.4" cy="340.2" r="3.0" fill="#90bfde" fill-opacity="0.6"/>
<circle cx="135.9" cy="369.8" r="3.0" fill="#90bfde" fill-opacity="0.6"/>
<circle cx="107.4" cy="399.4" r="3.0" fill="#90bfde" fill-opacity="0.6"/>
<circle cx="250.0" cy="251.34" r="226.1" fill="#e7-4f9" fill-opacity="0.20" stroke="#e7-4f9" stroke-width="1.5"/>
<circle cx="250.0" cy="251.34" r="205.6" fill="#d50310a" fill-opacity="0.19" stroke="#d50310a" stroke-width="1.5"/>
<circle cx="250.0" cy="251.34" r="185.0" fill="#c40c119" fill-opacity="0.19" stroke="#c40c119" stroke-width="1.5"/>
<circle cx="250.0" cy="251.34" r="164.5" fill="#b314127" fill-opacity="0.18" stroke="#b314127" stroke-width="1.5"/>
<circle cx="250.0" cy="251.34" r="143.9" fill="#a21d130" fill-opacity="0.17" stroke="#a21d130" stroke-width="1.5"/>
<circle cx="250.0" cy="251.34" r="123.3" fill="#9126135" fill-opacity="0.17" stroke="#9126135" stroke-width="1.5"/>
<circle cx="250.0" cy="251.34" r="102.8" fill="#7f2e135" fill-opacity="0.16" stroke="#7f2e135" stroke-width="1.5"/>
<circle cx="250.0" cy="251.34" r="82.2" fill="#6e37130" fill-opacity="0.16" stroke="#6e37130" stroke-width="1.5"/>
<circle cx="250.0" cy="251.34" r="61.7" fill="#5d3f127" fill-opacity="0.15" stroke="#5d3f127" stroke-width="1.5"/>
<circle cx="250.0" cy="251.34" r="41.1" fill="#4c48119" fill-opacity="0.14" stroke="#4c48119" stroke-width="1.5"/>
<circle cx="250.0" cy="251.34" r="20.6" fill="#3b5010a" fill-opacity="0.14" stroke="#3b5010a" stroke-width="1.5"/>
<circle cx="291.1" cy="251.3" r="3.0" fill="#c2e7b8" fill-opacity="0.6"/>
<circle cx="332.2" cy="251.3" r="3.0" fill="#c2e7b8" fill-opacity="0.6"/>
<circle cx="373.3" cy="251.3" r="3.0" fill="#c2e7b8" fill-opacity="0.6"/>
<circle cx="414.5" cy="251.3" r="3.0" fill="#c2e7b8" fill-opacity="0.6"/>
<circle cx="455.6" cy="251.3" r="3.0" fill="#c2e7b8" fill-opacity="0.6"/>
<circle cx="281.8" cy="277.3" r="3.0" fill="#c2e7b8" fill-opacity="0.6"/>
<circle cx="313.7" cy="303.4" r="3.0" fill="#c2e7b8" fill-opacity="0.6"/>
<circle cx="345.5" cy="329.4" r="3.0" fill="#c2e7b8" fill-opacity="0.6"/>
<circle cx="377.4" cy="355.4" r="3.0" fill="#c2e7b8" fill-opacity="0.6"/>
<circle cx="409.2" cy="381.4" r="3.0" fill="#c2e7b8" fill-opacity="0.6"/>
<circle cx="258.2" cy="291.6" r="3.0" fill="#c2e7b8" fill-opacity="0.6"/>
<circle cx="266.4" cy="331.9" r="3.0" fill="#c2e7b8" fill-opacity="0.6"/>
<circle cx="274.6" cy="372.2" r="3.0" fill="#c2e7b8" fill-opacity="0.6"/>
<circle cx="282.8" cy="412.5" r="3.0" fill="#c2e7b8" fill-opacity="0.6"/>
<circle cx="291.1" cy="452.8" r="3.0" fill="#c2e7b8" fill-opacity="0.6"/>
<circle cx="230.9" cy="287.7" r="3.0" fill="#c2e7b8" fill-opacity="0.6"/>
<circle cx="211.8" cy="324.1" r="3.0" fill="#c2e7b8" fill-opacity="0.6"/>
<circle cx="192.6" cy="360.5" r="3.0" fill="#c2e7b8" fill-opacity="0.6"/>
<circle cx="173.5" cy="396.9" r="3.0" fill="#c2e7b8" fill-opacity="0.6"/>
<circle cx="154.4" cy="433.3" r="3.0" fill="#c2e7b8" fill-opacity="0.6"/>
<circle cx="212.2" cy="267.4" r="3.0" fill="#c2e7b8" fill-opacity="0.6"/>
<circle cx="174.3" cy="283.5" r="3.0" fill="#c2e7b8" fill-opacity="0.6"/>
<circle cx="136.5" cy="299.6" r="3.0" fill="#c2e7b8" fill-opacity="0.6"/>
<circle cx="98.7" cy="315.7" r="3.0" fill="#c2e7b8" fill-opacity="0.6"/>
<circle cx="60.8" cy="331.8" r="3.0" fill="#c2e7b8" fill-opacity="0.6"/>
<circle cx="352.8" cy="251.3" r="3.0" fill="#a6ffe3" fill-opacity="0.6"/>
<circle cx="393.9" cy="251.3" r="3.0" fill="#a6ffe3" fill-opacity="0.6"/>
<circle cx="435.0" cy="251.3" r="3.0" fill="#a6ffe3" fill-opacity="0.6"/>
<circle cx="297.2" cy="342.6" r="3.0" fill="#a6ffe3" fill-opacity="0.6"/>
<circle cx="316.1" cy="379.1" r="3.0" fill="#a6ffe3" fill-opacity="0.6"/>
<circle cx="335.0" cy="415.7" r="3.0" fill="#a6ffe3" fill-opacity="0.6"/>
<circle cx="190.6" cy="335.2" r="3.0" fill="#a6ffe3" fill-opacity="0.6"/>
<circle cx="166.9" cy="368.8" r="3.0" fill="#a6ffe3" fill-opacity="0.6"/>
<circle cx="143.1" cy="402.4" r="3.0" fill="#a6ffe3" fill-opacity="0.6"/>
<circle cx="148.2" cy="237.2" r="3.0" fill="#a6ffe3" fill-opacity="0.6"/>
<circle cx="107.5" cy="231.5" r="3.0" fill="#a6ffe3" fill-opacity="0.6"/>
<circle cx="66.8" cy="225.8" r="3.0" fill="#a6ffe3" fill-opacity="0.6"/>
<circle cx="215.8" cy="154.4" r="3.0" fill="#a6ffe3" fill-opacity="0.6"/>
<circle cx="202.1" cy="115.6" r="3.0" fill="#a6ffe3" fill-opacity="0.6"/>
<circle cx="188.4" cy="76.9" r="3.0" fill="#a6ffe3" fill-opacity="0.6"/>
<circle cx="373.3" cy="251.3" r="3.0" fill="#b0dcfc" fill-opacity="0.6"/>
<circle cx="414.5" cy="251.3" r="3.0" fill="#b0dcfc" fill-opacity="0.6"/>
<circle cx="455.6" cy="251.3" r="3.0" fill="#b0dcfc" fill-opacity="0.6"/>
<circle cx="235.1" cy="373.8" r="3.0" fill="#b0dcfc" fill-opacity="0.6"/>
<circle cx="230.1" cy="414.6" r="3.0" fill="#b0dcfc" fill-opacity="0.6"/>
<circle cx="225.1" cy="455.4" r="3.0" fill="#b0dcfc" fill-opacity="0.6"/>
<circle cx="130.3" cy="221.7" r="3.0" fill="#b0dcfc" fill-opacity="0.6"/>
<circle cx="90.4" cy="211.8" r="3.0" fill="#b0dcfc" fill-opacity="0.6"/>
<circle cx="50.5" cy="201.9" r="3.0" fill="#b0dcfc" fill-opacity="0.6"/>
<circle cx="294.0" cy="136.1" r="3.0" fill="#b0dcfc" fill-opacity="0.6"/>
<circle cx="308.6" cy="97.7" r="3.0" fill="#b0dcfc" fill-opacity="0.6"/>
<circle cx="323.3" cy="59.3" r="3.0" fill="#b0dcfc" fill-opacity="0.6"/>
<circle cx="250.0" cy="251.34" r="226.1" fill="#e53ccd" fill-opacity="0.20" stroke="#e53ccd" stroke-width="1.5"/>
<circle cx="250.0" cy="251.34" r="205.6" fill="#d245e2" fill-opacity="0.20" stroke="#d245e2" stroke-width="1.5"/>
<circle cx="250.0" cy="251.34" r="185.0" fill="#c04ef5" fill-opacity="0.19" stroke="#c04ef5" stroke-width="1.5"/>
<circle cx="250.0" cy="251.34" r="164.5" fill="#ae57105" fill-opacity="0.19" stroke="#ae57105" stroke-width="1.5"/>
<circle cx="250.0" cy="251.34" r="143.9" fill="#9c60111" fill-opacity="0.18" stroke="#9c60111" stroke-width="1.5"/>
<circle cx="250.0" cy="251.34" r="123.3" fill="#8a69117" fill-opacity="0.18" stroke="#8a69117" stroke-width="1.5"/>
<circle cx="250.0" cy="251.34" r="102.8" fill="#7872117" fill-opacity="0.17" stroke="#7872117" stroke-width="1.5"/>
<circle cx="250.0" cy="251.34" r="82.2" fill="#667b111" fill-opacity="0.17" stroke="#667b111" stroke-width="1.5"/>
<circle cx="250.0" cy="251.34" r="61.7" fill="#5484105" fill-opacity="0.16" stroke="#5484105" stroke-width="1.5"/>
<circle cx="250.0" cy="251.34" r="41.1" fill="#428df5" fill-opacity="0.16" stroke="#428df5" stroke-width="1.5"/>
<circle cx="250.0" cy="251.34" r="20.6" fill="#3096e2" fill-opacity="0.15" stroke="#3096e2" stroke-width="1.5"/>
<circle cx="291.1" cy="251.3" r="3.0" fill="#b4c9fd" fill-opacity="0.6"/>
<circle cx="332.2" cy="251.3" r="3.0" fill="#b4c9fd" fill-opacity="0.6"/>
<circle cx="373.3" cy="251.3" r="3.0" fill="#b4c9fd" fill-opacity="0.6"/>
<circle cx="414.5" cy="251.3" r="3.0" fill="#b4c9fd" fill-opacity="0.6"/>
<circle cx="455.6" cy="251.3" r="3.0" fill="#b4c9fd" fill-opacity="0.6"/>
<circle cx="276.2" cy="283.0" r="3.0" fill="#b4c9fd" fill-opacity="0.6"/>
<circle cx="302.4" cy="314.7" r="3.0" fill="#b4c9fd" fill-opacity="0.6"/>
<circle cx="328.6" cy="346.4" r="3.0" fill="#b4c9fd" fill-opacity="0.6"/>
<circle cx="354.8" cy="378.1" r="3.0" fill="#b4c9fd" fill-opacity="0.6"/>
<circle cx="381.0" cy="409.7" r="3.0" fill="#b4c9fd" fill-opacity="0.6"/>
<circle cx="242.3" cy="291.7" r="3.0" fill="#b4c9fd" fill-opacity="0.6"/>
<circle cx="234.6" cy="332.1" r="3.0" fill="#b4c9fd" fill-opacity="0.6"/>
<circle cx="226.9" cy="372.5" r="3.0" fill="#b4c9fd" fill-opacity="0.6"/>
<circle cx="219.2" cy="412.9" r="3.0" fill="#b4c9fd" fill-opacity="0.6"/>
<circle cx="211.5" cy="453.3" r="3.0" fill="#b4c9fd" fill-opacity="0.6"/>
<circle cx="214.0" cy="271.1" r="3.0" fill="#b4c9fd" fill-opacity="0.6"/>
<circle cx="177.9" cy="291.0" r="3.0" fill="#b4c9fd" fill-opacity="0.6"/>
<circle cx="141.9" cy="310.8" r="3.0" fill="#b4c9fd" fill-opacity="0.6"/>
<circle cx="105.9" cy="330.6" r="3.0" fill="#b4c9fd" fill-opacity="0.6"/>
<circle cx="69.9" cy="350.4" r="3.0" fill="#b4c9fd" fill-opacity="0.6"/>
<circle cx="211.8" cy="236.2" r="3.0" fill="#b4c9fd" fill-opacity="0.6"/>
<circle cx="173.5" cy="221.1" r="3.0" fill="#b4c9fd" fill-opacity="0.6"/>
<circle cx="135.3" cy="205.9" r="3.0" fill="#b4c9fd" fill-opacity="0.6"/>
<circle cx="97.1" cy="190.8" r="3.0" fill="#b4c9fd" fill-opacity="0.6"/>
<circle cx="58.9" cy="175.7" r="3.0" fill="#b4c9fd" fill-opacity="0.6"/>
<circle cx="237.3" cy="212.2" r="3.0" fill="#b4c9fd" fill-opacity="0.6"/>
<circle cx="224.6" cy="173.1" r="3.0" fill="#b4c9fd" fill-opacity="0.6"/>
<circle cx="211.9" cy="134.0" r="3.0" fill="#b4c9fd" fill-opacity="0.6"/>
<circle cx="199.2" cy="94.9" r="3.0" fill="#b4c9fd" fill-opacity="0.6"/>
<circle cx="186.5" cy="55.8" r="3.0" fill="#b4c9fd" fill-opacity="0.6"/>
<circle cx="272.0" cy="216.6" r="3.0" fill="#b4c9fd" fill-opacity="0.6"/>
<circle cx="294.1" cy="181.9" r="3.0" fill="#b4c9fd" fill-opacity="0.6"/>
<circle cx="316.1" cy="147.2" r="3.0" fill="#b4c9fd" fill-opacity="0.6"/>
<circle cx="338.1" cy="112.5" r="3.0" fill="#b4c9fd" fill-opacity="0.6"/>
<circle cx="360.1" cy="77.8" r="3.0" fill="#b4c9fd" fill-opacity="0.6"/>
<circle cx="290.8" cy="246.2" r="3.0" fill="#b4c9fd" fill-opacity="0.6"/>
<circle cx="331.6" cy="241.0" r="3.0" fill="#b4c9fd" fill-opacity="0.6"/>
<circle cx="372.4" cy="235.9" r="3.0" fill="#b4c9fd" fill-opacity="0.6"/>
<circle cx="413.2" cy="230.7" r="3.0" fill="#b4c9fd" fill-opacity="0.6"/>
<circle cx="453.9" cy="225.6" r="3.0" fill="#b4c9fd" fill-opacity="0.6"/>
<line x1="250.0" y1="251.34" x2="443.1" y2="251.3" stroke="#5028c8" stroke-width="2.57" opacity="0.30"/>
<line x1="250.0" y1="251.34" x2="426.4" y2="329.9" stroke="#612fb7" stroke-width="2.57" opacity="0.33"/>
<line x1="250.0" y1="251.34" x2="379.2" y2="394.8" stroke="#7237a6" stroke-width="2.57" opacity="0.35"/>
<line x1="250.0" y1="251.34" x2="309.7" y2="435.0" stroke="#833f95" stroke-width="2.57" opacity="0.38"/>
<line x1="250.0" y1="251.34" x2="229.8" y2="443.4" stroke="#944784" stroke-width="2.57" opacity="0.41"/>
<line x1="250.0" y1="251.34" x2="153.4" y2="418.6" stroke="#a54f73" stroke-width="2.57" opacity="0.43"/>
<line x1="250.0" y1="251.34" x2="93.8" y2="364.8" stroke="#b65662" stroke-width="2.57" opacity="0.46"/>
<line x1="250.0" y1="251.34" x2="61.1" y2="291.5" stroke="#c75e51" stroke-width="2.57" opacity="0.49"/>
<line x1="250.0" y1="251.34" x2="61.1" y2="211.2" stroke="#d86640" stroke-width="2.57" opacity="0.51"/>
<line x1="250.0" y1="251.34" x2="93.8" y2="137.8" stroke="#d96e2f" stroke-width="2.57" opacity="0.54"/>
<line x1="250.0" y1="251.34" x2="153.4" y2="84.1" stroke="#d9761e" stroke-width="2.57" opacity="0.57"/>
<line x1="250.0" y1="251.34" x2="229.8" y2="59.3" stroke="#d97e0d" stroke-width="2.57" opacity="0.59"/>
<line x1="250.0" y1="251.34" x2="309.7" y2="67.7" stroke="#d98500" stroke-width="2.57" opacity="0.62"/>
<line x1="250.0" y1="251.34" x2="379.2" y2="107.8" stroke="#d98d00" stroke-width="2.57" opacity="0.65"/>
<line x1="250.0" y1="251.34" x2="426.4" y2="172.8" stroke="#d99500" stroke-width="2.57" opacity="0.67"/>
<line x1="250.0" y1="251.34" x2="443.1" y2="251.3" stroke="#5e21c0" stroke-width="2.57" opacity="0.23"/>
<line x1="250.0" y1="251.34" x2="420.6" y2="341.9" stroke="#7228ac" stroke-width="2.57" opacity="0.25"/>
<line x1="250.0" y1="251.34" x2="358.2" y2="411.3" stroke="#863098" stroke-width="2.57" opacity="0.28"/>
<line x1="250.0" y1="251.34" x2="270.6" y2="443.3" stroke="#9a3884" stroke-width="2.57" opacity="0.30"/>
<line x1="250.0" y1="251.34" x2="178.2" y2="430.6" stroke="#ae4070" stroke-width="2.57" opacity="0.32"/>
<line x1="250.0" y1="251.34" x2="102.5" y2="376.0" stroke="#c2485c" stroke-width="2.57" opacity="0.35"/>
<line x1="250.0" y1="251.34" x2="61.3" y2="292.3" stroke="#d64f48" stroke-width="2.57" opacity="0.37"/>
<line x1="250.0" y1="251.34" x2="64.1" y2="199.0" stroke="#ea5734" stroke-width="2.57" opacity="0.39"/>
<line x1="250.0" y1="251.34" x2="110.3" y2="118.0" stroke="#fe5f20" stroke-width="2.57" opacity="0.42"/>
<line x1="250.0" y1="251.34" x2="189.2" y2="68.1" stroke="#112670c" stroke-width="2.57" opacity="0.44"/>
<line x1="250.0" y1="251.34" x2="282.2" y2="60.9" stroke="#1266f00" stroke-width="2.57" opacity="0.46"/>
<line x1="250.0" y1="251.34" x2="367.7" y2="98.3" stroke="#13a7600" stroke-width="2.57" opacity="0.49"/>
<line x1="250.0" y1="251.34" x2="425.8" y2="171.3" stroke="#13f7e00" stroke-width="2.57" opacity="0.51"/>
<line x1="250.0" y1="251.34" x2="442.8" y2="263.1" stroke="#13f8600" stroke-width="2.57" opacity="0.53"/>
<line x1="250.0" y1="251.34" x2="414.8" y2="352.1" stroke="#13f8e00" stroke-width="2.57" opacity="0.56"/>
<circle cx="332.2" cy="251.3" r="3.0" fill="#adedd8" fill-opacity="0.6"/>
<circle cx="393.9" cy="251.3" r="3.0" fill="#adedd8" fill-opacity="0.6"/>
<circle cx="455.6" cy="251.3" r="3.0" fill="#adedd8" fill-opacity="0.6"/>
<circle cx="275.4" cy="329.5" r="3.0" fill="#adedd8" fill-opacity="0.6"/>
<circle cx="294.5" cy="388.2" r="3.0" fill="#adedd8" fill-opacity="0.6"/>
<circle cx="313.5" cy="446.8" r="3.0" fill="#adedd8" fill-opacity="0.6"/>
<circle cx="183.5" cy="299.7" r="3.0" fill="#adedd8" fill-opacity="0.6"/>
<circle cx="133.6" cy="335.9" r="3.0" fill="#adedd8" fill-opacity="0.6"/>
<circle cx="83.7" cy="372.2" r="3.0" fill="#adedd8" fill-opacity="0.6"/>
<circle cx="183.5" cy="203.0" r="3.0" fill="#adedd8" fill-opacity="0.6"/>
<circle cx="133.6" cy="166.8" r="3.0" fill="#adedd8" fill-opacity="0.6"/>
<circle cx="83.7" cy="130.5" r="3.0" fill="#adedd8" fill-opacity="0.6"/>
<circle cx="275.4" cy="173.1" r="3.0" fill="#adedd8" fill-opacity="0.6"/>
<circle cx="294.5" cy="114.5" r="3.0" fill="#adedd8" fill-opacity="0.6"/>
<circle cx="313.5" cy="55.8" r="3.0" fill="#adedd8" fill-opacity="0.6"/>
<circle cx="311.7" cy="251.3" r="3.0" fill="#adedd8" fill-opacity="0.6"/>
<circle cx="352.8" cy="251.3" r="3.0" fill="#adedd8" fill-opacity="0.6"/>
<circle cx="393.9" cy="251.3" r="3.0" fill="#adedd8" fill-opacity="0.6"/>
<circle cx="435.0" cy="251.3" r="3.0" fill="#adedd8" fill-opacity="0.6"/>
<circle cx="230.5" cy="309.8" r="3.0" fill="#adedd8" fill-opacity="0.6"/>
<circle cx="217.4" cy="348.8" r="3.0" fill="#adedd8" fill-opacity="0.6"/>
<circle cx="204.4" cy="387.8" r="3.0" fill="#adedd8" fill-opacity="0.6"/>
<circle cx="191.4" cy="426.8" r="3.0" fill="#adedd8" fill-opacity="0.6"/>
<circle cx="200.7" cy="214.3" r="3.0" fill="#adedd8" fill-opacity="0.6"/>
<circle cx="167.9" cy="189.5" r="3.0" fill="#adedd8" fill-opacity="0.6"/>
<circle cx="135.0" cy="164.8" r="3.0" fill="#adedd8" fill-opacity="0.6"/>
<circle cx="102.2" cy="140.1" r="3.0" fill="#adedd8" fill-opacity="0.6"/>
<circle cx="300.8" cy="216.4" r="3.0" fill="#adedd8" fill-opacity="0.6"/>
<circle cx="334.6" cy="193.0" r="3.0" fill="#adedd8" fill-opacity="0.6"/>
<circle cx="368.5" cy="169.7" r="3.0" fill="#adedd8" fill-opacity="0.6"/>
<circle cx="402.4" cy="146.4" r="3.0" fill="#adedd8" fill-opacity="0.6"/>
<circle cx="311.7" cy="251.3" r="3.0" fill="#adedd8" fill-opacity="0.6"/>
<circle cx="352.8" cy="251.3" r="3.0" fill="#adedd8" fill-opacity="0.6"/>
<circle cx="393.9" cy="251.3" r="3.0" fill="#adedd8" fill-opacity="0.6"/>
<circle cx="435.0" cy="251.3" r="3.0" fill="#adedd8" fill-opacity="0.6"/>
<circle cx="283.7" cy="303.0" r="3.0" fill="#adedd8" fill-opacity="0.6"/>
<circle cx="306.2" cy="337.4" r="3.0" fill="#adedd8" fill-opacity="0.6"/>
<circle cx="328.6" cy="371.9" r="3.0" fill="#adedd8" fill-opacity="0.6"/>
<circle cx="351.1" cy="406.3" r="3.0" fill="#adedd8" fill-opacity="0.6"/>
<circle cx="225.2" cy="307.8" r="3.0" fill="#adedd8" fill-opacity="0.6"/>
<circle cx="208.6" cy="345.4" r="3.0" fill="#adedd8" fill-opacity="0.6"/>
<circle cx="192.0" cy="383.0" r="3.0" fill="#adedd8" fill-opacity="0.6"/>
<circle cx="175.5" cy="420.7" r="3.0" fill="#adedd8" fill-opacity="0.6"/>
<circle cx="189.2" cy="261.4" r="3.0" fill="#adedd8" fill-opacity="0.6"/>
<circle cx="148.6" cy="268.1" r="3.0" fill="#adedd8" fill-opacity="0.6"/>
<circle cx="108.0" cy="274.7" r="3.0" fill="#adedd8" fill-opacity="0.6"/>
<circle cx="67.5" cy="281.4" r="3.0" fill="#adedd8" fill-opacity="0.6"/>
<circle cx="208.4" cy="205.9" r="3.0" fill="#adedd8" fill-opacity="0.6"/>
<circle cx="180.6" cy="175.5" r="3.0" fill="#adedd8" fill-opacity="0.6"/>
<circle cx="152.8" cy="145.2" r="3.0" fill="#adedd8" fill-opacity="0.6"/>
<circle cx="125.1" cy="114.9" r="3.0" fill="#adedd8" fill-opacity="0.6"/>
<circle cx="265.3" cy="191.6" r="3.0" fill="#adedd8" fill-opacity="0.6"/>
<circle cx="275.6" cy="151.8" r="3.0" fill="#adedd8" fill-opacity="0.6"/>
<circle cx="285.8" cy="112.0" r="3.0" fill="#adedd8" fill-opacity="0.6"/>
<circle cx="296.0" cy="72.1" r="3.0" fill="#adedd8" fill-opacity="0.6"/>
<circle cx="308.4" cy="231.5" r="3.0" fill="#adedd8" fill-opacity="0.6"/>
<circle cx="347.3" cy="218.4" r="3.0" fill="#adedd8" fill-opacity="0.6"/>
<circle cx="386.3" cy="205.2" r="3.0" fill="#adedd8" fill-opacity="0.6"/>
<circle cx="425.2" cy="192.0" r="3.0" fill="#adedd8" fill-opacity="0.6"/>
<circle cx="298.5" cy="289.4" r="3.0" fill="#adedd8" fill-opacity="0.6"/>
<circle cx="330.8" cy="314.8" r="3.0" fill="#adedd8" fill-opacity="0.6"/>
<circle cx="363.1" cy="340.2" r="3.0" fill="#adedd8" fill-opacity="0.6"/>
<circle cx="395.5" cy="365.6" r="3.0" fill="#adedd8" fill-opacity="0.6"/>
<line x1="250.0" y1="251.34" x2="443.1" y2="251.3" stroke="#402de5" stroke-width="2.57" opacity="0.38"/>
<line x1="250.0" y1="251.34" x2="416.6" y2="348.9" stroke="#5237d3" stroke-width="2.57" opacity="0.40"/>
<line x1="250.0" y1="251.34" x2="344.4" y2="419.8" stroke="#6441c1" stroke-width="2.57" opacity="0.42"/>
<line x1="250.0" y1="251.34" x2="246.4" y2="444.4" stroke="#764baf" stroke-width="2.57" opacity="0.44"/>
<line x1="250.0" y1="251.34" x2="149.3" y2="416.1" stroke="#88569d" stroke-width="2.57" opacity="0.47"/>
<line x1="250.0" y1="251.34" x2="79.8" y2="342.6" stroke="#9a608b" stroke-width="2.57" opacity="0.49"/>
<line x1="250.0" y1="251.34" x2="57.0" y2="244.1" stroke="#ac6a79" stroke-width="2.57" opacity="0.51"/>
<line x1="250.0" y1="251.34" x2="87.2" y2="147.5" stroke="#be7467" stroke-width="2.57" opacity="0.53"/>
<line x1="250.0" y1="251.34" x2="162.0" y2="79.5" stroke="#d17f54" stroke-width="2.57" opacity="0.55"/>
<line x1="250.0" y1="251.34" x2="260.9" y2="58.5" stroke="#dd8942" stroke-width="2.57" opacity="0.57"/>
<line x1="250.0" y1="251.34" x2="356.9" y2="90.5" stroke="#dd9430" stroke-width="2.57" opacity="0.59"/>
<line x1="250.0" y1="251.34" x2="423.5" y2="166.6" stroke="#dd9e1e" stroke-width="2.57" opacity="0.61"/>
<line x1="250.0" y1="251.34" x2="442.6" y2="265.9" stroke="#dda80c" stroke-width="2.57" opacity="0.64"/>
<line x1="250.0" y1="251.34" x2="408.8" y2="361.2" stroke="#ddb200" stroke-width="2.57" opacity="0.66"/>
<line x1="250.0" y1="251.34" x2="331.5" y2="426.4" stroke="#ddbd00" stroke-width="2.57" opacity="0.68"/>
<circle cx="352.8" cy="251.3" r="3.0" fill="#aad6ff" fill-opacity="0.6"/>
<circle cx="393.9" cy="251.3" r="3.0" fill="#aad6ff" fill-opacity="0.6"/>
<circle cx="435.0" cy="251.3" r="3.0" fill="#aad6ff" fill-opacity="0.6"/>
<circle cx="266.1" cy="352.9" r="3.0" fill="#aad6ff" fill-opacity="0.6"/>
<circle cx="272.5" cy="393.5" r="3.0" fill="#aad6ff" fill-opacity="0.6"/>
<circle cx="278.9" cy="434.1" r="3.0" fill="#aad6ff" fill-opacity="0.6"/>
<circle cx="152.2" cy="283.1" r="3.0" fill="#aad6ff" fill-opacity="0.6"/>
<circle cx="113.1" cy="295.8" r="3.0" fill="#aad6ff" fill-opacity="0.6"/>
<circle cx="74.0" cy="308.5" r="3.0" fill="#aad6ff" fill-opacity="0.6"/>
<circle cx="311.7" cy="251.3" r="3.0" fill="#a0c3c8" fill-opacity="0.6"/>
<circle cx="352.8" cy="251.3" r="3.0" fill="#a0c3c8" fill-opacity="0.6"/>
<circle cx="393.9" cy="251.3" r="3.0" fill="#a0c3c8" fill-opacity="0.6"/>
<circle cx="435.0" cy="251.3" r="3.0" fill="#a0c3c8" fill-opacity="0.6"/>
<circle cx="300.2" cy="287.2" r="3.0" fill="#a0c3c8" fill-opacity="0.6"/>
<circle cx="333.7" cy="311.1" r="3.0" fill="#a0c3c8" fill-opacity="0.6"/>
<circle cx="367.1" cy="334.9" r="3.0" fill="#a0c3c8" fill-opacity="0.6"/>
<circle cx="400.6" cy="358.8" r="3.0" fill="#a0c3c8" fill-opacity="0.6"/>
<circle cx="270.0" cy="309.7" r="3.0" fill="#a0c3c8" fill-opacity="0.6"/>
<circle cx="283.4" cy="348.5" r="3.0" fill="#a0c3c8" fill-opacity="0.6"/>
<circle cx="296.8" cy="387.4" r="3.0" fill="#a0c3c8" fill-opacity="0.6"/>
<circle cx="310.1" cy="426.3" r="3.0" fill="#a0c3c8" fill-opacity="0.6"/>
<circle cx="232.4" cy="310.5" r="3.0" fill="#a0c3c8" fill-opacity="0.6"/>
<circle cx="220.7" cy="349.9" r="3.0" fill="#a0c3c8" fill-opacity="0.6"/>
<circle cx="209.0" cy="389.3" r="3.0" fill="#a0c3c8" fill-opacity="0.6"/>
<circle cx="197.3" cy="428.7" r="3.0" fill="#a0c3c8" fill-opacity="0.6"/>
<circle cx="201.4" cy="289.2" r="3.0" fill="#a0c3c8" fill-opacity="0.6"/>
<circle cx="168.9" cy="314.5" r="3.0" fill="#a0c3c8" fill-opacity="0.6"/>
<circle cx="136.5" cy="339.8" r="3.0" fill="#a0c3c8" fill-opacity="0.6"/>
<circle cx="104.1" cy="365.0" r="3.0" fill="#a0c3c8" fill-opacity="0.6"/>
<circle cx="188.4" cy="253.9" r="3.0" fill="#a0c3c8" fill-opacity="0.6"/>
<circle cx="147.3" cy="255.6" r="3.0" fill="#a0c3c8" fill-opacity="0.6"/>
<circle cx="106.2" cy="257.4" r="3.0" fill="#a0c3c8" fill-opacity="0.6"/>
<circle cx="65.2" cy="259.1" r="3.0" fill="#a0c3c8" fill-opacity="0.6"/>
<circle cx="198.4" cy="217.6" r="3.0" fill="#a0c3c8" fill-opacity="0.6"/>
<circle cx="163.9" cy="195.2" r="3.0" fill="#a0c3c8" fill-opacity="0.6"/>
<circle cx="129.5" cy="172.7" r="3.0" fill="#a0c3c8" fill-opacity="0.6"/>
<circle cx="95.1" cy="150.3" r="3.0" fill="#a0c3c8" fill-opacity="0.6"/>
<circle cx="227.5" cy="193.9" r="3.0" fill="#a0c3c8" fill-opacity="0.6"/>
<circle cx="212.6" cy="155.6" r="3.0" fill="#a0c3c8" fill-opacity="0.6"/>
<circle cx="197.6" cy="117.3" r="3.0" fill="#a0c3c8" fill-opacity="0.6"/>
<circle cx="182.6" cy="79.0" r="3.0" fill="#a0c3c8" fill-opacity="0.6"/>
<circle cx="311.7" cy="251.3" r="3.0" fill="#a0c3c8" fill-opacity="0.6"/>
<circle cx="352.8" cy="251.3" r="3.0" fill="#a0c3c8" fill-opacity="0.6"/>
<circle cx="393.9" cy="251.3" r="3.0" fill="#a0c3c8" fill-opacity="0.6"/>
<circle cx="435.0" cy="251.3" r="3.0" fill="#a0c3c8" fill-opacity="0.6"/>
<circle cx="302.3" cy="283.9" r="3.0" fill="#a0c3c8" fill-opacity="0.6"/>
<circle cx="337.2" cy="305.7" r="3.0" fill="#a0c3c8" fill-opacity="0.6"/>
<circle cx="372.1" cy="327.4" r="3.0" fill="#a0c3c8" fill-opacity="0.6"/>
<circle cx="407.0" cy="349.2" r="3.0" fill="#a0c3c8" fill-opacity="0.6"/>
<circle cx="277.2" cy="306.7" r="3.0" fill="#a0c3c8" fill-opacity="0.6"/>
<circle cx="295.3" cy="343.6" r="3.0" fill="#a0c3c8" fill-opacity="0.6"/>
<circle cx="313.4" cy="380.5" r="3.0" fill="#a0c3c8" fill-opacity="0.6"/>
<circle cx="331.6" cy="417.4" r="3.0" fill="#a0c3c8" fill-opacity="0.6"/>
<circle cx="243.8" cy="312.7" r="3.0" fill="#a0c3c8" fill-opacity="0.6"/>
<circle cx="239.7" cy="353.6" r="3.0" fill="#a0c3c8" fill-opacity="0.6"/>
<circle cx="235.6" cy="394.5" r="3.0" fill="#a0c3c8" fill-opacity="0.6"/>
<circle cx="231.4" cy="435.4" r="3.0" fill="#a0c3c8" fill-opacity="0.6"/>
<circle cx="212.3" cy="300.1" r="3.0" fill="#a0c3c8" fill-opacity="0.6"/>
<circle cx="187.2" cy="332.7" r="3.0" fill="#a0c3c8" fill-opacity="0.6"/>
<circle cx="162.0" cy="365.2" r="3.0" fill="#a0c3c8" fill-opacity="0.6"/>
<circle cx="136.9" cy="397.8" r="3.0" fill="#a0c3c8" fill-opacity="0.6"/>
<circle cx="192.2" cy="272.8" r="3.0" fill="#a0c3c8" fill-opacity="0.6"/>
<circle cx="153.7" cy="287.2" r="3.0" fill="#a0c3c8" fill-opacity="0.6"/>
<circle cx="115.1" cy="301.5" r="3.0" fill="#a0c3c8" fill-opacity="0.6"/>
<circle cx="76.6" cy="315.8" r="3.0" fill="#a0c3c8" fill-opacity="0.6"/>
<circle cx="189.6" cy="239.0" r="3.0" fill="#a0c3c8" fill-opacity="0.6"/>
<circle cx="149.3" cy="230.8" r="3.0" fill="#a0c3c8" fill-opacity="0.6"/>
<circle cx="109.0" cy="222.6" r="3.0" fill="#a0c3c8" fill-opacity="0.6"/>
<circle cx="68.7" cy="214.4" r="3.0" fill="#a0c3c8" fill-opacity="0.6"/>
<circle cx="205.2" cy="208.9" r="3.0" fill="#a0c3c8" fill-opacity="0.6"/>
<circle cx="175.4" cy="180.7" r="3.0" fill="#a0c3c8" fill-opacity="0.6"/>
<circle cx="145.5" cy="152.4" r="3.0" fill="#a0c3c8" fill-opacity="0.6"/>
<circle cx="115.7" cy="124.1" r="3.0" fill="#a0c3c8" fill-opacity="0.6"/>
<circle cx="250.0" cy="251.34" r="226.1" fill="#db2bd7" fill-opacity="0.27" stroke="#db2bd7" stroke-width="1.5"/>
<circle cx="250.0" cy="251.34" r="205.6" fill="#c931ec" fill-opacity="0.27" stroke="#c931ec" stroke-width="1.5"/>
<circle cx="250.0" cy="251.34" r="185.0" fill="#b837ff" fill-opacity="0.26" stroke="#b837ff" stroke-width="1.5"/>
<circle cx="250.0" cy="251.34" r="164.5" fill="#a63d10f" fill-opacity="0.26" stroke="#a63d10f" stroke-width="1.5"/>
<circle cx="250.0" cy="251.34" r="143.9" fill="#954411b" fill-opacity="0.26" stroke="#954411b" stroke-width="1.5"/>
<circle cx="250.0" cy="251.34" r="123.3" fill="#834a121" fill-opacity="0.25" stroke="#834a121" stroke-width="1.5"/>
<circle cx="250.0" cy="251.34" r="102.8" fill="#7250121" fill-opacity="0.25" stroke="#7250121" stroke-width="1.5"/>
<circle cx="250.0" cy="251.34" r="82.2" fill="#605711b" fill-opacity="0.24" stroke="#605711b" stroke-width="1.5"/>
<circle cx="250.0" cy="251.34" r="61.7" fill="#4f5d10f" fill-opacity="0.24" stroke="#4f5d10f" stroke-width="1.5"/>
<circle cx="250.0" cy="251.34" r="41.1" fill="#3d63ff" fill-opacity="0.24" stroke="#3d63ff" stroke-width="1.5"/>
<circle cx="250.0" cy="251.34" r="20.6" fill="#2c69ec" fill-opacity="0.23" stroke="#2c69ec" stroke-width="1.5"/>
<circle cx="291.1" cy="251.3" r="3.0" fill="#add9b9" fill-opacity="0.6"/>
<circle cx="352.8" cy="251.3" r="3.0" fill="#add9b9" fill-opacity="0.6"/>
<circle cx="414.5" cy="251.3" r="3.0" fill="#add9b9" fill-opacity="0.6"/>
<circle cx="266.9" cy="288.8" r="3.0" fill="#add9b9" fill-opacity="0.6"/>
<circle cx="292.2" cy="345.1" r="3.0" fill="#add9b9" fill-opacity="0.6"/>
<circle cx="317.5" cy="401.3" r="3.0" fill="#add9b9" fill-opacity="0.6"/>
<circle cx="222.7" cy="282.1" r="3.0" fill="#add9b9" fill-opacity="0.6"/>
<circle cx="181.9" cy="328.3" r="3.0" fill="#add9b9" fill-opacity="0.6"/>
<circle cx="141.0" cy="374.5" r="3.0" fill="#add9b9" fill-opacity="0.6"/>
<circle cx="210.7" cy="239.1" r="3.0" fill="#add9b9" fill-opacity="0.6"/>
<circle cx="151.9" cy="220.8" r="3.0" fill="#add9b9" fill-opacity="0.6"/>
<circle cx="93.0" cy="202.5" r="3.0" fill="#add9b9" fill-opacity="0.6"/>
<circle cx="311.7" cy="251.3" r="3.0" fill="#b4c9fd" fill-opacity="0.6"/>
<circle cx="352.8" cy="251.3" r="3.0" fill="#b4c9fd" fill-opacity="0.6"/>
<circle cx="393.9" cy="251.3" r="3.0" fill="#b4c9fd" fill-opacity="0.6"/>
<circle cx="435.0" cy="251.3" r="3.0" fill="#b4c9fd" fill-opacity="0.6"/>
<circle cx="277.0" cy="306.8" r="3.0" fill="#b4c9fd" fill-opacity="0.6"/>
<circle cx="294.9" cy="343.8" r="3.0" fill="#b4c9fd" fill-opacity="0.6"/>
<circle cx="312.9" cy="380.8" r="3.0" fill="#b4c9fd" fill-opacity="0.6"/>
<circle cx="330.9" cy="417.7" r="3.0" fill="#b4c9fd" fill-opacity="0.6"/>
<circle cx="211.9" cy="299.8" r="3.0" fill="#b4c9fd" fill-opacity="0.6"/>
<circle cx="186.5" cy="332.2" r="3.0" fill="#b4c9fd" fill-opacity="0.6"/>
<circle cx="161.1" cy="364.5" r="3.0" fill="#b4c9fd" fill-opacity="0.6"/>
<circle cx="135.7" cy="396.8" r="3.0" fill="#b4c9fd" fill-opacity="0.6"/>
<circle cx="189.7" cy="238.3" r="3.0" fill="#b4c9fd" fill-opacity="0.6"/>
<circle cx="149.6" cy="229.5" r="3.0" fill="#b4c9fd" fill-opacity="0.6"/>
<circle cx="109.4" cy="220.8" r="3.0" fill="#b4c9fd" fill-opacity="0.6"/>
<circle cx="69.2" cy="212.1" r="3.0" fill="#b4c9fd" fill-opacity="0.6"/>
<circle cx="235.4" cy="191.4" r="3.0" fill="#b4c9fd" fill-opacity="0.6"/>
<circle cx="225.7" cy="151.5" r="3.0" fill="#b4c9fd" fill-opacity="0.6"/>
<circle cx="216.0" cy="111.5" r="3.0" fill="#b4c9fd" fill-opacity="0.6"/>
<circle cx="206.2" cy="71.6" r="3.0" fill="#b4c9fd" fill-opacity="0.6"/>
<circle cx="297.5" cy="212.0" r="3.0" fill="#b4c9fd" fill-opacity="0.6"/>
<circle cx="329.2" cy="185.8" r="3.0" fill="#b4c9fd" fill-opacity="0.6"/>
<circle cx="360.9" cy="159.6" r="3.0" fill="#b4c9fd" fill-opacity="0.6"/>
<circle cx="392.6" cy="133.4" r="3.0" fill="#b4c9fd" fill-opacity="0.6"/>
<circle cx="306.1" cy="276.9" r="3.0" fill="#b4c9fd" fill-opacity="0.6"/>
<circle cx="343.5" cy="293.9" r="3.0" fill="#b4c9fd" fill-opacity="0.6"/>
<circle cx="381.0" cy="311.0" r="3.0" fill="#b4c9fd" fill-opacity="0.6"/>
<circle cx="418.4" cy="328.0" r="3.0" fill="#b4c9fd" fill-opacity="0.6"/>
<circle cx="251.5" cy="313.0" r="3.0" fill="#b4c9fd" fill-opacity="0.6"/>
<circle cx="252.6" cy="354.1" r="3.0" fill="#b4c9fd" fill-opacity="0.6"/>
<circle cx="253.6" cy="395.2" r="3.0" fill="#b4c9fd" fill-opacity="0.6"/>
<circle cx="254.6" cy="436.3" r="3.0" fill="#b4c9fd" fill-opacity="0.6"/>
<circle cx="291.1" cy="251.3" r="3.0" fill="#b6fdff" fill-opacity="0.6"/>
<circle cx="332.2" cy="251.3" r="3.0" fill="#b6fdff" fill-opacity="0.6"/>
<circle cx="373.3" cy="251.3" r="3.0" fill="#b6fdff" fill-opacity="0.6"/>
<circle cx="414.5" cy="251.3" r="3.0" fill="#b6fdff" fill-opacity="0.6"/>
<circle cx="455.6" cy="251.3" r="3.0" fill="#b6fdff" fill-opacity="0.6"/>
<circle cx="274.4" cy="284.4" r="3.0" fill="#b6fdff" fill-opacity="0.6"/>
<circle cx="298.9" cy="317.5" r="3.0" fill="#b6fdff" fill-opacity="0.6"/>
<circle cx="323.3" cy="350.5" r="3.0" fill="#b6fdff" fill-opacity="0.6"/>
<circle cx="347.8" cy="383.6" r="3.0" fill="#b6fdff" fill-opacity="0.6"/>
<circle cx="372.2" cy="416.6" r="3.0" fill="#b6fdff" fill-opacity="0.6"/>
<circle cx="238.0" cy="290.6" r="3.0" fill="#b6fdff" fill-opacity="0.6"/>
<circle cx="225.9" cy="330.0" r="3.0" fill="#b6fdff" fill-opacity="0.6"/>
<circle cx="213.9" cy="369.3" r="3.0" fill="#b6fdff" fill-opacity="0.6"/>
<circle cx="201.8" cy="408.6" r="3.0" fill="#b6fdff" fill-opacity="0.6"/>
<circle cx="189.8" cy="447.9" r="3.0" fill="#b6fdff" fill-opacity="0.6"/>
<circle cx="211.2" cy="265.0" r="3.0" fill="#b6fdff" fill-opacity="0.6"/>
<circle cx="172.5" cy="278.7" r="3.0" fill="#b6fdff" fill-opacity="0.6"/>
<circle cx="133.7" cy="292.4" r="3.0" fill="#b6fdff" fill-opacity="0.6"/>
<circle cx="94.9" cy="306.1" r="3.0" fill="#b6fdff" fill-opacity="0.6"/>
<circle cx="56.2" cy="319.8" r="3.0" fill="#b6fdff" fill-opacity="0.6"/>
<circle cx="215.9" cy="228.3" r="3.0" fill="#b6fdff" fill-opacity="0.6"/>
<circle cx="181.9" cy="205.3" r="3.0" fill="#b6fdff" fill-opacity="0.6"/>
<circle cx="147.8" cy="182.2" r="3.0" fill="#b6fdff" fill-opacity="0.6"/>
<circle cx="113.8" cy="159.2" r="3.0" fill="#b6fdff" fill-opacity="0.6"/>
<circle cx="79.7" cy="136.2" r="3.0" fill="#b6fdff" fill-opacity="0.6"/>
<circle cx="248.3" cy="210.3" r="3.0" fill="#b6fdff" fill-opacity="0.6"/>
<circle cx="246.6" cy="169.2" r="3.0" fill="#b6fdff" fill-opacity="0.6"/>
<circle cx="244.8" cy="128.1" r="3.0" fill="#b6fdff" fill-opacity="0.6"/>
<circle cx="243.1" cy="87.0" r="3.0" fill="#b6fdff" fill-opacity="0.6"/>
<circle cx="241.4" cy="46.0" r="3.0" fill="#b6fdff" fill-opacity="0.6"/>
<circle cx="282.0" cy="225.5" r="3.0" fill="#b6fdff" fill-opacity="0.6"/>
<circle cx="314.0" cy="199.7" r="3.0" fill="#b6fdff" fill-opacity="0.6"/>
<circle cx="346.0" cy="173.9" r="3.0" fill="#b6fdff" fill-opacity="0.6"/>
<circle cx="378.0" cy="148.1" r="3.0" fill="#b6fdff" fill-opacity="0.6"/>
<circle cx="410.0" cy="122.3" r="3.0" fill="#b6fdff" fill-opacity="0.6"/>
<circle cx="289.8" cy="261.7" r="3.0" fill="#b6fdff" fill-opacity="0.6"/>
<circle cx="329.6" cy="272.1" r="3.0" fill="#b6fdff" fill-opacity="0.6"/>
<circle cx="369.3" cy="282.5" r="3.0" fill="#b6fdff" fill-opacity="0.6"/>
<circle cx="409.1" cy="292.9" r="3.0" fill="#b6fdff" fill-opacity="0.6"/>
<circle cx="448.9" cy="303.3" r="3.0" fill="#b6fdff" fill-opacity="0.6"/>
<circle cx="311.7" cy="251.3" r="3.0" fill="#a9cfff" fill-opacity="0.6"/>
<circle cx="352.8" cy="251.3" r="3.0" fill="#a9cfff" fill-opacity="0.6"/>
<circle cx="393.9" cy="251.3" r="3.0" fill="#a9cfff" fill-opacity="0.6"/>
<circle cx="435.0" cy="251.3" r="3.0" fill="#a9cfff" fill-opacity="0.6"/>
<circle cx="289.1" cy="299.0" r="3.0" fill="#a9cfff" fill-opacity="0.6"/>
<circle cx="315.2" cy="330.8" r="3.0" fill="#a9cfff" fill-opacity="0.6"/>
<circle cx="341.3" cy="362.6" r="3.0" fill="#a9cfff" fill-opacity="0.6"/>
<circle cx="367.3" cy="394.4" r="3.0" fill="#a9cfff" fill-opacity="0.6"/>
<circle cx="237.9" cy="311.8" r="3.0" fill="#a9cfff" fill-opacity="0.6"/>
<circle cx="229.9" cy="352.1" r="3.0" fill="#a9cfff" fill-opacity="0.6"/>
<circle cx="221.9" cy="392.5" r="3.0" fill="#a9cfff" fill-opacity="0.6"/>
<circle cx="213.8" cy="432.8" r="3.0" fill="#a9cfff" fill-opacity="0.6"/>
<circle cx="195.6" cy="280.4" r="3.0" fill="#a9cfff" fill-opacity="0.6"/>
<circle cx="159.3" cy="299.7" r="3.0" fill="#a9cfff" fill-opacity="0.6"/>
<circle cx="123.0" cy="319.1" r="3.0" fill="#a9cfff" fill-opacity="0.6"/>
<circle cx="86.8" cy="338.4" r="3.0" fill="#a9cfff" fill-opacity="0.6"/>
<circle cx="193.0" cy="227.7" r="3.0" fill="#a9cfff" fill-opacity="0.6"/>
<circle cx="155.1" cy="211.9" r="3.0" fill="#a9cfff" fill-opacity="0.6"/>
<circle cx="117.1" cy="196.1" r="3.0" fill="#a9cfff" fill-opacity="0.6"/>
<circle cx="79.1" cy="180.4" r="3.0" fill="#a9cfff" fill-opacity="0.6"/>
<circle cx="232.2" cy="192.3" r="3.0" fill="#a9cfff" fill-opacity="0.6"/>
<circle cx="220.3" cy="152.9" r="3.0" fill="#a9cfff" fill-opacity="0.6"/>
<circle cx="208.4" cy="113.6" r="3.0" fill="#a9cfff" fill-opacity="0.6"/>
<circle cx="196.5" cy="74.2" r="3.0" fill="#a9cfff" fill-opacity="0.6"/>
<circle cx="284.3" cy="200.1" r="3.0" fill="#a9cfff" fill-opacity="0.6"/>
<circle cx="307.2" cy="166.0" r="3.0" fill="#a9cfff" fill-opacity="0.6"/>
<circle cx="330.1" cy="131.8" r="3.0" fill="#a9cfff" fill-opacity="0.6"/>
<circle cx="353.0" cy="97.7" r="3.0" fill="#a9cfff" fill-opacity="0.6"/>
<circle cx="311.4" cy="245.4" r="3.0" fill="#a9cfff" fill-opacity="0.6"/>
<circle cx="352.3" cy="241.5" r="3.0" fill="#a9cfff" fill-opacity="0.6"/>
<circle cx="393.2" cy="237.5" r="3.0" fill="#a9cfff" fill-opacity="0.6"/>
<circle cx="434.1" cy="233.5" r="3.0" fill="#a9cfff" fill-opacity="0.6"/>
<circle cx="250.0" cy="251.34" r="226.1" fill="#f05bd4" fill-opacity="0.21" stroke="#f05bd4" stroke-width="1.5"/>
<circle cx="250.0" cy="251.34" r="205.6" fill="#de64e1" fill-opacity="0.21" stroke="#de64e1" stroke-width="1.5"/>
<circle cx="250.0" cy="251.34" r="185.0" fill="#cc6ded" fill-opacity="0.20" stroke="#cc6ded" stroke-width="1.5"/>
<circle cx="250.0" cy="251.34" r="164.5" fill="#ba75f7" fill-opacity="0.20" stroke="#ba75f7" stroke-width="1.5"/>
<circle cx="250.0" cy="251.34" r="143.9" fill="#a87efe" fill-opacity="0.20" stroke="#a87efe" stroke-width="1.5"/>
<circle cx="250.0" cy="251.34" r="123.3" fill="#9687102" fill-opacity="0.19" stroke="#9687102" stroke-width="1.5"/>
<circle cx="250.0" cy="251.34" r="102.8" fill="#848f102" fill-opacity="0.19" stroke="#848f102" stroke-width="1.5"/>
<circle cx="250.0" cy="251.34" r="82.2" fill="#7298fe" fill-opacity="0.18" stroke="#7298fe" stroke-width="1.5"/>
<circle cx="250.0" cy="251.34" r="61.7" fill="#60a1f7" fill-opacity="0.18" stroke="#60a1f7" stroke-width="1.5"/>
<circle cx="250.0" cy="251.34" r="41.1" fill="#4ea9ed" fill-opacity="0.18" stroke="#4ea9ed" stroke-width="1.5"/>
<circle cx="250.0" cy="251.34" r="20.6" fill="#3cb2e1" fill-opacity="0.17" stroke="#3cb2e1" stroke-width="1.5"/>
<circle cx="332.2" cy="251.3" r="3.0" fill="#91c0f3" fill-opacity="0.6"/>
<circle cx="373.3" cy="251.3" r="3.0" fill="#91c0f3" fill-opacity="0.6"/>
<circle cx="414.5" cy="251.3" r="3.0" fill="#91c0f3" fill-opacity="0.6"/>
<circle cx="455.6" cy="251.3" r="3.0" fill="#91c0f3" fill-opacity="0.6"/>
<circle cx="312.2" cy="305.1" r="3.0" fill="#91c0f3" fill-opacity="0.6"/>
<circle cx="343.4" cy="331.9" r="3.0" fill="#91c0f3" fill-opacity="0.6"/>
<circle cx="374.5" cy="358.8" r="3.0" fill="#91c0f3" fill-opacity="0.6"/>
<circle cx="405.6" cy="385.7" r="3.0" fill="#91c0f3" fill-opacity="0.6"/>
<circle cx="262.0" cy="332.7" r="3.0" fill="#91c0f3" fill-opacity="0.6"/>
<circle cx="268.0" cy="373.4" r="3.0" fill="#91c0f3" fill-opacity="0.6"/>
<circle cx="274.0" cy="414.0" r="3.0" fill="#91c0f3" fill-opacity="0.6"/>
<circle cx="280.0" cy="454.7" r="3.0" fill="#91c0f3" fill-opacity="0.6"/>
<circle cx="205.9" cy="320.8" r="3.0" fill="#91c0f3" fill-opacity="0.6"/>
<circle cx="183.9" cy="355.5" r="3.0" fill="#91c0f3" fill-opacity="0.6"/>
<circle cx="161.9" cy="390.2" r="3.0" fill="#91c0f3" fill-opacity="0.6"/>
<circle cx="139.9" cy="424.9" r="3.0" fill="#91c0f3" fill-opacity="0.6"/>
<circle cx="171.3" cy="275.1" r="3.0" fill="#91c0f3" fill-opacity="0.6"/>
<circle cx="131.9" cy="287.0" r="3.0" fill="#91c0f3" fill-opacity="0.6"/>
<circle cx="92.6" cy="298.9" r="3.0" fill="#91c0f3" fill-opacity="0.6"/>
<circle cx="53.2" cy="310.8" r="3.0" fill="#91c0f3" fill-opacity="0.6"/>
<circle cx="174.9" cy="217.9" r="3.0" fill="#91c0f3" fill-opacity="0.6"/>
<circle cx="137.3" cy="201.2" r="3.0" fill="#91c0f3" fill-opacity="0.6"/>
<circle cx="99.8" cy="184.5" r="3.0" fill="#91c0f3" fill-opacity="0.6"/>
<circle cx="62.2" cy="167.7" r="3.0" fill="#91c0f3" fill-opacity="0.6"/>
<circle cx="215.0" cy="176.9" r="3.0" fill="#91c0f3" fill-opacity="0.6"/>
<circle cx="197.5" cy="139.7" r="3.0" fill="#91c0f3" fill-opacity="0.6"/>
<circle cx="180.0" cy="102.5" r="3.0" fill="#91c0f3" fill-opacity="0.6"/>
<circle cx="162.5" cy="65.3" r="3.0" fill="#91c0f3" fill-opacity="0.6"/>
<circle cx="272.1" cy="172.1" r="3.0" fill="#91c0f3" fill-opacity="0.6"/>
<circle cx="283.2" cy="132.5" r="3.0" fill="#91c0f3" fill-opacity="0.6"/>
<circle cx="294.2" cy="92.9" r="3.0" fill="#91c0f3" fill-opacity="0.6"/>
<circle cx="305.3" cy="53.3" r="3.0" fill="#91c0f3" fill-opacity="0.6"/>
<circle cx="250.0" cy="251.34" r="226.1" fill="#bc41ae" fill-opacity="0.26" stroke="#bc41ae" stroke-width="1.5"/>
<circle cx="250.0" cy="251.34" r="205.6" fill="#ae48be" fill-opacity="0.25" stroke="#ae48be" stroke-width="1.5"/>
<circle cx="250.0" cy="251.34" r="185.0" fill="#a04fcd" fill-opacity="0.25" stroke="#a04fcd" stroke-width="1.5"/>
<circle cx="250.0" cy="251.34" r="164.5" fill="#9257da" fill-opacity="0.24" stroke="#9257da" stroke-width="1.5"/>
<circle cx="250.0" cy="251.34" r="143.9" fill="#845ee3" fill-opacity="0.24" stroke="#845ee3" stroke-width="1.5"/>
<circle cx="250.0" cy="251.34" r="123.3" fill="#7665e8" fill-opacity="0.23" stroke="#7665e8" stroke-width="1.5"/>
<circle cx="250.0" cy="251.34" r="102.8" fill="#696de8" fill-opacity="0.23" stroke="#696de8" stroke-width="1.5"/>
<circle cx="250.0" cy="251.34" r="82.2" fill="#5b74e3" fill-opacity="0.22" stroke="#5b74e3" stroke-width="1.5"/>
<circle cx="250.0" cy="251.34" r="61.7" fill="#4d7bda" fill-opacity="0.22" stroke="#4d7bda" stroke-width="1.5"/>
<circle cx="250.0" cy="251.34" r="41.1" fill="#3f83cd" fill-opacity="0.21" stroke="#3f83cd" stroke-width="1.5"/>
<circle cx="250.0" cy="251.34" r="20.6" fill="#318abe" fill-opacity="0.21" stroke="#318abe" stroke-width="1.5"/>
<circle cx="250.0" cy="251.34" r="226.1" fill="#13a14cb" fill-opacity="0.16" stroke="#13a14cb" stroke-width="1.5"/>
<circle cx="250.0" cy="251.34" r="205.6" fill="#1201be3" fill-opacity="0.15" stroke="#1201be3" stroke-width="1.5"/>
<circle cx="250.0" cy="251.34" r="185.0" fill="#10723fa" fill-opacity="0.15" stroke="#10723fa" stroke-width="1.5"/>
<circle cx="250.0" cy="251.34" r="164.5" fill="#ee2a10c" fill-opacity="0.14" stroke="#ee2a10c" stroke-width="1.5"/>
<circle cx="250.0" cy="251.34" r="143.9" fill="#d53111a" fill-opacity="0.14" stroke="#d53111a" stroke-width="1.5"/>
<circle cx="250.0" cy="251.34" r="123.3" fill="#bc39121" fill-opacity="0.13" stroke="#bc39121" stroke-width="1.5"/>
<circle cx="250.0" cy="251.34" r="102.8" fill="#a340121" fill-opacity="0.13" stroke="#a340121" stroke-width="1.5"/>
<circle cx="250.0" cy="251.34" r="82.2" fill="#8a4711a" fill-opacity="0.12" stroke="#8a4711a" stroke-width="1.5"/>
<circle cx="250.0" cy="251.34" r="61.7" fill="#714f10c" fill-opacity="0.12" stroke="#714f10c" stroke-width="1.5"/>
<circle cx="250.0" cy="251.34" r="41.1" fill="#5856fa" fill-opacity="0.11" stroke="#5856fa" stroke-width="1.5"/>
<circle cx="250.0" cy="251.34" r="20.6" fill="#3f5de3" fill-opacity="0.11" stroke="#3f5de3" stroke-width="1.5"/>
<line x1="250.0" y1="251.34" x2="443.1" y2="251.3" stroke="#2b32112" stroke-width="2.57" opacity="0.26"/>
<line x1="250.0" y1="251.34" x2="423.9" y2="335.4" stroke="#3737106" stroke-width="2.57" opacity="0.28"/>
<line x1="250.0" y1="251.34" x2="369.9" y2="402.7" stroke="#433dfa" stroke-width="2.57" opacity="0.31"/>
<line x1="250.0" y1="251.34" x2="292.1" y2="439.8" stroke="#4f43ee" stroke-width="2.57" opacity="0.33"/>
<line x1="250.0" y1="251.34" x2="205.9" y2="439.3" stroke="#5b49e2" stroke-width="2.57" opacity="0.36"/>
<line x1="250.0" y1="251.34" x2="128.5" y2="401.4" stroke="#674fd6" stroke-width="2.57" opacity="0.38"/>
<line x1="250.0" y1="251.34" x2="75.3" y2="333.6" stroke="#7355ca" stroke-width="2.57" opacity="0.41"/>
<line x1="250.0" y1="251.34" x2="56.9" y2="249.3" stroke="#7f5bbe" stroke-width="2.57" opacity="0.43"/>
<line x1="250.0" y1="251.34" x2="77.0" y2="165.5" stroke="#8b61b2" stroke-width="2.57" opacity="0.46"/>
<line x1="250.0" y1="251.34" x2="131.6" y2="98.8" stroke="#9766a6" stroke-width="2.57" opacity="0.48"/>
<line x1="250.0" y1="251.34" x2="209.9" y2="62.4" stroke="#a36c9a" stroke-width="2.57" opacity="0.51"/>
<line x1="250.0" y1="251.34" x2="296.1" y2="63.8" stroke="#af728e" stroke-width="2.57" opacity="0.53"/>
<line x1="250.0" y1="251.34" x2="373.1" y2="102.5" stroke="#bb7882" stroke-width="2.57" opacity="0.56"/>
<line x1="250.0" y1="251.34" x2="425.6" y2="171.0" stroke="#c77e76" stroke-width="2.57" opacity="0.58"/>
<line x1="250.0" y1="251.34" x2="443.1" y2="255.4" stroke="#d3846a" stroke-width="2.57" opacity="0.61"/>
<circle cx="332.2" cy="251.3" r="3.0" fill="#cbe9e8" fill-opacity="0.6"/>
<circle cx="373.3" cy="251.3" r="3.0" fill="#cbe9e8" fill-opacity="0.6"/>
<circle cx="414.5" cy="251.3" r="3.0" fill="#cbe9e8" fill-opacity="0.6"/>
<circle cx="455.6" cy="251.3" r="3.0" fill="#cbe9e8" fill-opacity="0.6"/>
<circle cx="271.4" cy="330.7" r="3.0" fill="#cbe9e8" fill-opacity="0.6"/>
<circle cx="282.2" cy="370.4" r="3.0" fill="#cbe9e8" fill-opacity="0.6"/>
<circle cx="292.9" cy="410.1" r="3.0" fill="#cbe9e8" fill-opacity="0.6"/>
<circle cx="303.6" cy="449.8" r="3.0" fill="#cbe9e8" fill-opacity="0.6"/>
<circle cx="179.0" cy="292.8" r="3.0" fill="#cbe9e8" fill-opacity="0.6"/>
<circle cx="143.4" cy="313.5" r="3.0" fill="#cbe9e8" fill-opacity="0.6"/>
<circle cx="107.9" cy="334.2" r="3.0" fill="#cbe9e8" fill-opacity="0.6"/>
<circle cx="72.4" cy="354.9" r="3.0" fill="#cbe9e8" fill-opacity="0.6"/>
<circle cx="191.5" cy="193.6" r="3.0" fill="#cbe9e8" fill-opacity="0.6"/>
<circle cx="162.2" cy="164.7" r="3.0" fill="#cbe9e8" fill-opacity="0.6"/>
<circle cx="133.0" cy="135.8" r="3.0" fill="#cbe9e8" fill-opacity="0.6"/>
<circle cx="103.7" cy="106.9" r="3.0" fill="#cbe9e8" fill-opacity="0.6"/>
<circle cx="250.0" cy="251.34" r="8.0" fill="#e1c5ca" fill-opacity="0.9"/>
</svg>