<svg xmlns="http://www.w3.org/2000/svg" width="500" height="500" viewBox="0 0 500 500">
<rect width="500" height="500" fill="#00583c"/>
<circle cx="250.0" cy="251.34" r="233.8" fill="#13a09cb" fill-opacity="0.16" stroke="#13a09cb" stroke-width="1.5"/>
<circle cx="250.0" cy="251.34" r="214.3" fill="#12310e1" fill-opacity="0.15" stroke="#12310e1" stroke-width="1.5"/>
<circle cx="250.0" cy="251.34" r="194.8" fill="#10c16f6" fill-opacity="0.15" stroke="#10c16f6" stroke-width="1.5"/>
<circle cx="250.0" cy="251.34" r="175.3" fill="#f51c108" fill-opacity="0.15" stroke="#f51c108" stroke-width="1.5"/>
<circle cx="250.0" cy="251.34" r="155.8" fill="#de23116" fill-opacity="0.14" stroke="#de23116" stroke-width="1.5"/>
<circle cx="250.0" cy="251.34" r="136.4" fill="#c72911f" fill-opacity="0.14" stroke="#c72911f" stroke-width="1.5"/>
<circle cx="250.0" cy="251.34" r="116.9" fill="#b02f122" fill-opacity="0.13" stroke="#b02f122" stroke-width="1.5"/>
<circle cx="250.0" cy="251.34" r="97.4" fill="#993611f" fill-opacity="0.12" stroke="#993611f" stroke-width="1.5"/>
<circle cx="250.0" cy="251.34" r="77.9" fill="#823c116" fill-opacity="0.12" stroke="#823c116" stroke-width="1.5"/>
<circle cx="250.0" cy="251.34" r="58.4" fill="#6b42108" fill-opacity="0.12" stroke="#6b42108" stroke-width="1.5"/>
<circle cx="250.0" cy="251.34" r="39.0" fill="#5449f6" fill-opacity="0.11" stroke="#5449f6" stroke-width="1.5"/>
<circle cx="250.0" cy="251.34" r="19.5" fill="#3d4fe1" fill-opacity="0.11" stroke="#3d4fe1" stroke-width="1.5"/>
<circle cx="289.0" cy="251.3" r="3.0" fill="#72a8be" fill-opacity="0.6"/>
<circle cx="327.9" cy="251.3" r="3.0" fill="#72a8be" fill-opacity="0.6"/>
<circle cx="366.9" cy="251.3" r="3.0" fill="#72a8be" fill-opacity="0.6"/>
<circle cx="405.8" cy="251.3" r="3.0" fill="#72a8be" fill-opacity="0.6"/>
<circle cx="444.8" cy="251.3" r="3.0" fill="#72a8be" fill-opacity="0.6"/>
<circle cx="251.2" cy="290.3" r="3.0" fill="#72a8be" fill-opacity="0.6"/>
<circle cx="252.4" cy="329.2" r="3.0" fill="#72a8be" fill-opacity="0.6"/>
<circle cx="253.7" cy="368.2" r="3.0" fill="#72a8be" fill-opacity="0.6"/>
<circle cx="254.9" cy="407.1" r="3.0" fill="#72a8be" fill-opacity="0.6"/>
<circle cx="256.1" cy="446.0" r="3.0" fill="#72a8be" fill-opacity="0.6"/>
<circle cx="211.1" cy="253.8" r="3.0" fill="#72a8be" fill-opacity="0.6"/>
<circle cx="172.2" cy="256.2" r="3.0" fill="#72a8be" fill-opacity="0.6"/>
<circle cx="133.4" cy="258.7" r="3.0" fill="#72a8be" fill-opacity="0.6"/>
<circle cx="94.5" cy="261.1" r="3.0" fill="#72a8be" fill-opacity="0.6"/>
<circle cx="55.6" cy="263.6" r="3.0" fill="#72a8be" fill-opacity="0.6"/>
<circle cx="246.3" cy="212.6" r="3.0" fill="#72a8be" fill-opacity="0.6"/>
<circle cx="242.7" cy="173.8" r="3.0" fill="#72a8be" fill-opacity="0.6"/>
<circle cx="239.0" cy="135.0" r="3.0" fill="#72a8be" fill-opacity="0.6"/>
<circle cx="235.3" cy="96.2" r="3.0" fill="#72a8be" fill-opacity="0.6"/>
<circle cx="231.7" cy="57.4" r="3.0" fill="#72a8be" fill-opacity="0.6"/>
<circle cx="288.7" cy="246.5" r="3.0" fill="#72a8be" fill-opacity="0.6"/>
<circle cx="327.3" cy="241.6" r="3.0" fill="#72a8be" fill-opacity="0.6"/>
<circle cx="366.0" cy="236.7" r="3.0" fill="#72a8be" fill-opacity="0.6"/>
<circle cx="404.6" cy="231.8" r="3.0" fill="#72a8be" fill-opacity="0.6"/>
<circle cx="443.3" cy="226.9" r="3.0" fill="#72a8be" fill-opacity="0.6"/>
<circle cx="256.1" cy="289.8" r="3.0" fill="#72a8be" fill-opacity="0.6"/>
<circle cx="262.2" cy="328.3" r="3.0" fill="#72a8be" fill-opacity="0.6"/>
<circle cx="268.3" cy="366.8" r="3.0" fill="#72a8be" fill-opacity="0.6"/>
<circle cx="274.4" cy="405.3" r="3.0" fill="#72a8be" fill-opacity="0.6"/>
<circle cx="280.5" cy="443.7" r="3.0" fill="#72a8be" fill-opacity="0.6"/>
<circle cx="250.0" cy="251.34" r="233.8" fill="#e7-1f9" fill-opacity="0.20" stroke="#e7-1f9" stroke-width="1.5"/>
<circle cx="250.0" cy="251.34" r="214.3" fill="#d705108" fill-opacity="0.19" stroke="#d705108" stroke-width="1.5"/>
<circle cx="250.0" cy="251.34" r="194.8" fill="#c70c117" fill-opacity="0.19" stroke="#c70c117" stroke-width="1.5"/>
<circle cx="250.0" cy="251.34" r="175.3" fill="#b713124" fill-opacity="0.18" stroke="#b713124" stroke-width="1.5"/>
<circle cx="250.0" cy="251.34" r="155.8" fill="#a81b12d" fill-opacity="0.18" stroke="#a81b12d" stroke-width="1.5"/>
<circle cx="250.0" cy="251.34" r="136.4" fill="#9822133" fill-opacity="0.17" stroke="#9822133" stroke-width="1.5"/>
<circle cx="250.0" cy="251.34" r="116.9" fill="#8829136" fill-opacity="0.17" stroke="#8829136" stroke-width="1.5"/>
<circle cx="250.0" cy="251.34" r="97.4" fill="#7830133" fill-opacity="0.16" stroke="#7830133" stroke-width="1.5"/>
<circle cx="250.0" cy="251.34" r="77.9" fill="#693712d" fill-opacity="0.15" stroke="#693712d" stroke-width="1.5"/>
<circle cx="250.0" cy="251.34" r="58.4" fill="#593e124" fill-opacity="0.15" stroke="#593e124" stroke-width="1.5"/>
<circle cx="250.0" cy="251.34" r="39.0" fill="#4946117" fill-opacity="0.14" stroke="#4946117" stroke-width="1.5"/>
<circle cx="250.0" cy="251.34" r="19.5" fill="#394d108" fill-opacity="0.14" stroke="#394d108" stroke-width="1.5"/>
<circle cx="289.0" cy="251.3" r="3.0" fill="#b8c190" fill-opacity="0.6"/>
<circle cx="327.9" cy="251.3" r="3.0" fill="#b8c190" fill-opacity="0.6"/>
<circle cx="366.9" cy="251.3" r="3.0" fill="#b8c190" fill-opacity="0.6"/>
<circle cx="405.8" cy="251.3" r="3.0" fill="#b8c190" fill-opacity="0.6"/>
<circle cx="444.8" cy="251.3" r="3.0" fill="#b8c190" fill-opacity="0.6"/>
<circle cx="275.5" cy="280.8" r="3.0" fill="#b8c190" fill-opacity="0.6"/>
<circle cx="301.1" cy="310.2" r="3.0" fill="#b8c190" fill-opacity="0.6"/>
<circle cx="326.6" cy="339.6" r="3.0" fill="#b8c190" fill-opacity="0.6"/>
<circle cx="352.1" cy="369.0" r="3.0" fill="#b8c190" fill-opacity="0.6"/>
<circle cx="377.7" cy="398.5" r="3.0" fill="#b8c190" fill-opacity="0.6"/>
<circle cx="244.5" cy="289.9" r="3.0" fill="#b8c190" fill-opacity="0.6"/>
<circle cx="239.0" cy="328.5" r="3.0" fill="#b8c190" fill-opacity="0.6"/>
<circle cx="233.5" cy="367.1" r="3.0" fill="#b8c190" fill-opacity="0.6"/>
<circle cx="228.0" cy="405.6" r="3.0" fill="#b8c190" fill-opacity="0.6"/>
<circle cx="222.6" cy="444.2" r="3.0" fill="#b8c190" fill-opacity="0.6"/>
<circle cx="217.3" cy="272.5" r="3.0" fill="#b8c190" fill-opacity="0.6"/>
<circle cx="184.5" cy="293.6" r="3.0" fill="#b8c190" fill-opacity="0.6"/>
<circle cx="151.8" cy="314.7" r="3.0" fill="#b8c190" fill-opacity="0.6"/>
<circle cx="119.1" cy="335.9" r="3.0" fill="#b8c190" fill-opacity="0.6"/>
<circle cx="86.3" cy="357.0" r="3.0" fill="#b8c190" fill-opacity="0.6"/>
<circle cx="347.4" cy="251.3" r="3.0" fill="#82ffeb" fill-opacity="0.6"/>
<circle cx="386.4" cy="251.3" r="3.0" fill="#82ffeb" fill-opacity="0.6"/>
<circle cx="425.3" cy="251.3" r="3.0" fill="#82ffeb" fill-opacity="0.6"/>
<circle cx="464.3" cy="251.3" r="3.0" fill="#82ffeb" fill-opacity="0.6"/>
<circle cx="269.8" cy="346.7" r="3.0" fill="#82ffeb" fill-opacity="0.6"/>
<circle cx="277.7" cy="384.9" r="3.0" fill="#82ffeb" fill-opacity="0.6"/>
<circle cx="285.6" cy="423.0" r="3.0" fill="#82ffeb" fill-opacity="0.6"/>
<circle cx="293.5" cy="461.2" r="3.0" fill="#82ffeb" fill-opacity="0.6"/>
<circle cx="160.6" cy="290.0" r="3.0" fill="#82ffeb" fill-opacity="0.6"/>
<circle cx="124.9" cy="305.5" r="3.0" fill="#82ffeb" fill-opacity="0.6"/>
<circle cx="89.1" cy="321.0" r="3.0" fill="#82ffeb" fill-opacity="0.6"/>
<circle cx="53.3" cy="336.4" r="3.0" fill="#82ffeb" fill-opacity="0.6"/>
<circle cx="194.0" cy="171.7" r="3.0" fill="#82ffeb" fill-opacity="0.6"/>
<circle cx="171.6" cy="139.8" r="3.0" fill="#82ffeb" fill-opacity="0.6"/>
<circle cx="149.2" cy="107.9" r="3.0" fill="#82ffeb" fill-opacity="0.6"/>
<circle cx="126.8" cy="76.0" r="3.0" fill="#82ffeb" fill-opacity="0.6"/>
<line x1="250.0" y1="251.34" x2="443.1" y2="251.3" stroke="#5e21e3" stroke-width="2.57" opacity="0.23"/>
<line x1="250.0" y1="251.34" x2="408.3" y2="362.0" stroke="#772aca" stroke-width="2.57" opacity="0.26"/>
<line x1="250.0" y1="251.34" x2="316.4" y2="432.7" stroke="#9034b1" stroke-width="2.57" opacity="0.29"/>
<line x1="250.0" y1="251.34" x2="200.5" y2="438.0" stroke="#a93e98" stroke-width="2.57" opacity="0.32"/>
<line x1="250.0" y1="251.34" x2="102.5" y2="376.0" stroke="#c2487f" stroke-width="2.57" opacity="0.35"/>
<line x1="250.0" y1="251.34" x2="57.7" y2="269.0" stroke="#db5166" stroke-width="2.57" opacity="0.38"/>
<line x1="250.0" y1="251.34" x2="82.3" y2="155.7" stroke="#f45b4d" stroke-width="2.57" opacity="0.41"/>
<line x1="250.0" y1="251.34" x2="167.3" y2="76.8" stroke="#10d6534" stroke-width="2.57" opacity="0.43"/>
<line x1="250.0" y1="251.34" x2="282.2" y2="60.9" stroke="#1266f1b" stroke-width="2.57" opacity="0.46"/>
<line x1="250.0" y1="251.34" x2="385.5" y2="113.7" stroke="#13f7802" stroke-width="2.57" opacity="0.49"/>
<line x1="250.0" y1="251.34" x2="439.9" y2="216.1" stroke="#13f8200" stroke-width="2.57" opacity="0.52"/>
<line x1="250.0" y1="251.34" x2="425.8" y2="331.3" stroke="#13f8c00" stroke-width="2.57" opacity="0.55"/>
<circle cx="405.8" cy="251.3" r="3.0" fill="#b0d3ff" fill-opacity="0.6"/>
<circle cx="444.8" cy="251.3" r="3.0" fill="#b0d3ff" fill-opacity="0.6"/>
<circle cx="94.8" cy="265.6" r="3.0" fill="#b0d3ff" fill-opacity="0.6"/>
<circle cx="56.0" cy="269.2" r="3.0" fill="#b0d3ff" fill-opacity="0.6"/>
<circle cx="403.2" cy="222.9" r="3.0" fill="#b0d3ff" fill-opacity="0.6"/>
<circle cx="441.5" cy="215.8" r="3.0" fill="#b0d3ff" fill-opacity="0.6"/>
<circle cx="250.0" cy="251.34" r="233.8" fill="#e530cd" fill-opacity="0.20" stroke="#e530cd" stroke-width="1.5"/>
<circle cx="250.0" cy="251.34" r="214.3" fill="#d438e0" fill-opacity="0.20" stroke="#d438e0" stroke-width="1.5"/>
<circle cx="250.0" cy="251.34" r="194.8" fill="#c340f2" fill-opacity="0.19" stroke="#c340f2" stroke-width="1.5"/>
<circle cx="250.0" cy="251.34" r="175.3" fill="#b349102" fill-opacity="0.19" stroke="#b349102" stroke-width="1.5"/>
<circle cx="250.0" cy="251.34" r="155.8" fill="#a25110d" fill-opacity="0.18" stroke="#a25110d" stroke-width="1.5"/>
<circle cx="250.0" cy="251.34" r="136.4" fill="#9259115" fill-opacity="0.18" stroke="#9259115" stroke-width="1.5"/>
<circle cx="250.0" cy="251.34" r="116.9" fill="#8162118" fill-opacity="0.17" stroke="#8162118" stroke-width="1.5"/>
<circle cx="250.0" cy="251.34" r="97.4" fill="#706a115" fill-opacity="0.17" stroke="#706a115" stroke-width="1.5"/>
<circle cx="250.0" cy="251.34" r="77.9" fill="#607210d" fill-opacity="0.17" stroke="#607210d" stroke-width="1.5"/>
<circle cx="250.0" cy="251.34" r="58.4" fill="#4f7b102" fill-opacity="0.16" stroke="#4f7b102" stroke-width="1.5"/>
<circle cx="250.0" cy="251.34" r="39.0" fill="#3f83f2" fill-opacity="0.16" stroke="#3f83f2" stroke-width="1.5"/>
<circle cx="250.0" cy="251.34" r="19.5" fill="#2e8be0" fill-opacity="0.15" stroke="#2e8be0" stroke-width="1.5"/>
<circle cx="366.9" cy="251.3" r="3.0" fill="#bdc5fa" fill-opacity="0.6"/>
<circle cx="405.8" cy="251.3" r="3.0" fill="#bdc5fa" fill-opacity="0.6"/>
<circle cx="444.8" cy="251.3" r="3.0" fill="#bdc5fa" fill-opacity="0.6"/>
<circle cx="189.5" cy="351.3" r="3.0" fill="#bdc5fa" fill-opacity="0.6"/>
<circle cx="169.3" cy="384.6" r="3.0" fill="#bdc5fa" fill-opacity="0.6"/>
<circle cx="149.1" cy="418.0" r="3.0" fill="#bdc5fa" fill-opacity="0.6"/>
<circle cx="195.8" cy="147.8" r="3.0" fill="#bdc5fa" fill-opacity="0.6"/>
<circle cx="177.8" cy="113.2" r="3.0" fill="#bdc5fa" fill-opacity="0.6"/>
<circle cx="159.7" cy="78.7" r="3.0" fill="#bdc5fa" fill-opacity="0.6"/>
<line x1="250.0" y1="251.34" x2="443.1" y2="251.3" stroke="#5028c8" stroke-width="2.57" opacity="0.36"/>
<line x1="250.0" y1="251.34" x2="417.2" y2="347.9" stroke="#6531b3" stroke-width="2.57" opacity="0.39"/>
<line x1="250.0" y1="251.34" x2="346.6" y2="418.6" stroke="#7a3b9e" stroke-width="2.57" opacity="0.43"/>
<line x1="250.0" y1="251.34" x2="250.0" y2="444.5" stroke="#8f4489" stroke-width="2.57" opacity="0.46"/>
<line x1="250.0" y1="251.34" x2="153.4" y2="418.6" stroke="#a54f73" stroke-width="2.57" opacity="0.49"/>
<line x1="250.0" y1="251.34" x2="82.8" y2="347.9" stroke="#ba585e" stroke-width="2.57" opacity="0.53"/>
<line x1="250.0" y1="251.34" x2="56.9" y2="251.3" stroke="#cf6249" stroke-width="2.57" opacity="0.56"/>
<line x1="250.0" y1="251.34" x2="82.8" y2="154.8" stroke="#d96c34" stroke-width="2.57" opacity="0.59"/>
<line x1="250.0" y1="251.34" x2="153.4" y2="84.1" stroke="#d9761e" stroke-width="2.57" opacity="0.63"/>
<line x1="250.0" y1="251.34" x2="250.0" y2="58.2" stroke="#d97f09" stroke-width="2.57" opacity="0.66"/>
<line x1="250.0" y1="251.34" x2="346.6" y2="84.1" stroke="#d98900" stroke-width="2.57" opacity="0.69"/>
<line x1="250.0" y1="251.34" x2="417.2" y2="154.8" stroke="#d99300" stroke-width="2.57" opacity="0.73"/>
<circle cx="250.0" cy="251.34" r="233.8" fill="#bc41c4" fill-opacity="0.26" stroke="#bc41c4" stroke-width="1.5"/>
<circle cx="250.0" cy="251.34" r="214.3" fill="#af47d0" fill-opacity="0.26" stroke="#af47d0" stroke-width="1.5"/>
<circle cx="250.0" cy="251.34" r="194.8" fill="#a24edc" fill-opacity="0.25" stroke="#a24edc" stroke-width="1.5"/>
<circle cx="250.0" cy="251.34" r="175.3" fill="#9655e5" fill-opacity="0.24" stroke="#9655e5" stroke-width="1.5"/>
<circle cx="250.0" cy="251.34" r="155.8" fill="#895ced" fill-opacity="0.24" stroke="#895ced" stroke-width="1.5"/>
<circle cx="250.0" cy="251.34" r="136.4" fill="#7c62f2" fill-opacity="0.24" stroke="#7c62f2" stroke-width="1.5"/>
<circle cx="250.0" cy="251.34" r="116.9" fill="#7069f4" fill-opacity="0.23" stroke="#7069f4" stroke-width="1.5"/>
<circle cx="250.0" cy="251.34" r="97.4" fill="#6370f2" fill-opacity="0.23" stroke="#6370f2" stroke-width="1.5"/>
<circle cx="250.0" cy="251.34" r="77.9" fill="#5677ed" fill-opacity="0.22" stroke="#5677ed" stroke-width="1.5"/>
<circle cx="250.0" cy="251.34" r="58.4" fill="#4a7de5" fill-opacity="0.22" stroke="#4a7de5" stroke-width="1.5"/>
<circle cx="250.0" cy="251.34" r="39.0" fill="#3d84dc" fill-opacity="0.21" stroke="#3d84dc" stroke-width="1.5"/>
<circle cx="250.0" cy="251.34" r="19.5" fill="#308bd0" fill-opacity="0.21" stroke="#308bd0" stroke-width="1.5"/>
<circle cx="289.0" cy="251.3" r="3.0" fill="#add9b9" fill-opacity="0.6"/>
<circle cx="347.4" cy="251.3" r="3.0" fill="#add9b9" fill-opacity="0.6"/>
<circle cx="405.8" cy="251.3" r="3.0" fill="#add9b9" fill-opacity="0.6"/>
<circle cx="464.3" cy="251.3" r="3.0" fill="#add9b9" fill-opacity="0.6"/>
<circle cx="255.3" cy="289.9" r="3.0" fill="#add9b9" fill-opacity="0.6"/>
<circle cx="263.2" cy="347.8" r="3.0" fill="#add9b9" fill-opacity="0.6"/>
<circle cx="271.1" cy="405.7" r="3.0" fill="#add9b9" fill-opacity="0.6"/>
<circle cx="279.1" cy="463.6" r="3.0" fill="#add9b9" fill-opacity="0.6"/>
<circle cx="212.5" cy="261.8" r="3.0" fill="#add9b9" fill-opacity="0.6"/>
<circle cx="156.2" cy="277.5" r="3.0" fill="#add9b9" fill-opacity="0.6"/>
<circle cx="99.9" cy="293.2" r="3.0" fill="#add9b9" fill-opacity="0.6"/>
<circle cx="43.6" cy="309.0" r="3.0" fill="#add9b9" fill-opacity="0.6"/>
<line x1="250.0" y1="251.34" x2="443.1" y2="251.3" stroke="#2a2ef3" stroke-width="2.57" opacity="0.35"/>
<line x1="250.0" y1="251.34" x2="416.7" y2="348.8" stroke="#3734e6" stroke-width="2.57" opacity="0.37"/>
<line x1="250.0" y1="251.34" x2="344.8" y2="419.6" stroke="#453bd8" stroke-width="2.57" opacity="0.39"/>
<line x1="250.0" y1="251.34" x2="247.0" y2="444.4" stroke="#5241cb" stroke-width="2.57" opacity="0.40"/>
<line x1="250.0" y1="251.34" x2="150.0" y2="416.5" stroke="#6048bd" stroke-width="2.57" opacity="0.42"/>
<line x1="250.0" y1="251.34" x2="80.3" y2="343.5" stroke="#6d4eb0" stroke-width="2.57" opacity="0.44"/>
<line x1="250.0" y1="251.34" x2="57.0" y2="245.3" stroke="#7b55a2" stroke-width="2.57" opacity="0.46"/>
<line x1="250.0" y1="251.34" x2="86.4" y2="148.7" stroke="#885c95" stroke-width="2.57" opacity="0.48"/>
<line x1="250.0" y1="251.34" x2="160.5" y2="80.2" stroke="#966287" stroke-width="2.57" opacity="0.50"/>
<line x1="250.0" y1="251.34" x2="259.1" y2="58.4" stroke="#a3697a" stroke-width="2.57" opacity="0.52"/>
<line x1="250.0" y1="251.34" x2="355.2" y2="89.4" stroke="#b1706c" stroke-width="2.57" opacity="0.53"/>
<line x1="250.0" y1="251.34" x2="422.5" y2="164.6" stroke="#be765f" stroke-width="2.57" opacity="0.55"/>
<circle cx="327.9" cy="251.3" r="3.0" fill="#79e7df" fill-opacity="0.6"/>
<circle cx="366.9" cy="251.3" r="3.0" fill="#79e7df" fill-opacity="0.6"/>
<circle cx="405.8" cy="251.3" r="3.0" fill="#79e7df" fill-opacity="0.6"/>
<circle cx="444.8" cy="251.3" r="3.0" fill="#79e7df" fill-opacity="0.6"/>
<circle cx="299.0" cy="311.9" r="3.0" fill="#79e7df" fill-opacity="0.6"/>
<circle cx="323.6" cy="342.2" r="3.0" fill="#79e7df" fill-opacity="0.6"/>
<circle cx="348.1" cy="372.5" r="3.0" fill="#79e7df" fill-opacity="0.6"/>
<circle cx="372.6" cy="402.7" r="3.0" fill="#79e7df" fill-opacity="0.6"/>
<circle cx="233.8" cy="327.6" r="3.0" fill="#79e7df" fill-opacity="0.6"/>
<circle cx="225.7" cy="365.7" r="3.0" fill="#79e7df" fill-opacity="0.6"/>
<circle cx="217.6" cy="403.8" r="3.0" fill="#79e7df" fill-opacity="0.6"/>
<circle cx="209.5" cy="441.9" r="3.0" fill="#79e7df" fill-opacity="0.6"/>
<circle cx="180.6" cy="286.7" r="3.0" fill="#79e7df" fill-opacity="0.6"/>
<circle cx="145.9" cy="304.4" r="3.0" fill="#79e7df" fill-opacity="0.6"/>
<circle cx="111.1" cy="322.1" r="3.0" fill="#79e7df" fill-opacity="0.6"/>
<circle cx="76.4" cy="339.8" r="3.0" fill="#79e7df" fill-opacity="0.6"/>
<circle cx="178.8" cy="219.6" r="3.0" fill="#79e7df" fill-opacity="0.6"/>
<circle cx="143.2" cy="203.8" r="3.0" fill="#79e7df" fill-opacity="0.6"/>
<circle cx="107.6" cy="188.0" r="3.0" fill="#79e7df" fill-opacity="0.6"/>
<circle cx="72.0" cy="172.1" r="3.0" fill="#79e7df" fill-opacity="0.6"/>
<circle cx="229.8" cy="176.1" r="3.0" fill="#79e7df" fill-opacity="0.6"/>
<circle cx="219.7" cy="138.4" r="3.0" fill="#79e7df" fill-opacity="0.6"/>
<circle cx="209.7" cy="100.8" r="3.0" fill="#79e7df" fill-opacity="0.6"/>
<circle cx="199.6" cy="63.2" r="3.0" fill="#79e7df" fill-opacity="0.6"/>
<circle cx="308.4" cy="251.3" r="3.0" fill="#d3e4b8" fill-opacity="0.6"/>
<circle cx="347.4" cy="251.3" r="3.0" fill="#d3e4b8" fill-opacity="0.6"/>
<circle cx="386.4" cy="251.3" r="3.0" fill="#d3e4b8" fill-opacity="0.6"/>
<circle cx="425.3" cy="251.3" r="3.0" fill="#d3e4b8" fill-opacity="0.6"/>
<circle cx="464.3" cy="251.3" r="3.0" fill="#d3e4b8" fill-opacity="0.6"/>
<circle cx="257.9" cy="309.2" r="3.0" fill="#d3e4b8" fill-opacity="0.6"/>
<circle cx="263.2" cy="347.8" r="3.0" fill="#d3e4b8" fill-opacity="0.6"/>
<circle cx="268.5" cy="386.4" r="3.0" fill="#d3e4b8" fill-opacity="0.6"/>
<circle cx="273.8" cy="425.0" r="3.0" fill="#d3e4b8" fill-opacity="0.6"/>
<circle cx="279.1" cy="463.6" r="3.0" fill="#d3e4b8" fill-opacity="0.6"/>
<circle cx="193.7" cy="267.1" r="3.0" fill="#d3e4b8" fill-opacity="0.6"/>
<circle cx="156.2" cy="277.5" r="3.0" fill="#d3e4b8" fill-opacity="0.6"/>
<circle cx="118.7" cy="288.0" r="3.0" fill="#d3e4b8" fill-opacity="0.6"/>
<circle cx="81.1" cy="298.5" r="3.0" fill="#d3e4b8" fill-opacity="0.6"/>
<circle cx="43.6" cy="309.0" r="3.0" fill="#d3e4b8" fill-opacity="0.6"/>
<circle cx="226.8" cy="197.7" r="3.0" fill="#d3e4b8" fill-opacity="0.6"/>
<circle cx="211.3" cy="162.0" r="3.0" fill="#d3e4b8" fill-opacity="0.6"/>
<circle cx="195.8" cy="126.2" r="3.0" fill="#d3e4b8" fill-opacity="0.6"/>
<circle cx="180.4" cy="90.4" r="3.0" fill="#d3e4b8" fill-opacity="0.6"/>
<circle cx="164.9" cy="54.7" r="3.0" fill="#d3e4b8" fill-opacity="0.6"/>
<circle cx="300.0" cy="221.1" r="3.0" fill="#d3e4b8" fill-opacity="0.6"/>
<circle cx="333.3" cy="200.9" r="3.0" fill="#d3e4b8" fill-opacity="0.6"/>
<circle cx="366.6" cy="180.7" r="3.0" fill="#d3e4b8" fill-opacity="0.6"/>
<circle cx="400.0" cy="160.5" r="3.0" fill="#d3e4b8" fill-opacity="0.6"/>
<circle cx="433.3" cy="140.3" r="3.0" fill="#d3e4b8" fill-opacity="0.6"/>
<circle cx="286.8" cy="296.8" r="3.0" fill="#d3e4b8" fill-opacity="0.6"/>
<circle cx="311.3" cy="327.0" r="3.0" fill="#d3e4b8" fill-opacity="0.6"/>
<circle cx="335.8" cy="357.3" r="3.0" fill="#d3e4b8" fill-opacity="0.6"/>
<circle cx="360.3" cy="387.6" r="3.0" fill="#d3e4b8" fill-opacity="0.6"/>
<circle cx="384.9" cy="417.9" r="3.0" fill="#d3e4b8" fill-opacity="0.6"/>
<line x1="250.0" y1="251.34" x2="443.1" y2="251.3" stroke="#402de5" stroke-width="2.57" opacity="0.38"/>
<line x1="250.0" y1="251.34" x2="402.3" y2="370.1" stroke="#5639cf" stroke-width="2.57" opacity="0.41"/>
<line x1="250.0" y1="251.34" x2="297.0" y2="438.6" stroke="#6d47b8" stroke-width="2.57" opacity="0.43"/>
<line x1="250.0" y1="251.34" x2="171.9" y2="428.0" stroke="#8455a1" stroke-width="2.57" opacity="0.46"/>
<line x1="250.0" y1="251.34" x2="79.8" y2="342.6" stroke="#9a628b" stroke-width="2.57" opacity="0.49"/>
<line x1="250.0" y1="251.34" x2="59.7" y2="218.6" stroke="#b16f74" stroke-width="2.57" opacity="0.51"/>
<line x1="250.0" y1="251.34" x2="120.0" y2="108.5" stroke="#c87d5d" stroke-width="2.57" opacity="0.54"/>
<line x1="250.0" y1="251.34" x2="235.4" y2="58.8" stroke="#dd8a47" stroke-width="2.57" opacity="0.57"/>
<line x1="250.0" y1="251.34" x2="356.9" y2="90.5" stroke="#dd9730" stroke-width="2.57" opacity="0.59"/>
<line x1="250.0" y1="251.34" x2="433.2" y2="190.2" stroke="#dda519" stroke-width="2.57" opacity="0.62"/>
<line x1="250.0" y1="251.34" x2="432.0" y2="315.8" stroke="#ddb203" stroke-width="2.57" opacity="0.65"/>
<line x1="250.0" y1="251.34" x2="353.9" y2="414.1" stroke="#ddbf00" stroke-width="2.57" opacity="0.67"/>
<circle cx="308.4" cy="251.3" r="3.0" fill="#b4c9fd" fill-opacity="0.6"/>
<circle cx="347.4" cy="251.3" r="3.0" fill="#b4c9fd" fill-opacity="0.6"/>
<circle cx="386.4" cy="251.3" r="3.0" fill="#b4c9fd" fill-opacity="0.6"/>
<circle cx="425.3" cy="251.3" r="3.0" fill="#b4c9fd" fill-opacity="0.6"/>
<circle cx="464.3" cy="251.3" r="3.0" fill="#b4c9fd" fill-opacity="0.6"/>
<circle cx="260.0" cy="308.9" r="3.0" fill="#b4c9fd" fill-opacity="0.6"/>
<circle cx="266.7" cy="347.3" r="3.0" fill="#b4c9fd" fill-opacity="0.6"/>
<circle cx="273.4" cy="385.7" r="3.0" fill="#b4c9fd" fill-opacity="0.6"/>
<circle cx="280.1" cy="424.0" r="3.0" fill="#b4c9fd" fill-opacity="0.6"/>
<circle cx="286.8" cy="462.4" r="3.0" fill="#b4c9fd" fill-opacity="0.6"/>
<circle cx="195.0" cy="271.1" r="3.0" fill="#b4c9fd" fill-opacity="0.6"/>
<circle cx="158.4" cy="284.3" r="3.0" fill="#b4c9fd" fill-opacity="0.6"/>
<circle cx="121.7" cy="297.5" r="3.0" fill="#b4c9fd" fill-opacity="0.6"/>
<circle cx="85.0" cy="310.7" r="3.0" fill="#b4c9fd" fill-opacity="0.6"/>
<circle cx="48.4" cy="323.9" r="3.0" fill="#b4c9fd" fill-opacity="0.6"/>
<circle cx="221.0" cy="200.6" r="3.0" fill="#b4c9fd" fill-opacity="0.6"/>
<circle cx="201.7" cy="166.7" r="3.0" fill="#b4c9fd" fill-opacity="0.6"/>
<circle cx="182.4" cy="132.9" r="3.0" fill="#b4c9fd" fill-opacity="0.6"/>
<circle cx="163.1" cy="99.1" r="3.0" fill="#b4c9fd" fill-opacity="0.6"/>
<circle cx="143.8" cy="65.2" r="3.0" fill="#b4c9fd" fill-opacity="0.6"/>
<circle cx="295.0" cy="214.1" r="3.0" fill="#b4c9fd" fill-opacity="0.6"/>
<circle cx="325.0" cy="189.3" r="3.0" fill="#b4c9fd" fill-opacity="0.6"/>
<circle cx="355.1" cy="164.4" r="3.0" fill="#b4c9fd" fill-opacity="0.6"/>
<circle cx="385.1" cy="139.6" r="3.0" fill="#b4c9fd" fill-opacity="0.6"/>
<circle cx="415.1" cy="114.8" r="3.0" fill="#b4c9fd" fill-opacity="0.6"/>
<circle cx="294.4" cy="289.3" r="3.0" fill="#b4c9fd" fill-opacity="0.6"/>
<circle cx="324.1" cy="314.6" r="3.0" fill="#b4c9fd" fill-opacity="0.6"/>
<circle cx="353.7" cy="339.9" r="3.0" fill="#b4c9fd" fill-opacity="0.6"/>
<circle cx="383.3" cy="365.2" r="3.0" fill="#b4c9fd" fill-opacity="0.6"/>
<circle cx="412.9" cy="390.5" r="3.0" fill="#b4c9fd" fill-opacity="0.6"/>
<circle cx="308.4" cy="251.3" r="3.0" fill="#c1b4cc" fill-opacity="0.6"/>
<circle cx="347.4" cy="251.3" r="3.0" fill="#c1b4cc" fill-opacity="0.6"/>
<circle cx="386.4" cy="251.3" r="3.0" fill="#c1b4cc" fill-opacity="0.6"/>
<circle cx="425.3" cy="251.3" r="3.0" fill="#c1b4cc" fill-opacity="0.6"/>
<circle cx="464.3" cy="251.3" r="3.0" fill="#c1b4cc" fill-opacity="0.6"/>
<circle cx="291.8" cy="292.2" r="3.0" fill="#c1b4cc" fill-opacity="0.6"/>
<circle cx="319.6" cy="319.5" r="3.0" fill="#c1b4cc" fill-opacity="0.6"/>
<circle cx="347.4" cy="346.7" r="3.0" fill="#c1b4cc" fill-opacity="0.6"/>
<circle cx="375.3" cy="374.0" r="3.0" fill="#c1b4cc" fill-opacity="0.6"/>
<circle cx="403.1" cy="401.3" r="3.0" fill="#c1b4cc" fill-opacity="0.6"/>
<circle cx="251.2" cy="309.8" r="3.0" fill="#c1b4cc" fill-opacity="0.6"/>
<circle cx="252.0" cy="348.7" r="3.0" fill="#c1b4cc" fill-opacity="0.6"/>
<circle cx="252.9" cy="387.7" r="3.0" fill="#c1b4cc" fill-opacity="0.6"/>
<circle cx="253.7" cy="426.6" r="3.0" fill="#c1b4cc" fill-opacity="0.6"/>
<circle cx="254.5" cy="465.6" r="3.0" fill="#c1b4cc" fill-opacity="0.6"/>
<circle cx="210.0" cy="293.9" r="3.0" fill="#c1b4cc" fill-opacity="0.6"/>
<circle cx="183.3" cy="322.3" r="3.0" fill="#c1b4cc" fill-opacity="0.6"/>
<circle cx="156.7" cy="350.7" r="3.0" fill="#c1b4cc" fill-opacity="0.6"/>
<circle cx="130.0" cy="379.1" r="3.0" fill="#c1b4cc" fill-opacity="0.6"/>
<circle cx="103.3" cy="407.5" r="3.0" fill="#c1b4cc" fill-opacity="0.6"/>
<circle cx="191.6" cy="253.8" r="3.0" fill="#c1b4cc" fill-opacity="0.6"/>
<circle cx="152.7" cy="255.4" r="3.0" fill="#c1b4cc" fill-opacity="0.6"/>
<circle cx="113.8" cy="257.1" r="3.0" fill="#c1b4cc" fill-opacity="0.6"/>
<circle cx="74.8" cy="258.7" r="3.0" fill="#c1b4cc" fill-opacity="0.6"/>
<circle cx="35.9" cy="260.3" r="3.0" fill="#c1b4cc" fill-opacity="0.6"/>
<circle cx="206.6" cy="212.2" r="3.0" fill="#c1b4cc" fill-opacity="0.6"/>
<circle cx="177.6" cy="186.2" r="3.0" fill="#c1b4cc" fill-opacity="0.6"/>
<circle cx="148.7" cy="160.1" r="3.0" fill="#c1b4cc" fill-opacity="0.6"/>
<circle cx="119.7" cy="134.0" r="3.0" fill="#c1b4cc" fill-opacity="0.6"/>
<circle cx="90.8" cy="108.0" r="3.0" fill="#c1b4cc" fill-opacity="0.6"/>
<circle cx="308.4" cy="251.3" r="3.0" fill="#aed0ff" fill-opacity="0.6"/>
<circle cx="347.4" cy="251.3" r="3.0" fill="#aed0ff" fill-opacity="0.6"/>
<circle cx="386.4" cy="251.3" r="3.0" fill="#aed0ff" fill-opacity="0.6"/>
<circle cx="425.3" cy="251.3" r="3.0" fill="#aed0ff" fill-opacity="0.6"/>
<circle cx="464.3" cy="251.3" r="3.0" fill="#aed0ff" fill-opacity="0.6"/>
<circle cx="294.8" cy="288.8" r="3.0" fill="#aed0ff" fill-opacity="0.6"/>
<circle cx="324.7" cy="313.8" r="3.0" fill="#aed0ff" fill-opacity="0.6"/>
<circle cx="354.6" cy="338.8" r="3.0" fill="#aed0ff" fill-opacity="0.6"/>
<circle cx="384.5" cy="363.8" r="3.0" fill="#aed0ff" fill-opacity="0.6"/>
<circle cx="414.4" cy="388.8" r="3.0" fill="#aed0ff" fill-opacity="0.6"/>
<circle cx="260.3" cy="308.9" r="3.0" fill="#aed0ff" fill-opacity="0.6"/>
<circle cx="267.2" cy="347.2" r="3.0" fill="#aed0ff" fill-opacity="0.6"/>
<circle cx="274.1" cy="385.5" r="3.0" fill="#aed0ff" fill-opacity="0.6"/>
<circle cx="281.0" cy="423.9" r="3.0" fill="#aed0ff" fill-opacity="0.6"/>
<circle cx="287.9" cy="462.2" r="3.0" fill="#aed0ff" fill-opacity="0.6"/>
<circle cx="221.0" cy="302.1" r="3.0" fill="#aed0ff" fill-opacity="0.6"/>
<circle cx="201.7" cy="335.9" r="3.0" fill="#aed0ff" fill-opacity="0.6"/>
<circle cx="182.4" cy="369.8" r="3.0" fill="#aed0ff" fill-opacity="0.6"/>
<circle cx="163.1" cy="403.6" r="3.0" fill="#aed0ff" fill-opacity="0.6"/>
<circle cx="143.8" cy="437.5" r="3.0" fill="#aed0ff" fill-opacity="0.6"/>
<circle cx="195.2" cy="271.7" r="3.0" fill="#aed0ff" fill-opacity="0.6"/>
<circle cx="158.7" cy="285.3" r="3.0" fill="#aed0ff" fill-opacity="0.6"/>
<circle cx="122.2" cy="298.9" r="3.0" fill="#aed0ff" fill-opacity="0.6"/>
<circle cx="85.7" cy="312.5" r="3.0" fill="#aed0ff" fill-opacity="0.6"/>
<circle cx="49.2" cy="326.0" r="3.0" fill="#aed0ff" fill-opacity="0.6"/>
<circle cx="194.9" cy="231.8" r="3.0" fill="#aed0ff" fill-opacity="0.6"/>
<circle cx="158.2" cy="218.8" r="3.0" fill="#aed0ff" fill-opacity="0.6"/>
<circle cx="121.5" cy="205.8" r="3.0" fill="#aed0ff" fill-opacity="0.6"/>
<circle cx="84.7" cy="192.8" r="3.0" fill="#aed0ff" fill-opacity="0.6"/>
<circle cx="48.0" cy="179.8" r="3.0" fill="#aed0ff" fill-opacity="0.6"/>
<circle cx="327.9" cy="251.3" r="3.0" fill="#bfffff" fill-opacity="0.6"/>
<circle cx="366.9" cy="251.3" r="3.0" fill="#bfffff" fill-opacity="0.6"/>
<circle cx="405.8" cy="251.3" r="3.0" fill="#bfffff" fill-opacity="0.6"/>
<circle cx="444.8" cy="251.3" r="3.0" fill="#bfffff" fill-opacity="0.6"/>
<circle cx="245.1" cy="329.1" r="3.0" fill="#bfffff" fill-opacity="0.6"/>
<circle cx="242.7" cy="368.0" r="3.0" fill="#bfffff" fill-opacity="0.6"/>
<circle cx="240.2" cy="406.9" r="3.0" fill="#bfffff" fill-opacity="0.6"/>
<circle cx="237.8" cy="445.8" r="3.0" fill="#bfffff" fill-opacity="0.6"/>
<circle cx="172.7" cy="241.6" r="3.0" fill="#bfffff" fill-opacity="0.6"/>
<circle cx="134.0" cy="236.7" r="3.0" fill="#bfffff" fill-opacity="0.6"/>
<circle cx="95.4" cy="231.8" r="3.0" fill="#bfffff" fill-opacity="0.6"/>
<circle cx="56.7" cy="226.9" r="3.0" fill="#bfffff" fill-opacity="0.6"/>
<line x1="250.0" y1="251.34" x2="443.1" y2="251.3" stroke="#3223153" stroke-width="2.57" opacity="0.31"/>
<line x1="250.0" y1="251.34" x2="396.5" y2="377.1" stroke="#3d29148" stroke-width="2.57" opacity="0.34"/>
<line x1="250.0" y1="251.34" x2="279.2" y2="442.2" stroke="#492f13c" stroke-width="2.57" opacity="0.36"/>
<line x1="250.0" y1="251.34" x2="147.8" y2="415.2" stroke="#5536130" stroke-width="2.57" opacity="0.39"/>
<line x1="250.0" y1="251.34" x2="65.7" y2="309.1" stroke="#613d124" stroke-width="2.57" opacity="0.41"/>
<line x1="250.0" y1="251.34" x2="72.6" y2="175.1" stroke="#6d44118" stroke-width="2.57" opacity="0.43"/>
<line x1="250.0" y1="251.34" x2="165.0" y2="77.9" stroke="#794a10c" stroke-width="2.57" opacity="0.46"/>
<line x1="250.0" y1="251.34" x2="298.5" y2="64.4" stroke="#8551100" stroke-width="2.57" opacity="0.48"/>
<line x1="250.0" y1="251.34" x2="408.6" y2="141.1" stroke="#9158f4" stroke-width="2.57" opacity="0.51"/>
<line x1="250.0" y1="251.34" x2="442.1" y2="271.0" stroke="#9d5ee8" stroke-width="2.57" opacity="0.53"/>
<line x1="250.0" y1="251.34" x2="382.9" y2="391.4" stroke="#a965dc" stroke-width="2.57" opacity="0.56"/>
<line x1="250.0" y1="251.34" x2="259.6" y2="444.2" stroke="#b56cd0" stroke-width="2.57" opacity="0.58"/>
<circle cx="347.4" cy="251.3" r="3.0" fill="#87c7f1" fill-opacity="0.6"/>
<circle cx="386.4" cy="251.3" r="3.0" fill="#87c7f1" fill-opacity="0.6"/>
<circle cx="425.3" cy="251.3" r="3.0" fill="#87c7f1" fill-opacity="0.6"/>
<circle cx="464.3" cy="251.3" r="3.0" fill="#87c7f1" fill-opacity="0.6"/>
<circle cx="231.0" cy="346.9" r="3.0" fill="#87c7f1" fill-opacity="0.6"/>
<circle cx="223.4" cy="385.1" r="3.0" fill="#87c7f1" fill-opacity="0.6"/>
<circle cx="215.8" cy="423.3" r="3.0" fill="#87c7f1" fill-opacity="0.6"/>
<circle cx="208.2" cy="461.5" r="3.0" fill="#87c7f1" fill-opacity="0.6"/>
<circle cx="160.0" cy="214.1" r="3.0" fill="#87c7f1" fill-opacity="0.6"/>
<circle cx="124.0" cy="199.2" r="3.0" fill="#87c7f1" fill-opacity="0.6"/>
<circle cx="88.0" cy="184.2" r="3.0" fill="#87c7f1" fill-opacity="0.6"/>
<circle cx="52.0" cy="169.3" r="3.0" fill="#87c7f1" fill-opacity="0.6"/>
<circle cx="289.0" cy="251.3" r="3.0" fill="#c0ffff" fill-opacity="0.6"/>
<circle cx="327.9" cy="251.3" r="3.0" fill="#c0ffff" fill-opacity="0.6"/>
<circle cx="366.9" cy="251.3" r="3.0" fill="#c0ffff" fill-opacity="0.6"/>
<circle cx="405.8" cy="251.3" r="3.0" fill="#c0ffff" fill-opacity="0.6"/>
<circle cx="444.8" cy="251.3" r="3.0" fill="#c0ffff" fill-opacity="0.6"/>
<circle cx="265.3" cy="287.2" r="3.0" fill="#c0ffff" fill-opacity="0.6"/>
<circle cx="280.6" cy="323.0" r="3.0" fill="#c0ffff" fill-opacity="0.6"/>
<circle cx="295.9" cy="358.8" r="3.0" fill="#c0ffff" fill-opacity="0.6"/>
<circle cx="311.1" cy="394.7" r="3.0" fill="#c0ffff" fill-opacity="0.6"/>
<circle cx="326.4" cy="430.5" r="3.0" fill="#c0ffff" fill-opacity="0.6"/>
<circle cx="223.0" cy="279.5" r="3.0" fill="#c0ffff" fill-opacity="0.6"/>
<circle cx="196.1" cy="307.6" r="3.0" fill="#c0ffff" fill-opacity="0.6"/>
<circle cx="169.1" cy="335.7" r="3.0" fill="#c0ffff" fill-opacity="0.6"/>
<circle cx="142.1" cy="363.8" r="3.0" fill="#c0ffff" fill-opacity="0.6"/>
<circle cx="115.2" cy="391.9" r="3.0" fill="#c0ffff" fill-opacity="0.6"/>
<circle cx="213.6" cy="237.6" r="3.0" fill="#c0ffff" fill-opacity="0.6"/>
<circle cx="177.1" cy="223.8" r="3.0" fill="#c0ffff" fill-opacity="0.6"/>
<circle cx="140.7" cy="210.0" r="3.0" fill="#c0ffff" fill-opacity="0.6"/>
<circle cx="104.2" cy="196.3" r="3.0" fill="#c0ffff" fill-opacity="0.6"/>
<circle cx="67.8" cy="182.5" r="3.0" fill="#c0ffff" fill-opacity="0.6"/>
<circle cx="248.4" cy="212.4" r="3.0" fill="#c0ffff" fill-opacity="0.6"/>
<circle cx="246.7" cy="173.5" r="3.0" fill="#c0ffff" fill-opacity="0.6"/>
<circle cx="245.1" cy="134.6" r="3.0" fill="#c0ffff" fill-opacity="0.6"/>
<circle cx="243.5" cy="95.6" r="3.0" fill="#c0ffff" fill-opacity="0.6"/>
<circle cx="241.8" cy="56.7" r="3.0" fill="#c0ffff" fill-opacity="0.6"/>
<circle cx="285.2" cy="234.6" r="3.0" fill="#c0ffff" fill-opacity="0.6"/>
<circle cx="320.3" cy="217.8" r="3.0" fill="#c0ffff" fill-opacity="0.6"/>
<circle cx="355.5" cy="201.0" r="3.0" fill="#c0ffff" fill-opacity="0.6"/>
<circle cx="390.7" cy="184.2" r="3.0" fill="#c0ffff" fill-opacity="0.6"/>
<circle cx="425.8" cy="167.5" r="3.0" fill="#c0ffff" fill-opacity="0.6"/>
<circle cx="308.4" cy="251.3" r="3.0" fill="#cfb6ff" fill-opacity="0.6"/>
<circle cx="347.4" cy="251.3" r="3.0" fill="#cfb6ff" fill-opacity="0.6"/>
<circle cx="386.4" cy="251.3" r="3.0" fill="#cfb6ff" fill-opacity="0.6"/>
<circle cx="425.3" cy="251.3" r="3.0" fill="#cfb6ff" fill-opacity="0.6"/>
<circle cx="464.3" cy="251.3" r="3.0" fill="#cfb6ff" fill-opacity="0.6"/>
<circle cx="276.3" cy="303.5" r="3.0" fill="#cfb6ff" fill-opacity="0.6"/>
<circle cx="293.8" cy="338.4" r="3.0" fill="#cfb6ff" fill-opacity="0.6"/>
<circle cx="311.3" cy="373.2" r="3.0" fill="#cfb6ff" fill-opacity="0.6"/>
<circle cx="328.8" cy="408.0" r="3.0" fill="#cfb6ff" fill-opacity="0.6"/>
<circle cx="346.3" cy="442.8" r="3.0" fill="#cfb6ff" fill-opacity="0.6"/>
<circle cx="215.2" cy="298.3" r="3.0" fill="#cfb6ff" fill-opacity="0.6"/>
<circle cx="191.9" cy="329.5" r="3.0" fill="#cfb6ff" fill-opacity="0.6"/>
<circle cx="168.7" cy="360.8" r="3.0" fill="#cfb6ff" fill-opacity="0.6"/>
<circle cx="145.5" cy="392.1" r="3.0" fill="#cfb6ff" fill-opacity="0.6"/>
<circle cx="122.2" cy="423.4" r="3.0" fill="#cfb6ff" fill-opacity="0.6"/>
<circle cx="192.4" cy="241.3" r="3.0" fill="#cfb6ff" fill-opacity="0.6"/>
<circle cx="154.1" cy="234.6" r="3.0" fill="#cfb6ff" fill-opacity="0.6"/>
<circle cx="115.7" cy="227.9" r="3.0" fill="#cfb6ff" fill-opacity="0.6"/>
<circle cx="77.3" cy="221.2" r="3.0" fill="#cfb6ff" fill-opacity="0.6"/>
<circle cx="38.9" cy="214.5" r="3.0" fill="#cfb6ff" fill-opacity="0.6"/>
<circle cx="233.1" cy="195.4" r="3.0" fill="#cfb6ff" fill-opacity="0.6"/>
<circle cx="221.8" cy="158.1" r="3.0" fill="#cfb6ff" fill-opacity="0.6"/>
<circle cx="210.6" cy="120.8" r="3.0" fill="#cfb6ff" fill-opacity="0.6"/>
<circle cx="199.3" cy="83.5" r="3.0" fill="#cfb6ff" fill-opacity="0.6"/>
<circle cx="188.1" cy="46.2" r="3.0" fill="#cfb6ff" fill-opacity="0.6"/>
<circle cx="292.4" cy="211.1" r="3.0" fill="#cfb6ff" fill-opacity="0.6"/>
<circle cx="320.7" cy="184.3" r="3.0" fill="#cfb6ff" fill-opacity="0.6"/>
<circle cx="348.9" cy="157.5" r="3.0" fill="#cfb6ff" fill-opacity="0.6"/>
<circle cx="377.2" cy="130.7" r="3.0" fill="#cfb6ff" fill-opacity="0.6"/>
<circle cx="405.4" cy="103.8" r="3.0" fill="#cfb6ff" fill-opacity="0.6"/>
<circle cx="250.0" cy="251.34" r="233.8" fill="#f063d4" fill-opacity="0.21" stroke="#f063d4" stroke-width="1.5"/>
<circle cx="250.0" cy="251.34" r="214.3" fill="#df6ce0" fill-opacity="0.21" stroke="#df6ce0" stroke-width="1.5"/>
<circle cx="250.0" cy="251.34" r="194.8" fill="#cf76eb" fill-opacity="0.20" stroke="#cf76eb" stroke-width="1.5"/>
<circle cx="250.0" cy="251.34" r="175.3" fill="#be7ff5" fill-opacity="0.20" stroke="#be7ff5" stroke-width="1.5"/>
<circle cx="250.0" cy="251.34" r="155.8" fill="#ae88fc" fill-opacity="0.20" stroke="#ae88fc" stroke-width="1.5"/>
<circle cx="250.0" cy="251.34" r="136.4" fill="#9d92101" fill-opacity="0.19" stroke="#9d92101" stroke-width="1.5"/>
<circle cx="250.0" cy="251.34" r="116.9" fill="#8d9b103" fill-opacity="0.19" stroke="#8d9b103" stroke-width="1.5"/>
<circle cx="250.0" cy="251.34" r="97.4" fill="#7da5101" fill-opacity="0.19" stroke="#7da5101" stroke-width="1.5"/>
<circle cx="250.0" cy="251.34" r="77.9" fill="#6caefc" fill-opacity="0.18" stroke="#6caefc" stroke-width="1.5"/>
<circle cx="250.0" cy="251.34" r="58.4" fill="#5cb8f5" fill-opacity="0.18" stroke="#5cb8f5" stroke-width="1.5"/>
<circle cx="250.0" cy="251.34" r="39.0" fill="#4bc1eb" fill-opacity="0.18" stroke="#4bc1eb" stroke-width="1.5"/>
<circle cx="250.0" cy="251.34" r="19.5" fill="#3bcae0" fill-opacity="0.17" stroke="#3bcae0" stroke-width="1.5"/>
<circle cx="250.0" cy="251.34" r="233.8" fill="#dd2bd7" fill-opacity="0.27" stroke="#dd2bd7" stroke-width="1.5"/>
<circle cx="250.0" cy="251.34" r="214.3" fill="#cd30ea" fill-opacity="0.27" stroke="#cd30ea" stroke-width="1.5"/>
<circle cx="250.0" cy="251.34" r="194.8" fill="#bd36fc" fill-opacity="0.26" stroke="#bd36fc" stroke-width="1.5"/>
<circle cx="250.0" cy="251.34" r="175.3" fill="#ad3b10c" fill-opacity="0.26" stroke="#ad3b10c" stroke-width="1.5"/>
<circle cx="250.0" cy="251.34" r="155.8" fill="#9d40117" fill-opacity="0.26" stroke="#9d40117" stroke-width="1.5"/>
<circle cx="250.0" cy="251.34" r="136.4" fill="#8d4511f" fill-opacity="0.25" stroke="#8d4511f" stroke-width="1.5"/>
<circle cx="250.0" cy="251.34" r="116.9" fill="#7d4a122" fill-opacity="0.25" stroke="#7d4a122" stroke-width="1.5"/>
<circle cx="250.0" cy="251.34" r="97.4" fill="#6d4f11f" fill-opacity="0.25" stroke="#6d4f11f" stroke-width="1.5"/>
<circle cx="250.0" cy="251.34" r="77.9" fill="#5d55117" fill-opacity="0.24" stroke="#5d55117" stroke-width="1.5"/>
<circle cx="250.0" cy="251.34" r="58.4" fill="#4d5a10c" fill-opacity="0.24" stroke="#4d5a10c" stroke-width="1.5"/>
<circle cx="250.0" cy="251.34" r="39.0" fill="#3d5ffc" fill-opacity="0.24" stroke="#3d5ffc" stroke-width="1.5"/>
<circle cx="250.0" cy="251.34" r="19.5" fill="#2d64ea" fill-opacity="0.23" stroke="#2d64ea" stroke-width="1.5"/>
<circle cx="327.9" cy="251.3" r="3.0" fill="#e0fff8" fill-opacity="0.6"/>
<circle cx="386.4" cy="251.3" r="3.0" fill="#e0fff8" fill-opacity="0.6"/>
<circle cx="444.8" cy="251.3" r="3.0" fill="#e0fff8" fill-opacity="0.6"/>
<circle cx="250.0" cy="329.3" r="3.0" fill="#e0fff8" fill-opacity="0.6"/>
<circle cx="250.0" cy="387.7" r="3.0" fill="#e0fff8" fill-opacity="0.6"/>
<circle cx="250.0" cy="446.1" r="3.0" fill="#e0fff8" fill-opacity="0.6"/>
<circle cx="172.1" cy="251.3" r="3.0" fill="#e0fff8" fill-opacity="0.6"/>
<circle cx="113.6" cy="251.3" r="3.0" fill="#e0fff8" fill-opacity="0.6"/>
<circle cx="55.2" cy="251.3" r="3.0" fill="#e0fff8" fill-opacity="0.6"/>
<circle cx="250.0" cy="173.4" r="3.0" fill="#e0fff8" fill-opacity="0.6"/>
<circle cx="250.0" cy="115.0" r="3.0" fill="#e0fff8" fill-opacity="0.6"/>
<circle cx="250.0" cy="56.5" r="3.0" fill="#e0fff8" fill-opacity="0.6"/>
<circle cx="308.4" cy="251.3" r="3.0" fill="#adedd8" fill-opacity="0.6"/>
<circle cx="347.4" cy="251.3" r="3.0" fill="#adedd8" fill-opacity="0.6"/>
<circle cx="386.4" cy="251.3" r="3.0" fill="#adedd8" fill-opacity="0.6"/>
<circle cx="425.3" cy="251.3" r="3.0" fill="#adedd8" fill-opacity="0.6"/>
<circle cx="464.3" cy="251.3" r="3.0" fill="#adedd8" fill-opacity="0.6"/>
<circle cx="208.2" cy="292.2" r="3.0" fill="#adedd8" fill-opacity="0.6"/>
<circle cx="180.4" cy="319.5" r="3.0" fill="#adedd8" fill-opacity="0.6"/>
<circle cx="152.6" cy="346.7" r="3.0" fill="#adedd8" fill-opacity="0.6"/>
<circle cx="124.7" cy="374.0" r="3.0" fill="#adedd8" fill-opacity="0.6"/>
<circle cx="96.9" cy="401.3" r="3.0" fill="#adedd8" fill-opacity="0.6"/>
<circle cx="251.2" cy="192.9" r="3.0" fill="#adedd8" fill-opacity="0.6"/>
<circle cx="252.0" cy="154.0" r="3.0" fill="#adedd8" fill-opacity="0.6"/>
<circle cx="252.9" cy="115.0" r="3.0" fill="#adedd8" fill-opacity="0.6"/>
<circle cx="253.7" cy="76.1" r="3.0" fill="#adedd8" fill-opacity="0.6"/>
<circle cx="254.5" cy="37.1" r="3.0" fill="#adedd8" fill-opacity="0.6"/>
<circle cx="289.0" cy="251.3" r="3.0" fill="#f4dfff" fill-opacity="0.6"/>
<circle cx="327.9" cy="251.3" r="3.0" fill="#f4dfff" fill-opacity="0.6"/>
<circle cx="366.9" cy="251.3" r="3.0" fill="#f4dfff" fill-opacity="0.6"/>
<circle cx="405.8" cy="251.3" r="3.0" fill="#f4dfff" fill-opacity="0.6"/>
<circle cx="444.8" cy="251.3" r="3.0" fill="#f4dfff" fill-opacity="0.6"/>
<circle cx="267.7" cy="286.1" r="3.0" fill="#f4dfff" fill-opacity="0.6"/>
<circle cx="285.4" cy="320.8" r="3.0" fill="#f4dfff" fill-opacity="0.6"/>
<circle cx="303.1" cy="355.5" r="3.0" fill="#f4dfff" fill-opacity="0.6"/>
<circle cx="320.7" cy="390.2" r="3.0" fill="#f4dfff" fill-opacity="0.6"/>
<circle cx="338.4" cy="424.9" r="3.0" fill="#f4dfff" fill-opacity="0.6"/>
<circle cx="227.1" cy="282.9" r="3.0" fill="#f4dfff" fill-opacity="0.6"/>
<circle cx="204.2" cy="314.4" r="3.0" fill="#f4dfff" fill-opacity="0.6"/>
<circle cx="181.3" cy="345.9" r="3.0" fill="#f4dfff" fill-opacity="0.6"/>
<circle cx="158.4" cy="377.4" r="3.0" fill="#f4dfff" fill-opacity="0.6"/>
<circle cx="135.5" cy="408.9" r="3.0" fill="#f4dfff" fill-opacity="0.6"/>
<circle cx="211.5" cy="245.2" r="3.0" fill="#f4dfff" fill-opacity="0.6"/>
<circle cx="173.0" cy="239.2" r="3.0" fill="#f4dfff" fill-opacity="0.6"/>
<circle cx="134.6" cy="233.1" r="3.0" fill="#f4dfff" fill-opacity="0.6"/>
<circle cx="96.1" cy="227.0" r="3.0" fill="#f4dfff" fill-opacity="0.6"/>
<circle cx="57.6" cy="220.9" r="3.0" fill="#f4dfff" fill-opacity="0.6"/>
<circle cx="238.0" cy="214.3" r="3.0" fill="#f4dfff" fill-opacity="0.6"/>
<circle cx="225.9" cy="177.2" r="3.0" fill="#f4dfff" fill-opacity="0.6"/>
<circle cx="213.9" cy="140.2" r="3.0" fill="#f4dfff" fill-opacity="0.6"/>
<circle cx="201.8" cy="103.1" r="3.0" fill="#f4dfff" fill-opacity="0.6"/>
<circle cx="189.8" cy="66.1" r="3.0" fill="#f4dfff" fill-opacity="0.6"/>
<circle cx="277.5" cy="223.8" r="3.0" fill="#f4dfff" fill-opacity="0.6"/>
<circle cx="305.1" cy="196.2" r="3.0" fill="#f4dfff" fill-opacity="0.6"/>
<circle cx="332.6" cy="168.7" r="3.0" fill="#f4dfff" fill-opacity="0.6"/>
<circle cx="360.2" cy="141.1" r="3.0" fill="#f4dfff" fill-opacity="0.6"/>
<circle cx="387.7" cy="113.6" r="3.0" fill="#f4dfff" fill-opacity="0.6"/>
<circle cx="250.0" cy="251.34" r="233.8" fill="#15d06e8" fill-opacity="0.13" stroke="#15d06e8" stroke-width="1.5"/>
<circle cx="250.0" cy="251.34" r="214.3" fill="#1420bf7" fill-opacity="0.13" stroke="#1420bf7" stroke-width="1.5"/>
<circle cx="250.0" cy="251.34" r="194.8" fill="#12810105" fill-opacity="0.12" stroke="#12810105" stroke-width="1.5"/>
<circle cx="250.0" cy="251.34" r="175.3" fill="#10d15111" fill-opacity="0.12" stroke="#10d15111" stroke-width="1.5"/>
<circle cx="250.0" cy="251.34" r="155.8" fill="#f31a11b" fill-opacity="0.11" stroke="#f31a11b" stroke-width="1.5"/>
<circle cx="250.0" cy="251.34" r="136.4" fill="#d81f120" fill-opacity="0.11" stroke="#d81f120" stroke-width="1.5"/>
<circle cx="250.0" cy="251.34" r="116.9" fill="#be24123" fill-opacity="0.11" stroke="#be24123" stroke-width="1.5"/>
<circle cx="250.0" cy="251.34" r="97.4" fill="#a329120" fill-opacity="0.10" stroke="#a329120" stroke-width="1.5"/>
<circle cx="250.0" cy="251.34" r="77.9" fill="#892e11b" fill-opacity="0.10" stroke="#892e11b" stroke-width="1.5"/>
<circle cx="250.0" cy="251.34" r="58.4" fill="#6e33111" fill-opacity="0.09" stroke="#6e33111" stroke-width="1.5"/>
<circle cx="250.0" cy="251.34" r="39.0" fill="#5438105" fill-opacity="0.09" stroke="#5438105" stroke-width="1.5"/>
<circle cx="250.0" cy="251.34" r="19.5" fill="#393df7" fill-opacity="0.08" stroke="#393df7" stroke-width="1.5"/>
<line x1="250.0" y1="251.34" x2="443.1" y2="251.3" stroke="#2b2c112" stroke-width="2.57" opacity="0.26"/>
<line x1="250.0" y1="251.34" x2="413.3" y2="354.4" stroke="#3a33103" stroke-width="2.57" opacity="0.29"/>
<line x1="250.0" y1="251.34" x2="333.1" y2="425.6" stroke="#493af4" stroke-width="2.57" opacity="0.32"/>
<line x1="250.0" y1="251.34" x2="227.3" y2="443.1" stroke="#5842e5" stroke-width="2.57" opacity="0.35"/>
<line x1="250.0" y1="251.34" x2="128.5" y2="401.4" stroke="#6749d6" stroke-width="2.57" opacity="0.38"/>
<line x1="250.0" y1="251.34" x2="67.1" y2="313.4" stroke="#7650c7" stroke-width="2.57" opacity="0.41"/>
<line x1="250.0" y1="251.34" x2="62.2" y2="206.3" stroke="#8558b8" stroke-width="2.57" opacity="0.45"/>
<line x1="250.0" y1="251.34" x2="115.2" y2="113.0" stroke="#945fa9" stroke-width="2.57" opacity="0.48"/>
<line x1="250.0" y1="251.34" x2="209.9" y2="62.4" stroke="#a3669a" stroke-width="2.57" opacity="0.51"/>
<line x1="250.0" y1="251.34" x2="316.8" y2="70.2" stroke="#b26e8b" stroke-width="2.57" opacity="0.54"/>
<line x1="250.0" y1="251.34" x2="403.2" y2="133.8" stroke="#c1757c" stroke-width="2.57" opacity="0.57"/>
<line x1="250.0" y1="251.34" x2="442.3" y2="233.7" stroke="#d07c6d" stroke-width="2.57" opacity="0.60"/>
<circle cx="327.9" cy="251.3" r="3.0" fill="#e0fff8" fill-opacity="0.6"/>
<circle cx="386.4" cy="251.3" r="3.0" fill="#e0fff8" fill-opacity="0.6"/>
<circle cx="444.8" cy="251.3" r="3.0" fill="#e0fff8" fill-opacity="0.6"/>
<circle cx="254.9" cy="329.1" r="3.0" fill="#e0fff8" fill-opacity="0.6"/>
<circle cx="258.6" cy="387.4" r="3.0" fill="#e0fff8" fill-opacity="0.6"/>
<circle cx="262.2" cy="445.8" r="3.0" fill="#e0fff8" fill-opacity="0.6"/>
<circle cx="172.7" cy="261.1" r="3.0" fill="#e0fff8" fill-opacity="0.6"/>
<circle cx="114.7" cy="268.4" r="3.0" fill="#e0fff8" fill-opacity="0.6"/>
<circle cx="56.7" cy="275.8" r="3.0" fill="#e0fff8" fill-opacity="0.6"/>
<circle cx="250.0" cy="251.34" r="8.0" fill="#bfdbde" fill-opacity="0.9"/>
</svg>