<svg xmlns="http://www.w3.org/2000/svg" width="500" height="500" viewBox="0 0 500 500">
<rect width="500" height="500" fill="#00343b"/>
<circle cx="344.2" cy="267.9" r="3.0" fill="#a6ffe3" fill-opacity="0.6"/>
<circle cx="381.9" cy="267.9" r="3.0" fill="#a6ffe3" fill-opacity="0.6"/>
<circle cx="419.6" cy="267.9" r="3.0" fill="#a6ffe3" fill-opacity="0.6"/>
<circle cx="457.3" cy="267.9" r="3.0" fill="#a6ffe3" fill-opacity="0.6"/>
<circle cx="293.3" cy="351.6" r="3.0" fill="#a6ffe3" fill-opacity="0.6"/>
<circle cx="310.6" cy="385.0" r="3.0" fill="#a6ffe3" fill-opacity="0.6"/>
<circle cx="327.9" cy="418.5" r="3.0" fill="#a6ffe3" fill-opacity="0.6"/>
<circle cx="345.3" cy="452.0" r="3.0" fill="#a6ffe3" fill-opacity="0.6"/>
<circle cx="195.6" cy="344.8" r="3.0" fill="#a6ffe3" fill-opacity="0.6"/>
<circle cx="173.8" cy="375.6" r="3.0" fill="#a6ffe3" fill-opacity="0.6"/>
<circle cx="152.0" cy="406.3" r="3.0" fill="#a6ffe3" fill-opacity="0.6"/>
<circle cx="130.3" cy="437.1" r="3.0" fill="#a6ffe3" fill-opacity="0.6"/>
<circle cx="156.7" cy="254.9" r="3.0" fill="#a6ffe3" fill-opacity="0.6"/>
<circle cx="119.4" cy="249.7" r="3.0" fill="#a6ffe3" fill-opacity="0.6"/>
<circle cx="82.0" cy="244.5" r="3.0" fill="#a6ffe3" fill-opacity="0.6"/>
<circle cx="44.7" cy="239.3" r="3.0" fill="#a6ffe3" fill-opacity="0.6"/>
<circle cx="218.6" cy="179.0" r="3.0" fill="#a6ffe3" fill-opacity="0.6"/>
<circle cx="206.1" cy="143.5" r="3.0" fill="#a6ffe3" fill-opacity="0.6"/>
<circle cx="193.6" cy="108.0" r="3.0" fill="#a6ffe3" fill-opacity="0.6"/>
<circle cx="181.0" cy="72.4" r="3.0" fill="#a6ffe3" fill-opacity="0.6"/>
<circle cx="250.0" cy="267.89" r="226.1" fill="#11414cb" fill-opacity="0.18" stroke="#11414cb" stroke-width="1.5"/>
<circle cx="250.0" cy="267.89" r="207.3" fill="#1001be1" fill-opacity="0.17" stroke="#1001be1" stroke-width="1.5"/>
<circle cx="250.0" cy="267.89" r="188.4" fill="#ec21f6" fill-opacity="0.17" stroke="#ec21f6" stroke-width="1.5"/>
<circle cx="250.0" cy="267.89" r="169.6" fill="#d828108" fill-opacity="0.16" stroke="#d828108" stroke-width="1.5"/>
<circle cx="250.0" cy="267.89" r="150.7" fill="#c42f116" fill-opacity="0.16" stroke="#c42f116" stroke-width="1.5"/>
<circle cx="250.0" cy="267.89" r="131.9" fill="#b03611f" fill-opacity="0.15" stroke="#b03611f" stroke-width="1.5"/>
<circle cx="250.0" cy="267.89" r="113.1" fill="#9d3c122" fill-opacity="0.15" stroke="#9d3c122" stroke-width="1.5"/>
<circle cx="250.0" cy="267.89" r="94.2" fill="#894311f" fill-opacity="0.14" stroke="#894311f" stroke-width="1.5"/>
<circle cx="250.0" cy="267.89" r="75.4" fill="#754a116" fill-opacity="0.14" stroke="#754a116" stroke-width="1.5"/>
<circle cx="250.0" cy="267.89" r="56.5" fill="#6151108" fill-opacity="0.14" stroke="#6151108" stroke-width="1.5"/>
<circle cx="250.0" cy="267.89" r="37.7" fill="#4d57f6" fill-opacity="0.13" stroke="#4d57f6" stroke-width="1.5"/>
<circle cx="250.0" cy="267.89" r="18.8" fill="#395ee1" fill-opacity="0.12" stroke="#395ee1" stroke-width="1.5"/>
<circle cx="325.4" cy="267.9" r="3.0" fill="#91c0f3" fill-opacity="0.6"/>
<circle cx="363.1" cy="267.9" r="3.0" fill="#91c0f3" fill-opacity="0.6"/>
<circle cx="400.7" cy="267.9" r="3.0" fill="#91c0f3" fill-opacity="0.6"/>
<circle cx="438.4" cy="267.9" r="3.0" fill="#91c0f3" fill-opacity="0.6"/>
<circle cx="307.1" cy="317.1" r="3.0" fill="#91c0f3" fill-opacity="0.6"/>
<circle cx="335.6" cy="341.8" r="3.0" fill="#91c0f3" fill-opacity="0.6"/>
<circle cx="364.1" cy="366.4" r="3.0" fill="#91c0f3" fill-opacity="0.6"/>
<circle cx="392.6" cy="391.0" r="3.0" fill="#91c0f3" fill-opacity="0.6"/>
<circle cx="261.0" cy="342.5" r="3.0" fill="#91c0f3" fill-opacity="0.6"/>
<circle cx="266.5" cy="379.7" r="3.0" fill="#91c0f3" fill-opacity="0.6"/>
<circle cx="272.0" cy="417.0" r="3.0" fill="#91c0f3" fill-opacity="0.6"/>
<circle cx="277.5" cy="454.3" r="3.0" fill="#91c0f3" fill-opacity="0.6"/>
<circle cx="209.6" cy="331.5" r="3.0" fill="#91c0f3" fill-opacity="0.6"/>
<circle cx="189.4" cy="363.3" r="3.0" fill="#91c0f3" fill-opacity="0.6"/>
<circle cx="169.2" cy="395.2" r="3.0" fill="#91c0f3" fill-opacity="0.6"/>
<circle cx="149.0" cy="427.0" r="3.0" fill="#91c0f3" fill-opacity="0.6"/>
<circle cx="177.8" cy="289.7" r="3.0" fill="#91c0f3" fill-opacity="0.6"/>
<circle cx="141.8" cy="300.6" r="3.0" fill="#91c0f3" fill-opacity="0.6"/>
<circle cx="105.7" cy="311.5" r="3.0" fill="#91c0f3" fill-opacity="0.6"/>
<circle cx="69.6" cy="322.4" r="3.0" fill="#91c0f3" fill-opacity="0.6"/>
<circle cx="181.1" cy="237.2" r="3.0" fill="#91c0f3" fill-opacity="0.6"/>
<circle cx="146.7" cy="221.9" r="3.0" fill="#91c0f3" fill-opacity="0.6"/>
<circle cx="112.3" cy="206.6" r="3.0" fill="#91c0f3" fill-opacity="0.6"/>
<circle cx="77.9" cy="191.2" r="3.0" fill="#91c0f3" fill-opacity="0.6"/>
<circle cx="217.9" cy="199.7" r="3.0" fill="#91c0f3" fill-opacity="0.6"/>
<circle cx="201.9" cy="165.6" r="3.0" fill="#91c0f3" fill-opacity="0.6"/>
<circle cx="185.8" cy="131.5" r="3.0" fill="#91c0f3" fill-opacity="0.6"/>
<circle cx="169.8" cy="97.4" r="3.0" fill="#91c0f3" fill-opacity="0.6"/>
<circle cx="270.3" cy="195.3" r="3.0" fill="#91c0f3" fill-opacity="0.6"/>
<circle cx="280.4" cy="159.0" r="3.0" fill="#91c0f3" fill-opacity="0.6"/>
<circle cx="290.5" cy="122.7" r="3.0" fill="#91c0f3" fill-opacity="0.6"/>
<circle cx="300.7" cy="86.4" r="3.0" fill="#91c0f3" fill-opacity="0.6"/>
<circle cx="325.4" cy="267.9" r="3.0" fill="#cbe9e8" fill-opacity="0.6"/>
<circle cx="363.1" cy="267.9" r="3.0" fill="#cbe9e8" fill-opacity="0.6"/>
<circle cx="400.7" cy="267.9" r="3.0" fill="#cbe9e8" fill-opacity="0.6"/>
<circle cx="438.4" cy="267.9" r="3.0" fill="#cbe9e8" fill-opacity="0.6"/>
<circle cx="269.7" cy="340.7" r="3.0" fill="#cbe9e8" fill-opacity="0.6"/>
<circle cx="279.5" cy="377.0" r="3.0" fill="#cbe9e8" fill-opacity="0.6"/>
<circle cx="289.3" cy="413.4" r="3.0" fill="#cbe9e8" fill-opacity="0.6"/>
<circle cx="299.2" cy="449.8" r="3.0" fill="#cbe9e8" fill-opacity="0.6"/>
<circle cx="184.9" cy="305.8" r="3.0" fill="#cbe9e8" fill-opacity="0.6"/>
<circle cx="152.3" cy="324.8" r="3.0" fill="#cbe9e8" fill-opacity="0.6"/>
<circle cx="119.8" cy="343.8" r="3.0" fill="#cbe9e8" fill-opacity="0.6"/>
<circle cx="87.2" cy="362.8" r="3.0" fill="#cbe9e8" fill-opacity="0.6"/>
<circle cx="196.4" cy="214.9" r="3.0" fill="#cbe9e8" fill-opacity="0.6"/>
<circle cx="169.6" cy="188.4" r="3.0" fill="#cbe9e8" fill-opacity="0.6"/>
<circle cx="142.7" cy="162.0" r="3.0" fill="#cbe9e8" fill-opacity="0.6"/>
<circle cx="115.9" cy="135.5" r="3.0" fill="#cbe9e8" fill-opacity="0.6"/>
<circle cx="250.0" cy="267.89" r="226.1" fill="#bc41ae" fill-opacity="0.25" stroke="#bc41ae" stroke-width="1.5"/>
<circle cx="250.0" cy="267.89" r="207.3" fill="#af47bd" fill-opacity="0.24" stroke="#af47bd" stroke-width="1.5"/>
<circle cx="250.0" cy="267.89" r="188.4" fill="#a24ecb" fill-opacity="0.24" stroke="#a24ecb" stroke-width="1.5"/>
<circle cx="250.0" cy="267.89" r="169.6" fill="#9655d7" fill-opacity="0.23" stroke="#9655d7" stroke-width="1.5"/>
<circle cx="250.0" cy="267.89" r="150.7" fill="#895ce1" fill-opacity="0.23" stroke="#895ce1" stroke-width="1.5"/>
<circle cx="250.0" cy="267.89" r="131.9" fill="#7c62e6" fill-opacity="0.23" stroke="#7c62e6" stroke-width="1.5"/>
<circle cx="250.0" cy="267.89" r="113.1" fill="#7069e9" fill-opacity="0.22" stroke="#7069e9" stroke-width="1.5"/>
<circle cx="250.0" cy="267.89" r="94.2" fill="#6370e6" fill-opacity="0.21" stroke="#6370e6" stroke-width="1.5"/>
<circle cx="250.0" cy="267.89" r="75.4" fill="#5677e1" fill-opacity="0.21" stroke="#5677e1" stroke-width="1.5"/>
<circle cx="250.0" cy="267.89" r="56.5" fill="#4a7dd7" fill-opacity="0.21" stroke="#4a7dd7" stroke-width="1.5"/>
<circle cx="250.0" cy="267.89" r="37.7" fill="#3d84cb" fill-opacity="0.20" stroke="#3d84cb" stroke-width="1.5"/>
<circle cx="250.0" cy="267.89" r="18.8" fill="#308bbd" fill-opacity="0.20" stroke="#308bbd" stroke-width="1.5"/>
<line x1="250.0" y1="267.89" x2="443.1" y2="267.9" stroke="#5028c8" stroke-width="2.57" opacity="0.30"/>
<line x1="250.0" y1="267.89" x2="426.4" y2="346.4" stroke="#612fb7" stroke-width="2.57" opacity="0.33"/>
<line x1="250.0" y1="267.89" x2="379.2" y2="411.4" stroke="#7237a6" stroke-width="2.57" opacity="0.35"/>
<line x1="250.0" y1="267.89" x2="309.7" y2="451.5" stroke="#833f95" stroke-width="2.57" opacity="0.38"/>
<line x1="250.0" y1="267.89" x2="229.8" y2="459.9" stroke="#944784" stroke-width="2.57" opacity="0.41"/>
<line x1="250.0" y1="267.89" x2="153.4" y2="435.1" stroke="#a54f73" stroke-width="2.57" opacity="0.43"/>
<line x1="250.0" y1="267.89" x2="93.8" y2="381.4" stroke="#b65662" stroke-width="2.57" opacity="0.46"/>
<line x1="250.0" y1="267.89" x2="61.1" y2="308.0" stroke="#c75e51" stroke-width="2.57" opacity="0.49"/>
<line x1="250.0" y1="267.89" x2="61.1" y2="227.7" stroke="#d86640" stroke-width="2.57" opacity="0.51"/>
<line x1="250.0" y1="267.89" x2="93.8" y2="154.4" stroke="#e96e2f" stroke-width="2.57" opacity="0.54"/>
<line x1="250.0" y1="267.89" x2="153.4" y2="100.7" stroke="#fa761e" stroke-width="2.57" opacity="0.57"/>
<line x1="250.0" y1="267.89" x2="229.8" y2="75.8" stroke="#ff7e0d" stroke-width="2.57" opacity="0.59"/>
<line x1="250.0" y1="267.89" x2="309.7" y2="84.2" stroke="#ff8500" stroke-width="2.57" opacity="0.62"/>
<line x1="250.0" y1="267.89" x2="379.2" y2="124.4" stroke="#ff8d00" stroke-width="2.57" opacity="0.65"/>
<line x1="250.0" y1="267.89" x2="426.4" y2="189.3" stroke="#ff9500" stroke-width="2.57" opacity="0.67"/>
<line x1="250.0" y1="267.89" x2="443.1" y2="267.9" stroke="#5e21e2" stroke-width="2.57" opacity="0.23"/>
<line x1="250.0" y1="267.89" x2="420.6" y2="358.4" stroke="#7228ce" stroke-width="2.57" opacity="0.25"/>
<line x1="250.0" y1="267.89" x2="358.2" y2="427.8" stroke="#8630ba" stroke-width="2.57" opacity="0.28"/>
<line x1="250.0" y1="267.89" x2="270.6" y2="459.9" stroke="#9a38a6" stroke-width="2.57" opacity="0.30"/>
<line x1="250.0" y1="267.89" x2="178.2" y2="447.1" stroke="#ae4092" stroke-width="2.57" opacity="0.32"/>
<line x1="250.0" y1="267.89" x2="102.5" y2="392.5" stroke="#c2487e" stroke-width="2.57" opacity="0.35"/>
<line x1="250.0" y1="267.89" x2="61.3" y2="308.8" stroke="#d64f6a" stroke-width="2.57" opacity="0.37"/>
<line x1="250.0" y1="267.89" x2="64.1" y2="215.6" stroke="#ea5756" stroke-width="2.57" opacity="0.39"/>
<line x1="250.0" y1="267.89" x2="110.3" y2="134.5" stroke="#fe5f42" stroke-width="2.57" opacity="0.42"/>
<line x1="250.0" y1="267.89" x2="189.2" y2="84.6" stroke="#112672e" stroke-width="2.57" opacity="0.44"/>
<line x1="250.0" y1="267.89" x2="282.2" y2="77.5" stroke="#1266f1a" stroke-width="2.57" opacity="0.46"/>
<line x1="250.0" y1="267.89" x2="367.7" y2="114.8" stroke="#13a7606" stroke-width="2.57" opacity="0.49"/>
<line x1="250.0" y1="267.89" x2="425.8" y2="187.9" stroke="#13f7e00" stroke-width="2.57" opacity="0.51"/>
<line x1="250.0" y1="267.89" x2="442.8" y2="279.6" stroke="#13f8600" stroke-width="2.57" opacity="0.53"/>
<line x1="250.0" y1="267.89" x2="414.8" y2="368.6" stroke="#13f8e00" stroke-width="2.57" opacity="0.56"/>
<circle cx="306.5" cy="267.9" r="3.0" fill="#adedd8" fill-opacity="0.6"/>
<circle cx="363.1" cy="267.9" r="3.0" fill="#adedd8" fill-opacity="0.6"/>
<circle cx="419.6" cy="267.9" r="3.0" fill="#adedd8" fill-opacity="0.6"/>
<circle cx="267.5" cy="321.7" r="3.0" fill="#adedd8" fill-opacity="0.6"/>
<circle cx="284.9" cy="375.4" r="3.0" fill="#adedd8" fill-opacity="0.6"/>
<circle cx="302.4" cy="429.2" r="3.0" fill="#adedd8" fill-opacity="0.6"/>
<circle cx="204.3" cy="301.1" r="3.0" fill="#adedd8" fill-opacity="0.6"/>
<circle cx="158.5" cy="334.3" r="3.0" fill="#adedd8" fill-opacity="0.6"/>
<circle cx="112.8" cy="367.6" r="3.0" fill="#adedd8" fill-opacity="0.6"/>
<circle cx="204.3" cy="234.7" r="3.0" fill="#adedd8" fill-opacity="0.6"/>
<circle cx="158.5" cy="201.4" r="3.0" fill="#adedd8" fill-opacity="0.6"/>
<circle cx="112.8" cy="168.2" r="3.0" fill="#adedd8" fill-opacity="0.6"/>
<circle cx="267.5" cy="214.1" r="3.0" fill="#adedd8" fill-opacity="0.6"/>
<circle cx="284.9" cy="160.4" r="3.0" fill="#adedd8" fill-opacity="0.6"/>
<circle cx="302.4" cy="106.6" r="3.0" fill="#adedd8" fill-opacity="0.6"/>
<circle cx="250.0" cy="267.89" r="226.1" fill="#e53ccd" fill-opacity="0.20" stroke="#e53ccd" stroke-width="1.5"/>
<circle cx="250.0" cy="267.89" r="207.3" fill="#d444e0" fill-opacity="0.20" stroke="#d444e0" stroke-width="1.5"/>
<circle cx="250.0" cy="267.89" r="188.4" fill="#c34cf2" fill-opacity="0.19" stroke="#c34cf2" stroke-width="1.5"/>
<circle cx="250.0" cy="267.89" r="169.6" fill="#b355102" fill-opacity="0.19" stroke="#b355102" stroke-width="1.5"/>
<circle cx="250.0" cy="267.89" r="150.7" fill="#a25d10d" fill-opacity="0.18" stroke="#a25d10d" stroke-width="1.5"/>
<circle cx="250.0" cy="267.89" r="131.9" fill="#9265115" fill-opacity="0.18" stroke="#9265115" stroke-width="1.5"/>
<circle cx="250.0" cy="267.89" r="113.1" fill="#816e118" fill-opacity="0.17" stroke="#816e118" stroke-width="1.5"/>
<circle cx="250.0" cy="267.89" r="94.2" fill="#7076115" fill-opacity="0.17" stroke="#7076115" stroke-width="1.5"/>
<circle cx="250.0" cy="267.89" r="75.4" fill="#607e10d" fill-opacity="0.17" stroke="#607e10d" stroke-width="1.5"/>
<circle cx="250.0" cy="267.89" r="56.5" fill="#4f87102" fill-opacity="0.16" stroke="#4f87102" stroke-width="1.5"/>
<circle cx="250.0" cy="267.89" r="37.7" fill="#3f8ff2" fill-opacity="0.16" stroke="#3f8ff2" stroke-width="1.5"/>
<circle cx="250.0" cy="267.89" r="18.8" fill="#2e97e0" fill-opacity="0.15" stroke="#2e97e0" stroke-width="1.5"/>
<circle cx="344.2" cy="267.9" r="3.0" fill="#aad6ff" fill-opacity="0.6"/>
<circle cx="381.9" cy="267.9" r="3.0" fill="#aad6ff" fill-opacity="0.6"/>
<circle cx="419.6" cy="267.9" r="3.0" fill="#aad6ff" fill-opacity="0.6"/>
<circle cx="457.3" cy="267.9" r="3.0" fill="#aad6ff" fill-opacity="0.6"/>
<circle cx="264.7" cy="360.9" r="3.0" fill="#aad6ff" fill-opacity="0.6"/>
<circle cx="270.6" cy="398.2" r="3.0" fill="#aad6ff" fill-opacity="0.6"/>
<circle cx="276.5" cy="435.4" r="3.0" fill="#aad6ff" fill-opacity="0.6"/>
<circle cx="282.4" cy="472.6" r="3.0" fill="#aad6ff" fill-opacity="0.6"/>
<circle cx="160.4" cy="297.0" r="3.0" fill="#aad6ff" fill-opacity="0.6"/>
<circle cx="124.6" cy="308.7" r="3.0" fill="#aad6ff" fill-opacity="0.6"/>
<circle cx="88.7" cy="320.3" r="3.0" fill="#aad6ff" fill-opacity="0.6"/>
<circle cx="52.9" cy="331.9" r="3.0" fill="#aad6ff" fill-opacity="0.6"/>
<circle cx="306.5" cy="267.9" r="3.0" fill="#a0c3c8" fill-opacity="0.6"/>
<circle cx="344.2" cy="267.9" r="3.0" fill="#a0c3c8" fill-opacity="0.6"/>
<circle cx="381.9" cy="267.9" r="3.0" fill="#a0c3c8" fill-opacity="0.6"/>
<circle cx="419.6" cy="267.9" r="3.0" fill="#a0c3c8" fill-opacity="0.6"/>
<circle cx="457.3" cy="267.9" r="3.0" fill="#a0c3c8" fill-opacity="0.6"/>
<circle cx="296.0" cy="300.7" r="3.0" fill="#a0c3c8" fill-opacity="0.6"/>
<circle cx="326.7" cy="322.6" r="3.0" fill="#a0c3c8" fill-opacity="0.6"/>
<circle cx="357.4" cy="344.5" r="3.0" fill="#a0c3c8" fill-opacity="0.6"/>
<circle cx="388.0" cy="366.4" r="3.0" fill="#a0c3c8" fill-opacity="0.6"/>
<circle cx="418.7" cy="388.3" r="3.0" fill="#a0c3c8" fill-opacity="0.6"/>
<circle cx="268.4" cy="321.4" r="3.0" fill="#a0c3c8" fill-opacity="0.6"/>
<circle cx="280.6" cy="357.0" r="3.0" fill="#a0c3c8" fill-opacity="0.6"/>
<circle cx="292.9" cy="392.6" r="3.0" fill="#a0c3c8" fill-opacity="0.6"/>
<circle cx="305.1" cy="428.3" r="3.0" fill="#a0c3c8" fill-opacity="0.6"/>
<circle cx="317.3" cy="463.9" r="3.0" fill="#a0c3c8" fill-opacity="0.6"/>
<circle cx="233.9" cy="322.1" r="3.0" fill="#a0c3c8" fill-opacity="0.6"/>
<circle cx="223.1" cy="358.2" r="3.0" fill="#a0c3c8" fill-opacity="0.6"/>
<circle cx="212.4" cy="394.3" r="3.0" fill="#a0c3c8" fill-opacity="0.6"/>
<circle cx="201.7" cy="430.4" r="3.0" fill="#a0c3c8" fill-opacity="0.6"/>
<circle cx="190.9" cy="466.6" r="3.0" fill="#a0c3c8" fill-opacity="0.6"/>
<circle cx="205.4" cy="302.6" r="3.0" fill="#a0c3c8" fill-opacity="0.6"/>
<circle cx="175.7" cy="325.8" r="3.0" fill="#a0c3c8" fill-opacity="0.6"/>
<circle cx="145.9" cy="349.0" r="3.0" fill="#a0c3c8" fill-opacity="0.6"/>
<circle cx="116.2" cy="372.1" r="3.0" fill="#a0c3c8" fill-opacity="0.6"/>
<circle cx="86.5" cy="395.3" r="3.0" fill="#a0c3c8" fill-opacity="0.6"/>
<circle cx="193.5" cy="270.3" r="3.0" fill="#a0c3c8" fill-opacity="0.6"/>
<circle cx="155.9" cy="271.8" r="3.0" fill="#a0c3c8" fill-opacity="0.6"/>
<circle cx="118.2" cy="273.4" r="3.0" fill="#a0c3c8" fill-opacity="0.6"/>
<circle cx="80.6" cy="275.0" r="3.0" fill="#a0c3c8" fill-opacity="0.6"/>
<circle cx="42.9" cy="276.6" r="3.0" fill="#a0c3c8" fill-opacity="0.6"/>
<circle cx="202.7" cy="237.0" r="3.0" fill="#a0c3c8" fill-opacity="0.6"/>
<circle cx="171.1" cy="216.4" r="3.0" fill="#a0c3c8" fill-opacity="0.6"/>
<circle cx="139.5" cy="195.8" r="3.0" fill="#a0c3c8" fill-opacity="0.6"/>
<circle cx="108.0" cy="175.2" r="3.0" fill="#a0c3c8" fill-opacity="0.6"/>
<circle cx="76.4" cy="154.6" r="3.0" fill="#a0c3c8" fill-opacity="0.6"/>
<circle cx="229.4" cy="215.2" r="3.0" fill="#a0c3c8" fill-opacity="0.6"/>
<circle cx="215.7" cy="180.1" r="3.0" fill="#a0c3c8" fill-opacity="0.6"/>
<circle cx="202.0" cy="145.0" r="3.0" fill="#a0c3c8" fill-opacity="0.6"/>
<circle cx="188.2" cy="109.9" r="3.0" fill="#a0c3c8" fill-opacity="0.6"/>
<circle cx="174.5" cy="74.9" r="3.0" fill="#a0c3c8" fill-opacity="0.6"/>
<circle cx="287.7" cy="267.9" r="3.0" fill="#cbe6ea" fill-opacity="0.6"/>
<circle cx="325.4" cy="267.9" r="3.0" fill="#cbe6ea" fill-opacity="0.6"/>
<circle cx="363.1" cy="267.9" r="3.0" fill="#cbe6ea" fill-opacity="0.6"/>
<circle cx="400.7" cy="267.9" r="3.0" fill="#cbe6ea" fill-opacity="0.6"/>
<circle cx="438.4" cy="267.9" r="3.0" fill="#cbe6ea" fill-opacity="0.6"/>
<circle cx="272.4" cy="298.2" r="3.0" fill="#cbe6ea" fill-opacity="0.6"/>
<circle cx="294.8" cy="328.5" r="3.0" fill="#cbe6ea" fill-opacity="0.6"/>
<circle cx="317.2" cy="358.8" r="3.0" fill="#cbe6ea" fill-opacity="0.6"/>
<circle cx="339.6" cy="389.1" r="3.0" fill="#cbe6ea" fill-opacity="0.6"/>
<circle cx="362.0" cy="419.4" r="3.0" fill="#cbe6ea" fill-opacity="0.6"/>
<circle cx="239.0" cy="303.9" r="3.0" fill="#cbe6ea" fill-opacity="0.6"/>
<circle cx="227.9" cy="340.0" r="3.0" fill="#cbe6ea" fill-opacity="0.6"/>
<circle cx="216.9" cy="376.0" r="3.0" fill="#cbe6ea" fill-opacity="0.6"/>
<circle cx="205.8" cy="412.0" r="3.0" fill="#cbe6ea" fill-opacity="0.6"/>
<circle cx="194.8" cy="448.1" r="3.0" fill="#cbe6ea" fill-opacity="0.6"/>
<circle cx="214.5" cy="280.4" r="3.0" fill="#cbe6ea" fill-opacity="0.6"/>
<circle cx="178.9" cy="293.0" r="3.0" fill="#cbe6ea" fill-opacity="0.6"/>
<circle cx="143.4" cy="305.5" r="3.0" fill="#cbe6ea" fill-opacity="0.6"/>
<circle cx="107.8" cy="318.1" r="3.0" fill="#cbe6ea" fill-opacity="0.6"/>
<circle cx="72.3" cy="330.6" r="3.0" fill="#cbe6ea" fill-opacity="0.6"/>
<circle cx="218.8" cy="246.8" r="3.0" fill="#cbe6ea" fill-opacity="0.6"/>
<circle cx="187.6" cy="225.7" r="3.0" fill="#cbe6ea" fill-opacity="0.6"/>
<circle cx="156.4" cy="204.5" r="3.0" fill="#cbe6ea" fill-opacity="0.6"/>
<circle cx="125.1" cy="183.4" r="3.0" fill="#cbe6ea" fill-opacity="0.6"/>
<circle cx="93.9" cy="162.3" r="3.0" fill="#cbe6ea" fill-opacity="0.6"/>
<circle cx="248.4" cy="230.2" r="3.0" fill="#cbe6ea" fill-opacity="0.6"/>
<circle cx="246.8" cy="192.6" r="3.0" fill="#cbe6ea" fill-opacity="0.6"/>
<circle cx="245.3" cy="154.9" r="3.0" fill="#cbe6ea" fill-opacity="0.6"/>
<circle cx="243.7" cy="117.3" r="3.0" fill="#cbe6ea" fill-opacity="0.6"/>
<circle cx="242.1" cy="79.6" r="3.0" fill="#cbe6ea" fill-opacity="0.6"/>
<circle cx="279.3" cy="244.2" r="3.0" fill="#cbe6ea" fill-opacity="0.6"/>
<circle cx="308.7" cy="220.6" r="3.0" fill="#cbe6ea" fill-opacity="0.6"/>
<circle cx="338.0" cy="196.9" r="3.0" fill="#cbe6ea" fill-opacity="0.6"/>
<circle cx="367.4" cy="173.3" r="3.0" fill="#cbe6ea" fill-opacity="0.6"/>
<circle cx="396.7" cy="149.6" r="3.0" fill="#cbe6ea" fill-opacity="0.6"/>
<circle cx="286.5" cy="277.4" r="3.0" fill="#cbe6ea" fill-opacity="0.6"/>
<circle cx="322.9" cy="286.9" r="3.0" fill="#cbe6ea" fill-opacity="0.6"/>
<circle cx="359.4" cy="296.5" r="3.0" fill="#cbe6ea" fill-opacity="0.6"/>
<circle cx="395.9" cy="306.0" r="3.0" fill="#cbe6ea" fill-opacity="0.6"/>
<circle cx="432.3" cy="315.5" r="3.0" fill="#cbe6ea" fill-opacity="0.6"/>
<circle cx="287.7" cy="267.9" r="3.0" fill="#add9b9" fill-opacity="0.6"/>
<circle cx="344.2" cy="267.9" r="3.0" fill="#add9b9" fill-opacity="0.6"/>
<circle cx="400.7" cy="267.9" r="3.0" fill="#add9b9" fill-opacity="0.6"/>
<circle cx="457.3" cy="267.9" r="3.0" fill="#add9b9" fill-opacity="0.6"/>
<circle cx="265.5" cy="302.3" r="3.0" fill="#add9b9" fill-opacity="0.6"/>
<circle cx="288.7" cy="353.8" r="3.0" fill="#add9b9" fill-opacity="0.6"/>
<circle cx="311.9" cy="405.3" r="3.0" fill="#add9b9" fill-opacity="0.6"/>
<circle cx="335.1" cy="456.9" r="3.0" fill="#add9b9" fill-opacity="0.6"/>
<circle cx="225.0" cy="296.1" r="3.0" fill="#add9b9" fill-opacity="0.6"/>
<circle cx="187.5" cy="338.4" r="3.0" fill="#add9b9" fill-opacity="0.6"/>
<circle cx="150.1" cy="380.8" r="3.0" fill="#add9b9" fill-opacity="0.6"/>
<circle cx="112.6" cy="423.1" r="3.0" fill="#add9b9" fill-opacity="0.6"/>
<circle cx="214.0" cy="256.7" r="3.0" fill="#add9b9" fill-opacity="0.6"/>
<circle cx="160.0" cy="239.9" r="3.0" fill="#add9b9" fill-opacity="0.6"/>
<circle cx="106.1" cy="223.1" r="3.0" fill="#add9b9" fill-opacity="0.6"/>
<circle cx="52.1" cy="206.3" r="3.0" fill="#add9b9" fill-opacity="0.6"/>
<circle cx="306.5" cy="267.9" r="3.0" fill="#a9cfff" fill-opacity="0.6"/>
<circle cx="344.2" cy="267.9" r="3.0" fill="#a9cfff" fill-opacity="0.6"/>
<circle cx="381.9" cy="267.9" r="3.0" fill="#a9cfff" fill-opacity="0.6"/>
<circle cx="419.6" cy="267.9" r="3.0" fill="#a9cfff" fill-opacity="0.6"/>
<circle cx="457.3" cy="267.9" r="3.0" fill="#a9cfff" fill-opacity="0.6"/>
<circle cx="285.9" cy="311.6" r="3.0" fill="#a9cfff" fill-opacity="0.6"/>
<circle cx="309.8" cy="340.7" r="3.0" fill="#a9cfff" fill-opacity="0.6"/>
<circle cx="333.7" cy="369.9" r="3.0" fill="#a9cfff" fill-opacity="0.6"/>
<circle cx="357.6" cy="399.0" r="3.0" fill="#a9cfff" fill-opacity="0.6"/>
<circle cx="381.5" cy="428.2" r="3.0" fill="#a9cfff" fill-opacity="0.6"/>
<circle cx="238.9" cy="323.3" r="3.0" fill="#a9cfff" fill-opacity="0.6"/>
<circle cx="231.6" cy="360.3" r="3.0" fill="#a9cfff" fill-opacity="0.6"/>
<circle cx="224.2" cy="397.2" r="3.0" fill="#a9cfff" fill-opacity="0.6"/>
<circle cx="216.8" cy="434.2" r="3.0" fill="#a9cfff" fill-opacity="0.6"/>
<circle cx="209.5" cy="471.2" r="3.0" fill="#a9cfff" fill-opacity="0.6"/>
<circle cx="200.1" cy="294.5" r="3.0" fill="#a9cfff" fill-opacity="0.6"/>
<circle cx="166.9" cy="312.2" r="3.0" fill="#a9cfff" fill-opacity="0.6"/>
<circle cx="133.6" cy="330.0" r="3.0" fill="#a9cfff" fill-opacity="0.6"/>
<circle cx="100.4" cy="347.7" r="3.0" fill="#a9cfff" fill-opacity="0.6"/>
<circle cx="67.1" cy="365.5" r="3.0" fill="#a9cfff" fill-opacity="0.6"/>
<circle cx="197.8" cy="246.2" r="3.0" fill="#a9cfff" fill-opacity="0.6"/>
<circle cx="163.0" cy="231.7" r="3.0" fill="#a9cfff" fill-opacity="0.6"/>
<circle cx="128.2" cy="217.3" r="3.0" fill="#a9cfff" fill-opacity="0.6"/>
<circle cx="93.4" cy="202.8" r="3.0" fill="#a9cfff" fill-opacity="0.6"/>
<circle cx="58.6" cy="188.4" r="3.0" fill="#a9cfff" fill-opacity="0.6"/>
<circle cx="233.7" cy="213.8" r="3.0" fill="#a9cfff" fill-opacity="0.6"/>
<circle cx="222.8" cy="177.7" r="3.0" fill="#a9cfff" fill-opacity="0.6"/>
<circle cx="211.9" cy="141.6" r="3.0" fill="#a9cfff" fill-opacity="0.6"/>
<circle cx="201.0" cy="105.5" r="3.0" fill="#a9cfff" fill-opacity="0.6"/>
<circle cx="190.1" cy="69.5" r="3.0" fill="#a9cfff" fill-opacity="0.6"/>
<circle cx="281.5" cy="220.9" r="3.0" fill="#a9cfff" fill-opacity="0.6"/>
<circle cx="302.5" cy="189.6" r="3.0" fill="#a9cfff" fill-opacity="0.6"/>
<circle cx="323.5" cy="158.3" r="3.0" fill="#a9cfff" fill-opacity="0.6"/>
<circle cx="344.4" cy="127.0" r="3.0" fill="#a9cfff" fill-opacity="0.6"/>
<circle cx="365.4" cy="95.7" r="3.0" fill="#a9cfff" fill-opacity="0.6"/>
<circle cx="306.3" cy="262.5" r="3.0" fill="#a9cfff" fill-opacity="0.6"/>
<circle cx="343.8" cy="258.8" r="3.0" fill="#a9cfff" fill-opacity="0.6"/>
<circle cx="381.3" cy="255.2" r="3.0" fill="#a9cfff" fill-opacity="0.6"/>
<circle cx="418.8" cy="251.6" r="3.0" fill="#a9cfff" fill-opacity="0.6"/>
<circle cx="456.3" cy="248.0" r="3.0" fill="#a9cfff" fill-opacity="0.6"/>
<circle cx="306.5" cy="267.9" r="3.0" fill="#90bfde" fill-opacity="0.6"/>
<circle cx="344.2" cy="267.9" r="3.0" fill="#90bfde" fill-opacity="0.6"/>
<circle cx="381.9" cy="267.9" r="3.0" fill="#90bfde" fill-opacity="0.6"/>
<circle cx="419.6" cy="267.9" r="3.0" fill="#90bfde" fill-opacity="0.6"/>
<circle cx="457.3" cy="267.9" r="3.0" fill="#90bfde" fill-opacity="0.6"/>
<circle cx="274.7" cy="318.7" r="3.0" fill="#90bfde" fill-opacity="0.6"/>
<circle cx="291.2" cy="352.6" r="3.0" fill="#90bfde" fill-opacity="0.6"/>
<circle cx="307.7" cy="386.5" r="3.0" fill="#90bfde" fill-opacity="0.6"/>
<circle cx="324.1" cy="420.4" r="3.0" fill="#90bfde" fill-opacity="0.6"/>
<circle cx="340.6" cy="454.3" r="3.0" fill="#90bfde" fill-opacity="0.6"/>
<circle cx="215.1" cy="312.3" r="3.0" fill="#90bfde" fill-opacity="0.6"/>
<circle cx="191.8" cy="342.0" r="3.0" fill="#90bfde" fill-opacity="0.6"/>
<circle cx="168.5" cy="371.6" r="3.0" fill="#90bfde" fill-opacity="0.6"/>
<circle cx="145.2" cy="401.2" r="3.0" fill="#90bfde" fill-opacity="0.6"/>
<circle cx="121.9" cy="430.9" r="3.0" fill="#90bfde" fill-opacity="0.6"/>
<circle cx="194.8" cy="255.9" r="3.0" fill="#90bfde" fill-opacity="0.6"/>
<circle cx="157.9" cy="247.9" r="3.0" fill="#90bfde" fill-opacity="0.6"/>
<circle cx="121.1" cy="239.9" r="3.0" fill="#90bfde" fill-opacity="0.6"/>
<circle cx="84.3" cy="231.9" r="3.0" fill="#90bfde" fill-opacity="0.6"/>
<circle cx="47.4" cy="223.9" r="3.0" fill="#90bfde" fill-opacity="0.6"/>
<circle cx="236.6" cy="213.0" r="3.0" fill="#90bfde" fill-opacity="0.6"/>
<circle cx="227.7" cy="176.3" r="3.0" fill="#90bfde" fill-opacity="0.6"/>
<circle cx="218.8" cy="139.7" r="3.0" fill="#90bfde" fill-opacity="0.6"/>
<circle cx="209.9" cy="103.1" r="3.0" fill="#90bfde" fill-opacity="0.6"/>
<circle cx="201.0" cy="66.5" r="3.0" fill="#90bfde" fill-opacity="0.6"/>
<circle cx="293.6" cy="231.9" r="3.0" fill="#90bfde" fill-opacity="0.6"/>
<circle cx="322.6" cy="207.8" r="3.0" fill="#90bfde" fill-opacity="0.6"/>
<circle cx="351.6" cy="183.8" r="3.0" fill="#90bfde" fill-opacity="0.6"/>
<circle cx="380.7" cy="159.8" r="3.0" fill="#90bfde" fill-opacity="0.6"/>
<circle cx="409.7" cy="135.8" r="3.0" fill="#90bfde" fill-opacity="0.6"/>
<circle cx="301.4" cy="291.3" r="3.0" fill="#90bfde" fill-opacity="0.6"/>
<circle cx="335.7" cy="306.9" r="3.0" fill="#90bfde" fill-opacity="0.6"/>
<circle cx="370.0" cy="322.5" r="3.0" fill="#90bfde" fill-opacity="0.6"/>
<circle cx="404.3" cy="338.2" r="3.0" fill="#90bfde" fill-opacity="0.6"/>
<circle cx="438.6" cy="353.8" r="3.0" fill="#90bfde" fill-opacity="0.6"/>
<circle cx="251.4" cy="324.4" r="3.0" fill="#90bfde" fill-opacity="0.6"/>
<circle cx="252.4" cy="362.1" r="3.0" fill="#90bfde" fill-opacity="0.6"/>
<circle cx="253.3" cy="399.8" r="3.0" fill="#90bfde" fill-opacity="0.6"/>
<circle cx="254.3" cy="437.4" r="3.0" fill="#90bfde" fill-opacity="0.6"/>
<circle cx="255.2" cy="475.1" r="3.0" fill="#90bfde" fill-opacity="0.6"/>
<circle cx="250.0" cy="267.89" r="226.1" fill="#f05bd4" fill-opacity="0.21" stroke="#f05bd4" stroke-width="1.5"/>
<circle cx="250.0" cy="267.89" r="207.3" fill="#df63e0" fill-opacity="0.21" stroke="#df63e0" stroke-width="1.5"/>
<circle cx="250.0" cy="267.89" r="188.4" fill="#cf6beb" fill-opacity="0.20" stroke="#cf6beb" stroke-width="1.5"/>
<circle cx="250.0" cy="267.89" r="169.6" fill="#be73f5" fill-opacity="0.20" stroke="#be73f5" stroke-width="1.5"/>
<circle cx="250.0" cy="267.89" r="150.7" fill="#ae7bfc" fill-opacity="0.20" stroke="#ae7bfc" stroke-width="1.5"/>
<circle cx="250.0" cy="267.89" r="131.9" fill="#9d83101" fill-opacity="0.19" stroke="#9d83101" stroke-width="1.5"/>
<circle cx="250.0" cy="267.89" r="113.1" fill="#8d8b103" fill-opacity="0.19" stroke="#8d8b103" stroke-width="1.5"/>
<circle cx="250.0" cy="267.89" r="94.2" fill="#7d93101" fill-opacity="0.19" stroke="#7d93101" stroke-width="1.5"/>
<circle cx="250.0" cy="267.89" r="75.4" fill="#6c9bfc" fill-opacity="0.18" stroke="#6c9bfc" stroke-width="1.5"/>
<circle cx="250.0" cy="267.89" r="56.5" fill="#5ca3f5" fill-opacity="0.18" stroke="#5ca3f5" stroke-width="1.5"/>
<circle cx="250.0" cy="267.89" r="37.7" fill="#4babeb" fill-opacity="0.18" stroke="#4babeb" stroke-width="1.5"/>
<circle cx="250.0" cy="267.89" r="18.8" fill="#3bb3e0" fill-opacity="0.17" stroke="#3bb3e0" stroke-width="1.5"/>
<line x1="250.0" y1="267.89" x2="443.1" y2="267.9" stroke="#402de5" stroke-width="2.57" opacity="0.38"/>
<line x1="250.0" y1="267.89" x2="416.6" y2="365.5" stroke="#4f35d6" stroke-width="2.57" opacity="0.40"/>
<line x1="250.0" y1="267.89" x2="344.4" y2="436.3" stroke="#5e3ec7" stroke-width="2.57" opacity="0.42"/>
<line x1="250.0" y1="267.89" x2="246.4" y2="461.0" stroke="#6d46b8" stroke-width="2.57" opacity="0.44"/>
<line x1="250.0" y1="267.89" x2="149.3" y2="432.6" stroke="#7c4fa9" stroke-width="2.57" opacity="0.47"/>
<line x1="250.0" y1="267.89" x2="79.8" y2="359.1" stroke="#8c5899" stroke-width="2.57" opacity="0.49"/>
<line x1="250.0" y1="267.89" x2="57.0" y2="260.6" stroke="#9b608a" stroke-width="2.57" opacity="0.51"/>
<line x1="250.0" y1="267.89" x2="87.2" y2="164.1" stroke="#aa697b" stroke-width="2.57" opacity="0.53"/>
<line x1="250.0" y1="267.89" x2="162.0" y2="96.0" stroke="#b9716c" stroke-width="2.57" opacity="0.55"/>
<line x1="250.0" y1="267.89" x2="260.9" y2="75.1" stroke="#c87a5d" stroke-width="2.57" opacity="0.57"/>
<line x1="250.0" y1="267.89" x2="356.9" y2="107.0" stroke="#d8834d" stroke-width="2.57" opacity="0.59"/>
<line x1="250.0" y1="267.89" x2="423.5" y2="183.1" stroke="#dd8c3e" stroke-width="2.57" opacity="0.61"/>
<line x1="250.0" y1="267.89" x2="442.6" y2="282.4" stroke="#dd942f" stroke-width="2.57" opacity="0.64"/>
<line x1="250.0" y1="267.89" x2="408.8" y2="377.8" stroke="#dd9d20" stroke-width="2.57" opacity="0.66"/>
<line x1="250.0" y1="267.89" x2="331.5" y2="443.0" stroke="#dda511" stroke-width="2.57" opacity="0.68"/>
<line x1="250.0" y1="267.89" x2="443.1" y2="267.9" stroke="#2b32112" stroke-width="2.57" opacity="0.26"/>
<line x1="250.0" y1="267.89" x2="423.9" y2="351.9" stroke="#3637107" stroke-width="2.57" opacity="0.28"/>
<line x1="250.0" y1="267.89" x2="369.9" y2="419.2" stroke="#413cfc" stroke-width="2.57" opacity="0.31"/>
<line x1="250.0" y1="267.89" x2="292.1" y2="456.3" stroke="#4c42f1" stroke-width="2.57" opacity="0.33"/>
<line x1="250.0" y1="267.89" x2="205.9" y2="455.9" stroke="#5747e6" stroke-width="2.57" opacity="0.36"/>
<line x1="250.0" y1="267.89" x2="128.5" y2="418.0" stroke="#624cdb" stroke-width="2.57" opacity="0.38"/>
<line x1="250.0" y1="267.89" x2="75.3" y2="350.1" stroke="#6d52d0" stroke-width="2.57" opacity="0.41"/>
<line x1="250.0" y1="267.89" x2="56.9" y2="265.9" stroke="#7857c5" stroke-width="2.57" opacity="0.43"/>
<line x1="250.0" y1="267.89" x2="77.0" y2="182.0" stroke="#845db9" stroke-width="2.57" opacity="0.46"/>
<line x1="250.0" y1="267.89" x2="131.6" y2="115.3" stroke="#8f63ae" stroke-width="2.57" opacity="0.48"/>
<line x1="250.0" y1="267.89" x2="209.9" y2="79.0" stroke="#9a68a3" stroke-width="2.57" opacity="0.51"/>
<line x1="250.0" y1="267.89" x2="296.1" y2="80.4" stroke="#a56d98" stroke-width="2.57" opacity="0.53"/>
<line x1="250.0" y1="267.89" x2="373.1" y2="119.1" stroke="#b0738d" stroke-width="2.57" opacity="0.56"/>
<line x1="250.0" y1="267.89" x2="425.6" y2="187.5" stroke="#bb7882" stroke-width="2.57" opacity="0.58"/>
<line x1="250.0" y1="267.89" x2="443.1" y2="271.9" stroke="#c67d77" stroke-width="2.57" opacity="0.61"/>
<circle cx="250.0" cy="267.89" r="8.0" fill="#dcdba6" fill-opacity="0.9"/>
</svg>