<svg xmlns="http://www.w3.org/2000/svg" width="500" height="500" viewBox="0 0 500 500">
<rect width="500" height="500" fill="#004951"/>
<circle cx="363.1" cy="250.0" r="3.0" fill="#c8ffff" fill-opacity="0.6"/>
<circle cx="408.3" cy="250.0" r="3.0" fill="#c8ffff" fill-opacity="0.6"/>
<circle cx="453.5" cy="250.0" r="3.0" fill="#c8ffff" fill-opacity="0.6"/>
<circle cx="308.7" cy="346.6" r="3.0" fill="#c8ffff" fill-opacity="0.6"/>
<circle cx="332.2" cy="385.3" r="3.0" fill="#c8ffff" fill-opacity="0.6"/>
<circle cx="355.7" cy="423.9" r="3.0" fill="#c8ffff" fill-opacity="0.6"/>
<circle cx="197.9" cy="350.3" r="3.0" fill="#c8ffff" fill-opacity="0.6"/>
<circle cx="177.0" cy="390.5" r="3.0" fill="#c8ffff" fill-opacity="0.6"/>
<circle cx="156.2" cy="430.6" r="3.0" fill="#c8ffff" fill-opacity="0.6"/>
<circle cx="137.2" cy="257.5" r="3.0" fill="#c8ffff" fill-opacity="0.6"/>
<circle cx="92.1" cy="260.6" r="3.0" fill="#c8ffff" fill-opacity="0.6"/>
<circle cx="46.9" cy="263.6" r="3.0" fill="#c8ffff" fill-opacity="0.6"/>
<circle cx="185.0" cy="157.5" r="3.0" fill="#c8ffff" fill-opacity="0.6"/>
<circle cx="159.0" cy="120.5" r="3.0" fill="#c8ffff" fill-opacity="0.6"/>
<circle cx="133.0" cy="83.5" r="3.0" fill="#c8ffff" fill-opacity="0.6"/>
<circle cx="295.3" cy="146.4" r="3.0" fill="#c8ffff" fill-opacity="0.6"/>
<circle cx="313.4" cy="105.0" r="3.0" fill="#c8ffff" fill-opacity="0.6"/>
<circle cx="331.6" cy="63.5" r="3.0" fill="#c8ffff" fill-opacity="0.6"/>
<circle cx="250.0" cy="250.0" r="226.1" fill="#11414ae" fill-opacity="0.18" stroke="#11414ae" stroke-width="1.5"/>
<circle cx="250.0" cy="250.0" r="203.5" fill="#fc1cc8" fill-opacity="0.17" stroke="#fc1cc8" stroke-width="1.5"/>
<circle cx="250.0" cy="250.0" r="180.9" fill="#e424e1" fill-opacity="0.17" stroke="#e424e1" stroke-width="1.5"/>
<circle cx="250.0" cy="250.0" r="158.3" fill="#cc2cf4" fill-opacity="0.16" stroke="#cc2cf4" stroke-width="1.5"/>
<circle cx="250.0" cy="250.0" r="135.7" fill="#b434100" fill-opacity="0.16" stroke="#b434100" stroke-width="1.5"/>
<circle cx="250.0" cy="250.0" r="113.1" fill="#9d3c105" fill-opacity="0.15" stroke="#9d3c105" stroke-width="1.5"/>
<circle cx="250.0" cy="250.0" r="90.4" fill="#8544100" fill-opacity="0.14" stroke="#8544100" stroke-width="1.5"/>
<circle cx="250.0" cy="250.0" r="67.8" fill="#6d4df4" fill-opacity="0.14" stroke="#6d4df4" stroke-width="1.5"/>
<circle cx="250.0" cy="250.0" r="45.2" fill="#5555e1" fill-opacity="0.13" stroke="#5555e1" stroke-width="1.5"/>
<circle cx="250.0" cy="250.0" r="22.6" fill="#3d5dc8" fill-opacity="0.13" stroke="#3d5dc8" stroke-width="1.5"/>
<circle cx="295.2" cy="250.0" r="3.0" fill="#ece9cc" fill-opacity="0.6"/>
<circle cx="340.4" cy="250.0" r="3.0" fill="#ece9cc" fill-opacity="0.6"/>
<circle cx="385.7" cy="250.0" r="3.0" fill="#ece9cc" fill-opacity="0.6"/>
<circle cx="430.9" cy="250.0" r="3.0" fill="#ece9cc" fill-opacity="0.6"/>
<circle cx="279.0" cy="284.7" r="3.0" fill="#ece9cc" fill-opacity="0.6"/>
<circle cx="307.9" cy="319.5" r="3.0" fill="#ece9cc" fill-opacity="0.6"/>
<circle cx="336.9" cy="354.2" r="3.0" fill="#ece9cc" fill-opacity="0.6"/>
<circle cx="365.9" cy="388.9" r="3.0" fill="#ece9cc" fill-opacity="0.6"/>
<circle cx="241.9" cy="294.5" r="3.0" fill="#ece9cc" fill-opacity="0.6"/>
<circle cx="233.8" cy="339.0" r="3.0" fill="#ece9cc" fill-opacity="0.6"/>
<circle cx="225.6" cy="383.5" r="3.0" fill="#ece9cc" fill-opacity="0.6"/>
<circle cx="217.5" cy="428.0" r="3.0" fill="#ece9cc" fill-opacity="0.6"/>
<circle cx="210.6" cy="272.3" r="3.0" fill="#ece9cc" fill-opacity="0.6"/>
<circle cx="171.3" cy="294.5" r="3.0" fill="#ece9cc" fill-opacity="0.6"/>
<circle cx="131.9" cy="316.8" r="3.0" fill="#ece9cc" fill-opacity="0.6"/>
<circle cx="92.5" cy="339.0" r="3.0" fill="#ece9cc" fill-opacity="0.6"/>
<circle cx="207.7" cy="234.0" r="3.0" fill="#ece9cc" fill-opacity="0.6"/>
<circle cx="165.4" cy="218.0" r="3.0" fill="#ece9cc" fill-opacity="0.6"/>
<circle cx="123.1" cy="202.0" r="3.0" fill="#ece9cc" fill-opacity="0.6"/>
<circle cx="80.8" cy="186.1" r="3.0" fill="#ece9cc" fill-opacity="0.6"/>
<circle cx="235.2" cy="207.3" r="3.0" fill="#ece9cc" fill-opacity="0.6"/>
<circle cx="220.4" cy="164.5" r="3.0" fill="#ece9cc" fill-opacity="0.6"/>
<circle cx="205.5" cy="121.8" r="3.0" fill="#ece9cc" fill-opacity="0.6"/>
<circle cx="190.7" cy="79.1" r="3.0" fill="#ece9cc" fill-opacity="0.6"/>
<circle cx="273.3" cy="211.3" r="3.0" fill="#ece9cc" fill-opacity="0.6"/>
<circle cx="296.7" cy="172.5" r="3.0" fill="#ece9cc" fill-opacity="0.6"/>
<circle cx="320.0" cy="133.8" r="3.0" fill="#ece9cc" fill-opacity="0.6"/>
<circle cx="343.3" cy="95.0" r="3.0" fill="#ece9cc" fill-opacity="0.6"/>
<circle cx="294.7" cy="243.1" r="3.0" fill="#ece9cc" fill-opacity="0.6"/>
<circle cx="339.4" cy="236.2" r="3.0" fill="#ece9cc" fill-opacity="0.6"/>
<circle cx="384.1" cy="229.3" r="3.0" fill="#ece9cc" fill-opacity="0.6"/>
<circle cx="428.8" cy="222.4" r="3.0" fill="#ece9cc" fill-opacity="0.6"/>
<circle cx="340.4" cy="250.0" r="3.0" fill="#a3ddff" fill-opacity="0.6"/>
<circle cx="385.7" cy="250.0" r="3.0" fill="#a3ddff" fill-opacity="0.6"/>
<circle cx="430.9" cy="250.0" r="3.0" fill="#a3ddff" fill-opacity="0.6"/>
<circle cx="280.6" cy="335.1" r="3.0" fill="#a3ddff" fill-opacity="0.6"/>
<circle cx="296.0" cy="377.7" r="3.0" fill="#a3ddff" fill-opacity="0.6"/>
<circle cx="311.3" cy="420.2" r="3.0" fill="#a3ddff" fill-opacity="0.6"/>
<circle cx="180.3" cy="307.7" r="3.0" fill="#a3ddff" fill-opacity="0.6"/>
<circle cx="145.5" cy="336.5" r="3.0" fill="#a3ddff" fill-opacity="0.6"/>
<circle cx="110.6" cy="365.3" r="3.0" fill="#a3ddff" fill-opacity="0.6"/>
<circle cx="172.1" cy="204.0" r="3.0" fill="#a3ddff" fill-opacity="0.6"/>
<circle cx="133.2" cy="180.9" r="3.0" fill="#a3ddff" fill-opacity="0.6"/>
<circle cx="94.3" cy="157.9" r="3.0" fill="#a3ddff" fill-opacity="0.6"/>
<circle cx="250.0" cy="250.0" r="226.1" fill="#bc41ae" fill-opacity="0.25" stroke="#bc41ae" stroke-width="1.5"/>
<circle cx="250.0" cy="250.0" r="203.5" fill="#ac49c0" fill-opacity="0.24" stroke="#ac49c0" stroke-width="1.5"/>
<circle cx="250.0" cy="250.0" r="180.9" fill="#9d51d0" fill-opacity="0.24" stroke="#9d51d0" stroke-width="1.5"/>
<circle cx="250.0" cy="250.0" r="158.3" fill="#8e59dd" fill-opacity="0.23" stroke="#8e59dd" stroke-width="1.5"/>
<circle cx="250.0" cy="250.0" r="135.7" fill="#7f61e6" fill-opacity="0.23" stroke="#7f61e6" stroke-width="1.5"/>
<circle cx="250.0" cy="250.0" r="113.1" fill="#7069e9" fill-opacity="0.22" stroke="#7069e9" stroke-width="1.5"/>
<circle cx="250.0" cy="250.0" r="90.4" fill="#6071e6" fill-opacity="0.21" stroke="#6071e6" stroke-width="1.5"/>
<circle cx="250.0" cy="250.0" r="67.8" fill="#5179dd" fill-opacity="0.21" stroke="#5179dd" stroke-width="1.5"/>
<circle cx="250.0" cy="250.0" r="45.2" fill="#4281d0" fill-opacity="0.20" stroke="#4281d0" stroke-width="1.5"/>
<circle cx="250.0" cy="250.0" r="22.6" fill="#3389c0" fill-opacity="0.20" stroke="#3389c0" stroke-width="1.5"/>
<line x1="250.0" y1="250.0" x2="443.1" y2="250.0" stroke="#5028c8" stroke-width="2.35" opacity="0.30"/>
<line x1="250.0" y1="250.0" x2="428.4" y2="323.9" stroke="#5f2fb9" stroke-width="2.35" opacity="0.33"/>
<line x1="250.0" y1="250.0" x2="386.5" y2="386.5" stroke="#6f37a9" stroke-width="2.35" opacity="0.35"/>
<line x1="250.0" y1="250.0" x2="323.9" y2="428.4" stroke="#7f3f99" stroke-width="2.35" opacity="0.38"/>
<line x1="250.0" y1="250.0" x2="250.0" y2="443.1" stroke="#8f4789" stroke-width="2.35" opacity="0.40"/>
<line x1="250.0" y1="250.0" x2="176.1" y2="428.4" stroke="#9f4f79" stroke-width="2.35" opacity="0.42"/>
<line x1="250.0" y1="250.0" x2="113.5" y2="386.5" stroke="#af5769" stroke-width="2.35" opacity="0.45"/>
<line x1="250.0" y1="250.0" x2="71.6" y2="323.9" stroke="#bf5f59" stroke-width="2.35" opacity="0.47"/>
<line x1="250.0" y1="250.0" x2="56.9" y2="250.0" stroke="#cf6749" stroke-width="2.35" opacity="0.50"/>
<line x1="250.0" y1="250.0" x2="71.6" y2="176.1" stroke="#df6f39" stroke-width="2.35" opacity="0.53"/>
<line x1="250.0" y1="250.0" x2="113.5" y2="113.5" stroke="#ef7729" stroke-width="2.35" opacity="0.55"/>
<line x1="250.0" y1="250.0" x2="176.1" y2="71.6" stroke="#ff7f19" stroke-width="2.35" opacity="0.57"/>
<line x1="250.0" y1="250.0" x2="250.0" y2="56.9" stroke="#ff8709" stroke-width="2.35" opacity="0.60"/>
<line x1="250.0" y1="250.0" x2="323.9" y2="71.6" stroke="#ff8f00" stroke-width="2.35" opacity="0.62"/>
<line x1="250.0" y1="250.0" x2="386.5" y2="113.5" stroke="#ff9700" stroke-width="2.35" opacity="0.65"/>
<line x1="250.0" y1="250.0" x2="428.4" y2="176.1" stroke="#ff9f00" stroke-width="2.35" opacity="0.68"/>
<circle cx="317.8" cy="250.0" r="3.0" fill="#a1ffbf" fill-opacity="0.6"/>
<circle cx="385.7" cy="250.0" r="3.0" fill="#a1ffbf" fill-opacity="0.6"/>
<circle cx="453.5" cy="250.0" r="3.0" fill="#a1ffbf" fill-opacity="0.6"/>
<circle cx="276.0" cy="312.7" r="3.0" fill="#a1ffbf" fill-opacity="0.6"/>
<circle cx="301.9" cy="375.3" r="3.0" fill="#a1ffbf" fill-opacity="0.6"/>
<circle cx="327.9" cy="438.0" r="3.0" fill="#a1ffbf" fill-opacity="0.6"/>
<circle cx="202.0" cy="298.0" r="3.0" fill="#a1ffbf" fill-opacity="0.6"/>
<circle cx="154.1" cy="345.9" r="3.0" fill="#a1ffbf" fill-opacity="0.6"/>
<circle cx="106.1" cy="393.9" r="3.0" fill="#a1ffbf" fill-opacity="0.6"/>
<circle cx="187.3" cy="224.0" r="3.0" fill="#a1ffbf" fill-opacity="0.6"/>
<circle cx="124.7" cy="198.1" r="3.0" fill="#a1ffbf" fill-opacity="0.6"/>
<circle cx="62.0" cy="172.1" r="3.0" fill="#a1ffbf" fill-opacity="0.6"/>
<circle cx="250.0" cy="182.2" r="3.0" fill="#a1ffbf" fill-opacity="0.6"/>
<circle cx="250.0" cy="114.3" r="3.0" fill="#a1ffbf" fill-opacity="0.6"/>
<circle cx="250.0" cy="46.5" r="3.0" fill="#a1ffbf" fill-opacity="0.6"/>
<circle cx="312.7" cy="224.0" r="3.0" fill="#a1ffbf" fill-opacity="0.6"/>
<circle cx="375.3" cy="198.1" r="3.0" fill="#a1ffbf" fill-opacity="0.6"/>
<circle cx="438.0" cy="172.1" r="3.0" fill="#a1ffbf" fill-opacity="0.6"/>
<circle cx="250.0" cy="250.0" r="226.1" fill="#da3ccd" fill-opacity="0.20" stroke="#da3ccd" stroke-width="1.5"/>
<circle cx="250.0" cy="250.0" r="203.5" fill="#c746e4" fill-opacity="0.20" stroke="#c746e4" stroke-width="1.5"/>
<circle cx="250.0" cy="250.0" r="180.9" fill="#b450f9" fill-opacity="0.19" stroke="#b450f9" stroke-width="1.5"/>
<circle cx="250.0" cy="250.0" r="158.3" fill="#a15a109" fill-opacity="0.18" stroke="#a15a109" stroke-width="1.5"/>
<circle cx="250.0" cy="250.0" r="135.7" fill="#8e64114" fill-opacity="0.18" stroke="#8e64114" stroke-width="1.5"/>
<circle cx="250.0" cy="250.0" r="113.1" fill="#7c6e118" fill-opacity="0.17" stroke="#7c6e118" stroke-width="1.5"/>
<circle cx="250.0" cy="250.0" r="90.4" fill="#6978114" fill-opacity="0.17" stroke="#6978114" stroke-width="1.5"/>
<circle cx="250.0" cy="250.0" r="67.8" fill="#5682109" fill-opacity="0.16" stroke="#5682109" stroke-width="1.5"/>
<circle cx="250.0" cy="250.0" r="45.2" fill="#438cf9" fill-opacity="0.16" stroke="#438cf9" stroke-width="1.5"/>
<circle cx="250.0" cy="250.0" r="22.6" fill="#3096e4" fill-opacity="0.15" stroke="#3096e4" stroke-width="1.5"/>
<circle cx="363.1" cy="250.0" r="3.0" fill="#aad6ff" fill-opacity="0.6"/>
<circle cx="408.3" cy="250.0" r="3.0" fill="#aad6ff" fill-opacity="0.6"/>
<circle cx="453.5" cy="250.0" r="3.0" fill="#aad6ff" fill-opacity="0.6"/>
<circle cx="277.5" cy="359.7" r="3.0" fill="#aad6ff" fill-opacity="0.6"/>
<circle cx="288.5" cy="403.5" r="3.0" fill="#aad6ff" fill-opacity="0.6"/>
<circle cx="299.4" cy="447.4" r="3.0" fill="#aad6ff" fill-opacity="0.6"/>
<circle cx="150.3" cy="303.3" r="3.0" fill="#aad6ff" fill-opacity="0.6"/>
<circle cx="110.4" cy="324.6" r="3.0" fill="#aad6ff" fill-opacity="0.6"/>
<circle cx="70.5" cy="345.9" r="3.0" fill="#aad6ff" fill-opacity="0.6"/>
<circle cx="174.1" cy="166.2" r="3.0" fill="#aad6ff" fill-opacity="0.6"/>
<circle cx="143.7" cy="132.7" r="3.0" fill="#aad6ff" fill-opacity="0.6"/>
<circle cx="113.3" cy="99.2" r="3.0" fill="#aad6ff" fill-opacity="0.6"/>
<circle cx="250.0" cy="250.0" r="226.1" fill="#f058d4" fill-opacity="0.21" stroke="#f058d4" stroke-width="1.5"/>
<circle cx="250.0" cy="250.0" r="203.5" fill="#dc62e2" fill-opacity="0.21" stroke="#dc62e2" stroke-width="1.5"/>
<circle cx="250.0" cy="250.0" r="180.9" fill="#c86bef" fill-opacity="0.20" stroke="#c86bef" stroke-width="1.5"/>
<circle cx="250.0" cy="250.0" r="158.3" fill="#b475fa" fill-opacity="0.20" stroke="#b475fa" stroke-width="1.5"/>
<circle cx="250.0" cy="250.0" r="135.7" fill="#a17e100" fill-opacity="0.19" stroke="#a17e100" stroke-width="1.5"/>
<circle cx="250.0" cy="250.0" r="113.1" fill="#8d88103" fill-opacity="0.19" stroke="#8d88103" stroke-width="1.5"/>
<circle cx="250.0" cy="250.0" r="90.4" fill="#7991100" fill-opacity="0.19" stroke="#7991100" stroke-width="1.5"/>
<circle cx="250.0" cy="250.0" r="67.8" fill="#669bfa" fill-opacity="0.18" stroke="#669bfa" stroke-width="1.5"/>
<circle cx="250.0" cy="250.0" r="45.2" fill="#52a4ef" fill-opacity="0.18" stroke="#52a4ef" stroke-width="1.5"/>
<circle cx="250.0" cy="250.0" r="22.6" fill="#3eaee2" fill-opacity="0.17" stroke="#3eaee2" stroke-width="1.5"/>
<circle cx="295.2" cy="250.0" r="3.0" fill="#9fffd0" fill-opacity="0.6"/>
<circle cx="363.1" cy="250.0" r="3.0" fill="#9fffd0" fill-opacity="0.6"/>
<circle cx="430.9" cy="250.0" r="3.0" fill="#9fffd0" fill-opacity="0.6"/>
<circle cx="271.5" cy="289.8" r="3.0" fill="#9fffd0" fill-opacity="0.6"/>
<circle cx="303.7" cy="349.5" r="3.0" fill="#9fffd0" fill-opacity="0.6"/>
<circle cx="335.9" cy="409.2" r="3.0" fill="#9fffd0" fill-opacity="0.6"/>
<circle cx="225.2" cy="287.8" r="3.0" fill="#9fffd0" fill-opacity="0.6"/>
<circle cx="187.9" cy="344.5" r="3.0" fill="#9fffd0" fill-opacity="0.6"/>
<circle cx="150.7" cy="401.2" r="3.0" fill="#9fffd0" fill-opacity="0.6"/>
<circle cx="204.9" cy="246.1" r="3.0" fill="#9fffd0" fill-opacity="0.6"/>
<circle cx="137.4" cy="240.2" r="3.0" fill="#9fffd0" fill-opacity="0.6"/>
<circle cx="69.8" cy="234.4" r="3.0" fill="#9fffd0" fill-opacity="0.6"/>
<circle cx="317.8" cy="250.0" r="3.0" fill="#91c0f3" fill-opacity="0.6"/>
<circle cx="363.1" cy="250.0" r="3.0" fill="#91c0f3" fill-opacity="0.6"/>
<circle cx="408.3" cy="250.0" r="3.0" fill="#91c0f3" fill-opacity="0.6"/>
<circle cx="453.5" cy="250.0" r="3.0" fill="#91c0f3" fill-opacity="0.6"/>
<circle cx="295.9" cy="300.0" r="3.0" fill="#91c0f3" fill-opacity="0.6"/>
<circle cx="326.4" cy="333.3" r="3.0" fill="#91c0f3" fill-opacity="0.6"/>
<circle cx="357.0" cy="366.7" r="3.0" fill="#91c0f3" fill-opacity="0.6"/>
<circle cx="387.6" cy="400.0" r="3.0" fill="#91c0f3" fill-opacity="0.6"/>
<circle cx="244.1" cy="317.6" r="3.0" fill="#91c0f3" fill-opacity="0.6"/>
<circle cx="240.2" cy="362.6" r="3.0" fill="#91c0f3" fill-opacity="0.6"/>
<circle cx="236.3" cy="407.7" r="3.0" fill="#91c0f3" fill-opacity="0.6"/>
<circle cx="232.4" cy="452.7" r="3.0" fill="#91c0f3" fill-opacity="0.6"/>
<circle cx="196.2" cy="291.4" r="3.0" fill="#91c0f3" fill-opacity="0.6"/>
<circle cx="160.4" cy="318.9" r="3.0" fill="#91c0f3" fill-opacity="0.6"/>
<circle cx="124.6" cy="346.5" r="3.0" fill="#91c0f3" fill-opacity="0.6"/>
<circle cx="88.7" cy="374.1" r="3.0" fill="#91c0f3" fill-opacity="0.6"/>
<circle cx="183.2" cy="238.3" r="3.0" fill="#91c0f3" fill-opacity="0.6"/>
<circle cx="138.6" cy="230.6" r="3.0" fill="#91c0f3" fill-opacity="0.6"/>
<circle cx="94.1" cy="222.8" r="3.0" fill="#91c0f3" fill-opacity="0.6"/>
<circle cx="49.5" cy="215.0" r="3.0" fill="#91c0f3" fill-opacity="0.6"/>
<circle cx="213.4" cy="192.9" r="3.0" fill="#91c0f3" fill-opacity="0.6"/>
<circle cx="189.0" cy="154.8" r="3.0" fill="#91c0f3" fill-opacity="0.6"/>
<circle cx="164.7" cy="116.7" r="3.0" fill="#91c0f3" fill-opacity="0.6"/>
<circle cx="140.3" cy="78.6" r="3.0" fill="#91c0f3" fill-opacity="0.6"/>
<circle cx="267.4" cy="184.4" r="3.0" fill="#91c0f3" fill-opacity="0.6"/>
<circle cx="279.0" cy="140.7" r="3.0" fill="#91c0f3" fill-opacity="0.6"/>
<circle cx="290.6" cy="97.0" r="3.0" fill="#91c0f3" fill-opacity="0.6"/>
<circle cx="302.2" cy="53.3" r="3.0" fill="#91c0f3" fill-opacity="0.6"/>
<circle cx="310.1" cy="218.5" r="3.0" fill="#91c0f3" fill-opacity="0.6"/>
<circle cx="350.1" cy="197.5" r="3.0" fill="#91c0f3" fill-opacity="0.6"/>
<circle cx="390.2" cy="176.5" r="3.0" fill="#91c0f3" fill-opacity="0.6"/>
<circle cx="430.2" cy="155.5" r="3.0" fill="#91c0f3" fill-opacity="0.6"/>
<circle cx="317.8" cy="250.0" r="3.0" fill="#91c0f3" fill-opacity="0.6"/>
<circle cx="363.1" cy="250.0" r="3.0" fill="#91c0f3" fill-opacity="0.6"/>
<circle cx="408.3" cy="250.0" r="3.0" fill="#91c0f3" fill-opacity="0.6"/>
<circle cx="453.5" cy="250.0" r="3.0" fill="#91c0f3" fill-opacity="0.6"/>
<circle cx="306.7" cy="287.2" r="3.0" fill="#91c0f3" fill-opacity="0.6"/>
<circle cx="344.5" cy="312.1" r="3.0" fill="#91c0f3" fill-opacity="0.6"/>
<circle cx="382.3" cy="336.9" r="3.0" fill="#91c0f3" fill-opacity="0.6"/>
<circle cx="420.1" cy="361.7" r="3.0" fill="#91c0f3" fill-opacity="0.6"/>
<circle cx="276.9" cy="312.3" r="3.0" fill="#91c0f3" fill-opacity="0.6"/>
<circle cx="294.9" cy="353.8" r="3.0" fill="#91c0f3" fill-opacity="0.6"/>
<circle cx="312.9" cy="395.3" r="3.0" fill="#91c0f3" fill-opacity="0.6"/>
<circle cx="330.8" cy="436.8" r="3.0" fill="#91c0f3" fill-opacity="0.6"/>
<circle cx="238.3" cy="316.8" r="3.0" fill="#91c0f3" fill-opacity="0.6"/>
<circle cx="230.6" cy="361.4" r="3.0" fill="#91c0f3" fill-opacity="0.6"/>
<circle cx="222.8" cy="405.9" r="3.0" fill="#91c0f3" fill-opacity="0.6"/>
<circle cx="215.0" cy="450.5" r="3.0" fill="#91c0f3" fill-opacity="0.6"/>
<circle cx="203.6" cy="299.5" r="3.0" fill="#91c0f3" fill-opacity="0.6"/>
<circle cx="172.6" cy="332.4" r="3.0" fill="#91c0f3" fill-opacity="0.6"/>
<circle cx="141.6" cy="365.4" r="3.0" fill="#91c0f3" fill-opacity="0.6"/>
<circle cx="110.7" cy="398.4" r="3.0" fill="#91c0f3" fill-opacity="0.6"/>
<circle cx="184.0" cy="265.8" r="3.0" fill="#91c0f3" fill-opacity="0.6"/>
<circle cx="140.1" cy="276.4" r="3.0" fill="#91c0f3" fill-opacity="0.6"/>
<circle cx="96.1" cy="287.0" r="3.0" fill="#91c0f3" fill-opacity="0.6"/>
<circle cx="52.1" cy="297.5" r="3.0" fill="#91c0f3" fill-opacity="0.6"/>
<circle cx="186.2" cy="227.0" r="3.0" fill="#91c0f3" fill-opacity="0.6"/>
<circle cx="143.6" cy="211.7" r="3.0" fill="#91c0f3" fill-opacity="0.6"/>
<circle cx="101.1" cy="196.4" r="3.0" fill="#91c0f3" fill-opacity="0.6"/>
<circle cx="58.5" cy="181.1" r="3.0" fill="#91c0f3" fill-opacity="0.6"/>
<circle cx="209.3" cy="195.8" r="3.0" fill="#91c0f3" fill-opacity="0.6"/>
<circle cx="182.1" cy="159.6" r="3.0" fill="#91c0f3" fill-opacity="0.6"/>
<circle cx="155.0" cy="123.4" r="3.0" fill="#91c0f3" fill-opacity="0.6"/>
<circle cx="127.8" cy="87.3" r="3.0" fill="#91c0f3" fill-opacity="0.6"/>
<line x1="250.0" y1="250.0" x2="443.1" y2="250.0" stroke="#392de5" stroke-width="2.35" opacity="0.38"/>
<line x1="250.0" y1="250.0" x2="419.8" y2="342.0" stroke="#4734d7" stroke-width="2.35" opacity="0.40"/>
<line x1="250.0" y1="250.0" x2="355.4" y2="411.8" stroke="#553cc9" stroke-width="2.35" opacity="0.42"/>
<line x1="250.0" y1="250.0" x2="265.5" y2="442.5" stroke="#6344bb" stroke-width="2.35" opacity="0.44"/>
<line x1="250.0" y1="250.0" x2="171.9" y2="426.6" stroke="#724dac" stroke-width="2.35" opacity="0.46"/>
<line x1="250.0" y1="250.0" x2="97.2" y2="368.1" stroke="#80559e" stroke-width="2.35" opacity="0.48"/>
<line x1="250.0" y1="250.0" x2="59.4" y2="281.0" stroke="#8e5d90" stroke-width="2.35" opacity="0.50"/>
<line x1="250.0" y1="250.0" x2="67.7" y2="186.4" stroke="#9c6582" stroke-width="2.35" opacity="0.52"/>
<line x1="250.0" y1="250.0" x2="120.0" y2="107.2" stroke="#ab6d73" stroke-width="2.35" opacity="0.54"/>
<line x1="250.0" y1="250.0" x2="203.8" y2="62.5" stroke="#b97565" stroke-width="2.35" opacity="0.56"/>
<line x1="250.0" y1="250.0" x2="298.8" y2="63.1" stroke="#c77d57" stroke-width="2.35" opacity="0.58"/>
<line x1="250.0" y1="250.0" x2="381.9" y2="109.0" stroke="#d58549" stroke-width="2.35" opacity="0.60"/>
<line x1="250.0" y1="250.0" x2="433.2" y2="188.9" stroke="#dd8e3a" stroke-width="2.35" opacity="0.62"/>
<line x1="250.0" y1="250.0" x2="440.2" y2="283.6" stroke="#dd962c" stroke-width="2.35" opacity="0.64"/>
<line x1="250.0" y1="250.0" x2="401.2" y2="370.1" stroke="#dd9e1e" stroke-width="2.35" opacity="0.66"/>
<line x1="250.0" y1="250.0" x2="325.6" y2="427.7" stroke="#dda610" stroke-width="2.35" opacity="0.68"/>
<line x1="250.0" y1="250.0" x2="443.1" y2="250.0" stroke="#2b32112" stroke-width="2.35" opacity="0.26"/>
<line x1="250.0" y1="250.0" x2="426.2" y2="329.1" stroke="#3536108" stroke-width="2.35" opacity="0.28"/>
<line x1="250.0" y1="250.0" x2="378.3" y2="394.4" stroke="#3f3bfe" stroke-width="2.35" opacity="0.31"/>
<line x1="250.0" y1="250.0" x2="307.9" y2="434.2" stroke="#4a41f3" stroke-width="2.35" opacity="0.33"/>
<line x1="250.0" y1="250.0" x2="227.3" y2="441.8" stroke="#5446e9" stroke-width="2.35" opacity="0.35"/>
<line x1="250.0" y1="250.0" x2="150.7" y2="415.6" stroke="#5f4bde" stroke-width="2.35" opacity="0.38"/>
<line x1="250.0" y1="250.0" x2="91.6" y2="360.4" stroke="#6950d4" stroke-width="2.35" opacity="0.40"/>
<line x1="250.0" y1="250.0" x2="60.2" y2="285.8" stroke="#7455c9" stroke-width="2.35" opacity="0.42"/>
<line x1="250.0" y1="250.0" x2="62.2" y2="204.9" stroke="#7e5abf" stroke-width="2.35" opacity="0.45"/>
<line x1="250.0" y1="250.0" x2="97.2" y2="131.9" stroke="#885fb5" stroke-width="2.35" opacity="0.47"/>
<line x1="250.0" y1="250.0" x2="159.0" y2="79.7" stroke="#9364aa" stroke-width="2.35" opacity="0.49"/>
<line x1="250.0" y1="250.0" x2="236.7" y2="57.3" stroke="#9d69a0" stroke-width="2.35" opacity="0.51"/>
<line x1="250.0" y1="250.0" x2="316.8" y2="68.8" stroke="#a86f95" stroke-width="2.35" opacity="0.54"/>
<line x1="250.0" y1="250.0" x2="385.2" y2="112.1" stroke="#b2748b" stroke-width="2.35" opacity="0.56"/>
<line x1="250.0" y1="250.0" x2="429.8" y2="179.6" stroke="#bd7980" stroke-width="2.35" opacity="0.58"/>
<line x1="250.0" y1="250.0" x2="442.9" y2="259.5" stroke="#c77e76" stroke-width="2.35" opacity="0.61"/>
<circle cx="250.0" cy="250.0" r="8.0" fill="#dcdbf5" fill-opacity="0.9"/>
</svg>