<svg xmlns="http://www.w3.org/2000/svg" width="422" height="500" viewBox="0 0 422 500">
<rect width="422" height="500" fill="#00583c"/>
<circle cx="250.0" cy="179.76" r="233.8" fill="#bc41c4" fill-opacity="0.26" stroke="#bc41c4" stroke-width="1.5"/>
<circle cx="250.0" cy="179.76" r="207.8" fill="#ab4ad4" fill-opacity="0.25" stroke="#ab4ad4" stroke-width="1.5"/>
<circle cx="250.0" cy="179.76" r="181.8" fill="#9a53e2" fill-opacity="0.25" stroke="#9a53e2" stroke-width="1.5"/>
<circle cx="250.0" cy="179.76" r="155.8" fill="#895ced" fill-opacity="0.24" stroke="#895ced" stroke-width="1.5"/>
<circle cx="250.0" cy="179.76" r="129.9" fill="#7865f3" fill-opacity="0.23" stroke="#7865f3" stroke-width="1.5"/>
<circle cx="250.0" cy="179.76" r="103.9" fill="#676ef3" fill-opacity="0.23" stroke="#676ef3" stroke-width="1.5"/>
<circle cx="250.0" cy="179.76" r="77.9" fill="#5677ed" fill-opacity="0.22" stroke="#5677ed" stroke-width="1.5"/>
<circle cx="250.0" cy="179.76" r="51.9" fill="#4580e2" fill-opacity="0.21" stroke="#4580e2" stroke-width="1.5"/>
<circle cx="250.0" cy="179.76" r="26.0" fill="#3489d4" fill-opacity="0.21" stroke="#3489d4" stroke-width="1.5"/>
<circle cx="353.9" cy="179.8" r="3.0" fill="#d1e4d3" fill-opacity="0.6"/>
<circle cx="431.8" cy="179.8" r="3.0" fill="#d1e4d3" fill-opacity="0.6"/>
<circle cx="250.0" cy="283.7" r="3.0" fill="#d1e4d3" fill-opacity="0.6"/>
<circle cx="250.0" cy="361.6" r="3.0" fill="#d1e4d3" fill-opacity="0.6"/>
<circle cx="146.1" cy="179.8" r="3.0" fill="#d1e4d3" fill-opacity="0.6"/>
<circle cx="68.2" cy="179.8" r="3.0" fill="#d1e4d3" fill-opacity="0.6"/>
<circle cx="250.0" cy="75.9" r="3.0" fill="#d1e4d3" fill-opacity="0.6"/>
<circle cx="250.0" cy="-2.1" r="3.0" fill="#d1e4d3" fill-opacity="0.6"/>
<circle cx="250.0" cy="179.76" r="233.8" fill="#9240d6" fill-opacity="0.32" stroke="#9240d6" stroke-width="1.5"/>
<circle cx="250.0" cy="179.76" r="207.8" fill="#8548e2" fill-opacity="0.32" stroke="#8548e2" stroke-width="1.5"/>
<circle cx="250.0" cy="179.76" r="181.8" fill="#7851ed" fill-opacity="0.31" stroke="#7851ed" stroke-width="1.5"/>
<circle cx="250.0" cy="179.76" r="155.8" fill="#6c59f5" fill-opacity="0.31" stroke="#6c59f5" stroke-width="1.5"/>
<circle cx="250.0" cy="179.76" r="129.9" fill="#5f62f9" fill-opacity="0.31" stroke="#5f62f9" stroke-width="1.5"/>
<circle cx="250.0" cy="179.76" r="103.9" fill="#526af9" fill-opacity="0.30" stroke="#526af9" stroke-width="1.5"/>
<circle cx="250.0" cy="179.76" r="77.9" fill="#4673f5" fill-opacity="0.30" stroke="#4673f5" stroke-width="1.5"/>
<circle cx="250.0" cy="179.76" r="51.9" fill="#397bed" fill-opacity="0.30" stroke="#397bed" stroke-width="1.5"/>
<circle cx="250.0" cy="179.76" r="26.0" fill="#2c84e2" fill-opacity="0.29" stroke="#2c84e2" stroke-width="1.5"/>
<circle cx="301.9" cy="179.8" r="3.0" fill="#acffff" fill-opacity="0.6"/>
<circle cx="353.9" cy="179.8" r="3.0" fill="#acffff" fill-opacity="0.6"/>
<circle cx="405.8" cy="179.8" r="3.0" fill="#acffff" fill-opacity="0.6"/>
<circle cx="457.8" cy="179.8" r="3.0" fill="#acffff" fill-opacity="0.6"/>
<circle cx="270.4" cy="227.5" r="3.0" fill="#acffff" fill-opacity="0.6"/>
<circle cx="290.8" cy="275.3" r="3.0" fill="#acffff" fill-opacity="0.6"/>
<circle cx="311.1" cy="323.1" r="3.0" fill="#acffff" fill-opacity="0.6"/>
<circle cx="331.5" cy="370.9" r="3.0" fill="#acffff" fill-opacity="0.6"/>
<circle cx="214.0" cy="217.3" r="3.0" fill="#acffff" fill-opacity="0.6"/>
<circle cx="178.1" cy="254.7" r="3.0" fill="#acffff" fill-opacity="0.6"/>
<circle cx="142.1" cy="292.2" r="3.0" fill="#acffff" fill-opacity="0.6"/>
<circle cx="106.2" cy="329.7" r="3.0" fill="#acffff" fill-opacity="0.6"/>
<circle cx="201.4" cy="161.4" r="3.0" fill="#acffff" fill-opacity="0.6"/>
<circle cx="152.8" cy="143.0" r="3.0" fill="#acffff" fill-opacity="0.6"/>
<circle cx="104.2" cy="124.7" r="3.0" fill="#acffff" fill-opacity="0.6"/>
<circle cx="55.6" cy="106.3" r="3.0" fill="#acffff" fill-opacity="0.6"/>
<circle cx="247.8" cy="127.9" r="3.0" fill="#acffff" fill-opacity="0.6"/>
<circle cx="245.6" cy="76.0" r="3.0" fill="#acffff" fill-opacity="0.6"/>
<circle cx="243.5" cy="24.1" r="3.0" fill="#acffff" fill-opacity="0.6"/>
<circle cx="241.3" cy="-27.8" r="3.0" fill="#acffff" fill-opacity="0.6"/>
<circle cx="296.9" cy="157.4" r="3.0" fill="#acffff" fill-opacity="0.6"/>
<circle cx="343.8" cy="135.0" r="3.0" fill="#acffff" fill-opacity="0.6"/>
<circle cx="390.7" cy="112.7" r="3.0" fill="#acffff" fill-opacity="0.6"/>
<circle cx="437.5" cy="90.3" r="3.0" fill="#acffff" fill-opacity="0.6"/>
<line x1="250.0" y1="179.76" x2="478.0" y2="179.8" stroke="#391c104" stroke-width="2.57" opacity="0.23"/>
<line x1="250.0" y1="179.76" x2="446.9" y2="294.8" stroke="#4121fc" stroke-width="2.57" opacity="0.26"/>
<line x1="250.0" y1="179.76" x2="361.9" y2="378.4" stroke="#4a27f3" stroke-width="2.57" opacity="0.29"/>
<line x1="250.0" y1="179.76" x2="246.4" y2="407.8" stroke="#532dea" stroke-width="2.57" opacity="0.32"/>
<line x1="250.0" y1="179.76" x2="131.9" y2="374.8" stroke="#5c33e1" stroke-width="2.57" opacity="0.34"/>
<line x1="250.0" y1="179.76" x2="49.6" y2="288.6" stroke="#6539d8" stroke-width="2.57" opacity="0.37"/>
<line x1="250.0" y1="179.76" x2="22.1" y2="172.6" stroke="#6e3ecf" stroke-width="2.57" opacity="0.40"/>
<line x1="250.0" y1="179.76" x2="56.8" y2="58.6" stroke="#7644c7" stroke-width="2.57" opacity="0.43"/>
<line x1="250.0" y1="179.76" x2="144.3" y2="-22.3" stroke="#7f4abe" stroke-width="2.57" opacity="0.46"/>
<line x1="250.0" y1="179.76" x2="260.7" y2="-48.0" stroke="#8850b5" stroke-width="2.57" opacity="0.48"/>
<line x1="250.0" y1="179.76" x2="374.2" y2="-11.5" stroke="#9156ac" stroke-width="2.57" opacity="0.51"/>
<line x1="250.0" y1="179.76" x2="453.7" y2="77.3" stroke="#9a5ca3" stroke-width="2.57" opacity="0.54"/>
<circle cx="301.9" cy="179.8" r="3.0" fill="#8bbbd4" fill-opacity="0.6"/>
<circle cx="353.9" cy="179.8" r="3.0" fill="#8bbbd4" fill-opacity="0.6"/>
<circle cx="405.8" cy="179.8" r="3.0" fill="#8bbbd4" fill-opacity="0.6"/>
<circle cx="457.8" cy="179.8" r="3.0" fill="#8bbbd4" fill-opacity="0.6"/>
<circle cx="251.6" cy="231.7" r="3.0" fill="#8bbbd4" fill-opacity="0.6"/>
<circle cx="253.3" cy="283.6" r="3.0" fill="#8bbbd4" fill-opacity="0.6"/>
<circle cx="254.9" cy="335.5" r="3.0" fill="#8bbbd4" fill-opacity="0.6"/>
<circle cx="256.5" cy="387.4" r="3.0" fill="#8bbbd4" fill-opacity="0.6"/>
<circle cx="198.2" cy="183.0" r="3.0" fill="#8bbbd4" fill-opacity="0.6"/>
<circle cx="146.3" cy="186.3" r="3.0" fill="#8bbbd4" fill-opacity="0.6"/>
<circle cx="94.5" cy="189.5" r="3.0" fill="#8bbbd4" fill-opacity="0.6"/>
<circle cx="42.6" cy="192.8" r="3.0" fill="#8bbbd4" fill-opacity="0.6"/>
<circle cx="245.1" cy="128.0" r="3.0" fill="#8bbbd4" fill-opacity="0.6"/>
<circle cx="240.2" cy="76.3" r="3.0" fill="#8bbbd4" fill-opacity="0.6"/>
<circle cx="235.3" cy="24.6" r="3.0" fill="#8bbbd4" fill-opacity="0.6"/>
<circle cx="230.4" cy="-27.1" r="3.0" fill="#8bbbd4" fill-opacity="0.6"/>
<circle cx="301.5" cy="173.2" r="3.0" fill="#8bbbd4" fill-opacity="0.6"/>
<circle cx="353.1" cy="166.7" r="3.0" fill="#8bbbd4" fill-opacity="0.6"/>
<circle cx="404.6" cy="160.2" r="3.0" fill="#8bbbd4" fill-opacity="0.6"/>
<circle cx="456.1" cy="153.7" r="3.0" fill="#8bbbd4" fill-opacity="0.6"/>
<circle cx="258.1" cy="231.1" r="3.0" fill="#8bbbd4" fill-opacity="0.6"/>
<circle cx="266.3" cy="282.4" r="3.0" fill="#8bbbd4" fill-opacity="0.6"/>
<circle cx="274.4" cy="333.7" r="3.0" fill="#8bbbd4" fill-opacity="0.6"/>
<circle cx="282.5" cy="385.0" r="3.0" fill="#8bbbd4" fill-opacity="0.6"/>
<circle cx="250.0" cy="179.76" r="233.8" fill="#e22bb0" fill-opacity="0.27" stroke="#e22bb0" stroke-width="1.5"/>
<circle cx="250.0" cy="179.76" r="207.8" fill="#cc32c9" fill-opacity="0.27" stroke="#cc32c9" stroke-width="1.5"/>
<circle cx="250.0" cy="179.76" r="181.8" fill="#b739e0" fill-opacity="0.26" stroke="#b739e0" stroke-width="1.5"/>
<circle cx="250.0" cy="179.76" r="155.8" fill="#a240f0" fill-opacity="0.26" stroke="#a240f0" stroke-width="1.5"/>
<circle cx="250.0" cy="179.76" r="129.9" fill="#8c47f9" fill-opacity="0.25" stroke="#8c47f9" stroke-width="1.5"/>
<circle cx="250.0" cy="179.76" r="103.9" fill="#774ef9" fill-opacity="0.25" stroke="#774ef9" stroke-width="1.5"/>
<circle cx="250.0" cy="179.76" r="77.9" fill="#6255f0" fill-opacity="0.24" stroke="#6255f0" stroke-width="1.5"/>
<circle cx="250.0" cy="179.76" r="51.9" fill="#4c5ce0" fill-opacity="0.24" stroke="#4c5ce0" stroke-width="1.5"/>
<circle cx="250.0" cy="179.76" r="26.0" fill="#3762c9" fill-opacity="0.23" stroke="#3762c9" stroke-width="1.5"/>
<circle cx="301.9" cy="179.8" r="3.0" fill="#d7e6f7" fill-opacity="0.6"/>
<circle cx="353.9" cy="179.8" r="3.0" fill="#d7e6f7" fill-opacity="0.6"/>
<circle cx="405.8" cy="179.8" r="3.0" fill="#d7e6f7" fill-opacity="0.6"/>
<circle cx="457.8" cy="179.8" r="3.0" fill="#d7e6f7" fill-opacity="0.6"/>
<circle cx="273.6" cy="226.0" r="3.0" fill="#d7e6f7" fill-opacity="0.6"/>
<circle cx="297.2" cy="272.3" r="3.0" fill="#d7e6f7" fill-opacity="0.6"/>
<circle cx="320.7" cy="318.6" r="3.0" fill="#d7e6f7" fill-opacity="0.6"/>
<circle cx="344.3" cy="364.9" r="3.0" fill="#d7e6f7" fill-opacity="0.6"/>
<circle cx="219.5" cy="221.8" r="3.0" fill="#d7e6f7" fill-opacity="0.6"/>
<circle cx="188.9" cy="263.8" r="3.0" fill="#d7e6f7" fill-opacity="0.6"/>
<circle cx="158.4" cy="305.8" r="3.0" fill="#d7e6f7" fill-opacity="0.6"/>
<circle cx="127.9" cy="347.9" r="3.0" fill="#d7e6f7" fill-opacity="0.6"/>
<circle cx="198.7" cy="171.6" r="3.0" fill="#d7e6f7" fill-opacity="0.6"/>
<circle cx="147.4" cy="163.5" r="3.0" fill="#d7e6f7" fill-opacity="0.6"/>
<circle cx="96.1" cy="155.4" r="3.0" fill="#d7e6f7" fill-opacity="0.6"/>
<circle cx="44.8" cy="147.3" r="3.0" fill="#d7e6f7" fill-opacity="0.6"/>
<circle cx="233.9" cy="130.4" r="3.0" fill="#d7e6f7" fill-opacity="0.6"/>
<circle cx="217.9" cy="81.0" r="3.0" fill="#d7e6f7" fill-opacity="0.6"/>
<circle cx="201.8" cy="31.5" r="3.0" fill="#d7e6f7" fill-opacity="0.6"/>
<circle cx="185.8" cy="-17.9" r="3.0" fill="#d7e6f7" fill-opacity="0.6"/>
<circle cx="286.7" cy="143.0" r="3.0" fill="#d7e6f7" fill-opacity="0.6"/>
<circle cx="323.5" cy="106.3" r="3.0" fill="#d7e6f7" fill-opacity="0.6"/>
<circle cx="360.2" cy="69.6" r="3.0" fill="#d7e6f7" fill-opacity="0.6"/>
<circle cx="396.9" cy="32.8" r="3.0" fill="#d7e6f7" fill-opacity="0.6"/>
<circle cx="250.0" cy="179.76" r="233.8" fill="#f079d4" fill-opacity="0.21" stroke="#f079d4" stroke-width="1.5"/>
<circle cx="250.0" cy="179.76" r="207.8" fill="#da85e4" fill-opacity="0.21" stroke="#da85e4" stroke-width="1.5"/>
<circle cx="250.0" cy="179.76" r="181.8" fill="#c490f2" fill-opacity="0.20" stroke="#c490f2" stroke-width="1.5"/>
<circle cx="250.0" cy="179.76" r="155.8" fill="#ae9cfc" fill-opacity="0.20" stroke="#ae9cfc" stroke-width="1.5"/>
<circle cx="250.0" cy="179.76" r="129.9" fill="#98a7102" fill-opacity="0.19" stroke="#98a7102" stroke-width="1.5"/>
<circle cx="250.0" cy="179.76" r="103.9" fill="#82b3102" fill-opacity="0.19" stroke="#82b3102" stroke-width="1.5"/>
<circle cx="250.0" cy="179.76" r="77.9" fill="#6cbefc" fill-opacity="0.18" stroke="#6cbefc" stroke-width="1.5"/>
<circle cx="250.0" cy="179.76" r="51.9" fill="#56caf2" fill-opacity="0.18" stroke="#56caf2" stroke-width="1.5"/>
<circle cx="250.0" cy="179.76" r="26.0" fill="#40d6e4" fill-opacity="0.17" stroke="#40d6e4" stroke-width="1.5"/>
<circle cx="250.0" cy="179.76" r="233.8" fill="#13933ea" fill-opacity="0.18" stroke="#13933ea" stroke-width="1.5"/>
<circle cx="250.0" cy="179.76" r="207.8" fill="#11a39102" fill-opacity="0.17" stroke="#11a39102" stroke-width="1.5"/>
<circle cx="250.0" cy="179.76" r="181.8" fill="#fc40118" fill-opacity="0.17" stroke="#fc40118" stroke-width="1.5"/>
<circle cx="250.0" cy="179.76" r="155.8" fill="#de46128" fill-opacity="0.16" stroke="#de46128" stroke-width="1.5"/>
<circle cx="250.0" cy="179.76" r="129.9" fill="#bf4c130" fill-opacity="0.15" stroke="#bf4c130" stroke-width="1.5"/>
<circle cx="250.0" cy="179.76" r="103.9" fill="#a152130" fill-opacity="0.15" stroke="#a152130" stroke-width="1.5"/>
<circle cx="250.0" cy="179.76" r="77.9" fill="#8358128" fill-opacity="0.14" stroke="#8358128" stroke-width="1.5"/>
<circle cx="250.0" cy="179.76" r="51.9" fill="#645f118" fill-opacity="0.13" stroke="#645f118" stroke-width="1.5"/>
<circle cx="250.0" cy="179.76" r="26.0" fill="#4665102" fill-opacity="0.13" stroke="#4665102" stroke-width="1.5"/>
<circle cx="250.0" cy="179.76" r="233.8" fill="#1062dc5" fill-opacity="0.22" stroke="#1062dc5" stroke-width="1.5"/>
<circle cx="250.0" cy="179.76" r="207.8" fill="#ec35e2" fill-opacity="0.21" stroke="#ec35e2" stroke-width="1.5"/>
<circle cx="250.0" cy="179.76" r="181.8" fill="#d33cfc" fill-opacity="0.21" stroke="#d33cfc" stroke-width="1.5"/>
<circle cx="250.0" cy="179.76" r="155.8" fill="#ba4410f" fill-opacity="0.20" stroke="#ba4410f" stroke-width="1.5"/>
<circle cx="250.0" cy="179.76" r="129.9" fill="#a04b119" fill-opacity="0.20" stroke="#a04b119" stroke-width="1.5"/>
<circle cx="250.0" cy="179.76" r="103.9" fill="#8752119" fill-opacity="0.19" stroke="#8752119" stroke-width="1.5"/>
<circle cx="250.0" cy="179.76" r="77.9" fill="#6e5a10f" fill-opacity="0.19" stroke="#6e5a10f" stroke-width="1.5"/>
<circle cx="250.0" cy="179.76" r="51.9" fill="#5461fc" fill-opacity="0.18" stroke="#5461fc" stroke-width="1.5"/>
<circle cx="250.0" cy="179.76" r="26.0" fill="#3b69e2" fill-opacity="0.18" stroke="#3b69e2" stroke-width="1.5"/>
<circle cx="405.8" cy="179.8" r="3.0" fill="#91b9ff" fill-opacity="0.6"/>
<circle cx="457.8" cy="179.8" r="3.0" fill="#91b9ff" fill-opacity="0.6"/>
<circle cx="219.6" cy="332.6" r="3.0" fill="#91b9ff" fill-opacity="0.6"/>
<circle cx="209.5" cy="383.6" r="3.0" fill="#91b9ff" fill-opacity="0.6"/>
<circle cx="106.0" cy="120.1" r="3.0" fill="#91b9ff" fill-opacity="0.6"/>
<circle cx="58.0" cy="100.2" r="3.0" fill="#91b9ff" fill-opacity="0.6"/>
<line x1="250.0" y1="179.76" x2="478.0" y2="179.8" stroke="#5e21e3" stroke-width="2.57" opacity="0.23"/>
<line x1="250.0" y1="179.76" x2="436.9" y2="310.4" stroke="#772aca" stroke-width="2.57" opacity="0.26"/>
<line x1="250.0" y1="179.76" x2="328.4" y2="393.9" stroke="#9034b1" stroke-width="2.57" opacity="0.29"/>
<line x1="250.0" y1="179.76" x2="191.6" y2="400.2" stroke="#a93e98" stroke-width="2.57" opacity="0.32"/>
<line x1="250.0" y1="179.76" x2="75.8" y2="327.0" stroke="#c2487f" stroke-width="2.57" opacity="0.35"/>
<line x1="250.0" y1="179.76" x2="22.9" y2="200.6" stroke="#db5166" stroke-width="2.57" opacity="0.38"/>
<line x1="250.0" y1="179.76" x2="51.9" y2="66.8" stroke="#f45b4d" stroke-width="2.57" opacity="0.41"/>
<line x1="250.0" y1="179.76" x2="152.4" y2="-26.3" stroke="#10d6534" stroke-width="2.57" opacity="0.43"/>
<line x1="250.0" y1="179.76" x2="288.0" y2="-45.1" stroke="#1266f1b" stroke-width="2.57" opacity="0.46"/>
<line x1="250.0" y1="179.76" x2="410.0" y2="17.2" stroke="#13f7802" stroke-width="2.57" opacity="0.49"/>
<line x1="250.0" y1="179.76" x2="474.2" y2="138.2" stroke="#13f8200" stroke-width="2.57" opacity="0.52"/>
<line x1="250.0" y1="179.76" x2="457.6" y2="274.1" stroke="#13f8c00" stroke-width="2.57" opacity="0.55"/>
<circle cx="405.8" cy="179.8" r="3.0" fill="#bdc5fa" fill-opacity="0.6"/>
<circle cx="457.8" cy="179.8" r="3.0" fill="#bdc5fa" fill-opacity="0.6"/>
<circle cx="179.3" cy="318.6" r="3.0" fill="#bdc5fa" fill-opacity="0.6"/>
<circle cx="155.7" cy="364.9" r="3.0" fill="#bdc5fa" fill-opacity="0.6"/>
<circle cx="158.4" cy="53.7" r="3.0" fill="#bdc5fa" fill-opacity="0.6"/>
<circle cx="127.9" cy="11.7" r="3.0" fill="#bdc5fa" fill-opacity="0.6"/>
<line x1="250.0" y1="179.76" x2="478.0" y2="179.8" stroke="#5d28c8" stroke-width="2.57" opacity="0.30"/>
<line x1="250.0" y1="179.76" x2="447.5" y2="293.8" stroke="#7231b3" stroke-width="2.57" opacity="0.33"/>
<line x1="250.0" y1="179.76" x2="364.0" y2="377.2" stroke="#873a9e" stroke-width="2.57" opacity="0.37"/>
<line x1="250.0" y1="179.76" x2="250.0" y2="407.8" stroke="#9c4389" stroke-width="2.57" opacity="0.40"/>
<line x1="250.0" y1="179.76" x2="136.0" y2="377.2" stroke="#b24c73" stroke-width="2.57" opacity="0.43"/>
<line x1="250.0" y1="179.76" x2="52.5" y2="293.8" stroke="#c7555e" stroke-width="2.57" opacity="0.47"/>
<line x1="250.0" y1="179.76" x2="22.0" y2="179.8" stroke="#d95e49" stroke-width="2.57" opacity="0.50"/>
<line x1="250.0" y1="179.76" x2="52.5" y2="65.7" stroke="#d96734" stroke-width="2.57" opacity="0.53"/>
<line x1="250.0" y1="179.76" x2="136.0" y2="-17.7" stroke="#d9711e" stroke-width="2.57" opacity="0.57"/>
<line x1="250.0" y1="179.76" x2="250.0" y2="-48.3" stroke="#d97a09" stroke-width="2.57" opacity="0.60"/>
<line x1="250.0" y1="179.76" x2="364.0" y2="-17.7" stroke="#d98300" stroke-width="2.57" opacity="0.63"/>
<line x1="250.0" y1="179.76" x2="447.5" y2="65.7" stroke="#d98c00" stroke-width="2.57" opacity="0.67"/>
<line x1="250.0" y1="179.76" x2="478.0" y2="179.8" stroke="#2b30112" stroke-width="2.57" opacity="0.30"/>
<line x1="250.0" y1="179.76" x2="442.9" y2="301.4" stroke="#3a37103" stroke-width="2.57" opacity="0.33"/>
<line x1="250.0" y1="179.76" x2="348.2" y2="385.6" stroke="#493ef4" stroke-width="2.57" opacity="0.35"/>
<line x1="250.0" y1="179.76" x2="223.2" y2="406.2" stroke="#5846e5" stroke-width="2.57" opacity="0.38"/>
<line x1="250.0" y1="179.76" x2="106.5" y2="357.0" stroke="#674dd6" stroke-width="2.57" opacity="0.40"/>
<line x1="250.0" y1="179.76" x2="34.1" y2="253.1" stroke="#7654c7" stroke-width="2.57" opacity="0.43"/>
<line x1="250.0" y1="179.76" x2="28.3" y2="126.5" stroke="#855cb8" stroke-width="2.57" opacity="0.45"/>
<line x1="250.0" y1="179.76" x2="90.9" y2="16.4" stroke="#9463a9" stroke-width="2.57" opacity="0.48"/>
<line x1="250.0" y1="179.76" x2="202.6" y2="-43.3" stroke="#a36a9a" stroke-width="2.57" opacity="0.51"/>
<line x1="250.0" y1="179.76" x2="328.9" y2="-34.2" stroke="#b2728b" stroke-width="2.57" opacity="0.53"/>
<line x1="250.0" y1="179.76" x2="430.9" y2="40.9" stroke="#c1797c" stroke-width="2.57" opacity="0.56"/>
<line x1="250.0" y1="179.76" x2="477.1" y2="158.9" stroke="#d0806d" stroke-width="2.57" opacity="0.58"/>
<circle cx="301.9" cy="179.8" r="3.0" fill="#98d28a" fill-opacity="0.6"/>
<circle cx="379.9" cy="179.8" r="3.0" fill="#98d28a" fill-opacity="0.6"/>
<circle cx="457.8" cy="179.8" r="3.0" fill="#98d28a" fill-opacity="0.6"/>
<circle cx="267.6" cy="228.6" r="3.0" fill="#98d28a" fill-opacity="0.6"/>
<circle cx="294.0" cy="301.9" r="3.0" fill="#98d28a" fill-opacity="0.6"/>
<circle cx="320.4" cy="375.3" r="3.0" fill="#98d28a" fill-opacity="0.6"/>
<circle cx="210.0" cy="212.9" r="3.0" fill="#98d28a" fill-opacity="0.6"/>
<circle cx="149.9" cy="262.5" r="3.0" fill="#98d28a" fill-opacity="0.6"/>
<circle cx="89.9" cy="312.2" r="3.0" fill="#98d28a" fill-opacity="0.6"/>
<circle cx="250.0" cy="179.76" r="233.8" fill="#e530cd" fill-opacity="0.20" stroke="#e530cd" stroke-width="1.5"/>
<circle cx="250.0" cy="179.76" r="207.8" fill="#ce3be6" fill-opacity="0.19" stroke="#ce3be6" stroke-width="1.5"/>
<circle cx="250.0" cy="179.76" r="181.8" fill="#b846fd" fill-opacity="0.19" stroke="#b846fd" stroke-width="1.5"/>
<circle cx="250.0" cy="179.76" r="155.8" fill="#a25110d" fill-opacity="0.18" stroke="#a25110d" stroke-width="1.5"/>
<circle cx="250.0" cy="179.76" r="129.9" fill="#8c5c116" fill-opacity="0.18" stroke="#8c5c116" stroke-width="1.5"/>
<circle cx="250.0" cy="179.76" r="103.9" fill="#7667116" fill-opacity="0.17" stroke="#7667116" stroke-width="1.5"/>
<circle cx="250.0" cy="179.76" r="77.9" fill="#607210d" fill-opacity="0.17" stroke="#607210d" stroke-width="1.5"/>
<circle cx="250.0" cy="179.76" r="51.9" fill="#4a7dfd" fill-opacity="0.16" stroke="#4a7dfd" stroke-width="1.5"/>
<circle cx="250.0" cy="179.76" r="26.0" fill="#3488e6" fill-opacity="0.16" stroke="#3488e6" stroke-width="1.5"/>
<circle cx="353.9" cy="179.8" r="3.0" fill="#4a94f8" fill-opacity="0.6"/>
<circle cx="405.8" cy="179.8" r="3.0" fill="#4a94f8" fill-opacity="0.6"/>
<circle cx="457.8" cy="179.8" r="3.0" fill="#4a94f8" fill-opacity="0.6"/>
<circle cx="315.4" cy="260.5" r="3.0" fill="#4a94f8" fill-opacity="0.6"/>
<circle cx="348.1" cy="300.9" r="3.0" fill="#4a94f8" fill-opacity="0.6"/>
<circle cx="380.8" cy="341.2" r="3.0" fill="#4a94f8" fill-opacity="0.6"/>
<circle cx="228.4" cy="281.4" r="3.0" fill="#4a94f8" fill-opacity="0.6"/>
<circle cx="217.6" cy="332.2" r="3.0" fill="#4a94f8" fill-opacity="0.6"/>
<circle cx="206.8" cy="383.0" r="3.0" fill="#4a94f8" fill-opacity="0.6"/>
<circle cx="157.4" cy="226.9" r="3.0" fill="#4a94f8" fill-opacity="0.6"/>
<circle cx="111.1" cy="250.5" r="3.0" fill="#4a94f8" fill-opacity="0.6"/>
<circle cx="64.9" cy="274.1" r="3.0" fill="#4a94f8" fill-opacity="0.6"/>
<circle cx="155.1" cy="137.5" r="3.0" fill="#4a94f8" fill-opacity="0.6"/>
<circle cx="107.6" cy="116.4" r="3.0" fill="#4a94f8" fill-opacity="0.6"/>
<circle cx="60.2" cy="95.2" r="3.0" fill="#4a94f8" fill-opacity="0.6"/>
<circle cx="223.1" cy="79.4" r="3.0" fill="#4a94f8" fill-opacity="0.6"/>
<circle cx="209.7" cy="29.2" r="3.0" fill="#4a94f8" fill-opacity="0.6"/>
<circle cx="196.2" cy="-20.9" r="3.0" fill="#4a94f8" fill-opacity="0.6"/>
<circle cx="353.9" cy="179.8" r="3.0" fill="#b9ffff" fill-opacity="0.6"/>
<circle cx="431.8" cy="179.8" r="3.0" fill="#b9ffff" fill-opacity="0.6"/>
<circle cx="256.5" cy="283.4" r="3.0" fill="#b9ffff" fill-opacity="0.6"/>
<circle cx="261.4" cy="361.2" r="3.0" fill="#b9ffff" fill-opacity="0.6"/>
<circle cx="146.9" cy="192.8" r="3.0" fill="#b9ffff" fill-opacity="0.6"/>
<circle cx="69.6" cy="202.5" r="3.0" fill="#b9ffff" fill-opacity="0.6"/>
<line x1="250.0" y1="179.76" x2="478.0" y2="179.8" stroke="#402de5" stroke-width="2.57" opacity="0.38"/>
<line x1="250.0" y1="179.76" x2="429.8" y2="320.0" stroke="#5639cf" stroke-width="2.57" opacity="0.41"/>
<line x1="250.0" y1="179.76" x2="305.6" y2="400.9" stroke="#6d47b8" stroke-width="2.57" opacity="0.43"/>
<line x1="250.0" y1="179.76" x2="157.8" y2="388.3" stroke="#8455a1" stroke-width="2.57" opacity="0.46"/>
<line x1="250.0" y1="179.76" x2="49.0" y2="287.5" stroke="#9a628b" stroke-width="2.57" opacity="0.49"/>
<line x1="250.0" y1="179.76" x2="25.3" y2="141.1" stroke="#b16f74" stroke-width="2.57" opacity="0.51"/>
<line x1="250.0" y1="179.76" x2="96.5" y2="11.1" stroke="#b87d5d" stroke-width="2.57" opacity="0.54"/>
<line x1="250.0" y1="179.76" x2="232.7" y2="-47.6" stroke="#b88a47" stroke-width="2.57" opacity="0.57"/>
<line x1="250.0" y1="179.76" x2="376.2" y2="-10.2" stroke="#b89730" stroke-width="2.57" opacity="0.59"/>
<line x1="250.0" y1="179.76" x2="466.3" y2="107.6" stroke="#b8a519" stroke-width="2.57" opacity="0.62"/>
<line x1="250.0" y1="179.76" x2="465.0" y2="255.9" stroke="#b8b203" stroke-width="2.57" opacity="0.65"/>
<line x1="250.0" y1="179.76" x2="372.7" y2="372.0" stroke="#b8bf00" stroke-width="2.57" opacity="0.67"/>
<line x1="250.0" y1="179.76" x2="478.0" y2="179.8" stroke="#4d23ca" stroke-width="2.57" opacity="0.34"/>
<line x1="250.0" y1="179.76" x2="401.3" y2="350.4" stroke="#6030b7" stroke-width="2.57" opacity="0.37"/>
<line x1="250.0" y1="179.76" x2="222.6" y2="406.1" stroke="#743ea3" stroke-width="2.57" opacity="0.40"/>
<line x1="250.0" y1="179.76" x2="62.4" y2="309.4" stroke="#884c8f" stroke-width="2.57" opacity="0.44"/>
<line x1="250.0" y1="179.76" x2="28.5" y2="125.4" stroke="#9c5a7b" stroke-width="2.57" opacity="0.47"/>
<line x1="250.0" y1="179.76" x2="143.8" y2="-22.1" stroke="#af6768" stroke-width="2.57" opacity="0.50"/>
<line x1="250.0" y1="179.76" x2="330.6" y2="-33.6" stroke="#c37554" stroke-width="2.57" opacity="0.53"/>
<line x1="250.0" y1="179.76" x2="463.1" y2="98.6" stroke="#d78340" stroke-width="2.57" opacity="0.56"/>
<line x1="250.0" y1="179.76" x2="452.1" y2="285.4" stroke="#e0912c" stroke-width="2.57" opacity="0.59"/>
<line x1="250.0" y1="179.76" x2="305.0" y2="401.1" stroke="#e09e19" stroke-width="2.57" opacity="0.62"/>
<line x1="250.0" y1="179.76" x2="120.8" y2="367.7" stroke="#e0ac05" stroke-width="2.57" opacity="0.66"/>
<line x1="250.0" y1="179.76" x2="23.7" y2="207.7" stroke="#e0ba00" stroke-width="2.57" opacity="0.69"/>
<circle cx="327.9" cy="179.8" r="3.0" fill="#dffffa" fill-opacity="0.6"/>
<circle cx="379.9" cy="179.8" r="3.0" fill="#dffffa" fill-opacity="0.6"/>
<circle cx="431.8" cy="179.8" r="3.0" fill="#dffffa" fill-opacity="0.6"/>
<circle cx="289.7" cy="246.8" r="3.0" fill="#dffffa" fill-opacity="0.6"/>
<circle cx="316.1" cy="291.5" r="3.0" fill="#dffffa" fill-opacity="0.6"/>
<circle cx="342.6" cy="336.3" r="3.0" fill="#dffffa" fill-opacity="0.6"/>
<circle cx="212.5" cy="248.0" r="3.0" fill="#dffffa" fill-opacity="0.6"/>
<circle cx="187.4" cy="293.6" r="3.0" fill="#dffffa" fill-opacity="0.6"/>
<circle cx="162.4" cy="339.1" r="3.0" fill="#dffffa" fill-opacity="0.6"/>
<circle cx="172.1" cy="182.2" r="3.0" fill="#dffffa" fill-opacity="0.6"/>
<circle cx="120.2" cy="183.8" r="3.0" fill="#dffffa" fill-opacity="0.6"/>
<circle cx="68.3" cy="185.5" r="3.0" fill="#dffffa" fill-opacity="0.6"/>
<line x1="250.0" y1="179.76" x2="478.0" y2="179.8" stroke="#2a2ef3" stroke-width="2.57" opacity="0.35"/>
<line x1="250.0" y1="179.76" x2="446.9" y2="294.8" stroke="#3734e6" stroke-width="2.57" opacity="0.37"/>
<line x1="250.0" y1="179.76" x2="361.9" y2="378.4" stroke="#453bd8" stroke-width="2.57" opacity="0.39"/>
<line x1="250.0" y1="179.76" x2="246.4" y2="407.8" stroke="#5241cb" stroke-width="2.57" opacity="0.40"/>
<line x1="250.0" y1="179.76" x2="131.9" y2="374.8" stroke="#6048bd" stroke-width="2.57" opacity="0.42"/>
<line x1="250.0" y1="179.76" x2="49.6" y2="288.6" stroke="#6d4eb0" stroke-width="2.57" opacity="0.44"/>
<line x1="250.0" y1="179.76" x2="22.1" y2="172.6" stroke="#7b55a2" stroke-width="2.57" opacity="0.46"/>
<line x1="250.0" y1="179.76" x2="56.8" y2="58.6" stroke="#885c95" stroke-width="2.57" opacity="0.48"/>
<line x1="250.0" y1="179.76" x2="144.3" y2="-22.3" stroke="#966287" stroke-width="2.57" opacity="0.50"/>
<line x1="250.0" y1="179.76" x2="260.7" y2="-48.0" stroke="#a3697a" stroke-width="2.57" opacity="0.52"/>
<line x1="250.0" y1="179.76" x2="374.2" y2="-11.5" stroke="#b1706c" stroke-width="2.57" opacity="0.53"/>
<line x1="250.0" y1="179.76" x2="453.7" y2="77.3" stroke="#be765f" stroke-width="2.57" opacity="0.55"/>
<circle cx="327.9" cy="179.8" r="3.0" fill="#aed0ff" fill-opacity="0.6"/>
<circle cx="379.9" cy="179.8" r="3.0" fill="#aed0ff" fill-opacity="0.6"/>
<circle cx="431.8" cy="179.8" r="3.0" fill="#aed0ff" fill-opacity="0.6"/>
<circle cx="309.8" cy="229.7" r="3.0" fill="#aed0ff" fill-opacity="0.6"/>
<circle cx="349.6" cy="263.1" r="3.0" fill="#aed0ff" fill-opacity="0.6"/>
<circle cx="389.5" cy="296.4" r="3.0" fill="#aed0ff" fill-opacity="0.6"/>
<circle cx="263.8" cy="256.4" r="3.0" fill="#aed0ff" fill-opacity="0.6"/>
<circle cx="273.0" cy="307.6" r="3.0" fill="#aed0ff" fill-opacity="0.6"/>
<circle cx="282.2" cy="358.7" r="3.0" fill="#aed0ff" fill-opacity="0.6"/>
<circle cx="211.4" cy="247.4" r="3.0" fill="#aed0ff" fill-opacity="0.6"/>
<circle cx="185.7" cy="292.6" r="3.0" fill="#aed0ff" fill-opacity="0.6"/>
<circle cx="159.9" cy="337.7" r="3.0" fill="#aed0ff" fill-opacity="0.6"/>
<circle cx="177.0" cy="206.9" r="3.0" fill="#aed0ff" fill-opacity="0.6"/>
<circle cx="128.3" cy="225.0" r="3.0" fill="#aed0ff" fill-opacity="0.6"/>
<circle cx="79.6" cy="243.1" r="3.0" fill="#aed0ff" fill-opacity="0.6"/>
<circle cx="176.5" cy="153.7" r="3.0" fill="#aed0ff" fill-opacity="0.6"/>
<circle cx="127.6" cy="136.4" r="3.0" fill="#aed0ff" fill-opacity="0.6"/>
<circle cx="78.6" cy="119.1" r="3.0" fill="#aed0ff" fill-opacity="0.6"/>
<circle cx="353.9" cy="179.8" r="3.0" fill="#a8ffff" fill-opacity="0.6"/>
<circle cx="405.8" cy="179.8" r="3.0" fill="#a8ffff" fill-opacity="0.6"/>
<circle cx="457.8" cy="179.8" r="3.0" fill="#a8ffff" fill-opacity="0.6"/>
<circle cx="285.2" cy="277.5" r="3.0" fill="#a8ffff" fill-opacity="0.6"/>
<circle cx="302.8" cy="326.4" r="3.0" fill="#a8ffff" fill-opacity="0.6"/>
<circle cx="320.4" cy="375.3" r="3.0" fill="#a8ffff" fill-opacity="0.6"/>
<circle cx="169.9" cy="246.0" r="3.0" fill="#a8ffff" fill-opacity="0.6"/>
<circle cx="129.9" cy="279.1" r="3.0" fill="#a8ffff" fill-opacity="0.6"/>
<circle cx="89.9" cy="312.2" r="3.0" fill="#a8ffff" fill-opacity="0.6"/>
<circle cx="160.6" cy="126.9" r="3.0" fill="#a8ffff" fill-opacity="0.6"/>
<circle cx="115.9" cy="100.4" r="3.0" fill="#a8ffff" fill-opacity="0.6"/>
<circle cx="71.1" cy="74.0" r="3.0" fill="#a8ffff" fill-opacity="0.6"/>
<circle cx="379.9" cy="179.8" r="3.0" fill="#7edad2" fill-opacity="0.6"/>
<circle cx="431.8" cy="179.8" r="3.0" fill="#7edad2" fill-opacity="0.6"/>
<circle cx="217.7" cy="305.5" r="3.0" fill="#7edad2" fill-opacity="0.6"/>
<circle cx="204.8" cy="355.9" r="3.0" fill="#7edad2" fill-opacity="0.6"/>
<circle cx="136.2" cy="117.2" r="3.0" fill="#7edad2" fill-opacity="0.6"/>
<circle cx="90.7" cy="92.2" r="3.0" fill="#7edad2" fill-opacity="0.6"/>
<circle cx="250.0" cy="179.76" r="233.8" fill="#8d65bd" fill-opacity="0.22" stroke="#8d65bd" stroke-width="1.5"/>
<circle cx="250.0" cy="179.76" r="207.8" fill="#816dc8" fill-opacity="0.22" stroke="#816dc8" stroke-width="1.5"/>
<circle cx="250.0" cy="179.76" r="181.8" fill="#7675d2" fill-opacity="0.21" stroke="#7675d2" stroke-width="1.5"/>
<circle cx="250.0" cy="179.76" r="155.8" fill="#6b7cda" fill-opacity="0.21" stroke="#6b7cda" stroke-width="1.5"/>
<circle cx="250.0" cy="179.76" r="129.9" fill="#5f84de" fill-opacity="0.21" stroke="#5f84de" stroke-width="1.5"/>
<circle cx="250.0" cy="179.76" r="103.9" fill="#548cde" fill-opacity="0.20" stroke="#548cde" stroke-width="1.5"/>
<circle cx="250.0" cy="179.76" r="77.9" fill="#4994da" fill-opacity="0.20" stroke="#4994da" stroke-width="1.5"/>
<circle cx="250.0" cy="179.76" r="51.9" fill="#3d9cd2" fill-opacity="0.20" stroke="#3d9cd2" stroke-width="1.5"/>
<circle cx="250.0" cy="179.76" r="26.0" fill="#32a3c8" fill-opacity="0.19" stroke="#32a3c8" stroke-width="1.5"/>
<circle cx="457.8" cy="179.8" r="3.0" fill="#86f5ff" fill-opacity="0.6"/>
<circle cx="53.2" cy="113.0" r="3.0" fill="#86f5ff" fill-opacity="0.6"/>
<circle cx="414.8" cy="306.3" r="3.0" fill="#86f5ff" fill-opacity="0.6"/>
<line x1="250.0" y1="179.76" x2="478.0" y2="179.8" stroke="#3223153" stroke-width="2.57" opacity="0.31"/>
<line x1="250.0" y1="179.76" x2="423.0" y2="328.3" stroke="#3d29148" stroke-width="2.57" opacity="0.33"/>
<line x1="250.0" y1="179.76" x2="284.5" y2="405.2" stroke="#492f13c" stroke-width="2.57" opacity="0.35"/>
<line x1="250.0" y1="179.76" x2="129.3" y2="373.3" stroke="#5536130" stroke-width="2.57" opacity="0.38"/>
<line x1="250.0" y1="179.76" x2="32.4" y2="248.0" stroke="#613d124" stroke-width="2.57" opacity="0.40"/>
<line x1="250.0" y1="179.76" x2="40.5" y2="89.7" stroke="#6d44118" stroke-width="2.57" opacity="0.42"/>
<line x1="250.0" y1="179.76" x2="149.7" y2="-25.0" stroke="#794a10c" stroke-width="2.57" opacity="0.45"/>
<line x1="250.0" y1="179.76" x2="307.3" y2="-41.0" stroke="#8551100" stroke-width="2.57" opacity="0.47"/>
<line x1="250.0" y1="179.76" x2="437.3" y2="49.6" stroke="#9158f4" stroke-width="2.57" opacity="0.49"/>
<line x1="250.0" y1="179.76" x2="476.9" y2="203.0" stroke="#9d5ee8" stroke-width="2.57" opacity="0.51"/>
<line x1="250.0" y1="179.76" x2="407.0" y2="345.2" stroke="#a965dc" stroke-width="2.57" opacity="0.54"/>
<line x1="250.0" y1="179.76" x2="261.3" y2="407.5" stroke="#b56cd0" stroke-width="2.57" opacity="0.56"/>
<circle cx="250.0" cy="179.76" r="233.8" fill="#e7-1f9" fill-opacity="0.21" stroke="#e7-1f9" stroke-width="1.5"/>
<circle cx="250.0" cy="179.76" r="207.8" fill="#d20810d" fill-opacity="0.20" stroke="#d20810d" stroke-width="1.5"/>
<circle cx="250.0" cy="179.76" r="181.8" fill="#bd11120" fill-opacity="0.19" stroke="#bd11120" stroke-width="1.5"/>
<circle cx="250.0" cy="179.76" r="155.8" fill="#a81b12d" fill-opacity="0.19" stroke="#a81b12d" stroke-width="1.5"/>
<circle cx="250.0" cy="179.76" r="129.9" fill="#9324135" fill-opacity="0.18" stroke="#9324135" stroke-width="1.5"/>
<circle cx="250.0" cy="179.76" r="103.9" fill="#7e2e135" fill-opacity="0.17" stroke="#7e2e135" stroke-width="1.5"/>
<circle cx="250.0" cy="179.76" r="77.9" fill="#693712d" fill-opacity="0.16" stroke="#693712d" stroke-width="1.5"/>
<circle cx="250.0" cy="179.76" r="51.9" fill="#5441120" fill-opacity="0.16" stroke="#5441120" stroke-width="1.5"/>
<circle cx="250.0" cy="179.76" r="26.0" fill="#3f4a10d" fill-opacity="0.15" stroke="#3f4a10d" stroke-width="1.5"/>
<circle cx="301.9" cy="179.8" r="3.0" fill="#7bccee" fill-opacity="0.6"/>
<circle cx="353.9" cy="179.8" r="3.0" fill="#7bccee" fill-opacity="0.6"/>
<circle cx="405.8" cy="179.8" r="3.0" fill="#7bccee" fill-opacity="0.6"/>
<circle cx="457.8" cy="179.8" r="3.0" fill="#7bccee" fill-opacity="0.6"/>
<circle cx="258.9" cy="230.9" r="3.0" fill="#7bccee" fill-opacity="0.6"/>
<circle cx="267.9" cy="282.1" r="3.0" fill="#7bccee" fill-opacity="0.6"/>
<circle cx="276.8" cy="333.3" r="3.0" fill="#7bccee" fill-opacity="0.6"/>
<circle cx="285.7" cy="384.5" r="3.0" fill="#7bccee" fill-opacity="0.6"/>
<circle cx="201.1" cy="197.4" r="3.0" fill="#7bccee" fill-opacity="0.6"/>
<circle cx="152.2" cy="215.0" r="3.0" fill="#7bccee" fill-opacity="0.6"/>
<circle cx="103.4" cy="232.5" r="3.0" fill="#7bccee" fill-opacity="0.6"/>
<circle cx="54.5" cy="250.1" r="3.0" fill="#7bccee" fill-opacity="0.6"/>
<circle cx="224.3" cy="134.6" r="3.0" fill="#7bccee" fill-opacity="0.6"/>
<circle cx="198.5" cy="89.5" r="3.0" fill="#7bccee" fill-opacity="0.6"/>
<circle cx="172.8" cy="44.4" r="3.0" fill="#7bccee" fill-opacity="0.6"/>
<circle cx="147.1" cy="-0.7" r="3.0" fill="#7bccee" fill-opacity="0.6"/>
<circle cx="290.0" cy="146.6" r="3.0" fill="#7bccee" fill-opacity="0.6"/>
<circle cx="330.1" cy="113.5" r="3.0" fill="#7bccee" fill-opacity="0.6"/>
<circle cx="370.1" cy="80.4" r="3.0" fill="#7bccee" fill-opacity="0.6"/>
<circle cx="410.1" cy="47.3" r="3.0" fill="#7bccee" fill-opacity="0.6"/>
<circle cx="289.5" cy="213.5" r="3.0" fill="#7bccee" fill-opacity="0.6"/>
<circle cx="329.0" cy="247.2" r="3.0" fill="#7bccee" fill-opacity="0.6"/>
<circle cx="368.5" cy="281.0" r="3.0" fill="#7bccee" fill-opacity="0.6"/>
<circle cx="408.0" cy="314.7" r="3.0" fill="#7bccee" fill-opacity="0.6"/>
<circle cx="327.9" cy="179.8" r="3.0" fill="#cfb6ff" fill-opacity="0.6"/>
<circle cx="379.9" cy="179.8" r="3.0" fill="#cfb6ff" fill-opacity="0.6"/>
<circle cx="431.8" cy="179.8" r="3.0" fill="#cfb6ff" fill-opacity="0.6"/>
<circle cx="285.0" cy="249.4" r="3.0" fill="#cfb6ff" fill-opacity="0.6"/>
<circle cx="308.4" cy="295.8" r="3.0" fill="#cfb6ff" fill-opacity="0.6"/>
<circle cx="331.7" cy="342.2" r="3.0" fill="#cfb6ff" fill-opacity="0.6"/>
<circle cx="203.5" cy="242.3" r="3.0" fill="#cfb6ff" fill-opacity="0.6"/>
<circle cx="172.6" cy="284.0" r="3.0" fill="#cfb6ff" fill-opacity="0.6"/>
<circle cx="141.6" cy="325.7" r="3.0" fill="#cfb6ff" fill-opacity="0.6"/>
<circle cx="173.2" cy="166.4" r="3.0" fill="#cfb6ff" fill-opacity="0.6"/>
<circle cx="122.1" cy="157.4" r="3.0" fill="#cfb6ff" fill-opacity="0.6"/>
<circle cx="70.9" cy="148.5" r="3.0" fill="#cfb6ff" fill-opacity="0.6"/>
<circle cx="227.5" cy="105.2" r="3.0" fill="#cfb6ff" fill-opacity="0.6"/>
<circle cx="212.5" cy="55.4" r="3.0" fill="#cfb6ff" fill-opacity="0.6"/>
<circle cx="197.5" cy="5.7" r="3.0" fill="#cfb6ff" fill-opacity="0.6"/>
<circle cx="306.5" cy="126.1" r="3.0" fill="#cfb6ff" fill-opacity="0.6"/>
<circle cx="344.2" cy="90.4" r="3.0" fill="#cfb6ff" fill-opacity="0.6"/>
<circle cx="381.9" cy="54.6" r="3.0" fill="#cfb6ff" fill-opacity="0.6"/>
<circle cx="327.9" cy="179.8" r="3.0" fill="#c1b4cc" fill-opacity="0.6"/>
<circle cx="379.9" cy="179.8" r="3.0" fill="#c1b4cc" fill-opacity="0.6"/>
<circle cx="431.8" cy="179.8" r="3.0" fill="#c1b4cc" fill-opacity="0.6"/>
<circle cx="305.7" cy="234.3" r="3.0" fill="#c1b4cc" fill-opacity="0.6"/>
<circle cx="342.8" cy="270.6" r="3.0" fill="#c1b4cc" fill-opacity="0.6"/>
<circle cx="379.9" cy="307.0" r="3.0" fill="#c1b4cc" fill-opacity="0.6"/>
<circle cx="251.6" cy="257.7" r="3.0" fill="#c1b4cc" fill-opacity="0.6"/>
<circle cx="252.7" cy="309.6" r="3.0" fill="#c1b4cc" fill-opacity="0.6"/>
<circle cx="253.8" cy="361.5" r="3.0" fill="#c1b4cc" fill-opacity="0.6"/>
<circle cx="196.7" cy="236.6" r="3.0" fill="#c1b4cc" fill-opacity="0.6"/>
<circle cx="161.1" cy="274.4" r="3.0" fill="#c1b4cc" fill-opacity="0.6"/>
<circle cx="125.5" cy="312.3" r="3.0" fill="#c1b4cc" fill-opacity="0.6"/>
<circle cx="172.1" cy="183.0" r="3.0" fill="#c1b4cc" fill-opacity="0.6"/>
<circle cx="120.2" cy="185.2" r="3.0" fill="#c1b4cc" fill-opacity="0.6"/>
<circle cx="68.3" cy="187.4" r="3.0" fill="#c1b4cc" fill-opacity="0.6"/>
<circle cx="192.1" cy="127.6" r="3.0" fill="#c1b4cc" fill-opacity="0.6"/>
<circle cx="153.5" cy="92.9" r="3.0" fill="#c1b4cc" fill-opacity="0.6"/>
<circle cx="114.9" cy="58.1" r="3.0" fill="#c1b4cc" fill-opacity="0.6"/>
<circle cx="250.0" cy="179.76" r="233.8" fill="#b24aef" fill-opacity="0.25" stroke="#b24aef" stroke-width="1.5"/>
<circle cx="250.0" cy="179.76" r="207.8" fill="#a254fd" fill-opacity="0.25" stroke="#a254fd" stroke-width="1.5"/>
<circle cx="250.0" cy="179.76" r="181.8" fill="#935e109" fill-opacity="0.24" stroke="#935e109" stroke-width="1.5"/>
<circle cx="250.0" cy="179.76" r="155.8" fill="#8468113" fill-opacity="0.24" stroke="#8468113" stroke-width="1.5"/>
<circle cx="250.0" cy="179.76" r="129.9" fill="#7572118" fill-opacity="0.23" stroke="#7572118" stroke-width="1.5"/>
<circle cx="250.0" cy="179.76" r="103.9" fill="#667c118" fill-opacity="0.23" stroke="#667c118" stroke-width="1.5"/>
<circle cx="250.0" cy="179.76" r="77.9" fill="#5786113" fill-opacity="0.22" stroke="#5786113" stroke-width="1.5"/>
<circle cx="250.0" cy="179.76" r="51.9" fill="#4890109" fill-opacity="0.22" stroke="#4890109" stroke-width="1.5"/>
<circle cx="250.0" cy="179.76" r="26.0" fill="#399afd" fill-opacity="0.21" stroke="#399afd" stroke-width="1.5"/>
<circle cx="327.9" cy="179.8" r="3.0" fill="#8dff9f" fill-opacity="0.6"/>
<circle cx="379.9" cy="179.8" r="3.0" fill="#8dff9f" fill-opacity="0.6"/>
<circle cx="431.8" cy="179.8" r="3.0" fill="#8dff9f" fill-opacity="0.6"/>
<circle cx="234.2" cy="256.1" r="3.0" fill="#8dff9f" fill-opacity="0.6"/>
<circle cx="223.7" cy="306.9" r="3.0" fill="#8dff9f" fill-opacity="0.6"/>
<circle cx="213.1" cy="357.8" r="3.0" fill="#8dff9f" fill-opacity="0.6"/>
<circle cx="178.5" cy="148.8" r="3.0" fill="#8dff9f" fill-opacity="0.6"/>
<circle cx="130.8" cy="128.2" r="3.0" fill="#8dff9f" fill-opacity="0.6"/>
<circle cx="83.1" cy="107.6" r="3.0" fill="#8dff9f" fill-opacity="0.6"/>
<circle cx="294.8" cy="116.0" r="3.0" fill="#8dff9f" fill-opacity="0.6"/>
<circle cx="324.7" cy="73.5" r="3.0" fill="#8dff9f" fill-opacity="0.6"/>
<circle cx="354.5" cy="31.0" r="3.0" fill="#8dff9f" fill-opacity="0.6"/>
<circle cx="379.9" cy="179.8" r="3.0" fill="#adedd8" fill-opacity="0.6"/>
<circle cx="431.8" cy="179.8" r="3.0" fill="#adedd8" fill-opacity="0.6"/>
<circle cx="265.6" cy="308.7" r="3.0" fill="#adedd8" fill-opacity="0.6"/>
<circle cx="271.8" cy="360.3" r="3.0" fill="#adedd8" fill-opacity="0.6"/>
<circle cx="123.9" cy="210.7" r="3.0" fill="#adedd8" fill-opacity="0.6"/>
<circle cx="73.4" cy="223.1" r="3.0" fill="#adedd8" fill-opacity="0.6"/>
<circle cx="204.1" cy="58.3" r="3.0" fill="#adedd8" fill-opacity="0.6"/>
<circle cx="185.7" cy="9.7" r="3.0" fill="#adedd8" fill-opacity="0.6"/>
<circle cx="365.1" cy="119.6" r="3.0" fill="#adedd8" fill-opacity="0.6"/>
<circle cx="411.1" cy="95.5" r="3.0" fill="#adedd8" fill-opacity="0.6"/>
<circle cx="323.6" cy="286.8" r="3.0" fill="#adedd8" fill-opacity="0.6"/>
<circle cx="353.0" cy="329.6" r="3.0" fill="#adedd8" fill-opacity="0.6"/>
<circle cx="353.9" cy="179.8" r="3.0" fill="#adedd8" fill-opacity="0.6"/>
<circle cx="405.8" cy="179.8" r="3.0" fill="#adedd8" fill-opacity="0.6"/>
<circle cx="457.8" cy="179.8" r="3.0" fill="#adedd8" fill-opacity="0.6"/>
<circle cx="297.7" cy="272.1" r="3.0" fill="#adedd8" fill-opacity="0.6"/>
<circle cx="321.5" cy="318.2" r="3.0" fill="#adedd8" fill-opacity="0.6"/>
<circle cx="345.3" cy="364.4" r="3.0" fill="#adedd8" fill-opacity="0.6"/>
<circle cx="189.8" cy="264.4" r="3.0" fill="#adedd8" fill-opacity="0.6"/>
<circle cx="159.7" cy="306.8" r="3.0" fill="#adedd8" fill-opacity="0.6"/>
<circle cx="129.6" cy="349.1" r="3.0" fill="#adedd8" fill-opacity="0.6"/>
<circle cx="147.1" cy="165.1" r="3.0" fill="#adedd8" fill-opacity="0.6"/>
<circle cx="95.7" cy="157.8" r="3.0" fill="#adedd8" fill-opacity="0.6"/>
<circle cx="44.3" cy="150.5" r="3.0" fill="#adedd8" fill-opacity="0.6"/>
<circle cx="215.8" cy="81.6" r="3.0" fill="#adedd8" fill-opacity="0.6"/>
<circle cx="198.7" cy="32.6" r="3.0" fill="#adedd8" fill-opacity="0.6"/>
<circle cx="181.7" cy="-16.5" r="3.0" fill="#adedd8" fill-opacity="0.6"/>
<circle cx="321.5" cy="104.4" r="3.0" fill="#adedd8" fill-opacity="0.6"/>
<circle cx="357.3" cy="66.7" r="3.0" fill="#adedd8" fill-opacity="0.6"/>
<circle cx="393.0" cy="29.0" r="3.0" fill="#adedd8" fill-opacity="0.6"/>
<circle cx="327.9" cy="179.8" r="3.0" fill="#adedd8" fill-opacity="0.6"/>
<circle cx="379.9" cy="179.8" r="3.0" fill="#adedd8" fill-opacity="0.6"/>
<circle cx="431.8" cy="179.8" r="3.0" fill="#adedd8" fill-opacity="0.6"/>
<circle cx="277.9" cy="252.5" r="3.0" fill="#adedd8" fill-opacity="0.6"/>
<circle cx="296.5" cy="301.0" r="3.0" fill="#adedd8" fill-opacity="0.6"/>
<circle cx="315.2" cy="349.5" r="3.0" fill="#adedd8" fill-opacity="0.6"/>
<circle cx="192.1" cy="231.9" r="3.0" fill="#adedd8" fill-opacity="0.6"/>
<circle cx="153.5" cy="266.7" r="3.0" fill="#adedd8" fill-opacity="0.6"/>
<circle cx="114.9" cy="301.4" r="3.0" fill="#adedd8" fill-opacity="0.6"/>
<circle cx="180.6" cy="144.4" r="3.0" fill="#adedd8" fill-opacity="0.6"/>
<circle cx="134.3" cy="120.8" r="3.0" fill="#adedd8" fill-opacity="0.6"/>
<circle cx="88.0" cy="97.2" r="3.0" fill="#adedd8" fill-opacity="0.6"/>
<circle cx="258.1" cy="102.3" r="3.0" fill="#adedd8" fill-opacity="0.6"/>
<circle cx="263.6" cy="50.6" r="3.0" fill="#adedd8" fill-opacity="0.6"/>
<circle cx="269.0" cy="-1.1" r="3.0" fill="#adedd8" fill-opacity="0.6"/>
<circle cx="325.3" cy="159.6" r="3.0" fill="#adedd8" fill-opacity="0.6"/>
<circle cx="375.4" cy="146.1" r="3.0" fill="#adedd8" fill-opacity="0.6"/>
<circle cx="425.6" cy="132.7" r="3.0" fill="#adedd8" fill-opacity="0.6"/>
<circle cx="301.9" cy="179.8" r="3.0" fill="#b8c190" fill-opacity="0.6"/>
<circle cx="353.9" cy="179.8" r="3.0" fill="#b8c190" fill-opacity="0.6"/>
<circle cx="405.8" cy="179.8" r="3.0" fill="#b8c190" fill-opacity="0.6"/>
<circle cx="457.8" cy="179.8" r="3.0" fill="#b8c190" fill-opacity="0.6"/>
<circle cx="284.0" cy="219.0" r="3.0" fill="#b8c190" fill-opacity="0.6"/>
<circle cx="318.1" cy="258.2" r="3.0" fill="#b8c190" fill-opacity="0.6"/>
<circle cx="352.1" cy="297.5" r="3.0" fill="#b8c190" fill-opacity="0.6"/>
<circle cx="386.2" cy="336.7" r="3.0" fill="#b8c190" fill-opacity="0.6"/>
<circle cx="242.7" cy="231.2" r="3.0" fill="#b8c190" fill-opacity="0.6"/>
<circle cx="235.4" cy="282.6" r="3.0" fill="#b8c190" fill-opacity="0.6"/>
<circle cx="228.0" cy="334.0" r="3.0" fill="#b8c190" fill-opacity="0.6"/>
<circle cx="220.7" cy="385.5" r="3.0" fill="#b8c190" fill-opacity="0.6"/>
<circle cx="206.4" cy="207.9" r="3.0" fill="#b8c190" fill-opacity="0.6"/>
<circle cx="162.7" cy="236.1" r="3.0" fill="#b8c190" fill-opacity="0.6"/>
<circle cx="119.1" cy="264.3" r="3.0" fill="#b8c190" fill-opacity="0.6"/>
<circle cx="75.4" cy="292.5" r="3.0" fill="#b8c190" fill-opacity="0.6"/>
<circle cx="250.0" cy="179.76" r="233.8" fill="#13a09cb" fill-opacity="0.15" stroke="#13a09cb" stroke-width="1.5"/>
<circle cx="250.0" cy="179.76" r="207.8" fill="#11b12e8" fill-opacity="0.14" stroke="#11b12e8" stroke-width="1.5"/>
<circle cx="250.0" cy="179.76" r="181.8" fill="#fc1a102" fill-opacity="0.14" stroke="#fc1a102" stroke-width="1.5"/>
<circle cx="250.0" cy="179.76" r="155.8" fill="#de23116" fill-opacity="0.13" stroke="#de23116" stroke-width="1.5"/>
<circle cx="250.0" cy="179.76" r="129.9" fill="#bf2b120" fill-opacity="0.13" stroke="#bf2b120" stroke-width="1.5"/>
<circle cx="250.0" cy="179.76" r="103.9" fill="#a033120" fill-opacity="0.12" stroke="#a033120" stroke-width="1.5"/>
<circle cx="250.0" cy="179.76" r="77.9" fill="#823c116" fill-opacity="0.12" stroke="#823c116" stroke-width="1.5"/>
<circle cx="250.0" cy="179.76" r="51.9" fill="#6344102" fill-opacity="0.11" stroke="#6344102" stroke-width="1.5"/>
<circle cx="250.0" cy="179.76" r="26.0" fill="#444de8" fill-opacity="0.11" stroke="#444de8" stroke-width="1.5"/>
<line x1="250.0" y1="179.76" x2="478.0" y2="179.8" stroke="#333cee" stroke-width="2.57" opacity="0.35"/>
<line x1="250.0" y1="179.76" x2="457.8" y2="273.6" stroke="#3e43e3" stroke-width="2.57" opacity="0.39"/>
<line x1="250.0" y1="179.76" x2="400.8" y2="350.8" stroke="#4a4ad7" stroke-width="2.57" opacity="0.42"/>
<line x1="250.0" y1="179.76" x2="317.1" y2="397.7" stroke="#5652cb" stroke-width="2.57" opacity="0.46"/>
<line x1="250.0" y1="179.76" x2="221.4" y2="406.0" stroke="#6159c0" stroke-width="2.57" opacity="0.50"/>
<line x1="250.0" y1="179.76" x2="130.8" y2="374.2" stroke="#6d61b4" stroke-width="2.57" opacity="0.53"/>
<line x1="250.0" y1="179.76" x2="61.4" y2="307.9" stroke="#7968a8" stroke-width="2.57" opacity="0.57"/>
<line x1="250.0" y1="179.76" x2="25.4" y2="219.0" stroke="#846f9d" stroke-width="2.57" opacity="0.61"/>
<line x1="250.0" y1="179.76" x2="29.1" y2="123.0" stroke="#907791" stroke-width="2.57" opacity="0.64"/>
<line x1="250.0" y1="179.76" x2="72.0" y2="37.2" stroke="#9c7f85" stroke-width="2.57" opacity="0.68"/>
<line x1="250.0" y1="179.76" x2="146.5" y2="-23.4" stroke="#a7867a" stroke-width="2.57" opacity="0.72"/>
<line x1="250.0" y1="179.76" x2="239.3" y2="-48.0" stroke="#b38d6e" stroke-width="2.57" opacity="0.75"/>
<circle cx="327.9" cy="179.8" r="3.0" fill="#aeda9f" fill-opacity="0.6"/>
<circle cx="379.9" cy="179.8" r="3.0" fill="#aeda9f" fill-opacity="0.6"/>
<circle cx="431.8" cy="179.8" r="3.0" fill="#aeda9f" fill-opacity="0.6"/>
<circle cx="260.6" cy="257.0" r="3.0" fill="#aeda9f" fill-opacity="0.6"/>
<circle cx="267.6" cy="308.4" r="3.0" fill="#aeda9f" fill-opacity="0.6"/>
<circle cx="274.7" cy="359.9" r="3.0" fill="#aeda9f" fill-opacity="0.6"/>
<circle cx="175.0" cy="200.7" r="3.0" fill="#aeda9f" fill-opacity="0.6"/>
<circle cx="124.9" cy="214.7" r="3.0" fill="#aeda9f" fill-opacity="0.6"/>
<circle cx="74.9" cy="228.7" r="3.0" fill="#aeda9f" fill-opacity="0.6"/>
<circle cx="219.1" cy="108.2" r="3.0" fill="#aeda9f" fill-opacity="0.6"/>
<circle cx="198.4" cy="60.6" r="3.0" fill="#aeda9f" fill-opacity="0.6"/>
<circle cx="177.8" cy="12.9" r="3.0" fill="#aeda9f" fill-opacity="0.6"/>
<circle cx="316.6" cy="139.4" r="3.0" fill="#aeda9f" fill-opacity="0.6"/>
<circle cx="361.1" cy="112.5" r="3.0" fill="#aeda9f" fill-opacity="0.6"/>
<circle cx="405.5" cy="85.6" r="3.0" fill="#aeda9f" fill-opacity="0.6"/>
<circle cx="299.0" cy="240.3" r="3.0" fill="#aeda9f" fill-opacity="0.6"/>
<circle cx="331.7" cy="280.7" r="3.0" fill="#aeda9f" fill-opacity="0.6"/>
<circle cx="364.4" cy="321.1" r="3.0" fill="#aeda9f" fill-opacity="0.6"/>
<line x1="250.0" y1="179.76" x2="478.0" y2="179.8" stroke="#223af2" stroke-width="2.57" opacity="0.27"/>
<line x1="250.0" y1="179.76" x2="417.9" y2="334.1" stroke="#2f41e5" stroke-width="2.57" opacity="0.29"/>
<line x1="250.0" y1="179.76" x2="269.1" y2="407.0" stroke="#3c48d8" stroke-width="2.57" opacity="0.32"/>
<line x1="250.0" y1="179.76" x2="110.2" y2="359.9" stroke="#4a50ca" stroke-width="2.57" opacity="0.34"/>
<line x1="250.0" y1="179.76" x2="25.2" y2="217.8" stroke="#5757bd" stroke-width="2.57" opacity="0.37"/>
<line x1="250.0" y1="179.76" x2="58.7" y2="55.6" stroke="#655eaf" stroke-width="2.57" opacity="0.39"/>
<line x1="250.0" y1="179.76" x2="193.3" y2="-41.1" stroke="#7266a2" stroke-width="2.57" opacity="0.42"/>
<line x1="250.0" y1="179.76" x2="357.8" y2="-21.2" stroke="#7f6d95" stroke-width="2.57" opacity="0.44"/>
<line x1="250.0" y1="179.76" x2="465.4" y2="104.8" stroke="#8d7487" stroke-width="2.57" opacity="0.46"/>
<line x1="250.0" y1="179.76" x2="459.3" y2="270.3" stroke="#9a7c7a" stroke-width="2.57" opacity="0.49"/>
<line x1="250.0" y1="179.76" x2="342.8" y2="388.1" stroke="#a8836c" stroke-width="2.57" opacity="0.51"/>
<line x1="250.0" y1="179.76" x2="177.3" y2="395.9" stroke="#b58a5f" stroke-width="2.57" opacity="0.54"/>
<circle cx="250.0" cy="179.76" r="233.8" fill="#15806e8" fill-opacity="0.13" stroke="#15806e8" stroke-width="1.5"/>
<circle cx="250.0" cy="179.76" r="207.8" fill="#1340dfc" fill-opacity="0.12" stroke="#1340dfc" stroke-width="1.5"/>
<circle cx="250.0" cy="179.76" r="181.8" fill="#1111410d" fill-opacity="0.12" stroke="#1111410d" stroke-width="1.5"/>
<circle cx="250.0" cy="179.76" r="155.8" fill="#ee1a11b" fill-opacity="0.11" stroke="#ee1a11b" stroke-width="1.5"/>
<circle cx="250.0" cy="179.76" r="129.9" fill="#ca21122" fill-opacity="0.11" stroke="#ca21122" stroke-width="1.5"/>
<circle cx="250.0" cy="179.76" r="103.9" fill="#a727122" fill-opacity="0.10" stroke="#a727122" stroke-width="1.5"/>
<circle cx="250.0" cy="179.76" r="77.9" fill="#842e11b" fill-opacity="0.10" stroke="#842e11b" stroke-width="1.5"/>
<circle cx="250.0" cy="179.76" r="51.9" fill="#603410d" fill-opacity="0.09" stroke="#603410d" stroke-width="1.5"/>
<circle cx="250.0" cy="179.76" r="26.0" fill="#3d3bfc" fill-opacity="0.09" stroke="#3d3bfc" stroke-width="1.5"/>
<circle cx="250.0" cy="179.76" r="8.0" fill="#bfd1d3" fill-opacity="0.9"/>
</svg>