<svg xmlns="http://www.w3.org/2000/svg" width="500" height="500" viewBox="0 0 500 500">
<rect width="500" height="500" fill="#00343b"/>
<circle cx="337.0" cy="267.9" r="3.0" fill="#a6ffe3" fill-opacity="0.6"/>
<circle cx="371.8" cy="267.9" r="3.0" fill="#a6ffe3" fill-opacity="0.6"/>
<circle cx="406.5" cy="267.9" r="3.0" fill="#a6ffe3" fill-opacity="0.6"/>
<circle cx="441.3" cy="267.9" r="3.0" fill="#a6ffe3" fill-opacity="0.6"/>
<circle cx="290.0" cy="345.1" r="3.0" fill="#a6ffe3" fill-opacity="0.6"/>
<circle cx="306.0" cy="376.0" r="3.0" fill="#a6ffe3" fill-opacity="0.6"/>
<circle cx="321.9" cy="406.9" r="3.0" fill="#a6ffe3" fill-opacity="0.6"/>
<circle cx="337.9" cy="437.8" r="3.0" fill="#a6ffe3" fill-opacity="0.6"/>
<circle cx="199.8" cy="338.9" r="3.0" fill="#a6ffe3" fill-opacity="0.6"/>
<circle cx="179.7" cy="367.3" r="3.0" fill="#a6ffe3" fill-opacity="0.6"/>
<circle cx="159.6" cy="395.7" r="3.0" fill="#a6ffe3" fill-opacity="0.6"/>
<circle cx="139.5" cy="424.1" r="3.0" fill="#a6ffe3" fill-opacity="0.6"/>
<circle cx="163.9" cy="255.9" r="3.0" fill="#a6ffe3" fill-opacity="0.6"/>
<circle cx="129.4" cy="251.1" r="3.0" fill="#a6ffe3" fill-opacity="0.6"/>
<circle cx="94.9" cy="246.3" r="3.0" fill="#a6ffe3" fill-opacity="0.6"/>
<circle cx="60.5" cy="241.5" r="3.0" fill="#a6ffe3" fill-opacity="0.6"/>
<circle cx="221.1" cy="185.9" r="3.0" fill="#a6ffe3" fill-opacity="0.6"/>
<circle cx="209.5" cy="153.1" r="3.0" fill="#a6ffe3" fill-opacity="0.6"/>
<circle cx="197.9" cy="120.3" r="3.0" fill="#a6ffe3" fill-opacity="0.6"/>
<circle cx="186.3" cy="87.5" r="3.0" fill="#a6ffe3" fill-opacity="0.6"/>
<circle cx="250.0" cy="267.89" r="226.1" fill="#11414cb" fill-opacity="0.18" stroke="#11414cb" stroke-width="1.5"/>
<circle cx="250.0" cy="267.89" r="208.7" fill="#1011adf" fill-opacity="0.18" stroke="#1011adf" stroke-width="1.5"/>
<circle cx="250.0" cy="267.89" r="191.3" fill="#ef20f3" fill-opacity="0.17" stroke="#ef20f3" stroke-width="1.5"/>
<circle cx="250.0" cy="267.89" r="173.9" fill="#dd27104" fill-opacity="0.17" stroke="#dd27104" stroke-width="1.5"/>
<circle cx="250.0" cy="267.89" r="156.5" fill="#ca2d112" fill-opacity="0.16" stroke="#ca2d112" stroke-width="1.5"/>
<circle cx="250.0" cy="267.89" r="139.2" fill="#b83311c" fill-opacity="0.16" stroke="#b83311c" stroke-width="1.5"/>
<circle cx="250.0" cy="267.89" r="121.8" fill="#a639121" fill-opacity="0.15" stroke="#a639121" stroke-width="1.5"/>
<circle cx="250.0" cy="267.89" r="104.4" fill="#933f121" fill-opacity="0.15" stroke="#933f121" stroke-width="1.5"/>
<circle cx="250.0" cy="267.89" r="87.0" fill="#814611c" fill-opacity="0.14" stroke="#814611c" stroke-width="1.5"/>
<circle cx="250.0" cy="267.89" r="69.6" fill="#6f4c112" fill-opacity="0.14" stroke="#6f4c112" stroke-width="1.5"/>
<circle cx="250.0" cy="267.89" r="52.2" fill="#5c52104" fill-opacity="0.13" stroke="#5c52104" stroke-width="1.5"/>
<circle cx="250.0" cy="267.89" r="34.8" fill="#4a58f3" fill-opacity="0.13" stroke="#4a58f3" stroke-width="1.5"/>
<circle cx="250.0" cy="267.89" r="17.4" fill="#385fdf" fill-opacity="0.12" stroke="#385fdf" stroke-width="1.5"/>
<circle cx="319.6" cy="267.9" r="3.0" fill="#91c0f3" fill-opacity="0.6"/>
<circle cx="354.4" cy="267.9" r="3.0" fill="#91c0f3" fill-opacity="0.6"/>
<circle cx="389.2" cy="267.9" r="3.0" fill="#91c0f3" fill-opacity="0.6"/>
<circle cx="423.9" cy="267.9" r="3.0" fill="#91c0f3" fill-opacity="0.6"/>
<circle cx="458.7" cy="267.9" r="3.0" fill="#91c0f3" fill-opacity="0.6"/>
<circle cx="302.7" cy="313.4" r="3.0" fill="#91c0f3" fill-opacity="0.6"/>
<circle cx="329.0" cy="336.1" r="3.0" fill="#91c0f3" fill-opacity="0.6"/>
<circle cx="355.3" cy="358.8" r="3.0" fill="#91c0f3" fill-opacity="0.6"/>
<circle cx="381.7" cy="381.5" r="3.0" fill="#91c0f3" fill-opacity="0.6"/>
<circle cx="408.0" cy="404.3" r="3.0" fill="#91c0f3" fill-opacity="0.6"/>
<circle cx="260.2" cy="336.7" r="3.0" fill="#91c0f3" fill-opacity="0.6"/>
<circle cx="265.2" cy="371.1" r="3.0" fill="#91c0f3" fill-opacity="0.6"/>
<circle cx="270.3" cy="405.5" r="3.0" fill="#91c0f3" fill-opacity="0.6"/>
<circle cx="275.4" cy="440.0" r="3.0" fill="#91c0f3" fill-opacity="0.6"/>
<circle cx="280.5" cy="474.4" r="3.0" fill="#91c0f3" fill-opacity="0.6"/>
<circle cx="212.7" cy="326.6" r="3.0" fill="#91c0f3" fill-opacity="0.6"/>
<circle cx="194.1" cy="356.0" r="3.0" fill="#91c0f3" fill-opacity="0.6"/>
<circle cx="175.4" cy="385.4" r="3.0" fill="#91c0f3" fill-opacity="0.6"/>
<circle cx="156.8" cy="414.8" r="3.0" fill="#91c0f3" fill-opacity="0.6"/>
<circle cx="138.2" cy="444.1" r="3.0" fill="#91c0f3" fill-opacity="0.6"/>
<circle cx="183.4" cy="288.0" r="3.0" fill="#91c0f3" fill-opacity="0.6"/>
<circle cx="150.1" cy="298.1" r="3.0" fill="#91c0f3" fill-opacity="0.6"/>
<circle cx="116.8" cy="308.1" r="3.0" fill="#91c0f3" fill-opacity="0.6"/>
<circle cx="83.5" cy="318.2" r="3.0" fill="#91c0f3" fill-opacity="0.6"/>
<circle cx="50.2" cy="328.2" r="3.0" fill="#91c0f3" fill-opacity="0.6"/>
<circle cx="186.4" cy="239.6" r="3.0" fill="#91c0f3" fill-opacity="0.6"/>
<circle cx="154.7" cy="225.4" r="3.0" fill="#91c0f3" fill-opacity="0.6"/>
<circle cx="122.9" cy="211.3" r="3.0" fill="#91c0f3" fill-opacity="0.6"/>
<circle cx="91.1" cy="197.1" r="3.0" fill="#91c0f3" fill-opacity="0.6"/>
<circle cx="59.3" cy="183.0" r="3.0" fill="#91c0f3" fill-opacity="0.6"/>
<circle cx="220.4" cy="204.9" r="3.0" fill="#91c0f3" fill-opacity="0.6"/>
<circle cx="205.6" cy="173.5" r="3.0" fill="#91c0f3" fill-opacity="0.6"/>
<circle cx="190.8" cy="142.0" r="3.0" fill="#91c0f3" fill-opacity="0.6"/>
<circle cx="175.9" cy="110.5" r="3.0" fill="#91c0f3" fill-opacity="0.6"/>
<circle cx="161.1" cy="79.0" r="3.0" fill="#91c0f3" fill-opacity="0.6"/>
<circle cx="268.7" cy="200.9" r="3.0" fill="#91c0f3" fill-opacity="0.6"/>
<circle cx="278.1" cy="167.4" r="3.0" fill="#91c0f3" fill-opacity="0.6"/>
<circle cx="287.4" cy="133.9" r="3.0" fill="#91c0f3" fill-opacity="0.6"/>
<circle cx="296.8" cy="100.4" r="3.0" fill="#91c0f3" fill-opacity="0.6"/>
<circle cx="306.1" cy="66.9" r="3.0" fill="#91c0f3" fill-opacity="0.6"/>
<circle cx="319.6" cy="267.9" r="3.0" fill="#cbe9e8" fill-opacity="0.6"/>
<circle cx="354.4" cy="267.9" r="3.0" fill="#cbe9e8" fill-opacity="0.6"/>
<circle cx="389.2" cy="267.9" r="3.0" fill="#cbe9e8" fill-opacity="0.6"/>
<circle cx="423.9" cy="267.9" r="3.0" fill="#cbe9e8" fill-opacity="0.6"/>
<circle cx="458.7" cy="267.9" r="3.0" fill="#cbe9e8" fill-opacity="0.6"/>
<circle cx="268.1" cy="335.1" r="3.0" fill="#cbe9e8" fill-opacity="0.6"/>
<circle cx="277.2" cy="368.6" r="3.0" fill="#cbe9e8" fill-opacity="0.6"/>
<circle cx="286.3" cy="402.2" r="3.0" fill="#cbe9e8" fill-opacity="0.6"/>
<circle cx="295.4" cy="435.8" r="3.0" fill="#cbe9e8" fill-opacity="0.6"/>
<circle cx="304.4" cy="469.4" r="3.0" fill="#cbe9e8" fill-opacity="0.6"/>
<circle cx="189.9" cy="302.9" r="3.0" fill="#cbe9e8" fill-opacity="0.6"/>
<circle cx="159.8" cy="320.4" r="3.0" fill="#cbe9e8" fill-opacity="0.6"/>
<circle cx="129.8" cy="338.0" r="3.0" fill="#cbe9e8" fill-opacity="0.6"/>
<circle cx="99.7" cy="355.5" r="3.0" fill="#cbe9e8" fill-opacity="0.6"/>
<circle cx="69.7" cy="373.0" r="3.0" fill="#cbe9e8" fill-opacity="0.6"/>
<circle cx="200.5" cy="219.0" r="3.0" fill="#cbe9e8" fill-opacity="0.6"/>
<circle cx="175.7" cy="194.6" r="3.0" fill="#cbe9e8" fill-opacity="0.6"/>
<circle cx="151.0" cy="170.1" r="3.0" fill="#cbe9e8" fill-opacity="0.6"/>
<circle cx="126.2" cy="145.7" r="3.0" fill="#cbe9e8" fill-opacity="0.6"/>
<circle cx="101.5" cy="121.2" r="3.0" fill="#cbe9e8" fill-opacity="0.6"/>
<circle cx="250.0" cy="267.89" r="226.1" fill="#bc41ae" fill-opacity="0.25" stroke="#bc41ae" stroke-width="1.5"/>
<circle cx="250.0" cy="267.89" r="208.7" fill="#b047bc" fill-opacity="0.25" stroke="#b047bc" stroke-width="1.5"/>
<circle cx="250.0" cy="267.89" r="191.3" fill="#a44dc9" fill-opacity="0.24" stroke="#a44dc9" stroke-width="1.5"/>
<circle cx="250.0" cy="267.89" r="173.9" fill="#9853d5" fill-opacity="0.24" stroke="#9853d5" stroke-width="1.5"/>
<circle cx="250.0" cy="267.89" r="156.5" fill="#8d59de" fill-opacity="0.23" stroke="#8d59de" stroke-width="1.5"/>
<circle cx="250.0" cy="267.89" r="139.2" fill="#8160e5" fill-opacity="0.23" stroke="#8160e5" stroke-width="1.5"/>
<circle cx="250.0" cy="267.89" r="121.8" fill="#7566e8" fill-opacity="0.22" stroke="#7566e8" stroke-width="1.5"/>
<circle cx="250.0" cy="267.89" r="104.4" fill="#6a6ce8" fill-opacity="0.22" stroke="#6a6ce8" stroke-width="1.5"/>
<circle cx="250.0" cy="267.89" r="87.0" fill="#5e72e5" fill-opacity="0.21" stroke="#5e72e5" stroke-width="1.5"/>
<circle cx="250.0" cy="267.89" r="69.6" fill="#5279de" fill-opacity="0.21" stroke="#5279de" stroke-width="1.5"/>
<circle cx="250.0" cy="267.89" r="52.2" fill="#477fd5" fill-opacity="0.20" stroke="#477fd5" stroke-width="1.5"/>
<circle cx="250.0" cy="267.89" r="34.8" fill="#3b85c9" fill-opacity="0.20" stroke="#3b85c9" stroke-width="1.5"/>
<circle cx="250.0" cy="267.89" r="17.4" fill="#2f8bbc" fill-opacity="0.19" stroke="#2f8bbc" stroke-width="1.5"/>
<circle cx="250.0" cy="267.89" r="226.1" fill="#db2bd7" fill-opacity="0.27" stroke="#db2bd7" stroke-width="1.5"/>
<circle cx="250.0" cy="267.89" r="208.7" fill="#cc30e8" fill-opacity="0.27" stroke="#cc30e8" stroke-width="1.5"/>
<circle cx="250.0" cy="267.89" r="191.3" fill="#bd35f9" fill-opacity="0.26" stroke="#bd35f9" stroke-width="1.5"/>
<circle cx="250.0" cy="267.89" r="173.9" fill="#ae3b108" fill-opacity="0.26" stroke="#ae3b108" stroke-width="1.5"/>
<circle cx="250.0" cy="267.89" r="156.5" fill="#9f40114" fill-opacity="0.26" stroke="#9f40114" stroke-width="1.5"/>
<circle cx="250.0" cy="267.89" r="139.2" fill="#914511d" fill-opacity="0.25" stroke="#914511d" stroke-width="1.5"/>
<circle cx="250.0" cy="267.89" r="121.8" fill="#824a121" fill-opacity="0.25" stroke="#824a121" stroke-width="1.5"/>
<circle cx="250.0" cy="267.89" r="104.4" fill="#7350121" fill-opacity="0.25" stroke="#7350121" stroke-width="1.5"/>
<circle cx="250.0" cy="267.89" r="87.0" fill="#645511d" fill-opacity="0.25" stroke="#645511d" stroke-width="1.5"/>
<circle cx="250.0" cy="267.89" r="69.6" fill="#565a114" fill-opacity="0.24" stroke="#565a114" stroke-width="1.5"/>
<circle cx="250.0" cy="267.89" r="52.2" fill="#4760108" fill-opacity="0.24" stroke="#4760108" stroke-width="1.5"/>
<circle cx="250.0" cy="267.89" r="34.8" fill="#3865f9" fill-opacity="0.24" stroke="#3865f9" stroke-width="1.5"/>
<circle cx="250.0" cy="267.89" r="17.4" fill="#296ae8" fill-opacity="0.23" stroke="#296ae8" stroke-width="1.5"/>
<line x1="250.0" y1="267.89" x2="443.1" y2="267.9" stroke="#5028c8" stroke-width="2.57" opacity="0.30"/>
<line x1="250.0" y1="267.89" x2="426.4" y2="346.4" stroke="#612fb7" stroke-width="2.57" opacity="0.33"/>
<line x1="250.0" y1="267.89" x2="379.2" y2="411.4" stroke="#7237a6" stroke-width="2.57" opacity="0.35"/>
<line x1="250.0" y1="267.89" x2="309.7" y2="451.5" stroke="#833f95" stroke-width="2.57" opacity="0.38"/>
<line x1="250.0" y1="267.89" x2="229.8" y2="459.9" stroke="#944784" stroke-width="2.57" opacity="0.41"/>
<line x1="250.0" y1="267.89" x2="153.4" y2="435.1" stroke="#a54f73" stroke-width="2.57" opacity="0.43"/>
<line x1="250.0" y1="267.89" x2="93.8" y2="381.4" stroke="#b65662" stroke-width="2.57" opacity="0.46"/>
<line x1="250.0" y1="267.89" x2="61.1" y2="308.0" stroke="#c75e51" stroke-width="2.57" opacity="0.49"/>
<line x1="250.0" y1="267.89" x2="61.1" y2="227.7" stroke="#d86640" stroke-width="2.57" opacity="0.51"/>
<line x1="250.0" y1="267.89" x2="93.8" y2="154.4" stroke="#e96e2f" stroke-width="2.57" opacity="0.54"/>
<line x1="250.0" y1="267.89" x2="153.4" y2="100.7" stroke="#fa761e" stroke-width="2.57" opacity="0.57"/>
<line x1="250.0" y1="267.89" x2="229.8" y2="75.8" stroke="#ff7e0d" stroke-width="2.57" opacity="0.59"/>
<line x1="250.0" y1="267.89" x2="309.7" y2="84.2" stroke="#ff8500" stroke-width="2.57" opacity="0.62"/>
<line x1="250.0" y1="267.89" x2="379.2" y2="124.4" stroke="#ff8d00" stroke-width="2.57" opacity="0.65"/>
<line x1="250.0" y1="267.89" x2="426.4" y2="189.3" stroke="#ff9500" stroke-width="2.57" opacity="0.67"/>
<line x1="250.0" y1="267.89" x2="443.1" y2="267.9" stroke="#5e21e2" stroke-width="2.57" opacity="0.23"/>
<line x1="250.0" y1="267.89" x2="420.6" y2="358.4" stroke="#7228ce" stroke-width="2.57" opacity="0.25"/>
<line x1="250.0" y1="267.89" x2="358.2" y2="427.8" stroke="#8630ba" stroke-width="2.57" opacity="0.28"/>
<line x1="250.0" y1="267.89" x2="270.6" y2="459.9" stroke="#9a38a6" stroke-width="2.57" opacity="0.30"/>
<line x1="250.0" y1="267.89" x2="178.2" y2="447.1" stroke="#ae4092" stroke-width="2.57" opacity="0.32"/>
<line x1="250.0" y1="267.89" x2="102.5" y2="392.5" stroke="#c2487e" stroke-width="2.57" opacity="0.35"/>
<line x1="250.0" y1="267.89" x2="61.3" y2="308.8" stroke="#d64f6a" stroke-width="2.57" opacity="0.37"/>
<line x1="250.0" y1="267.89" x2="64.1" y2="215.6" stroke="#ea5756" stroke-width="2.57" opacity="0.39"/>
<line x1="250.0" y1="267.89" x2="110.3" y2="134.5" stroke="#fe5f42" stroke-width="2.57" opacity="0.42"/>
<line x1="250.0" y1="267.89" x2="189.2" y2="84.6" stroke="#112672e" stroke-width="2.57" opacity="0.44"/>
<line x1="250.0" y1="267.89" x2="282.2" y2="77.5" stroke="#1266f1a" stroke-width="2.57" opacity="0.46"/>
<line x1="250.0" y1="267.89" x2="367.7" y2="114.8" stroke="#13a7606" stroke-width="2.57" opacity="0.49"/>
<line x1="250.0" y1="267.89" x2="425.8" y2="187.9" stroke="#13f7e00" stroke-width="2.57" opacity="0.51"/>
<line x1="250.0" y1="267.89" x2="442.8" y2="279.6" stroke="#13f8600" stroke-width="2.57" opacity="0.53"/>
<line x1="250.0" y1="267.89" x2="414.8" y2="368.6" stroke="#13f8e00" stroke-width="2.57" opacity="0.56"/>
<circle cx="319.6" cy="267.9" r="3.0" fill="#adedd8" fill-opacity="0.6"/>
<circle cx="371.8" cy="267.9" r="3.0" fill="#adedd8" fill-opacity="0.6"/>
<circle cx="423.9" cy="267.9" r="3.0" fill="#adedd8" fill-opacity="0.6"/>
<circle cx="271.5" cy="334.1" r="3.0" fill="#adedd8" fill-opacity="0.6"/>
<circle cx="287.6" cy="383.7" r="3.0" fill="#adedd8" fill-opacity="0.6"/>
<circle cx="303.7" cy="433.3" r="3.0" fill="#adedd8" fill-opacity="0.6"/>
<circle cx="193.7" cy="308.8" r="3.0" fill="#adedd8" fill-opacity="0.6"/>
<circle cx="151.5" cy="339.5" r="3.0" fill="#adedd8" fill-opacity="0.6"/>
<circle cx="109.3" cy="370.1" r="3.0" fill="#adedd8" fill-opacity="0.6"/>
<circle cx="193.7" cy="227.0" r="3.0" fill="#adedd8" fill-opacity="0.6"/>
<circle cx="151.5" cy="196.3" r="3.0" fill="#adedd8" fill-opacity="0.6"/>
<circle cx="109.3" cy="165.7" r="3.0" fill="#adedd8" fill-opacity="0.6"/>
<circle cx="271.5" cy="201.7" r="3.0" fill="#adedd8" fill-opacity="0.6"/>
<circle cx="287.6" cy="152.1" r="3.0" fill="#adedd8" fill-opacity="0.6"/>
<circle cx="303.7" cy="102.5" r="3.0" fill="#adedd8" fill-opacity="0.6"/>
<circle cx="250.0" cy="267.89" r="226.1" fill="#e53ccd" fill-opacity="0.20" stroke="#e53ccd" stroke-width="1.5"/>
<circle cx="250.0" cy="267.89" r="208.7" fill="#d543de" fill-opacity="0.20" stroke="#d543de" stroke-width="1.5"/>
<circle cx="250.0" cy="267.89" r="191.3" fill="#c64bef" fill-opacity="0.19" stroke="#c64bef" stroke-width="1.5"/>
<circle cx="250.0" cy="267.89" r="173.9" fill="#b753fe" fill-opacity="0.19" stroke="#b753fe" stroke-width="1.5"/>
<circle cx="250.0" cy="267.89" r="156.5" fill="#a75a10a" fill-opacity="0.18" stroke="#a75a10a" stroke-width="1.5"/>
<circle cx="250.0" cy="267.89" r="139.2" fill="#9862113" fill-opacity="0.18" stroke="#9862113" stroke-width="1.5"/>
<circle cx="250.0" cy="267.89" r="121.8" fill="#896a117" fill-opacity="0.18" stroke="#896a117" stroke-width="1.5"/>
<circle cx="250.0" cy="267.89" r="104.4" fill="#7971117" fill-opacity="0.17" stroke="#7971117" stroke-width="1.5"/>
<circle cx="250.0" cy="267.89" r="87.0" fill="#6a79113" fill-opacity="0.17" stroke="#6a79113" stroke-width="1.5"/>
<circle cx="250.0" cy="267.89" r="69.6" fill="#5b8110a" fill-opacity="0.17" stroke="#5b8110a" stroke-width="1.5"/>
<circle cx="250.0" cy="267.89" r="52.2" fill="#4b88fe" fill-opacity="0.16" stroke="#4b88fe" stroke-width="1.5"/>
<circle cx="250.0" cy="267.89" r="34.8" fill="#3c90ef" fill-opacity="0.16" stroke="#3c90ef" stroke-width="1.5"/>
<circle cx="250.0" cy="267.89" r="17.4" fill="#2d98de" fill-opacity="0.15" stroke="#2d98de" stroke-width="1.5"/>
<circle cx="337.0" cy="267.9" r="3.0" fill="#aad6ff" fill-opacity="0.6"/>
<circle cx="371.8" cy="267.9" r="3.0" fill="#aad6ff" fill-opacity="0.6"/>
<circle cx="406.5" cy="267.9" r="3.0" fill="#aad6ff" fill-opacity="0.6"/>
<circle cx="441.3" cy="267.9" r="3.0" fill="#aad6ff" fill-opacity="0.6"/>
<circle cx="263.6" cy="353.8" r="3.0" fill="#aad6ff" fill-opacity="0.6"/>
<circle cx="269.0" cy="388.1" r="3.0" fill="#aad6ff" fill-opacity="0.6"/>
<circle cx="274.5" cy="422.5" r="3.0" fill="#aad6ff" fill-opacity="0.6"/>
<circle cx="279.9" cy="456.9" r="3.0" fill="#aad6ff" fill-opacity="0.6"/>
<circle cx="167.3" cy="294.8" r="3.0" fill="#aad6ff" fill-opacity="0.6"/>
<circle cx="134.2" cy="305.5" r="3.0" fill="#aad6ff" fill-opacity="0.6"/>
<circle cx="101.1" cy="316.3" r="3.0" fill="#aad6ff" fill-opacity="0.6"/>
<circle cx="68.0" cy="327.0" r="3.0" fill="#aad6ff" fill-opacity="0.6"/>
<circle cx="302.2" cy="267.9" r="3.0" fill="#a0c3c8" fill-opacity="0.6"/>
<circle cx="337.0" cy="267.9" r="3.0" fill="#a0c3c8" fill-opacity="0.6"/>
<circle cx="371.8" cy="267.9" r="3.0" fill="#a0c3c8" fill-opacity="0.6"/>
<circle cx="406.5" cy="267.9" r="3.0" fill="#a0c3c8" fill-opacity="0.6"/>
<circle cx="441.3" cy="267.9" r="3.0" fill="#a0c3c8" fill-opacity="0.6"/>
<circle cx="292.5" cy="298.2" r="3.0" fill="#a0c3c8" fill-opacity="0.6"/>
<circle cx="320.8" cy="318.4" r="3.0" fill="#a0c3c8" fill-opacity="0.6"/>
<circle cx="349.1" cy="338.6" r="3.0" fill="#a0c3c8" fill-opacity="0.6"/>
<circle cx="377.4" cy="358.8" r="3.0" fill="#a0c3c8" fill-opacity="0.6"/>
<circle cx="405.7" cy="379.1" r="3.0" fill="#a0c3c8" fill-opacity="0.6"/>
<circle cx="267.0" cy="317.2" r="3.0" fill="#a0c3c8" fill-opacity="0.6"/>
<circle cx="278.3" cy="350.1" r="3.0" fill="#a0c3c8" fill-opacity="0.6"/>
<circle cx="289.6" cy="383.0" r="3.0" fill="#a0c3c8" fill-opacity="0.6"/>
<circle cx="300.9" cy="415.9" r="3.0" fill="#a0c3c8" fill-opacity="0.6"/>
<circle cx="312.2" cy="448.8" r="3.0" fill="#a0c3c8" fill-opacity="0.6"/>
<circle cx="235.1" cy="317.9" r="3.0" fill="#a0c3c8" fill-opacity="0.6"/>
<circle cx="225.2" cy="351.3" r="3.0" fill="#a0c3c8" fill-opacity="0.6"/>
<circle cx="215.3" cy="384.6" r="3.0" fill="#a0c3c8" fill-opacity="0.6"/>
<circle cx="205.4" cy="417.9" r="3.0" fill="#a0c3c8" fill-opacity="0.6"/>
<circle cx="195.5" cy="451.3" r="3.0" fill="#a0c3c8" fill-opacity="0.6"/>
<circle cx="208.8" cy="300.0" r="3.0" fill="#a0c3c8" fill-opacity="0.6"/>
<circle cx="181.4" cy="321.3" r="3.0" fill="#a0c3c8" fill-opacity="0.6"/>
<circle cx="153.9" cy="342.7" r="3.0" fill="#a0c3c8" fill-opacity="0.6"/>
<circle cx="126.5" cy="364.1" r="3.0" fill="#a0c3c8" fill-opacity="0.6"/>
<circle cx="99.1" cy="385.5" r="3.0" fill="#a0c3c8" fill-opacity="0.6"/>
<circle cx="197.9" cy="270.1" r="3.0" fill="#a0c3c8" fill-opacity="0.6"/>
<circle cx="163.1" cy="271.5" r="3.0" fill="#a0c3c8" fill-opacity="0.6"/>
<circle cx="128.3" cy="273.0" r="3.0" fill="#a0c3c8" fill-opacity="0.6"/>
<circle cx="93.6" cy="274.4" r="3.0" fill="#a0c3c8" fill-opacity="0.6"/>
<circle cx="58.8" cy="275.9" r="3.0" fill="#a0c3c8" fill-opacity="0.6"/>
<circle cx="206.3" cy="239.4" r="3.0" fill="#a0c3c8" fill-opacity="0.6"/>
<circle cx="177.2" cy="220.4" r="3.0" fill="#a0c3c8" fill-opacity="0.6"/>
<circle cx="148.0" cy="201.4" r="3.0" fill="#a0c3c8" fill-opacity="0.6"/>
<circle cx="118.9" cy="182.4" r="3.0" fill="#a0c3c8" fill-opacity="0.6"/>
<circle cx="89.8" cy="163.3" r="3.0" fill="#a0c3c8" fill-opacity="0.6"/>
<circle cx="231.0" cy="219.3" r="3.0" fill="#a0c3c8" fill-opacity="0.6"/>
<circle cx="218.3" cy="186.9" r="3.0" fill="#a0c3c8" fill-opacity="0.6"/>
<circle cx="205.7" cy="154.5" r="3.0" fill="#a0c3c8" fill-opacity="0.6"/>
<circle cx="193.0" cy="122.1" r="3.0" fill="#a0c3c8" fill-opacity="0.6"/>
<circle cx="180.3" cy="89.7" r="3.0" fill="#a0c3c8" fill-opacity="0.6"/>
<circle cx="284.8" cy="267.9" r="3.0" fill="#cbe6ea" fill-opacity="0.6"/>
<circle cx="319.6" cy="267.9" r="3.0" fill="#cbe6ea" fill-opacity="0.6"/>
<circle cx="354.4" cy="267.9" r="3.0" fill="#cbe6ea" fill-opacity="0.6"/>
<circle cx="389.2" cy="267.9" r="3.0" fill="#cbe6ea" fill-opacity="0.6"/>
<circle cx="423.9" cy="267.9" r="3.0" fill="#cbe6ea" fill-opacity="0.6"/>
<circle cx="458.7" cy="267.9" r="3.0" fill="#cbe6ea" fill-opacity="0.6"/>
<circle cx="270.7" cy="295.9" r="3.0" fill="#cbe6ea" fill-opacity="0.6"/>
<circle cx="291.4" cy="323.8" r="3.0" fill="#cbe6ea" fill-opacity="0.6"/>
<circle cx="312.0" cy="351.8" r="3.0" fill="#cbe6ea" fill-opacity="0.6"/>
<circle cx="332.7" cy="379.8" r="3.0" fill="#cbe6ea" fill-opacity="0.6"/>
<circle cx="353.4" cy="407.7" r="3.0" fill="#cbe6ea" fill-opacity="0.6"/>
<circle cx="374.1" cy="435.7" r="3.0" fill="#cbe6ea" fill-opacity="0.6"/>
<circle cx="239.8" cy="301.2" r="3.0" fill="#cbe6ea" fill-opacity="0.6"/>
<circle cx="229.6" cy="334.4" r="3.0" fill="#cbe6ea" fill-opacity="0.6"/>
<circle cx="219.4" cy="367.7" r="3.0" fill="#cbe6ea" fill-opacity="0.6"/>
<circle cx="209.2" cy="400.9" r="3.0" fill="#cbe6ea" fill-opacity="0.6"/>
<circle cx="199.0" cy="434.2" r="3.0" fill="#cbe6ea" fill-opacity="0.6"/>
<circle cx="188.8" cy="467.5" r="3.0" fill="#cbe6ea" fill-opacity="0.6"/>
<circle cx="217.2" cy="279.5" r="3.0" fill="#cbe6ea" fill-opacity="0.6"/>
<circle cx="184.4" cy="291.0" r="3.0" fill="#cbe6ea" fill-opacity="0.6"/>
<circle cx="151.6" cy="302.6" r="3.0" fill="#cbe6ea" fill-opacity="0.6"/>
<circle cx="118.8" cy="314.2" r="3.0" fill="#cbe6ea" fill-opacity="0.6"/>
<circle cx="86.0" cy="325.8" r="3.0" fill="#cbe6ea" fill-opacity="0.6"/>
<circle cx="53.2" cy="337.4" r="3.0" fill="#cbe6ea" fill-opacity="0.6"/>
<circle cx="221.2" cy="248.4" r="3.0" fill="#cbe6ea" fill-opacity="0.6"/>
<circle cx="192.4" cy="228.9" r="3.0" fill="#cbe6ea" fill-opacity="0.6"/>
<circle cx="163.6" cy="209.4" r="3.0" fill="#cbe6ea" fill-opacity="0.6"/>
<circle cx="134.7" cy="189.9" r="3.0" fill="#cbe6ea" fill-opacity="0.6"/>
<circle cx="105.9" cy="170.4" r="3.0" fill="#cbe6ea" fill-opacity="0.6"/>
<circle cx="77.1" cy="150.9" r="3.0" fill="#cbe6ea" fill-opacity="0.6"/>
<circle cx="248.5" cy="233.1" r="3.0" fill="#cbe6ea" fill-opacity="0.6"/>
<circle cx="247.1" cy="198.4" r="3.0" fill="#cbe6ea" fill-opacity="0.6"/>
<circle cx="245.6" cy="163.6" r="3.0" fill="#cbe6ea" fill-opacity="0.6"/>
<circle cx="244.2" cy="128.9" r="3.0" fill="#cbe6ea" fill-opacity="0.6"/>
<circle cx="242.7" cy="94.1" r="3.0" fill="#cbe6ea" fill-opacity="0.6"/>
<circle cx="241.3" cy="59.3" r="3.0" fill="#cbe6ea" fill-opacity="0.6"/>
<circle cx="277.1" cy="246.1" r="3.0" fill="#cbe6ea" fill-opacity="0.6"/>
<circle cx="304.2" cy="224.2" r="3.0" fill="#cbe6ea" fill-opacity="0.6"/>
<circle cx="331.2" cy="202.4" r="3.0" fill="#cbe6ea" fill-opacity="0.6"/>
<circle cx="358.3" cy="180.5" r="3.0" fill="#cbe6ea" fill-opacity="0.6"/>
<circle cx="385.4" cy="158.7" r="3.0" fill="#cbe6ea" fill-opacity="0.6"/>
<circle cx="412.5" cy="136.9" r="3.0" fill="#cbe6ea" fill-opacity="0.6"/>
<circle cx="283.7" cy="276.7" r="3.0" fill="#cbe6ea" fill-opacity="0.6"/>
<circle cx="317.3" cy="285.5" r="3.0" fill="#cbe6ea" fill-opacity="0.6"/>
<circle cx="351.0" cy="294.3" r="3.0" fill="#cbe6ea" fill-opacity="0.6"/>
<circle cx="384.6" cy="303.1" r="3.0" fill="#cbe6ea" fill-opacity="0.6"/>
<circle cx="418.3" cy="311.9" r="3.0" fill="#cbe6ea" fill-opacity="0.6"/>
<circle cx="451.9" cy="320.6" r="3.0" fill="#cbe6ea" fill-opacity="0.6"/>
<circle cx="284.8" cy="267.9" r="3.0" fill="#add9b9" fill-opacity="0.6"/>
<circle cx="337.0" cy="267.9" r="3.0" fill="#add9b9" fill-opacity="0.6"/>
<circle cx="389.2" cy="267.9" r="3.0" fill="#add9b9" fill-opacity="0.6"/>
<circle cx="441.3" cy="267.9" r="3.0" fill="#add9b9" fill-opacity="0.6"/>
<circle cx="264.3" cy="299.6" r="3.0" fill="#add9b9" fill-opacity="0.6"/>
<circle cx="285.7" cy="347.2" r="3.0" fill="#add9b9" fill-opacity="0.6"/>
<circle cx="307.1" cy="394.8" r="3.0" fill="#add9b9" fill-opacity="0.6"/>
<circle cx="328.6" cy="442.4" r="3.0" fill="#add9b9" fill-opacity="0.6"/>
<circle cx="226.9" cy="293.9" r="3.0" fill="#add9b9" fill-opacity="0.6"/>
<circle cx="192.3" cy="333.0" r="3.0" fill="#add9b9" fill-opacity="0.6"/>
<circle cx="157.8" cy="372.1" r="3.0" fill="#add9b9" fill-opacity="0.6"/>
<circle cx="123.2" cy="411.1" r="3.0" fill="#add9b9" fill-opacity="0.6"/>
<circle cx="216.8" cy="257.6" r="3.0" fill="#add9b9" fill-opacity="0.6"/>
<circle cx="167.0" cy="242.1" r="3.0" fill="#add9b9" fill-opacity="0.6"/>
<circle cx="117.1" cy="226.6" r="3.0" fill="#add9b9" fill-opacity="0.6"/>
<circle cx="67.3" cy="211.1" r="3.0" fill="#add9b9" fill-opacity="0.6"/>
<circle cx="284.8" cy="267.9" r="3.0" fill="#add9b9" fill-opacity="0.6"/>
<circle cx="319.6" cy="267.9" r="3.0" fill="#add9b9" fill-opacity="0.6"/>
<circle cx="354.4" cy="267.9" r="3.0" fill="#add9b9" fill-opacity="0.6"/>
<circle cx="389.2" cy="267.9" r="3.0" fill="#add9b9" fill-opacity="0.6"/>
<circle cx="423.9" cy="267.9" r="3.0" fill="#add9b9" fill-opacity="0.6"/>
<circle cx="458.7" cy="267.9" r="3.0" fill="#add9b9" fill-opacity="0.6"/>
<circle cx="276.9" cy="289.9" r="3.0" fill="#add9b9" fill-opacity="0.6"/>
<circle cx="303.9" cy="311.9" r="3.0" fill="#add9b9" fill-opacity="0.6"/>
<circle cx="330.8" cy="333.9" r="3.0" fill="#add9b9" fill-opacity="0.6"/>
<circle cx="357.8" cy="355.9" r="3.0" fill="#add9b9" fill-opacity="0.6"/>
<circle cx="384.7" cy="377.9" r="3.0" fill="#add9b9" fill-opacity="0.6"/>
<circle cx="411.7" cy="399.9" r="3.0" fill="#add9b9" fill-opacity="0.6"/>
<circle cx="256.9" cy="302.0" r="3.0" fill="#add9b9" fill-opacity="0.6"/>
<circle cx="263.9" cy="336.1" r="3.0" fill="#add9b9" fill-opacity="0.6"/>
<circle cx="270.8" cy="370.2" r="3.0" fill="#add9b9" fill-opacity="0.6"/>
<circle cx="277.8" cy="404.2" r="3.0" fill="#add9b9" fill-opacity="0.6"/>
<circle cx="284.7" cy="438.3" r="3.0" fill="#add9b9" fill-opacity="0.6"/>
<circle cx="291.7" cy="472.4" r="3.0" fill="#add9b9" fill-opacity="0.6"/>
<circle cx="233.8" cy="298.7" r="3.0" fill="#add9b9" fill-opacity="0.6"/>
<circle cx="217.6" cy="329.5" r="3.0" fill="#add9b9" fill-opacity="0.6"/>
<circle cx="201.5" cy="360.3" r="3.0" fill="#add9b9" fill-opacity="0.6"/>
<circle cx="185.3" cy="391.1" r="3.0" fill="#add9b9" fill-opacity="0.6"/>
<circle cx="169.1" cy="421.9" r="3.0" fill="#add9b9" fill-opacity="0.6"/>
<circle cx="152.9" cy="452.7" r="3.0" fill="#add9b9" fill-opacity="0.6"/>
<circle cx="218.0" cy="281.5" r="3.0" fill="#add9b9" fill-opacity="0.6"/>
<circle cx="186.0" cy="295.1" r="3.0" fill="#add9b9" fill-opacity="0.6"/>
<circle cx="154.0" cy="308.7" r="3.0" fill="#add9b9" fill-opacity="0.6"/>
<circle cx="121.9" cy="322.3" r="3.0" fill="#add9b9" fill-opacity="0.6"/>
<circle cx="89.9" cy="336.0" r="3.0" fill="#add9b9" fill-opacity="0.6"/>
<circle cx="57.9" cy="349.6" r="3.0" fill="#add9b9" fill-opacity="0.6"/>
<circle cx="302.2" cy="267.9" r="3.0" fill="#a9cfff" fill-opacity="0.6"/>
<circle cx="337.0" cy="267.9" r="3.0" fill="#a9cfff" fill-opacity="0.6"/>
<circle cx="371.8" cy="267.9" r="3.0" fill="#a9cfff" fill-opacity="0.6"/>
<circle cx="406.5" cy="267.9" r="3.0" fill="#a9cfff" fill-opacity="0.6"/>
<circle cx="441.3" cy="267.9" r="3.0" fill="#a9cfff" fill-opacity="0.6"/>
<circle cx="283.1" cy="308.2" r="3.0" fill="#a9cfff" fill-opacity="0.6"/>
<circle cx="305.2" cy="335.1" r="3.0" fill="#a9cfff" fill-opacity="0.6"/>
<circle cx="327.2" cy="362.0" r="3.0" fill="#a9cfff" fill-opacity="0.6"/>
<circle cx="349.3" cy="388.9" r="3.0" fill="#a9cfff" fill-opacity="0.6"/>
<circle cx="371.3" cy="415.8" r="3.0" fill="#a9cfff" fill-opacity="0.6"/>
<circle cx="239.8" cy="319.1" r="3.0" fill="#a9cfff" fill-opacity="0.6"/>
<circle cx="233.0" cy="353.2" r="3.0" fill="#a9cfff" fill-opacity="0.6"/>
<circle cx="226.2" cy="387.3" r="3.0" fill="#a9cfff" fill-opacity="0.6"/>
<circle cx="219.4" cy="421.4" r="3.0" fill="#a9cfff" fill-opacity="0.6"/>
<circle cx="212.6" cy="455.5" r="3.0" fill="#a9cfff" fill-opacity="0.6"/>
<circle cx="204.0" cy="292.5" r="3.0" fill="#a9cfff" fill-opacity="0.6"/>
<circle cx="173.3" cy="308.8" r="3.0" fill="#a9cfff" fill-opacity="0.6"/>
<circle cx="142.6" cy="325.2" r="3.0" fill="#a9cfff" fill-opacity="0.6"/>
<circle cx="111.9" cy="341.6" r="3.0" fill="#a9cfff" fill-opacity="0.6"/>
<circle cx="81.2" cy="358.0" r="3.0" fill="#a9cfff" fill-opacity="0.6"/>
<circle cx="201.8" cy="247.9" r="3.0" fill="#a9cfff" fill-opacity="0.6"/>
<circle cx="169.7" cy="234.5" r="3.0" fill="#a9cfff" fill-opacity="0.6"/>
<circle cx="137.6" cy="221.2" r="3.0" fill="#a9cfff" fill-opacity="0.6"/>
<circle cx="105.4" cy="207.8" r="3.0" fill="#a9cfff" fill-opacity="0.6"/>
<circle cx="73.3" cy="194.5" r="3.0" fill="#a9cfff" fill-opacity="0.6"/>
<circle cx="234.9" cy="217.9" r="3.0" fill="#a9cfff" fill-opacity="0.6"/>
<circle cx="224.9" cy="184.6" r="3.0" fill="#a9cfff" fill-opacity="0.6"/>
<circle cx="214.8" cy="151.3" r="3.0" fill="#a9cfff" fill-opacity="0.6"/>
<circle cx="204.8" cy="118.0" r="3.0" fill="#a9cfff" fill-opacity="0.6"/>
<circle cx="194.7" cy="84.7" r="3.0" fill="#a9cfff" fill-opacity="0.6"/>
<circle cx="279.1" cy="224.5" r="3.0" fill="#a9cfff" fill-opacity="0.6"/>
<circle cx="298.4" cy="195.7" r="3.0" fill="#a9cfff" fill-opacity="0.6"/>
<circle cx="317.8" cy="166.8" r="3.0" fill="#a9cfff" fill-opacity="0.6"/>
<circle cx="337.2" cy="137.9" r="3.0" fill="#a9cfff" fill-opacity="0.6"/>
<circle cx="356.5" cy="109.0" r="3.0" fill="#a9cfff" fill-opacity="0.6"/>
<circle cx="301.9" cy="262.9" r="3.0" fill="#a9cfff" fill-opacity="0.6"/>
<circle cx="336.6" cy="259.5" r="3.0" fill="#a9cfff" fill-opacity="0.6"/>
<circle cx="371.2" cy="256.2" r="3.0" fill="#a9cfff" fill-opacity="0.6"/>
<circle cx="405.8" cy="252.8" r="3.0" fill="#a9cfff" fill-opacity="0.6"/>
<circle cx="440.4" cy="249.5" r="3.0" fill="#a9cfff" fill-opacity="0.6"/>
<circle cx="302.2" cy="267.9" r="3.0" fill="#90bfde" fill-opacity="0.6"/>
<circle cx="337.0" cy="267.9" r="3.0" fill="#90bfde" fill-opacity="0.6"/>
<circle cx="371.8" cy="267.9" r="3.0" fill="#90bfde" fill-opacity="0.6"/>
<circle cx="406.5" cy="267.9" r="3.0" fill="#90bfde" fill-opacity="0.6"/>
<circle cx="441.3" cy="267.9" r="3.0" fill="#90bfde" fill-opacity="0.6"/>
<circle cx="272.8" cy="314.8" r="3.0" fill="#90bfde" fill-opacity="0.6"/>
<circle cx="288.0" cy="346.1" r="3.0" fill="#90bfde" fill-opacity="0.6"/>
<circle cx="303.2" cy="377.4" r="3.0" fill="#90bfde" fill-opacity="0.6"/>
<circle cx="318.4" cy="408.7" r="3.0" fill="#90bfde" fill-opacity="0.6"/>
<circle cx="333.6" cy="440.0" r="3.0" fill="#90bfde" fill-opacity="0.6"/>
<circle cx="217.8" cy="308.9" r="3.0" fill="#90bfde" fill-opacity="0.6"/>
<circle cx="196.3" cy="336.3" r="3.0" fill="#90bfde" fill-opacity="0.6"/>
<circle cx="174.8" cy="363.6" r="3.0" fill="#90bfde" fill-opacity="0.6"/>
<circle cx="153.3" cy="391.0" r="3.0" fill="#90bfde" fill-opacity="0.6"/>
<circle cx="131.8" cy="418.3" r="3.0" fill="#90bfde" fill-opacity="0.6"/>
<circle cx="199.0" cy="256.8" r="3.0" fill="#90bfde" fill-opacity="0.6"/>
<circle cx="165.0" cy="249.5" r="3.0" fill="#90bfde" fill-opacity="0.6"/>
<circle cx="131.0" cy="242.1" r="3.0" fill="#90bfde" fill-opacity="0.6"/>
<circle cx="97.0" cy="234.7" r="3.0" fill="#90bfde" fill-opacity="0.6"/>
<circle cx="63.0" cy="227.3" r="3.0" fill="#90bfde" fill-opacity="0.6"/>
<circle cx="237.7" cy="217.2" r="3.0" fill="#90bfde" fill-opacity="0.6"/>
<circle cx="229.4" cy="183.4" r="3.0" fill="#90bfde" fill-opacity="0.6"/>
<circle cx="221.2" cy="149.6" r="3.0" fill="#90bfde" fill-opacity="0.6"/>
<circle cx="213.0" cy="115.8" r="3.0" fill="#90bfde" fill-opacity="0.6"/>
<circle cx="204.8" cy="82.0" r="3.0" fill="#90bfde" fill-opacity="0.6"/>
<circle cx="290.2" cy="234.6" r="3.0" fill="#90bfde" fill-opacity="0.6"/>
<circle cx="317.0" cy="212.5" r="3.0" fill="#90bfde" fill-opacity="0.6"/>
<circle cx="343.8" cy="190.3" r="3.0" fill="#90bfde" fill-opacity="0.6"/>
<circle cx="370.6" cy="168.1" r="3.0" fill="#90bfde" fill-opacity="0.6"/>
<circle cx="397.4" cy="145.9" r="3.0" fill="#90bfde" fill-opacity="0.6"/>
<circle cx="297.5" cy="289.5" r="3.0" fill="#90bfde" fill-opacity="0.6"/>
<circle cx="329.2" cy="303.9" r="3.0" fill="#90bfde" fill-opacity="0.6"/>
<circle cx="360.8" cy="318.3" r="3.0" fill="#90bfde" fill-opacity="0.6"/>
<circle cx="392.5" cy="332.8" r="3.0" fill="#90bfde" fill-opacity="0.6"/>
<circle cx="424.1" cy="347.2" r="3.0" fill="#90bfde" fill-opacity="0.6"/>
<circle cx="251.3" cy="320.1" r="3.0" fill="#90bfde" fill-opacity="0.6"/>
<circle cx="252.2" cy="354.8" r="3.0" fill="#90bfde" fill-opacity="0.6"/>
<circle cx="253.1" cy="389.6" r="3.0" fill="#90bfde" fill-opacity="0.6"/>
<circle cx="253.9" cy="424.4" r="3.0" fill="#90bfde" fill-opacity="0.6"/>
<circle cx="254.8" cy="459.2" r="3.0" fill="#90bfde" fill-opacity="0.6"/>
<circle cx="250.0" cy="267.89" r="226.1" fill="#f05bd4" fill-opacity="0.21" stroke="#f05bd4" stroke-width="1.5"/>
<circle cx="250.0" cy="267.89" r="208.7" fill="#e063df" fill-opacity="0.21" stroke="#e063df" stroke-width="1.5"/>
<circle cx="250.0" cy="267.89" r="191.3" fill="#d16ae9" fill-opacity="0.20" stroke="#d16ae9" stroke-width="1.5"/>
<circle cx="250.0" cy="267.89" r="173.9" fill="#c271f3" fill-opacity="0.20" stroke="#c271f3" stroke-width="1.5"/>
<circle cx="250.0" cy="267.89" r="156.5" fill="#b379fa" fill-opacity="0.20" stroke="#b379fa" stroke-width="1.5"/>
<circle cx="250.0" cy="267.89" r="139.2" fill="#a480ff" fill-opacity="0.19" stroke="#a480ff" stroke-width="1.5"/>
<circle cx="250.0" cy="267.89" r="121.8" fill="#9587102" fill-opacity="0.19" stroke="#9587102" stroke-width="1.5"/>
<circle cx="250.0" cy="267.89" r="104.4" fill="#858f102" fill-opacity="0.19" stroke="#858f102" stroke-width="1.5"/>
<circle cx="250.0" cy="267.89" r="87.0" fill="#7696ff" fill-opacity="0.19" stroke="#7696ff" stroke-width="1.5"/>
<circle cx="250.0" cy="267.89" r="69.6" fill="#679dfa" fill-opacity="0.18" stroke="#679dfa" stroke-width="1.5"/>
<circle cx="250.0" cy="267.89" r="52.2" fill="#58a5f3" fill-opacity="0.18" stroke="#58a5f3" stroke-width="1.5"/>
<circle cx="250.0" cy="267.89" r="34.8" fill="#49ace9" fill-opacity="0.18" stroke="#49ace9" stroke-width="1.5"/>
<circle cx="250.0" cy="267.89" r="17.4" fill="#3ab3df" fill-opacity="0.17" stroke="#3ab3df" stroke-width="1.5"/>
<line x1="250.0" y1="267.89" x2="443.1" y2="267.9" stroke="#402de5" stroke-width="2.57" opacity="0.38"/>
<line x1="250.0" y1="267.89" x2="416.6" y2="365.5" stroke="#4f35d6" stroke-width="2.57" opacity="0.40"/>
<line x1="250.0" y1="267.89" x2="344.4" y2="436.3" stroke="#5e3ec7" stroke-width="2.57" opacity="0.42"/>
<line x1="250.0" y1="267.89" x2="246.4" y2="461.0" stroke="#6d46b8" stroke-width="2.57" opacity="0.44"/>
<line x1="250.0" y1="267.89" x2="149.3" y2="432.6" stroke="#7c4fa9" stroke-width="2.57" opacity="0.47"/>
<line x1="250.0" y1="267.89" x2="79.8" y2="359.1" stroke="#8c5899" stroke-width="2.57" opacity="0.49"/>
<line x1="250.0" y1="267.89" x2="57.0" y2="260.6" stroke="#9b608a" stroke-width="2.57" opacity="0.51"/>
<line x1="250.0" y1="267.89" x2="87.2" y2="164.1" stroke="#aa697b" stroke-width="2.57" opacity="0.53"/>
<line x1="250.0" y1="267.89" x2="162.0" y2="96.0" stroke="#b9716c" stroke-width="2.57" opacity="0.55"/>
<line x1="250.0" y1="267.89" x2="260.9" y2="75.1" stroke="#c87a5d" stroke-width="2.57" opacity="0.57"/>
<line x1="250.0" y1="267.89" x2="356.9" y2="107.0" stroke="#d8834d" stroke-width="2.57" opacity="0.59"/>
<line x1="250.0" y1="267.89" x2="423.5" y2="183.1" stroke="#dd8c3e" stroke-width="2.57" opacity="0.61"/>
<line x1="250.0" y1="267.89" x2="442.6" y2="282.4" stroke="#dd942f" stroke-width="2.57" opacity="0.64"/>
<line x1="250.0" y1="267.89" x2="408.8" y2="377.8" stroke="#dd9d20" stroke-width="2.57" opacity="0.66"/>
<line x1="250.0" y1="267.89" x2="331.5" y2="443.0" stroke="#dda511" stroke-width="2.57" opacity="0.68"/>
<line x1="250.0" y1="267.89" x2="443.1" y2="267.9" stroke="#2b32112" stroke-width="2.57" opacity="0.26"/>
<line x1="250.0" y1="267.89" x2="423.9" y2="351.9" stroke="#3637107" stroke-width="2.57" opacity="0.28"/>
<line x1="250.0" y1="267.89" x2="369.9" y2="419.2" stroke="#413cfc" stroke-width="2.57" opacity="0.31"/>
<line x1="250.0" y1="267.89" x2="292.1" y2="456.3" stroke="#4c42f1" stroke-width="2.57" opacity="0.33"/>
<line x1="250.0" y1="267.89" x2="205.9" y2="455.9" stroke="#5747e6" stroke-width="2.57" opacity="0.36"/>
<line x1="250.0" y1="267.89" x2="128.5" y2="418.0" stroke="#624cdb" stroke-width="2.57" opacity="0.38"/>
<line x1="250.0" y1="267.89" x2="75.3" y2="350.1" stroke="#6d52d0" stroke-width="2.57" opacity="0.41"/>
<line x1="250.0" y1="267.89" x2="56.9" y2="265.9" stroke="#7857c5" stroke-width="2.57" opacity="0.43"/>
<line x1="250.0" y1="267.89" x2="77.0" y2="182.0" stroke="#845db9" stroke-width="2.57" opacity="0.46"/>
<line x1="250.0" y1="267.89" x2="131.6" y2="115.3" stroke="#8f63ae" stroke-width="2.57" opacity="0.48"/>
<line x1="250.0" y1="267.89" x2="209.9" y2="79.0" stroke="#9a68a3" stroke-width="2.57" opacity="0.51"/>
<line x1="250.0" y1="267.89" x2="296.1" y2="80.4" stroke="#a56d98" stroke-width="2.57" opacity="0.53"/>
<line x1="250.0" y1="267.89" x2="373.1" y2="119.1" stroke="#b0738d" stroke-width="2.57" opacity="0.56"/>
<line x1="250.0" y1="267.89" x2="425.6" y2="187.5" stroke="#bb7882" stroke-width="2.57" opacity="0.58"/>
<line x1="250.0" y1="267.89" x2="443.1" y2="271.9" stroke="#c67d77" stroke-width="2.57" opacity="0.61"/>
<line x1="250.0" y1="267.89" x2="443.1" y2="267.9" stroke="#2f23153" stroke-width="2.57" opacity="0.31"/>
<line x1="250.0" y1="267.89" x2="412.8" y2="371.7" stroke="#382814a" stroke-width="2.57" opacity="0.33"/>
<line x1="250.0" y1="267.89" x2="331.5" y2="443.0" stroke="#422d140" stroke-width="2.57" opacity="0.35"/>
<line x1="250.0" y1="267.89" x2="224.6" y2="459.3" stroke="#4b32137" stroke-width="2.57" opacity="0.37"/>
<line x1="250.0" y1="267.89" x2="125.7" y2="415.6" stroke="#553812d" stroke-width="2.57" opacity="0.39"/>
<line x1="250.0" y1="267.89" x2="65.7" y2="325.6" stroke="#5e3d124" stroke-width="2.57" opacity="0.41"/>
<line x1="250.0" y1="267.89" x2="63.6" y2="217.5" stroke="#684211a" stroke-width="2.57" opacity="0.43"/>
<line x1="250.0" y1="267.89" x2="119.9" y2="125.2" stroke="#7147111" stroke-width="2.57" opacity="0.45"/>
<line x1="250.0" y1="267.89" x2="217.0" y2="77.6" stroke="#7b4d107" stroke-width="2.57" opacity="0.47"/>
<line x1="250.0" y1="267.89" x2="324.5" y2="89.7" stroke="#8452fe" stroke-width="2.57" opacity="0.49"/>
<line x1="250.0" y1="267.89" x2="408.6" y2="157.7" stroke="#8e58f4" stroke-width="2.57" opacity="0.51"/>
<line x1="250.0" y1="267.89" x2="443.0" y2="260.2" stroke="#975deb" stroke-width="2.57" opacity="0.53"/>
<line x1="250.0" y1="267.89" x2="416.8" y2="365.1" stroke="#a162e1" stroke-width="2.57" opacity="0.55"/>
<line x1="250.0" y1="267.89" x2="338.4" y2="439.6" stroke="#aa67d8" stroke-width="2.57" opacity="0.57"/>
<line x1="250.0" y1="267.89" x2="232.2" y2="460.2" stroke="#b46dce" stroke-width="2.57" opacity="0.59"/>
<circle cx="250.0" cy="267.89" r="8.0" fill="#dcdba6" fill-opacity="0.9"/>
</svg>