<svg xmlns="http://www.w3.org/2000/svg" width="500" height="500" viewBox="0 0 500 500">
<rect width="500" height="500" fill="#00343b"/>
<circle cx="250.0" cy="251.34" r="233.8" fill="#bc41ae" fill-opacity="0.26" stroke="#bc41ae" stroke-width="1.5"/>
<circle cx="250.0" cy="251.34" r="212.5" fill="#ae48be" fill-opacity="0.25" stroke="#ae48be" stroke-width="1.5"/>
<circle cx="250.0" cy="251.34" r="191.3" fill="#a04fcd" fill-opacity="0.25" stroke="#a04fcd" stroke-width="1.5"/>
<circle cx="250.0" cy="251.34" r="170.0" fill="#9257da" fill-opacity="0.24" stroke="#9257da" stroke-width="1.5"/>
<circle cx="250.0" cy="251.34" r="148.8" fill="#845ee3" fill-opacity="0.24" stroke="#845ee3" stroke-width="1.5"/>
<circle cx="250.0" cy="251.34" r="127.5" fill="#7665e8" fill-opacity="0.23" stroke="#7665e8" stroke-width="1.5"/>
<circle cx="250.0" cy="251.34" r="106.3" fill="#696de8" fill-opacity="0.23" stroke="#696de8" stroke-width="1.5"/>
<circle cx="250.0" cy="251.34" r="85.0" fill="#5b74e3" fill-opacity="0.22" stroke="#5b74e3" stroke-width="1.5"/>
<circle cx="250.0" cy="251.34" r="63.8" fill="#4d7bda" fill-opacity="0.22" stroke="#4d7bda" stroke-width="1.5"/>
<circle cx="250.0" cy="251.34" r="42.5" fill="#3f83cd" fill-opacity="0.21" stroke="#3f83cd" stroke-width="1.5"/>
<circle cx="250.0" cy="251.34" r="21.3" fill="#318abe" fill-opacity="0.21" stroke="#318abe" stroke-width="1.5"/>
<circle cx="292.5" cy="251.3" r="3.0" fill="#72a8be" fill-opacity="0.6"/>
<circle cx="335.0" cy="251.3" r="3.0" fill="#72a8be" fill-opacity="0.6"/>
<circle cx="377.5" cy="251.3" r="3.0" fill="#72a8be" fill-opacity="0.6"/>
<circle cx="420.0" cy="251.3" r="3.0" fill="#72a8be" fill-opacity="0.6"/>
<circle cx="462.5" cy="251.3" r="3.0" fill="#72a8be" fill-opacity="0.6"/>
<circle cx="264.1" cy="291.4" r="3.0" fill="#72a8be" fill-opacity="0.6"/>
<circle cx="278.3" cy="331.5" r="3.0" fill="#72a8be" fill-opacity="0.6"/>
<circle cx="292.4" cy="371.6" r="3.0" fill="#72a8be" fill-opacity="0.6"/>
<circle cx="306.6" cy="411.7" r="3.0" fill="#72a8be" fill-opacity="0.6"/>
<circle cx="320.7" cy="451.7" r="3.0" fill="#72a8be" fill-opacity="0.6"/>
<circle cx="216.9" cy="278.0" r="3.0" fill="#72a8be" fill-opacity="0.6"/>
<circle cx="183.8" cy="304.7" r="3.0" fill="#72a8be" fill-opacity="0.6"/>
<circle cx="150.7" cy="331.4" r="3.0" fill="#72a8be" fill-opacity="0.6"/>
<circle cx="117.7" cy="358.1" r="3.0" fill="#72a8be" fill-opacity="0.6"/>
<circle cx="84.6" cy="384.7" r="3.0" fill="#72a8be" fill-opacity="0.6"/>
<circle cx="213.8" cy="229.0" r="3.0" fill="#72a8be" fill-opacity="0.6"/>
<circle cx="177.7" cy="206.7" r="3.0" fill="#72a8be" fill-opacity="0.6"/>
<circle cx="141.5" cy="184.4" r="3.0" fill="#72a8be" fill-opacity="0.6"/>
<circle cx="105.3" cy="162.1" r="3.0" fill="#72a8be" fill-opacity="0.6"/>
<circle cx="69.2" cy="139.7" r="3.0" fill="#72a8be" fill-opacity="0.6"/>
<circle cx="259.0" cy="209.8" r="3.0" fill="#72a8be" fill-opacity="0.6"/>
<circle cx="268.0" cy="168.3" r="3.0" fill="#72a8be" fill-opacity="0.6"/>
<circle cx="277.0" cy="126.7" r="3.0" fill="#72a8be" fill-opacity="0.6"/>
<circle cx="286.0" cy="85.2" r="3.0" fill="#72a8be" fill-opacity="0.6"/>
<circle cx="295.1" cy="43.7" r="3.0" fill="#72a8be" fill-opacity="0.6"/>
<circle cx="292.2" cy="246.0" r="3.0" fill="#72a8be" fill-opacity="0.6"/>
<circle cx="334.3" cy="240.7" r="3.0" fill="#72a8be" fill-opacity="0.6"/>
<circle cx="376.5" cy="235.4" r="3.0" fill="#72a8be" fill-opacity="0.6"/>
<circle cx="418.7" cy="230.0" r="3.0" fill="#72a8be" fill-opacity="0.6"/>
<circle cx="460.8" cy="224.7" r="3.0" fill="#72a8be" fill-opacity="0.6"/>
<circle cx="269.1" cy="289.3" r="3.0" fill="#72a8be" fill-opacity="0.6"/>
<circle cx="288.1" cy="327.3" r="3.0" fill="#72a8be" fill-opacity="0.6"/>
<circle cx="307.2" cy="365.3" r="3.0" fill="#72a8be" fill-opacity="0.6"/>
<circle cx="326.2" cy="403.3" r="3.0" fill="#72a8be" fill-opacity="0.6"/>
<circle cx="345.3" cy="441.3" r="3.0" fill="#72a8be" fill-opacity="0.6"/>
<circle cx="220.5" cy="282.0" r="3.0" fill="#72a8be" fill-opacity="0.6"/>
<circle cx="191.0" cy="312.6" r="3.0" fill="#72a8be" fill-opacity="0.6"/>
<circle cx="161.6" cy="343.2" r="3.0" fill="#72a8be" fill-opacity="0.6"/>
<circle cx="132.1" cy="373.8" r="3.0" fill="#72a8be" fill-opacity="0.6"/>
<circle cx="102.6" cy="404.4" r="3.0" fill="#72a8be" fill-opacity="0.6"/>
<circle cx="250.0" cy="251.34" r="233.8" fill="#e7-4f9" fill-opacity="0.20" stroke="#e7-4f9" stroke-width="1.5"/>
<circle cx="250.0" cy="251.34" r="212.5" fill="#d50310a" fill-opacity="0.19" stroke="#d50310a" stroke-width="1.5"/>
<circle cx="250.0" cy="251.34" r="191.3" fill="#c40c119" fill-opacity="0.19" stroke="#c40c119" stroke-width="1.5"/>
<circle cx="250.0" cy="251.34" r="170.0" fill="#b314127" fill-opacity="0.18" stroke="#b314127" stroke-width="1.5"/>
<circle cx="250.0" cy="251.34" r="148.8" fill="#a21d130" fill-opacity="0.17" stroke="#a21d130" stroke-width="1.5"/>
<circle cx="250.0" cy="251.34" r="127.5" fill="#9126135" fill-opacity="0.17" stroke="#9126135" stroke-width="1.5"/>
<circle cx="250.0" cy="251.34" r="106.3" fill="#7f2e135" fill-opacity="0.16" stroke="#7f2e135" stroke-width="1.5"/>
<circle cx="250.0" cy="251.34" r="85.0" fill="#6e37130" fill-opacity="0.16" stroke="#6e37130" stroke-width="1.5"/>
<circle cx="250.0" cy="251.34" r="63.8" fill="#5d3f127" fill-opacity="0.15" stroke="#5d3f127" stroke-width="1.5"/>
<circle cx="250.0" cy="251.34" r="42.5" fill="#4c48119" fill-opacity="0.14" stroke="#4c48119" stroke-width="1.5"/>
<circle cx="250.0" cy="251.34" r="21.3" fill="#3b5010a" fill-opacity="0.14" stroke="#3b5010a" stroke-width="1.5"/>
<circle cx="292.5" cy="251.3" r="3.0" fill="#c2e7b8" fill-opacity="0.6"/>
<circle cx="335.0" cy="251.3" r="3.0" fill="#c2e7b8" fill-opacity="0.6"/>
<circle cx="377.5" cy="251.3" r="3.0" fill="#c2e7b8" fill-opacity="0.6"/>
<circle cx="420.0" cy="251.3" r="3.0" fill="#c2e7b8" fill-opacity="0.6"/>
<circle cx="462.5" cy="251.3" r="3.0" fill="#c2e7b8" fill-opacity="0.6"/>
<circle cx="282.9" cy="278.2" r="3.0" fill="#c2e7b8" fill-opacity="0.6"/>
<circle cx="315.8" cy="305.1" r="3.0" fill="#c2e7b8" fill-opacity="0.6"/>
<circle cx="348.8" cy="332.0" r="3.0" fill="#c2e7b8" fill-opacity="0.6"/>
<circle cx="381.7" cy="358.9" r="3.0" fill="#c2e7b8" fill-opacity="0.6"/>
<circle cx="414.6" cy="385.8" r="3.0" fill="#c2e7b8" fill-opacity="0.6"/>
<circle cx="258.5" cy="293.0" r="3.0" fill="#c2e7b8" fill-opacity="0.6"/>
<circle cx="267.0" cy="334.6" r="3.0" fill="#c2e7b8" fill-opacity="0.6"/>
<circle cx="275.5" cy="376.3" r="3.0" fill="#c2e7b8" fill-opacity="0.6"/>
<circle cx="284.0" cy="417.9" r="3.0" fill="#c2e7b8" fill-opacity="0.6"/>
<circle cx="292.4" cy="459.6" r="3.0" fill="#c2e7b8" fill-opacity="0.6"/>
<circle cx="230.2" cy="289.0" r="3.0" fill="#c2e7b8" fill-opacity="0.6"/>
<circle cx="210.5" cy="326.6" r="3.0" fill="#c2e7b8" fill-opacity="0.6"/>
<circle cx="190.7" cy="364.2" r="3.0" fill="#c2e7b8" fill-opacity="0.6"/>
<circle cx="170.9" cy="401.8" r="3.0" fill="#c2e7b8" fill-opacity="0.6"/>
<circle cx="151.2" cy="439.5" r="3.0" fill="#c2e7b8" fill-opacity="0.6"/>
<circle cx="210.9" cy="268.0" r="3.0" fill="#c2e7b8" fill-opacity="0.6"/>
<circle cx="171.8" cy="284.6" r="3.0" fill="#c2e7b8" fill-opacity="0.6"/>
<circle cx="132.7" cy="301.2" r="3.0" fill="#c2e7b8" fill-opacity="0.6"/>
<circle cx="93.6" cy="317.9" r="3.0" fill="#c2e7b8" fill-opacity="0.6"/>
<circle cx="54.4" cy="334.5" r="3.0" fill="#c2e7b8" fill-opacity="0.6"/>
<circle cx="356.3" cy="251.3" r="3.0" fill="#a6ffe3" fill-opacity="0.6"/>
<circle cx="398.8" cy="251.3" r="3.0" fill="#a6ffe3" fill-opacity="0.6"/>
<circle cx="441.3" cy="251.3" r="3.0" fill="#a6ffe3" fill-opacity="0.6"/>
<circle cx="298.8" cy="345.7" r="3.0" fill="#a6ffe3" fill-opacity="0.6"/>
<circle cx="318.4" cy="383.5" r="3.0" fill="#a6ffe3" fill-opacity="0.6"/>
<circle cx="337.9" cy="421.2" r="3.0" fill="#a6ffe3" fill-opacity="0.6"/>
<circle cx="188.6" cy="338.1" r="3.0" fill="#a6ffe3" fill-opacity="0.6"/>
<circle cx="164.1" cy="372.8" r="3.0" fill="#a6ffe3" fill-opacity="0.6"/>
<circle cx="139.5" cy="407.5" r="3.0" fill="#a6ffe3" fill-opacity="0.6"/>
<circle cx="144.8" cy="236.7" r="3.0" fill="#a6ffe3" fill-opacity="0.6"/>
<circle cx="102.7" cy="230.8" r="3.0" fill="#a6ffe3" fill-opacity="0.6"/>
<circle cx="60.6" cy="225.0" r="3.0" fill="#a6ffe3" fill-opacity="0.6"/>
<circle cx="214.6" cy="151.1" r="3.0" fill="#a6ffe3" fill-opacity="0.6"/>
<circle cx="200.5" cy="111.1" r="3.0" fill="#a6ffe3" fill-opacity="0.6"/>
<circle cx="186.3" cy="71.0" r="3.0" fill="#a6ffe3" fill-opacity="0.6"/>
<circle cx="377.5" cy="251.3" r="3.0" fill="#b0dcfc" fill-opacity="0.6"/>
<circle cx="420.0" cy="251.3" r="3.0" fill="#b0dcfc" fill-opacity="0.6"/>
<circle cx="462.5" cy="251.3" r="3.0" fill="#b0dcfc" fill-opacity="0.6"/>
<circle cx="234.5" cy="377.9" r="3.0" fill="#b0dcfc" fill-opacity="0.6"/>
<circle cx="229.4" cy="420.1" r="3.0" fill="#b0dcfc" fill-opacity="0.6"/>
<circle cx="224.2" cy="462.3" r="3.0" fill="#b0dcfc" fill-opacity="0.6"/>
<circle cx="126.2" cy="220.7" r="3.0" fill="#b0dcfc" fill-opacity="0.6"/>
<circle cx="85.0" cy="210.4" r="3.0" fill="#b0dcfc" fill-opacity="0.6"/>
<circle cx="43.7" cy="200.2" r="3.0" fill="#b0dcfc" fill-opacity="0.6"/>
<circle cx="295.4" cy="132.2" r="3.0" fill="#b0dcfc" fill-opacity="0.6"/>
<circle cx="310.6" cy="92.5" r="3.0" fill="#b0dcfc" fill-opacity="0.6"/>
<circle cx="325.7" cy="52.8" r="3.0" fill="#b0dcfc" fill-opacity="0.6"/>
<circle cx="420.0" cy="251.3" r="3.0" fill="#b0dcfc" fill-opacity="0.6"/>
<circle cx="462.5" cy="251.3" r="3.0" fill="#b0dcfc" fill-opacity="0.6"/>
<circle cx="120.1" cy="361.1" r="3.0" fill="#b0dcfc" fill-opacity="0.6"/>
<circle cx="87.7" cy="388.5" r="3.0" fill="#b0dcfc" fill-opacity="0.6"/>
<circle cx="278.4" cy="83.7" r="3.0" fill="#b0dcfc" fill-opacity="0.6"/>
<circle cx="285.4" cy="41.8" r="3.0" fill="#b0dcfc" fill-opacity="0.6"/>
<circle cx="250.0" cy="251.34" r="233.8" fill="#e530cd" fill-opacity="0.20" stroke="#e530cd" stroke-width="1.5"/>
<circle cx="250.0" cy="251.34" r="212.5" fill="#d239e2" fill-opacity="0.20" stroke="#d239e2" stroke-width="1.5"/>
<circle cx="250.0" cy="251.34" r="191.3" fill="#c042f5" fill-opacity="0.19" stroke="#c042f5" stroke-width="1.5"/>
<circle cx="250.0" cy="251.34" r="170.0" fill="#ae4b105" fill-opacity="0.19" stroke="#ae4b105" stroke-width="1.5"/>
<circle cx="250.0" cy="251.34" r="148.8" fill="#9c54111" fill-opacity="0.18" stroke="#9c54111" stroke-width="1.5"/>
<circle cx="250.0" cy="251.34" r="127.5" fill="#8a5d117" fill-opacity="0.18" stroke="#8a5d117" stroke-width="1.5"/>
<circle cx="250.0" cy="251.34" r="106.3" fill="#7866117" fill-opacity="0.17" stroke="#7866117" stroke-width="1.5"/>
<circle cx="250.0" cy="251.34" r="85.0" fill="#666f111" fill-opacity="0.17" stroke="#666f111" stroke-width="1.5"/>
<circle cx="250.0" cy="251.34" r="63.8" fill="#5478105" fill-opacity="0.16" stroke="#5478105" stroke-width="1.5"/>
<circle cx="250.0" cy="251.34" r="42.5" fill="#4281f5" fill-opacity="0.16" stroke="#4281f5" stroke-width="1.5"/>
<circle cx="250.0" cy="251.34" r="21.3" fill="#308ae2" fill-opacity="0.15" stroke="#308ae2" stroke-width="1.5"/>
<circle cx="292.5" cy="251.3" r="3.0" fill="#b4c9fd" fill-opacity="0.6"/>
<circle cx="335.0" cy="251.3" r="3.0" fill="#b4c9fd" fill-opacity="0.6"/>
<circle cx="377.5" cy="251.3" r="3.0" fill="#b4c9fd" fill-opacity="0.6"/>
<circle cx="420.0" cy="251.3" r="3.0" fill="#b4c9fd" fill-opacity="0.6"/>
<circle cx="462.5" cy="251.3" r="3.0" fill="#b4c9fd" fill-opacity="0.6"/>
<circle cx="277.1" cy="284.1" r="3.0" fill="#b4c9fd" fill-opacity="0.6"/>
<circle cx="304.2" cy="316.8" r="3.0" fill="#b4c9fd" fill-opacity="0.6"/>
<circle cx="331.3" cy="349.6" r="3.0" fill="#b4c9fd" fill-opacity="0.6"/>
<circle cx="358.4" cy="382.3" r="3.0" fill="#b4c9fd" fill-opacity="0.6"/>
<circle cx="385.5" cy="415.1" r="3.0" fill="#b4c9fd" fill-opacity="0.6"/>
<circle cx="242.0" cy="293.1" r="3.0" fill="#b4c9fd" fill-opacity="0.6"/>
<circle cx="234.1" cy="334.8" r="3.0" fill="#b4c9fd" fill-opacity="0.6"/>
<circle cx="226.1" cy="376.6" r="3.0" fill="#b4c9fd" fill-opacity="0.6"/>
<circle cx="218.1" cy="418.3" r="3.0" fill="#b4c9fd" fill-opacity="0.6"/>
<circle cx="210.2" cy="460.1" r="3.0" fill="#b4c9fd" fill-opacity="0.6"/>
<circle cx="212.8" cy="271.8" r="3.0" fill="#b4c9fd" fill-opacity="0.6"/>
<circle cx="175.5" cy="292.3" r="3.0" fill="#b4c9fd" fill-opacity="0.6"/>
<circle cx="138.3" cy="312.8" r="3.0" fill="#b4c9fd" fill-opacity="0.6"/>
<circle cx="101.0" cy="333.2" r="3.0" fill="#b4c9fd" fill-opacity="0.6"/>
<circle cx="63.8" cy="353.7" r="3.0" fill="#b4c9fd" fill-opacity="0.6"/>
<circle cx="210.5" cy="235.7" r="3.0" fill="#b4c9fd" fill-opacity="0.6"/>
<circle cx="171.0" cy="220.0" r="3.0" fill="#b4c9fd" fill-opacity="0.6"/>
<circle cx="131.4" cy="204.4" r="3.0" fill="#b4c9fd" fill-opacity="0.6"/>
<circle cx="91.9" cy="188.8" r="3.0" fill="#b4c9fd" fill-opacity="0.6"/>
<circle cx="52.4" cy="173.1" r="3.0" fill="#b4c9fd" fill-opacity="0.6"/>
<circle cx="236.9" cy="210.9" r="3.0" fill="#b4c9fd" fill-opacity="0.6"/>
<circle cx="223.7" cy="170.5" r="3.0" fill="#b4c9fd" fill-opacity="0.6"/>
<circle cx="210.6" cy="130.1" r="3.0" fill="#b4c9fd" fill-opacity="0.6"/>
<circle cx="197.5" cy="89.7" r="3.0" fill="#b4c9fd" fill-opacity="0.6"/>
<circle cx="184.3" cy="49.2" r="3.0" fill="#b4c9fd" fill-opacity="0.6"/>
<circle cx="272.8" cy="215.5" r="3.0" fill="#b4c9fd" fill-opacity="0.6"/>
<circle cx="295.5" cy="179.6" r="3.0" fill="#b4c9fd" fill-opacity="0.6"/>
<circle cx="318.3" cy="143.7" r="3.0" fill="#b4c9fd" fill-opacity="0.6"/>
<circle cx="341.1" cy="107.8" r="3.0" fill="#b4c9fd" fill-opacity="0.6"/>
<circle cx="363.9" cy="71.9" r="3.0" fill="#b4c9fd" fill-opacity="0.6"/>
<circle cx="292.2" cy="246.0" r="3.0" fill="#b4c9fd" fill-opacity="0.6"/>
<circle cx="334.3" cy="240.7" r="3.0" fill="#b4c9fd" fill-opacity="0.6"/>
<circle cx="376.5" cy="235.4" r="3.0" fill="#b4c9fd" fill-opacity="0.6"/>
<circle cx="418.7" cy="230.0" r="3.0" fill="#b4c9fd" fill-opacity="0.6"/>
<circle cx="460.8" cy="224.7" r="3.0" fill="#b4c9fd" fill-opacity="0.6"/>
<line x1="250.0" y1="251.34" x2="443.1" y2="251.3" stroke="#5028c8" stroke-width="2.57" opacity="0.36"/>
<line x1="250.0" y1="251.34" x2="426.4" y2="329.9" stroke="#612fb7" stroke-width="2.57" opacity="0.39"/>
<line x1="250.0" y1="251.34" x2="379.2" y2="394.8" stroke="#7237a6" stroke-width="2.57" opacity="0.41"/>
<line x1="250.0" y1="251.34" x2="309.7" y2="435.0" stroke="#833f95" stroke-width="2.57" opacity="0.44"/>
<line x1="250.0" y1="251.34" x2="229.8" y2="443.4" stroke="#944784" stroke-width="2.57" opacity="0.47"/>
<line x1="250.0" y1="251.34" x2="153.4" y2="418.6" stroke="#a54f73" stroke-width="2.57" opacity="0.49"/>
<line x1="250.0" y1="251.34" x2="93.8" y2="364.8" stroke="#b65662" stroke-width="2.57" opacity="0.52"/>
<line x1="250.0" y1="251.34" x2="61.1" y2="291.5" stroke="#c75e51" stroke-width="2.57" opacity="0.55"/>
<line x1="250.0" y1="251.34" x2="61.1" y2="211.2" stroke="#d86640" stroke-width="2.57" opacity="0.57"/>
<line x1="250.0" y1="251.34" x2="93.8" y2="137.8" stroke="#d96e2f" stroke-width="2.57" opacity="0.60"/>
<line x1="250.0" y1="251.34" x2="153.4" y2="84.1" stroke="#d9761e" stroke-width="2.57" opacity="0.63"/>
<line x1="250.0" y1="251.34" x2="229.8" y2="59.3" stroke="#d97e0d" stroke-width="2.57" opacity="0.65"/>
<line x1="250.0" y1="251.34" x2="309.7" y2="67.7" stroke="#d98500" stroke-width="2.57" opacity="0.68"/>
<line x1="250.0" y1="251.34" x2="379.2" y2="107.8" stroke="#d98d00" stroke-width="2.57" opacity="0.71"/>
<line x1="250.0" y1="251.34" x2="426.4" y2="172.8" stroke="#d99500" stroke-width="2.57" opacity="0.73"/>
<line x1="250.0" y1="251.34" x2="443.1" y2="251.3" stroke="#5e21e3" stroke-width="2.57" opacity="0.23"/>
<line x1="250.0" y1="251.34" x2="420.6" y2="341.9" stroke="#7228cf" stroke-width="2.57" opacity="0.25"/>
<line x1="250.0" y1="251.34" x2="358.2" y2="411.3" stroke="#8630bb" stroke-width="2.57" opacity="0.28"/>
<line x1="250.0" y1="251.34" x2="270.6" y2="443.3" stroke="#9a38a7" stroke-width="2.57" opacity="0.30"/>
<line x1="250.0" y1="251.34" x2="178.2" y2="430.6" stroke="#ae4093" stroke-width="2.57" opacity="0.32"/>
<line x1="250.0" y1="251.34" x2="102.5" y2="376.0" stroke="#c2487f" stroke-width="2.57" opacity="0.35"/>
<line x1="250.0" y1="251.34" x2="61.3" y2="292.3" stroke="#d64f6b" stroke-width="2.57" opacity="0.37"/>
<line x1="250.0" y1="251.34" x2="64.1" y2="199.0" stroke="#ea5757" stroke-width="2.57" opacity="0.39"/>
<line x1="250.0" y1="251.34" x2="110.3" y2="118.0" stroke="#fe5f43" stroke-width="2.57" opacity="0.42"/>
<line x1="250.0" y1="251.34" x2="189.2" y2="68.1" stroke="#112672f" stroke-width="2.57" opacity="0.44"/>
<line x1="250.0" y1="251.34" x2="282.2" y2="60.9" stroke="#1266f1b" stroke-width="2.57" opacity="0.46"/>
<line x1="250.0" y1="251.34" x2="367.7" y2="98.3" stroke="#13a7607" stroke-width="2.57" opacity="0.49"/>
<line x1="250.0" y1="251.34" x2="425.8" y2="171.3" stroke="#13f7e00" stroke-width="2.57" opacity="0.51"/>
<line x1="250.0" y1="251.34" x2="442.8" y2="263.1" stroke="#13f8600" stroke-width="2.57" opacity="0.53"/>
<line x1="250.0" y1="251.34" x2="414.8" y2="352.1" stroke="#13f8e00" stroke-width="2.57" opacity="0.56"/>
<circle cx="335.0" cy="251.3" r="3.0" fill="#b5f0fc" fill-opacity="0.6"/>
<circle cx="398.8" cy="251.3" r="3.0" fill="#b5f0fc" fill-opacity="0.6"/>
<circle cx="462.5" cy="251.3" r="3.0" fill="#b5f0fc" fill-opacity="0.6"/>
<circle cx="276.3" cy="332.2" r="3.0" fill="#b5f0fc" fill-opacity="0.6"/>
<circle cx="296.0" cy="392.8" r="3.0" fill="#b5f0fc" fill-opacity="0.6"/>
<circle cx="315.7" cy="453.4" r="3.0" fill="#b5f0fc" fill-opacity="0.6"/>
<circle cx="181.2" cy="301.3" r="3.0" fill="#b5f0fc" fill-opacity="0.6"/>
<circle cx="129.7" cy="338.8" r="3.0" fill="#b5f0fc" fill-opacity="0.6"/>
<circle cx="78.1" cy="376.2" r="3.0" fill="#b5f0fc" fill-opacity="0.6"/>
<circle cx="181.2" cy="201.4" r="3.0" fill="#b5f0fc" fill-opacity="0.6"/>
<circle cx="129.7" cy="163.9" r="3.0" fill="#b5f0fc" fill-opacity="0.6"/>
<circle cx="78.1" cy="126.4" r="3.0" fill="#b5f0fc" fill-opacity="0.6"/>
<circle cx="276.3" cy="170.5" r="3.0" fill="#b5f0fc" fill-opacity="0.6"/>
<circle cx="296.0" cy="109.9" r="3.0" fill="#b5f0fc" fill-opacity="0.6"/>
<circle cx="315.7" cy="49.2" r="3.0" fill="#b5f0fc" fill-opacity="0.6"/>
<circle cx="335.0" cy="251.3" r="3.0" fill="#cbe9e8" fill-opacity="0.6"/>
<circle cx="377.5" cy="251.3" r="3.0" fill="#cbe9e8" fill-opacity="0.6"/>
<circle cx="420.0" cy="251.3" r="3.0" fill="#cbe9e8" fill-opacity="0.6"/>
<circle cx="462.5" cy="251.3" r="3.0" fill="#cbe9e8" fill-opacity="0.6"/>
<circle cx="272.2" cy="333.4" r="3.0" fill="#cbe9e8" fill-opacity="0.6"/>
<circle cx="283.3" cy="374.4" r="3.0" fill="#cbe9e8" fill-opacity="0.6"/>
<circle cx="294.3" cy="415.5" r="3.0" fill="#cbe9e8" fill-opacity="0.6"/>
<circle cx="305.4" cy="456.5" r="3.0" fill="#cbe9e8" fill-opacity="0.6"/>
<circle cx="176.6" cy="294.1" r="3.0" fill="#cbe9e8" fill-opacity="0.6"/>
<circle cx="139.8" cy="315.6" r="3.0" fill="#cbe9e8" fill-opacity="0.6"/>
<circle cx="103.1" cy="337.0" r="3.0" fill="#cbe9e8" fill-opacity="0.6"/>
<circle cx="66.4" cy="358.4" r="3.0" fill="#cbe9e8" fill-opacity="0.6"/>
<circle cx="189.5" cy="191.6" r="3.0" fill="#cbe9e8" fill-opacity="0.6"/>
<circle cx="159.3" cy="161.7" r="3.0" fill="#cbe9e8" fill-opacity="0.6"/>
<circle cx="129.0" cy="131.9" r="3.0" fill="#cbe9e8" fill-opacity="0.6"/>
<circle cx="98.8" cy="102.0" r="3.0" fill="#cbe9e8" fill-opacity="0.6"/>
<circle cx="313.8" cy="251.3" r="3.0" fill="#d3e4b8" fill-opacity="0.6"/>
<circle cx="356.3" cy="251.3" r="3.0" fill="#d3e4b8" fill-opacity="0.6"/>
<circle cx="398.8" cy="251.3" r="3.0" fill="#d3e4b8" fill-opacity="0.6"/>
<circle cx="441.3" cy="251.3" r="3.0" fill="#d3e4b8" fill-opacity="0.6"/>
<circle cx="284.8" cy="304.7" r="3.0" fill="#d3e4b8" fill-opacity="0.6"/>
<circle cx="308.1" cy="340.3" r="3.0" fill="#d3e4b8" fill-opacity="0.6"/>
<circle cx="331.3" cy="375.9" r="3.0" fill="#d3e4b8" fill-opacity="0.6"/>
<circle cx="354.5" cy="411.5" r="3.0" fill="#d3e4b8" fill-opacity="0.6"/>
<circle cx="224.3" cy="309.7" r="3.0" fill="#d3e4b8" fill-opacity="0.6"/>
<circle cx="207.2" cy="348.6" r="3.0" fill="#d3e4b8" fill-opacity="0.6"/>
<circle cx="190.1" cy="387.5" r="3.0" fill="#d3e4b8" fill-opacity="0.6"/>
<circle cx="172.9" cy="426.4" r="3.0" fill="#d3e4b8" fill-opacity="0.6"/>
<circle cx="187.1" cy="261.7" r="3.0" fill="#d3e4b8" fill-opacity="0.6"/>
<circle cx="145.2" cy="268.6" r="3.0" fill="#d3e4b8" fill-opacity="0.6"/>
<circle cx="103.2" cy="275.5" r="3.0" fill="#d3e4b8" fill-opacity="0.6"/>
<circle cx="61.3" cy="282.4" r="3.0" fill="#d3e4b8" fill-opacity="0.6"/>
<circle cx="206.9" cy="204.3" r="3.0" fill="#d3e4b8" fill-opacity="0.6"/>
<circle cx="178.2" cy="173.0" r="3.0" fill="#d3e4b8" fill-opacity="0.6"/>
<circle cx="149.5" cy="141.6" r="3.0" fill="#d3e4b8" fill-opacity="0.6"/>
<circle cx="120.8" cy="110.3" r="3.0" fill="#d3e4b8" fill-opacity="0.6"/>
<circle cx="265.9" cy="189.6" r="3.0" fill="#d3e4b8" fill-opacity="0.6"/>
<circle cx="276.4" cy="148.4" r="3.0" fill="#d3e4b8" fill-opacity="0.6"/>
<circle cx="287.0" cy="107.3" r="3.0" fill="#d3e4b8" fill-opacity="0.6"/>
<circle cx="297.6" cy="66.1" r="3.0" fill="#d3e4b8" fill-opacity="0.6"/>
<circle cx="310.4" cy="230.9" r="3.0" fill="#d3e4b8" fill-opacity="0.6"/>
<circle cx="350.6" cy="217.2" r="3.0" fill="#d3e4b8" fill-opacity="0.6"/>
<circle cx="390.9" cy="203.6" r="3.0" fill="#d3e4b8" fill-opacity="0.6"/>
<circle cx="431.1" cy="190.0" r="3.0" fill="#d3e4b8" fill-opacity="0.6"/>
<circle cx="300.1" cy="290.7" r="3.0" fill="#d3e4b8" fill-opacity="0.6"/>
<circle cx="333.5" cy="317.0" r="3.0" fill="#d3e4b8" fill-opacity="0.6"/>
<circle cx="367.0" cy="343.3" r="3.0" fill="#d3e4b8" fill-opacity="0.6"/>
<circle cx="400.4" cy="369.5" r="3.0" fill="#d3e4b8" fill-opacity="0.6"/>
<line x1="250.0" y1="251.34" x2="443.1" y2="251.3" stroke="#402de5" stroke-width="2.57" opacity="0.38"/>
<line x1="250.0" y1="251.34" x2="416.6" y2="348.9" stroke="#5236d3" stroke-width="2.57" opacity="0.40"/>
<line x1="250.0" y1="251.34" x2="344.4" y2="419.8" stroke="#643fc1" stroke-width="2.57" opacity="0.42"/>
<line x1="250.0" y1="251.34" x2="246.4" y2="444.4" stroke="#7649af" stroke-width="2.57" opacity="0.44"/>
<line x1="250.0" y1="251.34" x2="149.3" y2="416.1" stroke="#88529d" stroke-width="2.57" opacity="0.47"/>
<line x1="250.0" y1="251.34" x2="79.8" y2="342.6" stroke="#9a5b8b" stroke-width="2.57" opacity="0.49"/>
<line x1="250.0" y1="251.34" x2="57.0" y2="244.1" stroke="#ac6579" stroke-width="2.57" opacity="0.51"/>
<line x1="250.0" y1="251.34" x2="87.2" y2="147.5" stroke="#be6e67" stroke-width="2.57" opacity="0.53"/>
<line x1="250.0" y1="251.34" x2="162.0" y2="79.5" stroke="#d17854" stroke-width="2.57" opacity="0.55"/>
<line x1="250.0" y1="251.34" x2="260.9" y2="58.5" stroke="#dd8142" stroke-width="2.57" opacity="0.57"/>
<line x1="250.0" y1="251.34" x2="356.9" y2="90.5" stroke="#dd8b30" stroke-width="2.57" opacity="0.59"/>
<line x1="250.0" y1="251.34" x2="423.5" y2="166.6" stroke="#dd941e" stroke-width="2.57" opacity="0.61"/>
<line x1="250.0" y1="251.34" x2="442.6" y2="265.9" stroke="#dd9d0c" stroke-width="2.57" opacity="0.64"/>
<line x1="250.0" y1="251.34" x2="408.8" y2="361.2" stroke="#dda700" stroke-width="2.57" opacity="0.66"/>
<line x1="250.0" y1="251.34" x2="331.5" y2="426.4" stroke="#ddb000" stroke-width="2.57" opacity="0.68"/>
<circle cx="313.8" cy="251.3" r="3.0" fill="#b4c9fd" fill-opacity="0.6"/>
<circle cx="356.3" cy="251.3" r="3.0" fill="#b4c9fd" fill-opacity="0.6"/>
<circle cx="398.8" cy="251.3" r="3.0" fill="#b4c9fd" fill-opacity="0.6"/>
<circle cx="441.3" cy="251.3" r="3.0" fill="#b4c9fd" fill-opacity="0.6"/>
<circle cx="277.9" cy="308.7" r="3.0" fill="#b4c9fd" fill-opacity="0.6"/>
<circle cx="296.4" cy="346.9" r="3.0" fill="#b4c9fd" fill-opacity="0.6"/>
<circle cx="315.0" cy="385.1" r="3.0" fill="#b4c9fd" fill-opacity="0.6"/>
<circle cx="333.6" cy="423.4" r="3.0" fill="#b4c9fd" fill-opacity="0.6"/>
<circle cx="210.6" cy="301.5" r="3.0" fill="#b4c9fd" fill-opacity="0.6"/>
<circle cx="184.3" cy="334.9" r="3.0" fill="#b4c9fd" fill-opacity="0.6"/>
<circle cx="158.1" cy="368.3" r="3.0" fill="#b4c9fd" fill-opacity="0.6"/>
<circle cx="131.8" cy="401.7" r="3.0" fill="#b4c9fd" fill-opacity="0.6"/>
<circle cx="187.7" cy="237.8" r="3.0" fill="#b4c9fd" fill-opacity="0.6"/>
<circle cx="146.2" cy="228.8" r="3.0" fill="#b4c9fd" fill-opacity="0.6"/>
<circle cx="104.6" cy="219.8" r="3.0" fill="#b4c9fd" fill-opacity="0.6"/>
<circle cx="63.1" cy="210.8" r="3.0" fill="#b4c9fd" fill-opacity="0.6"/>
<circle cx="234.9" cy="189.4" r="3.0" fill="#b4c9fd" fill-opacity="0.6"/>
<circle cx="224.9" cy="148.1" r="3.0" fill="#b4c9fd" fill-opacity="0.6"/>
<circle cx="214.8" cy="106.8" r="3.0" fill="#b4c9fd" fill-opacity="0.6"/>
<circle cx="204.8" cy="65.5" r="3.0" fill="#b4c9fd" fill-opacity="0.6"/>
<circle cx="299.1" cy="210.7" r="3.0" fill="#b4c9fd" fill-opacity="0.6"/>
<circle cx="331.9" cy="183.6" r="3.0" fill="#b4c9fd" fill-opacity="0.6"/>
<circle cx="364.6" cy="156.5" r="3.0" fill="#b4c9fd" fill-opacity="0.6"/>
<circle cx="397.4" cy="129.4" r="3.0" fill="#b4c9fd" fill-opacity="0.6"/>
<circle cx="308.0" cy="277.8" r="3.0" fill="#b4c9fd" fill-opacity="0.6"/>
<circle cx="346.7" cy="295.4" r="3.0" fill="#b4c9fd" fill-opacity="0.6"/>
<circle cx="385.4" cy="313.0" r="3.0" fill="#b4c9fd" fill-opacity="0.6"/>
<circle cx="424.1" cy="330.6" r="3.0" fill="#b4c9fd" fill-opacity="0.6"/>
<circle cx="251.6" cy="315.1" r="3.0" fill="#b4c9fd" fill-opacity="0.6"/>
<circle cx="252.7" cy="357.6" r="3.0" fill="#b4c9fd" fill-opacity="0.6"/>
<circle cx="253.7" cy="400.0" r="3.0" fill="#b4c9fd" fill-opacity="0.6"/>
<circle cx="254.8" cy="442.5" r="3.0" fill="#b4c9fd" fill-opacity="0.6"/>
<circle cx="313.8" cy="251.3" r="3.0" fill="#a0c3c8" fill-opacity="0.6"/>
<circle cx="356.3" cy="251.3" r="3.0" fill="#a0c3c8" fill-opacity="0.6"/>
<circle cx="398.8" cy="251.3" r="3.0" fill="#a0c3c8" fill-opacity="0.6"/>
<circle cx="441.3" cy="251.3" r="3.0" fill="#a0c3c8" fill-opacity="0.6"/>
<circle cx="301.9" cy="288.4" r="3.0" fill="#a0c3c8" fill-opacity="0.6"/>
<circle cx="336.5" cy="313.1" r="3.0" fill="#a0c3c8" fill-opacity="0.6"/>
<circle cx="371.1" cy="337.8" r="3.0" fill="#a0c3c8" fill-opacity="0.6"/>
<circle cx="405.7" cy="362.5" r="3.0" fill="#a0c3c8" fill-opacity="0.6"/>
<circle cx="270.7" cy="311.6" r="3.0" fill="#a0c3c8" fill-opacity="0.6"/>
<circle cx="284.5" cy="351.8" r="3.0" fill="#a0c3c8" fill-opacity="0.6"/>
<circle cx="298.3" cy="392.0" r="3.0" fill="#a0c3c8" fill-opacity="0.6"/>
<circle cx="312.1" cy="432.2" r="3.0" fill="#a0c3c8" fill-opacity="0.6"/>
<circle cx="231.8" cy="312.4" r="3.0" fill="#a0c3c8" fill-opacity="0.6"/>
<circle cx="219.7" cy="353.2" r="3.0" fill="#a0c3c8" fill-opacity="0.6"/>
<circle cx="207.6" cy="393.9" r="3.0" fill="#a0c3c8" fill-opacity="0.6"/>
<circle cx="195.5" cy="434.7" r="3.0" fill="#a0c3c8" fill-opacity="0.6"/>
<circle cx="199.7" cy="290.5" r="3.0" fill="#a0c3c8" fill-opacity="0.6"/>
<circle cx="166.2" cy="316.6" r="3.0" fill="#a0c3c8" fill-opacity="0.6"/>
<circle cx="132.7" cy="342.8" r="3.0" fill="#a0c3c8" fill-opacity="0.6"/>
<circle cx="99.1" cy="368.9" r="3.0" fill="#a0c3c8" fill-opacity="0.6"/>
<circle cx="186.3" cy="254.0" r="3.0" fill="#a0c3c8" fill-opacity="0.6"/>
<circle cx="143.8" cy="255.8" r="3.0" fill="#a0c3c8" fill-opacity="0.6"/>
<circle cx="101.4" cy="257.6" r="3.0" fill="#a0c3c8" fill-opacity="0.6"/>
<circle cx="58.9" cy="259.3" r="3.0" fill="#a0c3c8" fill-opacity="0.6"/>
<circle cx="196.6" cy="216.5" r="3.0" fill="#a0c3c8" fill-opacity="0.6"/>
<circle cx="161.0" cy="193.3" r="3.0" fill="#a0c3c8" fill-opacity="0.6"/>
<circle cx="125.4" cy="170.1" r="3.0" fill="#a0c3c8" fill-opacity="0.6"/>
<circle cx="89.8" cy="146.8" r="3.0" fill="#a0c3c8" fill-opacity="0.6"/>
<circle cx="226.8" cy="192.0" r="3.0" fill="#a0c3c8" fill-opacity="0.6"/>
<circle cx="211.3" cy="152.4" r="3.0" fill="#a0c3c8" fill-opacity="0.6"/>
<circle cx="195.8" cy="112.8" r="3.0" fill="#a0c3c8" fill-opacity="0.6"/>
<circle cx="180.3" cy="73.2" r="3.0" fill="#a0c3c8" fill-opacity="0.6"/>
<circle cx="313.8" cy="251.3" r="3.0" fill="#a0c3c8" fill-opacity="0.6"/>
<circle cx="356.3" cy="251.3" r="3.0" fill="#a0c3c8" fill-opacity="0.6"/>
<circle cx="398.8" cy="251.3" r="3.0" fill="#a0c3c8" fill-opacity="0.6"/>
<circle cx="441.3" cy="251.3" r="3.0" fill="#a0c3c8" fill-opacity="0.6"/>
<circle cx="304.1" cy="285.0" r="3.0" fill="#a0c3c8" fill-opacity="0.6"/>
<circle cx="340.2" cy="307.5" r="3.0" fill="#a0c3c8" fill-opacity="0.6"/>
<circle cx="376.3" cy="330.0" r="3.0" fill="#a0c3c8" fill-opacity="0.6"/>
<circle cx="412.3" cy="352.5" r="3.0" fill="#a0c3c8" fill-opacity="0.6"/>
<circle cx="278.1" cy="308.6" r="3.0" fill="#a0c3c8" fill-opacity="0.6"/>
<circle cx="296.8" cy="346.7" r="3.0" fill="#a0c3c8" fill-opacity="0.6"/>
<circle cx="315.6" cy="384.9" r="3.0" fill="#a0c3c8" fill-opacity="0.6"/>
<circle cx="334.3" cy="423.0" r="3.0" fill="#a0c3c8" fill-opacity="0.6"/>
<circle cx="243.6" cy="314.8" r="3.0" fill="#a0c3c8" fill-opacity="0.6"/>
<circle cx="239.3" cy="357.1" r="3.0" fill="#a0c3c8" fill-opacity="0.6"/>
<circle cx="235.1" cy="399.3" r="3.0" fill="#a0c3c8" fill-opacity="0.6"/>
<circle cx="230.8" cy="441.6" r="3.0" fill="#a0c3c8" fill-opacity="0.6"/>
<circle cx="211.0" cy="301.8" r="3.0" fill="#a0c3c8" fill-opacity="0.6"/>
<circle cx="185.1" cy="335.4" r="3.0" fill="#a0c3c8" fill-opacity="0.6"/>
<circle cx="159.1" cy="369.1" r="3.0" fill="#a0c3c8" fill-opacity="0.6"/>
<circle cx="133.1" cy="402.7" r="3.0" fill="#a0c3c8" fill-opacity="0.6"/>
<circle cx="190.2" cy="273.6" r="3.0" fill="#a0c3c8" fill-opacity="0.6"/>
<circle cx="150.4" cy="288.4" r="3.0" fill="#a0c3c8" fill-opacity="0.6"/>
<circle cx="110.6" cy="303.2" r="3.0" fill="#a0c3c8" fill-opacity="0.6"/>
<circle cx="70.7" cy="318.0" r="3.0" fill="#a0c3c8" fill-opacity="0.6"/>
<circle cx="187.5" cy="238.6" r="3.0" fill="#a0c3c8" fill-opacity="0.6"/>
<circle cx="145.9" cy="230.1" r="3.0" fill="#a0c3c8" fill-opacity="0.6"/>
<circle cx="104.2" cy="221.6" r="3.0" fill="#a0c3c8" fill-opacity="0.6"/>
<circle cx="62.6" cy="213.1" r="3.0" fill="#a0c3c8" fill-opacity="0.6"/>
<circle cx="203.7" cy="207.5" r="3.0" fill="#a0c3c8" fill-opacity="0.6"/>
<circle cx="172.8" cy="178.3" r="3.0" fill="#a0c3c8" fill-opacity="0.6"/>
<circle cx="142.0" cy="149.1" r="3.0" fill="#a0c3c8" fill-opacity="0.6"/>
<circle cx="111.1" cy="119.8" r="3.0" fill="#a0c3c8" fill-opacity="0.6"/>
<circle cx="250.0" cy="251.34" r="233.8" fill="#dd2bd7" fill-opacity="0.27" stroke="#dd2bd7" stroke-width="1.5"/>
<circle cx="250.0" cy="251.34" r="212.5" fill="#cb31ec" fill-opacity="0.27" stroke="#cb31ec" stroke-width="1.5"/>
<circle cx="250.0" cy="251.34" r="191.3" fill="#ba37ff" fill-opacity="0.26" stroke="#ba37ff" stroke-width="1.5"/>
<circle cx="250.0" cy="251.34" r="170.0" fill="#a83d10f" fill-opacity="0.26" stroke="#a83d10f" stroke-width="1.5"/>
<circle cx="250.0" cy="251.34" r="148.8" fill="#974411b" fill-opacity="0.26" stroke="#974411b" stroke-width="1.5"/>
<circle cx="250.0" cy="251.34" r="127.5" fill="#854a121" fill-opacity="0.25" stroke="#854a121" stroke-width="1.5"/>
<circle cx="250.0" cy="251.34" r="106.3" fill="#7450121" fill-opacity="0.25" stroke="#7450121" stroke-width="1.5"/>
<circle cx="250.0" cy="251.34" r="85.0" fill="#625711b" fill-opacity="0.24" stroke="#625711b" stroke-width="1.5"/>
<circle cx="250.0" cy="251.34" r="63.8" fill="#515d10f" fill-opacity="0.24" stroke="#515d10f" stroke-width="1.5"/>
<circle cx="250.0" cy="251.34" r="42.5" fill="#3f63ff" fill-opacity="0.24" stroke="#3f63ff" stroke-width="1.5"/>
<circle cx="250.0" cy="251.34" r="21.3" fill="#2e69ec" fill-opacity="0.23" stroke="#2e69ec" stroke-width="1.5"/>
<circle cx="292.5" cy="251.3" r="3.0" fill="#add9b9" fill-opacity="0.6"/>
<circle cx="356.3" cy="251.3" r="3.0" fill="#add9b9" fill-opacity="0.6"/>
<circle cx="420.0" cy="251.3" r="3.0" fill="#add9b9" fill-opacity="0.6"/>
<circle cx="267.4" cy="290.1" r="3.0" fill="#add9b9" fill-opacity="0.6"/>
<circle cx="293.6" cy="348.2" r="3.0" fill="#add9b9" fill-opacity="0.6"/>
<circle cx="319.8" cy="406.4" r="3.0" fill="#add9b9" fill-opacity="0.6"/>
<circle cx="221.8" cy="283.2" r="3.0" fill="#add9b9" fill-opacity="0.6"/>
<circle cx="179.6" cy="330.9" r="3.0" fill="#add9b9" fill-opacity="0.6"/>
<circle cx="137.3" cy="378.6" r="3.0" fill="#add9b9" fill-opacity="0.6"/>
<circle cx="209.4" cy="238.7" r="3.0" fill="#add9b9" fill-opacity="0.6"/>
<circle cx="148.5" cy="219.8" r="3.0" fill="#add9b9" fill-opacity="0.6"/>
<circle cx="87.7" cy="200.8" r="3.0" fill="#add9b9" fill-opacity="0.6"/>
<circle cx="356.3" cy="251.3" r="3.0" fill="#aad6ff" fill-opacity="0.6"/>
<circle cx="398.8" cy="251.3" r="3.0" fill="#aad6ff" fill-opacity="0.6"/>
<circle cx="441.3" cy="251.3" r="3.0" fill="#aad6ff" fill-opacity="0.6"/>
<circle cx="266.6" cy="356.3" r="3.0" fill="#aad6ff" fill-opacity="0.6"/>
<circle cx="273.3" cy="398.3" r="3.0" fill="#aad6ff" fill-opacity="0.6"/>
<circle cx="279.9" cy="440.2" r="3.0" fill="#aad6ff" fill-opacity="0.6"/>
<circle cx="148.9" cy="284.2" r="3.0" fill="#aad6ff" fill-opacity="0.6"/>
<circle cx="108.5" cy="297.3" r="3.0" fill="#aad6ff" fill-opacity="0.6"/>
<circle cx="68.1" cy="310.4" r="3.0" fill="#aad6ff" fill-opacity="0.6"/>
<circle cx="292.5" cy="251.3" r="3.0" fill="#b6fdff" fill-opacity="0.6"/>
<circle cx="335.0" cy="251.3" r="3.0" fill="#b6fdff" fill-opacity="0.6"/>
<circle cx="377.5" cy="251.3" r="3.0" fill="#b6fdff" fill-opacity="0.6"/>
<circle cx="420.0" cy="251.3" r="3.0" fill="#b6fdff" fill-opacity="0.6"/>
<circle cx="462.5" cy="251.3" r="3.0" fill="#b6fdff" fill-opacity="0.6"/>
<circle cx="275.3" cy="285.5" r="3.0" fill="#b6fdff" fill-opacity="0.6"/>
<circle cx="300.5" cy="319.7" r="3.0" fill="#b6fdff" fill-opacity="0.6"/>
<circle cx="325.8" cy="353.9" r="3.0" fill="#b6fdff" fill-opacity="0.6"/>
<circle cx="351.1" cy="388.0" r="3.0" fill="#b6fdff" fill-opacity="0.6"/>
<circle cx="376.3" cy="422.2" r="3.0" fill="#b6fdff" fill-opacity="0.6"/>
<circle cx="237.5" cy="292.0" r="3.0" fill="#b6fdff" fill-opacity="0.6"/>
<circle cx="225.1" cy="332.6" r="3.0" fill="#b6fdff" fill-opacity="0.6"/>
<circle cx="212.6" cy="373.2" r="3.0" fill="#b6fdff" fill-opacity="0.6"/>
<circle cx="200.2" cy="413.9" r="3.0" fill="#b6fdff" fill-opacity="0.6"/>
<circle cx="187.7" cy="454.5" r="3.0" fill="#b6fdff" fill-opacity="0.6"/>
<circle cx="209.9" cy="265.5" r="3.0" fill="#b6fdff" fill-opacity="0.6"/>
<circle cx="169.8" cy="279.6" r="3.0" fill="#b6fdff" fill-opacity="0.6"/>
<circle cx="129.8" cy="293.8" r="3.0" fill="#b6fdff" fill-opacity="0.6"/>
<circle cx="89.7" cy="307.9" r="3.0" fill="#b6fdff" fill-opacity="0.6"/>
<circle cx="49.6" cy="322.1" r="3.0" fill="#b6fdff" fill-opacity="0.6"/>
<circle cx="214.8" cy="227.5" r="3.0" fill="#b6fdff" fill-opacity="0.6"/>
<circle cx="179.6" cy="203.7" r="3.0" fill="#b6fdff" fill-opacity="0.6"/>
<circle cx="144.4" cy="179.9" r="3.0" fill="#b6fdff" fill-opacity="0.6"/>
<circle cx="109.2" cy="156.1" r="3.0" fill="#b6fdff" fill-opacity="0.6"/>
<circle cx="74.0" cy="132.3" r="3.0" fill="#b6fdff" fill-opacity="0.6"/>
<circle cx="248.2" cy="208.9" r="3.0" fill="#b6fdff" fill-opacity="0.6"/>
<circle cx="246.4" cy="166.4" r="3.0" fill="#b6fdff" fill-opacity="0.6"/>
<circle cx="244.7" cy="123.9" r="3.0" fill="#b6fdff" fill-opacity="0.6"/>
<circle cx="242.9" cy="81.5" r="3.0" fill="#b6fdff" fill-opacity="0.6"/>
<circle cx="241.1" cy="39.0" r="3.0" fill="#b6fdff" fill-opacity="0.6"/>
<circle cx="283.1" cy="224.7" r="3.0" fill="#b6fdff" fill-opacity="0.6"/>
<circle cx="316.2" cy="198.0" r="3.0" fill="#b6fdff" fill-opacity="0.6"/>
<circle cx="349.3" cy="171.3" r="3.0" fill="#b6fdff" fill-opacity="0.6"/>
<circle cx="382.3" cy="144.6" r="3.0" fill="#b6fdff" fill-opacity="0.6"/>
<circle cx="415.4" cy="117.9" r="3.0" fill="#b6fdff" fill-opacity="0.6"/>
<circle cx="291.1" cy="262.1" r="3.0" fill="#b6fdff" fill-opacity="0.6"/>
<circle cx="332.2" cy="272.8" r="3.0" fill="#b6fdff" fill-opacity="0.6"/>
<circle cx="373.4" cy="283.6" r="3.0" fill="#b6fdff" fill-opacity="0.6"/>
<circle cx="414.5" cy="294.3" r="3.0" fill="#b6fdff" fill-opacity="0.6"/>
<circle cx="455.6" cy="305.1" r="3.0" fill="#b6fdff" fill-opacity="0.6"/>
<circle cx="313.8" cy="251.3" r="3.0" fill="#a9cfff" fill-opacity="0.6"/>
<circle cx="356.3" cy="251.3" r="3.0" fill="#a9cfff" fill-opacity="0.6"/>
<circle cx="398.8" cy="251.3" r="3.0" fill="#a9cfff" fill-opacity="0.6"/>
<circle cx="441.3" cy="251.3" r="3.0" fill="#a9cfff" fill-opacity="0.6"/>
<circle cx="290.4" cy="300.6" r="3.0" fill="#a9cfff" fill-opacity="0.6"/>
<circle cx="317.4" cy="333.5" r="3.0" fill="#a9cfff" fill-opacity="0.6"/>
<circle cx="344.3" cy="366.4" r="3.0" fill="#a9cfff" fill-opacity="0.6"/>
<circle cx="371.3" cy="399.2" r="3.0" fill="#a9cfff" fill-opacity="0.6"/>
<circle cx="237.5" cy="313.9" r="3.0" fill="#a9cfff" fill-opacity="0.6"/>
<circle cx="229.2" cy="355.5" r="3.0" fill="#a9cfff" fill-opacity="0.6"/>
<circle cx="220.9" cy="397.2" r="3.0" fill="#a9cfff" fill-opacity="0.6"/>
<circle cx="212.6" cy="438.9" r="3.0" fill="#a9cfff" fill-opacity="0.6"/>
<circle cx="193.8" cy="281.3" r="3.0" fill="#a9cfff" fill-opacity="0.6"/>
<circle cx="156.3" cy="301.4" r="3.0" fill="#a9cfff" fill-opacity="0.6"/>
<circle cx="118.8" cy="321.4" r="3.0" fill="#a9cfff" fill-opacity="0.6"/>
<circle cx="81.3" cy="341.4" r="3.0" fill="#a9cfff" fill-opacity="0.6"/>
<circle cx="191.1" cy="226.9" r="3.0" fill="#a9cfff" fill-opacity="0.6"/>
<circle cx="151.9" cy="210.6" r="3.0" fill="#a9cfff" fill-opacity="0.6"/>
<circle cx="112.6" cy="194.3" r="3.0" fill="#a9cfff" fill-opacity="0.6"/>
<circle cx="73.4" cy="178.0" r="3.0" fill="#a9cfff" fill-opacity="0.6"/>
<circle cx="231.6" cy="190.3" r="3.0" fill="#a9cfff" fill-opacity="0.6"/>
<circle cx="219.3" cy="149.6" r="3.0" fill="#a9cfff" fill-opacity="0.6"/>
<circle cx="207.0" cy="108.9" r="3.0" fill="#a9cfff" fill-opacity="0.6"/>
<circle cx="194.7" cy="68.2" r="3.0" fill="#a9cfff" fill-opacity="0.6"/>
<circle cx="285.5" cy="198.4" r="3.0" fill="#a9cfff" fill-opacity="0.6"/>
<circle cx="309.2" cy="163.1" r="3.0" fill="#a9cfff" fill-opacity="0.6"/>
<circle cx="332.8" cy="127.8" r="3.0" fill="#a9cfff" fill-opacity="0.6"/>
<circle cx="356.5" cy="92.5" r="3.0" fill="#a9cfff" fill-opacity="0.6"/>
<circle cx="313.5" cy="245.2" r="3.0" fill="#a9cfff" fill-opacity="0.6"/>
<circle cx="355.8" cy="241.1" r="3.0" fill="#a9cfff" fill-opacity="0.6"/>
<circle cx="398.1" cy="237.0" r="3.0" fill="#a9cfff" fill-opacity="0.6"/>
<circle cx="440.4" cy="232.9" r="3.0" fill="#a9cfff" fill-opacity="0.6"/>
<circle cx="250.0" cy="251.34" r="233.8" fill="#f05bd4" fill-opacity="0.21" stroke="#f05bd4" stroke-width="1.5"/>
<circle cx="250.0" cy="251.34" r="212.5" fill="#de64e1" fill-opacity="0.21" stroke="#de64e1" stroke-width="1.5"/>
<circle cx="250.0" cy="251.34" r="191.3" fill="#cc6ded" fill-opacity="0.20" stroke="#cc6ded" stroke-width="1.5"/>
<circle cx="250.0" cy="251.34" r="170.0" fill="#ba75f7" fill-opacity="0.20" stroke="#ba75f7" stroke-width="1.5"/>
<circle cx="250.0" cy="251.34" r="148.8" fill="#a87efe" fill-opacity="0.20" stroke="#a87efe" stroke-width="1.5"/>
<circle cx="250.0" cy="251.34" r="127.5" fill="#9687102" fill-opacity="0.19" stroke="#9687102" stroke-width="1.5"/>
<circle cx="250.0" cy="251.34" r="106.3" fill="#848f102" fill-opacity="0.19" stroke="#848f102" stroke-width="1.5"/>
<circle cx="250.0" cy="251.34" r="85.0" fill="#7298fe" fill-opacity="0.18" stroke="#7298fe" stroke-width="1.5"/>
<circle cx="250.0" cy="251.34" r="63.8" fill="#60a1f7" fill-opacity="0.18" stroke="#60a1f7" stroke-width="1.5"/>
<circle cx="250.0" cy="251.34" r="42.5" fill="#4ea9ed" fill-opacity="0.18" stroke="#4ea9ed" stroke-width="1.5"/>
<circle cx="250.0" cy="251.34" r="21.3" fill="#3cb2e1" fill-opacity="0.17" stroke="#3cb2e1" stroke-width="1.5"/>
<circle cx="335.0" cy="251.3" r="3.0" fill="#79e7df" fill-opacity="0.6"/>
<circle cx="377.5" cy="251.3" r="3.0" fill="#79e7df" fill-opacity="0.6"/>
<circle cx="420.0" cy="251.3" r="3.0" fill="#79e7df" fill-opacity="0.6"/>
<circle cx="462.5" cy="251.3" r="3.0" fill="#79e7df" fill-opacity="0.6"/>
<circle cx="314.3" cy="306.9" r="3.0" fill="#79e7df" fill-opacity="0.6"/>
<circle cx="346.5" cy="334.7" r="3.0" fill="#79e7df" fill-opacity="0.6"/>
<circle cx="378.7" cy="362.4" r="3.0" fill="#79e7df" fill-opacity="0.6"/>
<circle cx="410.9" cy="390.2" r="3.0" fill="#79e7df" fill-opacity="0.6"/>
<circle cx="262.4" cy="335.4" r="3.0" fill="#79e7df" fill-opacity="0.6"/>
<circle cx="268.6" cy="377.5" r="3.0" fill="#79e7df" fill-opacity="0.6"/>
<circle cx="274.8" cy="419.5" r="3.0" fill="#79e7df" fill-opacity="0.6"/>
<circle cx="281.0" cy="461.6" r="3.0" fill="#79e7df" fill-opacity="0.6"/>
<circle cx="204.5" cy="323.1" r="3.0" fill="#79e7df" fill-opacity="0.6"/>
<circle cx="181.7" cy="359.0" r="3.0" fill="#79e7df" fill-opacity="0.6"/>
<circle cx="158.9" cy="394.9" r="3.0" fill="#79e7df" fill-opacity="0.6"/>
<circle cx="136.1" cy="430.8" r="3.0" fill="#79e7df" fill-opacity="0.6"/>
<circle cx="168.6" cy="275.9" r="3.0" fill="#79e7df" fill-opacity="0.6"/>
<circle cx="127.9" cy="288.2" r="3.0" fill="#79e7df" fill-opacity="0.6"/>
<circle cx="87.2" cy="300.5" r="3.0" fill="#79e7df" fill-opacity="0.6"/>
<circle cx="46.6" cy="312.8" r="3.0" fill="#79e7df" fill-opacity="0.6"/>
<circle cx="172.3" cy="216.8" r="3.0" fill="#79e7df" fill-opacity="0.6"/>
<circle cx="133.5" cy="199.5" r="3.0" fill="#79e7df" fill-opacity="0.6"/>
<circle cx="94.7" cy="182.2" r="3.0" fill="#79e7df" fill-opacity="0.6"/>
<circle cx="55.9" cy="164.9" r="3.0" fill="#79e7df" fill-opacity="0.6"/>
<circle cx="213.8" cy="174.4" r="3.0" fill="#79e7df" fill-opacity="0.6"/>
<circle cx="195.7" cy="136.0" r="3.0" fill="#79e7df" fill-opacity="0.6"/>
<circle cx="177.6" cy="97.5" r="3.0" fill="#79e7df" fill-opacity="0.6"/>
<circle cx="159.5" cy="59.1" r="3.0" fill="#79e7df" fill-opacity="0.6"/>
<circle cx="272.9" cy="169.5" r="3.0" fill="#79e7df" fill-opacity="0.6"/>
<circle cx="284.3" cy="128.5" r="3.0" fill="#79e7df" fill-opacity="0.6"/>
<circle cx="295.7" cy="87.6" r="3.0" fill="#79e7df" fill-opacity="0.6"/>
<circle cx="307.1" cy="46.7" r="3.0" fill="#79e7df" fill-opacity="0.6"/>
<line x1="250.0" y1="251.34" x2="443.1" y2="251.3" stroke="#3223153" stroke-width="2.57" opacity="0.31"/>
<line x1="250.0" y1="251.34" x2="412.8" y2="355.2" stroke="#3b2814a" stroke-width="2.57" opacity="0.33"/>
<line x1="250.0" y1="251.34" x2="331.5" y2="426.4" stroke="#452d140" stroke-width="2.57" opacity="0.35"/>
<line x1="250.0" y1="251.34" x2="224.6" y2="442.8" stroke="#4e32137" stroke-width="2.57" opacity="0.37"/>
<line x1="250.0" y1="251.34" x2="125.7" y2="399.1" stroke="#583812d" stroke-width="2.57" opacity="0.39"/>
<line x1="250.0" y1="251.34" x2="65.7" y2="309.1" stroke="#613d124" stroke-width="2.57" opacity="0.41"/>
<line x1="250.0" y1="251.34" x2="63.6" y2="201.0" stroke="#6b4211a" stroke-width="2.57" opacity="0.43"/>
<line x1="250.0" y1="251.34" x2="119.9" y2="108.6" stroke="#7447111" stroke-width="2.57" opacity="0.45"/>
<line x1="250.0" y1="251.34" x2="217.0" y2="61.1" stroke="#7e4d107" stroke-width="2.57" opacity="0.47"/>
<line x1="250.0" y1="251.34" x2="324.5" y2="73.2" stroke="#8752fe" stroke-width="2.57" opacity="0.49"/>
<line x1="250.0" y1="251.34" x2="408.6" y2="141.1" stroke="#9158f4" stroke-width="2.57" opacity="0.51"/>
<line x1="250.0" y1="251.34" x2="443.0" y2="243.7" stroke="#9a5deb" stroke-width="2.57" opacity="0.53"/>
<line x1="250.0" y1="251.34" x2="416.8" y2="348.6" stroke="#a462e1" stroke-width="2.57" opacity="0.55"/>
<line x1="250.0" y1="251.34" x2="338.4" y2="423.0" stroke="#ad67d8" stroke-width="2.57" opacity="0.57"/>
<line x1="250.0" y1="251.34" x2="232.2" y2="443.6" stroke="#b76dce" stroke-width="2.57" opacity="0.59"/>
<circle cx="250.0" cy="251.34" r="233.8" fill="#13a10cb" fill-opacity="0.16" stroke="#13a10cb" stroke-width="1.5"/>
<circle cx="250.0" cy="251.34" r="212.5" fill="#12017e3" fill-opacity="0.15" stroke="#12017e3" stroke-width="1.5"/>
<circle cx="250.0" cy="251.34" r="191.3" fill="#1071efa" fill-opacity="0.15" stroke="#1071efa" stroke-width="1.5"/>
<circle cx="250.0" cy="251.34" r="170.0" fill="#ee2510c" fill-opacity="0.14" stroke="#ee2510c" stroke-width="1.5"/>
<circle cx="250.0" cy="251.34" r="148.8" fill="#d52c11a" fill-opacity="0.14" stroke="#d52c11a" stroke-width="1.5"/>
<circle cx="250.0" cy="251.34" r="127.5" fill="#bc33121" fill-opacity="0.13" stroke="#bc33121" stroke-width="1.5"/>
<circle cx="250.0" cy="251.34" r="106.3" fill="#a33a121" fill-opacity="0.13" stroke="#a33a121" stroke-width="1.5"/>
<circle cx="250.0" cy="251.34" r="85.0" fill="#8a4111a" fill-opacity="0.12" stroke="#8a4111a" stroke-width="1.5"/>
<circle cx="250.0" cy="251.34" r="63.8" fill="#714710c" fill-opacity="0.12" stroke="#714710c" stroke-width="1.5"/>
<circle cx="250.0" cy="251.34" r="42.5" fill="#584efa" fill-opacity="0.11" stroke="#584efa" stroke-width="1.5"/>
<circle cx="250.0" cy="251.34" r="21.3" fill="#3f55e3" fill-opacity="0.11" stroke="#3f55e3" stroke-width="1.5"/>
<circle cx="250.0" cy="251.34" r="233.8" fill="#15d06e8" fill-opacity="0.13" stroke="#15d06e8" stroke-width="1.5"/>
<circle cx="250.0" cy="251.34" r="212.5" fill="#1400cfc" fill-opacity="0.13" stroke="#1400cfc" stroke-width="1.5"/>
<circle cx="250.0" cy="251.34" r="191.3" fill="#1231110e" fill-opacity="0.12" stroke="#1231110e" stroke-width="1.5"/>
<circle cx="250.0" cy="251.34" r="170.0" fill="#1061711d" fill-opacity="0.12" stroke="#1061711d" stroke-width="1.5"/>
<circle cx="250.0" cy="251.34" r="148.8" fill="#e91c128" fill-opacity="0.11" stroke="#e91c128" stroke-width="1.5"/>
<circle cx="250.0" cy="251.34" r="127.5" fill="#cc2112e" fill-opacity="0.11" stroke="#cc2112e" stroke-width="1.5"/>
<circle cx="250.0" cy="251.34" r="106.3" fill="#af2712e" fill-opacity="0.10" stroke="#af2712e" stroke-width="1.5"/>
<circle cx="250.0" cy="251.34" r="85.0" fill="#922c128" fill-opacity="0.10" stroke="#922c128" stroke-width="1.5"/>
<circle cx="250.0" cy="251.34" r="63.8" fill="#753111d" fill-opacity="0.09" stroke="#753111d" stroke-width="1.5"/>
<circle cx="250.0" cy="251.34" r="42.5" fill="#583710e" fill-opacity="0.09" stroke="#583710e" stroke-width="1.5"/>
<circle cx="250.0" cy="251.34" r="21.3" fill="#3b3cfc" fill-opacity="0.08" stroke="#3b3cfc" stroke-width="1.5"/>
<line x1="250.0" y1="251.34" x2="443.1" y2="251.3" stroke="#2b32112" stroke-width="2.57" opacity="0.26"/>
<line x1="250.0" y1="251.34" x2="423.9" y2="335.4" stroke="#3737106" stroke-width="2.57" opacity="0.28"/>
<line x1="250.0" y1="251.34" x2="369.9" y2="402.7" stroke="#433dfa" stroke-width="2.57" opacity="0.31"/>
<line x1="250.0" y1="251.34" x2="292.1" y2="439.8" stroke="#4f43ee" stroke-width="2.57" opacity="0.33"/>
<line x1="250.0" y1="251.34" x2="205.9" y2="439.3" stroke="#5b49e2" stroke-width="2.57" opacity="0.36"/>
<line x1="250.0" y1="251.34" x2="128.5" y2="401.4" stroke="#674fd6" stroke-width="2.57" opacity="0.38"/>
<line x1="250.0" y1="251.34" x2="75.3" y2="333.6" stroke="#7355ca" stroke-width="2.57" opacity="0.41"/>
<line x1="250.0" y1="251.34" x2="56.9" y2="249.3" stroke="#7f5bbe" stroke-width="2.57" opacity="0.43"/>
<line x1="250.0" y1="251.34" x2="77.0" y2="165.5" stroke="#8b61b2" stroke-width="2.57" opacity="0.46"/>
<line x1="250.0" y1="251.34" x2="131.6" y2="98.8" stroke="#9766a6" stroke-width="2.57" opacity="0.48"/>
<line x1="250.0" y1="251.34" x2="209.9" y2="62.4" stroke="#a36c9a" stroke-width="2.57" opacity="0.51"/>
<line x1="250.0" y1="251.34" x2="296.1" y2="63.8" stroke="#af728e" stroke-width="2.57" opacity="0.53"/>
<line x1="250.0" y1="251.34" x2="373.1" y2="102.5" stroke="#bb7882" stroke-width="2.57" opacity="0.56"/>
<line x1="250.0" y1="251.34" x2="425.6" y2="171.0" stroke="#c77e76" stroke-width="2.57" opacity="0.58"/>
<line x1="250.0" y1="251.34" x2="443.1" y2="255.4" stroke="#d3846a" stroke-width="2.57" opacity="0.61"/>
<circle cx="313.8" cy="251.3" r="3.0" fill="#adedd8" fill-opacity="0.6"/>
<circle cx="356.3" cy="251.3" r="3.0" fill="#adedd8" fill-opacity="0.6"/>
<circle cx="398.8" cy="251.3" r="3.0" fill="#adedd8" fill-opacity="0.6"/>
<circle cx="441.3" cy="251.3" r="3.0" fill="#adedd8" fill-opacity="0.6"/>
<circle cx="229.8" cy="311.8" r="3.0" fill="#adedd8" fill-opacity="0.6"/>
<circle cx="216.3" cy="352.1" r="3.0" fill="#adedd8" fill-opacity="0.6"/>
<circle cx="202.8" cy="392.4" r="3.0" fill="#adedd8" fill-opacity="0.6"/>
<circle cx="189.4" cy="432.7" r="3.0" fill="#adedd8" fill-opacity="0.6"/>
<circle cx="199.1" cy="213.0" r="3.0" fill="#adedd8" fill-opacity="0.6"/>
<circle cx="165.1" cy="187.5" r="3.0" fill="#adedd8" fill-opacity="0.6"/>
<circle cx="131.1" cy="161.9" r="3.0" fill="#adedd8" fill-opacity="0.6"/>
<circle cx="97.2" cy="136.3" r="3.0" fill="#adedd8" fill-opacity="0.6"/>
<circle cx="302.5" cy="215.2" r="3.0" fill="#adedd8" fill-opacity="0.6"/>
<circle cx="337.5" cy="191.1" r="3.0" fill="#adedd8" fill-opacity="0.6"/>
<circle cx="372.5" cy="167.0" r="3.0" fill="#adedd8" fill-opacity="0.6"/>
<circle cx="407.5" cy="142.8" r="3.0" fill="#adedd8" fill-opacity="0.6"/>
<circle cx="250.0" cy="251.34" r="8.0" fill="#e1c5ca" fill-opacity="0.9"/>
</svg>