<svg xmlns="http://www.w3.org/2000/svg" width="500" height="500" viewBox="0 0 500 500">
<rect width="500" height="500" fill="#00583c"/>
<circle cx="250.0" cy="221.6" r="233.8" fill="#bc41c4" fill-opacity="0.26" stroke="#bc41c4" stroke-width="1.5"/>
<circle cx="250.0" cy="221.6" r="207.8" fill="#ab4ad4" fill-opacity="0.25" stroke="#ab4ad4" stroke-width="1.5"/>
<circle cx="250.0" cy="221.6" r="181.8" fill="#9a53e2" fill-opacity="0.25" stroke="#9a53e2" stroke-width="1.5"/>
<circle cx="250.0" cy="221.6" r="155.8" fill="#895ced" fill-opacity="0.24" stroke="#895ced" stroke-width="1.5"/>
<circle cx="250.0" cy="221.6" r="129.9" fill="#7865f3" fill-opacity="0.23" stroke="#7865f3" stroke-width="1.5"/>
<circle cx="250.0" cy="221.6" r="103.9" fill="#676ef3" fill-opacity="0.23" stroke="#676ef3" stroke-width="1.5"/>
<circle cx="250.0" cy="221.6" r="77.9" fill="#5677ed" fill-opacity="0.22" stroke="#5677ed" stroke-width="1.5"/>
<circle cx="250.0" cy="221.6" r="51.9" fill="#4580e2" fill-opacity="0.21" stroke="#4580e2" stroke-width="1.5"/>
<circle cx="250.0" cy="221.6" r="26.0" fill="#3489d4" fill-opacity="0.21" stroke="#3489d4" stroke-width="1.5"/>
<circle cx="250.0" cy="221.6" r="233.8" fill="#b24aef" fill-opacity="0.27" stroke="#b24aef" stroke-width="1.5"/>
<circle cx="250.0" cy="221.6" r="207.8" fill="#a254fd" fill-opacity="0.27" stroke="#a254fd" stroke-width="1.5"/>
<circle cx="250.0" cy="221.6" r="181.8" fill="#935e109" fill-opacity="0.26" stroke="#935e109" stroke-width="1.5"/>
<circle cx="250.0" cy="221.6" r="155.8" fill="#8468113" fill-opacity="0.26" stroke="#8468113" stroke-width="1.5"/>
<circle cx="250.0" cy="221.6" r="129.9" fill="#7572118" fill-opacity="0.25" stroke="#7572118" stroke-width="1.5"/>
<circle cx="250.0" cy="221.6" r="103.9" fill="#667c118" fill-opacity="0.25" stroke="#667c118" stroke-width="1.5"/>
<circle cx="250.0" cy="221.6" r="77.9" fill="#5786113" fill-opacity="0.24" stroke="#5786113" stroke-width="1.5"/>
<circle cx="250.0" cy="221.6" r="51.9" fill="#4890109" fill-opacity="0.24" stroke="#4890109" stroke-width="1.5"/>
<circle cx="250.0" cy="221.6" r="26.0" fill="#399afd" fill-opacity="0.23" stroke="#399afd" stroke-width="1.5"/>
<circle cx="250.0" cy="221.6" r="233.8" fill="#9665bd" fill-opacity="0.22" stroke="#9665bd" stroke-width="1.5"/>
<circle cx="250.0" cy="221.6" r="207.8" fill="#8a6dc8" fill-opacity="0.22" stroke="#8a6dc8" stroke-width="1.5"/>
<circle cx="250.0" cy="221.6" r="181.8" fill="#7f75d2" fill-opacity="0.21" stroke="#7f75d2" stroke-width="1.5"/>
<circle cx="250.0" cy="221.6" r="155.8" fill="#747cda" fill-opacity="0.21" stroke="#747cda" stroke-width="1.5"/>
<circle cx="250.0" cy="221.6" r="129.9" fill="#6884de" fill-opacity="0.21" stroke="#6884de" stroke-width="1.5"/>
<circle cx="250.0" cy="221.6" r="103.9" fill="#5d8cde" fill-opacity="0.20" stroke="#5d8cde" stroke-width="1.5"/>
<circle cx="250.0" cy="221.6" r="77.9" fill="#5294da" fill-opacity="0.20" stroke="#5294da" stroke-width="1.5"/>
<circle cx="250.0" cy="221.6" r="51.9" fill="#469cd2" fill-opacity="0.20" stroke="#469cd2" stroke-width="1.5"/>
<circle cx="250.0" cy="221.6" r="26.0" fill="#3ba3c8" fill-opacity="0.19" stroke="#3ba3c8" stroke-width="1.5"/>
<circle cx="301.9" cy="221.6" r="3.0" fill="#72a8be" fill-opacity="0.6"/>
<circle cx="353.9" cy="221.6" r="3.0" fill="#72a8be" fill-opacity="0.6"/>
<circle cx="405.8" cy="221.6" r="3.0" fill="#72a8be" fill-opacity="0.6"/>
<circle cx="457.8" cy="221.6" r="3.0" fill="#72a8be" fill-opacity="0.6"/>
<circle cx="251.6" cy="273.5" r="3.0" fill="#72a8be" fill-opacity="0.6"/>
<circle cx="253.3" cy="325.4" r="3.0" fill="#72a8be" fill-opacity="0.6"/>
<circle cx="254.9" cy="377.4" r="3.0" fill="#72a8be" fill-opacity="0.6"/>
<circle cx="256.5" cy="429.3" r="3.0" fill="#72a8be" fill-opacity="0.6"/>
<circle cx="198.2" cy="224.9" r="3.0" fill="#72a8be" fill-opacity="0.6"/>
<circle cx="146.3" cy="228.1" r="3.0" fill="#72a8be" fill-opacity="0.6"/>
<circle cx="94.5" cy="231.4" r="3.0" fill="#72a8be" fill-opacity="0.6"/>
<circle cx="42.6" cy="234.6" r="3.0" fill="#72a8be" fill-opacity="0.6"/>
<circle cx="245.1" cy="169.9" r="3.0" fill="#72a8be" fill-opacity="0.6"/>
<circle cx="240.2" cy="118.2" r="3.0" fill="#72a8be" fill-opacity="0.6"/>
<circle cx="235.3" cy="66.5" r="3.0" fill="#72a8be" fill-opacity="0.6"/>
<circle cx="230.4" cy="14.7" r="3.0" fill="#72a8be" fill-opacity="0.6"/>
<circle cx="301.5" cy="215.1" r="3.0" fill="#72a8be" fill-opacity="0.6"/>
<circle cx="353.1" cy="208.6" r="3.0" fill="#72a8be" fill-opacity="0.6"/>
<circle cx="404.6" cy="202.1" r="3.0" fill="#72a8be" fill-opacity="0.6"/>
<circle cx="456.1" cy="195.6" r="3.0" fill="#72a8be" fill-opacity="0.6"/>
<circle cx="258.1" cy="272.9" r="3.0" fill="#72a8be" fill-opacity="0.6"/>
<circle cx="266.3" cy="324.2" r="3.0" fill="#72a8be" fill-opacity="0.6"/>
<circle cx="274.4" cy="375.5" r="3.0" fill="#72a8be" fill-opacity="0.6"/>
<circle cx="282.5" cy="426.8" r="3.0" fill="#72a8be" fill-opacity="0.6"/>
<circle cx="327.9" cy="221.6" r="3.0" fill="#cfb6ff" fill-opacity="0.6"/>
<circle cx="379.9" cy="221.6" r="3.0" fill="#cfb6ff" fill-opacity="0.6"/>
<circle cx="431.8" cy="221.6" r="3.0" fill="#cfb6ff" fill-opacity="0.6"/>
<circle cx="285.0" cy="291.2" r="3.0" fill="#cfb6ff" fill-opacity="0.6"/>
<circle cx="308.4" cy="337.6" r="3.0" fill="#cfb6ff" fill-opacity="0.6"/>
<circle cx="331.7" cy="384.0" r="3.0" fill="#cfb6ff" fill-opacity="0.6"/>
<circle cx="203.5" cy="284.2" r="3.0" fill="#cfb6ff" fill-opacity="0.6"/>
<circle cx="172.6" cy="325.9" r="3.0" fill="#cfb6ff" fill-opacity="0.6"/>
<circle cx="141.6" cy="367.6" r="3.0" fill="#cfb6ff" fill-opacity="0.6"/>
<circle cx="173.2" cy="208.2" r="3.0" fill="#cfb6ff" fill-opacity="0.6"/>
<circle cx="122.1" cy="199.3" r="3.0" fill="#cfb6ff" fill-opacity="0.6"/>
<circle cx="70.9" cy="190.3" r="3.0" fill="#cfb6ff" fill-opacity="0.6"/>
<circle cx="227.5" cy="147.0" r="3.0" fill="#cfb6ff" fill-opacity="0.6"/>
<circle cx="212.5" cy="97.3" r="3.0" fill="#cfb6ff" fill-opacity="0.6"/>
<circle cx="197.5" cy="47.5" r="3.0" fill="#cfb6ff" fill-opacity="0.6"/>
<circle cx="306.5" cy="168.0" r="3.0" fill="#cfb6ff" fill-opacity="0.6"/>
<circle cx="344.2" cy="132.2" r="3.0" fill="#cfb6ff" fill-opacity="0.6"/>
<circle cx="381.9" cy="96.4" r="3.0" fill="#cfb6ff" fill-opacity="0.6"/>
<circle cx="301.9" cy="221.6" r="3.0" fill="#b8c190" fill-opacity="0.6"/>
<circle cx="353.9" cy="221.6" r="3.0" fill="#b8c190" fill-opacity="0.6"/>
<circle cx="405.8" cy="221.6" r="3.0" fill="#b8c190" fill-opacity="0.6"/>
<circle cx="457.8" cy="221.6" r="3.0" fill="#b8c190" fill-opacity="0.6"/>
<circle cx="284.0" cy="260.8" r="3.0" fill="#b8c190" fill-opacity="0.6"/>
<circle cx="318.1" cy="300.1" r="3.0" fill="#b8c190" fill-opacity="0.6"/>
<circle cx="352.1" cy="339.3" r="3.0" fill="#b8c190" fill-opacity="0.6"/>
<circle cx="386.2" cy="378.5" r="3.0" fill="#b8c190" fill-opacity="0.6"/>
<circle cx="242.7" cy="273.0" r="3.0" fill="#b8c190" fill-opacity="0.6"/>
<circle cx="235.4" cy="324.5" r="3.0" fill="#b8c190" fill-opacity="0.6"/>
<circle cx="228.0" cy="375.9" r="3.0" fill="#b8c190" fill-opacity="0.6"/>
<circle cx="220.7" cy="427.3" r="3.0" fill="#b8c190" fill-opacity="0.6"/>
<circle cx="206.4" cy="249.8" r="3.0" fill="#b8c190" fill-opacity="0.6"/>
<circle cx="162.7" cy="278.0" r="3.0" fill="#b8c190" fill-opacity="0.6"/>
<circle cx="119.1" cy="306.1" r="3.0" fill="#b8c190" fill-opacity="0.6"/>
<circle cx="75.4" cy="334.3" r="3.0" fill="#b8c190" fill-opacity="0.6"/>
<circle cx="250.0" cy="221.6" r="233.8" fill="#f069d4" fill-opacity="0.21" stroke="#f069d4" stroke-width="1.5"/>
<circle cx="250.0" cy="221.6" r="207.8" fill="#da78e4" fill-opacity="0.21" stroke="#da78e4" stroke-width="1.5"/>
<circle cx="250.0" cy="221.6" r="181.8" fill="#c486f2" fill-opacity="0.20" stroke="#c486f2" stroke-width="1.5"/>
<circle cx="250.0" cy="221.6" r="155.8" fill="#ae94fc" fill-opacity="0.20" stroke="#ae94fc" stroke-width="1.5"/>
<circle cx="250.0" cy="221.6" r="129.9" fill="#98a3102" fill-opacity="0.19" stroke="#98a3102" stroke-width="1.5"/>
<circle cx="250.0" cy="221.6" r="103.9" fill="#82b1102" fill-opacity="0.19" stroke="#82b1102" stroke-width="1.5"/>
<circle cx="250.0" cy="221.6" r="77.9" fill="#6cbffc" fill-opacity="0.18" stroke="#6cbffc" stroke-width="1.5"/>
<circle cx="250.0" cy="221.6" r="51.9" fill="#56cef2" fill-opacity="0.18" stroke="#56cef2" stroke-width="1.5"/>
<circle cx="250.0" cy="221.6" r="26.0" fill="#40dce4" fill-opacity="0.17" stroke="#40dce4" stroke-width="1.5"/>
<line x1="250.0" y1="221.6" x2="443.1" y2="221.6" stroke="#5e21e3" stroke-width="2.57" opacity="0.23"/>
<line x1="250.0" y1="221.6" x2="408.3" y2="332.2" stroke="#772aca" stroke-width="2.57" opacity="0.26"/>
<line x1="250.0" y1="221.6" x2="316.4" y2="402.9" stroke="#9034b1" stroke-width="2.57" opacity="0.29"/>
<line x1="250.0" y1="221.6" x2="200.5" y2="408.3" stroke="#a93e98" stroke-width="2.57" opacity="0.32"/>
<line x1="250.0" y1="221.6" x2="102.5" y2="346.2" stroke="#c2487f" stroke-width="2.57" opacity="0.35"/>
<line x1="250.0" y1="221.6" x2="57.7" y2="239.3" stroke="#db5166" stroke-width="2.57" opacity="0.38"/>
<line x1="250.0" y1="221.6" x2="82.3" y2="125.9" stroke="#f45b4d" stroke-width="2.57" opacity="0.41"/>
<line x1="250.0" y1="221.6" x2="167.3" y2="47.1" stroke="#10d6534" stroke-width="2.57" opacity="0.43"/>
<line x1="250.0" y1="221.6" x2="282.2" y2="31.2" stroke="#1266f1b" stroke-width="2.57" opacity="0.46"/>
<line x1="250.0" y1="221.6" x2="385.5" y2="84.0" stroke="#13f7802" stroke-width="2.57" opacity="0.49"/>
<line x1="250.0" y1="221.6" x2="439.9" y2="186.4" stroke="#13f8200" stroke-width="2.57" opacity="0.52"/>
<line x1="250.0" y1="221.6" x2="425.8" y2="301.5" stroke="#13f8c00" stroke-width="2.57" opacity="0.55"/>
<circle cx="405.8" cy="221.6" r="3.0" fill="#8bbbf1" fill-opacity="0.6"/>
<circle cx="457.8" cy="221.6" r="3.0" fill="#8bbbf1" fill-opacity="0.6"/>
<circle cx="219.6" cy="374.4" r="3.0" fill="#8bbbf1" fill-opacity="0.6"/>
<circle cx="209.5" cy="425.4" r="3.0" fill="#8bbbf1" fill-opacity="0.6"/>
<circle cx="106.0" cy="162.0" r="3.0" fill="#8bbbf1" fill-opacity="0.6"/>
<circle cx="58.0" cy="142.1" r="3.0" fill="#8bbbf1" fill-opacity="0.6"/>
<circle cx="250.0" cy="221.6" r="233.8" fill="#1062dc5" fill-opacity="0.22" stroke="#1062dc5" stroke-width="1.5"/>
<circle cx="250.0" cy="221.6" r="207.8" fill="#ec35e2" fill-opacity="0.21" stroke="#ec35e2" stroke-width="1.5"/>
<circle cx="250.0" cy="221.6" r="181.8" fill="#d33cfc" fill-opacity="0.21" stroke="#d33cfc" stroke-width="1.5"/>
<circle cx="250.0" cy="221.6" r="155.8" fill="#ba4410f" fill-opacity="0.20" stroke="#ba4410f" stroke-width="1.5"/>
<circle cx="250.0" cy="221.6" r="129.9" fill="#a04b119" fill-opacity="0.20" stroke="#a04b119" stroke-width="1.5"/>
<circle cx="250.0" cy="221.6" r="103.9" fill="#8752119" fill-opacity="0.19" stroke="#8752119" stroke-width="1.5"/>
<circle cx="250.0" cy="221.6" r="77.9" fill="#6e5a10f" fill-opacity="0.19" stroke="#6e5a10f" stroke-width="1.5"/>
<circle cx="250.0" cy="221.6" r="51.9" fill="#5461fc" fill-opacity="0.18" stroke="#5461fc" stroke-width="1.5"/>
<circle cx="250.0" cy="221.6" r="26.0" fill="#3b69e2" fill-opacity="0.18" stroke="#3b69e2" stroke-width="1.5"/>
<circle cx="250.0" cy="221.6" r="233.8" fill="#13933ea" fill-opacity="0.18" stroke="#13933ea" stroke-width="1.5"/>
<circle cx="250.0" cy="221.6" r="207.8" fill="#11a39102" fill-opacity="0.17" stroke="#11a39102" stroke-width="1.5"/>
<circle cx="250.0" cy="221.6" r="181.8" fill="#fc40118" fill-opacity="0.17" stroke="#fc40118" stroke-width="1.5"/>
<circle cx="250.0" cy="221.6" r="155.8" fill="#de46128" fill-opacity="0.16" stroke="#de46128" stroke-width="1.5"/>
<circle cx="250.0" cy="221.6" r="129.9" fill="#bf4c130" fill-opacity="0.15" stroke="#bf4c130" stroke-width="1.5"/>
<circle cx="250.0" cy="221.6" r="103.9" fill="#a152130" fill-opacity="0.15" stroke="#a152130" stroke-width="1.5"/>
<circle cx="250.0" cy="221.6" r="77.9" fill="#8358128" fill-opacity="0.14" stroke="#8358128" stroke-width="1.5"/>
<circle cx="250.0" cy="221.6" r="51.9" fill="#645f118" fill-opacity="0.13" stroke="#645f118" stroke-width="1.5"/>
<circle cx="250.0" cy="221.6" r="26.0" fill="#4665102" fill-opacity="0.13" stroke="#4665102" stroke-width="1.5"/>
<circle cx="405.8" cy="221.6" r="3.0" fill="#bdc5fa" fill-opacity="0.6"/>
<circle cx="457.8" cy="221.6" r="3.0" fill="#bdc5fa" fill-opacity="0.6"/>
<circle cx="200.3" cy="369.3" r="3.0" fill="#bdc5fa" fill-opacity="0.6"/>
<circle cx="183.7" cy="418.5" r="3.0" fill="#bdc5fa" fill-opacity="0.6"/>
<circle cx="125.9" cy="127.4" r="3.0" fill="#bdc5fa" fill-opacity="0.6"/>
<circle cx="84.5" cy="96.0" r="3.0" fill="#bdc5fa" fill-opacity="0.6"/>
<line x1="250.0" y1="221.6" x2="443.1" y2="221.6" stroke="#5d28c8" stroke-width="2.57" opacity="0.30"/>
<line x1="250.0" y1="221.6" x2="417.2" y2="318.2" stroke="#7231b3" stroke-width="2.57" opacity="0.33"/>
<line x1="250.0" y1="221.6" x2="346.6" y2="388.8" stroke="#873a9e" stroke-width="2.57" opacity="0.37"/>
<line x1="250.0" y1="221.6" x2="250.0" y2="414.7" stroke="#9c4389" stroke-width="2.57" opacity="0.40"/>
<line x1="250.0" y1="221.6" x2="153.4" y2="388.8" stroke="#b24c73" stroke-width="2.57" opacity="0.43"/>
<line x1="250.0" y1="221.6" x2="82.8" y2="318.2" stroke="#c7555e" stroke-width="2.57" opacity="0.47"/>
<line x1="250.0" y1="221.6" x2="56.9" y2="221.6" stroke="#d95e49" stroke-width="2.57" opacity="0.50"/>
<line x1="250.0" y1="221.6" x2="82.8" y2="125.0" stroke="#d96734" stroke-width="2.57" opacity="0.53"/>
<line x1="250.0" y1="221.6" x2="153.4" y2="54.4" stroke="#d9711e" stroke-width="2.57" opacity="0.57"/>
<line x1="250.0" y1="221.6" x2="250.0" y2="28.5" stroke="#d97a09" stroke-width="2.57" opacity="0.60"/>
<line x1="250.0" y1="221.6" x2="346.6" y2="54.4" stroke="#d98300" stroke-width="2.57" opacity="0.63"/>
<line x1="250.0" y1="221.6" x2="417.2" y2="125.0" stroke="#d98c00" stroke-width="2.57" opacity="0.67"/>
<circle cx="250.0" cy="221.6" r="233.8" fill="#13a09cb" fill-opacity="0.15" stroke="#13a09cb" stroke-width="1.5"/>
<circle cx="250.0" cy="221.6" r="207.8" fill="#11b12e8" fill-opacity="0.14" stroke="#11b12e8" stroke-width="1.5"/>
<circle cx="250.0" cy="221.6" r="181.8" fill="#fc1a102" fill-opacity="0.14" stroke="#fc1a102" stroke-width="1.5"/>
<circle cx="250.0" cy="221.6" r="155.8" fill="#de23116" fill-opacity="0.13" stroke="#de23116" stroke-width="1.5"/>
<circle cx="250.0" cy="221.6" r="129.9" fill="#bf2b120" fill-opacity="0.13" stroke="#bf2b120" stroke-width="1.5"/>
<circle cx="250.0" cy="221.6" r="103.9" fill="#a033120" fill-opacity="0.12" stroke="#a033120" stroke-width="1.5"/>
<circle cx="250.0" cy="221.6" r="77.9" fill="#823c116" fill-opacity="0.12" stroke="#823c116" stroke-width="1.5"/>
<circle cx="250.0" cy="221.6" r="51.9" fill="#6344102" fill-opacity="0.11" stroke="#6344102" stroke-width="1.5"/>
<circle cx="250.0" cy="221.6" r="26.0" fill="#444de8" fill-opacity="0.11" stroke="#444de8" stroke-width="1.5"/>
<circle cx="301.9" cy="221.6" r="3.0" fill="#98d28a" fill-opacity="0.6"/>
<circle cx="379.9" cy="221.6" r="3.0" fill="#98d28a" fill-opacity="0.6"/>
<circle cx="457.8" cy="221.6" r="3.0" fill="#98d28a" fill-opacity="0.6"/>
<circle cx="267.6" cy="270.5" r="3.0" fill="#98d28a" fill-opacity="0.6"/>
<circle cx="294.0" cy="343.8" r="3.0" fill="#98d28a" fill-opacity="0.6"/>
<circle cx="320.4" cy="417.1" r="3.0" fill="#98d28a" fill-opacity="0.6"/>
<circle cx="210.0" cy="254.7" r="3.0" fill="#98d28a" fill-opacity="0.6"/>
<circle cx="149.9" cy="304.4" r="3.0" fill="#98d28a" fill-opacity="0.6"/>
<circle cx="89.9" cy="354.0" r="3.0" fill="#98d28a" fill-opacity="0.6"/>
<line x1="250.0" y1="221.6" x2="443.1" y2="221.6" stroke="#2a2ef3" stroke-width="2.57" opacity="0.35"/>
<line x1="250.0" y1="221.6" x2="416.7" y2="319.0" stroke="#3734e6" stroke-width="2.57" opacity="0.37"/>
<line x1="250.0" y1="221.6" x2="344.8" y2="389.8" stroke="#453bd8" stroke-width="2.57" opacity="0.39"/>
<line x1="250.0" y1="221.6" x2="247.0" y2="414.7" stroke="#5241cb" stroke-width="2.57" opacity="0.40"/>
<line x1="250.0" y1="221.6" x2="150.0" y2="386.8" stroke="#6048bd" stroke-width="2.57" opacity="0.42"/>
<line x1="250.0" y1="221.6" x2="80.3" y2="313.7" stroke="#6d4eb0" stroke-width="2.57" opacity="0.44"/>
<line x1="250.0" y1="221.6" x2="57.0" y2="215.5" stroke="#7b55a2" stroke-width="2.57" opacity="0.46"/>
<line x1="250.0" y1="221.6" x2="86.4" y2="119.0" stroke="#885c95" stroke-width="2.57" opacity="0.48"/>
<line x1="250.0" y1="221.6" x2="160.5" y2="50.5" stroke="#966287" stroke-width="2.57" opacity="0.50"/>
<line x1="250.0" y1="221.6" x2="259.1" y2="28.7" stroke="#a3697a" stroke-width="2.57" opacity="0.52"/>
<line x1="250.0" y1="221.6" x2="355.2" y2="59.6" stroke="#b1706c" stroke-width="2.57" opacity="0.53"/>
<line x1="250.0" y1="221.6" x2="422.5" y2="134.8" stroke="#be765f" stroke-width="2.57" opacity="0.55"/>
<circle cx="353.9" cy="221.6" r="3.0" fill="#4a94f8" fill-opacity="0.6"/>
<circle cx="405.8" cy="221.6" r="3.0" fill="#4a94f8" fill-opacity="0.6"/>
<circle cx="457.8" cy="221.6" r="3.0" fill="#4a94f8" fill-opacity="0.6"/>
<circle cx="315.4" cy="302.3" r="3.0" fill="#4a94f8" fill-opacity="0.6"/>
<circle cx="348.1" cy="342.7" r="3.0" fill="#4a94f8" fill-opacity="0.6"/>
<circle cx="380.8" cy="383.1" r="3.0" fill="#4a94f8" fill-opacity="0.6"/>
<circle cx="228.4" cy="323.2" r="3.0" fill="#4a94f8" fill-opacity="0.6"/>
<circle cx="217.6" cy="374.0" r="3.0" fill="#4a94f8" fill-opacity="0.6"/>
<circle cx="206.8" cy="424.8" r="3.0" fill="#4a94f8" fill-opacity="0.6"/>
<circle cx="157.4" cy="268.8" r="3.0" fill="#4a94f8" fill-opacity="0.6"/>
<circle cx="111.1" cy="292.3" r="3.0" fill="#4a94f8" fill-opacity="0.6"/>
<circle cx="64.9" cy="315.9" r="3.0" fill="#4a94f8" fill-opacity="0.6"/>
<circle cx="155.1" cy="179.3" r="3.0" fill="#4a94f8" fill-opacity="0.6"/>
<circle cx="107.6" cy="158.2" r="3.0" fill="#4a94f8" fill-opacity="0.6"/>
<circle cx="60.2" cy="137.1" r="3.0" fill="#4a94f8" fill-opacity="0.6"/>
<circle cx="223.1" cy="121.2" r="3.0" fill="#4a94f8" fill-opacity="0.6"/>
<circle cx="209.7" cy="71.1" r="3.0" fill="#4a94f8" fill-opacity="0.6"/>
<circle cx="196.2" cy="20.9" r="3.0" fill="#4a94f8" fill-opacity="0.6"/>
<circle cx="353.9" cy="221.6" r="3.0" fill="#b9ffff" fill-opacity="0.6"/>
<circle cx="431.8" cy="221.6" r="3.0" fill="#b9ffff" fill-opacity="0.6"/>
<circle cx="256.5" cy="325.3" r="3.0" fill="#b9ffff" fill-opacity="0.6"/>
<circle cx="261.4" cy="403.1" r="3.0" fill="#b9ffff" fill-opacity="0.6"/>
<circle cx="146.9" cy="234.6" r="3.0" fill="#b9ffff" fill-opacity="0.6"/>
<circle cx="69.6" cy="244.4" r="3.0" fill="#b9ffff" fill-opacity="0.6"/>
<line x1="250.0" y1="221.6" x2="443.1" y2="221.6" stroke="#402de5" stroke-width="2.57" opacity="0.38"/>
<line x1="250.0" y1="221.6" x2="402.3" y2="340.4" stroke="#5639cf" stroke-width="2.57" opacity="0.41"/>
<line x1="250.0" y1="221.6" x2="297.0" y2="408.9" stroke="#6d47b8" stroke-width="2.57" opacity="0.43"/>
<line x1="250.0" y1="221.6" x2="171.9" y2="398.2" stroke="#8455a1" stroke-width="2.57" opacity="0.46"/>
<line x1="250.0" y1="221.6" x2="79.8" y2="312.9" stroke="#9a628b" stroke-width="2.57" opacity="0.49"/>
<line x1="250.0" y1="221.6" x2="59.7" y2="188.9" stroke="#b16f74" stroke-width="2.57" opacity="0.51"/>
<line x1="250.0" y1="221.6" x2="120.0" y2="78.8" stroke="#b87d5d" stroke-width="2.57" opacity="0.54"/>
<line x1="250.0" y1="221.6" x2="235.4" y2="29.0" stroke="#b88a47" stroke-width="2.57" opacity="0.57"/>
<line x1="250.0" y1="221.6" x2="356.9" y2="60.8" stroke="#b89730" stroke-width="2.57" opacity="0.59"/>
<line x1="250.0" y1="221.6" x2="433.2" y2="160.5" stroke="#b8a519" stroke-width="2.57" opacity="0.62"/>
<line x1="250.0" y1="221.6" x2="432.0" y2="286.1" stroke="#b8b203" stroke-width="2.57" opacity="0.65"/>
<line x1="250.0" y1="221.6" x2="353.9" y2="384.4" stroke="#b8bf00" stroke-width="2.57" opacity="0.67"/>
<circle cx="327.9" cy="221.6" r="3.0" fill="#bfffff" fill-opacity="0.6"/>
<circle cx="379.9" cy="221.6" r="3.0" fill="#bfffff" fill-opacity="0.6"/>
<circle cx="431.8" cy="221.6" r="3.0" fill="#bfffff" fill-opacity="0.6"/>
<circle cx="289.7" cy="288.7" r="3.0" fill="#bfffff" fill-opacity="0.6"/>
<circle cx="316.1" cy="333.4" r="3.0" fill="#bfffff" fill-opacity="0.6"/>
<circle cx="342.6" cy="378.1" r="3.0" fill="#bfffff" fill-opacity="0.6"/>
<circle cx="212.5" cy="289.9" r="3.0" fill="#bfffff" fill-opacity="0.6"/>
<circle cx="187.4" cy="335.4" r="3.0" fill="#bfffff" fill-opacity="0.6"/>
<circle cx="162.4" cy="380.9" r="3.0" fill="#bfffff" fill-opacity="0.6"/>
<circle cx="172.1" cy="224.0" r="3.0" fill="#bfffff" fill-opacity="0.6"/>
<circle cx="120.2" cy="225.7" r="3.0" fill="#bfffff" fill-opacity="0.6"/>
<circle cx="68.3" cy="227.3" r="3.0" fill="#bfffff" fill-opacity="0.6"/>
<circle cx="327.9" cy="221.6" r="3.0" fill="#c1b4cc" fill-opacity="0.6"/>
<circle cx="379.9" cy="221.6" r="3.0" fill="#c1b4cc" fill-opacity="0.6"/>
<circle cx="431.8" cy="221.6" r="3.0" fill="#c1b4cc" fill-opacity="0.6"/>
<circle cx="305.7" cy="276.1" r="3.0" fill="#c1b4cc" fill-opacity="0.6"/>
<circle cx="342.8" cy="312.5" r="3.0" fill="#c1b4cc" fill-opacity="0.6"/>
<circle cx="379.9" cy="348.8" r="3.0" fill="#c1b4cc" fill-opacity="0.6"/>
<circle cx="251.6" cy="299.5" r="3.0" fill="#c1b4cc" fill-opacity="0.6"/>
<circle cx="252.7" cy="351.4" r="3.0" fill="#c1b4cc" fill-opacity="0.6"/>
<circle cx="253.8" cy="403.4" r="3.0" fill="#c1b4cc" fill-opacity="0.6"/>
<circle cx="196.7" cy="278.4" r="3.0" fill="#c1b4cc" fill-opacity="0.6"/>
<circle cx="161.1" cy="316.3" r="3.0" fill="#c1b4cc" fill-opacity="0.6"/>
<circle cx="125.5" cy="354.1" r="3.0" fill="#c1b4cc" fill-opacity="0.6"/>
<circle cx="172.1" cy="224.9" r="3.0" fill="#c1b4cc" fill-opacity="0.6"/>
<circle cx="120.2" cy="227.0" r="3.0" fill="#c1b4cc" fill-opacity="0.6"/>
<circle cx="68.3" cy="229.2" r="3.0" fill="#c1b4cc" fill-opacity="0.6"/>
<circle cx="192.1" cy="169.5" r="3.0" fill="#c1b4cc" fill-opacity="0.6"/>
<circle cx="153.5" cy="134.7" r="3.0" fill="#c1b4cc" fill-opacity="0.6"/>
<circle cx="114.9" cy="99.9" r="3.0" fill="#c1b4cc" fill-opacity="0.6"/>
<circle cx="327.9" cy="221.6" r="3.0" fill="#aed0ff" fill-opacity="0.6"/>
<circle cx="379.9" cy="221.6" r="3.0" fill="#aed0ff" fill-opacity="0.6"/>
<circle cx="431.8" cy="221.6" r="3.0" fill="#aed0ff" fill-opacity="0.6"/>
<circle cx="309.8" cy="271.6" r="3.0" fill="#aed0ff" fill-opacity="0.6"/>
<circle cx="349.6" cy="304.9" r="3.0" fill="#aed0ff" fill-opacity="0.6"/>
<circle cx="389.5" cy="338.2" r="3.0" fill="#aed0ff" fill-opacity="0.6"/>
<circle cx="263.8" cy="298.3" r="3.0" fill="#aed0ff" fill-opacity="0.6"/>
<circle cx="273.0" cy="349.4" r="3.0" fill="#aed0ff" fill-opacity="0.6"/>
<circle cx="282.2" cy="400.5" r="3.0" fill="#aed0ff" fill-opacity="0.6"/>
<circle cx="211.4" cy="289.3" r="3.0" fill="#aed0ff" fill-opacity="0.6"/>
<circle cx="185.7" cy="334.4" r="3.0" fill="#aed0ff" fill-opacity="0.6"/>
<circle cx="159.9" cy="379.5" r="3.0" fill="#aed0ff" fill-opacity="0.6"/>
<circle cx="177.0" cy="248.8" r="3.0" fill="#aed0ff" fill-opacity="0.6"/>
<circle cx="128.3" cy="266.9" r="3.0" fill="#aed0ff" fill-opacity="0.6"/>
<circle cx="79.6" cy="285.0" r="3.0" fill="#aed0ff" fill-opacity="0.6"/>
<circle cx="176.5" cy="195.6" r="3.0" fill="#aed0ff" fill-opacity="0.6"/>
<circle cx="127.6" cy="178.2" r="3.0" fill="#aed0ff" fill-opacity="0.6"/>
<circle cx="78.6" cy="160.9" r="3.0" fill="#aed0ff" fill-opacity="0.6"/>
<circle cx="353.9" cy="221.6" r="3.0" fill="#a8ffff" fill-opacity="0.6"/>
<circle cx="405.8" cy="221.6" r="3.0" fill="#a8ffff" fill-opacity="0.6"/>
<circle cx="457.8" cy="221.6" r="3.0" fill="#a8ffff" fill-opacity="0.6"/>
<circle cx="285.2" cy="319.4" r="3.0" fill="#a8ffff" fill-opacity="0.6"/>
<circle cx="302.8" cy="368.2" r="3.0" fill="#a8ffff" fill-opacity="0.6"/>
<circle cx="320.4" cy="417.1" r="3.0" fill="#a8ffff" fill-opacity="0.6"/>
<circle cx="169.9" cy="287.8" r="3.0" fill="#a8ffff" fill-opacity="0.6"/>
<circle cx="129.9" cy="320.9" r="3.0" fill="#a8ffff" fill-opacity="0.6"/>
<circle cx="89.9" cy="354.0" r="3.0" fill="#a8ffff" fill-opacity="0.6"/>
<circle cx="160.6" cy="168.7" r="3.0" fill="#a8ffff" fill-opacity="0.6"/>
<circle cx="115.9" cy="142.3" r="3.0" fill="#a8ffff" fill-opacity="0.6"/>
<circle cx="71.1" cy="115.8" r="3.0" fill="#a8ffff" fill-opacity="0.6"/>
<circle cx="379.9" cy="221.6" r="3.0" fill="#7edad2" fill-opacity="0.6"/>
<circle cx="431.8" cy="221.6" r="3.0" fill="#7edad2" fill-opacity="0.6"/>
<circle cx="217.7" cy="347.4" r="3.0" fill="#7edad2" fill-opacity="0.6"/>
<circle cx="204.8" cy="397.7" r="3.0" fill="#7edad2" fill-opacity="0.6"/>
<circle cx="136.2" cy="159.0" r="3.0" fill="#7edad2" fill-opacity="0.6"/>
<circle cx="90.7" cy="134.0" r="3.0" fill="#7edad2" fill-opacity="0.6"/>
<line x1="250.0" y1="221.6" x2="443.1" y2="221.6" stroke="#3223153" stroke-width="2.57" opacity="0.31"/>
<line x1="250.0" y1="221.6" x2="396.5" y2="347.4" stroke="#3d29148" stroke-width="2.57" opacity="0.33"/>
<line x1="250.0" y1="221.6" x2="279.2" y2="412.5" stroke="#492f13c" stroke-width="2.57" opacity="0.35"/>
<line x1="250.0" y1="221.6" x2="147.8" y2="385.5" stroke="#5536130" stroke-width="2.57" opacity="0.38"/>
<line x1="250.0" y1="221.6" x2="65.7" y2="279.3" stroke="#613d124" stroke-width="2.57" opacity="0.40"/>
<line x1="250.0" y1="221.6" x2="72.6" y2="145.4" stroke="#6d44118" stroke-width="2.57" opacity="0.42"/>
<line x1="250.0" y1="221.6" x2="165.0" y2="48.2" stroke="#794a10c" stroke-width="2.57" opacity="0.45"/>
<line x1="250.0" y1="221.6" x2="298.5" y2="34.7" stroke="#8551100" stroke-width="2.57" opacity="0.47"/>
<line x1="250.0" y1="221.6" x2="408.6" y2="111.4" stroke="#9158f4" stroke-width="2.57" opacity="0.49"/>
<line x1="250.0" y1="221.6" x2="442.1" y2="241.3" stroke="#9d5ee8" stroke-width="2.57" opacity="0.51"/>
<line x1="250.0" y1="221.6" x2="382.9" y2="361.7" stroke="#a965dc" stroke-width="2.57" opacity="0.54"/>
<line x1="250.0" y1="221.6" x2="259.6" y2="414.5" stroke="#b56cd0" stroke-width="2.57" opacity="0.56"/>
<circle cx="457.8" cy="221.6" r="3.0" fill="#86f5ff" fill-opacity="0.6"/>
<circle cx="43.1" cy="240.6" r="3.0" fill="#86f5ff" fill-opacity="0.6"/>
<circle cx="454.3" cy="183.7" r="3.0" fill="#86f5ff" fill-opacity="0.6"/>
<circle cx="301.9" cy="221.6" r="3.0" fill="#acffff" fill-opacity="0.6"/>
<circle cx="353.9" cy="221.6" r="3.0" fill="#acffff" fill-opacity="0.6"/>
<circle cx="405.8" cy="221.6" r="3.0" fill="#acffff" fill-opacity="0.6"/>
<circle cx="457.8" cy="221.6" r="3.0" fill="#acffff" fill-opacity="0.6"/>
<circle cx="270.4" cy="269.4" r="3.0" fill="#acffff" fill-opacity="0.6"/>
<circle cx="290.8" cy="317.2" r="3.0" fill="#acffff" fill-opacity="0.6"/>
<circle cx="311.1" cy="364.9" r="3.0" fill="#acffff" fill-opacity="0.6"/>
<circle cx="331.5" cy="412.7" r="3.0" fill="#acffff" fill-opacity="0.6"/>
<circle cx="214.0" cy="259.1" r="3.0" fill="#acffff" fill-opacity="0.6"/>
<circle cx="178.1" cy="296.6" r="3.0" fill="#acffff" fill-opacity="0.6"/>
<circle cx="142.1" cy="334.1" r="3.0" fill="#acffff" fill-opacity="0.6"/>
<circle cx="106.2" cy="371.6" r="3.0" fill="#acffff" fill-opacity="0.6"/>
<circle cx="201.4" cy="203.2" r="3.0" fill="#acffff" fill-opacity="0.6"/>
<circle cx="152.8" cy="184.9" r="3.0" fill="#acffff" fill-opacity="0.6"/>
<circle cx="104.2" cy="166.5" r="3.0" fill="#acffff" fill-opacity="0.6"/>
<circle cx="55.6" cy="148.2" r="3.0" fill="#acffff" fill-opacity="0.6"/>
<circle cx="247.8" cy="169.7" r="3.0" fill="#acffff" fill-opacity="0.6"/>
<circle cx="245.6" cy="117.8" r="3.0" fill="#acffff" fill-opacity="0.6"/>
<circle cx="243.5" cy="65.9" r="3.0" fill="#acffff" fill-opacity="0.6"/>
<circle cx="241.3" cy="14.0" r="3.0" fill="#acffff" fill-opacity="0.6"/>
<circle cx="296.9" cy="199.2" r="3.0" fill="#acffff" fill-opacity="0.6"/>
<circle cx="343.8" cy="176.9" r="3.0" fill="#acffff" fill-opacity="0.6"/>
<circle cx="390.7" cy="154.5" r="3.0" fill="#acffff" fill-opacity="0.6"/>
<circle cx="437.5" cy="132.1" r="3.0" fill="#acffff" fill-opacity="0.6"/>
<circle cx="250.0" cy="221.6" r="233.8" fill="#e7-1f9" fill-opacity="0.20" stroke="#e7-1f9" stroke-width="1.5"/>
<circle cx="250.0" cy="221.6" r="207.8" fill="#d20810d" fill-opacity="0.19" stroke="#d20810d" stroke-width="1.5"/>
<circle cx="250.0" cy="221.6" r="181.8" fill="#bd11120" fill-opacity="0.18" stroke="#bd11120" stroke-width="1.5"/>
<circle cx="250.0" cy="221.6" r="155.8" fill="#a81b12d" fill-opacity="0.18" stroke="#a81b12d" stroke-width="1.5"/>
<circle cx="250.0" cy="221.6" r="129.9" fill="#9324135" fill-opacity="0.17" stroke="#9324135" stroke-width="1.5"/>
<circle cx="250.0" cy="221.6" r="103.9" fill="#7e2e135" fill-opacity="0.16" stroke="#7e2e135" stroke-width="1.5"/>
<circle cx="250.0" cy="221.6" r="77.9" fill="#693712d" fill-opacity="0.15" stroke="#693712d" stroke-width="1.5"/>
<circle cx="250.0" cy="221.6" r="51.9" fill="#5441120" fill-opacity="0.15" stroke="#5441120" stroke-width="1.5"/>
<circle cx="250.0" cy="221.6" r="26.0" fill="#3f4a10d" fill-opacity="0.14" stroke="#3f4a10d" stroke-width="1.5"/>
<circle cx="327.9" cy="221.6" r="3.0" fill="#7bccee" fill-opacity="0.6"/>
<circle cx="379.9" cy="221.6" r="3.0" fill="#7bccee" fill-opacity="0.6"/>
<circle cx="431.8" cy="221.6" r="3.0" fill="#7bccee" fill-opacity="0.6"/>
<circle cx="263.4" cy="298.4" r="3.0" fill="#7bccee" fill-opacity="0.6"/>
<circle cx="272.3" cy="349.5" r="3.0" fill="#7bccee" fill-opacity="0.6"/>
<circle cx="281.3" cy="400.7" r="3.0" fill="#7bccee" fill-opacity="0.6"/>
<circle cx="176.7" cy="248.0" r="3.0" fill="#7bccee" fill-opacity="0.6"/>
<circle cx="127.8" cy="265.6" r="3.0" fill="#7bccee" fill-opacity="0.6"/>
<circle cx="78.9" cy="283.2" r="3.0" fill="#7bccee" fill-opacity="0.6"/>
<circle cx="211.4" cy="153.9" r="3.0" fill="#7bccee" fill-opacity="0.6"/>
<circle cx="185.7" cy="108.8" r="3.0" fill="#7bccee" fill-opacity="0.6"/>
<circle cx="159.9" cy="63.7" r="3.0" fill="#7bccee" fill-opacity="0.6"/>
<circle cx="310.0" cy="171.9" r="3.0" fill="#7bccee" fill-opacity="0.6"/>
<circle cx="350.1" cy="138.8" r="3.0" fill="#7bccee" fill-opacity="0.6"/>
<circle cx="390.1" cy="105.7" r="3.0" fill="#7bccee" fill-opacity="0.6"/>
<circle cx="309.3" cy="272.2" r="3.0" fill="#7bccee" fill-opacity="0.6"/>
<circle cx="348.8" cy="305.9" r="3.0" fill="#7bccee" fill-opacity="0.6"/>
<circle cx="388.3" cy="339.7" r="3.0" fill="#7bccee" fill-opacity="0.6"/>
<circle cx="250.0" cy="221.6" r="233.8" fill="#dd2bd7" fill-opacity="0.27" stroke="#dd2bd7" stroke-width="1.5"/>
<circle cx="250.0" cy="221.6" r="207.8" fill="#c732f0" fill-opacity="0.27" stroke="#c732f0" stroke-width="1.5"/>
<circle cx="250.0" cy="221.6" r="181.8" fill="#b239107" fill-opacity="0.26" stroke="#b239107" stroke-width="1.5"/>
<circle cx="250.0" cy="221.6" r="155.8" fill="#9d40117" fill-opacity="0.26" stroke="#9d40117" stroke-width="1.5"/>
<circle cx="250.0" cy="221.6" r="129.9" fill="#8747120" fill-opacity="0.25" stroke="#8747120" stroke-width="1.5"/>
<circle cx="250.0" cy="221.6" r="103.9" fill="#724e120" fill-opacity="0.25" stroke="#724e120" stroke-width="1.5"/>
<circle cx="250.0" cy="221.6" r="77.9" fill="#5d55117" fill-opacity="0.24" stroke="#5d55117" stroke-width="1.5"/>
<circle cx="250.0" cy="221.6" r="51.9" fill="#475c107" fill-opacity="0.24" stroke="#475c107" stroke-width="1.5"/>
<circle cx="250.0" cy="221.6" r="26.0" fill="#3262f0" fill-opacity="0.23" stroke="#3262f0" stroke-width="1.5"/>
<circle cx="250.0" cy="221.6" r="233.8" fill="#e530cd" fill-opacity="0.20" stroke="#e530cd" stroke-width="1.5"/>
<circle cx="250.0" cy="221.6" r="207.8" fill="#ce3be6" fill-opacity="0.19" stroke="#ce3be6" stroke-width="1.5"/>
<circle cx="250.0" cy="221.6" r="181.8" fill="#b846fd" fill-opacity="0.19" stroke="#b846fd" stroke-width="1.5"/>
<circle cx="250.0" cy="221.6" r="155.8" fill="#a25110d" fill-opacity="0.18" stroke="#a25110d" stroke-width="1.5"/>
<circle cx="250.0" cy="221.6" r="129.9" fill="#8c5c116" fill-opacity="0.18" stroke="#8c5c116" stroke-width="1.5"/>
<circle cx="250.0" cy="221.6" r="103.9" fill="#7667116" fill-opacity="0.17" stroke="#7667116" stroke-width="1.5"/>
<circle cx="250.0" cy="221.6" r="77.9" fill="#607210d" fill-opacity="0.17" stroke="#607210d" stroke-width="1.5"/>
<circle cx="250.0" cy="221.6" r="51.9" fill="#4a7dfd" fill-opacity="0.16" stroke="#4a7dfd" stroke-width="1.5"/>
<circle cx="250.0" cy="221.6" r="26.0" fill="#3488e6" fill-opacity="0.16" stroke="#3488e6" stroke-width="1.5"/>
<circle cx="353.9" cy="221.6" r="3.0" fill="#d1e4d3" fill-opacity="0.6"/>
<circle cx="431.8" cy="221.6" r="3.0" fill="#d1e4d3" fill-opacity="0.6"/>
<circle cx="250.0" cy="325.5" r="3.0" fill="#d1e4d3" fill-opacity="0.6"/>
<circle cx="250.0" cy="403.4" r="3.0" fill="#d1e4d3" fill-opacity="0.6"/>
<circle cx="146.1" cy="221.6" r="3.0" fill="#d1e4d3" fill-opacity="0.6"/>
<circle cx="68.2" cy="221.6" r="3.0" fill="#d1e4d3" fill-opacity="0.6"/>
<circle cx="250.0" cy="117.7" r="3.0" fill="#d1e4d3" fill-opacity="0.6"/>
<circle cx="250.0" cy="39.8" r="3.0" fill="#d1e4d3" fill-opacity="0.6"/>
<circle cx="327.9" cy="221.6" r="3.0" fill="#a8ffc0" fill-opacity="0.6"/>
<circle cx="379.9" cy="221.6" r="3.0" fill="#a8ffc0" fill-opacity="0.6"/>
<circle cx="431.8" cy="221.6" r="3.0" fill="#a8ffc0" fill-opacity="0.6"/>
<circle cx="234.2" cy="297.9" r="3.0" fill="#a8ffc0" fill-opacity="0.6"/>
<circle cx="223.7" cy="348.8" r="3.0" fill="#a8ffc0" fill-opacity="0.6"/>
<circle cx="213.1" cy="399.6" r="3.0" fill="#a8ffc0" fill-opacity="0.6"/>
<circle cx="178.5" cy="190.7" r="3.0" fill="#a8ffc0" fill-opacity="0.6"/>
<circle cx="130.8" cy="170.0" r="3.0" fill="#a8ffc0" fill-opacity="0.6"/>
<circle cx="83.1" cy="149.4" r="3.0" fill="#a8ffc0" fill-opacity="0.6"/>
<circle cx="294.8" cy="157.8" r="3.0" fill="#a8ffc0" fill-opacity="0.6"/>
<circle cx="324.7" cy="115.3" r="3.0" fill="#a8ffc0" fill-opacity="0.6"/>
<circle cx="354.5" cy="72.8" r="3.0" fill="#a8ffc0" fill-opacity="0.6"/>
<circle cx="379.9" cy="221.6" r="3.0" fill="#adedd8" fill-opacity="0.6"/>
<circle cx="431.8" cy="221.6" r="3.0" fill="#adedd8" fill-opacity="0.6"/>
<circle cx="265.6" cy="350.5" r="3.0" fill="#adedd8" fill-opacity="0.6"/>
<circle cx="271.8" cy="402.1" r="3.0" fill="#adedd8" fill-opacity="0.6"/>
<circle cx="123.9" cy="252.6" r="3.0" fill="#adedd8" fill-opacity="0.6"/>
<circle cx="73.4" cy="265.0" r="3.0" fill="#adedd8" fill-opacity="0.6"/>
<circle cx="204.1" cy="100.1" r="3.0" fill="#adedd8" fill-opacity="0.6"/>
<circle cx="185.7" cy="51.5" r="3.0" fill="#adedd8" fill-opacity="0.6"/>
<circle cx="365.1" cy="161.4" r="3.0" fill="#adedd8" fill-opacity="0.6"/>
<circle cx="411.1" cy="137.4" r="3.0" fill="#adedd8" fill-opacity="0.6"/>
<circle cx="323.6" cy="328.6" r="3.0" fill="#adedd8" fill-opacity="0.6"/>
<circle cx="353.0" cy="371.4" r="3.0" fill="#adedd8" fill-opacity="0.6"/>
<circle cx="301.9" cy="221.6" r="3.0" fill="#d7e6f7" fill-opacity="0.6"/>
<circle cx="353.9" cy="221.6" r="3.0" fill="#d7e6f7" fill-opacity="0.6"/>
<circle cx="405.8" cy="221.6" r="3.0" fill="#d7e6f7" fill-opacity="0.6"/>
<circle cx="457.8" cy="221.6" r="3.0" fill="#d7e6f7" fill-opacity="0.6"/>
<circle cx="273.6" cy="267.9" r="3.0" fill="#d7e6f7" fill-opacity="0.6"/>
<circle cx="297.2" cy="314.2" r="3.0" fill="#d7e6f7" fill-opacity="0.6"/>
<circle cx="320.7" cy="360.5" r="3.0" fill="#d7e6f7" fill-opacity="0.6"/>
<circle cx="344.3" cy="406.7" r="3.0" fill="#d7e6f7" fill-opacity="0.6"/>
<circle cx="219.5" cy="263.6" r="3.0" fill="#d7e6f7" fill-opacity="0.6"/>
<circle cx="188.9" cy="305.7" r="3.0" fill="#d7e6f7" fill-opacity="0.6"/>
<circle cx="158.4" cy="347.7" r="3.0" fill="#d7e6f7" fill-opacity="0.6"/>
<circle cx="127.9" cy="389.7" r="3.0" fill="#d7e6f7" fill-opacity="0.6"/>
<circle cx="198.7" cy="213.5" r="3.0" fill="#d7e6f7" fill-opacity="0.6"/>
<circle cx="147.4" cy="205.3" r="3.0" fill="#d7e6f7" fill-opacity="0.6"/>
<circle cx="96.1" cy="197.2" r="3.0" fill="#d7e6f7" fill-opacity="0.6"/>
<circle cx="44.8" cy="189.1" r="3.0" fill="#d7e6f7" fill-opacity="0.6"/>
<circle cx="233.9" cy="172.2" r="3.0" fill="#d7e6f7" fill-opacity="0.6"/>
<circle cx="217.9" cy="122.8" r="3.0" fill="#d7e6f7" fill-opacity="0.6"/>
<circle cx="201.8" cy="73.4" r="3.0" fill="#d7e6f7" fill-opacity="0.6"/>
<circle cx="185.8" cy="24.0" r="3.0" fill="#d7e6f7" fill-opacity="0.6"/>
<circle cx="286.7" cy="184.9" r="3.0" fill="#d7e6f7" fill-opacity="0.6"/>
<circle cx="323.5" cy="148.1" r="3.0" fill="#d7e6f7" fill-opacity="0.6"/>
<circle cx="360.2" cy="111.4" r="3.0" fill="#d7e6f7" fill-opacity="0.6"/>
<circle cx="396.9" cy="74.7" r="3.0" fill="#d7e6f7" fill-opacity="0.6"/>
<circle cx="250.0" cy="221.6" r="233.8" fill="#15806e8" fill-opacity="0.13" stroke="#15806e8" stroke-width="1.5"/>
<circle cx="250.0" cy="221.6" r="207.8" fill="#1340dfc" fill-opacity="0.12" stroke="#1340dfc" stroke-width="1.5"/>
<circle cx="250.0" cy="221.6" r="181.8" fill="#1111410d" fill-opacity="0.12" stroke="#1111410d" stroke-width="1.5"/>
<circle cx="250.0" cy="221.6" r="155.8" fill="#ee1a11b" fill-opacity="0.11" stroke="#ee1a11b" stroke-width="1.5"/>
<circle cx="250.0" cy="221.6" r="129.9" fill="#ca21122" fill-opacity="0.11" stroke="#ca21122" stroke-width="1.5"/>
<circle cx="250.0" cy="221.6" r="103.9" fill="#a727122" fill-opacity="0.10" stroke="#a727122" stroke-width="1.5"/>
<circle cx="250.0" cy="221.6" r="77.9" fill="#842e11b" fill-opacity="0.10" stroke="#842e11b" stroke-width="1.5"/>
<circle cx="250.0" cy="221.6" r="51.9" fill="#603410d" fill-opacity="0.09" stroke="#603410d" stroke-width="1.5"/>
<circle cx="250.0" cy="221.6" r="26.0" fill="#3d3bfc" fill-opacity="0.09" stroke="#3d3bfc" stroke-width="1.5"/>
<line x1="250.0" y1="221.6" x2="443.1" y2="221.6" stroke="#2b30112" stroke-width="2.57" opacity="0.26"/>
<line x1="250.0" y1="221.6" x2="413.3" y2="324.6" stroke="#3a37103" stroke-width="2.57" opacity="0.29"/>
<line x1="250.0" y1="221.6" x2="333.1" y2="395.9" stroke="#493ef4" stroke-width="2.57" opacity="0.32"/>
<line x1="250.0" y1="221.6" x2="227.3" y2="413.4" stroke="#5846e5" stroke-width="2.57" opacity="0.35"/>
<line x1="250.0" y1="221.6" x2="128.5" y2="371.7" stroke="#674dd6" stroke-width="2.57" opacity="0.38"/>
<line x1="250.0" y1="221.6" x2="67.1" y2="283.7" stroke="#7654c7" stroke-width="2.57" opacity="0.41"/>
<line x1="250.0" y1="221.6" x2="62.2" y2="176.5" stroke="#855cb8" stroke-width="2.57" opacity="0.45"/>
<line x1="250.0" y1="221.6" x2="115.2" y2="83.3" stroke="#9463a9" stroke-width="2.57" opacity="0.48"/>
<line x1="250.0" y1="221.6" x2="209.9" y2="32.7" stroke="#a36a9a" stroke-width="2.57" opacity="0.51"/>
<line x1="250.0" y1="221.6" x2="316.8" y2="40.4" stroke="#b2728b" stroke-width="2.57" opacity="0.54"/>
<line x1="250.0" y1="221.6" x2="403.2" y2="104.0" stroke="#c1797c" stroke-width="2.57" opacity="0.57"/>
<line x1="250.0" y1="221.6" x2="442.3" y2="203.9" stroke="#d0806d" stroke-width="2.57" opacity="0.60"/>
<line x1="250.0" y1="221.6" x2="443.1" y2="221.6" stroke="#223af2" stroke-width="2.57" opacity="0.32"/>
<line x1="250.0" y1="221.6" x2="400.7" y2="342.3" stroke="#2e40e6" stroke-width="2.57" opacity="0.34"/>
<line x1="250.0" y1="221.6" x2="292.1" y2="410.1" stroke="#3a47da" stroke-width="2.57" opacity="0.37"/>
<line x1="250.0" y1="221.6" x2="165.0" y2="395.0" stroke="#464dce" stroke-width="2.57" opacity="0.39"/>
<line x1="250.0" y1="221.6" x2="75.3" y2="303.8" stroke="#5254c2" stroke-width="2.57" opacity="0.42"/>
<line x1="250.0" y1="221.6" x2="62.2" y2="176.5" stroke="#5e5bb6" stroke-width="2.57" opacity="0.44"/>
<line x1="250.0" y1="221.6" x2="131.6" y2="69.0" stroke="#6a61aa" stroke-width="2.57" opacity="0.46"/>
<line x1="250.0" y1="221.6" x2="253.0" y2="28.5" stroke="#76689e" stroke-width="2.57" opacity="0.49"/>
<line x1="250.0" y1="221.6" x2="373.1" y2="72.8" stroke="#826e92" stroke-width="2.57" opacity="0.51"/>
<line x1="250.0" y1="221.6" x2="439.1" y2="182.4" stroke="#8e7586" stroke-width="2.57" opacity="0.54"/>
<line x1="250.0" y1="221.6" x2="422.1" y2="309.3" stroke="#9a7c7a" stroke-width="2.57" opacity="0.56"/>
<line x1="250.0" y1="221.6" x2="329.5" y2="397.6" stroke="#a6826e" stroke-width="2.57" opacity="0.59"/>
<circle cx="327.9" cy="221.6" r="3.0" fill="#aeda9f" fill-opacity="0.6"/>
<circle cx="379.9" cy="221.6" r="3.0" fill="#aeda9f" fill-opacity="0.6"/>
<circle cx="431.8" cy="221.6" r="3.0" fill="#aeda9f" fill-opacity="0.6"/>
<circle cx="260.6" cy="298.8" r="3.0" fill="#aeda9f" fill-opacity="0.6"/>
<circle cx="267.6" cy="350.3" r="3.0" fill="#aeda9f" fill-opacity="0.6"/>
<circle cx="274.7" cy="401.7" r="3.0" fill="#aeda9f" fill-opacity="0.6"/>
<circle cx="175.0" cy="242.6" r="3.0" fill="#aeda9f" fill-opacity="0.6"/>
<circle cx="124.9" cy="256.5" r="3.0" fill="#aeda9f" fill-opacity="0.6"/>
<circle cx="74.9" cy="270.5" r="3.0" fill="#aeda9f" fill-opacity="0.6"/>
<circle cx="219.1" cy="150.1" r="3.0" fill="#aeda9f" fill-opacity="0.6"/>
<circle cx="198.4" cy="102.4" r="3.0" fill="#aeda9f" fill-opacity="0.6"/>
<circle cx="177.8" cy="54.7" r="3.0" fill="#aeda9f" fill-opacity="0.6"/>
<circle cx="316.6" cy="181.2" r="3.0" fill="#aeda9f" fill-opacity="0.6"/>
<circle cx="361.1" cy="154.3" r="3.0" fill="#aeda9f" fill-opacity="0.6"/>
<circle cx="405.5" cy="127.4" r="3.0" fill="#aeda9f" fill-opacity="0.6"/>
<circle cx="299.0" cy="282.2" r="3.0" fill="#aeda9f" fill-opacity="0.6"/>
<circle cx="331.7" cy="322.5" r="3.0" fill="#aeda9f" fill-opacity="0.6"/>
<circle cx="364.4" cy="362.9" r="3.0" fill="#aeda9f" fill-opacity="0.6"/>
<circle cx="250.0" cy="221.6" r="8.0" fill="#a9c0ab" fill-opacity="0.9"/>
</svg>