<svg xmlns="http://www.w3.org/2000/svg" width="500" height="500" viewBox="0 0 500 500">
<rect width="500" height="500" fill="#00583c"/>
<circle cx="250.0" cy="221.6" r="233.8" fill="#bc41c4" fill-opacity="0.26" stroke="#bc41c4" stroke-width="1.5"/>
<circle cx="250.0" cy="221.6" r="212.5" fill="#ae48d1" fill-opacity="0.25" stroke="#ae48d1" stroke-width="1.5"/>
<circle cx="250.0" cy="221.6" r="191.3" fill="#a04fdd" fill-opacity="0.25" stroke="#a04fdd" stroke-width="1.5"/>
<circle cx="250.0" cy="221.6" r="170.0" fill="#9257e8" fill-opacity="0.24" stroke="#9257e8" stroke-width="1.5"/>
<circle cx="250.0" cy="221.6" r="148.8" fill="#845eef" fill-opacity="0.24" stroke="#845eef" stroke-width="1.5"/>
<circle cx="250.0" cy="221.6" r="127.5" fill="#7665f3" fill-opacity="0.23" stroke="#7665f3" stroke-width="1.5"/>
<circle cx="250.0" cy="221.6" r="106.3" fill="#696df3" fill-opacity="0.23" stroke="#696df3" stroke-width="1.5"/>
<circle cx="250.0" cy="221.6" r="85.0" fill="#5b74ef" fill-opacity="0.22" stroke="#5b74ef" stroke-width="1.5"/>
<circle cx="250.0" cy="221.6" r="63.8" fill="#4d7be8" fill-opacity="0.22" stroke="#4d7be8" stroke-width="1.5"/>
<circle cx="250.0" cy="221.6" r="42.5" fill="#3f83dd" fill-opacity="0.21" stroke="#3f83dd" stroke-width="1.5"/>
<circle cx="250.0" cy="221.6" r="21.3" fill="#318ad1" fill-opacity="0.21" stroke="#318ad1" stroke-width="1.5"/>
<circle cx="250.0" cy="221.6" r="233.8" fill="#b24aef" fill-opacity="0.27" stroke="#b24aef" stroke-width="1.5"/>
<circle cx="250.0" cy="221.6" r="212.5" fill="#a552fa" fill-opacity="0.27" stroke="#a552fa" stroke-width="1.5"/>
<circle cx="250.0" cy="221.6" r="191.3" fill="#995b105" fill-opacity="0.26" stroke="#995b105" stroke-width="1.5"/>
<circle cx="250.0" cy="221.6" r="170.0" fill="#8c6310e" fill-opacity="0.26" stroke="#8c6310e" stroke-width="1.5"/>
<circle cx="250.0" cy="221.6" r="148.8" fill="#806b115" fill-opacity="0.26" stroke="#806b115" stroke-width="1.5"/>
<circle cx="250.0" cy="221.6" r="127.5" fill="#7473118" fill-opacity="0.25" stroke="#7473118" stroke-width="1.5"/>
<circle cx="250.0" cy="221.6" r="106.3" fill="#677b118" fill-opacity="0.25" stroke="#677b118" stroke-width="1.5"/>
<circle cx="250.0" cy="221.6" r="85.0" fill="#5b83115" fill-opacity="0.24" stroke="#5b83115" stroke-width="1.5"/>
<circle cx="250.0" cy="221.6" r="63.8" fill="#4f8c10e" fill-opacity="0.24" stroke="#4f8c10e" stroke-width="1.5"/>
<circle cx="250.0" cy="221.6" r="42.5" fill="#4294105" fill-opacity="0.24" stroke="#4294105" stroke-width="1.5"/>
<circle cx="250.0" cy="221.6" r="21.3" fill="#369cfa" fill-opacity="0.23" stroke="#369cfa" stroke-width="1.5"/>
<circle cx="292.5" cy="221.6" r="3.0" fill="#72a8be" fill-opacity="0.6"/>
<circle cx="335.0" cy="221.6" r="3.0" fill="#72a8be" fill-opacity="0.6"/>
<circle cx="377.5" cy="221.6" r="3.0" fill="#72a8be" fill-opacity="0.6"/>
<circle cx="420.0" cy="221.6" r="3.0" fill="#72a8be" fill-opacity="0.6"/>
<circle cx="462.5" cy="221.6" r="3.0" fill="#72a8be" fill-opacity="0.6"/>
<circle cx="251.3" cy="264.1" r="3.0" fill="#72a8be" fill-opacity="0.6"/>
<circle cx="252.7" cy="306.6" r="3.0" fill="#72a8be" fill-opacity="0.6"/>
<circle cx="254.0" cy="349.0" r="3.0" fill="#72a8be" fill-opacity="0.6"/>
<circle cx="255.3" cy="391.5" r="3.0" fill="#72a8be" fill-opacity="0.6"/>
<circle cx="256.7" cy="434.0" r="3.0" fill="#72a8be" fill-opacity="0.6"/>
<circle cx="207.6" cy="224.3" r="3.0" fill="#72a8be" fill-opacity="0.6"/>
<circle cx="165.2" cy="226.9" r="3.0" fill="#72a8be" fill-opacity="0.6"/>
<circle cx="122.7" cy="229.6" r="3.0" fill="#72a8be" fill-opacity="0.6"/>
<circle cx="80.3" cy="232.3" r="3.0" fill="#72a8be" fill-opacity="0.6"/>
<circle cx="37.9" cy="234.9" r="3.0" fill="#72a8be" fill-opacity="0.6"/>
<circle cx="246.0" cy="179.3" r="3.0" fill="#72a8be" fill-opacity="0.6"/>
<circle cx="242.0" cy="137.0" r="3.0" fill="#72a8be" fill-opacity="0.6"/>
<circle cx="238.0" cy="94.7" r="3.0" fill="#72a8be" fill-opacity="0.6"/>
<circle cx="234.0" cy="52.3" r="3.0" fill="#72a8be" fill-opacity="0.6"/>
<circle cx="230.0" cy="10.0" r="3.0" fill="#72a8be" fill-opacity="0.6"/>
<circle cx="292.2" cy="216.3" r="3.0" fill="#72a8be" fill-opacity="0.6"/>
<circle cx="334.3" cy="210.9" r="3.0" fill="#72a8be" fill-opacity="0.6"/>
<circle cx="376.5" cy="205.6" r="3.0" fill="#72a8be" fill-opacity="0.6"/>
<circle cx="418.7" cy="200.3" r="3.0" fill="#72a8be" fill-opacity="0.6"/>
<circle cx="460.8" cy="195.0" r="3.0" fill="#72a8be" fill-opacity="0.6"/>
<circle cx="256.6" cy="263.6" r="3.0" fill="#72a8be" fill-opacity="0.6"/>
<circle cx="263.3" cy="305.6" r="3.0" fill="#72a8be" fill-opacity="0.6"/>
<circle cx="269.9" cy="347.5" r="3.0" fill="#72a8be" fill-opacity="0.6"/>
<circle cx="276.6" cy="389.5" r="3.0" fill="#72a8be" fill-opacity="0.6"/>
<circle cx="283.2" cy="431.5" r="3.0" fill="#72a8be" fill-opacity="0.6"/>
<circle cx="313.8" cy="221.6" r="3.0" fill="#cfb6ff" fill-opacity="0.6"/>
<circle cx="356.3" cy="221.6" r="3.0" fill="#cfb6ff" fill-opacity="0.6"/>
<circle cx="398.8" cy="221.6" r="3.0" fill="#cfb6ff" fill-opacity="0.6"/>
<circle cx="441.3" cy="221.6" r="3.0" fill="#cfb6ff" fill-opacity="0.6"/>
<circle cx="278.6" cy="278.6" r="3.0" fill="#cfb6ff" fill-opacity="0.6"/>
<circle cx="297.7" cy="316.5" r="3.0" fill="#cfb6ff" fill-opacity="0.6"/>
<circle cx="316.8" cy="354.5" r="3.0" fill="#cfb6ff" fill-opacity="0.6"/>
<circle cx="335.9" cy="392.5" r="3.0" fill="#cfb6ff" fill-opacity="0.6"/>
<circle cx="212.0" cy="272.8" r="3.0" fill="#cfb6ff" fill-opacity="0.6"/>
<circle cx="186.6" cy="306.9" r="3.0" fill="#cfb6ff" fill-opacity="0.6"/>
<circle cx="161.3" cy="341.0" r="3.0" fill="#cfb6ff" fill-opacity="0.6"/>
<circle cx="136.0" cy="375.1" r="3.0" fill="#cfb6ff" fill-opacity="0.6"/>
<circle cx="187.2" cy="210.6" r="3.0" fill="#cfb6ff" fill-opacity="0.6"/>
<circle cx="145.3" cy="203.3" r="3.0" fill="#cfb6ff" fill-opacity="0.6"/>
<circle cx="103.5" cy="196.0" r="3.0" fill="#cfb6ff" fill-opacity="0.6"/>
<circle cx="61.6" cy="188.7" r="3.0" fill="#cfb6ff" fill-opacity="0.6"/>
<circle cx="231.6" cy="160.6" r="3.0" fill="#cfb6ff" fill-opacity="0.6"/>
<circle cx="219.3" cy="119.9" r="3.0" fill="#cfb6ff" fill-opacity="0.6"/>
<circle cx="207.0" cy="79.2" r="3.0" fill="#cfb6ff" fill-opacity="0.6"/>
<circle cx="194.7" cy="38.5" r="3.0" fill="#cfb6ff" fill-opacity="0.6"/>
<circle cx="296.2" cy="177.7" r="3.0" fill="#cfb6ff" fill-opacity="0.6"/>
<circle cx="327.1" cy="148.5" r="3.0" fill="#cfb6ff" fill-opacity="0.6"/>
<circle cx="357.9" cy="119.2" r="3.0" fill="#cfb6ff" fill-opacity="0.6"/>
<circle cx="388.7" cy="89.9" r="3.0" fill="#cfb6ff" fill-opacity="0.6"/>
<circle cx="292.5" cy="221.6" r="3.0" fill="#b8c190" fill-opacity="0.6"/>
<circle cx="335.0" cy="221.6" r="3.0" fill="#b8c190" fill-opacity="0.6"/>
<circle cx="377.5" cy="221.6" r="3.0" fill="#b8c190" fill-opacity="0.6"/>
<circle cx="420.0" cy="221.6" r="3.0" fill="#b8c190" fill-opacity="0.6"/>
<circle cx="462.5" cy="221.6" r="3.0" fill="#b8c190" fill-opacity="0.6"/>
<circle cx="277.9" cy="253.7" r="3.0" fill="#b8c190" fill-opacity="0.6"/>
<circle cx="305.7" cy="285.8" r="3.0" fill="#b8c190" fill-opacity="0.6"/>
<circle cx="333.6" cy="317.9" r="3.0" fill="#b8c190" fill-opacity="0.6"/>
<circle cx="361.4" cy="350.0" r="3.0" fill="#b8c190" fill-opacity="0.6"/>
<circle cx="389.3" cy="382.1" r="3.0" fill="#b8c190" fill-opacity="0.6"/>
<circle cx="244.0" cy="263.7" r="3.0" fill="#b8c190" fill-opacity="0.6"/>
<circle cx="238.0" cy="305.8" r="3.0" fill="#b8c190" fill-opacity="0.6"/>
<circle cx="232.0" cy="347.8" r="3.0" fill="#b8c190" fill-opacity="0.6"/>
<circle cx="226.0" cy="389.9" r="3.0" fill="#b8c190" fill-opacity="0.6"/>
<circle cx="220.1" cy="432.0" r="3.0" fill="#b8c190" fill-opacity="0.6"/>
<circle cx="214.3" cy="244.7" r="3.0" fill="#b8c190" fill-opacity="0.6"/>
<circle cx="178.6" cy="267.7" r="3.0" fill="#b8c190" fill-opacity="0.6"/>
<circle cx="142.9" cy="290.8" r="3.0" fill="#b8c190" fill-opacity="0.6"/>
<circle cx="107.2" cy="313.8" r="3.0" fill="#b8c190" fill-opacity="0.6"/>
<circle cx="71.5" cy="336.9" r="3.0" fill="#b8c190" fill-opacity="0.6"/>
<circle cx="313.8" cy="221.6" r="3.0" fill="#bfffff" fill-opacity="0.6"/>
<circle cx="356.3" cy="221.6" r="3.0" fill="#bfffff" fill-opacity="0.6"/>
<circle cx="398.8" cy="221.6" r="3.0" fill="#bfffff" fill-opacity="0.6"/>
<circle cx="441.3" cy="221.6" r="3.0" fill="#bfffff" fill-opacity="0.6"/>
<circle cx="282.5" cy="276.5" r="3.0" fill="#bfffff" fill-opacity="0.6"/>
<circle cx="304.1" cy="313.1" r="3.0" fill="#bfffff" fill-opacity="0.6"/>
<circle cx="325.7" cy="349.6" r="3.0" fill="#bfffff" fill-opacity="0.6"/>
<circle cx="347.4" cy="386.2" r="3.0" fill="#bfffff" fill-opacity="0.6"/>
<circle cx="219.3" cy="277.5" r="3.0" fill="#bfffff" fill-opacity="0.6"/>
<circle cx="198.8" cy="314.7" r="3.0" fill="#bfffff" fill-opacity="0.6"/>
<circle cx="178.3" cy="352.0" r="3.0" fill="#bfffff" fill-opacity="0.6"/>
<circle cx="157.9" cy="389.2" r="3.0" fill="#bfffff" fill-opacity="0.6"/>
<circle cx="186.3" cy="223.6" r="3.0" fill="#bfffff" fill-opacity="0.6"/>
<circle cx="143.8" cy="224.9" r="3.0" fill="#bfffff" fill-opacity="0.6"/>
<circle cx="101.3" cy="226.3" r="3.0" fill="#bfffff" fill-opacity="0.6"/>
<circle cx="58.8" cy="227.6" r="3.0" fill="#bfffff" fill-opacity="0.6"/>
<line x1="250.0" y1="221.6" x2="443.1" y2="221.6" stroke="#5e21e3" stroke-width="2.57" opacity="0.23"/>
<line x1="250.0" y1="221.6" x2="408.3" y2="332.2" stroke="#772aca" stroke-width="2.57" opacity="0.26"/>
<line x1="250.0" y1="221.6" x2="316.4" y2="402.9" stroke="#9034b1" stroke-width="2.57" opacity="0.29"/>
<line x1="250.0" y1="221.6" x2="200.5" y2="408.3" stroke="#a93e98" stroke-width="2.57" opacity="0.32"/>
<line x1="250.0" y1="221.6" x2="102.5" y2="346.2" stroke="#c2487f" stroke-width="2.57" opacity="0.35"/>
<line x1="250.0" y1="221.6" x2="57.7" y2="239.3" stroke="#db5166" stroke-width="2.57" opacity="0.38"/>
<line x1="250.0" y1="221.6" x2="82.3" y2="125.9" stroke="#f45b4d" stroke-width="2.57" opacity="0.41"/>
<line x1="250.0" y1="221.6" x2="167.3" y2="47.1" stroke="#10d6534" stroke-width="2.57" opacity="0.43"/>
<line x1="250.0" y1="221.6" x2="282.2" y2="31.2" stroke="#1266f1b" stroke-width="2.57" opacity="0.46"/>
<line x1="250.0" y1="221.6" x2="385.5" y2="84.0" stroke="#13f7802" stroke-width="2.57" opacity="0.49"/>
<line x1="250.0" y1="221.6" x2="439.9" y2="186.4" stroke="#13f8200" stroke-width="2.57" opacity="0.52"/>
<line x1="250.0" y1="221.6" x2="425.8" y2="301.5" stroke="#13f8c00" stroke-width="2.57" opacity="0.55"/>
<circle cx="377.5" cy="221.6" r="3.0" fill="#98decd" fill-opacity="0.6"/>
<circle cx="420.0" cy="221.6" r="3.0" fill="#98decd" fill-opacity="0.6"/>
<circle cx="462.5" cy="221.6" r="3.0" fill="#98decd" fill-opacity="0.6"/>
<circle cx="225.1" cy="346.7" r="3.0" fill="#98decd" fill-opacity="0.6"/>
<circle cx="216.8" cy="388.3" r="3.0" fill="#98decd" fill-opacity="0.6"/>
<circle cx="208.5" cy="430.0" r="3.0" fill="#98decd" fill-opacity="0.6"/>
<circle cx="132.2" cy="172.8" r="3.0" fill="#98decd" fill-opacity="0.6"/>
<circle cx="92.9" cy="156.5" r="3.0" fill="#98decd" fill-opacity="0.6"/>
<circle cx="53.7" cy="140.3" r="3.0" fill="#98decd" fill-opacity="0.6"/>
<circle cx="250.0" cy="221.6" r="233.8" fill="#1062fc5" fill-opacity="0.22" stroke="#1062fc5" stroke-width="1.5"/>
<circle cx="250.0" cy="221.6" r="212.5" fill="#f136dd" fill-opacity="0.22" stroke="#f136dd" stroke-width="1.5"/>
<circle cx="250.0" cy="221.6" r="191.3" fill="#dc3df3" fill-opacity="0.21" stroke="#dc3df3" stroke-width="1.5"/>
<circle cx="250.0" cy="221.6" r="170.0" fill="#c744105" fill-opacity="0.21" stroke="#c744105" stroke-width="1.5"/>
<circle cx="250.0" cy="221.6" r="148.8" fill="#b34b113" fill-opacity="0.20" stroke="#b34b113" stroke-width="1.5"/>
<circle cx="250.0" cy="221.6" r="127.5" fill="#9e5211a" fill-opacity="0.20" stroke="#9e5211a" stroke-width="1.5"/>
<circle cx="250.0" cy="221.6" r="106.3" fill="#895911a" fill-opacity="0.19" stroke="#895911a" stroke-width="1.5"/>
<circle cx="250.0" cy="221.6" r="85.0" fill="#7460113" fill-opacity="0.19" stroke="#7460113" stroke-width="1.5"/>
<circle cx="250.0" cy="221.6" r="63.8" fill="#6067105" fill-opacity="0.18" stroke="#6067105" stroke-width="1.5"/>
<circle cx="250.0" cy="221.6" r="42.5" fill="#4b6ef3" fill-opacity="0.18" stroke="#4b6ef3" stroke-width="1.5"/>
<circle cx="250.0" cy="221.6" r="21.3" fill="#3675dd" fill-opacity="0.17" stroke="#3675dd" stroke-width="1.5"/>
<circle cx="250.0" cy="221.6" r="233.8" fill="#13933ea" fill-opacity="0.18" stroke="#13933ea" stroke-width="1.5"/>
<circle cx="250.0" cy="221.6" r="212.5" fill="#12038fe" fill-opacity="0.17" stroke="#12038fe" stroke-width="1.5"/>
<circle cx="250.0" cy="221.6" r="191.3" fill="#1073d110" fill-opacity="0.17" stroke="#1073d110" stroke-width="1.5"/>
<circle cx="250.0" cy="221.6" r="170.0" fill="#ee42120" fill-opacity="0.16" stroke="#ee42120" stroke-width="1.5"/>
<circle cx="250.0" cy="221.6" r="148.8" fill="#d54812b" fill-opacity="0.16" stroke="#d54812b" stroke-width="1.5"/>
<circle cx="250.0" cy="221.6" r="127.5" fill="#bc4d131" fill-opacity="0.15" stroke="#bc4d131" stroke-width="1.5"/>
<circle cx="250.0" cy="221.6" r="106.3" fill="#a452131" fill-opacity="0.15" stroke="#a452131" stroke-width="1.5"/>
<circle cx="250.0" cy="221.6" r="85.0" fill="#8b5712b" fill-opacity="0.14" stroke="#8b5712b" stroke-width="1.5"/>
<circle cx="250.0" cy="221.6" r="63.8" fill="#725c120" fill-opacity="0.14" stroke="#725c120" stroke-width="1.5"/>
<circle cx="250.0" cy="221.6" r="42.5" fill="#5961110" fill-opacity="0.13" stroke="#5961110" stroke-width="1.5"/>
<circle cx="250.0" cy="221.6" r="21.3" fill="#4066fe" fill-opacity="0.13" stroke="#4066fe" stroke-width="1.5"/>
<circle cx="377.5" cy="221.6" r="3.0" fill="#bdc5fa" fill-opacity="0.6"/>
<circle cx="420.0" cy="221.6" r="3.0" fill="#bdc5fa" fill-opacity="0.6"/>
<circle cx="462.5" cy="221.6" r="3.0" fill="#bdc5fa" fill-opacity="0.6"/>
<circle cx="209.3" cy="342.4" r="3.0" fill="#bdc5fa" fill-opacity="0.6"/>
<circle cx="195.8" cy="382.7" r="3.0" fill="#bdc5fa" fill-opacity="0.6"/>
<circle cx="182.2" cy="423.0" r="3.0" fill="#bdc5fa" fill-opacity="0.6"/>
<circle cx="148.4" cy="144.5" r="3.0" fill="#bdc5fa" fill-opacity="0.6"/>
<circle cx="114.6" cy="118.8" r="3.0" fill="#bdc5fa" fill-opacity="0.6"/>
<circle cx="80.7" cy="93.1" r="3.0" fill="#bdc5fa" fill-opacity="0.6"/>
<line x1="250.0" y1="221.6" x2="443.1" y2="221.6" stroke="#5028c8" stroke-width="2.57" opacity="0.30"/>
<line x1="250.0" y1="221.6" x2="417.2" y2="318.2" stroke="#6531b3" stroke-width="2.57" opacity="0.33"/>
<line x1="250.0" y1="221.6" x2="346.6" y2="388.8" stroke="#7a3b9e" stroke-width="2.57" opacity="0.37"/>
<line x1="250.0" y1="221.6" x2="250.0" y2="414.7" stroke="#8f4489" stroke-width="2.57" opacity="0.40"/>
<line x1="250.0" y1="221.6" x2="153.4" y2="388.8" stroke="#a54f73" stroke-width="2.57" opacity="0.43"/>
<line x1="250.0" y1="221.6" x2="82.8" y2="318.2" stroke="#ba585e" stroke-width="2.57" opacity="0.47"/>
<line x1="250.0" y1="221.6" x2="56.9" y2="221.6" stroke="#cf6249" stroke-width="2.57" opacity="0.50"/>
<line x1="250.0" y1="221.6" x2="82.8" y2="125.0" stroke="#d96c34" stroke-width="2.57" opacity="0.53"/>
<line x1="250.0" y1="221.6" x2="153.4" y2="54.4" stroke="#d9761e" stroke-width="2.57" opacity="0.57"/>
<line x1="250.0" y1="221.6" x2="250.0" y2="28.5" stroke="#d97f09" stroke-width="2.57" opacity="0.60"/>
<line x1="250.0" y1="221.6" x2="346.6" y2="54.4" stroke="#d98900" stroke-width="2.57" opacity="0.63"/>
<line x1="250.0" y1="221.6" x2="417.2" y2="125.0" stroke="#d99300" stroke-width="2.57" opacity="0.67"/>
<circle cx="250.0" cy="221.6" r="233.8" fill="#13a09cb" fill-opacity="0.15" stroke="#13a09cb" stroke-width="1.5"/>
<circle cx="250.0" cy="221.6" r="212.5" fill="#12010e3" fill-opacity="0.15" stroke="#12010e3" stroke-width="1.5"/>
<circle cx="250.0" cy="221.6" r="191.3" fill="#10717fa" fill-opacity="0.14" stroke="#10717fa" stroke-width="1.5"/>
<circle cx="250.0" cy="221.6" r="170.0" fill="#ee1e10c" fill-opacity="0.14" stroke="#ee1e10c" stroke-width="1.5"/>
<circle cx="250.0" cy="221.6" r="148.8" fill="#d52511a" fill-opacity="0.13" stroke="#d52511a" stroke-width="1.5"/>
<circle cx="250.0" cy="221.6" r="127.5" fill="#bc2c121" fill-opacity="0.13" stroke="#bc2c121" stroke-width="1.5"/>
<circle cx="250.0" cy="221.6" r="106.3" fill="#a333121" fill-opacity="0.12" stroke="#a333121" stroke-width="1.5"/>
<circle cx="250.0" cy="221.6" r="85.0" fill="#8a3a11a" fill-opacity="0.12" stroke="#8a3a11a" stroke-width="1.5"/>
<circle cx="250.0" cy="221.6" r="63.8" fill="#714010c" fill-opacity="0.11" stroke="#714010c" stroke-width="1.5"/>
<circle cx="250.0" cy="221.6" r="42.5" fill="#5847fa" fill-opacity="0.11" stroke="#5847fa" stroke-width="1.5"/>
<circle cx="250.0" cy="221.6" r="21.3" fill="#3f4ee3" fill-opacity="0.10" stroke="#3f4ee3" stroke-width="1.5"/>
<circle cx="292.5" cy="221.6" r="3.0" fill="#98d28a" fill-opacity="0.6"/>
<circle cx="356.3" cy="221.6" r="3.0" fill="#98d28a" fill-opacity="0.6"/>
<circle cx="420.0" cy="221.6" r="3.0" fill="#98d28a" fill-opacity="0.6"/>
<circle cx="264.4" cy="261.6" r="3.0" fill="#98d28a" fill-opacity="0.6"/>
<circle cx="286.0" cy="321.6" r="3.0" fill="#98d28a" fill-opacity="0.6"/>
<circle cx="307.6" cy="381.6" r="3.0" fill="#98d28a" fill-opacity="0.6"/>
<circle cx="217.3" cy="248.7" r="3.0" fill="#98d28a" fill-opacity="0.6"/>
<circle cx="168.1" cy="289.3" r="3.0" fill="#98d28a" fill-opacity="0.6"/>
<circle cx="119.0" cy="330.0" r="3.0" fill="#98d28a" fill-opacity="0.6"/>
<line x1="250.0" y1="221.6" x2="443.1" y2="221.6" stroke="#2a2ef3" stroke-width="2.57" opacity="0.35"/>
<line x1="250.0" y1="221.6" x2="416.7" y2="319.0" stroke="#3734e6" stroke-width="2.57" opacity="0.37"/>
<line x1="250.0" y1="221.6" x2="344.8" y2="389.8" stroke="#453bd8" stroke-width="2.57" opacity="0.39"/>
<line x1="250.0" y1="221.6" x2="247.0" y2="414.7" stroke="#5241cb" stroke-width="2.57" opacity="0.40"/>
<line x1="250.0" y1="221.6" x2="150.0" y2="386.8" stroke="#6048bd" stroke-width="2.57" opacity="0.42"/>
<line x1="250.0" y1="221.6" x2="80.3" y2="313.7" stroke="#6d4eb0" stroke-width="2.57" opacity="0.44"/>
<line x1="250.0" y1="221.6" x2="57.0" y2="215.5" stroke="#7b55a2" stroke-width="2.57" opacity="0.46"/>
<line x1="250.0" y1="221.6" x2="86.4" y2="119.0" stroke="#885c95" stroke-width="2.57" opacity="0.48"/>
<line x1="250.0" y1="221.6" x2="160.5" y2="50.5" stroke="#966287" stroke-width="2.57" opacity="0.50"/>
<line x1="250.0" y1="221.6" x2="259.1" y2="28.7" stroke="#a3697a" stroke-width="2.57" opacity="0.52"/>
<line x1="250.0" y1="221.6" x2="355.2" y2="59.6" stroke="#b1706c" stroke-width="2.57" opacity="0.53"/>
<line x1="250.0" y1="221.6" x2="422.5" y2="134.8" stroke="#be765f" stroke-width="2.57" opacity="0.55"/>
<circle cx="335.0" cy="221.6" r="3.0" fill="#4a94f8" fill-opacity="0.6"/>
<circle cx="377.5" cy="221.6" r="3.0" fill="#4a94f8" fill-opacity="0.6"/>
<circle cx="420.0" cy="221.6" r="3.0" fill="#4a94f8" fill-opacity="0.6"/>
<circle cx="462.5" cy="221.6" r="3.0" fill="#4a94f8" fill-opacity="0.6"/>
<circle cx="303.5" cy="287.7" r="3.0" fill="#4a94f8" fill-opacity="0.6"/>
<circle cx="330.2" cy="320.7" r="3.0" fill="#4a94f8" fill-opacity="0.6"/>
<circle cx="357.0" cy="353.7" r="3.0" fill="#4a94f8" fill-opacity="0.6"/>
<circle cx="383.7" cy="386.8" r="3.0" fill="#4a94f8" fill-opacity="0.6"/>
<circle cx="232.3" cy="304.7" r="3.0" fill="#4a94f8" fill-opacity="0.6"/>
<circle cx="223.5" cy="346.3" r="3.0" fill="#4a94f8" fill-opacity="0.6"/>
<circle cx="214.7" cy="387.9" r="3.0" fill="#4a94f8" fill-opacity="0.6"/>
<circle cx="205.8" cy="429.5" r="3.0" fill="#4a94f8" fill-opacity="0.6"/>
<circle cx="174.3" cy="260.2" r="3.0" fill="#4a94f8" fill-opacity="0.6"/>
<circle cx="136.4" cy="279.5" r="3.0" fill="#4a94f8" fill-opacity="0.6"/>
<circle cx="98.5" cy="298.8" r="3.0" fill="#4a94f8" fill-opacity="0.6"/>
<circle cx="60.7" cy="318.1" r="3.0" fill="#4a94f8" fill-opacity="0.6"/>
<circle cx="172.3" cy="187.0" r="3.0" fill="#4a94f8" fill-opacity="0.6"/>
<circle cx="133.5" cy="169.7" r="3.0" fill="#4a94f8" fill-opacity="0.6"/>
<circle cx="94.7" cy="152.5" r="3.0" fill="#4a94f8" fill-opacity="0.6"/>
<circle cx="55.9" cy="135.2" r="3.0" fill="#4a94f8" fill-opacity="0.6"/>
<circle cx="228.0" cy="139.5" r="3.0" fill="#4a94f8" fill-opacity="0.6"/>
<circle cx="217.0" cy="98.4" r="3.0" fill="#4a94f8" fill-opacity="0.6"/>
<circle cx="206.0" cy="57.4" r="3.0" fill="#4a94f8" fill-opacity="0.6"/>
<circle cx="195.0" cy="16.3" r="3.0" fill="#4a94f8" fill-opacity="0.6"/>
<circle cx="335.0" cy="221.6" r="3.0" fill="#b9ffff" fill-opacity="0.6"/>
<circle cx="398.8" cy="221.6" r="3.0" fill="#b9ffff" fill-opacity="0.6"/>
<circle cx="462.5" cy="221.6" r="3.0" fill="#b9ffff" fill-opacity="0.6"/>
<circle cx="255.3" cy="306.4" r="3.0" fill="#b9ffff" fill-opacity="0.6"/>
<circle cx="259.3" cy="370.1" r="3.0" fill="#b9ffff" fill-opacity="0.6"/>
<circle cx="263.3" cy="433.7" r="3.0" fill="#b9ffff" fill-opacity="0.6"/>
<circle cx="165.7" cy="232.3" r="3.0" fill="#b9ffff" fill-opacity="0.6"/>
<circle cx="102.4" cy="240.2" r="3.0" fill="#b9ffff" fill-opacity="0.6"/>
<circle cx="39.2" cy="248.2" r="3.0" fill="#b9ffff" fill-opacity="0.6"/>
<line x1="250.0" y1="221.6" x2="443.1" y2="221.6" stroke="#402de5" stroke-width="2.57" opacity="0.38"/>
<line x1="250.0" y1="221.6" x2="402.3" y2="340.4" stroke="#5639cf" stroke-width="2.57" opacity="0.41"/>
<line x1="250.0" y1="221.6" x2="297.0" y2="408.9" stroke="#6d47b8" stroke-width="2.57" opacity="0.43"/>
<line x1="250.0" y1="221.6" x2="171.9" y2="398.2" stroke="#8455a1" stroke-width="2.57" opacity="0.46"/>
<line x1="250.0" y1="221.6" x2="79.8" y2="312.9" stroke="#9a628b" stroke-width="2.57" opacity="0.49"/>
<line x1="250.0" y1="221.6" x2="59.7" y2="188.9" stroke="#b16f74" stroke-width="2.57" opacity="0.51"/>
<line x1="250.0" y1="221.6" x2="120.0" y2="78.8" stroke="#b87d5d" stroke-width="2.57" opacity="0.54"/>
<line x1="250.0" y1="221.6" x2="235.4" y2="29.0" stroke="#b88a47" stroke-width="2.57" opacity="0.57"/>
<line x1="250.0" y1="221.6" x2="356.9" y2="60.8" stroke="#b89730" stroke-width="2.57" opacity="0.59"/>
<line x1="250.0" y1="221.6" x2="433.2" y2="160.5" stroke="#b8a519" stroke-width="2.57" opacity="0.62"/>
<line x1="250.0" y1="221.6" x2="432.0" y2="286.1" stroke="#b8b203" stroke-width="2.57" opacity="0.65"/>
<line x1="250.0" y1="221.6" x2="353.9" y2="384.4" stroke="#b8bf00" stroke-width="2.57" opacity="0.67"/>
<circle cx="313.8" cy="221.6" r="3.0" fill="#7bccee" fill-opacity="0.6"/>
<circle cx="356.3" cy="221.6" r="3.0" fill="#7bccee" fill-opacity="0.6"/>
<circle cx="398.8" cy="221.6" r="3.0" fill="#7bccee" fill-opacity="0.6"/>
<circle cx="441.3" cy="221.6" r="3.0" fill="#7bccee" fill-opacity="0.6"/>
<circle cx="261.0" cy="284.4" r="3.0" fill="#7bccee" fill-opacity="0.6"/>
<circle cx="268.3" cy="326.3" r="3.0" fill="#7bccee" fill-opacity="0.6"/>
<circle cx="275.6" cy="368.1" r="3.0" fill="#7bccee" fill-opacity="0.6"/>
<circle cx="282.9" cy="410.0" r="3.0" fill="#7bccee" fill-opacity="0.6"/>
<circle cx="190.0" cy="243.2" r="3.0" fill="#7bccee" fill-opacity="0.6"/>
<circle cx="150.0" cy="257.6" r="3.0" fill="#7bccee" fill-opacity="0.6"/>
<circle cx="110.0" cy="272.0" r="3.0" fill="#7bccee" fill-opacity="0.6"/>
<circle cx="70.0" cy="286.4" r="3.0" fill="#7bccee" fill-opacity="0.6"/>
<circle cx="218.4" cy="166.2" r="3.0" fill="#7bccee" fill-opacity="0.6"/>
<circle cx="197.4" cy="129.3" r="3.0" fill="#7bccee" fill-opacity="0.6"/>
<circle cx="176.3" cy="92.4" r="3.0" fill="#7bccee" fill-opacity="0.6"/>
<circle cx="155.2" cy="55.5" r="3.0" fill="#7bccee" fill-opacity="0.6"/>
<circle cx="299.1" cy="181.0" r="3.0" fill="#7bccee" fill-opacity="0.6"/>
<circle cx="331.9" cy="153.9" r="3.0" fill="#7bccee" fill-opacity="0.6"/>
<circle cx="364.6" cy="126.8" r="3.0" fill="#7bccee" fill-opacity="0.6"/>
<circle cx="397.4" cy="99.7" r="3.0" fill="#7bccee" fill-opacity="0.6"/>
<circle cx="298.5" cy="263.0" r="3.0" fill="#7bccee" fill-opacity="0.6"/>
<circle cx="330.8" cy="290.6" r="3.0" fill="#7bccee" fill-opacity="0.6"/>
<circle cx="363.1" cy="318.2" r="3.0" fill="#7bccee" fill-opacity="0.6"/>
<circle cx="395.4" cy="345.8" r="3.0" fill="#7bccee" fill-opacity="0.6"/>
<circle cx="313.8" cy="221.6" r="3.0" fill="#c1b4cc" fill-opacity="0.6"/>
<circle cx="356.3" cy="221.6" r="3.0" fill="#c1b4cc" fill-opacity="0.6"/>
<circle cx="398.8" cy="221.6" r="3.0" fill="#c1b4cc" fill-opacity="0.6"/>
<circle cx="441.3" cy="221.6" r="3.0" fill="#c1b4cc" fill-opacity="0.6"/>
<circle cx="295.5" cy="266.2" r="3.0" fill="#c1b4cc" fill-opacity="0.6"/>
<circle cx="325.9" cy="295.9" r="3.0" fill="#c1b4cc" fill-opacity="0.6"/>
<circle cx="356.3" cy="325.7" r="3.0" fill="#c1b4cc" fill-opacity="0.6"/>
<circle cx="386.6" cy="355.4" r="3.0" fill="#c1b4cc" fill-opacity="0.6"/>
<circle cx="251.3" cy="285.3" r="3.0" fill="#c1b4cc" fill-opacity="0.6"/>
<circle cx="252.2" cy="327.8" r="3.0" fill="#c1b4cc" fill-opacity="0.6"/>
<circle cx="253.1" cy="370.3" r="3.0" fill="#c1b4cc" fill-opacity="0.6"/>
<circle cx="254.0" cy="412.8" r="3.0" fill="#c1b4cc" fill-opacity="0.6"/>
<circle cx="206.4" cy="268.1" r="3.0" fill="#c1b4cc" fill-opacity="0.6"/>
<circle cx="177.3" cy="299.1" r="3.0" fill="#c1b4cc" fill-opacity="0.6"/>
<circle cx="148.2" cy="330.0" r="3.0" fill="#c1b4cc" fill-opacity="0.6"/>
<circle cx="119.1" cy="361.0" r="3.0" fill="#c1b4cc" fill-opacity="0.6"/>
<circle cx="186.3" cy="224.3" r="3.0" fill="#c1b4cc" fill-opacity="0.6"/>
<circle cx="143.8" cy="226.0" r="3.0" fill="#c1b4cc" fill-opacity="0.6"/>
<circle cx="101.4" cy="227.8" r="3.0" fill="#c1b4cc" fill-opacity="0.6"/>
<circle cx="58.9" cy="229.6" r="3.0" fill="#c1b4cc" fill-opacity="0.6"/>
<circle cx="202.6" cy="178.9" r="3.0" fill="#c1b4cc" fill-opacity="0.6"/>
<circle cx="171.0" cy="150.5" r="3.0" fill="#c1b4cc" fill-opacity="0.6"/>
<circle cx="139.5" cy="122.1" r="3.0" fill="#c1b4cc" fill-opacity="0.6"/>
<circle cx="107.9" cy="93.6" r="3.0" fill="#c1b4cc" fill-opacity="0.6"/>
<circle cx="313.8" cy="221.6" r="3.0" fill="#aed0ff" fill-opacity="0.6"/>
<circle cx="356.3" cy="221.6" r="3.0" fill="#aed0ff" fill-opacity="0.6"/>
<circle cx="398.8" cy="221.6" r="3.0" fill="#aed0ff" fill-opacity="0.6"/>
<circle cx="441.3" cy="221.6" r="3.0" fill="#aed0ff" fill-opacity="0.6"/>
<circle cx="298.9" cy="262.5" r="3.0" fill="#aed0ff" fill-opacity="0.6"/>
<circle cx="331.5" cy="289.8" r="3.0" fill="#aed0ff" fill-opacity="0.6"/>
<circle cx="364.1" cy="317.0" r="3.0" fill="#aed0ff" fill-opacity="0.6"/>
<circle cx="396.7" cy="344.3" r="3.0" fill="#aed0ff" fill-opacity="0.6"/>
<circle cx="261.3" cy="284.3" r="3.0" fill="#aed0ff" fill-opacity="0.6"/>
<circle cx="268.8" cy="326.2" r="3.0" fill="#aed0ff" fill-opacity="0.6"/>
<circle cx="276.3" cy="368.0" r="3.0" fill="#aed0ff" fill-opacity="0.6"/>
<circle cx="283.9" cy="409.8" r="3.0" fill="#aed0ff" fill-opacity="0.6"/>
<circle cx="218.4" cy="277.0" r="3.0" fill="#aed0ff" fill-opacity="0.6"/>
<circle cx="197.4" cy="313.9" r="3.0" fill="#aed0ff" fill-opacity="0.6"/>
<circle cx="176.3" cy="350.8" r="3.0" fill="#aed0ff" fill-opacity="0.6"/>
<circle cx="155.2" cy="387.7" r="3.0" fill="#aed0ff" fill-opacity="0.6"/>
<circle cx="190.2" cy="243.8" r="3.0" fill="#aed0ff" fill-opacity="0.6"/>
<circle cx="150.4" cy="258.6" r="3.0" fill="#aed0ff" fill-opacity="0.6"/>
<circle cx="110.6" cy="273.5" r="3.0" fill="#aed0ff" fill-opacity="0.6"/>
<circle cx="70.7" cy="288.3" r="3.0" fill="#aed0ff" fill-opacity="0.6"/>
<circle cx="189.9" cy="200.3" r="3.0" fill="#aed0ff" fill-opacity="0.6"/>
<circle cx="149.8" cy="186.1" r="3.0" fill="#aed0ff" fill-opacity="0.6"/>
<circle cx="109.8" cy="171.9" r="3.0" fill="#aed0ff" fill-opacity="0.6"/>
<circle cx="69.7" cy="157.8" r="3.0" fill="#aed0ff" fill-opacity="0.6"/>
<circle cx="335.0" cy="221.6" r="3.0" fill="#bfffff" fill-opacity="0.6"/>
<circle cx="377.5" cy="221.6" r="3.0" fill="#bfffff" fill-opacity="0.6"/>
<circle cx="420.0" cy="221.6" r="3.0" fill="#bfffff" fill-opacity="0.6"/>
<circle cx="462.5" cy="221.6" r="3.0" fill="#bfffff" fill-opacity="0.6"/>
<circle cx="278.8" cy="301.6" r="3.0" fill="#bfffff" fill-opacity="0.6"/>
<circle cx="293.2" cy="341.6" r="3.0" fill="#bfffff" fill-opacity="0.6"/>
<circle cx="307.6" cy="381.6" r="3.0" fill="#bfffff" fill-opacity="0.6"/>
<circle cx="322.0" cy="421.5" r="3.0" fill="#bfffff" fill-opacity="0.6"/>
<circle cx="184.5" cy="275.8" r="3.0" fill="#bfffff" fill-opacity="0.6"/>
<circle cx="151.8" cy="302.9" r="3.0" fill="#bfffff" fill-opacity="0.6"/>
<circle cx="119.0" cy="330.0" r="3.0" fill="#bfffff" fill-opacity="0.6"/>
<circle cx="86.3" cy="357.1" r="3.0" fill="#bfffff" fill-opacity="0.6"/>
<circle cx="176.8" cy="178.3" r="3.0" fill="#bfffff" fill-opacity="0.6"/>
<circle cx="140.3" cy="156.7" r="3.0" fill="#bfffff" fill-opacity="0.6"/>
<circle cx="103.7" cy="135.1" r="3.0" fill="#bfffff" fill-opacity="0.6"/>
<circle cx="67.1" cy="113.4" r="3.0" fill="#bfffff" fill-opacity="0.6"/>
<circle cx="356.3" cy="221.6" r="3.0" fill="#82ffeb" fill-opacity="0.6"/>
<circle cx="398.8" cy="221.6" r="3.0" fill="#82ffeb" fill-opacity="0.6"/>
<circle cx="441.3" cy="221.6" r="3.0" fill="#82ffeb" fill-opacity="0.6"/>
<circle cx="223.6" cy="324.5" r="3.0" fill="#82ffeb" fill-opacity="0.6"/>
<circle cx="213.0" cy="365.7" r="3.0" fill="#82ffeb" fill-opacity="0.6"/>
<circle cx="202.4" cy="406.8" r="3.0" fill="#82ffeb" fill-opacity="0.6"/>
<circle cx="156.9" cy="170.4" r="3.0" fill="#82ffeb" fill-opacity="0.6"/>
<circle cx="119.6" cy="149.9" r="3.0" fill="#82ffeb" fill-opacity="0.6"/>
<circle cx="82.4" cy="129.5" r="3.0" fill="#82ffeb" fill-opacity="0.6"/>
<line x1="250.0" y1="221.6" x2="443.1" y2="221.6" stroke="#3223153" stroke-width="2.57" opacity="0.31"/>
<line x1="250.0" y1="221.6" x2="396.5" y2="347.4" stroke="#3d29148" stroke-width="2.57" opacity="0.33"/>
<line x1="250.0" y1="221.6" x2="279.2" y2="412.5" stroke="#492f13c" stroke-width="2.57" opacity="0.35"/>
<line x1="250.0" y1="221.6" x2="147.8" y2="385.5" stroke="#5536130" stroke-width="2.57" opacity="0.38"/>
<line x1="250.0" y1="221.6" x2="65.7" y2="279.3" stroke="#613d124" stroke-width="2.57" opacity="0.40"/>
<line x1="250.0" y1="221.6" x2="72.6" y2="145.4" stroke="#6d44118" stroke-width="2.57" opacity="0.42"/>
<line x1="250.0" y1="221.6" x2="165.0" y2="48.2" stroke="#794a10c" stroke-width="2.57" opacity="0.45"/>
<line x1="250.0" y1="221.6" x2="298.5" y2="34.7" stroke="#8551100" stroke-width="2.57" opacity="0.47"/>
<line x1="250.0" y1="221.6" x2="408.6" y2="111.4" stroke="#9158f4" stroke-width="2.57" opacity="0.49"/>
<line x1="250.0" y1="221.6" x2="442.1" y2="241.3" stroke="#9d5ee8" stroke-width="2.57" opacity="0.51"/>
<line x1="250.0" y1="221.6" x2="382.9" y2="361.7" stroke="#a965dc" stroke-width="2.57" opacity="0.54"/>
<line x1="250.0" y1="221.6" x2="259.6" y2="414.5" stroke="#b56cd0" stroke-width="2.57" opacity="0.56"/>
<circle cx="420.0" cy="221.6" r="3.0" fill="#86f5ff" fill-opacity="0.6"/>
<circle cx="462.5" cy="221.6" r="3.0" fill="#86f5ff" fill-opacity="0.6"/>
<circle cx="80.7" cy="237.2" r="3.0" fill="#86f5ff" fill-opacity="0.6"/>
<circle cx="38.4" cy="241.0" r="3.0" fill="#86f5ff" fill-opacity="0.6"/>
<circle cx="417.2" cy="190.6" r="3.0" fill="#86f5ff" fill-opacity="0.6"/>
<circle cx="459.0" cy="182.9" r="3.0" fill="#86f5ff" fill-opacity="0.6"/>
<circle cx="292.5" cy="221.6" r="3.0" fill="#b4edff" fill-opacity="0.6"/>
<circle cx="335.0" cy="221.6" r="3.0" fill="#b4edff" fill-opacity="0.6"/>
<circle cx="377.5" cy="221.6" r="3.0" fill="#b4edff" fill-opacity="0.6"/>
<circle cx="420.0" cy="221.6" r="3.0" fill="#b4edff" fill-opacity="0.6"/>
<circle cx="462.5" cy="221.6" r="3.0" fill="#b4edff" fill-opacity="0.6"/>
<circle cx="266.7" cy="260.7" r="3.0" fill="#b4edff" fill-opacity="0.6"/>
<circle cx="283.4" cy="299.8" r="3.0" fill="#b4edff" fill-opacity="0.6"/>
<circle cx="300.0" cy="338.9" r="3.0" fill="#b4edff" fill-opacity="0.6"/>
<circle cx="316.7" cy="378.0" r="3.0" fill="#b4edff" fill-opacity="0.6"/>
<circle cx="333.4" cy="417.1" r="3.0" fill="#b4edff" fill-opacity="0.6"/>
<circle cx="220.6" cy="252.3" r="3.0" fill="#b4edff" fill-opacity="0.6"/>
<circle cx="191.2" cy="283.0" r="3.0" fill="#b4edff" fill-opacity="0.6"/>
<circle cx="161.7" cy="313.6" r="3.0" fill="#b4edff" fill-opacity="0.6"/>
<circle cx="132.3" cy="344.3" r="3.0" fill="#b4edff" fill-opacity="0.6"/>
<circle cx="102.9" cy="375.0" r="3.0" fill="#b4edff" fill-opacity="0.6"/>
<circle cx="210.2" cy="206.6" r="3.0" fill="#b4edff" fill-opacity="0.6"/>
<circle cx="170.5" cy="191.6" r="3.0" fill="#b4edff" fill-opacity="0.6"/>
<circle cx="130.7" cy="176.5" r="3.0" fill="#b4edff" fill-opacity="0.6"/>
<circle cx="91.0" cy="161.5" r="3.0" fill="#b4edff" fill-opacity="0.6"/>
<circle cx="51.2" cy="146.5" r="3.0" fill="#b4edff" fill-opacity="0.6"/>
<circle cx="248.2" cy="179.1" r="3.0" fill="#b4edff" fill-opacity="0.6"/>
<circle cx="246.4" cy="136.7" r="3.0" fill="#b4edff" fill-opacity="0.6"/>
<circle cx="244.7" cy="94.2" r="3.0" fill="#b4edff" fill-opacity="0.6"/>
<circle cx="242.9" cy="51.7" r="3.0" fill="#b4edff" fill-opacity="0.6"/>
<circle cx="241.1" cy="9.3" r="3.0" fill="#b4edff" fill-opacity="0.6"/>
<circle cx="288.4" cy="203.3" r="3.0" fill="#b4edff" fill-opacity="0.6"/>
<circle cx="326.7" cy="185.0" r="3.0" fill="#b4edff" fill-opacity="0.6"/>
<circle cx="365.1" cy="166.7" r="3.0" fill="#b4edff" fill-opacity="0.6"/>
<circle cx="403.4" cy="148.4" r="3.0" fill="#b4edff" fill-opacity="0.6"/>
<circle cx="441.8" cy="130.1" r="3.0" fill="#b4edff" fill-opacity="0.6"/>
<circle cx="250.0" cy="221.6" r="233.8" fill="#e7-1f9" fill-opacity="0.20" stroke="#e7-1f9" stroke-width="1.5"/>
<circle cx="250.0" cy="221.6" r="212.5" fill="#d50610a" fill-opacity="0.19" stroke="#d50610a" stroke-width="1.5"/>
<circle cx="250.0" cy="221.6" r="191.3" fill="#c40e119" fill-opacity="0.19" stroke="#c40e119" stroke-width="1.5"/>
<circle cx="250.0" cy="221.6" r="170.0" fill="#b315127" fill-opacity="0.18" stroke="#b315127" stroke-width="1.5"/>
<circle cx="250.0" cy="221.6" r="148.8" fill="#a21d130" fill-opacity="0.17" stroke="#a21d130" stroke-width="1.5"/>
<circle cx="250.0" cy="221.6" r="127.5" fill="#9125135" fill-opacity="0.17" stroke="#9125135" stroke-width="1.5"/>
<circle cx="250.0" cy="221.6" r="106.3" fill="#7f2d135" fill-opacity="0.16" stroke="#7f2d135" stroke-width="1.5"/>
<circle cx="250.0" cy="221.6" r="85.0" fill="#6e35130" fill-opacity="0.16" stroke="#6e35130" stroke-width="1.5"/>
<circle cx="250.0" cy="221.6" r="63.8" fill="#5d3d127" fill-opacity="0.15" stroke="#5d3d127" stroke-width="1.5"/>
<circle cx="250.0" cy="221.6" r="42.5" fill="#4c44119" fill-opacity="0.14" stroke="#4c44119" stroke-width="1.5"/>
<circle cx="250.0" cy="221.6" r="21.3" fill="#3b4c10a" fill-opacity="0.14" stroke="#3b4c10a" stroke-width="1.5"/>
<circle cx="250.0" cy="221.6" r="233.8" fill="#f069d4" fill-opacity="0.21" stroke="#f069d4" stroke-width="1.5"/>
<circle cx="250.0" cy="221.6" r="212.5" fill="#de75e1" fill-opacity="0.21" stroke="#de75e1" stroke-width="1.5"/>
<circle cx="250.0" cy="221.6" r="191.3" fill="#cc81ed" fill-opacity="0.20" stroke="#cc81ed" stroke-width="1.5"/>
<circle cx="250.0" cy="221.6" r="170.0" fill="#ba8df7" fill-opacity="0.20" stroke="#ba8df7" stroke-width="1.5"/>
<circle cx="250.0" cy="221.6" r="148.8" fill="#a898fe" fill-opacity="0.20" stroke="#a898fe" stroke-width="1.5"/>
<circle cx="250.0" cy="221.6" r="127.5" fill="#96a4102" fill-opacity="0.19" stroke="#96a4102" stroke-width="1.5"/>
<circle cx="250.0" cy="221.6" r="106.3" fill="#84b0102" fill-opacity="0.19" stroke="#84b0102" stroke-width="1.5"/>
<circle cx="250.0" cy="221.6" r="85.0" fill="#72bbfe" fill-opacity="0.18" stroke="#72bbfe" stroke-width="1.5"/>
<circle cx="250.0" cy="221.6" r="63.8" fill="#60c7f7" fill-opacity="0.18" stroke="#60c7f7" stroke-width="1.5"/>
<circle cx="250.0" cy="221.6" r="42.5" fill="#4ed3ed" fill-opacity="0.18" stroke="#4ed3ed" stroke-width="1.5"/>
<circle cx="250.0" cy="221.6" r="21.3" fill="#3cdfe1" fill-opacity="0.17" stroke="#3cdfe1" stroke-width="1.5"/>
<circle cx="250.0" cy="221.6" r="233.8" fill="#dd2bd7" fill-opacity="0.27" stroke="#dd2bd7" stroke-width="1.5"/>
<circle cx="250.0" cy="221.6" r="212.5" fill="#cb31ec" fill-opacity="0.27" stroke="#cb31ec" stroke-width="1.5"/>
<circle cx="250.0" cy="221.6" r="191.3" fill="#ba37ff" fill-opacity="0.26" stroke="#ba37ff" stroke-width="1.5"/>
<circle cx="250.0" cy="221.6" r="170.0" fill="#a83c10f" fill-opacity="0.26" stroke="#a83c10f" stroke-width="1.5"/>
<circle cx="250.0" cy="221.6" r="148.8" fill="#974211b" fill-opacity="0.26" stroke="#974211b" stroke-width="1.5"/>
<circle cx="250.0" cy="221.6" r="127.5" fill="#8547121" fill-opacity="0.25" stroke="#8547121" stroke-width="1.5"/>
<circle cx="250.0" cy="221.6" r="106.3" fill="#744d121" fill-opacity="0.25" stroke="#744d121" stroke-width="1.5"/>
<circle cx="250.0" cy="221.6" r="85.0" fill="#625311b" fill-opacity="0.24" stroke="#625311b" stroke-width="1.5"/>
<circle cx="250.0" cy="221.6" r="63.8" fill="#515810f" fill-opacity="0.24" stroke="#515810f" stroke-width="1.5"/>
<circle cx="250.0" cy="221.6" r="42.5" fill="#3f5eff" fill-opacity="0.24" stroke="#3f5eff" stroke-width="1.5"/>
<circle cx="250.0" cy="221.6" r="21.3" fill="#2e64ec" fill-opacity="0.23" stroke="#2e64ec" stroke-width="1.5"/>
<circle cx="250.0" cy="221.6" r="233.8" fill="#e530cd" fill-opacity="0.20" stroke="#e530cd" stroke-width="1.5"/>
<circle cx="250.0" cy="221.6" r="212.5" fill="#d239e2" fill-opacity="0.20" stroke="#d239e2" stroke-width="1.5"/>
<circle cx="250.0" cy="221.6" r="191.3" fill="#c042f5" fill-opacity="0.19" stroke="#c042f5" stroke-width="1.5"/>
<circle cx="250.0" cy="221.6" r="170.0" fill="#ae4b105" fill-opacity="0.19" stroke="#ae4b105" stroke-width="1.5"/>
<circle cx="250.0" cy="221.6" r="148.8" fill="#9c54111" fill-opacity="0.18" stroke="#9c54111" stroke-width="1.5"/>
<circle cx="250.0" cy="221.6" r="127.5" fill="#8a5d117" fill-opacity="0.18" stroke="#8a5d117" stroke-width="1.5"/>
<circle cx="250.0" cy="221.6" r="106.3" fill="#7866117" fill-opacity="0.17" stroke="#7866117" stroke-width="1.5"/>
<circle cx="250.0" cy="221.6" r="85.0" fill="#666f111" fill-opacity="0.17" stroke="#666f111" stroke-width="1.5"/>
<circle cx="250.0" cy="221.6" r="63.8" fill="#5478105" fill-opacity="0.16" stroke="#5478105" stroke-width="1.5"/>
<circle cx="250.0" cy="221.6" r="42.5" fill="#4281f5" fill-opacity="0.16" stroke="#4281f5" stroke-width="1.5"/>
<circle cx="250.0" cy="221.6" r="21.3" fill="#308ae2" fill-opacity="0.15" stroke="#308ae2" stroke-width="1.5"/>
<circle cx="335.0" cy="221.6" r="3.0" fill="#d1e4d3" fill-opacity="0.6"/>
<circle cx="398.8" cy="221.6" r="3.0" fill="#d1e4d3" fill-opacity="0.6"/>
<circle cx="462.5" cy="221.6" r="3.0" fill="#d1e4d3" fill-opacity="0.6"/>
<circle cx="250.0" cy="306.6" r="3.0" fill="#d1e4d3" fill-opacity="0.6"/>
<circle cx="250.0" cy="370.4" r="3.0" fill="#d1e4d3" fill-opacity="0.6"/>
<circle cx="250.0" cy="434.1" r="3.0" fill="#d1e4d3" fill-opacity="0.6"/>
<circle cx="165.0" cy="221.6" r="3.0" fill="#d1e4d3" fill-opacity="0.6"/>
<circle cx="101.2" cy="221.6" r="3.0" fill="#d1e4d3" fill-opacity="0.6"/>
<circle cx="37.5" cy="221.6" r="3.0" fill="#d1e4d3" fill-opacity="0.6"/>
<circle cx="250.0" cy="136.6" r="3.0" fill="#d1e4d3" fill-opacity="0.6"/>
<circle cx="250.0" cy="72.8" r="3.0" fill="#d1e4d3" fill-opacity="0.6"/>
<circle cx="250.0" cy="9.1" r="3.0" fill="#d1e4d3" fill-opacity="0.6"/>
<circle cx="313.8" cy="221.6" r="3.0" fill="#a8ffc0" fill-opacity="0.6"/>
<circle cx="356.3" cy="221.6" r="3.0" fill="#a8ffc0" fill-opacity="0.6"/>
<circle cx="398.8" cy="221.6" r="3.0" fill="#a8ffc0" fill-opacity="0.6"/>
<circle cx="441.3" cy="221.6" r="3.0" fill="#a8ffc0" fill-opacity="0.6"/>
<circle cx="237.1" cy="284.0" r="3.0" fill="#a8ffc0" fill-opacity="0.6"/>
<circle cx="228.5" cy="325.6" r="3.0" fill="#a8ffc0" fill-opacity="0.6"/>
<circle cx="219.8" cy="367.3" r="3.0" fill="#a8ffc0" fill-opacity="0.6"/>
<circle cx="211.2" cy="408.9" r="3.0" fill="#a8ffc0" fill-opacity="0.6"/>
<circle cx="191.5" cy="196.3" r="3.0" fill="#a8ffc0" fill-opacity="0.6"/>
<circle cx="152.5" cy="179.4" r="3.0" fill="#a8ffc0" fill-opacity="0.6"/>
<circle cx="113.5" cy="162.5" r="3.0" fill="#a8ffc0" fill-opacity="0.6"/>
<circle cx="74.5" cy="145.6" r="3.0" fill="#a8ffc0" fill-opacity="0.6"/>
<circle cx="286.7" cy="169.4" r="3.0" fill="#a8ffc0" fill-opacity="0.6"/>
<circle cx="311.1" cy="134.7" r="3.0" fill="#a8ffc0" fill-opacity="0.6"/>
<circle cx="335.5" cy="99.9" r="3.0" fill="#a8ffc0" fill-opacity="0.6"/>
<circle cx="360.0" cy="65.1" r="3.0" fill="#a8ffc0" fill-opacity="0.6"/>
<circle cx="356.3" cy="221.6" r="3.0" fill="#adedd8" fill-opacity="0.6"/>
<circle cx="398.8" cy="221.6" r="3.0" fill="#adedd8" fill-opacity="0.6"/>
<circle cx="441.3" cy="221.6" r="3.0" fill="#adedd8" fill-opacity="0.6"/>
<circle cx="262.8" cy="327.1" r="3.0" fill="#adedd8" fill-opacity="0.6"/>
<circle cx="267.9" cy="369.3" r="3.0" fill="#adedd8" fill-opacity="0.6"/>
<circle cx="273.0" cy="411.5" r="3.0" fill="#adedd8" fill-opacity="0.6"/>
<circle cx="146.8" cy="246.9" r="3.0" fill="#adedd8" fill-opacity="0.6"/>
<circle cx="105.5" cy="257.1" r="3.0" fill="#adedd8" fill-opacity="0.6"/>
<circle cx="64.3" cy="267.2" r="3.0" fill="#adedd8" fill-opacity="0.6"/>
<circle cx="212.4" cy="122.2" r="3.0" fill="#adedd8" fill-opacity="0.6"/>
<circle cx="197.4" cy="82.4" r="3.0" fill="#adedd8" fill-opacity="0.6"/>
<circle cx="182.4" cy="42.7" r="3.0" fill="#adedd8" fill-opacity="0.6"/>
<circle cx="344.2" cy="172.4" r="3.0" fill="#adedd8" fill-opacity="0.6"/>
<circle cx="381.8" cy="152.7" r="3.0" fill="#adedd8" fill-opacity="0.6"/>
<circle cx="419.5" cy="133.0" r="3.0" fill="#adedd8" fill-opacity="0.6"/>
<circle cx="310.2" cy="309.2" r="3.0" fill="#adedd8" fill-opacity="0.6"/>
<circle cx="334.3" cy="344.2" r="3.0" fill="#adedd8" fill-opacity="0.6"/>
<circle cx="358.3" cy="379.2" r="3.0" fill="#adedd8" fill-opacity="0.6"/>
<circle cx="292.5" cy="221.6" r="3.0" fill="#d7e6f7" fill-opacity="0.6"/>
<circle cx="335.0" cy="221.6" r="3.0" fill="#d7e6f7" fill-opacity="0.6"/>
<circle cx="377.5" cy="221.6" r="3.0" fill="#d7e6f7" fill-opacity="0.6"/>
<circle cx="420.0" cy="221.6" r="3.0" fill="#d7e6f7" fill-opacity="0.6"/>
<circle cx="462.5" cy="221.6" r="3.0" fill="#d7e6f7" fill-opacity="0.6"/>
<circle cx="269.3" cy="259.5" r="3.0" fill="#d7e6f7" fill-opacity="0.6"/>
<circle cx="288.6" cy="297.3" r="3.0" fill="#d7e6f7" fill-opacity="0.6"/>
<circle cx="307.9" cy="335.2" r="3.0" fill="#d7e6f7" fill-opacity="0.6"/>
<circle cx="327.2" cy="373.1" r="3.0" fill="#d7e6f7" fill-opacity="0.6"/>
<circle cx="346.5" cy="410.9" r="3.0" fill="#d7e6f7" fill-opacity="0.6"/>
<circle cx="225.0" cy="256.0" r="3.0" fill="#d7e6f7" fill-opacity="0.6"/>
<circle cx="200.0" cy="290.4" r="3.0" fill="#d7e6f7" fill-opacity="0.6"/>
<circle cx="175.1" cy="324.8" r="3.0" fill="#d7e6f7" fill-opacity="0.6"/>
<circle cx="150.1" cy="359.1" r="3.0" fill="#d7e6f7" fill-opacity="0.6"/>
<circle cx="125.1" cy="393.5" r="3.0" fill="#d7e6f7" fill-opacity="0.6"/>
<circle cx="208.0" cy="215.0" r="3.0" fill="#d7e6f7" fill-opacity="0.6"/>
<circle cx="166.0" cy="208.3" r="3.0" fill="#d7e6f7" fill-opacity="0.6"/>
<circle cx="124.1" cy="201.7" r="3.0" fill="#d7e6f7" fill-opacity="0.6"/>
<circle cx="82.1" cy="195.0" r="3.0" fill="#d7e6f7" fill-opacity="0.6"/>
<circle cx="40.1" cy="188.4" r="3.0" fill="#d7e6f7" fill-opacity="0.6"/>
<circle cx="236.9" cy="181.2" r="3.0" fill="#d7e6f7" fill-opacity="0.6"/>
<circle cx="223.7" cy="140.8" r="3.0" fill="#d7e6f7" fill-opacity="0.6"/>
<circle cx="210.6" cy="100.3" r="3.0" fill="#d7e6f7" fill-opacity="0.6"/>
<circle cx="197.5" cy="59.9" r="3.0" fill="#d7e6f7" fill-opacity="0.6"/>
<circle cx="184.3" cy="19.5" r="3.0" fill="#d7e6f7" fill-opacity="0.6"/>
<circle cx="280.1" cy="191.5" r="3.0" fill="#d7e6f7" fill-opacity="0.6"/>
<circle cx="310.1" cy="161.5" r="3.0" fill="#d7e6f7" fill-opacity="0.6"/>
<circle cx="340.2" cy="131.4" r="3.0" fill="#d7e6f7" fill-opacity="0.6"/>
<circle cx="370.2" cy="101.4" r="3.0" fill="#d7e6f7" fill-opacity="0.6"/>
<circle cx="400.3" cy="71.3" r="3.0" fill="#d7e6f7" fill-opacity="0.6"/>
<circle cx="250.0" cy="221.6" r="233.8" fill="#15806e8" fill-opacity="0.13" stroke="#15806e8" stroke-width="1.5"/>
<circle cx="250.0" cy="221.6" r="212.5" fill="#13b0cf8" fill-opacity="0.13" stroke="#13b0cf8" stroke-width="1.5"/>
<circle cx="250.0" cy="221.6" r="191.3" fill="#11e11107" fill-opacity="0.12" stroke="#11e11107" stroke-width="1.5"/>
<circle cx="250.0" cy="221.6" r="170.0" fill="#10117114" fill-opacity="0.12" stroke="#10117114" stroke-width="1.5"/>
<circle cx="250.0" cy="221.6" r="148.8" fill="#e41c11d" fill-opacity="0.11" stroke="#e41c11d" stroke-width="1.5"/>
<circle cx="250.0" cy="221.6" r="127.5" fill="#c721122" fill-opacity="0.11" stroke="#c721122" stroke-width="1.5"/>
<circle cx="250.0" cy="221.6" r="106.3" fill="#aa27122" fill-opacity="0.10" stroke="#aa27122" stroke-width="1.5"/>
<circle cx="250.0" cy="221.6" r="85.0" fill="#8d2c11d" fill-opacity="0.10" stroke="#8d2c11d" stroke-width="1.5"/>
<circle cx="250.0" cy="221.6" r="63.8" fill="#7031114" fill-opacity="0.09" stroke="#7031114" stroke-width="1.5"/>
<circle cx="250.0" cy="221.6" r="42.5" fill="#5337107" fill-opacity="0.09" stroke="#5337107" stroke-width="1.5"/>
<circle cx="250.0" cy="221.6" r="21.3" fill="#363cf8" fill-opacity="0.08" stroke="#363cf8" stroke-width="1.5"/>
<line x1="250.0" y1="221.6" x2="443.1" y2="221.6" stroke="#2b30112" stroke-width="2.57" opacity="0.26"/>
<line x1="250.0" y1="221.6" x2="413.3" y2="324.6" stroke="#3a37103" stroke-width="2.57" opacity="0.29"/>
<line x1="250.0" y1="221.6" x2="333.1" y2="395.9" stroke="#493ef4" stroke-width="2.57" opacity="0.32"/>
<line x1="250.0" y1="221.6" x2="227.3" y2="413.4" stroke="#5846e5" stroke-width="2.57" opacity="0.35"/>
<line x1="250.0" y1="221.6" x2="128.5" y2="371.7" stroke="#674dd6" stroke-width="2.57" opacity="0.38"/>
<line x1="250.0" y1="221.6" x2="67.1" y2="283.7" stroke="#7654c7" stroke-width="2.57" opacity="0.41"/>
<line x1="250.0" y1="221.6" x2="62.2" y2="176.5" stroke="#855cb8" stroke-width="2.57" opacity="0.45"/>
<line x1="250.0" y1="221.6" x2="115.2" y2="83.3" stroke="#9463a9" stroke-width="2.57" opacity="0.48"/>
<line x1="250.0" y1="221.6" x2="209.9" y2="32.7" stroke="#a36a9a" stroke-width="2.57" opacity="0.51"/>
<line x1="250.0" y1="221.6" x2="316.8" y2="40.4" stroke="#b2728b" stroke-width="2.57" opacity="0.54"/>
<line x1="250.0" y1="221.6" x2="403.2" y2="104.0" stroke="#c1797c" stroke-width="2.57" opacity="0.57"/>
<line x1="250.0" y1="221.6" x2="442.3" y2="203.9" stroke="#d0806d" stroke-width="2.57" opacity="0.60"/>
<circle cx="313.8" cy="221.6" r="3.0" fill="#aeda9f" fill-opacity="0.6"/>
<circle cx="356.3" cy="221.6" r="3.0" fill="#aeda9f" fill-opacity="0.6"/>
<circle cx="398.8" cy="221.6" r="3.0" fill="#aeda9f" fill-opacity="0.6"/>
<circle cx="441.3" cy="221.6" r="3.0" fill="#aeda9f" fill-opacity="0.6"/>
<circle cx="258.7" cy="284.8" r="3.0" fill="#aeda9f" fill-opacity="0.6"/>
<circle cx="264.4" cy="326.9" r="3.0" fill="#aeda9f" fill-opacity="0.6"/>
<circle cx="270.2" cy="369.0" r="3.0" fill="#aeda9f" fill-opacity="0.6"/>
<circle cx="276.0" cy="411.1" r="3.0" fill="#aeda9f" fill-opacity="0.6"/>
<circle cx="188.6" cy="238.7" r="3.0" fill="#aeda9f" fill-opacity="0.6"/>
<circle cx="147.7" cy="250.2" r="3.0" fill="#aeda9f" fill-opacity="0.6"/>
<circle cx="106.7" cy="261.6" r="3.0" fill="#aeda9f" fill-opacity="0.6"/>
<circle cx="65.8" cy="273.0" r="3.0" fill="#aeda9f" fill-opacity="0.6"/>
<circle cx="224.7" cy="163.1" r="3.0" fill="#aeda9f" fill-opacity="0.6"/>
<circle cx="207.8" cy="124.1" r="3.0" fill="#aeda9f" fill-opacity="0.6"/>
<circle cx="190.9" cy="85.1" r="3.0" fill="#aeda9f" fill-opacity="0.6"/>
<circle cx="174.0" cy="46.1" r="3.0" fill="#aeda9f" fill-opacity="0.6"/>
<circle cx="304.5" cy="188.6" r="3.0" fill="#aeda9f" fill-opacity="0.6"/>
<circle cx="340.9" cy="166.6" r="3.0" fill="#aeda9f" fill-opacity="0.6"/>
<circle cx="377.2" cy="144.5" r="3.0" fill="#aeda9f" fill-opacity="0.6"/>
<circle cx="413.6" cy="122.5" r="3.0" fill="#aeda9f" fill-opacity="0.6"/>
<circle cx="290.1" cy="271.1" r="3.0" fill="#aeda9f" fill-opacity="0.6"/>
<circle cx="316.9" cy="304.2" r="3.0" fill="#aeda9f" fill-opacity="0.6"/>
<circle cx="343.6" cy="337.2" r="3.0" fill="#aeda9f" fill-opacity="0.6"/>
<circle cx="370.4" cy="370.2" r="3.0" fill="#aeda9f" fill-opacity="0.6"/>
<circle cx="250.0" cy="221.6" r="8.0" fill="#a9c0ab" fill-opacity="0.9"/>
</svg>