<svg xmlns="http://www.w3.org/2000/svg" width="500" height="500" viewBox="0 0 500 500">
<rect width="500" height="500" fill="#00233f"/>
<circle cx="321.7" cy="250.0" r="3.0" fill="#a2fff6" fill-opacity="0.6"/>
<circle cx="393.5" cy="250.0" r="3.0" fill="#a2fff6" fill-opacity="0.6"/>
<circle cx="465.2" cy="250.0" r="3.0" fill="#a2fff6" fill-opacity="0.6"/>
<circle cx="285.9" cy="312.1" r="3.0" fill="#a2fff6" fill-opacity="0.6"/>
<circle cx="321.7" cy="374.3" r="3.0" fill="#a2fff6" fill-opacity="0.6"/>
<circle cx="357.6" cy="436.4" r="3.0" fill="#a2fff6" fill-opacity="0.6"/>
<circle cx="214.1" cy="312.1" r="3.0" fill="#a2fff6" fill-opacity="0.6"/>
<circle cx="178.3" cy="374.3" r="3.0" fill="#a2fff6" fill-opacity="0.6"/>
<circle cx="142.4" cy="436.4" r="3.0" fill="#a2fff6" fill-opacity="0.6"/>
<circle cx="178.3" cy="250.0" r="3.0" fill="#a2fff6" fill-opacity="0.6"/>
<circle cx="106.5" cy="250.0" r="3.0" fill="#a2fff6" fill-opacity="0.6"/>
<circle cx="34.8" cy="250.0" r="3.0" fill="#a2fff6" fill-opacity="0.6"/>
<circle cx="214.1" cy="187.9" r="3.0" fill="#a2fff6" fill-opacity="0.6"/>
<circle cx="178.3" cy="125.7" r="3.0" fill="#a2fff6" fill-opacity="0.6"/>
<circle cx="142.4" cy="63.6" r="3.0" fill="#a2fff6" fill-opacity="0.6"/>
<circle cx="285.9" cy="187.9" r="3.0" fill="#a2fff6" fill-opacity="0.6"/>
<circle cx="321.7" cy="125.7" r="3.0" fill="#a2fff6" fill-opacity="0.6"/>
<circle cx="357.6" cy="63.6" r="3.0" fill="#a2fff6" fill-opacity="0.6"/>
<circle cx="297.8" cy="250.0" r="3.0" fill="#a0eaff" fill-opacity="0.6"/>
<circle cx="369.6" cy="250.0" r="3.0" fill="#a0eaff" fill-opacity="0.6"/>
<circle cx="441.3" cy="250.0" r="3.0" fill="#a0eaff" fill-opacity="0.6"/>
<circle cx="275.1" cy="290.7" r="3.0" fill="#a0eaff" fill-opacity="0.6"/>
<circle cx="312.7" cy="351.8" r="3.0" fill="#a0eaff" fill-opacity="0.6"/>
<circle cx="350.2" cy="412.9" r="3.0" fill="#a0eaff" fill-opacity="0.6"/>
<circle cx="228.4" cy="292.7" r="3.0" fill="#a0eaff" fill-opacity="0.6"/>
<circle cx="196.1" cy="356.7" r="3.0" fill="#a0eaff" fill-opacity="0.6"/>
<circle cx="163.7" cy="420.8" r="3.0" fill="#a0eaff" fill-opacity="0.6"/>
<circle cx="202.3" cy="254.0" r="3.0" fill="#a0eaff" fill-opacity="0.6"/>
<circle cx="130.9" cy="260.0" r="3.0" fill="#a0eaff" fill-opacity="0.6"/>
<circle cx="59.4" cy="266.0" r="3.0" fill="#a0eaff" fill-opacity="0.6"/>
<circle cx="221.6" cy="211.5" r="3.0" fill="#a0eaff" fill-opacity="0.6"/>
<circle cx="179.0" cy="153.8" r="3.0" fill="#a0eaff" fill-opacity="0.6"/>
<circle cx="136.5" cy="96.0" r="3.0" fill="#a0eaff" fill-opacity="0.6"/>
<circle cx="297.8" cy="250.0" r="3.0" fill="#c8ffff" fill-opacity="0.6"/>
<circle cx="345.7" cy="250.0" r="3.0" fill="#c8ffff" fill-opacity="0.6"/>
<circle cx="393.5" cy="250.0" r="3.0" fill="#c8ffff" fill-opacity="0.6"/>
<circle cx="441.3" cy="250.0" r="3.0" fill="#c8ffff" fill-opacity="0.6"/>
<circle cx="284.1" cy="283.6" r="3.0" fill="#c8ffff" fill-opacity="0.6"/>
<circle cx="318.1" cy="317.2" r="3.0" fill="#c8ffff" fill-opacity="0.6"/>
<circle cx="352.2" cy="350.7" r="3.0" fill="#c8ffff" fill-opacity="0.6"/>
<circle cx="386.2" cy="384.3" r="3.0" fill="#c8ffff" fill-opacity="0.6"/>
<circle cx="250.7" cy="297.8" r="3.0" fill="#c8ffff" fill-opacity="0.6"/>
<circle cx="251.3" cy="345.6" r="3.0" fill="#c8ffff" fill-opacity="0.6"/>
<circle cx="252.0" cy="393.5" r="3.0" fill="#c8ffff" fill-opacity="0.6"/>
<circle cx="252.7" cy="441.3" r="3.0" fill="#c8ffff" fill-opacity="0.6"/>
<circle cx="216.9" cy="284.5" r="3.0" fill="#c8ffff" fill-opacity="0.6"/>
<circle cx="183.8" cy="319.0" r="3.0" fill="#c8ffff" fill-opacity="0.6"/>
<circle cx="150.7" cy="353.6" r="3.0" fill="#c8ffff" fill-opacity="0.6"/>
<circle cx="117.6" cy="388.1" r="3.0" fill="#c8ffff" fill-opacity="0.6"/>
<circle cx="202.2" cy="251.3" r="3.0" fill="#c8ffff" fill-opacity="0.6"/>
<circle cx="154.4" cy="252.7" r="3.0" fill="#c8ffff" fill-opacity="0.6"/>
<circle cx="106.6" cy="254.0" r="3.0" fill="#c8ffff" fill-opacity="0.6"/>
<circle cx="58.8" cy="255.3" r="3.0" fill="#c8ffff" fill-opacity="0.6"/>
<circle cx="215.0" cy="217.4" r="3.0" fill="#c8ffff" fill-opacity="0.6"/>
<circle cx="180.0" cy="184.8" r="3.0" fill="#c8ffff" fill-opacity="0.6"/>
<circle cx="145.1" cy="152.1" r="3.0" fill="#c8ffff" fill-opacity="0.6"/>
<circle cx="110.1" cy="119.5" r="3.0" fill="#c8ffff" fill-opacity="0.6"/>
<circle cx="248.0" cy="202.2" r="3.0" fill="#c8ffff" fill-opacity="0.6"/>
<circle cx="246.0" cy="154.4" r="3.0" fill="#c8ffff" fill-opacity="0.6"/>
<circle cx="244.0" cy="106.6" r="3.0" fill="#c8ffff" fill-opacity="0.6"/>
<circle cx="242.0" cy="58.9" r="3.0" fill="#c8ffff" fill-opacity="0.6"/>
<circle cx="282.1" cy="214.6" r="3.0" fill="#c8ffff" fill-opacity="0.6"/>
<circle cx="314.3" cy="179.1" r="3.0" fill="#c8ffff" fill-opacity="0.6"/>
<circle cx="346.4" cy="143.7" r="3.0" fill="#c8ffff" fill-opacity="0.6"/>
<circle cx="378.5" cy="108.3" r="3.0" fill="#c8ffff" fill-opacity="0.6"/>
<circle cx="297.8" cy="247.3" r="3.0" fill="#c8ffff" fill-opacity="0.6"/>
<circle cx="345.5" cy="244.7" r="3.0" fill="#c8ffff" fill-opacity="0.6"/>
<circle cx="393.3" cy="242.0" r="3.0" fill="#c8ffff" fill-opacity="0.6"/>
<circle cx="441.0" cy="239.3" r="3.0" fill="#c8ffff" fill-opacity="0.6"/>
<circle cx="345.7" cy="250.0" r="3.0" fill="#c8ffff" fill-opacity="0.6"/>
<circle cx="393.5" cy="250.0" r="3.0" fill="#c8ffff" fill-opacity="0.6"/>
<circle cx="441.3" cy="250.0" r="3.0" fill="#c8ffff" fill-opacity="0.6"/>
<circle cx="294.3" cy="334.8" r="3.0" fill="#c8ffff" fill-opacity="0.6"/>
<circle cx="316.5" cy="377.2" r="3.0" fill="#c8ffff" fill-opacity="0.6"/>
<circle cx="338.6" cy="419.5" r="3.0" fill="#c8ffff" fill-opacity="0.6"/>
<circle cx="195.4" cy="328.5" r="3.0" fill="#c8ffff" fill-opacity="0.6"/>
<circle cx="168.1" cy="367.8" r="3.0" fill="#c8ffff" fill-opacity="0.6"/>
<circle cx="140.8" cy="407.1" r="3.0" fill="#c8ffff" fill-opacity="0.6"/>
<circle cx="155.1" cy="238.0" r="3.0" fill="#c8ffff" fill-opacity="0.6"/>
<circle cx="107.7" cy="232.0" r="3.0" fill="#c8ffff" fill-opacity="0.6"/>
<circle cx="60.2" cy="226.0" r="3.0" fill="#c8ffff" fill-opacity="0.6"/>
<circle cx="216.7" cy="160.3" r="3.0" fill="#c8ffff" fill-opacity="0.6"/>
<circle cx="200.0" cy="115.5" r="3.0" fill="#c8ffff" fill-opacity="0.6"/>
<circle cx="183.3" cy="70.7" r="3.0" fill="#c8ffff" fill-opacity="0.6"/>
<circle cx="369.6" cy="250.0" r="3.0" fill="#c8ffff" fill-opacity="0.6"/>
<circle cx="417.4" cy="250.0" r="3.0" fill="#c8ffff" fill-opacity="0.6"/>
<circle cx="465.2" cy="250.0" r="3.0" fill="#c8ffff" fill-opacity="0.6"/>
<circle cx="323.3" cy="344.5" r="3.0" fill="#c8ffff" fill-opacity="0.6"/>
<circle cx="352.6" cy="382.3" r="3.0" fill="#c8ffff" fill-opacity="0.6"/>
<circle cx="381.9" cy="420.1" r="3.0" fill="#c8ffff" fill-opacity="0.6"/>
<circle cx="220.3" cy="365.8" r="3.0" fill="#c8ffff" fill-opacity="0.6"/>
<circle cx="208.4" cy="412.1" r="3.0" fill="#c8ffff" fill-opacity="0.6"/>
<circle cx="196.5" cy="458.5" r="3.0" fill="#c8ffff" fill-opacity="0.6"/>
<circle cx="140.3" cy="297.5" r="3.0" fill="#c8ffff" fill-opacity="0.6"/>
<circle cx="96.4" cy="316.5" r="3.0" fill="#c8ffff" fill-opacity="0.6"/>
<circle cx="52.5" cy="335.5" r="3.0" fill="#c8ffff" fill-opacity="0.6"/>
<circle cx="145.2" cy="192.4" r="3.0" fill="#c8ffff" fill-opacity="0.6"/>
<circle cx="103.3" cy="169.4" r="3.0" fill="#c8ffff" fill-opacity="0.6"/>
<circle cx="61.4" cy="146.3" r="3.0" fill="#c8ffff" fill-opacity="0.6"/>
<circle cx="231.3" cy="131.9" r="3.0" fill="#c8ffff" fill-opacity="0.6"/>
<circle cx="223.8" cy="84.7" r="3.0" fill="#c8ffff" fill-opacity="0.6"/>
<circle cx="216.3" cy="37.4" r="3.0" fill="#c8ffff" fill-opacity="0.6"/>
<circle cx="321.7" cy="250.0" r="3.0" fill="#c8ffff" fill-opacity="0.6"/>
<circle cx="369.6" cy="250.0" r="3.0" fill="#c8ffff" fill-opacity="0.6"/>
<circle cx="417.4" cy="250.0" r="3.0" fill="#c8ffff" fill-opacity="0.6"/>
<circle cx="465.2" cy="250.0" r="3.0" fill="#c8ffff" fill-opacity="0.6"/>
<circle cx="303.1" cy="298.2" r="3.0" fill="#c8ffff" fill-opacity="0.6"/>
<circle cx="338.6" cy="330.3" r="3.0" fill="#c8ffff" fill-opacity="0.6"/>
<circle cx="374.0" cy="362.4" r="3.0" fill="#c8ffff" fill-opacity="0.6"/>
<circle cx="409.4" cy="394.6" r="3.0" fill="#c8ffff" fill-opacity="0.6"/>
<circle cx="257.0" cy="321.4" r="3.0" fill="#c8ffff" fill-opacity="0.6"/>
<circle cx="261.7" cy="369.0" r="3.0" fill="#c8ffff" fill-opacity="0.6"/>
<circle cx="266.3" cy="416.6" r="3.0" fill="#c8ffff" fill-opacity="0.6"/>
<circle cx="271.0" cy="464.2" r="3.0" fill="#c8ffff" fill-opacity="0.6"/>
<circle cx="207.2" cy="307.6" r="3.0" fill="#c8ffff" fill-opacity="0.6"/>
<circle cx="178.7" cy="346.0" r="3.0" fill="#c8ffff" fill-opacity="0.6"/>
<circle cx="150.2" cy="384.4" r="3.0" fill="#c8ffff" fill-opacity="0.6"/>
<circle cx="121.7" cy="422.8" r="3.0" fill="#c8ffff" fill-opacity="0.6"/>
<circle cx="179.6" cy="263.9" r="3.0" fill="#c8ffff" fill-opacity="0.6"/>
<circle cx="132.7" cy="273.2" r="3.0" fill="#c8ffff" fill-opacity="0.6"/>
<circle cx="85.8" cy="282.5" r="3.0" fill="#c8ffff" fill-opacity="0.6"/>
<circle cx="38.9" cy="291.8" r="3.0" fill="#c8ffff" fill-opacity="0.6"/>
<circle cx="188.5" cy="213.1" r="3.0" fill="#c8ffff" fill-opacity="0.6"/>
<circle cx="147.5" cy="188.4" r="3.0" fill="#c8ffff" fill-opacity="0.6"/>
<circle cx="106.5" cy="163.8" r="3.0" fill="#c8ffff" fill-opacity="0.6"/>
<circle cx="65.5" cy="139.2" r="3.0" fill="#c8ffff" fill-opacity="0.6"/>
<circle cx="229.3" cy="181.3" r="3.0" fill="#c8ffff" fill-opacity="0.6"/>
<circle cx="215.4" cy="135.5" r="3.0" fill="#c8ffff" fill-opacity="0.6"/>
<circle cx="201.6" cy="89.8" r="3.0" fill="#c8ffff" fill-opacity="0.6"/>
<circle cx="187.8" cy="44.0" r="3.0" fill="#c8ffff" fill-opacity="0.6"/>
<circle cx="280.8" cy="185.2" r="3.0" fill="#c8ffff" fill-opacity="0.6"/>
<circle cx="301.3" cy="142.0" r="3.0" fill="#c8ffff" fill-opacity="0.6"/>
<circle cx="321.8" cy="98.8" r="3.0" fill="#c8ffff" fill-opacity="0.6"/>
<circle cx="342.3" cy="55.6" r="3.0" fill="#c8ffff" fill-opacity="0.6"/>
<circle cx="316.3" cy="222.7" r="3.0" fill="#c8ffff" fill-opacity="0.6"/>
<circle cx="360.5" cy="204.4" r="3.0" fill="#c8ffff" fill-opacity="0.6"/>
<circle cx="404.8" cy="186.2" r="3.0" fill="#c8ffff" fill-opacity="0.6"/>
<circle cx="449.0" cy="168.0" r="3.0" fill="#c8ffff" fill-opacity="0.6"/>
<circle cx="250.0" cy="250.0" r="239.1" fill="#da3ccd" fill-opacity="0.20" stroke="#da3ccd" stroke-width="1.5"/>
<circle cx="250.0" cy="250.0" r="215.2" fill="#c746e4" fill-opacity="0.20" stroke="#c746e4" stroke-width="1.5"/>
<circle cx="250.0" cy="250.0" r="191.3" fill="#b450f9" fill-opacity="0.19" stroke="#b450f9" stroke-width="1.5"/>
<circle cx="250.0" cy="250.0" r="167.4" fill="#a15a109" fill-opacity="0.18" stroke="#a15a109" stroke-width="1.5"/>
<circle cx="250.0" cy="250.0" r="143.5" fill="#8e64114" fill-opacity="0.18" stroke="#8e64114" stroke-width="1.5"/>
<circle cx="250.0" cy="250.0" r="119.6" fill="#7c6e118" fill-opacity="0.17" stroke="#7c6e118" stroke-width="1.5"/>
<circle cx="250.0" cy="250.0" r="95.7" fill="#6978114" fill-opacity="0.17" stroke="#6978114" stroke-width="1.5"/>
<circle cx="250.0" cy="250.0" r="71.7" fill="#5682109" fill-opacity="0.16" stroke="#5682109" stroke-width="1.5"/>
<circle cx="250.0" cy="250.0" r="47.8" fill="#438cf9" fill-opacity="0.16" stroke="#438cf9" stroke-width="1.5"/>
<circle cx="250.0" cy="250.0" r="23.9" fill="#3096e4" fill-opacity="0.15" stroke="#3096e4" stroke-width="1.5"/>
<circle cx="250.0" cy="250.0" r="239.1" fill="#bc36ae" fill-opacity="0.25" stroke="#bc36ae" stroke-width="1.5"/>
<circle cx="250.0" cy="250.0" r="215.2" fill="#ac3ec0" fill-opacity="0.24" stroke="#ac3ec0" stroke-width="1.5"/>
<circle cx="250.0" cy="250.0" r="191.3" fill="#9d46d0" fill-opacity="0.24" stroke="#9d46d0" stroke-width="1.5"/>
<circle cx="250.0" cy="250.0" r="167.4" fill="#8e4edd" fill-opacity="0.23" stroke="#8e4edd" stroke-width="1.5"/>
<circle cx="250.0" cy="250.0" r="143.5" fill="#7f56e6" fill-opacity="0.23" stroke="#7f56e6" stroke-width="1.5"/>
<circle cx="250.0" cy="250.0" r="119.6" fill="#705fe9" fill-opacity="0.22" stroke="#705fe9" stroke-width="1.5"/>
<circle cx="250.0" cy="250.0" r="95.7" fill="#6067e6" fill-opacity="0.21" stroke="#6067e6" stroke-width="1.5"/>
<circle cx="250.0" cy="250.0" r="71.7" fill="#516fdd" fill-opacity="0.21" stroke="#516fdd" stroke-width="1.5"/>
<circle cx="250.0" cy="250.0" r="47.8" fill="#4277d0" fill-opacity="0.20" stroke="#4277d0" stroke-width="1.5"/>
<circle cx="250.0" cy="250.0" r="23.9" fill="#337fc0" fill-opacity="0.20" stroke="#337fc0" stroke-width="1.5"/>
<circle cx="250.0" cy="250.0" r="239.1" fill="#11414ae" fill-opacity="0.18" stroke="#11414ae" stroke-width="1.5"/>
<circle cx="250.0" cy="250.0" r="215.2" fill="#fc1cc8" fill-opacity="0.17" stroke="#fc1cc8" stroke-width="1.5"/>
<circle cx="250.0" cy="250.0" r="191.3" fill="#e424e1" fill-opacity="0.17" stroke="#e424e1" stroke-width="1.5"/>
<circle cx="250.0" cy="250.0" r="167.4" fill="#cc2cf4" fill-opacity="0.16" stroke="#cc2cf4" stroke-width="1.5"/>
<circle cx="250.0" cy="250.0" r="143.5" fill="#b434100" fill-opacity="0.16" stroke="#b434100" stroke-width="1.5"/>
<circle cx="250.0" cy="250.0" r="119.6" fill="#9d3c105" fill-opacity="0.15" stroke="#9d3c105" stroke-width="1.5"/>
<circle cx="250.0" cy="250.0" r="95.7" fill="#8544100" fill-opacity="0.14" stroke="#8544100" stroke-width="1.5"/>
<circle cx="250.0" cy="250.0" r="71.7" fill="#6d4df4" fill-opacity="0.14" stroke="#6d4df4" stroke-width="1.5"/>
<circle cx="250.0" cy="250.0" r="47.8" fill="#5555e1" fill-opacity="0.13" stroke="#5555e1" stroke-width="1.5"/>
<circle cx="250.0" cy="250.0" r="23.9" fill="#3d5dc8" fill-opacity="0.13" stroke="#3d5dc8" stroke-width="1.5"/>
<line x1="250.0" y1="250.0" x2="443.1" y2="250.0" stroke="#5028c8" stroke-width="2.0" opacity="0.30"/>
<line x1="250.0" y1="250.0" x2="431.5" y2="316.0" stroke="#5e2fba" stroke-width="2.0" opacity="0.32"/>
<line x1="250.0" y1="250.0" x2="397.9" y2="374.1" stroke="#6c36ac" stroke-width="2.0" opacity="0.34"/>
<line x1="250.0" y1="250.0" x2="346.6" y2="417.2" stroke="#7a3d9e" stroke-width="2.0" opacity="0.37"/>
<line x1="250.0" y1="250.0" x2="283.5" y2="440.2" stroke="#884490" stroke-width="2.0" opacity="0.39"/>
<line x1="250.0" y1="250.0" x2="216.5" y2="440.2" stroke="#964b82" stroke-width="2.0" opacity="0.41"/>
<line x1="250.0" y1="250.0" x2="153.4" y2="417.2" stroke="#a55273" stroke-width="2.0" opacity="0.43"/>
<line x1="250.0" y1="250.0" x2="102.1" y2="374.1" stroke="#b35965" stroke-width="2.0" opacity="0.46"/>
<line x1="250.0" y1="250.0" x2="68.5" y2="316.0" stroke="#c16057" stroke-width="2.0" opacity="0.48"/>
<line x1="250.0" y1="250.0" x2="56.9" y2="250.0" stroke="#cf6749" stroke-width="2.0" opacity="0.50"/>
<line x1="250.0" y1="250.0" x2="68.5" y2="184.0" stroke="#dd6e3b" stroke-width="2.0" opacity="0.52"/>
<line x1="250.0" y1="250.0" x2="102.1" y2="125.9" stroke="#eb752d" stroke-width="2.0" opacity="0.54"/>
<line x1="250.0" y1="250.0" x2="153.4" y2="82.8" stroke="#fa7d1e" stroke-width="2.0" opacity="0.57"/>
<line x1="250.0" y1="250.0" x2="216.5" y2="59.8" stroke="#ff8410" stroke-width="2.0" opacity="0.59"/>
<line x1="250.0" y1="250.0" x2="283.5" y2="59.8" stroke="#ff8b02" stroke-width="2.0" opacity="0.61"/>
<line x1="250.0" y1="250.0" x2="346.6" y2="82.8" stroke="#ff9200" stroke-width="2.0" opacity="0.63"/>
<line x1="250.0" y1="250.0" x2="397.9" y2="125.9" stroke="#ff9900" stroke-width="2.0" opacity="0.66"/>
<line x1="250.0" y1="250.0" x2="431.5" y2="184.0" stroke="#ffa000" stroke-width="2.0" opacity="0.68"/>
<circle cx="250.0" cy="250.0" r="8.0" fill="#dcdbf5" fill-opacity="0.9"/>
</svg>