<svg xmlns="http://www.w3.org/2000/svg" width="400" height="60">
<rect width="400" height="60" fill="#0d1117" rx="4"/>
<polyline points="5.0,45.2 13.0,50.7 20.9,55.0 28.9,23.8 36.8,5.0 44.8,37.8 52.8,11.5 60.7,16.7 68.7,25.8 76.6,23.8 84.6,48.3 92.6,14.0 100.5,46.4 108.5,34.2 116.4,17.6 124.4,47.4 132.3,25.2 140.3,19.1 148.3,26.8 156.2,18.7 164.2,50.8 172.1,37.1 180.1,37.3 188.1,41.6 196.0,36.2 204.0,39.0 211.9,42.1 219.9,39.1 227.9,44.7 235.8,27.8 243.8,35.7 251.7,35.9 259.7,25.7 267.7,43.6 275.6,30.1 283.6,37.1 291.5,39.8 299.5,39.7 307.4,36.5 315.4,27.9 323.4,20.4 331.3,48.7 339.3,17.9 347.2,28.7 355.2,16.8 363.2,51.4 371.1,33.0 379.1,17.4 387.0,50.0 395.0,39.5" fill="none" stroke="#58a6ff" stroke-width="1.5"/>
<circle cx="395.0" cy="39.5" r="2.5" fill="#58a6ff"/>
</svg>