<svg xmlns="http://www.w3.org/2000/svg" width="400" height="60">
<rect width="400" height="60" fill="#0d1117" rx="4"/>
<polyline points="5.0,14.5 13.0,55.0 20.9,50.9 28.9,32.9 36.8,39.9 44.8,34.9 52.8,24.0 60.7,26.9 68.7,17.5 76.6,20.6 84.6,6.8 92.6,12.8 100.5,16.4 108.5,13.5 116.4,15.9 124.4,18.7 132.3,8.7 140.3,16.0 148.3,11.7 156.2,18.6 164.2,11.3 172.1,11.2 180.1,18.5 188.1,7.5 196.0,14.2 204.0,22.2 211.9,5.0 219.9,11.4 227.9,5.7 235.8,13.4 243.8,6.8 251.7,6.9 259.7,14.2 267.7,9.7 275.6,18.2 283.6,21.8 291.5,7.4 299.5,9.7 307.4,7.3 315.4,15.0 323.4,7.3 331.3,8.7 339.3,16.4 347.2,9.8 355.2,17.7 363.2,13.1 371.1,12.5 379.1,9.2 387.0,6.0 395.0,13.2" fill="none" stroke="#58a6ff" stroke-width="1.5"/>
<circle cx="395.0" cy="13.2" r="2.5" fill="#58a6ff"/>
</svg>