<svg xmlns="http://www.w3.org/2000/svg" width="400" height="60">
<rect width="400" height="60" fill="#0d1117" rx="4"/>
<polyline points="5.0,39.9 13.0,29.4 20.9,29.6 28.9,32.9 36.8,28.8 44.8,30.9 52.8,33.3 60.7,31.0 68.7,35.3 76.6,22.4 84.6,28.4 92.6,28.6 100.5,20.8 108.5,34.5 116.4,24.1 124.4,29.5 132.3,31.5 140.3,31.5 148.3,29.0 156.2,22.5 164.2,16.8 172.1,38.3 180.1,14.8 188.1,23.0 196.0,14.0 204.0,40.4 211.9,26.3 219.9,14.4 227.9,39.3 235.8,31.3 243.8,20.3 251.7,45.9 259.7,5.0 267.7,31.9 275.6,15.7 283.6,40.3 291.5,8.2 299.5,10.0 307.4,29.3 315.4,42.1 323.4,34.0 331.3,55.0 339.3,11.9 347.2,28.6 355.2,21.9 363.2,47.8 371.1,49.4 379.1,21.6 387.0,10.2 395.0,36.6" fill="none" stroke="#58a6ff" stroke-width="1.5"/>
<circle cx="395.0" cy="36.6" r="2.5" fill="#58a6ff"/>
</svg>