<svg xmlns="http://www.w3.org/2000/svg" width="400" height="60">
<rect width="400" height="60" fill="#0d1117" rx="4"/>
<polyline points="5.0,5.3 13.0,23.8 20.9,45.2 28.9,50.7 36.8,55.0 44.8,23.8 52.8,5.0 60.7,37.8 68.7,11.5 76.6,16.7 84.6,25.8 92.6,23.8 100.5,48.3 108.5,14.0 116.4,46.4 124.4,34.2 132.3,17.6 140.3,47.4 148.3,25.2 156.2,19.1 164.2,26.8 172.1,18.7 180.1,50.8 188.1,37.1 196.0,37.3 204.0,41.6 211.9,36.2 219.9,39.0 227.9,42.1 235.8,39.1 243.8,44.7 251.7,27.8 259.7,35.7 267.7,35.9 275.6,25.7 283.6,43.6 291.5,30.1 299.5,37.1 307.4,39.8 315.4,39.7 323.4,36.5 331.3,27.9 339.3,20.4 347.2,48.7 355.2,17.9 363.2,28.7 371.1,16.8 379.1,51.4 387.0,33.0 395.0,17.4" fill="none" stroke="#58a6ff" stroke-width="1.5"/>
<circle cx="395.0" cy="17.4" r="2.5" fill="#58a6ff"/>
</svg>