<svg xmlns="http://www.w3.org/2000/svg" width="400" height="60">
<rect width="400" height="60" fill="#0d1117" rx="4"/>
<polyline points="5.0,23.8 13.0,45.2 20.9,50.7 28.9,55.0 36.8,23.8 44.8,5.0 52.8,37.8 60.7,11.5 68.7,16.7 76.6,25.8 84.6,23.8 92.6,48.3 100.5,14.0 108.5,46.4 116.4,34.2 124.4,17.6 132.3,47.4 140.3,25.2 148.3,19.1 156.2,26.8 164.2,18.7 172.1,50.8 180.1,37.1 188.1,37.3 196.0,41.6 204.0,36.2 211.9,39.0 219.9,42.1 227.9,39.1 235.8,44.7 243.8,27.8 251.7,35.7 259.7,35.9 267.7,25.7 275.6,43.6 283.6,30.1 291.5,37.1 299.5,39.8 307.4,39.7 315.4,36.5 323.4,27.9 331.3,20.4 339.3,48.7 347.2,17.9 355.2,28.7 363.2,16.8 371.1,51.4 379.1,33.0 387.0,17.4 395.0,50.0" fill="none" stroke="#58a6ff" stroke-width="1.5"/>
<circle cx="395.0" cy="50.0" r="2.5" fill="#58a6ff"/>
</svg>