<svg xmlns="http://www.w3.org/2000/svg" width="400" height="60">
<rect width="400" height="60" fill="#0d1117" rx="4"/>
<polyline points="5.0,18.3 13.0,23.0 20.9,49.3 28.9,26.8 36.8,53.7 44.8,38.1 52.8,35.9 60.7,24.6 68.7,13.7 76.6,38.3 84.6,6.1 92.6,29.0 100.5,30.9 108.5,5.2 116.4,30.5 124.4,29.9 132.3,9.9 140.3,20.3 148.3,26.1 156.2,55.0 164.2,5.0 172.1,26.6 180.1,16.7 188.1,16.5 196.0,39.7 204.0,7.6 211.9,12.4 219.9,8.6 227.9,23.8 235.8,41.4 243.8,46.0 251.7,49.5 259.7,23.8 267.7,8.3 275.6,35.3 283.6,13.7 291.5,17.9 299.5,25.4 307.4,23.8 315.4,44.0 323.4,15.7 331.3,42.4 339.3,32.4 347.2,18.7 355.2,43.2 363.2,24.9 371.1,19.9 379.1,26.2 387.0,19.6 395.0,46.0" fill="none" stroke="#58a6ff" stroke-width="1.5"/>
<circle cx="395.0" cy="46.0" r="2.5" fill="#58a6ff"/>
</svg>