<svg xmlns="http://www.w3.org/2000/svg" width="400" height="60">
<rect width="400" height="60" fill="#0d1117" rx="4"/>
<polyline points="5.0,7.3 13.0,8.7 20.9,24.8 28.9,35.3 36.8,28.6 44.8,46.0 52.8,10.3 60.7,24.2 68.7,18.6 76.6,40.1 84.6,41.4 92.6,18.4 100.5,8.9 108.5,30.8 116.4,22.9 124.4,38.2 132.3,10.6 140.3,32.1 148.3,34.1 156.2,6.2 164.2,26.9 172.1,13.0 180.1,16.5 188.1,35.6 196.0,47.4 204.0,22.3 211.9,35.2 219.9,5.0 227.9,11.6 235.8,25.3 243.8,27.9 251.7,18.3 259.7,18.9 267.7,37.1 275.6,55.0 283.6,42.3 291.5,38.1 299.5,32.9 307.4,6.7 315.4,29.6 323.4,41.8 331.3,23.7 339.3,14.2 347.2,36.6 355.2,49.9 363.2,11.6 371.1,29.2 379.1,27.0 387.0,33.6 395.0,11.8" fill="none" stroke="#58a6ff" stroke-width="1.5"/>
<circle cx="395.0" cy="11.8" r="2.5" fill="#58a6ff"/>
</svg>