<svg xmlns="http://www.w3.org/2000/svg" width="400" height="60">
<rect width="400" height="60" fill="#0d1117" rx="4"/>
<polyline points="5.0,13.4 13.0,43.6 20.9,32.2 28.9,16.7 36.8,44.5 44.8,23.8 52.8,18.1 60.7,25.3 68.7,17.8 76.6,47.6 84.6,34.9 92.6,35.1 100.5,39.1 108.5,34.0 116.4,36.6 124.4,39.6 132.3,36.7 140.3,42.0 148.3,26.2 156.2,33.6 164.2,33.8 172.1,24.3 180.1,41.0 188.1,28.3 196.0,34.9 204.0,37.4 211.9,37.4 219.9,34.3 227.9,26.3 235.8,19.4 243.8,45.7 251.7,17.0 259.7,27.0 267.7,15.9 275.6,48.2 283.6,31.0 291.5,16.5 299.5,46.9 307.4,37.1 315.4,23.7 323.4,55.0 331.3,5.0 339.3,37.9 347.2,18.1 355.2,48.1 363.2,8.9 371.1,11.1 379.1,34.7 387.0,50.3 395.0,40.4" fill="none" stroke="#58a6ff" stroke-width="1.5"/>
<circle cx="395.0" cy="40.4" r="2.5" fill="#58a6ff"/>
</svg>