<svg xmlns="http://www.w3.org/2000/svg" width="400" height="60">
<rect width="400" height="60" fill="#0d1117" rx="4"/>
<polyline points="5.0,27.8 13.0,20.3 20.9,33.5 28.9,23.5 36.8,28.7 44.8,30.7 52.8,30.6 60.7,28.2 68.7,21.9 76.6,16.4 84.6,37.3 92.6,14.5 100.5,22.5 108.5,13.7 116.4,39.2 124.4,25.6 132.3,14.1 140.3,38.2 148.3,30.5 156.2,19.9 164.2,44.6 172.1,5.0 180.1,31.1 188.1,15.4 196.0,39.1 204.0,8.1 211.9,9.8 219.9,28.6 227.9,40.9 235.8,33.1 243.8,53.4 251.7,11.7 259.7,27.9 267.7,21.4 275.6,46.5 283.6,48.0 291.5,21.1 299.5,10.0 307.4,35.6 315.4,26.3 323.4,44.3 331.3,11.9 339.3,37.1 347.2,39.5 355.2,6.8 363.2,31.0 371.1,14.8 379.1,18.9 387.0,41.2 395.0,55.0" fill="none" stroke="#58a6ff" stroke-width="1.5"/>
<circle cx="395.0" cy="55.0" r="2.5" fill="#58a6ff"/>
</svg>