<svg xmlns="http://www.w3.org/2000/svg" width="400" height="60">
<rect width="400" height="60" fill="#0d1117" rx="4"/>
<polyline points="5.0,45.0 13.0,15.9 20.9,33.8 28.9,55.0 36.8,9.3 44.8,26.2 52.8,11.2 60.7,31.5 68.7,14.0 76.6,14.4 84.6,33.8 92.6,21.6 100.5,44.2 108.5,53.9 116.4,15.7 124.4,21.8 132.3,15.4 140.3,35.8 148.3,15.4 156.2,19.0 164.2,39.5 172.1,21.9 180.1,42.9 188.1,30.7 196.0,29.1 204.0,20.3 211.9,11.8 219.9,30.9 227.9,5.8 235.8,23.7 243.8,25.1 251.7,5.1 259.7,24.8 267.7,24.4 275.6,8.9 283.6,16.9 291.5,21.4 299.5,43.9 307.4,5.0 315.4,21.8 323.4,14.1 331.3,14.0 339.3,32.0 347.2,7.0 355.2,10.8 363.2,7.8 371.1,19.6 379.1,33.3 387.0,36.9 395.0,39.6" fill="none" stroke="#58a6ff" stroke-width="1.5"/>
<circle cx="395.0" cy="39.6" r="2.5" fill="#58a6ff"/>
</svg>