<svg xmlns="http://www.w3.org/2000/svg" width="400" height="60">
<rect width="400" height="60" fill="#0d1117" rx="4"/>
<polyline points="5.0,55.0 13.0,37.7 20.9,42.4 28.9,27.3 36.8,32.3 44.8,10.3 52.8,19.8 60.7,25.6 68.7,20.9 76.6,24.8 84.6,29.3 92.6,13.3 100.5,24.9 108.5,18.1 116.4,29.1 124.4,17.4 132.3,17.4 140.3,28.9 148.3,11.4 156.2,22.2 164.2,34.9 172.1,7.5 180.1,17.6 188.1,8.6 196.0,20.8 204.0,10.3 211.9,10.5 219.9,22.2 227.9,14.9 235.8,28.4 243.8,34.2 251.7,11.3 259.7,15.0 267.7,11.2 275.6,23.4 283.6,11.1 291.5,13.3 299.5,25.6 307.4,15.1 315.4,27.6 323.4,20.3 331.3,19.4 339.3,14.1 347.2,9.0 355.2,20.5 363.2,5.4 371.1,16.1 379.1,17.0 387.0,5.0 395.0,16.8" fill="none" stroke="#58a6ff" stroke-width="1.5"/>
<circle cx="395.0" cy="16.8" r="2.5" fill="#58a6ff"/>
</svg>