<svg xmlns="http://www.w3.org/2000/svg" width="400" height="60">
<rect width="400" height="60" fill="#0d1117" rx="4"/>
<polyline points="5.0,50.7 13.0,55.0 20.9,23.8 28.9,5.0 36.8,37.8 44.8,11.5 52.8,16.7 60.7,25.8 68.7,23.8 76.6,48.3 84.6,14.0 92.6,46.4 100.5,34.2 108.5,17.6 116.4,47.4 124.4,25.2 132.3,19.1 140.3,26.8 148.3,18.7 156.2,50.8 164.2,37.1 172.1,37.3 180.1,41.6 188.1,36.2 196.0,39.0 204.0,42.1 211.9,39.1 219.9,44.7 227.9,27.8 235.8,35.7 243.8,35.9 251.7,25.7 259.7,43.6 267.7,30.1 275.6,37.1 283.6,39.8 291.5,39.7 299.5,36.5 307.4,27.9 315.4,20.4 323.4,48.7 331.3,17.9 339.3,28.7 347.2,16.8 355.2,51.4 363.2,33.0 371.1,17.4 379.1,50.0 387.0,39.5 395.0,25.1" fill="none" stroke="#58a6ff" stroke-width="1.5"/>
<circle cx="395.0" cy="25.1" r="2.5" fill="#58a6ff"/>
</svg>