<svg xmlns="http://www.w3.org/2000/svg" width="400" height="60">
<rect width="400" height="60" fill="#0d1117" rx="4"/>
<polyline points="5.0,30.5 13.0,29.9 20.9,9.9 28.9,20.3 36.8,26.1 44.8,55.0 52.8,5.0 60.7,26.6 68.7,16.7 76.6,16.5 84.6,39.7 92.6,7.6 100.5,12.4 108.5,8.6 116.4,23.8 124.4,41.4 132.3,46.0 140.3,49.5 148.3,23.8 156.2,8.3 164.2,35.3 172.1,13.7 180.1,17.9 188.1,25.4 196.0,23.8 204.0,44.0 211.9,15.7 219.9,42.4 227.9,32.4 235.8,18.7 243.8,43.2 251.7,24.9 259.7,19.9 267.7,26.2 275.6,19.6 283.6,46.0 291.5,34.7 299.5,34.9 307.4,38.4 315.4,34.0 323.4,36.3 331.3,38.9 339.3,36.3 347.2,41.0 355.2,27.1 363.2,33.6 371.1,33.7 379.1,25.4 387.0,40.1 395.0,28.9" fill="none" stroke="#58a6ff" stroke-width="1.5"/>
<circle cx="395.0" cy="28.9" r="2.5" fill="#58a6ff"/>
</svg>