<svg xmlns="http://www.w3.org/2000/svg" width="400" height="60">
<rect width="400" height="60" fill="#0d1117" rx="4"/>
<polyline points="5.0,13.1 20.6,55.0 36.2,50.8 51.8,32.1 67.4,39.3 83.0,34.1 98.6,22.9 114.2,25.9 129.8,16.1 145.4,19.4 161.0,5.0 176.6,11.2 192.2,15.0 207.8,12.0 223.4,14.5 239.0,17.4 254.6,7.0 270.2,14.6 285.8,10.1 301.4,17.3 317.0,9.7 332.6,9.6 348.2,17.1 363.8,5.8 379.4,12.8 395.0,21.0" fill="none" stroke="#58a6ff" stroke-width="1.5"/>
<circle cx="395.0" cy="21.0" r="2.5" fill="#58a6ff"/>
</svg>