<svg xmlns="http://www.w3.org/2000/svg" width="400" height="60">
<rect width="400" height="60" fill="#0d1117" rx="4"/>
<polyline points="5.0,14.5 18.0,55.0 31.0,50.9 44.0,32.9 57.0,39.9 70.0,34.9 83.0,24.0 96.0,26.9 109.0,17.5 122.0,20.6 135.0,6.8 148.0,12.8 161.0,16.4 174.0,13.5 187.0,15.9 200.0,18.7 213.0,8.7 226.0,16.0 239.0,11.7 252.0,18.6 265.0,11.3 278.0,11.2 291.0,18.5 304.0,7.5 317.0,14.2 330.0,22.2 343.0,5.0 356.0,11.4 369.0,5.7 382.0,13.4 395.0,6.8" fill="none" stroke="#58a6ff" stroke-width="1.5"/>
<circle cx="395.0" cy="6.8" r="2.5" fill="#58a6ff"/>
</svg>