<svg xmlns="http://www.w3.org/2000/svg" width="400" height="60">
<rect width="400" height="60" fill="#0d1117" rx="4"/>
<polyline points="5.0,29.4 13.0,29.6 20.9,32.9 28.9,28.8 36.8,30.9 44.8,33.3 52.8,31.0 60.7,35.3 68.7,22.4 76.6,28.4 84.6,28.6 92.6,20.8 100.5,34.5 108.5,24.1 116.4,29.5 124.4,31.5 132.3,31.5 140.3,29.0 148.3,22.5 156.2,16.8 164.2,38.3 172.1,14.8 180.1,23.0 188.1,14.0 196.0,40.4 204.0,26.3 211.9,14.4 219.9,39.3 227.9,31.3 235.8,20.3 243.8,45.9 251.7,5.0 259.7,31.9 267.7,15.7 275.6,40.3 283.6,8.2 291.5,10.0 299.5,29.3 307.4,42.1 315.4,34.0 323.4,55.0 331.3,11.9 339.3,28.6 347.2,21.9 355.2,47.8 363.2,49.4 371.1,21.6 379.1,10.2 387.0,36.6 395.0,27.0" fill="none" stroke="#58a6ff" stroke-width="1.5"/>
<circle cx="395.0" cy="27.0" r="2.5" fill="#58a6ff"/>
</svg>