<svg xmlns="http://www.w3.org/2000/svg" width="400" height="60">
<rect width="400" height="60" fill="#0d1117" rx="4"/>
<polyline points="5.0,8.7 13.0,24.8 20.9,35.3 28.9,28.6 36.8,46.0 44.8,10.3 52.8,24.2 60.7,18.6 68.7,40.1 76.6,41.4 84.6,18.4 92.6,8.9 100.5,30.8 108.5,22.9 116.4,38.2 124.4,10.6 132.3,32.1 140.3,34.1 148.3,6.2 156.2,26.9 164.2,13.0 172.1,16.5 180.1,35.6 188.1,47.4 196.0,22.3 204.0,35.2 211.9,5.0 219.9,11.6 227.9,25.3 235.8,27.9 243.8,18.3 251.7,18.9 259.7,37.1 267.7,55.0 275.6,42.3 283.6,38.1 291.5,32.9 299.5,6.7 307.4,29.6 315.4,41.8 323.4,23.7 331.3,14.2 339.3,36.6 347.2,49.9 355.2,11.6 363.2,29.2 371.1,27.0 379.1,33.6 387.0,11.8 395.0,32.9" fill="none" stroke="#58a6ff" stroke-width="1.5"/>
<circle cx="395.0" cy="32.9" r="2.5" fill="#58a6ff"/>
</svg>