<svg xmlns="http://www.w3.org/2000/svg" width="400" height="60">
<rect width="400" height="60" fill="#0d1117" rx="4"/>
<polyline points="5.0,14.5 13.3,55.0 21.6,50.9 29.9,32.9 38.2,39.9 46.5,34.9 54.8,24.0 63.1,26.9 71.4,17.5 79.7,20.6 88.0,6.8 96.3,12.8 104.6,16.4 112.9,13.5 121.2,15.9 129.5,18.7 137.8,8.7 146.1,16.0 154.4,11.7 162.7,18.6 171.0,11.3 179.3,11.2 187.6,18.5 195.9,7.5 204.1,14.2 212.4,22.2 220.7,5.0 229.0,11.4 237.3,5.7 245.6,13.4 253.9,6.8 262.2,6.9 270.5,14.2 278.8,9.7 287.1,18.2 295.4,21.8 303.7,7.4 312.0,9.7 320.3,7.3 328.6,15.0 336.9,7.3 345.2,8.7 353.5,16.4 361.8,9.8 370.1,17.7 378.4,13.1 386.7,12.5 395.0,9.2" fill="none" stroke="#58a6ff" stroke-width="1.5"/>
<circle cx="395.0" cy="9.2" r="2.5" fill="#58a6ff"/>
</svg>