<svg xmlns="http://www.w3.org/2000/svg" width="400" height="60">
<rect width="400" height="60" fill="#0d1117" rx="4"/>
<polyline points="5.0,33.5 13.0,23.5 20.9,28.7 28.9,30.7 36.8,30.6 44.8,28.2 52.8,21.9 60.7,16.4 68.7,37.3 76.6,14.5 84.6,22.5 92.6,13.7 100.5,39.2 108.5,25.6 116.4,14.1 124.4,38.2 132.3,30.5 140.3,19.9 148.3,44.6 156.2,5.0 164.2,31.1 172.1,15.4 180.1,39.1 188.1,8.1 196.0,9.8 204.0,28.6 211.9,40.9 219.9,33.1 227.9,53.4 235.8,11.7 243.8,27.9 251.7,21.4 259.7,46.5 267.7,48.0 275.6,21.1 283.6,10.0 291.5,35.6 299.5,26.3 307.4,44.3 315.4,11.9 323.4,37.1 331.3,39.5 339.3,6.8 347.2,31.0 355.2,14.8 363.2,18.9 371.1,41.2 379.1,55.0 387.0,25.7 395.0,40.8" fill="none" stroke="#58a6ff" stroke-width="1.5"/>
<circle cx="395.0" cy="40.8" r="2.5" fill="#58a6ff"/>
</svg>