<svg xmlns="http://www.w3.org/2000/svg" width="400" height="60">
<rect width="400" height="60" fill="#0d1117" rx="4"/>
<polyline points="5.0,14.5 19.4,55.0 33.9,50.9 48.3,32.9 62.8,39.9 77.2,34.9 91.7,24.0 106.1,26.9 120.6,17.5 135.0,20.6 149.4,6.8 163.9,12.8 178.3,16.4 192.8,13.5 207.2,15.9 221.7,18.7 236.1,8.7 250.6,16.0 265.0,11.7 279.4,18.6 293.9,11.3 308.3,11.2 322.8,18.5 337.2,7.5 351.7,14.2 366.1,22.2 380.6,5.0 395.0,11.4" fill="none" stroke="#58a6ff" stroke-width="1.5"/>
<circle cx="395.0" cy="11.4" r="2.5" fill="#58a6ff"/>
</svg>