<svg xmlns="http://www.w3.org/2000/svg" width="400" height="60">
<rect width="400" height="60" fill="#0d1117" rx="4"/>
<polyline points="5.0,35.9 13.0,24.6 20.9,13.7 28.9,38.3 36.8,6.1 44.8,29.0 52.8,30.9 60.7,5.2 68.7,30.5 76.6,29.9 84.6,9.9 92.6,20.3 100.5,26.1 108.5,55.0 116.4,5.0 124.4,26.6 132.3,16.7 140.3,16.5 148.3,39.7 156.2,7.6 164.2,12.4 172.1,8.6 180.1,23.8 188.1,41.4 196.0,46.0 204.0,49.5 211.9,23.8 219.9,8.3 227.9,35.3 235.8,13.7 243.8,17.9 251.7,25.4 259.7,23.8 267.7,44.0 275.6,15.7 283.6,42.4 291.5,32.4 299.5,18.7 307.4,43.2 315.4,24.9 323.4,19.9 331.3,26.2 339.3,19.6 347.2,46.0 355.2,34.7 363.2,34.9 371.1,38.4 379.1,34.0 387.0,36.3 395.0,38.9" fill="none" stroke="#58a6ff" stroke-width="1.5"/>
<circle cx="395.0" cy="38.9" r="2.5" fill="#58a6ff"/>
</svg>