<svg xmlns="http://www.w3.org/2000/svg" width="400" height="60">
<rect width="400" height="60" fill="#0d1117" rx="4"/>
<polyline points="5.0,14.5 16.1,55.0 27.3,50.9 38.4,32.9 49.6,39.9 60.7,34.9 71.9,24.0 83.0,26.9 94.1,17.5 105.3,20.6 116.4,6.8 127.6,12.8 138.7,16.4 149.9,13.5 161.0,15.9 172.1,18.7 183.3,8.7 194.4,16.0 205.6,11.7 216.7,18.6 227.9,11.3 239.0,11.2 250.1,18.5 261.3,7.5 272.4,14.2 283.6,22.2 294.7,5.0 305.9,11.4 317.0,5.7 328.1,13.4 339.3,6.8 350.4,6.9 361.6,14.2 372.7,9.7 383.9,18.2 395.0,21.8" fill="none" stroke="#58a6ff" stroke-width="1.5"/>
<circle cx="395.0" cy="21.8" r="2.5" fill="#58a6ff"/>
</svg>