<svg xmlns="http://www.w3.org/2000/svg" width="400" height="60">
<rect width="400" height="60" fill="#0d1117" rx="4"/>
<polyline points="5.0,14.6 13.0,34.4 20.9,22.0 28.9,45.1 36.8,55.0 44.8,16.0 52.8,22.2 60.7,15.7 68.7,36.5 76.6,15.6 84.6,19.4 92.6,40.3 100.5,22.3 108.5,43.8 116.4,31.3 124.4,29.6 132.3,20.6 140.3,12.0 148.3,31.5 156.2,5.9 164.2,24.1 172.1,25.6 180.1,5.1 188.1,25.3 196.0,24.8 204.0,8.9 211.9,17.2 219.9,21.8 227.9,44.8 235.8,5.0 243.8,22.2 251.7,14.3 259.7,14.2 267.7,32.6 275.6,7.1 283.6,10.9 291.5,7.8 299.5,19.9 307.4,34.0 315.4,37.6 323.4,40.4 331.3,19.9 339.3,7.6 347.2,29.2 355.2,11.9 363.2,15.3 371.1,21.2 379.1,20.0 387.0,36.0 395.0,13.5" fill="none" stroke="#58a6ff" stroke-width="1.5"/>
<circle cx="395.0" cy="13.5" r="2.5" fill="#58a6ff"/>
</svg>