<svg xmlns="http://www.w3.org/2000/svg" width="400" height="60">
<rect width="400" height="60" fill="#0d1117" rx="4"/>
<polyline points="5.0,11.3 13.0,32.1 20.9,14.2 28.9,14.6 36.8,34.4 44.8,22.0 52.8,45.1 60.7,55.0 68.7,16.0 76.6,22.2 84.6,15.7 92.6,36.5 100.5,15.6 108.5,19.4 116.4,40.3 124.4,22.3 132.3,43.8 140.3,31.3 148.3,29.6 156.2,20.6 164.2,12.0 172.1,31.5 180.1,5.9 188.1,24.1 196.0,25.6 204.0,5.1 211.9,25.3 219.9,24.8 227.9,8.9 235.8,17.2 243.8,21.8 251.7,44.8 259.7,5.0 267.7,22.2 275.6,14.3 283.6,14.2 291.5,32.6 299.5,7.1 307.4,10.9 315.4,7.8 323.4,19.9 331.3,34.0 339.3,37.6 347.2,40.4 355.2,19.9 363.2,7.6 371.1,29.2 379.1,11.9 387.0,15.3 395.0,21.2" fill="none" stroke="#58a6ff" stroke-width="1.5"/>
<circle cx="395.0" cy="21.2" r="2.5" fill="#58a6ff"/>
</svg>