<svg xmlns="http://www.w3.org/2000/svg" width="400" height="60">
<rect width="400" height="60" fill="#0d1117" rx="4"/>
<polyline points="5.0,14.5 15.5,55.0 26.1,50.9 36.6,32.9 47.2,39.9 57.7,34.9 68.2,24.0 78.8,26.9 89.3,17.5 99.9,20.6 110.4,6.8 120.9,12.8 131.5,16.4 142.0,13.5 152.6,15.9 163.1,18.7 173.6,8.7 184.2,16.0 194.7,11.7 205.3,18.6 215.8,11.3 226.4,11.2 236.9,18.5 247.4,7.5 258.0,14.2 268.5,22.2 279.1,5.0 289.6,11.4 300.1,5.7 310.7,13.4 321.2,6.8 331.8,6.9 342.3,14.2 352.8,9.7 363.4,18.2 373.9,21.8 384.5,7.4 395.0,9.7" fill="none" stroke="#58a6ff" stroke-width="1.5"/>
<circle cx="395.0" cy="9.7" r="2.5" fill="#58a6ff"/>
</svg>