<svg xmlns="http://www.w3.org/2000/svg" width="400" height="60">
<rect width="400" height="60" fill="#0d1117" rx="4"/>
<polyline points="5.0,14.5 17.6,55.0 30.2,50.9 42.7,32.9 55.3,39.9 67.9,34.9 80.5,24.0 93.1,26.9 105.6,17.5 118.2,20.6 130.8,6.8 143.4,12.8 156.0,16.4 168.5,13.5 181.1,15.9 193.7,18.7 206.3,8.7 218.9,16.0 231.5,11.7 244.0,18.6 256.6,11.3 269.2,11.2 281.8,18.5 294.4,7.5 306.9,14.2 319.5,22.2 332.1,5.0 344.7,11.4 357.3,5.7 369.8,13.4 382.4,6.8 395.0,6.9" fill="none" stroke="#58a6ff" stroke-width="1.5"/>
<circle cx="395.0" cy="6.9" r="2.5" fill="#58a6ff"/>
</svg>