<svg xmlns="http://www.w3.org/2000/svg" width="400" height="60">
<rect width="400" height="60" fill="#0d1117" rx="4"/>
<polyline points="5.0,55.0 13.0,35.9 20.9,43.3 28.9,38.0 36.8,26.5 44.8,29.6 52.8,19.6 60.7,22.9 68.7,8.2 76.6,14.6 84.6,18.4 92.6,15.3 100.5,17.9 108.5,20.9 116.4,10.2 124.4,18.0 132.3,13.4 140.3,20.7 148.3,13.0 156.2,12.9 164.2,20.6 172.1,9.0 180.1,16.1 188.1,24.6 196.0,6.4 204.0,13.1 211.9,7.1 219.9,15.2 227.9,8.2 235.8,8.4 243.8,16.1 251.7,11.3 259.7,20.3 267.7,24.2 275.6,8.9 283.6,11.4 291.5,8.8 299.5,17.0 307.4,8.8 315.4,10.3 323.4,18.4 331.3,11.4 339.3,19.8 347.2,14.9 355.2,14.3 363.2,10.8 371.1,7.4 379.1,15.0 387.0,5.0 395.0,12.1" fill="none" stroke="#58a6ff" stroke-width="1.5"/>
<circle cx="395.0" cy="12.1" r="2.5" fill="#58a6ff"/>
</svg>