<svg xmlns="http://www.w3.org/2000/svg" width="400" height="60">
<rect width="400" height="60" fill="#0d1117" rx="4"/>
<polyline points="5.0,9.9 13.0,20.3 20.9,26.1 28.9,55.0 36.8,5.0 44.8,26.6 52.8,16.7 60.7,16.5 68.7,39.7 76.6,7.6 84.6,12.4 92.6,8.6 100.5,23.8 108.5,41.4 116.4,46.0 124.4,49.5 132.3,23.8 140.3,8.3 148.3,35.3 156.2,13.7 164.2,17.9 172.1,25.4 180.1,23.8 188.1,44.0 196.0,15.7 204.0,42.4 211.9,32.4 219.9,18.7 227.9,43.2 235.8,24.9 243.8,19.9 251.7,26.2 259.7,19.6 267.7,46.0 275.6,34.7 283.6,34.9 291.5,38.4 299.5,34.0 307.4,36.3 315.4,38.9 323.4,36.3 331.3,41.0 339.3,27.1 347.2,33.6 355.2,33.7 363.2,25.4 371.1,40.1 379.1,28.9 387.0,34.7 395.0,36.9" fill="none" stroke="#58a6ff" stroke-width="1.5"/>
<circle cx="395.0" cy="36.9" r="2.5" fill="#58a6ff"/>
</svg>