<svg xmlns="http://www.w3.org/2000/svg" width="400" height="60">
<rect width="400" height="60" fill="#0d1117" rx="4"/>
<polyline points="5.0,17.6 13.0,38.6 20.9,5.0 28.9,27.1 36.8,13.8 44.8,34.0 52.8,7.6 60.7,9.1 68.7,25.0 76.6,35.5 84.6,28.8 92.6,46.1 100.5,10.7 108.5,24.4 116.4,18.9 124.4,40.2 132.3,41.5 140.3,18.7 148.3,9.2 156.2,31.0 164.2,23.1 172.1,38.4 180.1,10.9 188.1,32.3 196.0,34.3 204.0,6.5 211.9,27.1 219.9,13.3 227.9,16.8 235.8,35.7 243.8,47.5 251.7,22.5 259.7,35.4 267.7,5.4 275.6,11.9 283.6,25.5 291.5,28.1 299.5,18.5 307.4,19.2 315.4,37.2 323.4,55.0 331.3,42.4 339.3,38.2 347.2,33.1 355.2,7.0 363.2,29.8 371.1,41.9 379.1,23.9 387.0,14.5 395.0,36.7" fill="none" stroke="#58a6ff" stroke-width="1.5"/>
<circle cx="395.0" cy="36.7" r="2.5" fill="#58a6ff"/>
</svg>