<svg xmlns="http://www.w3.org/2000/svg" width="400" height="60">
<rect width="400" height="60" fill="#0d1117" rx="4"/>
<polyline points="5.0,42.3 13.0,50.7 20.9,13.8 28.9,29.8 36.8,39.4 44.8,31.6 52.8,38.2 60.7,45.6 68.7,18.9 76.6,38.4 84.6,26.9 92.6,45.3 100.5,25.8 108.5,25.7 116.4,45.0 124.4,15.8 132.3,33.7 140.3,55.0 148.3,9.1 156.2,26.1 164.2,11.1 172.1,31.4 180.1,13.9 188.1,14.3 196.0,33.7 204.0,21.5 211.9,44.2 219.9,53.9 227.9,15.6 235.8,21.7 243.8,15.3 251.7,35.8 259.7,15.3 267.7,18.9 275.6,39.5 283.6,21.8 291.5,42.8 299.5,30.7 307.4,29.0 315.4,20.2 323.4,11.7 331.3,30.8 339.3,5.7 347.2,23.6 355.2,25.1 363.2,5.0 371.1,24.7 379.1,24.3 387.0,8.7 395.0,16.8" fill="none" stroke="#58a6ff" stroke-width="1.5"/>
<circle cx="395.0" cy="16.8" r="2.5" fill="#58a6ff"/>
</svg>