<svg xmlns="http://www.w3.org/2000/svg" width="400" height="60">
<rect width="400" height="60" fill="#0d1117" rx="4"/>
<polyline points="5.0,30.7 13.0,30.6 20.9,28.2 28.9,21.9 36.8,16.4 44.8,37.3 52.8,14.5 60.7,22.5 68.7,13.7 76.6,39.2 84.6,25.6 92.6,14.1 100.5,38.2 108.5,30.5 116.4,19.9 124.4,44.6 132.3,5.0 140.3,31.1 148.3,15.4 156.2,39.1 164.2,8.1 172.1,9.8 180.1,28.6 188.1,40.9 196.0,33.1 204.0,53.4 211.9,11.7 219.9,27.9 227.9,21.4 235.8,46.5 243.8,48.0 251.7,21.1 259.7,10.0 267.7,35.6 275.6,26.3 283.6,44.3 291.5,11.9 299.5,37.1 307.4,39.5 315.4,6.8 323.4,31.0 331.3,14.8 339.3,18.9 347.2,41.2 355.2,55.0 363.2,25.7 371.1,40.8 379.1,5.4 387.0,13.1 395.0,29.2" fill="none" stroke="#58a6ff" stroke-width="1.5"/>
<circle cx="395.0" cy="29.2" r="2.5" fill="#58a6ff"/>
</svg>