<svg xmlns="http://www.w3.org/2000/svg" width="400" height="60">
<rect width="400" height="60" fill="#0d1117" rx="4"/>
<polyline points="5.0,24.3 13.0,22.5 20.9,45.4 28.9,13.4 36.8,43.6 44.8,32.2 52.8,16.7 60.7,44.5 68.7,23.8 76.6,18.1 84.6,25.3 92.6,17.8 100.5,47.6 108.5,34.9 116.4,35.1 124.4,39.1 132.3,34.0 140.3,36.6 148.3,39.6 156.2,36.7 164.2,42.0 172.1,26.2 180.1,33.6 188.1,33.8 196.0,24.3 204.0,41.0 211.9,28.3 219.9,34.9 227.9,37.4 235.8,37.4 243.8,34.3 251.7,26.3 259.7,19.4 267.7,45.7 275.6,17.0 283.6,27.0 291.5,15.9 299.5,48.2 307.4,31.0 315.4,16.5 323.4,46.9 331.3,37.1 339.3,23.7 347.2,55.0 355.2,5.0 363.2,37.9 371.1,18.1 379.1,48.1 387.0,8.9 395.0,11.1" fill="none" stroke="#58a6ff" stroke-width="1.5"/>
<circle cx="395.0" cy="11.1" r="2.5" fill="#58a6ff"/>
</svg>