<svg xmlns="http://www.w3.org/2000/svg" width="400" height="60">
<rect width="400" height="60" fill="#0d1117" rx="4"/>
<polyline points="5.0,13.5 13.0,33.8 20.9,7.3 28.9,8.7 36.8,24.8 44.8,35.3 52.8,28.6 60.7,46.0 68.7,10.3 76.6,24.2 84.6,18.6 92.6,40.1 100.5,41.4 108.5,18.4 116.4,8.9 124.4,30.8 132.3,22.9 140.3,38.2 148.3,10.6 156.2,32.1 164.2,34.1 172.1,6.2 180.1,26.9 188.1,13.0 196.0,16.5 204.0,35.6 211.9,47.4 219.9,22.3 227.9,35.2 235.8,5.0 243.8,11.6 251.7,25.3 259.7,27.9 267.7,18.3 275.6,18.9 283.6,37.1 291.5,55.0 299.5,42.3 307.4,38.1 315.4,32.9 323.4,6.7 331.3,29.6 339.3,41.8 347.2,23.7 355.2,14.2 363.2,36.6 371.1,49.9 379.1,11.6 387.0,29.2 395.0,27.0" fill="none" stroke="#58a6ff" stroke-width="1.5"/>
<circle cx="395.0" cy="27.0" r="2.5" fill="#58a6ff"/>
</svg>