<svg xmlns="http://www.w3.org/2000/svg" width="400" height="60">
<rect width="400" height="60" fill="#0d1117" rx="4"/>
<polyline points="5.0,5.0 13.0,10.7 20.9,6.1 28.9,24.3 36.8,45.3 44.8,50.8 52.8,55.0 60.7,24.3 68.7,5.8 76.6,38.1 84.6,12.2 92.6,17.3 100.5,26.2 108.5,24.3 116.4,48.4 124.4,14.7 132.3,46.5 140.3,34.6 148.3,18.2 156.2,47.5 164.2,25.6 172.1,19.7 180.1,27.2 188.1,19.3 196.0,50.8 204.0,37.3 211.9,37.6 219.9,41.8 227.9,36.5 235.8,39.2 243.8,42.3 251.7,39.3 259.7,44.9 267.7,28.3 275.6,36.0 283.6,36.2 291.5,26.2 299.5,43.8 307.4,30.5 315.4,37.4 323.4,40.0 331.3,40.0 339.3,36.8 347.2,28.4 355.2,21.0 363.2,48.8 371.1,18.5 379.1,29.1 387.0,17.4 395.0,51.4" fill="none" stroke="#58a6ff" stroke-width="1.5"/>
<circle cx="395.0" cy="51.4" r="2.5" fill="#58a6ff"/>
</svg>