<svg xmlns="http://www.w3.org/2000/svg" width="400" height="60">
<rect width="400" height="60" fill="#0d1117" rx="4"/>
<polyline points="5.0,14.5 20.0,55.0 35.0,50.9 50.0,32.9 65.0,39.9 80.0,34.9 95.0,24.0 110.0,26.9 125.0,17.5 140.0,20.6 155.0,6.8 170.0,12.8 185.0,16.4 200.0,13.5 215.0,15.9 230.0,18.7 245.0,8.7 260.0,16.0 275.0,11.7 290.0,18.6 305.0,11.3 320.0,11.2 335.0,18.5 350.0,7.5 365.0,14.2 380.0,22.2 395.0,5.0" fill="none" stroke="#58a6ff" stroke-width="1.5"/>
<circle cx="395.0" cy="5.0" r="2.5" fill="#58a6ff"/>
</svg>