<svg xmlns="http://www.w3.org/2000/svg" width="400" height="60">
<rect width="400" height="60" fill="#0d1117" rx="4"/>
<polyline points="5.0,55.0 13.0,5.0 20.9,26.6 28.9,16.7 36.8,16.5 44.8,39.7 52.8,7.6 60.7,12.4 68.7,8.6 76.6,23.8 84.6,41.4 92.6,46.0 100.5,49.5 108.5,23.8 116.4,8.3 124.4,35.3 132.3,13.7 140.3,17.9 148.3,25.4 156.2,23.8 164.2,44.0 172.1,15.7 180.1,42.4 188.1,32.4 196.0,18.7 204.0,43.2 211.9,24.9 219.9,19.9 227.9,26.2 235.8,19.6 243.8,46.0 251.7,34.7 259.7,34.9 267.7,38.4 275.6,34.0 283.6,36.3 291.5,38.9 299.5,36.3 307.4,41.0 315.4,27.1 323.4,33.6 331.3,33.7 339.3,25.4 347.2,40.1 355.2,28.9 363.2,34.7 371.1,36.9 379.1,36.9 387.0,34.2 395.0,27.2" fill="none" stroke="#58a6ff" stroke-width="1.5"/>
<circle cx="395.0" cy="27.2" r="2.5" fill="#58a6ff"/>
</svg>