<svg xmlns="http://www.w3.org/2000/svg" width="400" height="60">
<rect width="400" height="60" fill="#0d1117" rx="4"/>
<polyline points="5.0,38.4 13.0,26.9 20.9,45.3 28.9,25.9 36.8,25.8 44.8,45.0 52.8,15.9 60.7,33.8 68.7,55.0 76.6,9.3 84.6,26.2 92.6,11.2 100.5,31.5 108.5,14.0 116.4,14.4 124.4,33.8 132.3,21.6 140.3,44.2 148.3,53.9 156.2,15.7 164.2,21.8 172.1,15.4 180.1,35.8 188.1,15.4 196.0,19.0 204.0,39.5 211.9,21.9 219.9,42.9 227.9,30.7 235.8,29.1 243.8,20.3 251.7,11.8 259.7,30.9 267.7,5.8 275.6,23.7 283.6,25.1 291.5,5.1 299.5,24.8 307.4,24.4 315.4,8.9 323.4,16.9 331.3,21.4 339.3,43.9 347.2,5.0 355.2,21.8 363.2,14.1 371.1,14.0 379.1,32.0 387.0,7.0 395.0,10.8" fill="none" stroke="#58a6ff" stroke-width="1.5"/>
<circle cx="395.0" cy="10.8" r="2.5" fill="#58a6ff"/>
</svg>