<svg xmlns="http://www.w3.org/2000/svg" width="400" height="60">
<rect width="400" height="60" fill="#0d1117" rx="4"/>
<polyline points="5.0,24.8 13.0,35.3 20.9,28.6 28.9,46.0 36.8,10.3 44.8,24.2 52.8,18.6 60.7,40.1 68.7,41.4 76.6,18.4 84.6,8.9 92.6,30.8 100.5,22.9 108.5,38.2 116.4,10.6 124.4,32.1 132.3,34.1 140.3,6.2 148.3,26.9 156.2,13.0 164.2,16.5 172.1,35.6 180.1,47.4 188.1,22.3 196.0,35.2 204.0,5.0 211.9,11.6 219.9,25.3 227.9,27.9 235.8,18.3 243.8,18.9 251.7,37.1 259.7,55.0 267.7,42.3 275.6,38.1 283.6,32.9 291.5,6.7 299.5,29.6 307.4,41.8 315.4,23.7 323.4,14.2 331.3,36.6 339.3,49.9 347.2,11.6 355.2,29.2 363.2,27.0 371.1,33.6 379.1,11.8 387.0,32.9 395.0,11.2" fill="none" stroke="#58a6ff" stroke-width="1.5"/>
<circle cx="395.0" cy="11.2" r="2.5" fill="#58a6ff"/>
</svg>