<svg xmlns="http://www.w3.org/2000/svg" width="400" height="60">
<rect width="400" height="60" fill="#0d1117" rx="4"/>
<polyline points="5.0,25.8 13.0,45.0 20.9,15.9 28.9,33.8 36.8,55.0 44.8,9.3 52.8,26.2 60.7,11.2 68.7,31.5 76.6,14.0 84.6,14.4 92.6,33.8 100.5,21.6 108.5,44.2 116.4,53.9 124.4,15.7 132.3,21.8 140.3,15.4 148.3,35.8 156.2,15.4 164.2,19.0 172.1,39.5 180.1,21.9 188.1,42.9 196.0,30.7 204.0,29.1 211.9,20.3 219.9,11.8 227.9,30.9 235.8,5.8 243.8,23.7 251.7,25.1 259.7,5.1 267.7,24.8 275.6,24.4 283.6,8.9 291.5,16.9 299.5,21.4 307.4,43.9 315.4,5.0 323.4,21.8 331.3,14.1 339.3,14.0 347.2,32.0 355.2,7.0 363.2,10.8 371.1,7.8 379.1,19.6 387.0,33.3 395.0,36.9" fill="none" stroke="#58a6ff" stroke-width="1.5"/>
<circle cx="395.0" cy="36.9" r="2.5" fill="#58a6ff"/>
</svg>