<svg xmlns="http://www.w3.org/2000/svg" width="400" height="60">
<rect width="400" height="60" fill="#0d1117" rx="4"/>
<polyline points="5.0,14.5 13.1,55.0 21.2,50.9 29.4,32.9 37.5,39.9 45.6,34.9 53.8,24.0 61.9,26.9 70.0,17.5 78.1,20.6 86.2,6.8 94.4,12.8 102.5,16.4 110.6,13.5 118.8,15.9 126.9,18.7 135.0,8.7 143.1,16.0 151.2,11.7 159.4,18.6 167.5,11.3 175.6,11.2 183.8,18.5 191.9,7.5 200.0,14.2 208.1,22.2 216.2,5.0 224.4,11.4 232.5,5.7 240.6,13.4 248.8,6.8 256.9,6.9 265.0,14.2 273.1,9.7 281.2,18.2 289.4,21.8 297.5,7.4 305.6,9.7 313.8,7.3 321.9,15.0 330.0,7.3 338.1,8.7 346.2,16.4 354.4,9.8 362.5,17.7 370.6,13.1 378.8,12.5 386.9,9.2 395.0,6.0" fill="none" stroke="#58a6ff" stroke-width="1.5"/>
<circle cx="395.0" cy="6.0" r="2.5" fill="#58a6ff"/>
</svg>