<svg xmlns="http://www.w3.org/2000/svg" width="400" height="60">
<rect width="400" height="60" fill="#0d1117" rx="4"/>
<polyline points="5.0,19.0 13.0,38.4 20.9,26.9 28.9,45.3 36.8,25.9 44.8,25.8 52.8,45.0 60.7,15.9 68.7,33.8 76.6,55.0 84.6,9.3 92.6,26.2 100.5,11.2 108.5,31.5 116.4,14.0 124.4,14.4 132.3,33.8 140.3,21.6 148.3,44.2 156.2,53.9 164.2,15.7 172.1,21.8 180.1,15.4 188.1,35.8 196.0,15.4 204.0,19.0 211.9,39.5 219.9,21.9 227.9,42.9 235.8,30.7 243.8,29.1 251.7,20.3 259.7,11.8 267.7,30.9 275.6,5.8 283.6,23.7 291.5,25.1 299.5,5.1 307.4,24.8 315.4,24.4 323.4,8.9 331.3,16.9 339.3,21.4 347.2,43.9 355.2,5.0 363.2,21.8 371.1,14.1 379.1,14.0 387.0,32.0 395.0,7.0" fill="none" stroke="#58a6ff" stroke-width="1.5"/>
<circle cx="395.0" cy="7.0" r="2.5" fill="#58a6ff"/>
</svg>