<svg xmlns="http://www.w3.org/2000/svg" width="400" height="60">
<rect width="400" height="60" fill="#0d1117" rx="4"/>
<polyline points="5.0,36.6 13.0,27.3 20.9,14.6 28.9,37.3 36.8,20.4 44.8,15.7 52.8,21.6 60.7,15.5 68.7,39.9 76.6,29.4 84.6,29.6 92.6,32.9 100.5,28.8 108.5,30.9 116.4,33.3 124.4,31.0 132.3,35.3 140.3,22.4 148.3,28.4 156.2,28.6 164.2,20.8 172.1,34.5 180.1,24.1 188.1,29.5 196.0,31.5 204.0,31.5 211.9,29.0 219.9,22.5 227.9,16.8 235.8,38.3 243.8,14.8 251.7,23.0 259.7,14.0 267.7,40.4 275.6,26.3 283.6,14.4 291.5,39.3 299.5,31.3 307.4,20.3 315.4,45.9 323.4,5.0 331.3,31.9 339.3,15.7 347.2,40.3 355.2,8.2 363.2,10.0 371.1,29.3 379.1,42.1 387.0,34.0 395.0,55.0" fill="none" stroke="#58a6ff" stroke-width="1.5"/>
<circle cx="395.0" cy="55.0" r="2.5" fill="#58a6ff"/>
</svg>