<svg xmlns="http://www.w3.org/2000/svg" width="400" height="60">
<rect width="400" height="60" fill="#0d1117" rx="4"/>
<polyline points="5.0,28.4 13.0,28.6 20.9,20.8 28.9,34.5 36.8,24.1 44.8,29.5 52.8,31.5 60.7,31.5 68.7,29.0 76.6,22.5 84.6,16.8 92.6,38.3 100.5,14.8 108.5,23.0 116.4,14.0 124.4,40.4 132.3,26.3 140.3,14.4 148.3,39.3 156.2,31.3 164.2,20.3 172.1,45.9 180.1,5.0 188.1,31.9 196.0,15.7 204.0,40.3 211.9,8.2 219.9,10.0 227.9,29.3 235.8,42.1 243.8,34.0 251.7,55.0 259.7,11.9 267.7,28.6 275.6,21.9 283.6,47.8 291.5,49.4 299.5,21.6 307.4,10.2 315.4,36.6 323.4,27.0 331.3,45.6 339.3,12.2 347.2,38.2 355.2,40.6 363.2,6.9 371.1,31.9 379.1,15.1 387.0,19.3 395.0,42.4" fill="none" stroke="#58a6ff" stroke-width="1.5"/>
<circle cx="395.0" cy="42.4" r="2.5" fill="#58a6ff"/>
</svg>