<svg xmlns="http://www.w3.org/2000/svg" width="400" height="60">
<rect width="400" height="60" fill="#0d1117" rx="4"/>
<polyline points="5.0,37.3 13.0,20.4 20.9,15.7 28.9,21.6 36.8,15.5 44.8,39.9 52.8,29.4 60.7,29.6 68.7,32.9 76.6,28.8 84.6,30.9 92.6,33.3 100.5,31.0 108.5,35.3 116.4,22.4 124.4,28.4 132.3,28.6 140.3,20.8 148.3,34.5 156.2,24.1 164.2,29.5 172.1,31.5 180.1,31.5 188.1,29.0 196.0,22.5 204.0,16.8 211.9,38.3 219.9,14.8 227.9,23.0 235.8,14.0 243.8,40.4 251.7,26.3 259.7,14.4 267.7,39.3 275.6,31.3 283.6,20.3 291.5,45.9 299.5,5.0 307.4,31.9 315.4,15.7 323.4,40.3 331.3,8.2 339.3,10.0 347.2,29.3 355.2,42.1 363.2,34.0 371.1,55.0 379.1,11.9 387.0,28.6 395.0,21.9" fill="none" stroke="#58a6ff" stroke-width="1.5"/>
<circle cx="395.0" cy="21.9" r="2.5" fill="#58a6ff"/>
</svg>