<svg xmlns="http://www.w3.org/2000/svg" width="400" height="60">
<rect width="400" height="60" fill="#0d1117" rx="4"/>
<polyline points="5.0,44.6 13.0,18.3 20.9,23.0 28.9,49.3 36.8,26.8 44.8,53.7 52.8,38.1 60.7,35.9 68.7,24.6 76.6,13.7 84.6,38.3 92.6,6.1 100.5,29.0 108.5,30.9 116.4,5.2 124.4,30.5 132.3,29.9 140.3,9.9 148.3,20.3 156.2,26.1 164.2,55.0 172.1,5.0 180.1,26.6 188.1,16.7 196.0,16.5 204.0,39.7 211.9,7.6 219.9,12.4 227.9,8.6 235.8,23.8 243.8,41.4 251.7,46.0 259.7,49.5 267.7,23.8 275.6,8.3 283.6,35.3 291.5,13.7 299.5,17.9 307.4,25.4 315.4,23.8 323.4,44.0 331.3,15.7 339.3,42.4 347.2,32.4 355.2,18.7 363.2,43.2 371.1,24.9 379.1,19.9 387.0,26.2 395.0,19.6" fill="none" stroke="#58a6ff" stroke-width="1.5"/>
<circle cx="395.0" cy="19.6" r="2.5" fill="#58a6ff"/>
</svg>