<svg xmlns="http://www.w3.org/2000/svg" width="400" height="60">
<rect width="400" height="60" fill="#0d1117" rx="4"/>
<polyline points="5.0,49.3 13.0,26.8 20.9,53.7 28.9,38.1 36.8,35.9 44.8,24.6 52.8,13.7 60.7,38.3 68.7,6.1 76.6,29.0 84.6,30.9 92.6,5.2 100.5,30.5 108.5,29.9 116.4,9.9 124.4,20.3 132.3,26.1 140.3,55.0 148.3,5.0 156.2,26.6 164.2,16.7 172.1,16.5 180.1,39.7 188.1,7.6 196.0,12.4 204.0,8.6 211.9,23.8 219.9,41.4 227.9,46.0 235.8,49.5 243.8,23.8 251.7,8.3 259.7,35.3 267.7,13.7 275.6,17.9 283.6,25.4 291.5,23.8 299.5,44.0 307.4,15.7 315.4,42.4 323.4,32.4 331.3,18.7 339.3,43.2 347.2,24.9 355.2,19.9 363.2,26.2 371.1,19.6 379.1,46.0 387.0,34.7 395.0,34.9" fill="none" stroke="#58a6ff" stroke-width="1.5"/>
<circle cx="395.0" cy="34.9" r="2.5" fill="#58a6ff"/>
</svg>