<svg xmlns="http://www.w3.org/2000/svg" width="400" height="60">
<rect width="400" height="60" fill="#0d1117" rx="4"/>
<polyline points="5.0,26.8 13.0,53.7 20.9,38.1 28.9,35.9 36.8,24.6 44.8,13.7 52.8,38.3 60.7,6.1 68.7,29.0 76.6,30.9 84.6,5.2 92.6,30.5 100.5,29.9 108.5,9.9 116.4,20.3 124.4,26.1 132.3,55.0 140.3,5.0 148.3,26.6 156.2,16.7 164.2,16.5 172.1,39.7 180.1,7.6 188.1,12.4 196.0,8.6 204.0,23.8 211.9,41.4 219.9,46.0 227.9,49.5 235.8,23.8 243.8,8.3 251.7,35.3 259.7,13.7 267.7,17.9 275.6,25.4 283.6,23.8 291.5,44.0 299.5,15.7 307.4,42.4 315.4,32.4 323.4,18.7 331.3,43.2 339.3,24.9 347.2,19.9 355.2,26.2 363.2,19.6 371.1,46.0 379.1,34.7 387.0,34.9 395.0,38.4" fill="none" stroke="#58a6ff" stroke-width="1.5"/>
<circle cx="395.0" cy="38.4" r="2.5" fill="#58a6ff"/>
</svg>