<svg xmlns="http://www.w3.org/2000/svg" width="400" height="60">
<rect width="400" height="60" fill="#0d1117" rx="4"/>
<polyline points="5.0,26.6 13.0,17.6 20.9,38.6 28.9,5.0 36.8,27.1 44.8,13.8 52.8,34.0 60.7,7.6 68.7,9.1 76.6,25.0 84.6,35.5 92.6,28.8 100.5,46.1 108.5,10.7 116.4,24.4 124.4,18.9 132.3,40.2 140.3,41.5 148.3,18.7 156.2,9.2 164.2,31.0 172.1,23.1 180.1,38.4 188.1,10.9 196.0,32.3 204.0,34.3 211.9,6.5 219.9,27.1 227.9,13.3 235.8,16.8 243.8,35.7 251.7,47.5 259.7,22.5 267.7,35.4 275.6,5.4 283.6,11.9 291.5,25.5 299.5,28.1 307.4,18.5 315.4,19.2 323.4,37.2 331.3,55.0 339.3,42.4 347.2,38.2 355.2,33.1 363.2,7.0 371.1,29.8 379.1,41.9 387.0,23.9 395.0,14.5" fill="none" stroke="#58a6ff" stroke-width="1.5"/>
<circle cx="395.0" cy="14.5" r="2.5" fill="#58a6ff"/>
</svg>