<svg xmlns="http://www.w3.org/2000/svg" width="400" height="60">
<rect width="400" height="60" fill="#0d1117" rx="4"/>
<polyline points="5.0,38.6 13.0,5.0 20.9,27.1 28.9,13.8 36.8,34.0 44.8,7.6 52.8,9.1 60.7,25.0 68.7,35.5 76.6,28.8 84.6,46.1 92.6,10.7 100.5,24.4 108.5,18.9 116.4,40.2 124.4,41.5 132.3,18.7 140.3,9.2 148.3,31.0 156.2,23.1 164.2,38.4 172.1,10.9 180.1,32.3 188.1,34.3 196.0,6.5 204.0,27.1 211.9,13.3 219.9,16.8 227.9,35.7 235.8,47.5 243.8,22.5 251.7,35.4 259.7,5.4 267.7,11.9 275.6,25.5 283.6,28.1 291.5,18.5 299.5,19.2 307.4,37.2 315.4,55.0 323.4,42.4 331.3,38.2 339.3,33.1 347.2,7.0 355.2,29.8 363.2,41.9 371.1,23.9 379.1,14.5 387.0,36.7 395.0,50.0" fill="none" stroke="#58a6ff" stroke-width="1.5"/>
<circle cx="395.0" cy="50.0" r="2.5" fill="#58a6ff"/>
</svg>