<svg xmlns="http://www.w3.org/2000/svg" width="400" height="60">
<rect width="400" height="60" fill="#0d1117" rx="4"/>
<polyline points="5.0,15.9 13.0,33.8 20.9,55.0 28.9,9.3 36.8,26.2 44.8,11.2 52.8,31.5 60.7,14.0 68.7,14.4 76.6,33.8 84.6,21.6 92.6,44.2 100.5,53.9 108.5,15.7 116.4,21.8 124.4,15.4 132.3,35.8 140.3,15.4 148.3,19.0 156.2,39.5 164.2,21.9 172.1,42.9 180.1,30.7 188.1,29.1 196.0,20.3 204.0,11.8 211.9,30.9 219.9,5.8 227.9,23.7 235.8,25.1 243.8,5.1 251.7,24.8 259.7,24.4 267.7,8.9 275.6,16.9 283.6,21.4 291.5,43.9 299.5,5.0 307.4,21.8 315.4,14.1 323.4,14.0 331.3,32.0 339.3,7.0 347.2,10.8 355.2,7.8 363.2,19.6 371.1,33.3 379.1,36.9 387.0,39.6 395.0,19.6" fill="none" stroke="#58a6ff" stroke-width="1.5"/>
<circle cx="395.0" cy="19.6" r="2.5" fill="#58a6ff"/>
</svg>