<svg xmlns="http://www.w3.org/2000/svg" width="400" height="60">
<rect width="400" height="60" fill="#0d1117" rx="4"/>
<polyline points="5.0,15.8 13.0,15.7 20.9,43.3 28.9,5.0 36.8,10.7 44.8,6.1 52.8,24.3 60.7,45.3 68.7,50.8 76.6,55.0 84.6,24.3 92.6,5.8 100.5,38.1 108.5,12.2 116.4,17.3 124.4,26.2 132.3,24.3 140.3,48.4 148.3,14.7 156.2,46.5 164.2,34.6 172.1,18.2 180.1,47.5 188.1,25.6 196.0,19.7 204.0,27.2 211.9,19.3 219.9,50.8 227.9,37.3 235.8,37.6 243.8,41.8 251.7,36.5 259.7,39.2 267.7,42.3 275.6,39.3 283.6,44.9 291.5,28.3 299.5,36.0 307.4,36.2 315.4,26.2 323.4,43.8 331.3,30.5 339.3,37.4 347.2,40.0 355.2,40.0 363.2,36.8 371.1,28.4 379.1,21.0 387.0,48.8 395.0,18.5" fill="none" stroke="#58a6ff" stroke-width="1.5"/>
<circle cx="395.0" cy="18.5" r="2.5" fill="#58a6ff"/>
</svg>