<svg xmlns="http://www.w3.org/2000/svg" width="400" height="60">
<rect width="400" height="60" fill="#0d1117" rx="4"/>
<polyline points="5.0,15.7 13.0,21.6 20.9,15.5 28.9,39.9 36.8,29.4 44.8,29.6 52.8,32.9 60.7,28.8 68.7,30.9 76.6,33.3 84.6,31.0 92.6,35.3 100.5,22.4 108.5,28.4 116.4,28.6 124.4,20.8 132.3,34.5 140.3,24.1 148.3,29.5 156.2,31.5 164.2,31.5 172.1,29.0 180.1,22.5 188.1,16.8 196.0,38.3 204.0,14.8 211.9,23.0 219.9,14.0 227.9,40.4 235.8,26.3 243.8,14.4 251.7,39.3 259.7,31.3 267.7,20.3 275.6,45.9 283.6,5.0 291.5,31.9 299.5,15.7 307.4,40.3 315.4,8.2 323.4,10.0 331.3,29.3 339.3,42.1 347.2,34.0 355.2,55.0 363.2,11.9 371.1,28.6 379.1,21.9 387.0,47.8 395.0,49.4" fill="none" stroke="#58a6ff" stroke-width="1.5"/>
<circle cx="395.0" cy="49.4" r="2.5" fill="#58a6ff"/>
</svg>