<svg xmlns="http://www.w3.org/2000/svg" width="400" height="60">
<rect width="400" height="60" fill="#0d1117" rx="4"/>
<polyline points="5.0,39.5 13.0,31.7 20.9,38.2 28.9,45.6 36.8,19.0 44.8,38.4 52.8,26.9 60.7,45.3 68.7,25.9 76.6,25.8 84.6,45.0 92.6,15.9 100.5,33.8 108.5,55.0 116.4,9.3 124.4,26.2 132.3,11.2 140.3,31.5 148.3,14.0 156.2,14.4 164.2,33.8 172.1,21.6 180.1,44.2 188.1,53.9 196.0,15.7 204.0,21.8 211.9,15.4 219.9,35.8 227.9,15.4 235.8,19.0 243.8,39.5 251.7,21.9 259.7,42.9 267.7,30.7 275.6,29.1 283.6,20.3 291.5,11.8 299.5,30.9 307.4,5.8 315.4,23.7 323.4,25.1 331.3,5.1 339.3,24.8 347.2,24.4 355.2,8.9 363.2,16.9 371.1,21.4 379.1,43.9 387.0,5.0 395.0,21.8" fill="none" stroke="#58a6ff" stroke-width="1.5"/>
<circle cx="395.0" cy="21.8" r="2.5" fill="#58a6ff"/>
</svg>