<svg xmlns="http://www.w3.org/2000/svg" width="400" height="60">
<rect width="400" height="60" fill="#0d1117" rx="4"/>
<polyline points="5.0,14.5 14.5,55.0 24.0,50.9 33.5,32.9 43.0,39.9 52.6,34.9 62.1,24.0 71.6,26.9 81.1,17.5 90.6,20.6 100.1,6.8 109.6,12.8 119.1,16.4 128.7,13.5 138.2,15.9 147.7,18.7 157.2,8.7 166.7,16.0 176.2,11.7 185.7,18.6 195.2,11.3 204.8,11.2 214.3,18.5 223.8,7.5 233.3,14.2 242.8,22.2 252.3,5.0 261.8,11.4 271.3,5.7 280.9,13.4 290.4,6.8 299.9,6.9 309.4,14.2 318.9,9.7 328.4,18.2 337.9,21.8 347.4,7.4 357.0,9.7 366.5,7.3 376.0,15.0 385.5,7.3 395.0,8.7" fill="none" stroke="#58a6ff" stroke-width="1.5"/>
<circle cx="395.0" cy="8.7" r="2.5" fill="#58a6ff"/>
</svg>