<svg xmlns="http://www.w3.org/2000/svg" width="400" height="60">
<rect width="400" height="60" fill="#0d1117" rx="4"/>
<polyline points="5.0,28.2 13.0,21.9 20.9,16.4 28.9,37.3 36.8,14.5 44.8,22.5 52.8,13.7 60.7,39.2 68.7,25.6 76.6,14.1 84.6,38.2 92.6,30.5 100.5,19.9 108.5,44.6 116.4,5.0 124.4,31.1 132.3,15.4 140.3,39.1 148.3,8.1 156.2,9.8 164.2,28.6 172.1,40.9 180.1,33.1 188.1,53.4 196.0,11.7 204.0,27.9 211.9,21.4 219.9,46.5 227.9,48.0 235.8,21.1 243.8,10.0 251.7,35.6 259.7,26.3 267.7,44.3 275.6,11.9 283.6,37.1 291.5,39.5 299.5,6.8 307.4,31.0 315.4,14.8 323.4,18.9 331.3,41.2 339.3,55.0 347.2,25.7 355.2,40.8 363.2,5.4 371.1,13.1 379.1,29.2 387.0,32.2 395.0,21.0" fill="none" stroke="#58a6ff" stroke-width="1.5"/>
<circle cx="395.0" cy="21.0" r="2.5" fill="#58a6ff"/>
</svg>