<svg xmlns="http://www.w3.org/2000/svg" width="400" height="60">
<rect width="400" height="60" fill="#0d1117" rx="4"/>
<polyline points="5.0,26.7 13.0,11.3 20.9,32.1 28.9,14.2 36.8,14.6 44.8,34.4 52.8,22.0 60.7,45.1 68.7,55.0 76.6,16.0 84.6,22.2 92.6,15.7 100.5,36.5 108.5,15.6 116.4,19.4 124.4,40.3 132.3,22.3 140.3,43.8 148.3,31.3 156.2,29.6 164.2,20.6 172.1,12.0 180.1,31.5 188.1,5.9 196.0,24.1 204.0,25.6 211.9,5.1 219.9,25.3 227.9,24.8 235.8,8.9 243.8,17.2 251.7,21.8 259.7,44.8 267.7,5.0 275.6,22.2 283.6,14.3 291.5,14.2 299.5,32.6 307.4,7.1 315.4,10.9 323.4,7.8 331.3,19.9 339.3,34.0 347.2,37.6 355.2,40.4 363.2,19.9 371.1,7.6 379.1,29.2 387.0,11.9 395.0,15.3" fill="none" stroke="#58a6ff" stroke-width="1.5"/>
<circle cx="395.0" cy="15.3" r="2.5" fill="#58a6ff"/>
</svg>