<svg xmlns="http://www.w3.org/2000/svg" width="400" height="60">
<rect width="400" height="60" fill="#0d1117" rx="4"/>
<polyline points="5.0,14.5 13.7,55.0 22.3,50.9 31.0,32.9 39.7,39.9 48.3,34.9 57.0,24.0 65.7,26.9 74.3,17.5 83.0,20.6 91.7,6.8 100.3,12.8 109.0,16.4 117.7,13.5 126.3,15.9 135.0,18.7 143.7,8.7 152.3,16.0 161.0,11.7 169.7,18.6 178.3,11.3 187.0,11.2 195.7,18.5 204.3,7.5 213.0,14.2 221.7,22.2 230.3,5.0 239.0,11.4 247.7,5.7 256.3,13.4 265.0,6.8 273.7,6.9 282.3,14.2 291.0,9.7 299.7,18.2 308.3,21.8 317.0,7.4 325.7,9.7 334.3,7.3 343.0,15.0 351.7,7.3 360.3,8.7 369.0,16.4 377.7,9.8 386.3,17.7 395.0,13.1" fill="none" stroke="#58a6ff" stroke-width="1.5"/>
<circle cx="395.0" cy="13.1" r="2.5" fill="#58a6ff"/>
</svg>