<svg xmlns="http://www.w3.org/2000/svg" width="400" height="60">
<rect width="400" height="60" fill="#0d1117" rx="4"/>
<polyline points="5.0,29.0 13.0,30.9 20.9,5.2 28.9,30.5 36.8,29.9 44.8,9.9 52.8,20.3 60.7,26.1 68.7,55.0 76.6,5.0 84.6,26.6 92.6,16.7 100.5,16.5 108.5,39.7 116.4,7.6 124.4,12.4 132.3,8.6 140.3,23.8 148.3,41.4 156.2,46.0 164.2,49.5 172.1,23.8 180.1,8.3 188.1,35.3 196.0,13.7 204.0,17.9 211.9,25.4 219.9,23.8 227.9,44.0 235.8,15.7 243.8,42.4 251.7,32.4 259.7,18.7 267.7,43.2 275.6,24.9 283.6,19.9 291.5,26.2 299.5,19.6 307.4,46.0 315.4,34.7 323.4,34.9 331.3,38.4 339.3,34.0 347.2,36.3 355.2,38.9 363.2,36.3 371.1,41.0 379.1,27.1 387.0,33.6 395.0,33.7" fill="none" stroke="#58a6ff" stroke-width="1.5"/>
<circle cx="395.0" cy="33.7" r="2.5" fill="#58a6ff"/>
</svg>