<svg xmlns="http://www.w3.org/2000/svg" width="400" height="60">
<rect width="400" height="60" fill="#0d1117" rx="4"/>
<polyline points="5.0,29.9 13.0,39.5 20.9,31.7 28.9,38.2 36.8,45.6 44.8,19.0 52.8,38.4 60.7,26.9 68.7,45.3 76.6,25.9 84.6,25.8 92.6,45.0 100.5,15.9 108.5,33.8 116.4,55.0 124.4,9.3 132.3,26.2 140.3,11.2 148.3,31.5 156.2,14.0 164.2,14.4 172.1,33.8 180.1,21.6 188.1,44.2 196.0,53.9 204.0,15.7 211.9,21.8 219.9,15.4 227.9,35.8 235.8,15.4 243.8,19.0 251.7,39.5 259.7,21.9 267.7,42.9 275.6,30.7 283.6,29.1 291.5,20.3 299.5,11.8 307.4,30.9 315.4,5.8 323.4,23.7 331.3,25.1 339.3,5.1 347.2,24.8 355.2,24.4 363.2,8.9 371.1,16.9 379.1,21.4 387.0,43.9 395.0,5.0" fill="none" stroke="#58a6ff" stroke-width="1.5"/>
<circle cx="395.0" cy="5.0" r="2.5" fill="#58a6ff"/>
</svg>