<svg xmlns="http://www.w3.org/2000/svg" width="400" height="60">
<rect width="400" height="60" fill="#0d1117" rx="4"/>
<polyline points="5.0,22.4 13.0,28.4 20.9,28.6 28.9,20.8 36.8,34.5 44.8,24.1 52.8,29.5 60.7,31.5 68.7,31.5 76.6,29.0 84.6,22.5 92.6,16.8 100.5,38.3 108.5,14.8 116.4,23.0 124.4,14.0 132.3,40.4 140.3,26.3 148.3,14.4 156.2,39.3 164.2,31.3 172.1,20.3 180.1,45.9 188.1,5.0 196.0,31.9 204.0,15.7 211.9,40.3 219.9,8.2 227.9,10.0 235.8,29.3 243.8,42.1 251.7,34.0 259.7,55.0 267.7,11.9 275.6,28.6 283.6,21.9 291.5,47.8 299.5,49.4 307.4,21.6 315.4,10.2 323.4,36.6 331.3,27.0 339.3,45.6 347.2,12.2 355.2,38.2 363.2,40.6 371.1,6.9 379.1,31.9 387.0,15.1 395.0,19.3" fill="none" stroke="#58a6ff" stroke-width="1.5"/>
<circle cx="395.0" cy="19.3" r="2.5" fill="#58a6ff"/>
</svg>