<svg xmlns="http://www.w3.org/2000/svg" width="400" height="60">
<rect width="400" height="60" fill="#0d1117" rx="4"/>
<polyline points="5.0,16.4 13.0,37.3 20.9,14.5 28.9,22.5 36.8,13.7 44.8,39.2 52.8,25.6 60.7,14.1 68.7,38.2 76.6,30.5 84.6,19.9 92.6,44.6 100.5,5.0 108.5,31.1 116.4,15.4 124.4,39.1 132.3,8.1 140.3,9.8 148.3,28.6 156.2,40.9 164.2,33.1 172.1,53.4 180.1,11.7 188.1,27.9 196.0,21.4 204.0,46.5 211.9,48.0 219.9,21.1 227.9,10.0 235.8,35.6 243.8,26.3 251.7,44.3 259.7,11.9 267.7,37.1 275.6,39.5 283.6,6.8 291.5,31.0 299.5,14.8 307.4,18.9 315.4,41.2 323.4,55.0 331.3,25.7 339.3,40.8 347.2,5.4 355.2,13.1 363.2,29.2 371.1,32.2 379.1,21.0 387.0,21.7 395.0,42.9" fill="none" stroke="#58a6ff" stroke-width="1.5"/>
<circle cx="395.0" cy="42.9" r="2.5" fill="#58a6ff"/>
</svg>