<svg xmlns="http://www.w3.org/2000/svg" width="400" height="60">
<rect width="400" height="60" fill="#0d1117" rx="4"/>
<polyline points="5.0,30.9 13.0,5.2 20.9,30.5 28.9,29.9 36.8,9.9 44.8,20.3 52.8,26.1 60.7,55.0 68.7,5.0 76.6,26.6 84.6,16.7 92.6,16.5 100.5,39.7 108.5,7.6 116.4,12.4 124.4,8.6 132.3,23.8 140.3,41.4 148.3,46.0 156.2,49.5 164.2,23.8 172.1,8.3 180.1,35.3 188.1,13.7 196.0,17.9 204.0,25.4 211.9,23.8 219.9,44.0 227.9,15.7 235.8,42.4 243.8,32.4 251.7,18.7 259.7,43.2 267.7,24.9 275.6,19.9 283.6,26.2 291.5,19.6 299.5,46.0 307.4,34.7 315.4,34.9 323.4,38.4 331.3,34.0 339.3,36.3 347.2,38.9 355.2,36.3 363.2,41.0 371.1,27.1 379.1,33.6 387.0,33.7 395.0,25.4" fill="none" stroke="#58a6ff" stroke-width="1.5"/>
<circle cx="395.0" cy="25.4" r="2.5" fill="#58a6ff"/>
</svg>