<svg xmlns="http://www.w3.org/2000/svg" width="400" height="60">
<rect width="400" height="60" fill="#0d1117" rx="4"/>
<polyline points="5.0,10.0 13.0,5.3 20.9,23.8 28.9,45.2 36.8,50.7 44.8,55.0 52.8,23.8 60.7,5.0 68.7,37.8 76.6,11.5 84.6,16.7 92.6,25.8 100.5,23.8 108.5,48.3 116.4,14.0 124.4,46.4 132.3,34.2 140.3,17.6 148.3,47.4 156.2,25.2 164.2,19.1 172.1,26.8 180.1,18.7 188.1,50.8 196.0,37.1 204.0,37.3 211.9,41.6 219.9,36.2 227.9,39.0 235.8,42.1 243.8,39.1 251.7,44.7 259.7,27.8 267.7,35.7 275.6,35.9 283.6,25.7 291.5,43.6 299.5,30.1 307.4,37.1 315.4,39.8 323.4,39.7 331.3,36.5 339.3,27.9 347.2,20.4 355.2,48.7 363.2,17.9 371.1,28.7 379.1,16.8 387.0,51.4 395.0,33.0" fill="none" stroke="#58a6ff" stroke-width="1.5"/>
<circle cx="395.0" cy="33.0" r="2.5" fill="#58a6ff"/>
</svg>