<svg xmlns="http://www.w3.org/2000/svg" width="400" height="60">
<rect width="400" height="60" fill="#0d1117" rx="4"/>
<polyline points="5.0,18.8 13.0,26.6 20.9,18.4 28.9,44.6 36.8,18.3 44.8,23.0 52.8,49.3 60.7,26.8 68.7,53.7 76.6,38.1 84.6,35.9 92.6,24.6 100.5,13.7 108.5,38.3 116.4,6.1 124.4,29.0 132.3,30.9 140.3,5.2 148.3,30.5 156.2,29.9 164.2,9.9 172.1,20.3 180.1,26.1 188.1,55.0 196.0,5.0 204.0,26.6 211.9,16.7 219.9,16.5 227.9,39.7 235.8,7.6 243.8,12.4 251.7,8.6 259.7,23.8 267.7,41.4 275.6,46.0 283.6,49.5 291.5,23.8 299.5,8.3 307.4,35.3 315.4,13.7 323.4,17.9 331.3,25.4 339.3,23.8 347.2,44.0 355.2,15.7 363.2,42.4 371.1,32.4 379.1,18.7 387.0,43.2 395.0,24.9" fill="none" stroke="#58a6ff" stroke-width="1.5"/>
<circle cx="395.0" cy="24.9" r="2.5" fill="#58a6ff"/>
</svg>