<svg xmlns="http://www.w3.org/2000/svg" width="400" height="60">
<rect width="400" height="60" fill="#0d1117" rx="4"/>
<polyline points="5.0,18.4 13.0,44.6 20.9,18.3 28.9,23.0 36.8,49.3 44.8,26.8 52.8,53.7 60.7,38.1 68.7,35.9 76.6,24.6 84.6,13.7 92.6,38.3 100.5,6.1 108.5,29.0 116.4,30.9 124.4,5.2 132.3,30.5 140.3,29.9 148.3,9.9 156.2,20.3 164.2,26.1 172.1,55.0 180.1,5.0 188.1,26.6 196.0,16.7 204.0,16.5 211.9,39.7 219.9,7.6 227.9,12.4 235.8,8.6 243.8,23.8 251.7,41.4 259.7,46.0 267.7,49.5 275.6,23.8 283.6,8.3 291.5,35.3 299.5,13.7 307.4,17.9 315.4,25.4 323.4,23.8 331.3,44.0 339.3,15.7 347.2,42.4 355.2,32.4 363.2,18.7 371.1,43.2 379.1,24.9 387.0,19.9 395.0,26.2" fill="none" stroke="#58a6ff" stroke-width="1.5"/>
<circle cx="395.0" cy="26.2" r="2.5" fill="#58a6ff"/>
</svg>