<svg xmlns="http://www.w3.org/2000/svg" width="400" height="60">
<rect width="400" height="60" fill="#0d1117" rx="4"/>
<polyline points="5.0,20.3 13.0,26.1 20.9,55.0 28.9,5.0 36.8,26.6 44.8,16.7 52.8,16.5 60.7,39.7 68.7,7.6 76.6,12.4 84.6,8.6 92.6,23.8 100.5,41.4 108.5,46.0 116.4,49.5 124.4,23.8 132.3,8.3 140.3,35.3 148.3,13.7 156.2,17.9 164.2,25.4 172.1,23.8 180.1,44.0 188.1,15.7 196.0,42.4 204.0,32.4 211.9,18.7 219.9,43.2 227.9,24.9 235.8,19.9 243.8,26.2 251.7,19.6 259.7,46.0 267.7,34.7 275.6,34.9 283.6,38.4 291.5,34.0 299.5,36.3 307.4,38.9 315.4,36.3 323.4,41.0 331.3,27.1 339.3,33.6 347.2,33.7 355.2,25.4 363.2,40.1 371.1,28.9 379.1,34.7 387.0,36.9 395.0,36.9" fill="none" stroke="#58a6ff" stroke-width="1.5"/>
<circle cx="395.0" cy="36.9" r="2.5" fill="#58a6ff"/>
</svg>