<svg xmlns="http://www.w3.org/2000/svg" width="400" height="60">
<rect width="400" height="60" fill="#0d1117" rx="4"/>
<polyline points="5.0,30.9 13.0,33.3 20.9,31.0 28.9,35.3 36.8,22.4 44.8,28.4 52.8,28.6 60.7,20.8 68.7,34.5 76.6,24.1 84.6,29.5 92.6,31.5 100.5,31.5 108.5,29.0 116.4,22.5 124.4,16.8 132.3,38.3 140.3,14.8 148.3,23.0 156.2,14.0 164.2,40.4 172.1,26.3 180.1,14.4 188.1,39.3 196.0,31.3 204.0,20.3 211.9,45.9 219.9,5.0 227.9,31.9 235.8,15.7 243.8,40.3 251.7,8.2 259.7,10.0 267.7,29.3 275.6,42.1 283.6,34.0 291.5,55.0 299.5,11.9 307.4,28.6 315.4,21.9 323.4,47.8 331.3,49.4 339.3,21.6 347.2,10.2 355.2,36.6 363.2,27.0 371.1,45.6 379.1,12.2 387.0,38.2 395.0,40.6" fill="none" stroke="#58a6ff" stroke-width="1.5"/>
<circle cx="395.0" cy="40.6" r="2.5" fill="#58a6ff"/>
</svg>