<svg xmlns="http://www.w3.org/2000/svg" width="400" height="60">
<rect width="400" height="60" fill="#0d1117" rx="4"/>
<polyline points="5.0,50.7 13.0,13.8 20.9,29.8 28.9,39.4 36.8,31.6 44.8,38.2 52.8,45.6 60.7,18.9 68.7,38.4 76.6,26.9 84.6,45.3 92.6,25.8 100.5,25.7 108.5,45.0 116.4,15.8 124.4,33.7 132.3,55.0 140.3,9.1 148.3,26.1 156.2,11.1 164.2,31.4 172.1,13.9 180.1,14.3 188.1,33.7 196.0,21.5 204.0,44.2 211.9,53.9 219.9,15.6 227.9,21.7 235.8,15.3 243.8,35.8 251.7,15.3 259.7,18.9 267.7,39.5 275.6,21.8 283.6,42.8 291.5,30.7 299.5,29.0 307.4,20.2 315.4,11.7 323.4,30.8 331.3,5.7 339.3,23.6 347.2,25.1 355.2,5.0 363.2,24.7 371.1,24.3 379.1,8.7 387.0,16.8 395.0,21.3" fill="none" stroke="#58a6ff" stroke-width="1.5"/>
<circle cx="395.0" cy="21.3" r="2.5" fill="#58a6ff"/>
</svg>