<svg xmlns="http://www.w3.org/2000/svg" width="400" height="60">
<rect width="400" height="60" fill="#0d1117" rx="4"/>
<polyline points="5.0,14.5 18.4,55.0 31.9,50.9 45.3,32.9 58.8,39.9 72.2,34.9 85.7,24.0 99.1,26.9 112.6,17.5 126.0,20.6 139.5,6.8 152.9,12.8 166.4,16.4 179.8,13.5 193.3,15.9 206.7,18.7 220.2,8.7 233.6,16.0 247.1,11.7 260.5,18.6 274.0,11.3 287.4,11.2 300.9,18.5 314.3,7.5 327.8,14.2 341.2,22.2 354.7,5.0 368.1,11.4 381.6,5.7 395.0,13.4" fill="none" stroke="#58a6ff" stroke-width="1.5"/>
<circle cx="395.0" cy="13.4" r="2.5" fill="#58a6ff"/>
</svg>