<svg xmlns="http://www.w3.org/2000/svg" width="400" height="60">
<rect width="400" height="60" fill="#0d1117" rx="4"/>
<polyline points="5.0,26.9 13.0,45.3 20.9,25.9 28.9,25.8 36.8,45.0 44.8,15.9 52.8,33.8 60.7,55.0 68.7,9.3 76.6,26.2 84.6,11.2 92.6,31.5 100.5,14.0 108.5,14.4 116.4,33.8 124.4,21.6 132.3,44.2 140.3,53.9 148.3,15.7 156.2,21.8 164.2,15.4 172.1,35.8 180.1,15.4 188.1,19.0 196.0,39.5 204.0,21.9 211.9,42.9 219.9,30.7 227.9,29.1 235.8,20.3 243.8,11.8 251.7,30.9 259.7,5.8 267.7,23.7 275.6,25.1 283.6,5.1 291.5,24.8 299.5,24.4 307.4,8.9 315.4,16.9 323.4,21.4 331.3,43.9 339.3,5.0 347.2,21.8 355.2,14.1 363.2,14.0 371.1,32.0 379.1,7.0 387.0,10.8 395.0,7.8" fill="none" stroke="#58a6ff" stroke-width="1.5"/>
<circle cx="395.0" cy="7.8" r="2.5" fill="#58a6ff"/>
</svg>