<svg xmlns="http://www.w3.org/2000/svg" width="400" height="60">
<rect width="400" height="60" fill="#0d1117" rx="4"/>
<polyline points="5.0,30.6 13.0,28.2 20.9,21.9 28.9,16.4 36.8,37.3 44.8,14.5 52.8,22.5 60.7,13.7 68.7,39.2 76.6,25.6 84.6,14.1 92.6,38.2 100.5,30.5 108.5,19.9 116.4,44.6 124.4,5.0 132.3,31.1 140.3,15.4 148.3,39.1 156.2,8.1 164.2,9.8 172.1,28.6 180.1,40.9 188.1,33.1 196.0,53.4 204.0,11.7 211.9,27.9 219.9,21.4 227.9,46.5 235.8,48.0 243.8,21.1 251.7,10.0 259.7,35.6 267.7,26.3 275.6,44.3 283.6,11.9 291.5,37.1 299.5,39.5 307.4,6.8 315.4,31.0 323.4,14.8 331.3,18.9 339.3,41.2 347.2,55.0 355.2,25.7 363.2,40.8 371.1,5.4 379.1,13.1 387.0,29.2 395.0,32.2" fill="none" stroke="#58a6ff" stroke-width="1.5"/>
<circle cx="395.0" cy="32.2" r="2.5" fill="#58a6ff"/>
</svg>