<svg xmlns="http://www.w3.org/2000/svg" width="400" height="60">
<rect width="400" height="60" fill="#0d1117" rx="4"/>
<polyline points="5.0,5.2 13.0,30.5 20.9,29.9 28.9,9.9 36.8,20.3 44.8,26.1 52.8,55.0 60.7,5.0 68.7,26.6 76.6,16.7 84.6,16.5 92.6,39.7 100.5,7.6 108.5,12.4 116.4,8.6 124.4,23.8 132.3,41.4 140.3,46.0 148.3,49.5 156.2,23.8 164.2,8.3 172.1,35.3 180.1,13.7 188.1,17.9 196.0,25.4 204.0,23.8 211.9,44.0 219.9,15.7 227.9,42.4 235.8,32.4 243.8,18.7 251.7,43.2 259.7,24.9 267.7,19.9 275.6,26.2 283.6,19.6 291.5,46.0 299.5,34.7 307.4,34.9 315.4,38.4 323.4,34.0 331.3,36.3 339.3,38.9 347.2,36.3 355.2,41.0 363.2,27.1 371.1,33.6 379.1,33.7 387.0,25.4 395.0,40.1" fill="none" stroke="#58a6ff" stroke-width="1.5"/>
<circle cx="395.0" cy="40.1" r="2.5" fill="#58a6ff"/>
</svg>