<svg xmlns="http://www.w3.org/2000/svg" width="400" height="60">
<rect width="400" height="60" fill="#0d1117" rx="4"/>
<polyline points="5.0,55.0 13.0,9.3 20.9,26.2 28.9,11.2 36.8,31.5 44.8,14.0 52.8,14.4 60.7,33.8 68.7,21.6 76.6,44.2 84.6,53.9 92.6,15.7 100.5,21.8 108.5,15.4 116.4,35.8 124.4,15.4 132.3,19.0 140.3,39.5 148.3,21.9 156.2,42.9 164.2,30.7 172.1,29.1 180.1,20.3 188.1,11.8 196.0,30.9 204.0,5.8 211.9,23.7 219.9,25.1 227.9,5.1 235.8,24.8 243.8,24.4 251.7,8.9 259.7,16.9 267.7,21.4 275.6,43.9 283.6,5.0 291.5,21.8 299.5,14.1 307.4,14.0 315.4,32.0 323.4,7.0 331.3,10.8 339.3,7.8 347.2,19.6 355.2,33.3 363.2,36.9 371.1,39.6 379.1,19.6 387.0,7.6 395.0,28.6" fill="none" stroke="#58a6ff" stroke-width="1.5"/>
<circle cx="395.0" cy="28.6" r="2.5" fill="#58a6ff"/>
</svg>