<svg xmlns="http://www.w3.org/2000/svg" width="400" height="60">
<rect width="400" height="60" fill="#0d1117" rx="4"/>
<polyline points="5.0,38.3 13.0,6.1 20.9,29.0 28.9,30.9 36.8,5.2 44.8,30.5 52.8,29.9 60.7,9.9 68.7,20.3 76.6,26.1 84.6,55.0 92.6,5.0 100.5,26.6 108.5,16.7 116.4,16.5 124.4,39.7 132.3,7.6 140.3,12.4 148.3,8.6 156.2,23.8 164.2,41.4 172.1,46.0 180.1,49.5 188.1,23.8 196.0,8.3 204.0,35.3 211.9,13.7 219.9,17.9 227.9,25.4 235.8,23.8 243.8,44.0 251.7,15.7 259.7,42.4 267.7,32.4 275.6,18.7 283.6,43.2 291.5,24.9 299.5,19.9 307.4,26.2 315.4,19.6 323.4,46.0 331.3,34.7 339.3,34.9 347.2,38.4 355.2,34.0 363.2,36.3 371.1,38.9 379.1,36.3 387.0,41.0 395.0,27.1" fill="none" stroke="#58a6ff" stroke-width="1.5"/>
<circle cx="395.0" cy="27.1" r="2.5" fill="#58a6ff"/>
</svg>