<svg xmlns="http://www.w3.org/2000/svg" width="400" height="60">
<rect width="400" height="60" fill="#0d1117" rx="4"/>
<polyline points="5.0,14.5 16.8,55.0 28.6,50.9 40.5,32.9 52.3,39.9 64.1,34.9 75.9,24.0 87.7,26.9 99.5,17.5 111.4,20.6 123.2,6.8 135.0,12.8 146.8,16.4 158.6,13.5 170.5,15.9 182.3,18.7 194.1,8.7 205.9,16.0 217.7,11.7 229.5,18.6 241.4,11.3 253.2,11.2 265.0,18.5 276.8,7.5 288.6,14.2 300.5,22.2 312.3,5.0 324.1,11.4 335.9,5.7 347.7,13.4 359.5,6.8 371.4,6.9 383.2,14.2 395.0,9.7" fill="none" stroke="#58a6ff" stroke-width="1.5"/>
<circle cx="395.0" cy="9.7" r="2.5" fill="#58a6ff"/>
</svg>