<svg xmlns="http://www.w3.org/2000/svg" width="400" height="60">
<rect width="400" height="60" fill="#0d1117" rx="4"/>
<polyline points="5.0,34.1 13.0,22.5 20.9,12.7 28.9,33.2 36.8,26.6 44.8,17.6 52.8,38.6 60.7,5.0 68.7,27.1 76.6,13.8 84.6,34.0 92.6,7.6 100.5,9.1 108.5,25.0 116.4,35.5 124.4,28.8 132.3,46.1 140.3,10.7 148.3,24.4 156.2,18.9 164.2,40.2 172.1,41.5 180.1,18.7 188.1,9.2 196.0,31.0 204.0,23.1 211.9,38.4 219.9,10.9 227.9,32.3 235.8,34.3 243.8,6.5 251.7,27.1 259.7,13.3 267.7,16.8 275.6,35.7 283.6,47.5 291.5,22.5 299.5,35.4 307.4,5.4 315.4,11.9 323.4,25.5 331.3,28.1 339.3,18.5 347.2,19.2 355.2,37.2 363.2,55.0 371.1,42.4 379.1,38.2 387.0,33.1 395.0,7.0" fill="none" stroke="#58a6ff" stroke-width="1.5"/>
<circle cx="395.0" cy="7.0" r="2.5" fill="#58a6ff"/>
</svg>