<svg xmlns="http://www.w3.org/2000/svg" width="400" height="60">
<rect width="400" height="60" fill="#0d1117" rx="4"/>
<polyline points="5.0,55.0 13.0,48.1 20.9,33.2 28.9,37.2 36.8,24.2 44.8,28.6 52.8,9.5 60.7,17.8 68.7,22.8 76.6,18.7 84.6,22.1 92.6,25.9 100.5,12.2 108.5,22.2 116.4,16.3 124.4,25.8 132.3,15.7 140.3,15.7 148.3,25.6 156.2,10.6 164.2,19.8 172.1,30.8 180.1,7.1 188.1,15.9 196.0,8.1 204.0,18.6 211.9,9.6 219.9,9.8 227.9,19.8 235.8,13.5 243.8,25.2 251.7,30.2 259.7,10.5 267.7,13.6 275.6,10.3 283.6,20.9 291.5,10.3 299.5,12.2 307.4,22.8 315.4,13.7 323.4,24.5 331.3,18.2 339.3,17.4 347.2,12.8 355.2,8.4 363.2,18.3 371.1,5.4 379.1,14.6 387.0,15.3 395.0,5.0" fill="none" stroke="#58a6ff" stroke-width="1.5"/>
<circle cx="395.0" cy="5.0" r="2.5" fill="#58a6ff"/>
</svg>