<svg xmlns="http://www.w3.org/2000/svg" width="400" height="60">
<rect width="400" height="60" fill="#0d1117" rx="4"/>
<polyline points="5.0,14.5 14.8,55.0 24.5,50.9 34.2,32.9 44.0,39.9 53.8,34.9 63.5,24.0 73.2,26.9 83.0,17.5 92.8,20.6 102.5,6.8 112.3,12.8 122.0,16.4 131.8,13.5 141.5,15.9 151.2,18.7 161.0,8.7 170.8,16.0 180.5,11.7 190.2,18.6 200.0,11.3 209.8,11.2 219.5,18.5 229.2,7.5 239.0,14.2 248.8,22.2 258.5,5.0 268.2,11.4 278.0,5.7 287.8,13.4 297.5,6.8 307.2,6.9 317.0,14.2 326.8,9.7 336.5,18.2 346.2,21.8 356.0,7.4 365.8,9.7 375.5,7.3 385.2,15.0 395.0,7.3" fill="none" stroke="#58a6ff" stroke-width="1.5"/>
<circle cx="395.0" cy="7.3" r="2.5" fill="#58a6ff"/>
</svg>