<svg xmlns="http://www.w3.org/2000/svg" width="400" height="60">
<rect width="400" height="60" fill="#0d1117" rx="4"/>
<polyline points="5.0,9.3 13.0,26.7 20.9,11.3 28.9,32.1 36.8,14.2 44.8,14.6 52.8,34.4 60.7,22.0 68.7,45.1 76.6,55.0 84.6,16.0 92.6,22.2 100.5,15.7 108.5,36.5 116.4,15.6 124.4,19.4 132.3,40.3 140.3,22.3 148.3,43.8 156.2,31.3 164.2,29.6 172.1,20.6 180.1,12.0 188.1,31.5 196.0,5.9 204.0,24.1 211.9,25.6 219.9,5.1 227.9,25.3 235.8,24.8 243.8,8.9 251.7,17.2 259.7,21.8 267.7,44.8 275.6,5.0 283.6,22.2 291.5,14.3 299.5,14.2 307.4,32.6 315.4,7.1 323.4,10.9 331.3,7.8 339.3,19.9 347.2,34.0 355.2,37.6 363.2,40.4 371.1,19.9 379.1,7.6 387.0,29.2 395.0,11.9" fill="none" stroke="#58a6ff" stroke-width="1.5"/>
<circle cx="395.0" cy="11.9" r="2.5" fill="#58a6ff"/>
</svg>