<svg xmlns="http://www.w3.org/2000/svg" width="400" height="60">
<rect width="400" height="60" fill="#0d1117" rx="4"/>
<polyline points="5.0,33.3 13.0,31.0 20.9,35.3 28.9,22.4 36.8,28.4 44.8,28.6 52.8,20.8 60.7,34.5 68.7,24.1 76.6,29.5 84.6,31.5 92.6,31.5 100.5,29.0 108.5,22.5 116.4,16.8 124.4,38.3 132.3,14.8 140.3,23.0 148.3,14.0 156.2,40.4 164.2,26.3 172.1,14.4 180.1,39.3 188.1,31.3 196.0,20.3 204.0,45.9 211.9,5.0 219.9,31.9 227.9,15.7 235.8,40.3 243.8,8.2 251.7,10.0 259.7,29.3 267.7,42.1 275.6,34.0 283.6,55.0 291.5,11.9 299.5,28.6 307.4,21.9 315.4,47.8 323.4,49.4 331.3,21.6 339.3,10.2 347.2,36.6 355.2,27.0 363.2,45.6 371.1,12.2 379.1,38.2 387.0,40.6 395.0,6.9" fill="none" stroke="#58a6ff" stroke-width="1.5"/>
<circle cx="395.0" cy="6.9" r="2.5" fill="#58a6ff"/>
</svg>