<svg xmlns="http://www.w3.org/2000/svg" width="400" height="60">
<rect width="400" height="60" fill="#0d1117" rx="4"/>
<polyline points="5.0,27.7 13.0,15.8 20.9,15.7 28.9,43.3 36.8,5.0 44.8,10.7 52.8,6.1 60.7,24.3 68.7,45.3 76.6,50.8 84.6,55.0 92.6,24.3 100.5,5.8 108.5,38.1 116.4,12.2 124.4,17.3 132.3,26.2 140.3,24.3 148.3,48.4 156.2,14.7 164.2,46.5 172.1,34.6 180.1,18.2 188.1,47.5 196.0,25.6 204.0,19.7 211.9,27.2 219.9,19.3 227.9,50.8 235.8,37.3 243.8,37.6 251.7,41.8 259.7,36.5 267.7,39.2 275.6,42.3 283.6,39.3 291.5,44.9 299.5,28.3 307.4,36.0 315.4,36.2 323.4,26.2 331.3,43.8 339.3,30.5 347.2,37.4 355.2,40.0 363.2,40.0 371.1,36.8 379.1,28.4 387.0,21.0 395.0,48.8" fill="none" stroke="#58a6ff" stroke-width="1.5"/>
<circle cx="395.0" cy="48.8" r="2.5" fill="#58a6ff"/>
</svg>