<svg xmlns="http://www.w3.org/2000/svg" width="400" height="60">
<rect width="400" height="60" fill="#0d1117" rx="4"/>
<polyline points="5.0,32.4 13.0,13.1 20.9,19.8 28.9,12.4 36.8,34.1 44.8,22.5 52.8,12.7 60.7,33.2 68.7,26.6 76.6,17.6 84.6,38.6 92.6,5.0 100.5,27.1 108.5,13.8 116.4,34.0 124.4,7.6 132.3,9.1 140.3,25.0 148.3,35.5 156.2,28.8 164.2,46.1 172.1,10.7 180.1,24.4 188.1,18.9 196.0,40.2 204.0,41.5 211.9,18.7 219.9,9.2 227.9,31.0 235.8,23.1 243.8,38.4 251.7,10.9 259.7,32.3 267.7,34.3 275.6,6.5 283.6,27.1 291.5,13.3 299.5,16.8 307.4,35.7 315.4,47.5 323.4,22.5 331.3,35.4 339.3,5.4 347.2,11.9 355.2,25.5 363.2,28.1 371.1,18.5 379.1,19.2 387.0,37.2 395.0,55.0" fill="none" stroke="#58a6ff" stroke-width="1.5"/>
<circle cx="395.0" cy="55.0" r="2.5" fill="#58a6ff"/>
</svg>