<svg xmlns="http://www.w3.org/2000/svg" width="400" height="60">
<rect width="400" height="60" fill="#0d1117" rx="4"/>
<polyline points="5.0,33.8 13.0,7.3 20.9,8.7 28.9,24.8 36.8,35.3 44.8,28.6 52.8,46.0 60.7,10.3 68.7,24.2 76.6,18.6 84.6,40.1 92.6,41.4 100.5,18.4 108.5,8.9 116.4,30.8 124.4,22.9 132.3,38.2 140.3,10.6 148.3,32.1 156.2,34.1 164.2,6.2 172.1,26.9 180.1,13.0 188.1,16.5 196.0,35.6 204.0,47.4 211.9,22.3 219.9,35.2 227.9,5.0 235.8,11.6 243.8,25.3 251.7,27.9 259.7,18.3 267.7,18.9 275.6,37.1 283.6,55.0 291.5,42.3 299.5,38.1 307.4,32.9 315.4,6.7 323.4,29.6 331.3,41.8 339.3,23.7 347.2,14.2 355.2,36.6 363.2,49.9 371.1,11.6 379.1,29.2 387.0,27.0 395.0,33.6" fill="none" stroke="#58a6ff" stroke-width="1.5"/>
<circle cx="395.0" cy="33.6" r="2.5" fill="#58a6ff"/>
</svg>