<svg xmlns="http://www.w3.org/2000/svg" width="400" height="60">
<rect width="400" height="60" fill="#0d1117" rx="4"/>
<polyline points="5.0,31.7 13.0,38.2 20.9,45.6 28.9,19.0 36.8,38.4 44.8,26.9 52.8,45.3 60.7,25.9 68.7,25.8 76.6,45.0 84.6,15.9 92.6,33.8 100.5,55.0 108.5,9.3 116.4,26.2 124.4,11.2 132.3,31.5 140.3,14.0 148.3,14.4 156.2,33.8 164.2,21.6 172.1,44.2 180.1,53.9 188.1,15.7 196.0,21.8 204.0,15.4 211.9,35.8 219.9,15.4 227.9,19.0 235.8,39.5 243.8,21.9 251.7,42.9 259.7,30.7 267.7,29.1 275.6,20.3 283.6,11.8 291.5,30.9 299.5,5.8 307.4,23.7 315.4,25.1 323.4,5.1 331.3,24.8 339.3,24.4 347.2,8.9 355.2,16.9 363.2,21.4 371.1,43.9 379.1,5.0 387.0,21.8 395.0,14.1" fill="none" stroke="#58a6ff" stroke-width="1.5"/>
<circle cx="395.0" cy="14.1" r="2.5" fill="#58a6ff"/>
</svg>