<svg xmlns="http://www.w3.org/2000/svg" width="400" height="60">
<rect width="400" height="60" fill="#0d1117" rx="4"/>
<polyline points="5.0,11.1 13.0,15.9 20.9,24.3 28.9,22.5 36.8,45.4 44.8,13.4 52.8,43.6 60.7,32.2 68.7,16.7 76.6,44.5 84.6,23.8 92.6,18.1 100.5,25.3 108.5,17.8 116.4,47.6 124.4,34.9 132.3,35.1 140.3,39.1 148.3,34.0 156.2,36.6 164.2,39.6 172.1,36.7 180.1,42.0 188.1,26.2 196.0,33.6 204.0,33.8 211.9,24.3 219.9,41.0 227.9,28.3 235.8,34.9 243.8,37.4 251.7,37.4 259.7,34.3 267.7,26.3 275.6,19.4 283.6,45.7 291.5,17.0 299.5,27.0 307.4,15.9 315.4,48.2 323.4,31.0 331.3,16.5 339.3,46.9 347.2,37.1 355.2,23.7 363.2,55.0 371.1,5.0 379.1,37.9 387.0,18.1 395.0,48.1" fill="none" stroke="#58a6ff" stroke-width="1.5"/>
<circle cx="395.0" cy="48.1" r="2.5" fill="#58a6ff"/>
</svg>