<svg xmlns="http://www.w3.org/2000/svg" width="400" height="60">
<rect width="400" height="60" fill="#0d1117" rx="4"/>
<polyline points="5.0,48.7 13.0,55.0 20.9,34.8 28.9,41.6 36.8,12.0 44.8,24.9 52.8,32.5 60.7,26.3 68.7,31.5 76.6,37.5 84.6,16.1 92.6,31.7 100.5,22.5 108.5,37.2 116.4,21.6 124.4,21.5 132.3,37.0 140.3,13.6 148.3,28.0 156.2,45.0 164.2,8.3 172.1,21.9 180.1,9.8 188.1,26.1 196.0,12.1 204.0,12.4 211.9,27.9 219.9,18.2 227.9,36.3 235.8,44.1 243.8,13.5 251.7,18.4 259.7,13.3 267.7,29.6 275.6,13.2 283.6,16.2 291.5,32.6 299.5,18.5 307.4,35.3 315.4,25.5 323.4,24.2 331.3,17.1 339.3,10.3 347.2,25.7 355.2,5.6 363.2,19.8 371.1,21.0 379.1,5.0 387.0,20.8 395.0,20.4" fill="none" stroke="#58a6ff" stroke-width="1.5"/>
<circle cx="395.0" cy="20.4" r="2.5" fill="#58a6ff"/>
</svg>