<svg xmlns="http://www.w3.org/2000/svg" width="400" height="60">
<rect width="400" height="60" fill="#0d1117" rx="4"/>
<polyline points="5.0,14.5 14.1,55.0 23.1,50.9 32.2,32.9 41.3,39.9 50.3,34.9 59.4,24.0 68.5,26.9 77.6,17.5 86.6,20.6 95.7,6.8 104.8,12.8 113.8,16.4 122.9,13.5 132.0,15.9 141.0,18.7 150.1,8.7 159.2,16.0 168.3,11.7 177.3,18.6 186.4,11.3 195.5,11.2 204.5,18.5 213.6,7.5 222.7,14.2 231.7,22.2 240.8,5.0 249.9,11.4 259.0,5.7 268.0,13.4 277.1,6.8 286.2,6.9 295.2,14.2 304.3,9.7 313.4,18.2 322.4,21.8 331.5,7.4 340.6,9.7 349.7,7.3 358.7,15.0 367.8,7.3 376.9,8.7 385.9,16.4 395.0,9.8" fill="none" stroke="#58a6ff" stroke-width="1.5"/>
<circle cx="395.0" cy="9.8" r="2.5" fill="#58a6ff"/>
</svg>