<svg xmlns="http://www.w3.org/2000/svg" width="400" height="60">
<rect width="400" height="60" fill="#0d1117" rx="4"/>
<polyline points="5.0,45.4 13.0,55.0 20.9,48.1 28.9,33.0 36.8,37.1 44.8,24.0 52.8,28.4 60.7,9.2 68.7,17.5 76.6,22.5 84.6,18.5 92.6,21.9 100.5,25.7 108.5,11.9 116.4,22.0 124.4,16.0 132.3,25.6 140.3,15.4 148.3,15.4 156.2,25.4 164.2,10.2 172.1,19.6 180.1,30.6 188.1,6.8 196.0,15.6 204.0,7.8 211.9,18.4 219.9,9.2 227.9,9.5 235.8,19.5 243.8,13.2 251.7,25.0 259.7,30.0 267.7,10.1 275.6,13.3 283.6,10.0 291.5,20.6 299.5,10.0 307.4,11.9 315.4,22.5 323.4,13.4 331.3,24.3 339.3,18.0 347.2,17.1 355.2,12.5 363.2,8.1 371.1,18.1 379.1,5.0 387.0,14.3 395.0,15.1" fill="none" stroke="#58a6ff" stroke-width="1.5"/>
<circle cx="395.0" cy="15.1" r="2.5" fill="#58a6ff"/>
</svg>