<svg xmlns="http://www.w3.org/2000/svg" width="400" height="60">
<rect width="400" height="60" fill="#0d1117" rx="4"/>
<polyline points="5.0,22.5 13.0,5.0 20.9,35.6 28.9,11.1 36.8,15.9 44.8,24.3 52.8,22.5 60.7,45.4 68.7,13.4 76.6,43.6 84.6,32.2 92.6,16.7 100.5,44.5 108.5,23.8 116.4,18.1 124.4,25.3 132.3,17.8 140.3,47.6 148.3,34.9 156.2,35.1 164.2,39.1 172.1,34.0 180.1,36.6 188.1,39.6 196.0,36.7 204.0,42.0 211.9,26.3 219.9,33.6 227.9,33.8 235.8,24.3 243.8,41.0 251.7,28.3 259.7,34.9 267.7,37.4 275.6,37.4 283.6,34.3 291.5,26.4 299.5,19.4 307.4,45.7 315.4,17.0 323.4,27.0 331.3,16.0 339.3,48.2 347.2,31.1 355.2,16.5 363.2,46.9 371.1,37.2 379.1,23.8 387.0,55.0 395.0,5.0" fill="none" stroke="#58a6ff" stroke-width="1.5"/>
<circle cx="395.0" cy="5.0" r="2.5" fill="#58a6ff"/>
</svg>