<svg xmlns="http://www.w3.org/2000/svg" width="400" height="60">
<rect width="400" height="60" fill="#0d1117" rx="4"/>
<polyline points="5.0,12.7 13.0,33.2 20.9,26.6 28.9,17.6 36.8,38.6 44.8,5.0 52.8,27.1 60.7,13.8 68.7,34.0 76.6,7.6 84.6,9.1 92.6,25.0 100.5,35.5 108.5,28.8 116.4,46.1 124.4,10.7 132.3,24.4 140.3,18.9 148.3,40.2 156.2,41.5 164.2,18.7 172.1,9.2 180.1,31.0 188.1,23.1 196.0,38.4 204.0,10.9 211.9,32.3 219.9,34.3 227.9,6.5 235.8,27.1 243.8,13.3 251.7,16.8 259.7,35.7 267.7,47.5 275.6,22.5 283.6,35.4 291.5,5.4 299.5,11.9 307.4,25.5 315.4,28.1 323.4,18.5 331.3,19.2 339.3,37.2 347.2,55.0 355.2,42.4 363.2,38.2 371.1,33.1 379.1,7.0 387.0,29.8 395.0,41.9" fill="none" stroke="#58a6ff" stroke-width="1.5"/>
<circle cx="395.0" cy="41.9" r="2.5" fill="#58a6ff"/>
</svg>