<svg xmlns="http://www.w3.org/2000/svg" width="400" height="60">
<rect width="400" height="60" fill="#0d1117" rx="4"/>
<polyline points="5.0,20.3 13.0,33.5 20.9,23.5 28.9,28.7 36.8,30.7 44.8,30.6 52.8,28.2 60.7,21.9 68.7,16.4 76.6,37.3 84.6,14.5 92.6,22.5 100.5,13.7 108.5,39.2 116.4,25.6 124.4,14.1 132.3,38.2 140.3,30.5 148.3,19.9 156.2,44.6 164.2,5.0 172.1,31.1 180.1,15.4 188.1,39.1 196.0,8.1 204.0,9.8 211.9,28.6 219.9,40.9 227.9,33.1 235.8,53.4 243.8,11.7 251.7,27.9 259.7,21.4 267.7,46.5 275.6,48.0 283.6,21.1 291.5,10.0 299.5,35.6 307.4,26.3 315.4,44.3 323.4,11.9 331.3,37.1 339.3,39.5 347.2,6.8 355.2,31.0 363.2,14.8 371.1,18.9 379.1,41.2 387.0,55.0 395.0,25.7" fill="none" stroke="#58a6ff" stroke-width="1.5"/>
<circle cx="395.0" cy="25.7" r="2.5" fill="#58a6ff"/>
</svg>