<svg xmlns="http://www.w3.org/2000/svg" width="400" height="60">
<rect width="400" height="60" fill="#0d1117" rx="4"/>
<polyline points="5.0,35.3 13.0,22.4 20.9,28.4 28.9,28.6 36.8,20.8 44.8,34.5 52.8,24.1 60.7,29.5 68.7,31.5 76.6,31.5 84.6,29.0 92.6,22.5 100.5,16.8 108.5,38.3 116.4,14.8 124.4,23.0 132.3,14.0 140.3,40.4 148.3,26.3 156.2,14.4 164.2,39.3 172.1,31.3 180.1,20.3 188.1,45.9 196.0,5.0 204.0,31.9 211.9,15.7 219.9,40.3 227.9,8.2 235.8,10.0 243.8,29.3 251.7,42.1 259.7,34.0 267.7,55.0 275.6,11.9 283.6,28.6 291.5,21.9 299.5,47.8 307.4,49.4 315.4,21.6 323.4,10.2 331.3,36.6 339.3,27.0 347.2,45.6 355.2,12.2 363.2,38.2 371.1,40.6 379.1,6.9 387.0,31.9 395.0,15.1" fill="none" stroke="#58a6ff" stroke-width="1.5"/>
<circle cx="395.0" cy="15.1" r="2.5" fill="#58a6ff"/>
</svg>