<svg xmlns="http://www.w3.org/2000/svg" width="400" height="60">
<rect width="400" height="60" fill="#0d1117" rx="4"/>
<polyline points="5.0,19.8 13.0,12.4 20.9,34.1 28.9,22.5 36.8,12.7 44.8,33.2 52.8,26.6 60.7,17.6 68.7,38.6 76.6,5.0 84.6,27.1 92.6,13.8 100.5,34.0 108.5,7.6 116.4,9.1 124.4,25.0 132.3,35.5 140.3,28.8 148.3,46.1 156.2,10.7 164.2,24.4 172.1,18.9 180.1,40.2 188.1,41.5 196.0,18.7 204.0,9.2 211.9,31.0 219.9,23.1 227.9,38.4 235.8,10.9 243.8,32.3 251.7,34.3 259.7,6.5 267.7,27.1 275.6,13.3 283.6,16.8 291.5,35.7 299.5,47.5 307.4,22.5 315.4,35.4 323.4,5.4 331.3,11.9 339.3,25.5 347.2,28.1 355.2,18.5 363.2,19.2 371.1,37.2 379.1,55.0 387.0,42.4 395.0,38.2" fill="none" stroke="#58a6ff" stroke-width="1.5"/>
<circle cx="395.0" cy="38.2" r="2.5" fill="#58a6ff"/>
</svg>