<svg xmlns="http://www.w3.org/2000/svg" width="400" height="60">
<rect width="400" height="60" fill="#0d1117" rx="4"/>
<polyline points="5.0,15.9 13.0,24.3 20.9,22.5 28.9,45.4 36.8,13.4 44.8,43.6 52.8,32.2 60.7,16.7 68.7,44.5 76.6,23.8 84.6,18.1 92.6,25.3 100.5,17.8 108.5,47.6 116.4,34.9 124.4,35.1 132.3,39.1 140.3,34.0 148.3,36.6 156.2,39.6 164.2,36.7 172.1,42.0 180.1,26.2 188.1,33.6 196.0,33.8 204.0,24.3 211.9,41.0 219.9,28.3 227.9,34.9 235.8,37.4 243.8,37.4 251.7,34.3 259.7,26.3 267.7,19.4 275.6,45.7 283.6,17.0 291.5,27.0 299.5,15.9 307.4,48.2 315.4,31.0 323.4,16.5 331.3,46.9 339.3,37.1 347.2,23.7 355.2,55.0 363.2,5.0 371.1,37.9 379.1,18.1 387.0,48.1 395.0,8.9" fill="none" stroke="#58a6ff" stroke-width="1.5"/>
<circle cx="395.0" cy="8.9" r="2.5" fill="#58a6ff"/>
</svg>