<svg xmlns="http://www.w3.org/2000/svg" width="400" height="60">
<rect width="400" height="60" fill="#0d1117" rx="4"/>
<polyline points="5.0,25.9 13.0,25.8 20.9,45.0 28.9,15.9 36.8,33.8 44.8,55.0 52.8,9.3 60.7,26.2 68.7,11.2 76.6,31.5 84.6,14.0 92.6,14.4 100.5,33.8 108.5,21.6 116.4,44.2 124.4,53.9 132.3,15.7 140.3,21.8 148.3,15.4 156.2,35.8 164.2,15.4 172.1,19.0 180.1,39.5 188.1,21.9 196.0,42.9 204.0,30.7 211.9,29.1 219.9,20.3 227.9,11.8 235.8,30.9 243.8,5.8 251.7,23.7 259.7,25.1 267.7,5.1 275.6,24.8 283.6,24.4 291.5,8.9 299.5,16.9 307.4,21.4 315.4,43.9 323.4,5.0 331.3,21.8 339.3,14.1 347.2,14.0 355.2,32.0 363.2,7.0 371.1,10.8 379.1,7.8 387.0,19.6 395.0,33.3" fill="none" stroke="#58a6ff" stroke-width="1.5"/>
<circle cx="395.0" cy="33.3" r="2.5" fill="#58a6ff"/>
</svg>