<svg xmlns="http://www.w3.org/2000/svg" width="400" height="60">
<rect width="400" height="60" fill="#0d1117" rx="4"/>
<polyline points="5.0,55.0 13.0,51.0 20.9,33.5 28.9,40.2 36.8,35.4 44.8,24.8 52.8,27.6 60.7,18.4 68.7,21.5 76.6,8.0 84.6,13.8 92.6,17.4 100.5,14.5 108.5,16.9 116.4,19.6 124.4,9.8 132.3,17.0 140.3,12.7 148.3,19.5 156.2,12.4 164.2,12.3 172.1,19.4 180.1,8.7 188.1,15.3 196.0,23.1 204.0,6.3 211.9,12.5 219.9,7.0 227.9,14.4 235.8,8.0 243.8,8.1 251.7,15.2 259.7,10.8 267.7,19.1 275.6,22.6 283.6,8.6 291.5,10.9 299.5,8.5 307.4,16.0 315.4,8.5 323.4,9.8 331.3,17.4 339.3,10.9 347.2,18.6 355.2,14.1 363.2,13.5 371.1,10.3 379.1,7.2 387.0,14.2 395.0,5.0" fill="none" stroke="#58a6ff" stroke-width="1.5"/>
<circle cx="395.0" cy="5.0" r="2.5" fill="#58a6ff"/>
</svg>