<svg xmlns="http://www.w3.org/2000/svg" width="400" height="60">
<rect width="400" height="60" fill="#0d1117" rx="4"/>
<polyline points="5.0,14.5 18.9,55.0 32.9,50.9 46.8,32.9 60.7,39.9 74.6,34.9 88.6,24.0 102.5,26.9 116.4,17.5 130.4,20.6 144.3,6.8 158.2,12.8 172.1,16.4 186.1,13.5 200.0,15.9 213.9,18.7 227.9,8.7 241.8,16.0 255.7,11.7 269.6,18.6 283.6,11.3 297.5,11.2 311.4,18.5 325.4,7.5 339.3,14.2 353.2,22.2 367.1,5.0 381.1,11.4 395.0,5.7" fill="none" stroke="#58a6ff" stroke-width="1.5"/>
<circle cx="395.0" cy="5.7" r="2.5" fill="#58a6ff"/>
</svg>