<svg xmlns="http://www.w3.org/2000/svg" width="400" height="60">
<rect width="400" height="60" fill="#0d1117" rx="4"/>
<polyline points="5.0,24.6 13.0,13.7 20.9,38.3 28.9,6.1 36.8,29.0 44.8,30.9 52.8,5.2 60.7,30.5 68.7,29.9 76.6,9.9 84.6,20.3 92.6,26.1 100.5,55.0 108.5,5.0 116.4,26.6 124.4,16.7 132.3,16.5 140.3,39.7 148.3,7.6 156.2,12.4 164.2,8.6 172.1,23.8 180.1,41.4 188.1,46.0 196.0,49.5 204.0,23.8 211.9,8.3 219.9,35.3 227.9,13.7 235.8,17.9 243.8,25.4 251.7,23.8 259.7,44.0 267.7,15.7 275.6,42.4 283.6,32.4 291.5,18.7 299.5,43.2 307.4,24.9 315.4,19.9 323.4,26.2 331.3,19.6 339.3,46.0 347.2,34.7 355.2,34.9 363.2,38.4 371.1,34.0 379.1,36.3 387.0,38.9 395.0,36.3" fill="none" stroke="#58a6ff" stroke-width="1.5"/>
<circle cx="395.0" cy="36.3" r="2.5" fill="#58a6ff"/>
</svg>