<svg xmlns="http://www.w3.org/2000/svg" width="400" height="60">
<rect width="400" height="60" fill="#0d1117" rx="4"/>
<polyline points="5.0,23.5 13.0,28.7 20.9,30.7 28.9,30.6 36.8,28.2 44.8,21.9 52.8,16.4 60.7,37.3 68.7,14.5 76.6,22.5 84.6,13.7 92.6,39.2 100.5,25.6 108.5,14.1 116.4,38.2 124.4,30.5 132.3,19.9 140.3,44.6 148.3,5.0 156.2,31.1 164.2,15.4 172.1,39.1 180.1,8.1 188.1,9.8 196.0,28.6 204.0,40.9 211.9,33.1 219.9,53.4 227.9,11.7 235.8,27.9 243.8,21.4 251.7,46.5 259.7,48.0 267.7,21.1 275.6,10.0 283.6,35.6 291.5,26.3 299.5,44.3 307.4,11.9 315.4,37.1 323.4,39.5 331.3,6.8 339.3,31.0 347.2,14.8 355.2,18.9 363.2,41.2 371.1,55.0 379.1,25.7 387.0,40.8 395.0,5.4" fill="none" stroke="#58a6ff" stroke-width="1.5"/>
<circle cx="395.0" cy="5.4" r="2.5" fill="#58a6ff"/>
</svg>