<svg xmlns="http://www.w3.org/2000/svg" width="400" height="60">
<rect width="400" height="60" fill="#0d1117" rx="4"/>
<polyline points="5.0,22.0 13.0,45.1 20.9,55.0 28.9,16.0 36.8,22.2 44.8,15.7 52.8,36.5 60.7,15.6 68.7,19.4 76.6,40.3 84.6,22.3 92.6,43.8 100.5,31.3 108.5,29.6 116.4,20.6 124.4,12.0 132.3,31.5 140.3,5.9 148.3,24.1 156.2,25.6 164.2,5.1 172.1,25.3 180.1,24.8 188.1,8.9 196.0,17.2 204.0,21.8 211.9,44.8 219.9,5.0 227.9,22.2 235.8,14.3 243.8,14.2 251.7,32.6 259.7,7.1 267.7,10.9 275.6,7.8 283.6,19.9 291.5,34.0 299.5,37.6 307.4,40.4 315.4,19.9 323.4,7.6 331.3,29.2 339.3,11.9 347.2,15.3 355.2,21.2 363.2,20.0 371.1,36.0 379.1,13.5 387.0,34.8 395.0,26.8" fill="none" stroke="#58a6ff" stroke-width="1.5"/>
<circle cx="395.0" cy="26.8" r="2.5" fill="#58a6ff"/>
</svg>