<svg xmlns="http://www.w3.org/2000/svg" width="400" height="60">
<rect width="400" height="60" fill="#0d1117" rx="4"/>
<polyline points="5.0,33.8 13.0,55.0 20.9,9.3 28.9,26.2 36.8,11.2 44.8,31.5 52.8,14.0 60.7,14.4 68.7,33.8 76.6,21.6 84.6,44.2 92.6,53.9 100.5,15.7 108.5,21.8 116.4,15.4 124.4,35.8 132.3,15.4 140.3,19.0 148.3,39.5 156.2,21.9 164.2,42.9 172.1,30.7 180.1,29.1 188.1,20.3 196.0,11.8 204.0,30.9 211.9,5.8 219.9,23.7 227.9,25.1 235.8,5.1 243.8,24.8 251.7,24.4 259.7,8.9 267.7,16.9 275.6,21.4 283.6,43.9 291.5,5.0 299.5,21.8 307.4,14.1 315.4,14.0 323.4,32.0 331.3,7.0 339.3,10.8 347.2,7.8 355.2,19.6 363.2,33.3 371.1,36.9 379.1,39.6 387.0,19.6 395.0,7.6" fill="none" stroke="#58a6ff" stroke-width="1.5"/>
<circle cx="395.0" cy="7.6" r="2.5" fill="#58a6ff"/>
</svg>