<svg xmlns="http://www.w3.org/2000/svg" width="400" height="60">
<rect width="400" height="60" fill="#0d1117" rx="4"/>
<polyline points="5.0,26.9 13.0,13.5 20.9,33.8 28.9,7.3 36.8,8.7 44.8,24.8 52.8,35.3 60.7,28.6 68.7,46.0 76.6,10.3 84.6,24.2 92.6,18.6 100.5,40.1 108.5,41.4 116.4,18.4 124.4,8.9 132.3,30.8 140.3,22.9 148.3,38.2 156.2,10.6 164.2,32.1 172.1,34.1 180.1,6.2 188.1,26.9 196.0,13.0 204.0,16.5 211.9,35.6 219.9,47.4 227.9,22.3 235.8,35.2 243.8,5.0 251.7,11.6 259.7,25.3 267.7,27.9 275.6,18.3 283.6,18.9 291.5,37.1 299.5,55.0 307.4,42.3 315.4,38.1 323.4,32.9 331.3,6.7 339.3,29.6 347.2,41.8 355.2,23.7 363.2,14.2 371.1,36.6 379.1,49.9 387.0,11.6 395.0,29.2" fill="none" stroke="#58a6ff" stroke-width="1.5"/>
<circle cx="395.0" cy="29.2" r="2.5" fill="#58a6ff"/>
</svg>