<svg xmlns="http://www.w3.org/2000/svg" width="400" height="60">
<rect width="400" height="60" fill="#0d1117" rx="4"/>
<polyline points="5.0,5.0 13.0,29.3 20.9,18.1 28.9,18.0 36.8,44.0 44.8,7.9 52.8,13.4 60.7,9.0 68.7,26.1 76.6,45.9 84.6,51.1 92.6,55.0 100.5,26.1 108.5,8.7 116.4,39.1 124.4,14.8 132.3,19.5 140.3,27.9 148.3,26.1 156.2,48.8 164.2,17.1 172.1,47.0 180.1,35.8 188.1,20.4 196.0,48.0 204.0,27.4 211.9,21.7 219.9,28.9 227.9,21.4 235.8,51.1 243.8,38.4 251.7,38.6 259.7,42.6 267.7,37.6 275.6,40.2 283.6,43.1 291.5,40.2 299.5,45.5 307.4,29.8 315.4,37.1 323.4,37.3 331.3,27.9 339.3,44.5 347.2,31.9 355.2,38.4 363.2,40.9 371.1,40.9 379.1,37.9 387.0,29.9 395.0,23.0" fill="none" stroke="#58a6ff" stroke-width="1.5"/>
<circle cx="395.0" cy="23.0" r="2.5" fill="#58a6ff"/>
</svg>