<svg xmlns="http://www.w3.org/2000/svg" width="400" height="60">
<rect width="400" height="60" fill="#0d1117" rx="4"/>
<polyline points="5.0,5.0 13.0,27.1 20.9,13.8 28.9,34.0 36.8,7.6 44.8,9.1 52.8,25.0 60.7,35.5 68.7,28.8 76.6,46.1 84.6,10.7 92.6,24.4 100.5,18.9 108.5,40.2 116.4,41.5 124.4,18.7 132.3,9.2 140.3,31.0 148.3,23.1 156.2,38.4 164.2,10.9 172.1,32.3 180.1,34.3 188.1,6.5 196.0,27.1 204.0,13.3 211.9,16.8 219.9,35.7 227.9,47.5 235.8,22.5 243.8,35.4 251.7,5.4 259.7,11.9 267.7,25.5 275.6,28.1 283.6,18.5 291.5,19.2 299.5,37.2 307.4,55.0 315.4,42.4 323.4,38.2 331.3,33.1 339.3,7.0 347.2,29.8 355.2,41.9 363.2,23.9 371.1,14.5 379.1,36.7 387.0,50.0 395.0,12.0" fill="none" stroke="#58a6ff" stroke-width="1.5"/>
<circle cx="395.0" cy="12.0" r="2.5" fill="#58a6ff"/>
</svg>