<svg xmlns="http://www.w3.org/2000/svg" width="400" height="60">
<rect width="400" height="60" fill="#0d1117" rx="4"/>
<polyline points="5.0,21.9 13.0,16.4 20.9,37.3 28.9,14.5 36.8,22.5 44.8,13.7 52.8,39.2 60.7,25.6 68.7,14.1 76.6,38.2 84.6,30.5 92.6,19.9 100.5,44.6 108.5,5.0 116.4,31.1 124.4,15.4 132.3,39.1 140.3,8.1 148.3,9.8 156.2,28.6 164.2,40.9 172.1,33.1 180.1,53.4 188.1,11.7 196.0,27.9 204.0,21.4 211.9,46.5 219.9,48.0 227.9,21.1 235.8,10.0 243.8,35.6 251.7,26.3 259.7,44.3 267.7,11.9 275.6,37.1 283.6,39.5 291.5,6.8 299.5,31.0 307.4,14.8 315.4,18.9 323.4,41.2 331.3,55.0 339.3,25.7 347.2,40.8 355.2,5.4 363.2,13.1 371.1,29.2 379.1,32.2 387.0,21.0 395.0,21.7" fill="none" stroke="#58a6ff" stroke-width="1.5"/>
<circle cx="395.0" cy="21.7" r="2.5" fill="#58a6ff"/>
</svg>