<svg xmlns="http://www.w3.org/2000/svg" width="400" height="60">
<rect width="400" height="60" fill="#0d1117" rx="4"/>
<polyline points="5.0,34.4 13.0,22.0 20.9,45.1 28.9,55.0 36.8,16.0 44.8,22.2 52.8,15.7 60.7,36.5 68.7,15.6 76.6,19.4 84.6,40.3 92.6,22.3 100.5,43.8 108.5,31.3 116.4,29.6 124.4,20.6 132.3,12.0 140.3,31.5 148.3,5.9 156.2,24.1 164.2,25.6 172.1,5.1 180.1,25.3 188.1,24.8 196.0,8.9 204.0,17.2 211.9,21.8 219.9,44.8 227.9,5.0 235.8,22.2 243.8,14.3 251.7,14.2 259.7,32.6 267.7,7.1 275.6,10.9 283.6,7.8 291.5,19.9 299.5,34.0 307.4,37.6 315.4,40.4 323.4,19.9 331.3,7.6 339.3,29.2 347.2,11.9 355.2,15.3 363.2,21.2 371.1,20.0 379.1,36.0 387.0,13.5 395.0,34.8" fill="none" stroke="#58a6ff" stroke-width="1.5"/>
<circle cx="395.0" cy="34.8" r="2.5" fill="#58a6ff"/>
</svg>