<svg xmlns="http://www.w3.org/2000/svg" width="400" height="60">
<rect width="400" height="60" fill="#0d1117" rx="4"/>
<polyline points="5.0,55.0 13.0,16.0 20.9,22.2 28.9,15.7 36.8,36.5 44.8,15.6 52.8,19.4 60.7,40.3 68.7,22.3 76.6,43.8 84.6,31.3 92.6,29.6 100.5,20.6 108.5,12.0 116.4,31.5 124.4,5.9 132.3,24.1 140.3,25.6 148.3,5.1 156.2,25.3 164.2,24.8 172.1,8.9 180.1,17.2 188.1,21.8 196.0,44.8 204.0,5.0 211.9,22.2 219.9,14.3 227.9,14.2 235.8,32.6 243.8,7.1 251.7,10.9 259.7,7.8 267.7,19.9 275.6,34.0 283.6,37.6 291.5,40.4 299.5,19.9 307.4,7.6 315.4,29.2 323.4,11.9 331.3,15.3 339.3,21.2 347.2,20.0 355.2,36.0 363.2,13.5 371.1,34.8 379.1,26.8 387.0,15.9 395.0,35.4" fill="none" stroke="#58a6ff" stroke-width="1.5"/>
<circle cx="395.0" cy="35.4" r="2.5" fill="#58a6ff"/>
</svg>