<svg xmlns="http://www.w3.org/2000/svg" width="400" height="60">
<rect width="400" height="60" fill="#0d1117" rx="4"/>
<polyline points="5.0,15.5 13.0,39.9 20.9,29.4 28.9,29.6 36.8,32.9 44.8,28.8 52.8,30.9 60.7,33.3 68.7,31.0 76.6,35.3 84.6,22.4 92.6,28.4 100.5,28.6 108.5,20.8 116.4,34.5 124.4,24.1 132.3,29.5 140.3,31.5 148.3,31.5 156.2,29.0 164.2,22.5 172.1,16.8 180.1,38.3 188.1,14.8 196.0,23.0 204.0,14.0 211.9,40.4 219.9,26.3 227.9,14.4 235.8,39.3 243.8,31.3 251.7,20.3 259.7,45.9 267.7,5.0 275.6,31.9 283.6,15.7 291.5,40.3 299.5,8.2 307.4,10.0 315.4,29.3 323.4,42.1 331.3,34.0 339.3,55.0 347.2,11.9 355.2,28.6 363.2,21.9 371.1,47.8 379.1,49.4 387.0,21.6 395.0,10.2" fill="none" stroke="#58a6ff" stroke-width="1.5"/>
<circle cx="395.0" cy="10.2" r="2.5" fill="#58a6ff"/>
</svg>