<svg xmlns="http://www.w3.org/2000/svg" width="400" height="60">
<rect width="400" height="60" fill="#0d1117" rx="4"/>
<polyline points="5.0,32.1 13.0,14.2 20.9,14.6 28.9,34.4 36.8,22.0 44.8,45.1 52.8,55.0 60.7,16.0 68.7,22.2 76.6,15.7 84.6,36.5 92.6,15.6 100.5,19.4 108.5,40.3 116.4,22.3 124.4,43.8 132.3,31.3 140.3,29.6 148.3,20.6 156.2,12.0 164.2,31.5 172.1,5.9 180.1,24.1 188.1,25.6 196.0,5.1 204.0,25.3 211.9,24.8 219.9,8.9 227.9,17.2 235.8,21.8 243.8,44.8 251.7,5.0 259.7,22.2 267.7,14.3 275.6,14.2 283.6,32.6 291.5,7.1 299.5,10.9 307.4,7.8 315.4,19.9 323.4,34.0 331.3,37.6 339.3,40.4 347.2,19.9 355.2,7.6 363.2,29.2 371.1,11.9 379.1,15.3 387.0,21.2 395.0,20.0" fill="none" stroke="#58a6ff" stroke-width="1.5"/>
<circle cx="395.0" cy="20.0" r="2.5" fill="#58a6ff"/>
</svg>