<svg xmlns="http://www.w3.org/2000/svg" width="400" height="60">
<rect width="400" height="60" fill="#0d1117" rx="4"/>
<polyline points="5.0,6.1 13.0,29.0 20.9,30.9 28.9,5.2 36.8,30.5 44.8,29.9 52.8,9.9 60.7,20.3 68.7,26.1 76.6,55.0 84.6,5.0 92.6,26.6 100.5,16.7 108.5,16.5 116.4,39.7 124.4,7.6 132.3,12.4 140.3,8.6 148.3,23.8 156.2,41.4 164.2,46.0 172.1,49.5 180.1,23.8 188.1,8.3 196.0,35.3 204.0,13.7 211.9,17.9 219.9,25.4 227.9,23.8 235.8,44.0 243.8,15.7 251.7,42.4 259.7,32.4 267.7,18.7 275.6,43.2 283.6,24.9 291.5,19.9 299.5,26.2 307.4,19.6 315.4,46.0 323.4,34.7 331.3,34.9 339.3,38.4 347.2,34.0 355.2,36.3 363.2,38.9 371.1,36.3 379.1,41.0 387.0,27.1 395.0,33.6" fill="none" stroke="#58a6ff" stroke-width="1.5"/>
<circle cx="395.0" cy="33.6" r="2.5" fill="#58a6ff"/>
</svg>