<svg xmlns="http://www.w3.org/2000/svg" width="400" height="60">
<rect width="400" height="60" fill="#0d1117" rx="4"/>
<polyline points="5.0,38.1 13.0,35.9 20.9,24.6 28.9,13.7 36.8,38.3 44.8,6.1 52.8,29.0 60.7,30.9 68.7,5.2 76.6,30.5 84.6,29.9 92.6,9.9 100.5,20.3 108.5,26.1 116.4,55.0 124.4,5.0 132.3,26.6 140.3,16.7 148.3,16.5 156.2,39.7 164.2,7.6 172.1,12.4 180.1,8.6 188.1,23.8 196.0,41.4 204.0,46.0 211.9,49.5 219.9,23.8 227.9,8.3 235.8,35.3 243.8,13.7 251.7,17.9 259.7,25.4 267.7,23.8 275.6,44.0 283.6,15.7 291.5,42.4 299.5,32.4 307.4,18.7 315.4,43.2 323.4,24.9 331.3,19.9 339.3,26.2 347.2,19.6 355.2,46.0 363.2,34.7 371.1,34.9 379.1,38.4 387.0,34.0 395.0,36.3" fill="none" stroke="#58a6ff" stroke-width="1.5"/>
<circle cx="395.0" cy="36.3" r="2.5" fill="#58a6ff"/>
</svg>