<svg xmlns="http://www.w3.org/2000/svg" width="400" height="60">
<rect width="400" height="60" fill="#0d1117" rx="4"/>
<polyline points="5.0,45.1 13.0,55.0 20.9,16.0 28.9,22.2 36.8,15.7 44.8,36.5 52.8,15.6 60.7,19.4 68.7,40.3 76.6,22.3 84.6,43.8 92.6,31.3 100.5,29.6 108.5,20.6 116.4,12.0 124.4,31.5 132.3,5.9 140.3,24.1 148.3,25.6 156.2,5.1 164.2,25.3 172.1,24.8 180.1,8.9 188.1,17.2 196.0,21.8 204.0,44.8 211.9,5.0 219.9,22.2 227.9,14.3 235.8,14.2 243.8,32.6 251.7,7.1 259.7,10.9 267.7,7.8 275.6,19.9 283.6,34.0 291.5,37.6 299.5,40.4 307.4,19.9 315.4,7.6 323.4,29.2 331.3,11.9 339.3,15.3 347.2,21.2 355.2,20.0 363.2,36.0 371.1,13.5 379.1,34.8 387.0,26.8 395.0,15.9" fill="none" stroke="#58a6ff" stroke-width="1.5"/>
<circle cx="395.0" cy="15.9" r="2.5" fill="#58a6ff"/>
</svg>