<svg xmlns="http://www.w3.org/2000/svg" width="400" height="60">
<rect width="400" height="60" fill="#0d1117" rx="4"/>
<polyline points="5.0,45.4 13.0,13.4 20.9,43.6 28.9,32.2 36.8,16.7 44.8,44.5 52.8,23.8 60.7,18.1 68.7,25.3 76.6,17.8 84.6,47.6 92.6,34.9 100.5,35.1 108.5,39.1 116.4,34.0 124.4,36.6 132.3,39.6 140.3,36.7 148.3,42.0 156.2,26.2 164.2,33.6 172.1,33.8 180.1,24.3 188.1,41.0 196.0,28.3 204.0,34.9 211.9,37.4 219.9,37.4 227.9,34.3 235.8,26.3 243.8,19.4 251.7,45.7 259.7,17.0 267.7,27.0 275.6,15.9 283.6,48.2 291.5,31.0 299.5,16.5 307.4,46.9 315.4,37.1 323.4,23.7 331.3,55.0 339.3,5.0 347.2,37.9 355.2,18.1 363.2,48.1 371.1,8.9 379.1,11.1 387.0,34.7 395.0,50.3" fill="none" stroke="#58a6ff" stroke-width="1.5"/>
<circle cx="395.0" cy="50.3" r="2.5" fill="#58a6ff"/>
</svg>