<svg xmlns="http://www.w3.org/2000/svg" width="400" height="60">
<rect width="400" height="60" fill="#0d1117" rx="4"/>
<polyline points="5.0,53.7 13.0,38.1 20.9,35.9 28.9,24.6 36.8,13.7 44.8,38.3 52.8,6.1 60.7,29.0 68.7,30.9 76.6,5.2 84.6,30.5 92.6,29.9 100.5,9.9 108.5,20.3 116.4,26.1 124.4,55.0 132.3,5.0 140.3,26.6 148.3,16.7 156.2,16.5 164.2,39.7 172.1,7.6 180.1,12.4 188.1,8.6 196.0,23.8 204.0,41.4 211.9,46.0 219.9,49.5 227.9,23.8 235.8,8.3 243.8,35.3 251.7,13.7 259.7,17.9 267.7,25.4 275.6,23.8 283.6,44.0 291.5,15.7 299.5,42.4 307.4,32.4 315.4,18.7 323.4,43.2 331.3,24.9 339.3,19.9 347.2,26.2 355.2,19.6 363.2,46.0 371.1,34.7 379.1,34.9 387.0,38.4 395.0,34.0" fill="none" stroke="#58a6ff" stroke-width="1.5"/>
<circle cx="395.0" cy="34.0" r="2.5" fill="#58a6ff"/>
</svg>