<svg xmlns="http://www.w3.org/2000/svg" width="400" height="60">
<rect width="400" height="60" fill="#0d1117" rx="4"/>
<polyline points="5.0,14.2 13.0,14.6 20.9,34.4 28.9,22.0 36.8,45.1 44.8,55.0 52.8,16.0 60.7,22.2 68.7,15.7 76.6,36.5 84.6,15.6 92.6,19.4 100.5,40.3 108.5,22.3 116.4,43.8 124.4,31.3 132.3,29.6 140.3,20.6 148.3,12.0 156.2,31.5 164.2,5.9 172.1,24.1 180.1,25.6 188.1,5.1 196.0,25.3 204.0,24.8 211.9,8.9 219.9,17.2 227.9,21.8 235.8,44.8 243.8,5.0 251.7,22.2 259.7,14.3 267.7,14.2 275.6,32.6 283.6,7.1 291.5,10.9 299.5,7.8 307.4,19.9 315.4,34.0 323.4,37.6 331.3,40.4 339.3,19.9 347.2,7.6 355.2,29.2 363.2,11.9 371.1,15.3 379.1,21.2 387.0,20.0 395.0,36.0" fill="none" stroke="#58a6ff" stroke-width="1.5"/>
<circle cx="395.0" cy="36.0" r="2.5" fill="#58a6ff"/>
</svg>