<svg xmlns="http://www.w3.org/2000/svg" width="400" height="60">
<rect width="400" height="60" fill="#0d1117" rx="4"/>
<polyline points="5.0,28.7 13.0,30.7 20.9,30.6 28.9,28.2 36.8,21.9 44.8,16.4 52.8,37.3 60.7,14.5 68.7,22.5 76.6,13.7 84.6,39.2 92.6,25.6 100.5,14.1 108.5,38.2 116.4,30.5 124.4,19.9 132.3,44.6 140.3,5.0 148.3,31.1 156.2,15.4 164.2,39.1 172.1,8.1 180.1,9.8 188.1,28.6 196.0,40.9 204.0,33.1 211.9,53.4 219.9,11.7 227.9,27.9 235.8,21.4 243.8,46.5 251.7,48.0 259.7,21.1 267.7,10.0 275.6,35.6 283.6,26.3 291.5,44.3 299.5,11.9 307.4,37.1 315.4,39.5 323.4,6.8 331.3,31.0 339.3,14.8 347.2,18.9 355.2,41.2 363.2,55.0 371.1,25.7 379.1,40.8 387.0,5.4 395.0,13.1" fill="none" stroke="#58a6ff" stroke-width="1.5"/>
<circle cx="395.0" cy="13.1" r="2.5" fill="#58a6ff"/>
</svg>