<svg xmlns="http://www.w3.org/2000/svg" width="400" height="60">
<rect width="400" height="60" fill="#0d1117" rx="4"/>
<polyline points="5.0,14.5 16.5,55.0 27.9,50.9 39.4,32.9 50.9,39.9 62.4,34.9 73.8,24.0 85.3,26.9 96.8,17.5 108.2,20.6 119.7,6.8 131.2,12.8 142.6,16.4 154.1,13.5 165.6,15.9 177.1,18.7 188.5,8.7 200.0,16.0 211.5,11.7 222.9,18.6 234.4,11.3 245.9,11.2 257.4,18.5 268.8,7.5 280.3,14.2 291.8,22.2 303.2,5.0 314.7,11.4 326.2,5.7 337.6,13.4 349.1,6.8 360.6,6.9 372.1,14.2 383.5,9.7 395.0,18.2" fill="none" stroke="#58a6ff" stroke-width="1.5"/>
<circle cx="395.0" cy="18.2" r="2.5" fill="#58a6ff"/>
</svg>