<svg xmlns="http://www.w3.org/2000/svg" width="400" height="60">
<rect width="400" height="60" fill="#0d1117" rx="4"/>
<polyline points="5.0,21.6 13.0,15.5 20.9,39.9 28.9,29.4 36.8,29.6 44.8,32.9 52.8,28.8 60.7,30.9 68.7,33.3 76.6,31.0 84.6,35.3 92.6,22.4 100.5,28.4 108.5,28.6 116.4,20.8 124.4,34.5 132.3,24.1 140.3,29.5 148.3,31.5 156.2,31.5 164.2,29.0 172.1,22.5 180.1,16.8 188.1,38.3 196.0,14.8 204.0,23.0 211.9,14.0 219.9,40.4 227.9,26.3 235.8,14.4 243.8,39.3 251.7,31.3 259.7,20.3 267.7,45.9 275.6,5.0 283.6,31.9 291.5,15.7 299.5,40.3 307.4,8.2 315.4,10.0 323.4,29.3 331.3,42.1 339.3,34.0 347.2,55.0 355.2,11.9 363.2,28.6 371.1,21.9 379.1,47.8 387.0,49.4 395.0,21.6" fill="none" stroke="#58a6ff" stroke-width="1.5"/>
<circle cx="395.0" cy="21.6" r="2.5" fill="#58a6ff"/>
</svg>