<svg xmlns="http://www.w3.org/2000/svg" width="400" height="60">
<rect width="400" height="60" fill="#0d1117" rx="4"/>
<polyline points="5.0,31.0 13.0,35.3 20.9,22.4 28.9,28.4 36.8,28.6 44.8,20.8 52.8,34.5 60.7,24.1 68.7,29.5 76.6,31.5 84.6,31.5 92.6,29.0 100.5,22.5 108.5,16.8 116.4,38.3 124.4,14.8 132.3,23.0 140.3,14.0 148.3,40.4 156.2,26.3 164.2,14.4 172.1,39.3 180.1,31.3 188.1,20.3 196.0,45.9 204.0,5.0 211.9,31.9 219.9,15.7 227.9,40.3 235.8,8.2 243.8,10.0 251.7,29.3 259.7,42.1 267.7,34.0 275.6,55.0 283.6,11.9 291.5,28.6 299.5,21.9 307.4,47.8 315.4,49.4 323.4,21.6 331.3,10.2 339.3,36.6 347.2,27.0 355.2,45.6 363.2,12.2 371.1,38.2 379.1,40.6 387.0,6.9 395.0,31.9" fill="none" stroke="#58a6ff" stroke-width="1.5"/>
<circle cx="395.0" cy="31.9" r="2.5" fill="#58a6ff"/>
</svg>