<svg xmlns="http://www.w3.org/2000/svg" width="400" height="60">
<rect width="400" height="60" fill="#0d1117" rx="4"/>
<polyline points="5.0,43.3 13.0,5.0 20.9,10.7 28.9,6.1 36.8,24.3 44.8,45.3 52.8,50.8 60.7,55.0 68.7,24.3 76.6,5.8 84.6,38.1 92.6,12.2 100.5,17.3 108.5,26.2 116.4,24.3 124.4,48.4 132.3,14.7 140.3,46.5 148.3,34.6 156.2,18.2 164.2,47.5 172.1,25.6 180.1,19.7 188.1,27.2 196.0,19.3 204.0,50.8 211.9,37.3 219.9,37.6 227.9,41.8 235.8,36.5 243.8,39.2 251.7,42.3 259.7,39.3 267.7,44.9 275.6,28.3 283.6,36.0 291.5,36.2 299.5,26.2 307.4,43.8 315.4,30.5 323.4,37.4 331.3,40.0 339.3,40.0 347.2,36.8 355.2,28.4 363.2,21.0 371.1,48.8 379.1,18.5 387.0,29.1 395.0,17.4" fill="none" stroke="#58a6ff" stroke-width="1.5"/>
<circle cx="395.0" cy="17.4" r="2.5" fill="#58a6ff"/>
</svg>