<svg xmlns="http://www.w3.org/2000/svg" width="400" height="60">
<rect width="400" height="60" fill="#0d1117" rx="4"/>
<polyline points="5.0,29.6 13.0,32.9 20.9,28.8 28.9,30.9 36.8,33.3 44.8,31.0 52.8,35.3 60.7,22.4 68.7,28.4 76.6,28.6 84.6,20.8 92.6,34.5 100.5,24.1 108.5,29.5 116.4,31.5 124.4,31.5 132.3,29.0 140.3,22.5 148.3,16.8 156.2,38.3 164.2,14.8 172.1,23.0 180.1,14.0 188.1,40.4 196.0,26.3 204.0,14.4 211.9,39.3 219.9,31.3 227.9,20.3 235.8,45.9 243.8,5.0 251.7,31.9 259.7,15.7 267.7,40.3 275.6,8.2 283.6,10.0 291.5,29.3 299.5,42.1 307.4,34.0 315.4,55.0 323.4,11.9 331.3,28.6 339.3,21.9 347.2,47.8 355.2,49.4 363.2,21.6 371.1,10.2 379.1,36.6 387.0,27.0 395.0,45.6" fill="none" stroke="#58a6ff" stroke-width="1.5"/>
<circle cx="395.0" cy="45.6" r="2.5" fill="#58a6ff"/>
</svg>