<svg xmlns="http://www.w3.org/2000/svg" width="400" height="60">
<rect width="400" height="60" fill="#0d1117" rx="4"/>
<polyline points="5.0,55.0 13.0,34.8 20.9,41.6 28.9,12.0 36.8,24.9 44.8,32.5 52.8,26.3 60.7,31.5 68.7,37.5 76.6,16.1 84.6,31.7 92.6,22.5 100.5,37.2 108.5,21.6 116.4,21.5 124.4,37.0 132.3,13.6 140.3,28.0 148.3,45.0 156.2,8.3 164.2,21.9 172.1,9.8 180.1,26.1 188.1,12.1 196.0,12.4 204.0,27.9 211.9,18.2 219.9,36.3 227.9,44.1 235.8,13.5 243.8,18.4 251.7,13.3 259.7,29.6 267.7,13.2 275.6,16.2 283.6,32.6 291.5,18.5 299.5,35.3 307.4,25.5 315.4,24.2 323.4,17.1 331.3,10.3 339.3,25.7 347.2,5.6 355.2,19.8 363.2,21.0 371.1,5.0 379.1,20.8 387.0,20.4 395.0,8.0" fill="none" stroke="#58a6ff" stroke-width="1.5"/>
<circle cx="395.0" cy="8.0" r="2.5" fill="#58a6ff"/>
</svg>