<svg xmlns="http://www.w3.org/2000/svg" width="400" height="60">
<rect width="400" height="60" fill="#0d1117" rx="4"/>
<polyline points="5.0,14.5 14.3,55.0 23.6,50.9 32.9,32.9 42.1,39.9 51.4,34.9 60.7,24.0 70.0,26.9 79.3,17.5 88.6,20.6 97.9,6.8 107.1,12.8 116.4,16.4 125.7,13.5 135.0,15.9 144.3,18.7 153.6,8.7 162.9,16.0 172.1,11.7 181.4,18.6 190.7,11.3 200.0,11.2 209.3,18.5 218.6,7.5 227.9,14.2 237.1,22.2 246.4,5.0 255.7,11.4 265.0,5.7 274.3,13.4 283.6,6.8 292.9,6.9 302.1,14.2 311.4,9.7 320.7,18.2 330.0,21.8 339.3,7.4 348.6,9.7 357.9,7.3 367.1,15.0 376.4,7.3 385.7,8.7 395.0,16.4" fill="none" stroke="#58a6ff" stroke-width="1.5"/>
<circle cx="395.0" cy="16.4" r="2.5" fill="#58a6ff"/>
</svg>