<svg xmlns="http://www.w3.org/2000/svg" width="400" height="60">
<rect width="400" height="60" fill="#0d1117" rx="4"/>
<polyline points="5.0,13.7 13.0,38.3 20.9,6.1 28.9,29.0 36.8,30.9 44.8,5.2 52.8,30.5 60.7,29.9 68.7,9.9 76.6,20.3 84.6,26.1 92.6,55.0 100.5,5.0 108.5,26.6 116.4,16.7 124.4,16.5 132.3,39.7 140.3,7.6 148.3,12.4 156.2,8.6 164.2,23.8 172.1,41.4 180.1,46.0 188.1,49.5 196.0,23.8 204.0,8.3 211.9,35.3 219.9,13.7 227.9,17.9 235.8,25.4 243.8,23.8 251.7,44.0 259.7,15.7 267.7,42.4 275.6,32.4 283.6,18.7 291.5,43.2 299.5,24.9 307.4,19.9 315.4,26.2 323.4,19.6 331.3,46.0 339.3,34.7 347.2,34.9 355.2,38.4 363.2,34.0 371.1,36.3 379.1,38.9 387.0,36.3 395.0,41.0" fill="none" stroke="#58a6ff" stroke-width="1.5"/>
<circle cx="395.0" cy="41.0" r="2.5" fill="#58a6ff"/>
</svg>