<svg xmlns="http://www.w3.org/2000/svg" width="400" height="60">
<rect width="400" height="60" fill="#0d1117" rx="4"/>
<polyline points="5.0,38.2 13.0,45.6 20.9,19.0 28.9,38.4 36.8,26.9 44.8,45.3 52.8,25.9 60.7,25.8 68.7,45.0 76.6,15.9 84.6,33.8 92.6,55.0 100.5,9.3 108.5,26.2 116.4,11.2 124.4,31.5 132.3,14.0 140.3,14.4 148.3,33.8 156.2,21.6 164.2,44.2 172.1,53.9 180.1,15.7 188.1,21.8 196.0,15.4 204.0,35.8 211.9,15.4 219.9,19.0 227.9,39.5 235.8,21.9 243.8,42.9 251.7,30.7 259.7,29.1 267.7,20.3 275.6,11.8 283.6,30.9 291.5,5.8 299.5,23.7 307.4,25.1 315.4,5.1 323.4,24.8 331.3,24.4 339.3,8.9 347.2,16.9 355.2,21.4 363.2,43.9 371.1,5.0 379.1,21.8 387.0,14.1 395.0,14.0" fill="none" stroke="#58a6ff" stroke-width="1.5"/>
<circle cx="395.0" cy="14.0" r="2.5" fill="#58a6ff"/>
</svg>