<svg xmlns="http://www.w3.org/2000/svg" width="400" height="60">
<rect width="400" height="60" fill="#0d1117" rx="4"/>
<polyline points="5.0,27.3 13.0,14.6 20.9,37.3 28.9,20.4 36.8,15.7 44.8,21.6 52.8,15.5 60.7,39.9 68.7,29.4 76.6,29.6 84.6,32.9 92.6,28.8 100.5,30.9 108.5,33.3 116.4,31.0 124.4,35.3 132.3,22.4 140.3,28.4 148.3,28.6 156.2,20.8 164.2,34.5 172.1,24.1 180.1,29.5 188.1,31.5 196.0,31.5 204.0,29.0 211.9,22.5 219.9,16.8 227.9,38.3 235.8,14.8 243.8,23.0 251.7,14.0 259.7,40.4 267.7,26.3 275.6,14.4 283.6,39.3 291.5,31.3 299.5,20.3 307.4,45.9 315.4,5.0 323.4,31.9 331.3,15.7 339.3,40.3 347.2,8.2 355.2,10.0 363.2,29.3 371.1,42.1 379.1,34.0 387.0,55.0 395.0,11.9" fill="none" stroke="#58a6ff" stroke-width="1.5"/>
<circle cx="395.0" cy="11.9" r="2.5" fill="#58a6ff"/>
</svg>