<svg xmlns="http://www.w3.org/2000/svg" width="400" height="60">
<rect width="400" height="60" fill="#0d1117" rx="4"/>
<polyline points="5.0,26.1 13.0,55.0 20.9,5.0 28.9,26.6 36.8,16.7 44.8,16.5 52.8,39.7 60.7,7.6 68.7,12.4 76.6,8.6 84.6,23.8 92.6,41.4 100.5,46.0 108.5,49.5 116.4,23.8 124.4,8.3 132.3,35.3 140.3,13.7 148.3,17.9 156.2,25.4 164.2,23.8 172.1,44.0 180.1,15.7 188.1,42.4 196.0,32.4 204.0,18.7 211.9,43.2 219.9,24.9 227.9,19.9 235.8,26.2 243.8,19.6 251.7,46.0 259.7,34.7 267.7,34.9 275.6,38.4 283.6,34.0 291.5,36.3 299.5,38.9 307.4,36.3 315.4,41.0 323.4,27.1 331.3,33.6 339.3,33.7 347.2,25.4 355.2,40.1 363.2,28.9 371.1,34.7 379.1,36.9 387.0,36.9 395.0,34.2" fill="none" stroke="#58a6ff" stroke-width="1.5"/>
<circle cx="395.0" cy="34.2" r="2.5" fill="#58a6ff"/>
</svg>