<svg xmlns="http://www.w3.org/2000/svg" width="400" height="60">
<rect width="400" height="60" fill="#0d1117" rx="4"/>
<polyline points="5.0,13.1 13.0,19.8 20.9,12.4 28.9,34.1 36.8,22.5 44.8,12.7 52.8,33.2 60.7,26.6 68.7,17.6 76.6,38.6 84.6,5.0 92.6,27.1 100.5,13.8 108.5,34.0 116.4,7.6 124.4,9.1 132.3,25.0 140.3,35.5 148.3,28.8 156.2,46.1 164.2,10.7 172.1,24.4 180.1,18.9 188.1,40.2 196.0,41.5 204.0,18.7 211.9,9.2 219.9,31.0 227.9,23.1 235.8,38.4 243.8,10.9 251.7,32.3 259.7,34.3 267.7,6.5 275.6,27.1 283.6,13.3 291.5,16.8 299.5,35.7 307.4,47.5 315.4,22.5 323.4,35.4 331.3,5.4 339.3,11.9 347.2,25.5 355.2,28.1 363.2,18.5 371.1,19.2 379.1,37.2 387.0,55.0 395.0,42.4" fill="none" stroke="#58a6ff" stroke-width="1.5"/>
<circle cx="395.0" cy="42.4" r="2.5" fill="#58a6ff"/>
</svg>