<svg xmlns="http://www.w3.org/2000/svg" width="400" height="60">
<rect width="400" height="60" fill="#0d1117" rx="4"/>
<polyline points="5.0,29.9 13.0,9.9 20.9,20.3 28.9,26.1 36.8,55.0 44.8,5.0 52.8,26.6 60.7,16.7 68.7,16.5 76.6,39.7 84.6,7.6 92.6,12.4 100.5,8.6 108.5,23.8 116.4,41.4 124.4,46.0 132.3,49.5 140.3,23.8 148.3,8.3 156.2,35.3 164.2,13.7 172.1,17.9 180.1,25.4 188.1,23.8 196.0,44.0 204.0,15.7 211.9,42.4 219.9,32.4 227.9,18.7 235.8,43.2 243.8,24.9 251.7,19.9 259.7,26.2 267.7,19.6 275.6,46.0 283.6,34.7 291.5,34.9 299.5,38.4 307.4,34.0 315.4,36.3 323.4,38.9 331.3,36.3 339.3,41.0 347.2,27.1 355.2,33.6 363.2,33.7 371.1,25.4 379.1,40.1 387.0,28.9 395.0,34.7" fill="none" stroke="#58a6ff" stroke-width="1.5"/>
<circle cx="395.0" cy="34.7" r="2.5" fill="#58a6ff"/>
</svg>