<svg xmlns="http://www.w3.org/2000/svg" width="400" height="60">
<rect width="400" height="60" fill="#0d1117" rx="4"/>
<polyline points="5.0,23.0 13.0,49.3 20.9,26.8 28.9,53.7 36.8,38.1 44.8,35.9 52.8,24.6 60.7,13.7 68.7,38.3 76.6,6.1 84.6,29.0 92.6,30.9 100.5,5.2 108.5,30.5 116.4,29.9 124.4,9.9 132.3,20.3 140.3,26.1 148.3,55.0 156.2,5.0 164.2,26.6 172.1,16.7 180.1,16.5 188.1,39.7 196.0,7.6 204.0,12.4 211.9,8.6 219.9,23.8 227.9,41.4 235.8,46.0 243.8,49.5 251.7,23.8 259.7,8.3 267.7,35.3 275.6,13.7 283.6,17.9 291.5,25.4 299.5,23.8 307.4,44.0 315.4,15.7 323.4,42.4 331.3,32.4 339.3,18.7 347.2,43.2 355.2,24.9 363.2,19.9 371.1,26.2 379.1,19.6 387.0,46.0 395.0,34.7" fill="none" stroke="#58a6ff" stroke-width="1.5"/>
<circle cx="395.0" cy="34.7" r="2.5" fill="#58a6ff"/>
</svg>