<svg xmlns="http://www.w3.org/2000/svg" width="400" height="60">
<rect width="400" height="60" fill="#0d1117" rx="4"/>
<polyline points="5.0,14.6 13.0,37.3 20.9,20.4 28.9,15.7 36.8,21.6 44.8,15.5 52.8,39.9 60.7,29.4 68.7,29.6 76.6,32.9 84.6,28.8 92.6,30.9 100.5,33.3 108.5,31.0 116.4,35.3 124.4,22.4 132.3,28.4 140.3,28.6 148.3,20.8 156.2,34.5 164.2,24.1 172.1,29.5 180.1,31.5 188.1,31.5 196.0,29.0 204.0,22.5 211.9,16.8 219.9,38.3 227.9,14.8 235.8,23.0 243.8,14.0 251.7,40.4 259.7,26.3 267.7,14.4 275.6,39.3 283.6,31.3 291.5,20.3 299.5,45.9 307.4,5.0 315.4,31.9 323.4,15.7 331.3,40.3 339.3,8.2 347.2,10.0 355.2,29.3 363.2,42.1 371.1,34.0 379.1,55.0 387.0,11.9 395.0,28.6" fill="none" stroke="#58a6ff" stroke-width="1.5"/>
<circle cx="395.0" cy="28.6" r="2.5" fill="#58a6ff"/>
</svg>