<svg xmlns="http://www.w3.org/2000/svg" width="400" height="60">
<rect width="400" height="60" fill="#0d1117" rx="4"/>
<polyline points="5.0,35.6 13.0,11.1 20.9,15.9 28.9,24.3 36.8,22.5 44.8,45.4 52.8,13.4 60.7,43.6 68.7,32.2 76.6,16.7 84.6,44.5 92.6,23.8 100.5,18.1 108.5,25.3 116.4,17.8 124.4,47.6 132.3,34.9 140.3,35.1 148.3,39.1 156.2,34.0 164.2,36.6 172.1,39.6 180.1,36.7 188.1,42.0 196.0,26.2 204.0,33.6 211.9,33.8 219.9,24.3 227.9,41.0 235.8,28.3 243.8,34.9 251.7,37.4 259.7,37.4 267.7,34.3 275.6,26.3 283.6,19.4 291.5,45.7 299.5,17.0 307.4,27.0 315.4,15.9 323.4,48.2 331.3,31.0 339.3,16.5 347.2,46.9 355.2,37.1 363.2,23.7 371.1,55.0 379.1,5.0 387.0,37.9 395.0,18.1" fill="none" stroke="#58a6ff" stroke-width="1.5"/>
<circle cx="395.0" cy="18.1" r="2.5" fill="#58a6ff"/>
</svg>