<svg xmlns="http://www.w3.org/2000/svg" width="400" height="60">
<rect width="400" height="60" fill="#0d1117" rx="4"/>
<polyline points="5.0,33.2 13.0,26.6 20.9,17.6 28.9,38.6 36.8,5.0 44.8,27.1 52.8,13.8 60.7,34.0 68.7,7.6 76.6,9.1 84.6,25.0 92.6,35.5 100.5,28.8 108.5,46.1 116.4,10.7 124.4,24.4 132.3,18.9 140.3,40.2 148.3,41.5 156.2,18.7 164.2,9.2 172.1,31.0 180.1,23.1 188.1,38.4 196.0,10.9 204.0,32.3 211.9,34.3 219.9,6.5 227.9,27.1 235.8,13.3 243.8,16.8 251.7,35.7 259.7,47.5 267.7,22.5 275.6,35.4 283.6,5.4 291.5,11.9 299.5,25.5 307.4,28.1 315.4,18.5 323.4,19.2 331.3,37.2 339.3,55.0 347.2,42.4 355.2,38.2 363.2,33.1 371.1,7.0 379.1,29.8 387.0,41.9 395.0,23.9" fill="none" stroke="#58a6ff" stroke-width="1.5"/>
<circle cx="395.0" cy="23.9" r="2.5" fill="#58a6ff"/>
</svg>