<svg xmlns="http://www.w3.org/2000/svg" width="400" height="60">
<rect width="400" height="60" fill="#0d1117" rx="4"/>
<polyline points="5.0,12.4 13.0,34.1 20.9,22.5 28.9,12.7 36.8,33.2 44.8,26.6 52.8,17.6 60.7,38.6 68.7,5.0 76.6,27.1 84.6,13.8 92.6,34.0 100.5,7.6 108.5,9.1 116.4,25.0 124.4,35.5 132.3,28.8 140.3,46.1 148.3,10.7 156.2,24.4 164.2,18.9 172.1,40.2 180.1,41.5 188.1,18.7 196.0,9.2 204.0,31.0 211.9,23.1 219.9,38.4 227.9,10.9 235.8,32.3 243.8,34.3 251.7,6.5 259.7,27.1 267.7,13.3 275.6,16.8 283.6,35.7 291.5,47.5 299.5,22.5 307.4,35.4 315.4,5.4 323.4,11.9 331.3,25.5 339.3,28.1 347.2,18.5 355.2,19.2 363.2,37.2 371.1,55.0 379.1,42.4 387.0,38.2 395.0,33.1" fill="none" stroke="#58a6ff" stroke-width="1.5"/>
<circle cx="395.0" cy="33.1" r="2.5" fill="#58a6ff"/>
</svg>