<svg xmlns="http://www.w3.org/2000/svg" width="400" height="60">
<rect width="400" height="60" fill="#0d1117" rx="4"/>
<polyline points="5.0,28.8 13.0,30.9 20.9,33.3 28.9,31.0 36.8,35.3 44.8,22.4 52.8,28.4 60.7,28.6 68.7,20.8 76.6,34.5 84.6,24.1 92.6,29.5 100.5,31.5 108.5,31.5 116.4,29.0 124.4,22.5 132.3,16.8 140.3,38.3 148.3,14.8 156.2,23.0 164.2,14.0 172.1,40.4 180.1,26.3 188.1,14.4 196.0,39.3 204.0,31.3 211.9,20.3 219.9,45.9 227.9,5.0 235.8,31.9 243.8,15.7 251.7,40.3 259.7,8.2 267.7,10.0 275.6,29.3 283.6,42.1 291.5,34.0 299.5,55.0 307.4,11.9 315.4,28.6 323.4,21.9 331.3,47.8 339.3,49.4 347.2,21.6 355.2,10.2 363.2,36.6 371.1,27.0 379.1,45.6 387.0,12.2 395.0,38.2" fill="none" stroke="#58a6ff" stroke-width="1.5"/>
<circle cx="395.0" cy="38.2" r="2.5" fill="#58a6ff"/>
</svg>