<svg xmlns="http://www.w3.org/2000/svg" width="400" height="60">
<rect width="400" height="60" fill="#0d1117" rx="4"/>
<polyline points="5.0,13.8 13.0,29.8 20.9,39.4 28.9,31.6 36.8,38.2 44.8,45.6 52.8,18.9 60.7,38.4 68.7,26.9 76.6,45.3 84.6,25.8 92.6,25.7 100.5,45.0 108.5,15.8 116.4,33.7 124.4,55.0 132.3,9.1 140.3,26.1 148.3,11.1 156.2,31.4 164.2,13.9 172.1,14.3 180.1,33.7 188.1,21.5 196.0,44.2 204.0,53.9 211.9,15.6 219.9,21.7 227.9,15.3 235.8,35.8 243.8,15.3 251.7,18.9 259.7,39.5 267.7,21.8 275.6,42.8 283.6,30.7 291.5,29.0 299.5,20.2 307.4,11.7 315.4,30.8 323.4,5.7 331.3,23.6 339.3,25.1 347.2,5.0 355.2,24.7 363.2,24.3 371.1,8.7 379.1,16.8 387.0,21.3 395.0,43.9" fill="none" stroke="#58a6ff" stroke-width="1.5"/>
<circle cx="395.0" cy="43.9" r="2.5" fill="#58a6ff"/>
</svg>