<svg xmlns="http://www.w3.org/2000/svg" width="400" height="60">
<rect width="400" height="60" fill="#0d1117" rx="4"/>
<polyline points="5.0,14.5 15.3,55.0 25.5,50.9 35.8,32.9 46.1,39.9 56.3,34.9 66.6,24.0 76.8,26.9 87.1,17.5 97.4,20.6 107.6,6.8 117.9,12.8 128.2,16.4 138.4,13.5 148.7,15.9 158.9,18.7 169.2,8.7 179.5,16.0 189.7,11.7 200.0,18.6 210.3,11.3 220.5,11.2 230.8,18.5 241.1,7.5 251.3,14.2 261.6,22.2 271.8,5.0 282.1,11.4 292.4,5.7 302.6,13.4 312.9,6.8 323.2,6.9 333.4,14.2 343.7,9.7 353.9,18.2 364.2,21.8 374.5,7.4 384.7,9.7 395.0,7.3" fill="none" stroke="#58a6ff" stroke-width="1.5"/>
<circle cx="395.0" cy="7.3" r="2.5" fill="#58a6ff"/>
</svg>