<svg xmlns="http://www.w3.org/2000/svg" width="400" height="60">
<rect width="400" height="60" fill="#0d1117" rx="4"/>
<polyline points="5.0,14.5 15.8,55.0 26.7,50.9 37.5,32.9 48.3,39.9 59.2,34.9 70.0,24.0 80.8,26.9 91.7,17.5 102.5,20.6 113.3,6.8 124.2,12.8 135.0,16.4 145.8,13.5 156.7,15.9 167.5,18.7 178.3,8.7 189.2,16.0 200.0,11.7 210.8,18.6 221.7,11.3 232.5,11.2 243.3,18.5 254.2,7.5 265.0,14.2 275.8,22.2 286.7,5.0 297.5,11.4 308.3,5.7 319.2,13.4 330.0,6.8 340.8,6.9 351.7,14.2 362.5,9.7 373.3,18.2 384.2,21.8 395.0,7.4" fill="none" stroke="#58a6ff" stroke-width="1.5"/>
<circle cx="395.0" cy="7.4" r="2.5" fill="#58a6ff"/>
</svg>