<svg xmlns="http://www.w3.org/2000/svg" width="400" height="60">
<rect width="400" height="60" fill="#0d1117" rx="4"/>
<polyline points="5.0,51.6 13.0,22.5 20.9,5.0 28.9,35.6 36.8,11.1 44.8,15.9 52.8,24.3 60.7,22.5 68.7,45.4 76.6,13.4 84.6,43.6 92.6,32.2 100.5,16.7 108.5,44.5 116.4,23.8 124.4,18.1 132.3,25.3 140.3,17.8 148.3,47.6 156.2,34.9 164.2,35.1 172.1,39.1 180.1,34.0 188.1,36.6 196.0,39.6 204.0,36.7 211.9,42.0 219.9,26.3 227.9,33.6 235.8,33.8 243.8,24.3 251.7,41.0 259.7,28.3 267.7,34.9 275.6,37.4 283.6,37.4 291.5,34.3 299.5,26.4 307.4,19.4 315.4,45.7 323.4,17.0 331.3,27.0 339.3,16.0 347.2,48.2 355.2,31.1 363.2,16.5 371.1,46.9 379.1,37.2 387.0,23.8 395.0,55.0" fill="none" stroke="#58a6ff" stroke-width="1.5"/>
<circle cx="395.0" cy="55.0" r="2.5" fill="#58a6ff"/>
</svg>