<svg xmlns="http://www.w3.org/2000/svg" width="400" height="60">
<rect width="400" height="60" fill="#0d1117" rx="4"/>
<polyline points="5.0,45.6 13.0,19.0 20.9,38.4 28.9,26.9 36.8,45.3 44.8,25.9 52.8,25.8 60.7,45.0 68.7,15.9 76.6,33.8 84.6,55.0 92.6,9.3 100.5,26.2 108.5,11.2 116.4,31.5 124.4,14.0 132.3,14.4 140.3,33.8 148.3,21.6 156.2,44.2 164.2,53.9 172.1,15.7 180.1,21.8 188.1,15.4 196.0,35.8 204.0,15.4 211.9,19.0 219.9,39.5 227.9,21.9 235.8,42.9 243.8,30.7 251.7,29.1 259.7,20.3 267.7,11.8 275.6,30.9 283.6,5.8 291.5,23.7 299.5,25.1 307.4,5.1 315.4,24.8 323.4,24.4 331.3,8.9 339.3,16.9 347.2,21.4 355.2,43.9 363.2,5.0 371.1,21.8 379.1,14.1 387.0,14.0 395.0,32.0" fill="none" stroke="#58a6ff" stroke-width="1.5"/>
<circle cx="395.0" cy="32.0" r="2.5" fill="#58a6ff"/>
</svg>