<svg xmlns="http://www.w3.org/2000/svg" width="400" height="60">
<rect width="400" height="60" fill="#0d1117" rx="4"/>
<polyline points="5.0,14.5 13.9,55.0 22.7,50.9 31.6,32.9 40.5,39.9 49.3,34.9 58.2,24.0 67.0,26.9 75.9,17.5 84.8,20.6 93.6,6.8 102.5,12.8 111.4,16.4 120.2,13.5 129.1,15.9 138.0,18.7 146.8,8.7 155.7,16.0 164.5,11.7 173.4,18.6 182.3,11.3 191.1,11.2 200.0,18.5 208.9,7.5 217.7,14.2 226.6,22.2 235.5,5.0 244.3,11.4 253.2,5.7 262.0,13.4 270.9,6.8 279.8,6.9 288.6,14.2 297.5,9.7 306.4,18.2 315.2,21.8 324.1,7.4 333.0,9.7 341.8,7.3 350.7,15.0 359.5,7.3 368.4,8.7 377.3,16.4 386.1,9.8 395.0,17.7" fill="none" stroke="#58a6ff" stroke-width="1.5"/>
<circle cx="395.0" cy="17.7" r="2.5" fill="#58a6ff"/>
</svg>