<svg xmlns="http://www.w3.org/2000/svg" width="400" height="60">
<rect width="400" height="60" fill="#0d1117" rx="4"/>
<polyline points="5.0,14.5 15.0,55.0 25.0,50.9 35.0,32.9 45.0,39.9 55.0,34.9 65.0,24.0 75.0,26.9 85.0,17.5 95.0,20.6 105.0,6.8 115.0,12.8 125.0,16.4 135.0,13.5 145.0,15.9 155.0,18.7 165.0,8.7 175.0,16.0 185.0,11.7 195.0,18.6 205.0,11.3 215.0,11.2 225.0,18.5 235.0,7.5 245.0,14.2 255.0,22.2 265.0,5.0 275.0,11.4 285.0,5.7 295.0,13.4 305.0,6.8 315.0,6.9 325.0,14.2 335.0,9.7 345.0,18.2 355.0,21.8 365.0,7.4 375.0,9.7 385.0,7.3 395.0,15.0" fill="none" stroke="#58a6ff" stroke-width="1.5"/>
<circle cx="395.0" cy="15.0" r="2.5" fill="#58a6ff"/>
</svg>