<svg xmlns="http://www.w3.org/2000/svg" width="400" height="60">
<rect width="400" height="60" fill="#0d1117" rx="4"/>
<polyline points="5.0,22.5 13.0,12.7 20.9,33.2 28.9,26.6 36.8,17.6 44.8,38.6 52.8,5.0 60.7,27.1 68.7,13.8 76.6,34.0 84.6,7.6 92.6,9.1 100.5,25.0 108.5,35.5 116.4,28.8 124.4,46.1 132.3,10.7 140.3,24.4 148.3,18.9 156.2,40.2 164.2,41.5 172.1,18.7 180.1,9.2 188.1,31.0 196.0,23.1 204.0,38.4 211.9,10.9 219.9,32.3 227.9,34.3 235.8,6.5 243.8,27.1 251.7,13.3 259.7,16.8 267.7,35.7 275.6,47.5 283.6,22.5 291.5,35.4 299.5,5.4 307.4,11.9 315.4,25.5 323.4,28.1 331.3,18.5 339.3,19.2 347.2,37.2 355.2,55.0 363.2,42.4 371.1,38.2 379.1,33.1 387.0,7.0 395.0,29.8" fill="none" stroke="#58a6ff" stroke-width="1.5"/>
<circle cx="395.0" cy="29.8" r="2.5" fill="#58a6ff"/>
</svg>