<svg xmlns="http://www.w3.org/2000/svg" width="400" height="60">
<rect width="400" height="60" fill="#0d1117" rx="4"/>
<polyline points="5.0,20.4 13.0,15.7 20.9,21.6 28.9,15.5 36.8,39.9 44.8,29.4 52.8,29.6 60.7,32.9 68.7,28.8 76.6,30.9 84.6,33.3 92.6,31.0 100.5,35.3 108.5,22.4 116.4,28.4 124.4,28.6 132.3,20.8 140.3,34.5 148.3,24.1 156.2,29.5 164.2,31.5 172.1,31.5 180.1,29.0 188.1,22.5 196.0,16.8 204.0,38.3 211.9,14.8 219.9,23.0 227.9,14.0 235.8,40.4 243.8,26.3 251.7,14.4 259.7,39.3 267.7,31.3 275.6,20.3 283.6,45.9 291.5,5.0 299.5,31.9 307.4,15.7 315.4,40.3 323.4,8.2 331.3,10.0 339.3,29.3 347.2,42.1 355.2,34.0 363.2,55.0 371.1,11.9 379.1,28.6 387.0,21.9 395.0,47.8" fill="none" stroke="#58a6ff" stroke-width="1.5"/>
<circle cx="395.0" cy="47.8" r="2.5" fill="#58a6ff"/>
</svg>