<svg xmlns="http://www.w3.org/2000/svg" width="400" height="60">
<rect width="400" height="60" fill="#0d1117" rx="4"/>
<polyline points="5.0,32.9 13.0,28.8 20.9,30.9 28.9,33.3 36.8,31.0 44.8,35.3 52.8,22.4 60.7,28.4 68.7,28.6 76.6,20.8 84.6,34.5 92.6,24.1 100.5,29.5 108.5,31.5 116.4,31.5 124.4,29.0 132.3,22.5 140.3,16.8 148.3,38.3 156.2,14.8 164.2,23.0 172.1,14.0 180.1,40.4 188.1,26.3 196.0,14.4 204.0,39.3 211.9,31.3 219.9,20.3 227.9,45.9 235.8,5.0 243.8,31.9 251.7,15.7 259.7,40.3 267.7,8.2 275.6,10.0 283.6,29.3 291.5,42.1 299.5,34.0 307.4,55.0 315.4,11.9 323.4,28.6 331.3,21.9 339.3,47.8 347.2,49.4 355.2,21.6 363.2,10.2 371.1,36.6 379.1,27.0 387.0,45.6 395.0,12.2" fill="none" stroke="#58a6ff" stroke-width="1.5"/>
<circle cx="395.0" cy="12.2" r="2.5" fill="#58a6ff"/>
</svg>