<svg xmlns="http://www.w3.org/2000/svg" width="400" height="60">
<rect width="400" height="60" fill="#0d1117" rx="4"/>
<polyline points="5.0,14.5 17.2,55.0 29.4,50.9 41.6,32.9 53.8,39.9 65.9,34.9 78.1,24.0 90.3,26.9 102.5,17.5 114.7,20.6 126.9,6.8 139.1,12.8 151.2,16.4 163.4,13.5 175.6,15.9 187.8,18.7 200.0,8.7 212.2,16.0 224.4,11.7 236.6,18.6 248.8,11.3 260.9,11.2 273.1,18.5 285.3,7.5 297.5,14.2 309.7,22.2 321.9,5.0 334.1,11.4 346.2,5.7 358.4,13.4 370.6,6.8 382.8,6.9 395.0,14.2" fill="none" stroke="#58a6ff" stroke-width="1.5"/>
<circle cx="395.0" cy="14.2" r="2.5" fill="#58a6ff"/>
</svg>