<svg xmlns="http://www.w3.org/2000/svg" width="400" height="60">
<rect width="400" height="60" fill="#0d1117" rx="4"/>
<polyline points="5.0,26.6 13.0,18.4 20.9,44.6 28.9,18.3 36.8,23.0 44.8,49.3 52.8,26.8 60.7,53.7 68.7,38.1 76.6,35.9 84.6,24.6 92.6,13.7 100.5,38.3 108.5,6.1 116.4,29.0 124.4,30.9 132.3,5.2 140.3,30.5 148.3,29.9 156.2,9.9 164.2,20.3 172.1,26.1 180.1,55.0 188.1,5.0 196.0,26.6 204.0,16.7 211.9,16.5 219.9,39.7 227.9,7.6 235.8,12.4 243.8,8.6 251.7,23.8 259.7,41.4 267.7,46.0 275.6,49.5 283.6,23.8 291.5,8.3 299.5,35.3 307.4,13.7 315.4,17.9 323.4,25.4 331.3,23.8 339.3,44.0 347.2,15.7 355.2,42.4 363.2,32.4 371.1,18.7 379.1,43.2 387.0,24.9 395.0,19.9" fill="none" stroke="#58a6ff" stroke-width="1.5"/>
<circle cx="395.0" cy="19.9" r="2.5" fill="#58a6ff"/>
</svg>