<svg xmlns="http://www.w3.org/2000/svg" width="400" height="60">
<rect width="400" height="60" fill="#0d1117" rx="4"/>
<polyline points="5.0,5.0 13.0,35.6 20.9,11.1 28.9,15.9 36.8,24.3 44.8,22.5 52.8,45.4 60.7,13.4 68.7,43.6 76.6,32.2 84.6,16.7 92.6,44.5 100.5,23.8 108.5,18.1 116.4,25.3 124.4,17.8 132.3,47.6 140.3,34.9 148.3,35.1 156.2,39.1 164.2,34.0 172.1,36.6 180.1,39.6 188.1,36.7 196.0,42.0 204.0,26.3 211.9,33.6 219.9,33.8 227.9,24.3 235.8,41.0 243.8,28.3 251.7,34.9 259.7,37.4 267.7,37.4 275.6,34.3 283.6,26.4 291.5,19.4 299.5,45.7 307.4,17.0 315.4,27.0 323.4,16.0 331.3,48.2 339.3,31.1 347.2,16.5 355.2,46.9 363.2,37.2 371.1,23.8 379.1,55.0 387.0,5.0 395.0,37.9" fill="none" stroke="#58a6ff" stroke-width="1.5"/>
<circle cx="395.0" cy="37.9" r="2.5" fill="#58a6ff"/>
</svg>