<svg xmlns="http://www.w3.org/2000/svg" width="400" height="60">
<rect width="400" height="60" fill="#0d1117" rx="4"/>
<polyline points="5.0,22.5 13.0,45.4 20.9,13.4 28.9,43.6 36.8,32.2 44.8,16.7 52.8,44.5 60.7,23.8 68.7,18.1 76.6,25.3 84.6,17.8 92.6,47.6 100.5,34.9 108.5,35.1 116.4,39.1 124.4,34.0 132.3,36.6 140.3,39.6 148.3,36.7 156.2,42.0 164.2,26.2 172.1,33.6 180.1,33.8 188.1,24.3 196.0,41.0 204.0,28.3 211.9,34.9 219.9,37.4 227.9,37.4 235.8,34.3 243.8,26.3 251.7,19.4 259.7,45.7 267.7,17.0 275.6,27.0 283.6,15.9 291.5,48.2 299.5,31.0 307.4,16.5 315.4,46.9 323.4,37.1 331.3,23.7 339.3,55.0 347.2,5.0 355.2,37.9 363.2,18.1 371.1,48.1 379.1,8.9 387.0,11.1 395.0,34.7" fill="none" stroke="#58a6ff" stroke-width="1.5"/>
<circle cx="395.0" cy="34.7" r="2.5" fill="#58a6ff"/>
</svg>