<svg xmlns="http://www.w3.org/2000/svg" width="400" height="60">
<rect width="400" height="60" fill="#0d1117" rx="4"/>
<polyline points="5.0,15.7 13.0,43.3 20.9,5.0 28.9,10.7 36.8,6.1 44.8,24.3 52.8,45.3 60.7,50.8 68.7,55.0 76.6,24.3 84.6,5.8 92.6,38.1 100.5,12.2 108.5,17.3 116.4,26.2 124.4,24.3 132.3,48.4 140.3,14.7 148.3,46.5 156.2,34.6 164.2,18.2 172.1,47.5 180.1,25.6 188.1,19.7 196.0,27.2 204.0,19.3 211.9,50.8 219.9,37.3 227.9,37.6 235.8,41.8 243.8,36.5 251.7,39.2 259.7,42.3 267.7,39.3 275.6,44.9 283.6,28.3 291.5,36.0 299.5,36.2 307.4,26.2 315.4,43.8 323.4,30.5 331.3,37.4 339.3,40.0 347.2,40.0 355.2,36.8 363.2,28.4 371.1,21.0 379.1,48.8 387.0,18.5 395.0,29.1" fill="none" stroke="#58a6ff" stroke-width="1.5"/>
<circle cx="395.0" cy="29.1" r="2.5" fill="#58a6ff"/>
</svg>