<svg xmlns="http://www.w3.org/2000/svg" width="400" height="60">
<rect width="400" height="60" fill="#0d1117" rx="4"/>
<polyline points="5.0,45.3 13.0,25.9 20.9,25.8 28.9,45.0 36.8,15.9 44.8,33.8 52.8,55.0 60.7,9.3 68.7,26.2 76.6,11.2 84.6,31.5 92.6,14.0 100.5,14.4 108.5,33.8 116.4,21.6 124.4,44.2 132.3,53.9 140.3,15.7 148.3,21.8 156.2,15.4 164.2,35.8 172.1,15.4 180.1,19.0 188.1,39.5 196.0,21.9 204.0,42.9 211.9,30.7 219.9,29.1 227.9,20.3 235.8,11.8 243.8,30.9 251.7,5.8 259.7,23.7 267.7,25.1 275.6,5.1 283.6,24.8 291.5,24.4 299.5,8.9 307.4,16.9 315.4,21.4 323.4,43.9 331.3,5.0 339.3,21.8 347.2,14.1 355.2,14.0 363.2,32.0 371.1,7.0 379.1,10.8 387.0,7.8 395.0,19.6" fill="none" stroke="#58a6ff" stroke-width="1.5"/>
<circle cx="395.0" cy="19.6" r="2.5" fill="#58a6ff"/>
</svg>