<svg xmlns="http://www.w3.org/2000/svg" width="400" height="60">
<rect width="400" height="60" fill="#0d1117" rx="4"/>
<polyline points="5.0,14.5 13.5,55.0 22.0,50.9 30.4,32.9 38.9,39.9 47.4,34.9 55.9,24.0 64.3,26.9 72.8,17.5 81.3,20.6 89.8,6.8 98.3,12.8 106.7,16.4 115.2,13.5 123.7,15.9 132.2,18.7 140.7,8.7 149.1,16.0 157.6,11.7 166.1,18.6 174.6,11.3 183.0,11.2 191.5,18.5 200.0,7.5 208.5,14.2 217.0,22.2 225.4,5.0 233.9,11.4 242.4,5.7 250.9,13.4 259.3,6.8 267.8,6.9 276.3,14.2 284.8,9.7 293.3,18.2 301.7,21.8 310.2,7.4 318.7,9.7 327.2,7.3 335.7,15.0 344.1,7.3 352.6,8.7 361.1,16.4 369.6,9.8 378.0,17.7 386.5,13.1 395.0,12.5" fill="none" stroke="#58a6ff" stroke-width="1.5"/>
<circle cx="395.0" cy="12.5" r="2.5" fill="#58a6ff"/>
</svg>