<svg xmlns="http://www.w3.org/2000/svg" width="500" height="500" viewBox="0 0 500 500">
<rect width="500" height="500" fill="#00233f"/>
<circle cx="300.0" cy="250.0" r="3.0" fill="#c8ffff" fill-opacity="0.6"/>
<circle cx="350.0" cy="250.0" r="3.0" fill="#c8ffff" fill-opacity="0.6"/>
<circle cx="400.0" cy="250.0" r="3.0" fill="#c8ffff" fill-opacity="0.6"/>
<circle cx="275.0" cy="293.3" r="3.0" fill="#c8ffff" fill-opacity="0.6"/>
<circle cx="300.0" cy="336.6" r="3.0" fill="#c8ffff" fill-opacity="0.6"/>
<circle cx="325.0" cy="379.9" r="3.0" fill="#c8ffff" fill-opacity="0.6"/>
<circle cx="225.0" cy="293.3" r="3.0" fill="#c8ffff" fill-opacity="0.6"/>
<circle cx="200.0" cy="336.6" r="3.0" fill="#c8ffff" fill-opacity="0.6"/>
<circle cx="175.0" cy="379.9" r="3.0" fill="#c8ffff" fill-opacity="0.6"/>
<circle cx="200.0" cy="250.0" r="3.0" fill="#c8ffff" fill-opacity="0.6"/>
<circle cx="150.0" cy="250.0" r="3.0" fill="#c8ffff" fill-opacity="0.6"/>
<circle cx="100.0" cy="250.0" r="3.0" fill="#c8ffff" fill-opacity="0.6"/>
<circle cx="225.0" cy="206.7" r="3.0" fill="#c8ffff" fill-opacity="0.6"/>
<circle cx="200.0" cy="163.4" r="3.0" fill="#c8ffff" fill-opacity="0.6"/>
<circle cx="175.0" cy="120.1" r="3.0" fill="#c8ffff" fill-opacity="0.6"/>
<circle cx="275.0" cy="206.7" r="3.0" fill="#c8ffff" fill-opacity="0.6"/>
<circle cx="300.0" cy="163.4" r="3.0" fill="#c8ffff" fill-opacity="0.6"/>
<circle cx="325.0" cy="120.1" r="3.0" fill="#c8ffff" fill-opacity="0.6"/>
<circle cx="300.0" cy="250.0" r="3.0" fill="#c8ffff" fill-opacity="0.6"/>
<circle cx="350.0" cy="250.0" r="3.0" fill="#c8ffff" fill-opacity="0.6"/>
<circle cx="400.0" cy="250.0" r="3.0" fill="#c8ffff" fill-opacity="0.6"/>
<circle cx="290.6" cy="279.2" r="3.0" fill="#c8ffff" fill-opacity="0.6"/>
<circle cx="331.1" cy="308.5" r="3.0" fill="#c8ffff" fill-opacity="0.6"/>
<circle cx="371.7" cy="337.7" r="3.0" fill="#c8ffff" fill-opacity="0.6"/>
<circle cx="265.8" cy="297.4" r="3.0" fill="#c8ffff" fill-opacity="0.6"/>
<circle cx="281.6" cy="344.9" r="3.0" fill="#c8ffff" fill-opacity="0.6"/>
<circle cx="297.3" cy="392.3" r="3.0" fill="#c8ffff" fill-opacity="0.6"/>
<circle cx="235.0" cy="297.7" r="3.0" fill="#c8ffff" fill-opacity="0.6"/>
<circle cx="220.1" cy="345.4" r="3.0" fill="#c8ffff" fill-opacity="0.6"/>
<circle cx="205.1" cy="393.1" r="3.0" fill="#c8ffff" fill-opacity="0.6"/>
<circle cx="210.0" cy="280.0" r="3.0" fill="#c8ffff" fill-opacity="0.6"/>
<circle cx="169.9" cy="309.9" r="3.0" fill="#c8ffff" fill-opacity="0.6"/>
<circle cx="129.9" cy="339.9" r="3.0" fill="#c8ffff" fill-opacity="0.6"/>
<circle cx="200.0" cy="250.9" r="3.0" fill="#c8ffff" fill-opacity="0.6"/>
<circle cx="150.0" cy="251.7" r="3.0" fill="#c8ffff" fill-opacity="0.6"/>
<circle cx="100.0" cy="252.6" r="3.0" fill="#c8ffff" fill-opacity="0.6"/>
<circle cx="208.9" cy="221.5" r="3.0" fill="#c8ffff" fill-opacity="0.6"/>
<circle cx="167.9" cy="192.9" r="3.0" fill="#c8ffff" fill-opacity="0.6"/>
<circle cx="126.8" cy="164.4" r="3.0" fill="#c8ffff" fill-opacity="0.6"/>
<circle cx="233.4" cy="202.8" r="3.0" fill="#c8ffff" fill-opacity="0.6"/>
<circle cx="216.8" cy="155.7" r="3.0" fill="#c8ffff" fill-opacity="0.6"/>
<circle cx="200.2" cy="108.5" r="3.0" fill="#c8ffff" fill-opacity="0.6"/>
<circle cx="264.1" cy="202.0" r="3.0" fill="#c8ffff" fill-opacity="0.6"/>
<circle cx="278.2" cy="154.1" r="3.0" fill="#c8ffff" fill-opacity="0.6"/>
<circle cx="292.4" cy="106.1" r="3.0" fill="#c8ffff" fill-opacity="0.6"/>
<circle cx="250.0" cy="250.0" r="200.0" fill="#ff3cb4" fill-opacity="0.20" stroke="#ff3cb4" stroke-width="1.5"/>
<circle cx="250.0" cy="250.0" r="183.3" fill="#ec44c7" fill-opacity="0.20" stroke="#ec44c7" stroke-width="1.5"/>
<circle cx="250.0" cy="250.0" r="166.7" fill="#d94cd9" fill-opacity="0.19" stroke="#d94cd9" stroke-width="1.5"/>
<circle cx="250.0" cy="250.0" r="150.0" fill="#c655e9" fill-opacity="0.19" stroke="#c655e9" stroke-width="1.5"/>
<circle cx="250.0" cy="250.0" r="133.3" fill="#b45df4" fill-opacity="0.18" stroke="#b45df4" stroke-width="1.5"/>
<circle cx="250.0" cy="250.0" r="116.7" fill="#a165fc" fill-opacity="0.18" stroke="#a165fc" stroke-width="1.5"/>
<circle cx="250.0" cy="250.0" r="100.0" fill="#8e6eff" fill-opacity="0.17" stroke="#8e6eff" stroke-width="1.5"/>
<circle cx="250.0" cy="250.0" r="83.3" fill="#7b76fc" fill-opacity="0.17" stroke="#7b76fc" stroke-width="1.5"/>
<circle cx="250.0" cy="250.0" r="66.7" fill="#697ef4" fill-opacity="0.17" stroke="#697ef4" stroke-width="1.5"/>
<circle cx="250.0" cy="250.0" r="50.0" fill="#5687e9" fill-opacity="0.16" stroke="#5687e9" stroke-width="1.5"/>
<circle cx="250.0" cy="250.0" r="33.3" fill="#438fd9" fill-opacity="0.16" stroke="#438fd9" stroke-width="1.5"/>
<circle cx="250.0" cy="250.0" r="16.7" fill="#3097c7" fill-opacity="0.15" stroke="#3097c7" stroke-width="1.5"/>
<line x1="250.0" y1="250.0" x2="460.0" y2="250.0" stroke="#5028c8" stroke-width="2.0" opacity="0.30"/>
<line x1="250.0" y1="250.0" x2="447.3" y2="321.8" stroke="#5e2fba" stroke-width="2.0" opacity="0.32"/>
<line x1="250.0" y1="250.0" x2="410.9" y2="385.0" stroke="#6c36ac" stroke-width="2.0" opacity="0.34"/>
<line x1="250.0" y1="250.0" x2="355.0" y2="431.9" stroke="#7a3d9e" stroke-width="2.0" opacity="0.37"/>
<line x1="250.0" y1="250.0" x2="286.5" y2="456.8" stroke="#884490" stroke-width="2.0" opacity="0.39"/>
<line x1="250.0" y1="250.0" x2="213.5" y2="456.8" stroke="#964b82" stroke-width="2.0" opacity="0.41"/>
<line x1="250.0" y1="250.0" x2="145.0" y2="431.9" stroke="#a55273" stroke-width="2.0" opacity="0.43"/>
<line x1="250.0" y1="250.0" x2="89.1" y2="385.0" stroke="#b35965" stroke-width="2.0" opacity="0.46"/>
<line x1="250.0" y1="250.0" x2="52.7" y2="321.8" stroke="#c16057" stroke-width="2.0" opacity="0.48"/>
<line x1="250.0" y1="250.0" x2="40.0" y2="250.0" stroke="#cf6749" stroke-width="2.0" opacity="0.50"/>
<line x1="250.0" y1="250.0" x2="52.7" y2="178.2" stroke="#dd6e3b" stroke-width="2.0" opacity="0.52"/>
<line x1="250.0" y1="250.0" x2="89.1" y2="115.0" stroke="#eb752d" stroke-width="2.0" opacity="0.54"/>
<line x1="250.0" y1="250.0" x2="145.0" y2="68.1" stroke="#fa7d1e" stroke-width="2.0" opacity="0.57"/>
<line x1="250.0" y1="250.0" x2="213.5" y2="43.2" stroke="#ff8410" stroke-width="2.0" opacity="0.59"/>
<line x1="250.0" y1="250.0" x2="286.5" y2="43.2" stroke="#ff8b02" stroke-width="2.0" opacity="0.61"/>
<line x1="250.0" y1="250.0" x2="355.0" y2="68.1" stroke="#ff9200" stroke-width="2.0" opacity="0.63"/>
<line x1="250.0" y1="250.0" x2="410.9" y2="115.0" stroke="#ff9900" stroke-width="2.0" opacity="0.66"/>
<line x1="250.0" y1="250.0" x2="447.3" y2="178.2" stroke="#ffa000" stroke-width="2.0" opacity="0.68"/>
<circle cx="250.0" cy="250.0" r="8.0" fill="#ffe9de" fill-opacity="0.9"/>
</svg>