<svg xmlns="http://www.w3.org/2000/svg" width="500" height="500" viewBox="0 0 500 500">
<rect width="500" height="500" fill="#004951"/>
<circle cx="363.1" cy="292.9" r="3.0" fill="#a6ffe3" fill-opacity="0.6"/>
<circle cx="408.3" cy="292.9" r="3.0" fill="#a6ffe3" fill-opacity="0.6"/>
<circle cx="453.5" cy="292.9" r="3.0" fill="#a6ffe3" fill-opacity="0.6"/>
<circle cx="308.7" cy="389.5" r="3.0" fill="#a6ffe3" fill-opacity="0.6"/>
<circle cx="332.2" cy="428.2" r="3.0" fill="#a6ffe3" fill-opacity="0.6"/>
<circle cx="355.7" cy="466.8" r="3.0" fill="#a6ffe3" fill-opacity="0.6"/>
<circle cx="197.9" cy="393.2" r="3.0" fill="#a6ffe3" fill-opacity="0.6"/>
<circle cx="177.0" cy="433.3" r="3.0" fill="#a6ffe3" fill-opacity="0.6"/>
<circle cx="156.2" cy="473.5" r="3.0" fill="#a6ffe3" fill-opacity="0.6"/>
<circle cx="137.2" cy="300.4" r="3.0" fill="#a6ffe3" fill-opacity="0.6"/>
<circle cx="92.1" cy="303.4" r="3.0" fill="#a6ffe3" fill-opacity="0.6"/>
<circle cx="46.9" cy="306.4" r="3.0" fill="#a6ffe3" fill-opacity="0.6"/>
<circle cx="185.0" cy="200.4" r="3.0" fill="#a6ffe3" fill-opacity="0.6"/>
<circle cx="159.0" cy="163.4" r="3.0" fill="#a6ffe3" fill-opacity="0.6"/>
<circle cx="133.0" cy="126.4" r="3.0" fill="#a6ffe3" fill-opacity="0.6"/>
<circle cx="295.3" cy="189.3" r="3.0" fill="#a6ffe3" fill-opacity="0.6"/>
<circle cx="313.4" cy="147.9" r="3.0" fill="#a6ffe3" fill-opacity="0.6"/>
<circle cx="331.6" cy="106.4" r="3.0" fill="#a6ffe3" fill-opacity="0.6"/>
<circle cx="250.0" cy="292.87" r="226.1" fill="#11414ae" fill-opacity="0.18" stroke="#11414ae" stroke-width="1.5"/>
<circle cx="250.0" cy="292.87" r="203.5" fill="#fc1cc8" fill-opacity="0.17" stroke="#fc1cc8" stroke-width="1.5"/>
<circle cx="250.0" cy="292.87" r="180.9" fill="#e424e1" fill-opacity="0.17" stroke="#e424e1" stroke-width="1.5"/>
<circle cx="250.0" cy="292.87" r="158.3" fill="#cc2cf4" fill-opacity="0.16" stroke="#cc2cf4" stroke-width="1.5"/>
<circle cx="250.0" cy="292.87" r="135.7" fill="#b434100" fill-opacity="0.16" stroke="#b434100" stroke-width="1.5"/>
<circle cx="250.0" cy="292.87" r="113.1" fill="#9d3c105" fill-opacity="0.15" stroke="#9d3c105" stroke-width="1.5"/>
<circle cx="250.0" cy="292.87" r="90.4" fill="#8544100" fill-opacity="0.14" stroke="#8544100" stroke-width="1.5"/>
<circle cx="250.0" cy="292.87" r="67.8" fill="#6d4df4" fill-opacity="0.14" stroke="#6d4df4" stroke-width="1.5"/>
<circle cx="250.0" cy="292.87" r="45.2" fill="#5555e1" fill-opacity="0.13" stroke="#5555e1" stroke-width="1.5"/>
<circle cx="250.0" cy="292.87" r="22.6" fill="#3d5dc8" fill-opacity="0.13" stroke="#3d5dc8" stroke-width="1.5"/>
<circle cx="295.2" cy="292.9" r="3.0" fill="#cbe6ea" fill-opacity="0.6"/>
<circle cx="340.4" cy="292.9" r="3.0" fill="#cbe6ea" fill-opacity="0.6"/>
<circle cx="385.7" cy="292.9" r="3.0" fill="#cbe6ea" fill-opacity="0.6"/>
<circle cx="430.9" cy="292.9" r="3.0" fill="#cbe6ea" fill-opacity="0.6"/>
<circle cx="279.0" cy="327.6" r="3.0" fill="#cbe6ea" fill-opacity="0.6"/>
<circle cx="307.9" cy="362.3" r="3.0" fill="#cbe6ea" fill-opacity="0.6"/>
<circle cx="336.9" cy="397.1" r="3.0" fill="#cbe6ea" fill-opacity="0.6"/>
<circle cx="365.9" cy="431.8" r="3.0" fill="#cbe6ea" fill-opacity="0.6"/>
<circle cx="241.9" cy="337.4" r="3.0" fill="#cbe6ea" fill-opacity="0.6"/>
<circle cx="233.8" cy="381.8" r="3.0" fill="#cbe6ea" fill-opacity="0.6"/>
<circle cx="225.6" cy="426.3" r="3.0" fill="#cbe6ea" fill-opacity="0.6"/>
<circle cx="217.5" cy="470.8" r="3.0" fill="#cbe6ea" fill-opacity="0.6"/>
<circle cx="210.6" cy="315.1" r="3.0" fill="#cbe6ea" fill-opacity="0.6"/>
<circle cx="171.3" cy="337.4" r="3.0" fill="#cbe6ea" fill-opacity="0.6"/>
<circle cx="131.9" cy="359.6" r="3.0" fill="#cbe6ea" fill-opacity="0.6"/>
<circle cx="92.5" cy="381.9" r="3.0" fill="#cbe6ea" fill-opacity="0.6"/>
<circle cx="207.7" cy="276.9" r="3.0" fill="#cbe6ea" fill-opacity="0.6"/>
<circle cx="165.4" cy="260.9" r="3.0" fill="#cbe6ea" fill-opacity="0.6"/>
<circle cx="123.1" cy="244.9" r="3.0" fill="#cbe6ea" fill-opacity="0.6"/>
<circle cx="80.8" cy="228.9" r="3.0" fill="#cbe6ea" fill-opacity="0.6"/>
<circle cx="235.2" cy="250.1" r="3.0" fill="#cbe6ea" fill-opacity="0.6"/>
<circle cx="220.4" cy="207.4" r="3.0" fill="#cbe6ea" fill-opacity="0.6"/>
<circle cx="205.5" cy="164.7" r="3.0" fill="#cbe6ea" fill-opacity="0.6"/>
<circle cx="190.7" cy="122.0" r="3.0" fill="#cbe6ea" fill-opacity="0.6"/>
<circle cx="273.3" cy="254.1" r="3.0" fill="#cbe6ea" fill-opacity="0.6"/>
<circle cx="296.7" cy="215.4" r="3.0" fill="#cbe6ea" fill-opacity="0.6"/>
<circle cx="320.0" cy="176.6" r="3.0" fill="#cbe6ea" fill-opacity="0.6"/>
<circle cx="343.3" cy="137.9" r="3.0" fill="#cbe6ea" fill-opacity="0.6"/>
<circle cx="294.7" cy="286.0" r="3.0" fill="#cbe6ea" fill-opacity="0.6"/>
<circle cx="339.4" cy="279.1" r="3.0" fill="#cbe6ea" fill-opacity="0.6"/>
<circle cx="384.1" cy="272.2" r="3.0" fill="#cbe6ea" fill-opacity="0.6"/>
<circle cx="428.8" cy="265.3" r="3.0" fill="#cbe6ea" fill-opacity="0.6"/>
<circle cx="340.4" cy="292.9" r="3.0" fill="#a3ddff" fill-opacity="0.6"/>
<circle cx="385.7" cy="292.9" r="3.0" fill="#a3ddff" fill-opacity="0.6"/>
<circle cx="430.9" cy="292.9" r="3.0" fill="#a3ddff" fill-opacity="0.6"/>
<circle cx="280.6" cy="378.0" r="3.0" fill="#a3ddff" fill-opacity="0.6"/>
<circle cx="296.0" cy="420.5" r="3.0" fill="#a3ddff" fill-opacity="0.6"/>
<circle cx="311.3" cy="463.1" r="3.0" fill="#a3ddff" fill-opacity="0.6"/>
<circle cx="180.3" cy="350.5" r="3.0" fill="#a3ddff" fill-opacity="0.6"/>
<circle cx="145.5" cy="379.4" r="3.0" fill="#a3ddff" fill-opacity="0.6"/>
<circle cx="110.6" cy="408.2" r="3.0" fill="#a3ddff" fill-opacity="0.6"/>
<circle cx="172.1" cy="246.8" r="3.0" fill="#a3ddff" fill-opacity="0.6"/>
<circle cx="133.2" cy="223.8" r="3.0" fill="#a3ddff" fill-opacity="0.6"/>
<circle cx="94.3" cy="200.8" r="3.0" fill="#a3ddff" fill-opacity="0.6"/>
<circle cx="250.0" cy="292.87" r="226.1" fill="#bc41ae" fill-opacity="0.25" stroke="#bc41ae" stroke-width="1.5"/>
<circle cx="250.0" cy="292.87" r="203.5" fill="#ac49c0" fill-opacity="0.24" stroke="#ac49c0" stroke-width="1.5"/>
<circle cx="250.0" cy="292.87" r="180.9" fill="#9d51d0" fill-opacity="0.24" stroke="#9d51d0" stroke-width="1.5"/>
<circle cx="250.0" cy="292.87" r="158.3" fill="#8e59dd" fill-opacity="0.23" stroke="#8e59dd" stroke-width="1.5"/>
<circle cx="250.0" cy="292.87" r="135.7" fill="#7f61e6" fill-opacity="0.23" stroke="#7f61e6" stroke-width="1.5"/>
<circle cx="250.0" cy="292.87" r="113.1" fill="#7069e9" fill-opacity="0.22" stroke="#7069e9" stroke-width="1.5"/>
<circle cx="250.0" cy="292.87" r="90.4" fill="#6071e6" fill-opacity="0.21" stroke="#6071e6" stroke-width="1.5"/>
<circle cx="250.0" cy="292.87" r="67.8" fill="#5179dd" fill-opacity="0.21" stroke="#5179dd" stroke-width="1.5"/>
<circle cx="250.0" cy="292.87" r="45.2" fill="#4281d0" fill-opacity="0.20" stroke="#4281d0" stroke-width="1.5"/>
<circle cx="250.0" cy="292.87" r="22.6" fill="#3389c0" fill-opacity="0.20" stroke="#3389c0" stroke-width="1.5"/>
<line x1="250.0" y1="292.87" x2="443.1" y2="292.9" stroke="#5028c8" stroke-width="2.35" opacity="0.30"/>
<line x1="250.0" y1="292.87" x2="428.4" y2="366.8" stroke="#5f2eb9" stroke-width="2.35" opacity="0.33"/>
<line x1="250.0" y1="292.87" x2="386.5" y2="429.4" stroke="#6f36a9" stroke-width="2.35" opacity="0.35"/>
<line x1="250.0" y1="292.87" x2="323.9" y2="471.3" stroke="#7f3d99" stroke-width="2.35" opacity="0.38"/>
<line x1="250.0" y1="292.87" x2="250.0" y2="486.0" stroke="#8f4489" stroke-width="2.35" opacity="0.40"/>
<line x1="250.0" y1="292.87" x2="176.1" y2="471.3" stroke="#9f4c79" stroke-width="2.35" opacity="0.42"/>
<line x1="250.0" y1="292.87" x2="113.5" y2="429.4" stroke="#af5369" stroke-width="2.35" opacity="0.45"/>
<line x1="250.0" y1="292.87" x2="71.6" y2="366.8" stroke="#bf5b59" stroke-width="2.35" opacity="0.47"/>
<line x1="250.0" y1="292.87" x2="56.9" y2="292.9" stroke="#cf6249" stroke-width="2.35" opacity="0.50"/>
<line x1="250.0" y1="292.87" x2="71.6" y2="219.0" stroke="#df6939" stroke-width="2.35" opacity="0.53"/>
<line x1="250.0" y1="292.87" x2="113.5" y2="156.3" stroke="#ef7129" stroke-width="2.35" opacity="0.55"/>
<line x1="250.0" y1="292.87" x2="176.1" y2="114.5" stroke="#ff7819" stroke-width="2.35" opacity="0.57"/>
<line x1="250.0" y1="292.87" x2="250.0" y2="99.8" stroke="#ff7f09" stroke-width="2.35" opacity="0.60"/>
<line x1="250.0" y1="292.87" x2="323.9" y2="114.5" stroke="#ff8700" stroke-width="2.35" opacity="0.62"/>
<line x1="250.0" y1="292.87" x2="386.5" y2="156.3" stroke="#ff8e00" stroke-width="2.35" opacity="0.65"/>
<line x1="250.0" y1="292.87" x2="428.4" y2="219.0" stroke="#ff9500" stroke-width="2.35" opacity="0.68"/>
<circle cx="317.8" cy="292.9" r="3.0" fill="#adedd8" fill-opacity="0.6"/>
<circle cx="385.7" cy="292.9" r="3.0" fill="#adedd8" fill-opacity="0.6"/>
<circle cx="453.5" cy="292.9" r="3.0" fill="#adedd8" fill-opacity="0.6"/>
<circle cx="276.0" cy="355.5" r="3.0" fill="#adedd8" fill-opacity="0.6"/>
<circle cx="301.9" cy="418.2" r="3.0" fill="#adedd8" fill-opacity="0.6"/>
<circle cx="327.9" cy="480.9" r="3.0" fill="#adedd8" fill-opacity="0.6"/>
<circle cx="202.0" cy="340.8" r="3.0" fill="#adedd8" fill-opacity="0.6"/>
<circle cx="154.1" cy="388.8" r="3.0" fill="#adedd8" fill-opacity="0.6"/>
<circle cx="106.1" cy="436.8" r="3.0" fill="#adedd8" fill-opacity="0.6"/>
<circle cx="187.3" cy="266.9" r="3.0" fill="#adedd8" fill-opacity="0.6"/>
<circle cx="124.7" cy="241.0" r="3.0" fill="#adedd8" fill-opacity="0.6"/>
<circle cx="62.0" cy="215.0" r="3.0" fill="#adedd8" fill-opacity="0.6"/>
<circle cx="250.0" cy="225.0" r="3.0" fill="#adedd8" fill-opacity="0.6"/>
<circle cx="250.0" cy="157.2" r="3.0" fill="#adedd8" fill-opacity="0.6"/>
<circle cx="250.0" cy="89.4" r="3.0" fill="#adedd8" fill-opacity="0.6"/>
<circle cx="312.7" cy="266.9" r="3.0" fill="#adedd8" fill-opacity="0.6"/>
<circle cx="375.3" cy="241.0" r="3.0" fill="#adedd8" fill-opacity="0.6"/>
<circle cx="438.0" cy="215.0" r="3.0" fill="#adedd8" fill-opacity="0.6"/>
<circle cx="250.0" cy="292.87" r="226.1" fill="#da3ccd" fill-opacity="0.20" stroke="#da3ccd" stroke-width="1.5"/>
<circle cx="250.0" cy="292.87" r="203.5" fill="#c746e4" fill-opacity="0.20" stroke="#c746e4" stroke-width="1.5"/>
<circle cx="250.0" cy="292.87" r="180.9" fill="#b450f9" fill-opacity="0.19" stroke="#b450f9" stroke-width="1.5"/>
<circle cx="250.0" cy="292.87" r="158.3" fill="#a15a109" fill-opacity="0.18" stroke="#a15a109" stroke-width="1.5"/>
<circle cx="250.0" cy="292.87" r="135.7" fill="#8e64114" fill-opacity="0.18" stroke="#8e64114" stroke-width="1.5"/>
<circle cx="250.0" cy="292.87" r="113.1" fill="#7c6e118" fill-opacity="0.17" stroke="#7c6e118" stroke-width="1.5"/>
<circle cx="250.0" cy="292.87" r="90.4" fill="#6978114" fill-opacity="0.17" stroke="#6978114" stroke-width="1.5"/>
<circle cx="250.0" cy="292.87" r="67.8" fill="#5682109" fill-opacity="0.16" stroke="#5682109" stroke-width="1.5"/>
<circle cx="250.0" cy="292.87" r="45.2" fill="#438cf9" fill-opacity="0.16" stroke="#438cf9" stroke-width="1.5"/>
<circle cx="250.0" cy="292.87" r="22.6" fill="#3096e4" fill-opacity="0.15" stroke="#3096e4" stroke-width="1.5"/>
<circle cx="363.1" cy="292.9" r="3.0" fill="#aad6ff" fill-opacity="0.6"/>
<circle cx="408.3" cy="292.9" r="3.0" fill="#aad6ff" fill-opacity="0.6"/>
<circle cx="453.5" cy="292.9" r="3.0" fill="#aad6ff" fill-opacity="0.6"/>
<circle cx="277.5" cy="402.5" r="3.0" fill="#aad6ff" fill-opacity="0.6"/>
<circle cx="288.5" cy="446.4" r="3.0" fill="#aad6ff" fill-opacity="0.6"/>
<circle cx="299.4" cy="490.3" r="3.0" fill="#aad6ff" fill-opacity="0.6"/>
<circle cx="150.3" cy="346.2" r="3.0" fill="#aad6ff" fill-opacity="0.6"/>
<circle cx="110.4" cy="367.5" r="3.0" fill="#aad6ff" fill-opacity="0.6"/>
<circle cx="70.5" cy="388.8" r="3.0" fill="#aad6ff" fill-opacity="0.6"/>
<circle cx="174.1" cy="209.1" r="3.0" fill="#aad6ff" fill-opacity="0.6"/>
<circle cx="143.7" cy="175.6" r="3.0" fill="#aad6ff" fill-opacity="0.6"/>
<circle cx="113.3" cy="142.1" r="3.0" fill="#aad6ff" fill-opacity="0.6"/>
<circle cx="317.8" cy="292.9" r="3.0" fill="#abbddc" fill-opacity="0.6"/>
<circle cx="363.1" cy="292.9" r="3.0" fill="#abbddc" fill-opacity="0.6"/>
<circle cx="408.3" cy="292.9" r="3.0" fill="#abbddc" fill-opacity="0.6"/>
<circle cx="453.5" cy="292.9" r="3.0" fill="#abbddc" fill-opacity="0.6"/>
<circle cx="306.7" cy="330.1" r="3.0" fill="#abbddc" fill-opacity="0.6"/>
<circle cx="344.5" cy="354.9" r="3.0" fill="#abbddc" fill-opacity="0.6"/>
<circle cx="382.3" cy="379.8" r="3.0" fill="#abbddc" fill-opacity="0.6"/>
<circle cx="420.1" cy="404.6" r="3.0" fill="#abbddc" fill-opacity="0.6"/>
<circle cx="276.9" cy="355.1" r="3.0" fill="#abbddc" fill-opacity="0.6"/>
<circle cx="294.9" cy="396.6" r="3.0" fill="#abbddc" fill-opacity="0.6"/>
<circle cx="312.9" cy="438.1" r="3.0" fill="#abbddc" fill-opacity="0.6"/>
<circle cx="330.8" cy="479.6" r="3.0" fill="#abbddc" fill-opacity="0.6"/>
<circle cx="238.3" cy="359.7" r="3.0" fill="#abbddc" fill-opacity="0.6"/>
<circle cx="230.6" cy="404.2" r="3.0" fill="#abbddc" fill-opacity="0.6"/>
<circle cx="222.8" cy="448.8" r="3.0" fill="#abbddc" fill-opacity="0.6"/>
<circle cx="215.0" cy="493.3" r="3.0" fill="#abbddc" fill-opacity="0.6"/>
<circle cx="203.6" cy="342.3" r="3.0" fill="#abbddc" fill-opacity="0.6"/>
<circle cx="172.6" cy="375.3" r="3.0" fill="#abbddc" fill-opacity="0.6"/>
<circle cx="141.6" cy="408.3" r="3.0" fill="#abbddc" fill-opacity="0.6"/>
<circle cx="110.7" cy="441.2" r="3.0" fill="#abbddc" fill-opacity="0.6"/>
<circle cx="184.0" cy="308.7" r="3.0" fill="#abbddc" fill-opacity="0.6"/>
<circle cx="140.1" cy="319.3" r="3.0" fill="#abbddc" fill-opacity="0.6"/>
<circle cx="96.1" cy="329.8" r="3.0" fill="#abbddc" fill-opacity="0.6"/>
<circle cx="52.1" cy="340.4" r="3.0" fill="#abbddc" fill-opacity="0.6"/>
<circle cx="186.2" cy="269.9" r="3.0" fill="#abbddc" fill-opacity="0.6"/>
<circle cx="143.6" cy="254.6" r="3.0" fill="#abbddc" fill-opacity="0.6"/>
<circle cx="101.1" cy="239.3" r="3.0" fill="#abbddc" fill-opacity="0.6"/>
<circle cx="58.5" cy="223.9" r="3.0" fill="#abbddc" fill-opacity="0.6"/>
<circle cx="209.3" cy="238.6" r="3.0" fill="#abbddc" fill-opacity="0.6"/>
<circle cx="182.1" cy="202.5" r="3.0" fill="#abbddc" fill-opacity="0.6"/>
<circle cx="155.0" cy="166.3" r="3.0" fill="#abbddc" fill-opacity="0.6"/>
<circle cx="127.8" cy="130.1" r="3.0" fill="#abbddc" fill-opacity="0.6"/>
<circle cx="340.4" cy="292.9" r="3.0" fill="#91c0f3" fill-opacity="0.6"/>
<circle cx="385.7" cy="292.9" r="3.0" fill="#91c0f3" fill-opacity="0.6"/>
<circle cx="430.9" cy="292.9" r="3.0" fill="#91c0f3" fill-opacity="0.6"/>
<circle cx="321.0" cy="348.9" r="3.0" fill="#91c0f3" fill-opacity="0.6"/>
<circle cx="356.5" cy="376.9" r="3.0" fill="#91c0f3" fill-opacity="0.6"/>
<circle cx="392.1" cy="404.9" r="3.0" fill="#91c0f3" fill-opacity="0.6"/>
<circle cx="271.1" cy="380.8" r="3.0" fill="#91c0f3" fill-opacity="0.6"/>
<circle cx="281.7" cy="424.8" r="3.0" fill="#91c0f3" fill-opacity="0.6"/>
<circle cx="292.2" cy="468.8" r="3.0" fill="#91c0f3" fill-opacity="0.6"/>
<circle cx="212.1" cy="375.0" r="3.0" fill="#91c0f3" fill-opacity="0.6"/>
<circle cx="193.2" cy="416.1" r="3.0" fill="#91c0f3" fill-opacity="0.6"/>
<circle cx="174.3" cy="457.1" r="3.0" fill="#91c0f3" fill-opacity="0.6"/>
<circle cx="169.4" cy="333.9" r="3.0" fill="#91c0f3" fill-opacity="0.6"/>
<circle cx="129.1" cy="354.5" r="3.0" fill="#91c0f3" fill-opacity="0.6"/>
<circle cx="88.8" cy="375.0" r="3.0" fill="#91c0f3" fill-opacity="0.6"/>
<circle cx="161.3" cy="275.2" r="3.0" fill="#91c0f3" fill-opacity="0.6"/>
<circle cx="116.9" cy="266.4" r="3.0" fill="#91c0f3" fill-opacity="0.6"/>
<circle cx="72.6" cy="257.6" r="3.0" fill="#91c0f3" fill-opacity="0.6"/>
<circle cx="191.3" cy="224.1" r="3.0" fill="#91c0f3" fill-opacity="0.6"/>
<circle cx="161.9" cy="189.7" r="3.0" fill="#91c0f3" fill-opacity="0.6"/>
<circle cx="132.5" cy="155.3" r="3.0" fill="#91c0f3" fill-opacity="0.6"/>
<circle cx="246.4" cy="202.5" r="3.0" fill="#91c0f3" fill-opacity="0.6"/>
<circle cx="244.7" cy="157.3" r="3.0" fill="#91c0f3" fill-opacity="0.6"/>
<circle cx="242.9" cy="112.1" r="3.0" fill="#91c0f3" fill-opacity="0.6"/>
<circle cx="295.2" cy="292.9" r="3.0" fill="#add9b9" fill-opacity="0.6"/>
<circle cx="363.1" cy="292.9" r="3.0" fill="#add9b9" fill-opacity="0.6"/>
<circle cx="430.9" cy="292.9" r="3.0" fill="#add9b9" fill-opacity="0.6"/>
<circle cx="271.5" cy="332.7" r="3.0" fill="#add9b9" fill-opacity="0.6"/>
<circle cx="303.7" cy="392.4" r="3.0" fill="#add9b9" fill-opacity="0.6"/>
<circle cx="335.9" cy="452.1" r="3.0" fill="#add9b9" fill-opacity="0.6"/>
<circle cx="225.2" cy="330.7" r="3.0" fill="#add9b9" fill-opacity="0.6"/>
<circle cx="187.9" cy="387.4" r="3.0" fill="#add9b9" fill-opacity="0.6"/>
<circle cx="150.7" cy="444.1" r="3.0" fill="#add9b9" fill-opacity="0.6"/>
<circle cx="204.9" cy="289.0" r="3.0" fill="#add9b9" fill-opacity="0.6"/>
<circle cx="137.4" cy="283.1" r="3.0" fill="#add9b9" fill-opacity="0.6"/>
<circle cx="69.8" cy="277.3" r="3.0" fill="#add9b9" fill-opacity="0.6"/>
<circle cx="317.8" cy="292.9" r="3.0" fill="#a9cfff" fill-opacity="0.6"/>
<circle cx="363.1" cy="292.9" r="3.0" fill="#a9cfff" fill-opacity="0.6"/>
<circle cx="408.3" cy="292.9" r="3.0" fill="#a9cfff" fill-opacity="0.6"/>
<circle cx="453.5" cy="292.9" r="3.0" fill="#a9cfff" fill-opacity="0.6"/>
<circle cx="295.9" cy="342.9" r="3.0" fill="#a9cfff" fill-opacity="0.6"/>
<circle cx="326.4" cy="376.2" r="3.0" fill="#a9cfff" fill-opacity="0.6"/>
<circle cx="357.0" cy="409.5" r="3.0" fill="#a9cfff" fill-opacity="0.6"/>
<circle cx="387.6" cy="442.9" r="3.0" fill="#a9cfff" fill-opacity="0.6"/>
<circle cx="244.1" cy="360.5" r="3.0" fill="#a9cfff" fill-opacity="0.6"/>
<circle cx="240.2" cy="405.5" r="3.0" fill="#a9cfff" fill-opacity="0.6"/>
<circle cx="236.3" cy="450.6" r="3.0" fill="#a9cfff" fill-opacity="0.6"/>
<circle cx="232.4" cy="495.6" r="3.0" fill="#a9cfff" fill-opacity="0.6"/>
<circle cx="196.2" cy="334.2" r="3.0" fill="#a9cfff" fill-opacity="0.6"/>
<circle cx="160.4" cy="361.8" r="3.0" fill="#a9cfff" fill-opacity="0.6"/>
<circle cx="124.6" cy="389.4" r="3.0" fill="#a9cfff" fill-opacity="0.6"/>
<circle cx="88.7" cy="417.0" r="3.0" fill="#a9cfff" fill-opacity="0.6"/>
<circle cx="183.2" cy="281.2" r="3.0" fill="#a9cfff" fill-opacity="0.6"/>
<circle cx="138.6" cy="273.4" r="3.0" fill="#a9cfff" fill-opacity="0.6"/>
<circle cx="94.1" cy="265.7" r="3.0" fill="#a9cfff" fill-opacity="0.6"/>
<circle cx="49.5" cy="257.9" r="3.0" fill="#a9cfff" fill-opacity="0.6"/>
<circle cx="213.4" cy="235.7" r="3.0" fill="#a9cfff" fill-opacity="0.6"/>
<circle cx="189.0" cy="197.6" r="3.0" fill="#a9cfff" fill-opacity="0.6"/>
<circle cx="164.7" cy="159.6" r="3.0" fill="#a9cfff" fill-opacity="0.6"/>
<circle cx="140.3" cy="121.5" r="3.0" fill="#a9cfff" fill-opacity="0.6"/>
<circle cx="267.4" cy="227.3" r="3.0" fill="#a9cfff" fill-opacity="0.6"/>
<circle cx="279.0" cy="183.6" r="3.0" fill="#a9cfff" fill-opacity="0.6"/>
<circle cx="290.6" cy="139.9" r="3.0" fill="#a9cfff" fill-opacity="0.6"/>
<circle cx="302.2" cy="96.2" r="3.0" fill="#a9cfff" fill-opacity="0.6"/>
<circle cx="310.1" cy="261.4" r="3.0" fill="#a9cfff" fill-opacity="0.6"/>
<circle cx="350.1" cy="240.4" r="3.0" fill="#a9cfff" fill-opacity="0.6"/>
<circle cx="390.2" cy="219.4" r="3.0" fill="#a9cfff" fill-opacity="0.6"/>
<circle cx="430.2" cy="198.3" r="3.0" fill="#a9cfff" fill-opacity="0.6"/>
<circle cx="250.0" cy="292.87" r="226.1" fill="#f05bd4" fill-opacity="0.21" stroke="#f05bd4" stroke-width="1.5"/>
<circle cx="250.0" cy="292.87" r="203.5" fill="#dc65e2" fill-opacity="0.21" stroke="#dc65e2" stroke-width="1.5"/>
<circle cx="250.0" cy="292.87" r="180.9" fill="#c86eef" fill-opacity="0.20" stroke="#c86eef" stroke-width="1.5"/>
<circle cx="250.0" cy="292.87" r="158.3" fill="#b478fa" fill-opacity="0.20" stroke="#b478fa" stroke-width="1.5"/>
<circle cx="250.0" cy="292.87" r="135.7" fill="#a181100" fill-opacity="0.19" stroke="#a181100" stroke-width="1.5"/>
<circle cx="250.0" cy="292.87" r="113.1" fill="#8d8b103" fill-opacity="0.19" stroke="#8d8b103" stroke-width="1.5"/>
<circle cx="250.0" cy="292.87" r="90.4" fill="#7994100" fill-opacity="0.19" stroke="#7994100" stroke-width="1.5"/>
<circle cx="250.0" cy="292.87" r="67.8" fill="#669efa" fill-opacity="0.18" stroke="#669efa" stroke-width="1.5"/>
<circle cx="250.0" cy="292.87" r="45.2" fill="#52a7ef" fill-opacity="0.18" stroke="#52a7ef" stroke-width="1.5"/>
<circle cx="250.0" cy="292.87" r="22.6" fill="#3eb1e2" fill-opacity="0.17" stroke="#3eb1e2" stroke-width="1.5"/>
<line x1="250.0" y1="292.87" x2="443.1" y2="292.9" stroke="#392de5" stroke-width="2.35" opacity="0.38"/>
<line x1="250.0" y1="292.87" x2="419.8" y2="384.9" stroke="#4734d7" stroke-width="2.35" opacity="0.40"/>
<line x1="250.0" y1="292.87" x2="355.4" y2="454.7" stroke="#553cc9" stroke-width="2.35" opacity="0.42"/>
<line x1="250.0" y1="292.87" x2="265.5" y2="485.4" stroke="#6344bb" stroke-width="2.35" opacity="0.44"/>
<line x1="250.0" y1="292.87" x2="171.9" y2="469.5" stroke="#724dac" stroke-width="2.35" opacity="0.46"/>
<line x1="250.0" y1="292.87" x2="97.2" y2="410.9" stroke="#80559e" stroke-width="2.35" opacity="0.48"/>
<line x1="250.0" y1="292.87" x2="59.4" y2="323.8" stroke="#8e5d90" stroke-width="2.35" opacity="0.50"/>
<line x1="250.0" y1="292.87" x2="67.7" y2="229.2" stroke="#9c6582" stroke-width="2.35" opacity="0.52"/>
<line x1="250.0" y1="292.87" x2="120.0" y2="150.0" stroke="#ab6d73" stroke-width="2.35" opacity="0.54"/>
<line x1="250.0" y1="292.87" x2="203.8" y2="105.4" stroke="#b97565" stroke-width="2.35" opacity="0.56"/>
<line x1="250.0" y1="292.87" x2="298.8" y2="106.0" stroke="#c77d57" stroke-width="2.35" opacity="0.58"/>
<line x1="250.0" y1="292.87" x2="381.9" y2="151.8" stroke="#d58549" stroke-width="2.35" opacity="0.60"/>
<line x1="250.0" y1="292.87" x2="433.2" y2="231.8" stroke="#dd8e3a" stroke-width="2.35" opacity="0.62"/>
<line x1="250.0" y1="292.87" x2="440.2" y2="326.4" stroke="#dd962c" stroke-width="2.35" opacity="0.64"/>
<line x1="250.0" y1="292.87" x2="401.2" y2="413.0" stroke="#dd9e1e" stroke-width="2.35" opacity="0.66"/>
<line x1="250.0" y1="292.87" x2="325.6" y2="470.5" stroke="#dda610" stroke-width="2.35" opacity="0.68"/>
<line x1="250.0" y1="292.87" x2="443.1" y2="292.9" stroke="#2b32112" stroke-width="2.35" opacity="0.26"/>
<line x1="250.0" y1="292.87" x2="426.2" y2="372.0" stroke="#3536108" stroke-width="2.35" opacity="0.28"/>
<line x1="250.0" y1="292.87" x2="378.3" y2="437.2" stroke="#3f3bfe" stroke-width="2.35" opacity="0.31"/>
<line x1="250.0" y1="292.87" x2="307.9" y2="477.1" stroke="#4a41f3" stroke-width="2.35" opacity="0.33"/>
<line x1="250.0" y1="292.87" x2="227.3" y2="484.6" stroke="#5446e9" stroke-width="2.35" opacity="0.35"/>
<line x1="250.0" y1="292.87" x2="150.7" y2="458.5" stroke="#5f4bde" stroke-width="2.35" opacity="0.38"/>
<line x1="250.0" y1="292.87" x2="91.6" y2="403.3" stroke="#6950d4" stroke-width="2.35" opacity="0.40"/>
<line x1="250.0" y1="292.87" x2="60.2" y2="328.7" stroke="#7455c9" stroke-width="2.35" opacity="0.42"/>
<line x1="250.0" y1="292.87" x2="62.2" y2="247.8" stroke="#7e5abf" stroke-width="2.35" opacity="0.45"/>
<line x1="250.0" y1="292.87" x2="97.2" y2="174.8" stroke="#885fb5" stroke-width="2.35" opacity="0.47"/>
<line x1="250.0" y1="292.87" x2="159.0" y2="122.6" stroke="#9364aa" stroke-width="2.35" opacity="0.49"/>
<line x1="250.0" y1="292.87" x2="236.7" y2="100.2" stroke="#9d69a0" stroke-width="2.35" opacity="0.51"/>
<line x1="250.0" y1="292.87" x2="316.8" y2="111.7" stroke="#a86f95" stroke-width="2.35" opacity="0.54"/>
<line x1="250.0" y1="292.87" x2="385.2" y2="155.0" stroke="#b2748b" stroke-width="2.35" opacity="0.56"/>
<line x1="250.0" y1="292.87" x2="429.8" y2="222.5" stroke="#bd7980" stroke-width="2.35" opacity="0.58"/>
<line x1="250.0" y1="292.87" x2="442.9" y2="302.3" stroke="#c77e76" stroke-width="2.35" opacity="0.61"/>
<circle cx="250.0" cy="292.87" r="8.0" fill="#dcdba6" fill-opacity="0.9"/>
</svg>