<svg xmlns="http://www.w3.org/2000/svg" width="500" height="500" viewBox="0 0 500 500">
<rect width="500" height="500" fill="#00233f"/>
<circle cx="310.0" cy="250.0" r="3.0" fill="#c8ffff" fill-opacity="0.6"/>
<circle cx="370.0" cy="250.0" r="3.0" fill="#c8ffff" fill-opacity="0.6"/>
<circle cx="430.0" cy="250.0" r="3.0" fill="#c8ffff" fill-opacity="0.6"/>
<circle cx="280.0" cy="302.0" r="3.0" fill="#c8ffff" fill-opacity="0.6"/>
<circle cx="310.0" cy="353.9" r="3.0" fill="#c8ffff" fill-opacity="0.6"/>
<circle cx="340.0" cy="405.9" r="3.0" fill="#c8ffff" fill-opacity="0.6"/>
<circle cx="220.0" cy="302.0" r="3.0" fill="#c8ffff" fill-opacity="0.6"/>
<circle cx="190.0" cy="353.9" r="3.0" fill="#c8ffff" fill-opacity="0.6"/>
<circle cx="160.0" cy="405.9" r="3.0" fill="#c8ffff" fill-opacity="0.6"/>
<circle cx="190.0" cy="250.0" r="3.0" fill="#c8ffff" fill-opacity="0.6"/>
<circle cx="130.0" cy="250.0" r="3.0" fill="#c8ffff" fill-opacity="0.6"/>
<circle cx="70.0" cy="250.0" r="3.0" fill="#c8ffff" fill-opacity="0.6"/>
<circle cx="220.0" cy="198.0" r="3.0" fill="#c8ffff" fill-opacity="0.6"/>
<circle cx="190.0" cy="146.1" r="3.0" fill="#c8ffff" fill-opacity="0.6"/>
<circle cx="160.0" cy="94.1" r="3.0" fill="#c8ffff" fill-opacity="0.6"/>
<circle cx="280.0" cy="198.0" r="3.0" fill="#c8ffff" fill-opacity="0.6"/>
<circle cx="310.0" cy="146.1" r="3.0" fill="#c8ffff" fill-opacity="0.6"/>
<circle cx="340.0" cy="94.1" r="3.0" fill="#c8ffff" fill-opacity="0.6"/>
<circle cx="290.0" cy="250.0" r="3.0" fill="#c8ffff" fill-opacity="0.6"/>
<circle cx="330.0" cy="250.0" r="3.0" fill="#c8ffff" fill-opacity="0.6"/>
<circle cx="370.0" cy="250.0" r="3.0" fill="#c8ffff" fill-opacity="0.6"/>
<circle cx="410.0" cy="250.0" r="3.0" fill="#c8ffff" fill-opacity="0.6"/>
<circle cx="278.5" cy="278.1" r="3.0" fill="#c8ffff" fill-opacity="0.6"/>
<circle cx="307.0" cy="306.2" r="3.0" fill="#c8ffff" fill-opacity="0.6"/>
<circle cx="335.4" cy="334.3" r="3.0" fill="#c8ffff" fill-opacity="0.6"/>
<circle cx="363.9" cy="362.3" r="3.0" fill="#c8ffff" fill-opacity="0.6"/>
<circle cx="250.6" cy="290.0" r="3.0" fill="#c8ffff" fill-opacity="0.6"/>
<circle cx="251.1" cy="330.0" r="3.0" fill="#c8ffff" fill-opacity="0.6"/>
<circle cx="251.7" cy="370.0" r="3.0" fill="#c8ffff" fill-opacity="0.6"/>
<circle cx="252.2" cy="410.0" r="3.0" fill="#c8ffff" fill-opacity="0.6"/>
<circle cx="222.3" cy="278.9" r="3.0" fill="#c8ffff" fill-opacity="0.6"/>
<circle cx="194.6" cy="307.7" r="3.0" fill="#c8ffff" fill-opacity="0.6"/>
<circle cx="166.9" cy="336.6" r="3.0" fill="#c8ffff" fill-opacity="0.6"/>
<circle cx="139.3" cy="365.5" r="3.0" fill="#c8ffff" fill-opacity="0.6"/>
<circle cx="210.0" cy="251.1" r="3.0" fill="#c8ffff" fill-opacity="0.6"/>
<circle cx="170.0" cy="252.2" r="3.0" fill="#c8ffff" fill-opacity="0.6"/>
<circle cx="130.0" cy="253.4" r="3.0" fill="#c8ffff" fill-opacity="0.6"/>
<circle cx="90.1" cy="254.5" r="3.0" fill="#c8ffff" fill-opacity="0.6"/>
<circle cx="220.7" cy="222.7" r="3.0" fill="#c8ffff" fill-opacity="0.6"/>
<circle cx="191.5" cy="195.4" r="3.0" fill="#c8ffff" fill-opacity="0.6"/>
<circle cx="162.2" cy="168.2" r="3.0" fill="#c8ffff" fill-opacity="0.6"/>
<circle cx="133.0" cy="140.9" r="3.0" fill="#c8ffff" fill-opacity="0.6"/>
<circle cx="248.3" cy="210.0" r="3.0" fill="#c8ffff" fill-opacity="0.6"/>
<circle cx="246.6" cy="170.1" r="3.0" fill="#c8ffff" fill-opacity="0.6"/>
<circle cx="245.0" cy="130.1" r="3.0" fill="#c8ffff" fill-opacity="0.6"/>
<circle cx="243.3" cy="90.1" r="3.0" fill="#c8ffff" fill-opacity="0.6"/>
<circle cx="276.9" cy="220.4" r="3.0" fill="#c8ffff" fill-opacity="0.6"/>
<circle cx="303.7" cy="190.7" r="3.0" fill="#c8ffff" fill-opacity="0.6"/>
<circle cx="330.6" cy="161.1" r="3.0" fill="#c8ffff" fill-opacity="0.6"/>
<circle cx="357.5" cy="131.5" r="3.0" fill="#c8ffff" fill-opacity="0.6"/>
<circle cx="289.9" cy="247.8" r="3.0" fill="#c8ffff" fill-opacity="0.6"/>
<circle cx="329.9" cy="245.5" r="3.0" fill="#c8ffff" fill-opacity="0.6"/>
<circle cx="369.8" cy="243.3" r="3.0" fill="#c8ffff" fill-opacity="0.6"/>
<circle cx="409.8" cy="241.1" r="3.0" fill="#c8ffff" fill-opacity="0.6"/>
<circle cx="330.0" cy="250.0" r="3.0" fill="#c8ffff" fill-opacity="0.6"/>
<circle cx="370.0" cy="250.0" r="3.0" fill="#c8ffff" fill-opacity="0.6"/>
<circle cx="410.0" cy="250.0" r="3.0" fill="#c8ffff" fill-opacity="0.6"/>
<circle cx="287.1" cy="320.9" r="3.0" fill="#c8ffff" fill-opacity="0.6"/>
<circle cx="305.6" cy="356.3" r="3.0" fill="#c8ffff" fill-opacity="0.6"/>
<circle cx="324.1" cy="391.8" r="3.0" fill="#c8ffff" fill-opacity="0.6"/>
<circle cx="204.3" cy="315.7" r="3.0" fill="#c8ffff" fill-opacity="0.6"/>
<circle cx="181.5" cy="348.5" r="3.0" fill="#c8ffff" fill-opacity="0.6"/>
<circle cx="158.7" cy="381.4" r="3.0" fill="#c8ffff" fill-opacity="0.6"/>
<circle cx="170.6" cy="240.0" r="3.0" fill="#c8ffff" fill-opacity="0.6"/>
<circle cx="130.9" cy="235.0" r="3.0" fill="#c8ffff" fill-opacity="0.6"/>
<circle cx="91.3" cy="229.9" r="3.0" fill="#c8ffff" fill-opacity="0.6"/>
<circle cx="222.1" cy="175.0" r="3.0" fill="#c8ffff" fill-opacity="0.6"/>
<circle cx="208.2" cy="137.5" r="3.0" fill="#c8ffff" fill-opacity="0.6"/>
<circle cx="194.2" cy="100.0" r="3.0" fill="#c8ffff" fill-opacity="0.6"/>
<circle cx="310.0" cy="250.0" r="3.0" fill="#c8ffff" fill-opacity="0.6"/>
<circle cx="350.0" cy="250.0" r="3.0" fill="#c8ffff" fill-opacity="0.6"/>
<circle cx="390.0" cy="250.0" r="3.0" fill="#c8ffff" fill-opacity="0.6"/>
<circle cx="430.0" cy="250.0" r="3.0" fill="#c8ffff" fill-opacity="0.6"/>
<circle cx="294.4" cy="290.3" r="3.0" fill="#c8ffff" fill-opacity="0.6"/>
<circle cx="324.1" cy="317.2" r="3.0" fill="#c8ffff" fill-opacity="0.6"/>
<circle cx="353.7" cy="344.0" r="3.0" fill="#c8ffff" fill-opacity="0.6"/>
<circle cx="383.3" cy="370.9" r="3.0" fill="#c8ffff" fill-opacity="0.6"/>
<circle cx="255.9" cy="309.7" r="3.0" fill="#c8ffff" fill-opacity="0.6"/>
<circle cx="259.8" cy="349.5" r="3.0" fill="#c8ffff" fill-opacity="0.6"/>
<circle cx="263.7" cy="389.3" r="3.0" fill="#c8ffff" fill-opacity="0.6"/>
<circle cx="267.6" cy="429.1" r="3.0" fill="#c8ffff" fill-opacity="0.6"/>
<circle cx="214.2" cy="298.2" r="3.0" fill="#c8ffff" fill-opacity="0.6"/>
<circle cx="190.4" cy="330.3" r="3.0" fill="#c8ffff" fill-opacity="0.6"/>
<circle cx="166.5" cy="362.4" r="3.0" fill="#c8ffff" fill-opacity="0.6"/>
<circle cx="142.7" cy="394.5" r="3.0" fill="#c8ffff" fill-opacity="0.6"/>
<circle cx="191.1" cy="261.7" r="3.0" fill="#c8ffff" fill-opacity="0.6"/>
<circle cx="151.9" cy="269.4" r="3.0" fill="#c8ffff" fill-opacity="0.6"/>
<circle cx="112.7" cy="277.2" r="3.0" fill="#c8ffff" fill-opacity="0.6"/>
<circle cx="73.4" cy="285.0" r="3.0" fill="#c8ffff" fill-opacity="0.6"/>
<circle cx="198.6" cy="219.1" r="3.0" fill="#c8ffff" fill-opacity="0.6"/>
<circle cx="164.3" cy="198.5" r="3.0" fill="#c8ffff" fill-opacity="0.6"/>
<circle cx="130.0" cy="177.9" r="3.0" fill="#c8ffff" fill-opacity="0.6"/>
<circle cx="95.7" cy="157.3" r="3.0" fill="#c8ffff" fill-opacity="0.6"/>
<circle cx="232.7" cy="192.6" r="3.0" fill="#c8ffff" fill-opacity="0.6"/>
<circle cx="221.1" cy="154.3" r="3.0" fill="#c8ffff" fill-opacity="0.6"/>
<circle cx="209.5" cy="116.0" r="3.0" fill="#c8ffff" fill-opacity="0.6"/>
<circle cx="198.0" cy="77.7" r="3.0" fill="#c8ffff" fill-opacity="0.6"/>
<circle cx="275.7" cy="195.8" r="3.0" fill="#c8ffff" fill-opacity="0.6"/>
<circle cx="292.9" cy="159.7" r="3.0" fill="#c8ffff" fill-opacity="0.6"/>
<circle cx="310.1" cy="123.5" r="3.0" fill="#c8ffff" fill-opacity="0.6"/>
<circle cx="327.2" cy="87.4" r="3.0" fill="#c8ffff" fill-opacity="0.6"/>
<circle cx="305.5" cy="227.1" r="3.0" fill="#c8ffff" fill-opacity="0.6"/>
<circle cx="342.5" cy="211.9" r="3.0" fill="#c8ffff" fill-opacity="0.6"/>
<circle cx="379.4" cy="196.7" r="3.0" fill="#c8ffff" fill-opacity="0.6"/>
<circle cx="416.4" cy="181.4" r="3.0" fill="#c8ffff" fill-opacity="0.6"/>
<circle cx="250.0" cy="250.0" r="200.0" fill="#ff3cb4" fill-opacity="0.20" stroke="#ff3cb4" stroke-width="1.5"/>
<circle cx="250.0" cy="250.0" r="180.0" fill="#e846cb" fill-opacity="0.20" stroke="#e846cb" stroke-width="1.5"/>
<circle cx="250.0" cy="250.0" r="160.0" fill="#d250e0" fill-opacity="0.19" stroke="#d250e0" stroke-width="1.5"/>
<circle cx="250.0" cy="250.0" r="140.0" fill="#bb5af0" fill-opacity="0.18" stroke="#bb5af0" stroke-width="1.5"/>
<circle cx="250.0" cy="250.0" r="120.0" fill="#a564fb" fill-opacity="0.18" stroke="#a564fb" stroke-width="1.5"/>
<circle cx="250.0" cy="250.0" r="100.0" fill="#8e6eff" fill-opacity="0.17" stroke="#8e6eff" stroke-width="1.5"/>
<circle cx="250.0" cy="250.0" r="80.0" fill="#7878fb" fill-opacity="0.17" stroke="#7878fb" stroke-width="1.5"/>
<circle cx="250.0" cy="250.0" r="60.0" fill="#6182f0" fill-opacity="0.16" stroke="#6182f0" stroke-width="1.5"/>
<circle cx="250.0" cy="250.0" r="40.0" fill="#4b8ce0" fill-opacity="0.16" stroke="#4b8ce0" stroke-width="1.5"/>
<circle cx="250.0" cy="250.0" r="20.0" fill="#3496cb" fill-opacity="0.15" stroke="#3496cb" stroke-width="1.5"/>
<line x1="250.0" y1="250.0" x2="443.1" y2="250.0" stroke="#5028c8" stroke-width="2.0" opacity="0.30"/>
<line x1="250.0" y1="250.0" x2="431.5" y2="316.0" stroke="#5e2fba" stroke-width="2.0" opacity="0.32"/>
<line x1="250.0" y1="250.0" x2="397.9" y2="374.1" stroke="#6c36ac" stroke-width="2.0" opacity="0.34"/>
<line x1="250.0" y1="250.0" x2="346.6" y2="417.2" stroke="#7a3d9e" stroke-width="2.0" opacity="0.37"/>
<line x1="250.0" y1="250.0" x2="283.5" y2="440.2" stroke="#884490" stroke-width="2.0" opacity="0.39"/>
<line x1="250.0" y1="250.0" x2="216.5" y2="440.2" stroke="#964b82" stroke-width="2.0" opacity="0.41"/>
<line x1="250.0" y1="250.0" x2="153.4" y2="417.2" stroke="#a55273" stroke-width="2.0" opacity="0.43"/>
<line x1="250.0" y1="250.0" x2="102.1" y2="374.1" stroke="#b35965" stroke-width="2.0" opacity="0.46"/>
<line x1="250.0" y1="250.0" x2="68.5" y2="316.0" stroke="#c16057" stroke-width="2.0" opacity="0.48"/>
<line x1="250.0" y1="250.0" x2="56.9" y2="250.0" stroke="#cf6749" stroke-width="2.0" opacity="0.50"/>
<line x1="250.0" y1="250.0" x2="68.5" y2="184.0" stroke="#dd6e3b" stroke-width="2.0" opacity="0.52"/>
<line x1="250.0" y1="250.0" x2="102.1" y2="125.9" stroke="#eb752d" stroke-width="2.0" opacity="0.54"/>
<line x1="250.0" y1="250.0" x2="153.4" y2="82.8" stroke="#fa7d1e" stroke-width="2.0" opacity="0.57"/>
<line x1="250.0" y1="250.0" x2="216.5" y2="59.8" stroke="#ff8410" stroke-width="2.0" opacity="0.59"/>
<line x1="250.0" y1="250.0" x2="283.5" y2="59.8" stroke="#ff8b02" stroke-width="2.0" opacity="0.61"/>
<line x1="250.0" y1="250.0" x2="346.6" y2="82.8" stroke="#ff9200" stroke-width="2.0" opacity="0.63"/>
<line x1="250.0" y1="250.0" x2="397.9" y2="125.9" stroke="#ff9900" stroke-width="2.0" opacity="0.66"/>
<line x1="250.0" y1="250.0" x2="431.5" y2="184.0" stroke="#ffa000" stroke-width="2.0" opacity="0.68"/>
<circle cx="250.0" cy="250.0" r="8.0" fill="#ffe9de" fill-opacity="0.9"/>
</svg>