<svg xmlns="http://www.w3.org/2000/svg" width="500" height="500" viewBox="0 0 500 500">
<rect width="500" height="500" fill="#00233f"/>
<circle cx="310.0" cy="250.0" r="3.0" fill="#c8ffff" fill-opacity="0.6"/>
<circle cx="370.0" cy="250.0" r="3.0" fill="#c8ffff" fill-opacity="0.6"/>
<circle cx="430.0" cy="250.0" r="3.0" fill="#c8ffff" fill-opacity="0.6"/>
<circle cx="280.0" cy="302.0" r="3.0" fill="#c8ffff" fill-opacity="0.6"/>
<circle cx="310.0" cy="353.9" r="3.0" fill="#c8ffff" fill-opacity="0.6"/>
<circle cx="340.0" cy="405.9" r="3.0" fill="#c8ffff" fill-opacity="0.6"/>
<circle cx="220.0" cy="302.0" r="3.0" fill="#c8ffff" fill-opacity="0.6"/>
<circle cx="190.0" cy="353.9" r="3.0" fill="#c8ffff" fill-opacity="0.6"/>
<circle cx="160.0" cy="405.9" r="3.0" fill="#c8ffff" fill-opacity="0.6"/>
<circle cx="190.0" cy="250.0" r="3.0" fill="#c8ffff" fill-opacity="0.6"/>
<circle cx="130.0" cy="250.0" r="3.0" fill="#c8ffff" fill-opacity="0.6"/>
<circle cx="70.0" cy="250.0" r="3.0" fill="#c8ffff" fill-opacity="0.6"/>
<circle cx="220.0" cy="198.0" r="3.0" fill="#c8ffff" fill-opacity="0.6"/>
<circle cx="190.0" cy="146.1" r="3.0" fill="#c8ffff" fill-opacity="0.6"/>
<circle cx="160.0" cy="94.1" r="3.0" fill="#c8ffff" fill-opacity="0.6"/>
<circle cx="280.0" cy="198.0" r="3.0" fill="#c8ffff" fill-opacity="0.6"/>
<circle cx="310.0" cy="146.1" r="3.0" fill="#c8ffff" fill-opacity="0.6"/>
<circle cx="340.0" cy="94.1" r="3.0" fill="#c8ffff" fill-opacity="0.6"/>
<circle cx="330.0" cy="250.0" r="3.0" fill="#c8ffff" fill-opacity="0.6"/>
<circle cx="370.0" cy="250.0" r="3.0" fill="#c8ffff" fill-opacity="0.6"/>
<circle cx="410.0" cy="250.0" r="3.0" fill="#c8ffff" fill-opacity="0.6"/>
<circle cx="287.1" cy="320.9" r="3.0" fill="#c8ffff" fill-opacity="0.6"/>
<circle cx="305.6" cy="356.3" r="3.0" fill="#c8ffff" fill-opacity="0.6"/>
<circle cx="324.1" cy="391.8" r="3.0" fill="#c8ffff" fill-opacity="0.6"/>
<circle cx="204.3" cy="315.7" r="3.0" fill="#c8ffff" fill-opacity="0.6"/>
<circle cx="181.5" cy="348.5" r="3.0" fill="#c8ffff" fill-opacity="0.6"/>
<circle cx="158.7" cy="381.4" r="3.0" fill="#c8ffff" fill-opacity="0.6"/>
<circle cx="170.6" cy="240.0" r="3.0" fill="#c8ffff" fill-opacity="0.6"/>
<circle cx="130.9" cy="235.0" r="3.0" fill="#c8ffff" fill-opacity="0.6"/>
<circle cx="91.3" cy="229.9" r="3.0" fill="#c8ffff" fill-opacity="0.6"/>
<circle cx="222.1" cy="175.0" r="3.0" fill="#c8ffff" fill-opacity="0.6"/>
<circle cx="208.2" cy="137.5" r="3.0" fill="#c8ffff" fill-opacity="0.6"/>
<circle cx="194.2" cy="100.0" r="3.0" fill="#c8ffff" fill-opacity="0.6"/>
<circle cx="310.0" cy="250.0" r="3.0" fill="#c8ffff" fill-opacity="0.6"/>
<circle cx="370.0" cy="250.0" r="3.0" fill="#c8ffff" fill-opacity="0.6"/>
<circle cx="430.0" cy="250.0" r="3.0" fill="#c8ffff" fill-opacity="0.6"/>
<circle cx="298.7" cy="285.1" r="3.0" fill="#c8ffff" fill-opacity="0.6"/>
<circle cx="347.3" cy="320.2" r="3.0" fill="#c8ffff" fill-opacity="0.6"/>
<circle cx="396.0" cy="355.3" r="3.0" fill="#c8ffff" fill-opacity="0.6"/>
<circle cx="268.9" cy="306.9" r="3.0" fill="#c8ffff" fill-opacity="0.6"/>
<circle cx="287.9" cy="363.9" r="3.0" fill="#c8ffff" fill-opacity="0.6"/>
<circle cx="306.8" cy="420.8" r="3.0" fill="#c8ffff" fill-opacity="0.6"/>
<circle cx="232.1" cy="307.3" r="3.0" fill="#c8ffff" fill-opacity="0.6"/>
<circle cx="214.1" cy="364.5" r="3.0" fill="#c8ffff" fill-opacity="0.6"/>
<circle cx="196.2" cy="421.8" r="3.0" fill="#c8ffff" fill-opacity="0.6"/>
<circle cx="202.0" cy="285.9" r="3.0" fill="#c8ffff" fill-opacity="0.6"/>
<circle cx="153.9" cy="321.9" r="3.0" fill="#c8ffff" fill-opacity="0.6"/>
<circle cx="105.9" cy="357.8" r="3.0" fill="#c8ffff" fill-opacity="0.6"/>
<circle cx="190.0" cy="251.0" r="3.0" fill="#c8ffff" fill-opacity="0.6"/>
<circle cx="130.0" cy="252.1" r="3.0" fill="#c8ffff" fill-opacity="0.6"/>
<circle cx="70.0" cy="253.1" r="3.0" fill="#c8ffff" fill-opacity="0.6"/>
<circle cx="200.7" cy="215.8" r="3.0" fill="#c8ffff" fill-opacity="0.6"/>
<circle cx="151.5" cy="181.5" r="3.0" fill="#c8ffff" fill-opacity="0.6"/>
<circle cx="102.2" cy="147.3" r="3.0" fill="#c8ffff" fill-opacity="0.6"/>
<circle cx="230.1" cy="193.4" r="3.0" fill="#c8ffff" fill-opacity="0.6"/>
<circle cx="210.1" cy="136.8" r="3.0" fill="#c8ffff" fill-opacity="0.6"/>
<circle cx="190.2" cy="80.2" r="3.0" fill="#c8ffff" fill-opacity="0.6"/>
<circle cx="266.9" cy="192.4" r="3.0" fill="#c8ffff" fill-opacity="0.6"/>
<circle cx="283.9" cy="134.9" r="3.0" fill="#c8ffff" fill-opacity="0.6"/>
<circle cx="300.8" cy="77.3" r="3.0" fill="#c8ffff" fill-opacity="0.6"/>
<circle cx="250.0" cy="250.0" r="200.0" fill="#ff3cb4" fill-opacity="0.20" stroke="#ff3cb4" stroke-width="1.5"/>
<circle cx="250.0" cy="250.0" r="180.0" fill="#e846cb" fill-opacity="0.20" stroke="#e846cb" stroke-width="1.5"/>
<circle cx="250.0" cy="250.0" r="160.0" fill="#d250e0" fill-opacity="0.19" stroke="#d250e0" stroke-width="1.5"/>
<circle cx="250.0" cy="250.0" r="140.0" fill="#bb5af0" fill-opacity="0.18" stroke="#bb5af0" stroke-width="1.5"/>
<circle cx="250.0" cy="250.0" r="120.0" fill="#a564fb" fill-opacity="0.18" stroke="#a564fb" stroke-width="1.5"/>
<circle cx="250.0" cy="250.0" r="100.0" fill="#8e6eff" fill-opacity="0.17" stroke="#8e6eff" stroke-width="1.5"/>
<circle cx="250.0" cy="250.0" r="80.0" fill="#7878fb" fill-opacity="0.17" stroke="#7878fb" stroke-width="1.5"/>
<circle cx="250.0" cy="250.0" r="60.0" fill="#6182f0" fill-opacity="0.16" stroke="#6182f0" stroke-width="1.5"/>
<circle cx="250.0" cy="250.0" r="40.0" fill="#4b8ce0" fill-opacity="0.16" stroke="#4b8ce0" stroke-width="1.5"/>
<circle cx="250.0" cy="250.0" r="20.0" fill="#3496cb" fill-opacity="0.15" stroke="#3496cb" stroke-width="1.5"/>
<line x1="250.0" y1="250.0" x2="460.0" y2="250.0" stroke="#5028c8" stroke-width="2.0" opacity="0.30"/>
<line x1="250.0" y1="250.0" x2="447.3" y2="321.8" stroke="#5e2fba" stroke-width="2.0" opacity="0.32"/>
<line x1="250.0" y1="250.0" x2="410.9" y2="385.0" stroke="#6c36ac" stroke-width="2.0" opacity="0.34"/>
<line x1="250.0" y1="250.0" x2="355.0" y2="431.9" stroke="#7a3d9e" stroke-width="2.0" opacity="0.37"/>
<line x1="250.0" y1="250.0" x2="286.5" y2="456.8" stroke="#884490" stroke-width="2.0" opacity="0.39"/>
<line x1="250.0" y1="250.0" x2="213.5" y2="456.8" stroke="#964b82" stroke-width="2.0" opacity="0.41"/>
<line x1="250.0" y1="250.0" x2="145.0" y2="431.9" stroke="#a55273" stroke-width="2.0" opacity="0.43"/>
<line x1="250.0" y1="250.0" x2="89.1" y2="385.0" stroke="#b35965" stroke-width="2.0" opacity="0.46"/>
<line x1="250.0" y1="250.0" x2="52.7" y2="321.8" stroke="#c16057" stroke-width="2.0" opacity="0.48"/>
<line x1="250.0" y1="250.0" x2="40.0" y2="250.0" stroke="#cf6749" stroke-width="2.0" opacity="0.50"/>
<line x1="250.0" y1="250.0" x2="52.7" y2="178.2" stroke="#dd6e3b" stroke-width="2.0" opacity="0.52"/>
<line x1="250.0" y1="250.0" x2="89.1" y2="115.0" stroke="#eb752d" stroke-width="2.0" opacity="0.54"/>
<line x1="250.0" y1="250.0" x2="145.0" y2="68.1" stroke="#fa7d1e" stroke-width="2.0" opacity="0.57"/>
<line x1="250.0" y1="250.0" x2="213.5" y2="43.2" stroke="#ff8410" stroke-width="2.0" opacity="0.59"/>
<line x1="250.0" y1="250.0" x2="286.5" y2="43.2" stroke="#ff8b02" stroke-width="2.0" opacity="0.61"/>
<line x1="250.0" y1="250.0" x2="355.0" y2="68.1" stroke="#ff9200" stroke-width="2.0" opacity="0.63"/>
<line x1="250.0" y1="250.0" x2="410.9" y2="115.0" stroke="#ff9900" stroke-width="2.0" opacity="0.66"/>
<line x1="250.0" y1="250.0" x2="447.3" y2="178.2" stroke="#ffa000" stroke-width="2.0" opacity="0.68"/>
<circle cx="250.0" cy="250.0" r="8.0" fill="#ffe9de" fill-opacity="0.9"/>
</svg>