<svg xmlns="http://www.w3.org/2000/svg" width="500" height="500" viewBox="0 0 500 500">
<rect width="500" height="500" fill="#00343b"/>
<line x1="250.0" y1="251.34" x2="443.1" y2="251.3" stroke="#3223153" stroke-width="2.57" opacity="0.31"/>
<line x1="250.0" y1="251.34" x2="412.8" y2="355.2" stroke="#3b2814a" stroke-width="2.57" opacity="0.33"/>
<line x1="250.0" y1="251.34" x2="331.5" y2="426.4" stroke="#452d140" stroke-width="2.57" opacity="0.35"/>
<line x1="250.0" y1="251.34" x2="224.6" y2="442.8" stroke="#4e32137" stroke-width="2.57" opacity="0.37"/>
<line x1="250.0" y1="251.34" x2="125.7" y2="399.1" stroke="#583812d" stroke-width="2.57" opacity="0.39"/>
<line x1="250.0" y1="251.34" x2="65.7" y2="309.1" stroke="#613d124" stroke-width="2.57" opacity="0.41"/>
<line x1="250.0" y1="251.34" x2="63.6" y2="201.0" stroke="#6b4211a" stroke-width="2.57" opacity="0.43"/>
<line x1="250.0" y1="251.34" x2="119.9" y2="108.6" stroke="#7447111" stroke-width="2.57" opacity="0.45"/>
<line x1="250.0" y1="251.34" x2="217.0" y2="61.1" stroke="#7e4d107" stroke-width="2.57" opacity="0.47"/>
<line x1="250.0" y1="251.34" x2="324.5" y2="73.2" stroke="#8752fe" stroke-width="2.57" opacity="0.49"/>
<line x1="250.0" y1="251.34" x2="408.6" y2="141.1" stroke="#9158f4" stroke-width="2.57" opacity="0.51"/>
<line x1="250.0" y1="251.34" x2="443.0" y2="243.7" stroke="#9a5deb" stroke-width="2.57" opacity="0.53"/>
<line x1="250.0" y1="251.34" x2="416.8" y2="348.6" stroke="#a462e1" stroke-width="2.57" opacity="0.55"/>
<line x1="250.0" y1="251.34" x2="338.4" y2="423.0" stroke="#ad67d8" stroke-width="2.57" opacity="0.57"/>
<line x1="250.0" y1="251.34" x2="232.2" y2="443.6" stroke="#b76dce" stroke-width="2.57" opacity="0.59"/>
<circle cx="299.1" cy="251.3" r="3.0" fill="#90bfde" fill-opacity="0.6"/>
<circle cx="348.3" cy="251.3" r="3.0" fill="#90bfde" fill-opacity="0.6"/>
<circle cx="397.4" cy="251.3" r="3.0" fill="#90bfde" fill-opacity="0.6"/>
<circle cx="446.5" cy="251.3" r="3.0" fill="#90bfde" fill-opacity="0.6"/>
<circle cx="495.7" cy="251.3" r="3.0" fill="#90bfde" fill-opacity="0.6"/>
<circle cx="266.4" cy="297.7" r="3.0" fill="#90bfde" fill-opacity="0.6"/>
<circle cx="282.7" cy="344.0" r="3.0" fill="#90bfde" fill-opacity="0.6"/>
<circle cx="299.1" cy="390.3" r="3.0" fill="#90bfde" fill-opacity="0.6"/>
<circle cx="315.4" cy="436.7" r="3.0" fill="#90bfde" fill-opacity="0.6"/>
<circle cx="331.8" cy="483.0" r="3.0" fill="#90bfde" fill-opacity="0.6"/>
<circle cx="211.8" cy="282.2" r="3.0" fill="#90bfde" fill-opacity="0.6"/>
<circle cx="173.5" cy="313.0" r="3.0" fill="#90bfde" fill-opacity="0.6"/>
<circle cx="135.3" cy="343.9" r="3.0" fill="#90bfde" fill-opacity="0.6"/>
<circle cx="97.0" cy="374.7" r="3.0" fill="#90bfde" fill-opacity="0.6"/>
<circle cx="58.8" cy="405.5" r="3.0" fill="#90bfde" fill-opacity="0.6"/>
<circle cx="208.2" cy="225.5" r="3.0" fill="#90bfde" fill-opacity="0.6"/>
<circle cx="166.4" cy="199.7" r="3.0" fill="#90bfde" fill-opacity="0.6"/>
<circle cx="124.6" cy="173.9" r="3.0" fill="#90bfde" fill-opacity="0.6"/>
<circle cx="82.8" cy="148.1" r="3.0" fill="#90bfde" fill-opacity="0.6"/>
<circle cx="40.9" cy="122.3" r="3.0" fill="#90bfde" fill-opacity="0.6"/>
<circle cx="260.4" cy="203.3" r="3.0" fill="#90bfde" fill-opacity="0.6"/>
<circle cx="270.8" cy="155.3" r="3.0" fill="#90bfde" fill-opacity="0.6"/>
<circle cx="281.2" cy="107.3" r="3.0" fill="#90bfde" fill-opacity="0.6"/>
<circle cx="291.7" cy="59.3" r="3.0" fill="#90bfde" fill-opacity="0.6"/>
<circle cx="302.1" cy="11.3" r="3.0" fill="#90bfde" fill-opacity="0.6"/>
<circle cx="298.7" cy="245.2" r="3.0" fill="#90bfde" fill-opacity="0.6"/>
<circle cx="347.5" cy="239.0" r="3.0" fill="#90bfde" fill-opacity="0.6"/>
<circle cx="396.2" cy="232.9" r="3.0" fill="#90bfde" fill-opacity="0.6"/>
<circle cx="445.0" cy="226.7" r="3.0" fill="#90bfde" fill-opacity="0.6"/>
<circle cx="493.7" cy="220.6" r="3.0" fill="#90bfde" fill-opacity="0.6"/>
<circle cx="272.0" cy="295.3" r="3.0" fill="#90bfde" fill-opacity="0.6"/>
<circle cx="294.1" cy="339.2" r="3.0" fill="#90bfde" fill-opacity="0.6"/>
<circle cx="316.1" cy="383.1" r="3.0" fill="#90bfde" fill-opacity="0.6"/>
<circle cx="338.1" cy="427.0" r="3.0" fill="#90bfde" fill-opacity="0.6"/>
<circle cx="360.2" cy="470.9" r="3.0" fill="#90bfde" fill-opacity="0.6"/>
<circle cx="215.9" cy="286.7" r="3.0" fill="#90bfde" fill-opacity="0.6"/>
<circle cx="181.8" cy="322.1" r="3.0" fill="#90bfde" fill-opacity="0.6"/>
<circle cx="147.8" cy="357.5" r="3.0" fill="#90bfde" fill-opacity="0.6"/>
<circle cx="113.7" cy="392.9" r="3.0" fill="#90bfde" fill-opacity="0.6"/>
<circle cx="79.6" cy="428.3" r="3.0" fill="#90bfde" fill-opacity="0.6"/>
<circle cx="250.0" cy="251.34" r="270.2" fill="#e7-4f9" fill-opacity="0.20" stroke="#e7-4f9" stroke-width="1.5"/>
<circle cx="250.0" cy="251.34" r="245.7" fill="#d50310a" fill-opacity="0.19" stroke="#d50310a" stroke-width="1.5"/>
<circle cx="250.0" cy="251.34" r="221.1" fill="#c40c119" fill-opacity="0.19" stroke="#c40c119" stroke-width="1.5"/>
<circle cx="250.0" cy="251.34" r="196.5" fill="#b314127" fill-opacity="0.18" stroke="#b314127" stroke-width="1.5"/>
<circle cx="250.0" cy="251.34" r="172.0" fill="#a21d130" fill-opacity="0.17" stroke="#a21d130" stroke-width="1.5"/>
<circle cx="250.0" cy="251.34" r="147.4" fill="#9126135" fill-opacity="0.17" stroke="#9126135" stroke-width="1.5"/>
<circle cx="250.0" cy="251.34" r="122.8" fill="#7f2e135" fill-opacity="0.16" stroke="#7f2e135" stroke-width="1.5"/>
<circle cx="250.0" cy="251.34" r="98.3" fill="#6e37130" fill-opacity="0.16" stroke="#6e37130" stroke-width="1.5"/>
<circle cx="250.0" cy="251.34" r="73.7" fill="#5d3f127" fill-opacity="0.15" stroke="#5d3f127" stroke-width="1.5"/>
<circle cx="250.0" cy="251.34" r="49.1" fill="#4c48119" fill-opacity="0.14" stroke="#4c48119" stroke-width="1.5"/>
<circle cx="250.0" cy="251.34" r="24.6" fill="#3b5010a" fill-opacity="0.14" stroke="#3b5010a" stroke-width="1.5"/>
<circle cx="299.1" cy="251.3" r="3.0" fill="#c2e7b8" fill-opacity="0.6"/>
<circle cx="348.3" cy="251.3" r="3.0" fill="#c2e7b8" fill-opacity="0.6"/>
<circle cx="397.4" cy="251.3" r="3.0" fill="#c2e7b8" fill-opacity="0.6"/>
<circle cx="446.5" cy="251.3" r="3.0" fill="#c2e7b8" fill-opacity="0.6"/>
<circle cx="495.7" cy="251.3" r="3.0" fill="#c2e7b8" fill-opacity="0.6"/>
<circle cx="288.1" cy="282.4" r="3.0" fill="#c2e7b8" fill-opacity="0.6"/>
<circle cx="326.1" cy="313.5" r="3.0" fill="#c2e7b8" fill-opacity="0.6"/>
<circle cx="364.2" cy="344.6" r="3.0" fill="#c2e7b8" fill-opacity="0.6"/>
<circle cx="402.2" cy="375.7" r="3.0" fill="#c2e7b8" fill-opacity="0.6"/>
<circle cx="440.3" cy="406.7" r="3.0" fill="#c2e7b8" fill-opacity="0.6"/>
<circle cx="259.8" cy="299.5" r="3.0" fill="#c2e7b8" fill-opacity="0.6"/>
<circle cx="269.6" cy="347.6" r="3.0" fill="#c2e7b8" fill-opacity="0.6"/>
<circle cx="279.4" cy="395.8" r="3.0" fill="#c2e7b8" fill-opacity="0.6"/>
<circle cx="289.2" cy="443.9" r="3.0" fill="#c2e7b8" fill-opacity="0.6"/>
<circle cx="299.1" cy="492.1" r="3.0" fill="#c2e7b8" fill-opacity="0.6"/>
<circle cx="227.1" cy="294.8" r="3.0" fill="#c2e7b8" fill-opacity="0.6"/>
<circle cx="204.3" cy="338.3" r="3.0" fill="#c2e7b8" fill-opacity="0.6"/>
<circle cx="181.4" cy="381.8" r="3.0" fill="#c2e7b8" fill-opacity="0.6"/>
<circle cx="158.6" cy="425.3" r="3.0" fill="#c2e7b8" fill-opacity="0.6"/>
<circle cx="135.7" cy="468.8" r="3.0" fill="#c2e7b8" fill-opacity="0.6"/>
<circle cx="204.8" cy="270.6" r="3.0" fill="#c2e7b8" fill-opacity="0.6"/>
<circle cx="159.6" cy="289.8" r="3.0" fill="#c2e7b8" fill-opacity="0.6"/>
<circle cx="114.4" cy="309.0" r="3.0" fill="#c2e7b8" fill-opacity="0.6"/>
<circle cx="69.1" cy="328.3" r="3.0" fill="#c2e7b8" fill-opacity="0.6"/>
<circle cx="23.9" cy="347.5" r="3.0" fill="#c2e7b8" fill-opacity="0.6"/>
<circle cx="372.8" cy="251.3" r="3.0" fill="#a6ffe3" fill-opacity="0.6"/>
<circle cx="422.0" cy="251.3" r="3.0" fill="#a6ffe3" fill-opacity="0.6"/>
<circle cx="471.1" cy="251.3" r="3.0" fill="#a6ffe3" fill-opacity="0.6"/>
<circle cx="306.5" cy="360.4" r="3.0" fill="#a6ffe3" fill-opacity="0.6"/>
<circle cx="329.0" cy="404.1" r="3.0" fill="#a6ffe3" fill-opacity="0.6"/>
<circle cx="351.6" cy="447.7" r="3.0" fill="#a6ffe3" fill-opacity="0.6"/>
<circle cx="179.1" cy="351.6" r="3.0" fill="#a6ffe3" fill-opacity="0.6"/>
<circle cx="150.7" cy="391.7" r="3.0" fill="#a6ffe3" fill-opacity="0.6"/>
<circle cx="122.3" cy="431.8" r="3.0" fill="#a6ffe3" fill-opacity="0.6"/>
<circle cx="128.3" cy="234.4" r="3.0" fill="#a6ffe3" fill-opacity="0.6"/>
<circle cx="79.7" cy="227.6" r="3.0" fill="#a6ffe3" fill-opacity="0.6"/>
<circle cx="31.0" cy="220.9" r="3.0" fill="#a6ffe3" fill-opacity="0.6"/>
<circle cx="209.1" cy="135.5" r="3.0" fill="#a6ffe3" fill-opacity="0.6"/>
<circle cx="192.8" cy="89.2" r="3.0" fill="#a6ffe3" fill-opacity="0.6"/>
<circle cx="176.4" cy="42.8" r="3.0" fill="#a6ffe3" fill-opacity="0.6"/>
<circle cx="397.4" cy="251.3" r="3.0" fill="#b0dcfc" fill-opacity="0.6"/>
<circle cx="446.5" cy="251.3" r="3.0" fill="#b0dcfc" fill-opacity="0.6"/>
<circle cx="495.7" cy="251.3" r="3.0" fill="#b0dcfc" fill-opacity="0.6"/>
<circle cx="232.1" cy="397.7" r="3.0" fill="#b0dcfc" fill-opacity="0.6"/>
<circle cx="226.2" cy="446.4" r="3.0" fill="#b0dcfc" fill-opacity="0.6"/>
<circle cx="220.2" cy="495.2" r="3.0" fill="#b0dcfc" fill-opacity="0.6"/>
<circle cx="106.9" cy="215.9" r="3.0" fill="#b0dcfc" fill-opacity="0.6"/>
<circle cx="59.2" cy="204.1" r="3.0" fill="#b0dcfc" fill-opacity="0.6"/>
<circle cx="11.6" cy="192.2" r="3.0" fill="#b0dcfc" fill-opacity="0.6"/>
<circle cx="302.5" cy="113.6" r="3.0" fill="#b0dcfc" fill-opacity="0.6"/>
<circle cx="320.0" cy="67.7" r="3.0" fill="#b0dcfc" fill-opacity="0.6"/>
<circle cx="337.6" cy="21.8" r="3.0" fill="#b0dcfc" fill-opacity="0.6"/>
<circle cx="250.0" cy="251.34" r="270.2" fill="#e529cd" fill-opacity="0.20" stroke="#e529cd" stroke-width="1.5"/>
<circle cx="250.0" cy="251.34" r="245.7" fill="#d232e2" fill-opacity="0.20" stroke="#d232e2" stroke-width="1.5"/>
<circle cx="250.0" cy="251.34" r="221.1" fill="#c03bf5" fill-opacity="0.19" stroke="#c03bf5" stroke-width="1.5"/>
<circle cx="250.0" cy="251.34" r="196.5" fill="#ae44105" fill-opacity="0.19" stroke="#ae44105" stroke-width="1.5"/>
<circle cx="250.0" cy="251.34" r="172.0" fill="#9c4d111" fill-opacity="0.18" stroke="#9c4d111" stroke-width="1.5"/>
<circle cx="250.0" cy="251.34" r="147.4" fill="#8a56117" fill-opacity="0.18" stroke="#8a56117" stroke-width="1.5"/>
<circle cx="250.0" cy="251.34" r="122.8" fill="#785f117" fill-opacity="0.17" stroke="#785f117" stroke-width="1.5"/>
<circle cx="250.0" cy="251.34" r="98.3" fill="#6668111" fill-opacity="0.17" stroke="#6668111" stroke-width="1.5"/>
<circle cx="250.0" cy="251.34" r="73.7" fill="#5471105" fill-opacity="0.16" stroke="#5471105" stroke-width="1.5"/>
<circle cx="250.0" cy="251.34" r="49.1" fill="#427af5" fill-opacity="0.16" stroke="#427af5" stroke-width="1.5"/>
<circle cx="250.0" cy="251.34" r="24.6" fill="#3083e2" fill-opacity="0.15" stroke="#3083e2" stroke-width="1.5"/>
<circle cx="299.1" cy="251.3" r="3.0" fill="#b4c9fd" fill-opacity="0.6"/>
<circle cx="348.3" cy="251.3" r="3.0" fill="#b4c9fd" fill-opacity="0.6"/>
<circle cx="397.4" cy="251.3" r="3.0" fill="#b4c9fd" fill-opacity="0.6"/>
<circle cx="446.5" cy="251.3" r="3.0" fill="#b4c9fd" fill-opacity="0.6"/>
<circle cx="495.7" cy="251.3" r="3.0" fill="#b4c9fd" fill-opacity="0.6"/>
<circle cx="281.3" cy="289.2" r="3.0" fill="#b4c9fd" fill-opacity="0.6"/>
<circle cx="312.6" cy="327.1" r="3.0" fill="#b4c9fd" fill-opacity="0.6"/>
<circle cx="344.0" cy="364.9" r="3.0" fill="#b4c9fd" fill-opacity="0.6"/>
<circle cx="375.3" cy="402.8" r="3.0" fill="#b4c9fd" fill-opacity="0.6"/>
<circle cx="406.6" cy="440.6" r="3.0" fill="#b4c9fd" fill-opacity="0.6"/>
<circle cx="240.8" cy="299.6" r="3.0" fill="#b4c9fd" fill-opacity="0.6"/>
<circle cx="231.6" cy="347.9" r="3.0" fill="#b4c9fd" fill-opacity="0.6"/>
<circle cx="222.4" cy="396.1" r="3.0" fill="#b4c9fd" fill-opacity="0.6"/>
<circle cx="213.2" cy="444.4" r="3.0" fill="#b4c9fd" fill-opacity="0.6"/>
<circle cx="204.0" cy="492.7" r="3.0" fill="#b4c9fd" fill-opacity="0.6"/>
<circle cx="206.9" cy="275.0" r="3.0" fill="#b4c9fd" fill-opacity="0.6"/>
<circle cx="163.9" cy="298.7" r="3.0" fill="#b4c9fd" fill-opacity="0.6"/>
<circle cx="120.8" cy="322.3" r="3.0" fill="#b4c9fd" fill-opacity="0.6"/>
<circle cx="77.8" cy="346.0" r="3.0" fill="#b4c9fd" fill-opacity="0.6"/>
<circle cx="34.7" cy="369.7" r="3.0" fill="#b4c9fd" fill-opacity="0.6"/>
<circle cx="204.3" cy="233.3" r="3.0" fill="#b4c9fd" fill-opacity="0.6"/>
<circle cx="158.6" cy="215.2" r="3.0" fill="#b4c9fd" fill-opacity="0.6"/>
<circle cx="113.0" cy="197.1" r="3.0" fill="#b4c9fd" fill-opacity="0.6"/>
<circle cx="67.3" cy="179.0" r="3.0" fill="#b4c9fd" fill-opacity="0.6"/>
<circle cx="21.6" cy="160.9" r="3.0" fill="#b4c9fd" fill-opacity="0.6"/>
<circle cx="234.8" cy="204.6" r="3.0" fill="#b4c9fd" fill-opacity="0.6"/>
<circle cx="219.6" cy="157.9" r="3.0" fill="#b4c9fd" fill-opacity="0.6"/>
<circle cx="204.5" cy="111.2" r="3.0" fill="#b4c9fd" fill-opacity="0.6"/>
<circle cx="189.3" cy="64.4" r="3.0" fill="#b4c9fd" fill-opacity="0.6"/>
<circle cx="174.1" cy="17.7" r="3.0" fill="#b4c9fd" fill-opacity="0.6"/>
<circle cx="276.3" cy="209.9" r="3.0" fill="#b4c9fd" fill-opacity="0.6"/>
<circle cx="302.7" cy="168.4" r="3.0" fill="#b4c9fd" fill-opacity="0.6"/>
<circle cx="329.0" cy="126.9" r="3.0" fill="#b4c9fd" fill-opacity="0.6"/>
<circle cx="355.3" cy="85.4" r="3.0" fill="#b4c9fd" fill-opacity="0.6"/>
<circle cx="381.6" cy="43.9" r="3.0" fill="#b4c9fd" fill-opacity="0.6"/>
<circle cx="298.7" cy="245.2" r="3.0" fill="#b4c9fd" fill-opacity="0.6"/>
<circle cx="347.5" cy="239.0" r="3.0" fill="#b4c9fd" fill-opacity="0.6"/>
<circle cx="396.2" cy="232.9" r="3.0" fill="#b4c9fd" fill-opacity="0.6"/>
<circle cx="445.0" cy="226.7" r="3.0" fill="#b4c9fd" fill-opacity="0.6"/>
<circle cx="493.7" cy="220.6" r="3.0" fill="#b4c9fd" fill-opacity="0.6"/>
<line x1="250.0" y1="251.34" x2="443.1" y2="251.3" stroke="#5028c8" stroke-width="2.57" opacity="0.30"/>
<line x1="250.0" y1="251.34" x2="426.4" y2="329.9" stroke="#612fb7" stroke-width="2.57" opacity="0.33"/>
<line x1="250.0" y1="251.34" x2="379.2" y2="394.8" stroke="#7237a6" stroke-width="2.57" opacity="0.35"/>
<line x1="250.0" y1="251.34" x2="309.7" y2="435.0" stroke="#833f95" stroke-width="2.57" opacity="0.38"/>
<line x1="250.0" y1="251.34" x2="229.8" y2="443.4" stroke="#944784" stroke-width="2.57" opacity="0.41"/>
<line x1="250.0" y1="251.34" x2="153.4" y2="418.6" stroke="#a54f73" stroke-width="2.57" opacity="0.43"/>
<line x1="250.0" y1="251.34" x2="93.8" y2="364.8" stroke="#b65662" stroke-width="2.57" opacity="0.46"/>
<line x1="250.0" y1="251.34" x2="61.1" y2="291.5" stroke="#c75e51" stroke-width="2.57" opacity="0.49"/>
<line x1="250.0" y1="251.34" x2="61.1" y2="211.2" stroke="#d86640" stroke-width="2.57" opacity="0.51"/>
<line x1="250.0" y1="251.34" x2="93.8" y2="137.8" stroke="#d96e2f" stroke-width="2.57" opacity="0.54"/>
<line x1="250.0" y1="251.34" x2="153.4" y2="84.1" stroke="#d9761e" stroke-width="2.57" opacity="0.57"/>
<line x1="250.0" y1="251.34" x2="229.8" y2="59.3" stroke="#d97e0d" stroke-width="2.57" opacity="0.59"/>
<line x1="250.0" y1="251.34" x2="309.7" y2="67.7" stroke="#d98500" stroke-width="2.57" opacity="0.62"/>
<line x1="250.0" y1="251.34" x2="379.2" y2="107.8" stroke="#d98d00" stroke-width="2.57" opacity="0.65"/>
<line x1="250.0" y1="251.34" x2="426.4" y2="172.8" stroke="#d99500" stroke-width="2.57" opacity="0.67"/>
<line x1="250.0" y1="251.34" x2="443.1" y2="251.3" stroke="#5e21c0" stroke-width="2.57" opacity="0.23"/>
<line x1="250.0" y1="251.34" x2="420.6" y2="341.9" stroke="#7228ac" stroke-width="2.57" opacity="0.25"/>
<line x1="250.0" y1="251.34" x2="358.2" y2="411.3" stroke="#863098" stroke-width="2.57" opacity="0.28"/>
<line x1="250.0" y1="251.34" x2="270.6" y2="443.3" stroke="#9a3884" stroke-width="2.57" opacity="0.30"/>
<line x1="250.0" y1="251.34" x2="178.2" y2="430.6" stroke="#ae4070" stroke-width="2.57" opacity="0.32"/>
<line x1="250.0" y1="251.34" x2="102.5" y2="376.0" stroke="#c2485c" stroke-width="2.57" opacity="0.35"/>
<line x1="250.0" y1="251.34" x2="61.3" y2="292.3" stroke="#d64f48" stroke-width="2.57" opacity="0.37"/>
<line x1="250.0" y1="251.34" x2="64.1" y2="199.0" stroke="#ea5734" stroke-width="2.57" opacity="0.39"/>
<line x1="250.0" y1="251.34" x2="110.3" y2="118.0" stroke="#fe5f20" stroke-width="2.57" opacity="0.42"/>
<line x1="250.0" y1="251.34" x2="189.2" y2="68.1" stroke="#112670c" stroke-width="2.57" opacity="0.44"/>
<line x1="250.0" y1="251.34" x2="282.2" y2="60.9" stroke="#1266f00" stroke-width="2.57" opacity="0.46"/>
<line x1="250.0" y1="251.34" x2="367.7" y2="98.3" stroke="#13a7600" stroke-width="2.57" opacity="0.49"/>
<line x1="250.0" y1="251.34" x2="425.8" y2="171.3" stroke="#13f7e00" stroke-width="2.57" opacity="0.51"/>
<line x1="250.0" y1="251.34" x2="442.8" y2="263.1" stroke="#13f8600" stroke-width="2.57" opacity="0.53"/>
<line x1="250.0" y1="251.34" x2="414.8" y2="352.1" stroke="#13f8e00" stroke-width="2.57" opacity="0.56"/>
<circle cx="348.3" cy="251.3" r="3.0" fill="#adedd8" fill-opacity="0.6"/>
<circle cx="422.0" cy="251.3" r="3.0" fill="#adedd8" fill-opacity="0.6"/>
<circle cx="495.7" cy="251.3" r="3.0" fill="#adedd8" fill-opacity="0.6"/>
<circle cx="280.4" cy="344.8" r="3.0" fill="#adedd8" fill-opacity="0.6"/>
<circle cx="303.1" cy="414.9" r="3.0" fill="#adedd8" fill-opacity="0.6"/>
<circle cx="325.9" cy="485.0" r="3.0" fill="#adedd8" fill-opacity="0.6"/>
<circle cx="170.5" cy="309.1" r="3.0" fill="#adedd8" fill-opacity="0.6"/>
<circle cx="110.9" cy="352.4" r="3.0" fill="#adedd8" fill-opacity="0.6"/>
<circle cx="51.3" cy="395.7" r="3.0" fill="#adedd8" fill-opacity="0.6"/>
<circle cx="170.5" cy="193.6" r="3.0" fill="#adedd8" fill-opacity="0.6"/>
<circle cx="110.9" cy="150.3" r="3.0" fill="#adedd8" fill-opacity="0.6"/>
<circle cx="51.3" cy="106.9" r="3.0" fill="#adedd8" fill-opacity="0.6"/>
<circle cx="280.4" cy="157.9" r="3.0" fill="#adedd8" fill-opacity="0.6"/>
<circle cx="303.1" cy="87.8" r="3.0" fill="#adedd8" fill-opacity="0.6"/>
<circle cx="325.9" cy="17.7" r="3.0" fill="#adedd8" fill-opacity="0.6"/>
<circle cx="323.7" cy="251.3" r="3.0" fill="#adedd8" fill-opacity="0.6"/>
<circle cx="372.8" cy="251.3" r="3.0" fill="#adedd8" fill-opacity="0.6"/>
<circle cx="422.0" cy="251.3" r="3.0" fill="#adedd8" fill-opacity="0.6"/>
<circle cx="471.1" cy="251.3" r="3.0" fill="#adedd8" fill-opacity="0.6"/>
<circle cx="226.6" cy="321.2" r="3.0" fill="#adedd8" fill-opacity="0.6"/>
<circle cx="211.1" cy="367.8" r="3.0" fill="#adedd8" fill-opacity="0.6"/>
<circle cx="195.5" cy="414.4" r="3.0" fill="#adedd8" fill-opacity="0.6"/>
<circle cx="179.9" cy="461.0" r="3.0" fill="#adedd8" fill-opacity="0.6"/>
<circle cx="191.1" cy="207.0" r="3.0" fill="#adedd8" fill-opacity="0.6"/>
<circle cx="151.9" cy="177.5" r="3.0" fill="#adedd8" fill-opacity="0.6"/>
<circle cx="112.6" cy="147.9" r="3.0" fill="#adedd8" fill-opacity="0.6"/>
<circle cx="73.3" cy="118.4" r="3.0" fill="#adedd8" fill-opacity="0.6"/>
<circle cx="310.7" cy="209.5" r="3.0" fill="#adedd8" fill-opacity="0.6"/>
<circle cx="351.2" cy="181.7" r="3.0" fill="#adedd8" fill-opacity="0.6"/>
<circle cx="391.6" cy="153.8" r="3.0" fill="#adedd8" fill-opacity="0.6"/>
<circle cx="432.1" cy="125.9" r="3.0" fill="#adedd8" fill-opacity="0.6"/>
<circle cx="323.7" cy="251.3" r="3.0" fill="#adedd8" fill-opacity="0.6"/>
<circle cx="372.8" cy="251.3" r="3.0" fill="#adedd8" fill-opacity="0.6"/>
<circle cx="422.0" cy="251.3" r="3.0" fill="#adedd8" fill-opacity="0.6"/>
<circle cx="471.1" cy="251.3" r="3.0" fill="#adedd8" fill-opacity="0.6"/>
<circle cx="290.3" cy="313.1" r="3.0" fill="#adedd8" fill-opacity="0.6"/>
<circle cx="317.1" cy="354.2" r="3.0" fill="#adedd8" fill-opacity="0.6"/>
<circle cx="344.0" cy="395.4" r="3.0" fill="#adedd8" fill-opacity="0.6"/>
<circle cx="370.8" cy="436.5" r="3.0" fill="#adedd8" fill-opacity="0.6"/>
<circle cx="220.3" cy="318.8" r="3.0" fill="#adedd8" fill-opacity="0.6"/>
<circle cx="200.5" cy="363.8" r="3.0" fill="#adedd8" fill-opacity="0.6"/>
<circle cx="180.7" cy="408.7" r="3.0" fill="#adedd8" fill-opacity="0.6"/>
<circle cx="160.9" cy="453.7" r="3.0" fill="#adedd8" fill-opacity="0.6"/>
<circle cx="177.3" cy="263.3" r="3.0" fill="#adedd8" fill-opacity="0.6"/>
<circle cx="128.8" cy="271.3" r="3.0" fill="#adedd8" fill-opacity="0.6"/>
<circle cx="80.3" cy="279.3" r="3.0" fill="#adedd8" fill-opacity="0.6"/>
<circle cx="31.8" cy="287.3" r="3.0" fill="#adedd8" fill-opacity="0.6"/>
<circle cx="200.2" cy="197.0" r="3.0" fill="#adedd8" fill-opacity="0.6"/>
<circle cx="167.0" cy="160.7" r="3.0" fill="#adedd8" fill-opacity="0.6"/>
<circle cx="133.9" cy="124.5" r="3.0" fill="#adedd8" fill-opacity="0.6"/>
<circle cx="100.7" cy="88.3" r="3.0" fill="#adedd8" fill-opacity="0.6"/>
<circle cx="268.3" cy="180.0" r="3.0" fill="#adedd8" fill-opacity="0.6"/>
<circle cx="280.5" cy="132.4" r="3.0" fill="#adedd8" fill-opacity="0.6"/>
<circle cx="292.8" cy="84.8" r="3.0" fill="#adedd8" fill-opacity="0.6"/>
<circle cx="305.0" cy="37.2" r="3.0" fill="#adedd8" fill-opacity="0.6"/>
<circle cx="319.8" cy="227.7" r="3.0" fill="#adedd8" fill-opacity="0.6"/>
<circle cx="366.3" cy="211.9" r="3.0" fill="#adedd8" fill-opacity="0.6"/>
<circle cx="412.9" cy="196.1" r="3.0" fill="#adedd8" fill-opacity="0.6"/>
<circle cx="459.4" cy="180.4" r="3.0" fill="#adedd8" fill-opacity="0.6"/>
<circle cx="307.9" cy="296.9" r="3.0" fill="#adedd8" fill-opacity="0.6"/>
<circle cx="346.6" cy="327.2" r="3.0" fill="#adedd8" fill-opacity="0.6"/>
<circle cx="385.2" cy="357.6" r="3.0" fill="#adedd8" fill-opacity="0.6"/>
<circle cx="423.8" cy="387.9" r="3.0" fill="#adedd8" fill-opacity="0.6"/>
<line x1="250.0" y1="251.34" x2="443.1" y2="251.3" stroke="#402de5" stroke-width="2.57" opacity="0.38"/>
<line x1="250.0" y1="251.34" x2="416.6" y2="348.9" stroke="#5237d3" stroke-width="2.57" opacity="0.40"/>
<line x1="250.0" y1="251.34" x2="344.4" y2="419.8" stroke="#6441c1" stroke-width="2.57" opacity="0.42"/>
<line x1="250.0" y1="251.34" x2="246.4" y2="444.4" stroke="#764baf" stroke-width="2.57" opacity="0.44"/>
<line x1="250.0" y1="251.34" x2="149.3" y2="416.1" stroke="#88569d" stroke-width="2.57" opacity="0.47"/>
<line x1="250.0" y1="251.34" x2="79.8" y2="342.6" stroke="#9a608b" stroke-width="2.57" opacity="0.49"/>
<line x1="250.0" y1="251.34" x2="57.0" y2="244.1" stroke="#ac6a79" stroke-width="2.57" opacity="0.51"/>
<line x1="250.0" y1="251.34" x2="87.2" y2="147.5" stroke="#be7467" stroke-width="2.57" opacity="0.53"/>
<line x1="250.0" y1="251.34" x2="162.0" y2="79.5" stroke="#d17f54" stroke-width="2.57" opacity="0.55"/>
<line x1="250.0" y1="251.34" x2="260.9" y2="58.5" stroke="#dd8942" stroke-width="2.57" opacity="0.57"/>
<line x1="250.0" y1="251.34" x2="356.9" y2="90.5" stroke="#dd9430" stroke-width="2.57" opacity="0.59"/>
<line x1="250.0" y1="251.34" x2="423.5" y2="166.6" stroke="#dd9e1e" stroke-width="2.57" opacity="0.61"/>
<line x1="250.0" y1="251.34" x2="442.6" y2="265.9" stroke="#dda80c" stroke-width="2.57" opacity="0.64"/>
<line x1="250.0" y1="251.34" x2="408.8" y2="361.2" stroke="#ddb200" stroke-width="2.57" opacity="0.66"/>
<line x1="250.0" y1="251.34" x2="331.5" y2="426.4" stroke="#ddbd00" stroke-width="2.57" opacity="0.68"/>
<circle cx="323.7" cy="251.3" r="3.0" fill="#b4c9fd" fill-opacity="0.6"/>
<circle cx="372.8" cy="251.3" r="3.0" fill="#b4c9fd" fill-opacity="0.6"/>
<circle cx="422.0" cy="251.3" r="3.0" fill="#b4c9fd" fill-opacity="0.6"/>
<circle cx="471.1" cy="251.3" r="3.0" fill="#b4c9fd" fill-opacity="0.6"/>
<circle cx="282.2" cy="317.6" r="3.0" fill="#b4c9fd" fill-opacity="0.6"/>
<circle cx="303.7" cy="361.8" r="3.0" fill="#b4c9fd" fill-opacity="0.6"/>
<circle cx="325.2" cy="406.0" r="3.0" fill="#b4c9fd" fill-opacity="0.6"/>
<circle cx="346.6" cy="450.2" r="3.0" fill="#b4c9fd" fill-opacity="0.6"/>
<circle cx="204.5" cy="309.3" r="3.0" fill="#b4c9fd" fill-opacity="0.6"/>
<circle cx="174.1" cy="347.9" r="3.0" fill="#b4c9fd" fill-opacity="0.6"/>
<circle cx="143.8" cy="386.6" r="3.0" fill="#b4c9fd" fill-opacity="0.6"/>
<circle cx="113.4" cy="425.2" r="3.0" fill="#b4c9fd" fill-opacity="0.6"/>
<circle cx="178.0" cy="235.7" r="3.0" fill="#b4c9fd" fill-opacity="0.6"/>
<circle cx="130.0" cy="225.3" r="3.0" fill="#b4c9fd" fill-opacity="0.6"/>
<circle cx="81.9" cy="214.9" r="3.0" fill="#b4c9fd" fill-opacity="0.6"/>
<circle cx="33.9" cy="204.5" r="3.0" fill="#b4c9fd" fill-opacity="0.6"/>
<circle cx="232.6" cy="179.7" r="3.0" fill="#b4c9fd" fill-opacity="0.6"/>
<circle cx="221.0" cy="132.0" r="3.0" fill="#b4c9fd" fill-opacity="0.6"/>
<circle cx="209.3" cy="84.3" r="3.0" fill="#b4c9fd" fill-opacity="0.6"/>
<circle cx="197.7" cy="36.5" r="3.0" fill="#b4c9fd" fill-opacity="0.6"/>
<circle cx="306.8" cy="204.4" r="3.0" fill="#b4c9fd" fill-opacity="0.6"/>
<circle cx="344.6" cy="173.0" r="3.0" fill="#b4c9fd" fill-opacity="0.6"/>
<circle cx="382.5" cy="141.7" r="3.0" fill="#b4c9fd" fill-opacity="0.6"/>
<circle cx="420.4" cy="110.4" r="3.0" fill="#b4c9fd" fill-opacity="0.6"/>
<circle cx="317.1" cy="281.9" r="3.0" fill="#b4c9fd" fill-opacity="0.6"/>
<circle cx="361.8" cy="302.2" r="3.0" fill="#b4c9fd" fill-opacity="0.6"/>
<circle cx="406.5" cy="322.6" r="3.0" fill="#b4c9fd" fill-opacity="0.6"/>
<circle cx="451.2" cy="343.0" r="3.0" fill="#b4c9fd" fill-opacity="0.6"/>
<circle cx="251.9" cy="325.0" r="3.0" fill="#b4c9fd" fill-opacity="0.6"/>
<circle cx="253.1" cy="374.1" r="3.0" fill="#b4c9fd" fill-opacity="0.6"/>
<circle cx="254.3" cy="423.3" r="3.0" fill="#b4c9fd" fill-opacity="0.6"/>
<circle cx="255.6" cy="472.4" r="3.0" fill="#b4c9fd" fill-opacity="0.6"/>
<circle cx="323.7" cy="251.3" r="3.0" fill="#a0c3c8" fill-opacity="0.6"/>
<circle cx="372.8" cy="251.3" r="3.0" fill="#a0c3c8" fill-opacity="0.6"/>
<circle cx="422.0" cy="251.3" r="3.0" fill="#a0c3c8" fill-opacity="0.6"/>
<circle cx="471.1" cy="251.3" r="3.0" fill="#a0c3c8" fill-opacity="0.6"/>
<circle cx="310.0" cy="294.2" r="3.0" fill="#a0c3c8" fill-opacity="0.6"/>
<circle cx="350.0" cy="322.7" r="3.0" fill="#a0c3c8" fill-opacity="0.6"/>
<circle cx="390.0" cy="351.2" r="3.0" fill="#a0c3c8" fill-opacity="0.6"/>
<circle cx="430.0" cy="379.8" r="3.0" fill="#a0c3c8" fill-opacity="0.6"/>
<circle cx="273.9" cy="321.0" r="3.0" fill="#a0c3c8" fill-opacity="0.6"/>
<circle cx="289.9" cy="367.5" r="3.0" fill="#a0c3c8" fill-opacity="0.6"/>
<circle cx="305.9" cy="414.0" r="3.0" fill="#a0c3c8" fill-opacity="0.6"/>
<circle cx="321.8" cy="460.4" r="3.0" fill="#a0c3c8" fill-opacity="0.6"/>
<circle cx="229.0" cy="322.0" r="3.0" fill="#a0c3c8" fill-opacity="0.6"/>
<circle cx="215.0" cy="369.1" r="3.0" fill="#a0c3c8" fill-opacity="0.6"/>
<circle cx="201.0" cy="416.2" r="3.0" fill="#a0c3c8" fill-opacity="0.6"/>
<circle cx="187.0" cy="463.3" r="3.0" fill="#a0c3c8" fill-opacity="0.6"/>
<circle cx="191.9" cy="296.6" r="3.0" fill="#a0c3c8" fill-opacity="0.6"/>
<circle cx="153.1" cy="326.8" r="3.0" fill="#a0c3c8" fill-opacity="0.6"/>
<circle cx="114.3" cy="357.0" r="3.0" fill="#a0c3c8" fill-opacity="0.6"/>
<circle cx="75.6" cy="387.2" r="3.0" fill="#a0c3c8" fill-opacity="0.6"/>
<circle cx="176.4" cy="254.4" r="3.0" fill="#a0c3c8" fill-opacity="0.6"/>
<circle cx="127.3" cy="256.5" r="3.0" fill="#a0c3c8" fill-opacity="0.6"/>
<circle cx="78.2" cy="258.5" r="3.0" fill="#a0c3c8" fill-opacity="0.6"/>
<circle cx="29.1" cy="260.6" r="3.0" fill="#a0c3c8" fill-opacity="0.6"/>
<circle cx="188.3" cy="211.1" r="3.0" fill="#a0c3c8" fill-opacity="0.6"/>
<circle cx="147.1" cy="184.2" r="3.0" fill="#a0c3c8" fill-opacity="0.6"/>
<circle cx="106.0" cy="157.4" r="3.0" fill="#a0c3c8" fill-opacity="0.6"/>
<circle cx="64.8" cy="130.5" r="3.0" fill="#a0c3c8" fill-opacity="0.6"/>
<circle cx="223.2" cy="182.7" r="3.0" fill="#a0c3c8" fill-opacity="0.6"/>
<circle cx="205.3" cy="136.9" r="3.0" fill="#a0c3c8" fill-opacity="0.6"/>
<circle cx="187.4" cy="91.2" r="3.0" fill="#a0c3c8" fill-opacity="0.6"/>
<circle cx="169.5" cy="45.4" r="3.0" fill="#a0c3c8" fill-opacity="0.6"/>
<circle cx="323.7" cy="251.3" r="3.0" fill="#a0c3c8" fill-opacity="0.6"/>
<circle cx="372.8" cy="251.3" r="3.0" fill="#a0c3c8" fill-opacity="0.6"/>
<circle cx="422.0" cy="251.3" r="3.0" fill="#a0c3c8" fill-opacity="0.6"/>
<circle cx="471.1" cy="251.3" r="3.0" fill="#a0c3c8" fill-opacity="0.6"/>
<circle cx="312.6" cy="290.3" r="3.0" fill="#a0c3c8" fill-opacity="0.6"/>
<circle cx="354.3" cy="316.3" r="3.0" fill="#a0c3c8" fill-opacity="0.6"/>
<circle cx="396.0" cy="342.3" r="3.0" fill="#a0c3c8" fill-opacity="0.6"/>
<circle cx="437.7" cy="368.2" r="3.0" fill="#a0c3c8" fill-opacity="0.6"/>
<circle cx="282.5" cy="317.5" r="3.0" fill="#a0c3c8" fill-opacity="0.6"/>
<circle cx="304.2" cy="361.6" r="3.0" fill="#a0c3c8" fill-opacity="0.6"/>
<circle cx="325.8" cy="405.7" r="3.0" fill="#a0c3c8" fill-opacity="0.6"/>
<circle cx="347.5" cy="449.8" r="3.0" fill="#a0c3c8" fill-opacity="0.6"/>
<circle cx="242.6" cy="324.7" r="3.0" fill="#a0c3c8" fill-opacity="0.6"/>
<circle cx="237.7" cy="373.6" r="3.0" fill="#a0c3c8" fill-opacity="0.6"/>
<circle cx="232.7" cy="422.4" r="3.0" fill="#a0c3c8" fill-opacity="0.6"/>
<circle cx="227.8" cy="471.3" r="3.0" fill="#a0c3c8" fill-opacity="0.6"/>
<circle cx="205.0" cy="309.7" r="3.0" fill="#a0c3c8" fill-opacity="0.6"/>
<circle cx="174.9" cy="348.6" r="3.0" fill="#a0c3c8" fill-opacity="0.6"/>
<circle cx="144.9" cy="387.4" r="3.0" fill="#a0c3c8" fill-opacity="0.6"/>
<circle cx="114.9" cy="426.3" r="3.0" fill="#a0c3c8" fill-opacity="0.6"/>
<circle cx="180.9" cy="277.0" r="3.0" fill="#a0c3c8" fill-opacity="0.6"/>
<circle cx="134.9" cy="294.2" r="3.0" fill="#a0c3c8" fill-opacity="0.6"/>
<circle cx="88.8" cy="311.3" r="3.0" fill="#a0c3c8" fill-opacity="0.6"/>
<circle cx="42.8" cy="328.4" r="3.0" fill="#a0c3c8" fill-opacity="0.6"/>
<circle cx="177.8" cy="236.6" r="3.0" fill="#a0c3c8" fill-opacity="0.6"/>
<circle cx="129.6" cy="226.8" r="3.0" fill="#a0c3c8" fill-opacity="0.6"/>
<circle cx="81.5" cy="217.0" r="3.0" fill="#a0c3c8" fill-opacity="0.6"/>
<circle cx="33.4" cy="207.2" r="3.0" fill="#a0c3c8" fill-opacity="0.6"/>
<circle cx="196.5" cy="200.7" r="3.0" fill="#a0c3c8" fill-opacity="0.6"/>
<circle cx="160.8" cy="166.9" r="3.0" fill="#a0c3c8" fill-opacity="0.6"/>
<circle cx="125.1" cy="133.1" r="3.0" fill="#a0c3c8" fill-opacity="0.6"/>
<circle cx="89.5" cy="99.3" r="3.0" fill="#a0c3c8" fill-opacity="0.6"/>
<circle cx="250.0" cy="251.34" r="270.2" fill="#db2bd7" fill-opacity="0.27" stroke="#db2bd7" stroke-width="1.5"/>
<circle cx="250.0" cy="251.34" r="245.7" fill="#c931ec" fill-opacity="0.27" stroke="#c931ec" stroke-width="1.5"/>
<circle cx="250.0" cy="251.34" r="221.1" fill="#b837ff" fill-opacity="0.26" stroke="#b837ff" stroke-width="1.5"/>
<circle cx="250.0" cy="251.34" r="196.5" fill="#a63d10f" fill-opacity="0.26" stroke="#a63d10f" stroke-width="1.5"/>
<circle cx="250.0" cy="251.34" r="172.0" fill="#954411b" fill-opacity="0.26" stroke="#954411b" stroke-width="1.5"/>
<circle cx="250.0" cy="251.34" r="147.4" fill="#834a121" fill-opacity="0.25" stroke="#834a121" stroke-width="1.5"/>
<circle cx="250.0" cy="251.34" r="122.8" fill="#7250121" fill-opacity="0.25" stroke="#7250121" stroke-width="1.5"/>
<circle cx="250.0" cy="251.34" r="98.3" fill="#605711b" fill-opacity="0.24" stroke="#605711b" stroke-width="1.5"/>
<circle cx="250.0" cy="251.34" r="73.7" fill="#4f5d10f" fill-opacity="0.24" stroke="#4f5d10f" stroke-width="1.5"/>
<circle cx="250.0" cy="251.34" r="49.1" fill="#3d63ff" fill-opacity="0.24" stroke="#3d63ff" stroke-width="1.5"/>
<circle cx="250.0" cy="251.34" r="24.6" fill="#2c69ec" fill-opacity="0.23" stroke="#2c69ec" stroke-width="1.5"/>
<circle cx="299.1" cy="251.3" r="3.0" fill="#add9b9" fill-opacity="0.6"/>
<circle cx="372.8" cy="251.3" r="3.0" fill="#add9b9" fill-opacity="0.6"/>
<circle cx="446.5" cy="251.3" r="3.0" fill="#add9b9" fill-opacity="0.6"/>
<circle cx="270.2" cy="296.1" r="3.0" fill="#add9b9" fill-opacity="0.6"/>
<circle cx="300.4" cy="363.3" r="3.0" fill="#add9b9" fill-opacity="0.6"/>
<circle cx="330.7" cy="430.5" r="3.0" fill="#add9b9" fill-opacity="0.6"/>
<circle cx="217.4" cy="288.1" r="3.0" fill="#add9b9" fill-opacity="0.6"/>
<circle cx="168.6" cy="343.3" r="3.0" fill="#add9b9" fill-opacity="0.6"/>
<circle cx="119.7" cy="398.5" r="3.0" fill="#add9b9" fill-opacity="0.6"/>
<circle cx="203.1" cy="236.7" r="3.0" fill="#add9b9" fill-opacity="0.6"/>
<circle cx="132.7" cy="214.9" r="3.0" fill="#add9b9" fill-opacity="0.6"/>
<circle cx="62.3" cy="193.0" r="3.0" fill="#add9b9" fill-opacity="0.6"/>
<circle cx="372.8" cy="251.3" r="3.0" fill="#aad6ff" fill-opacity="0.6"/>
<circle cx="422.0" cy="251.3" r="3.0" fill="#aad6ff" fill-opacity="0.6"/>
<circle cx="471.1" cy="251.3" r="3.0" fill="#aad6ff" fill-opacity="0.6"/>
<circle cx="269.2" cy="372.7" r="3.0" fill="#aad6ff" fill-opacity="0.6"/>
<circle cx="276.9" cy="421.2" r="3.0" fill="#aad6ff" fill-opacity="0.6"/>
<circle cx="284.6" cy="469.7" r="3.0" fill="#aad6ff" fill-opacity="0.6"/>
<circle cx="133.2" cy="289.3" r="3.0" fill="#aad6ff" fill-opacity="0.6"/>
<circle cx="86.5" cy="304.5" r="3.0" fill="#aad6ff" fill-opacity="0.6"/>
<circle cx="39.7" cy="319.7" r="3.0" fill="#aad6ff" fill-opacity="0.6"/>
<circle cx="299.1" cy="251.3" r="3.0" fill="#b6fdff" fill-opacity="0.6"/>
<circle cx="348.3" cy="251.3" r="3.0" fill="#b6fdff" fill-opacity="0.6"/>
<circle cx="397.4" cy="251.3" r="3.0" fill="#b6fdff" fill-opacity="0.6"/>
<circle cx="446.5" cy="251.3" r="3.0" fill="#b6fdff" fill-opacity="0.6"/>
<circle cx="495.7" cy="251.3" r="3.0" fill="#b6fdff" fill-opacity="0.6"/>
<circle cx="279.2" cy="290.8" r="3.0" fill="#b6fdff" fill-opacity="0.6"/>
<circle cx="308.4" cy="330.4" r="3.0" fill="#b6fdff" fill-opacity="0.6"/>
<circle cx="337.6" cy="369.9" r="3.0" fill="#b6fdff" fill-opacity="0.6"/>
<circle cx="366.8" cy="409.4" r="3.0" fill="#b6fdff" fill-opacity="0.6"/>
<circle cx="396.1" cy="448.9" r="3.0" fill="#b6fdff" fill-opacity="0.6"/>
<circle cx="235.6" cy="298.3" r="3.0" fill="#b6fdff" fill-opacity="0.6"/>
<circle cx="221.2" cy="345.3" r="3.0" fill="#b6fdff" fill-opacity="0.6"/>
<circle cx="206.8" cy="392.3" r="3.0" fill="#b6fdff" fill-opacity="0.6"/>
<circle cx="192.4" cy="439.2" r="3.0" fill="#b6fdff" fill-opacity="0.6"/>
<circle cx="178.0" cy="486.2" r="3.0" fill="#b6fdff" fill-opacity="0.6"/>
<circle cx="203.7" cy="267.7" r="3.0" fill="#b6fdff" fill-opacity="0.6"/>
<circle cx="157.3" cy="284.0" r="3.0" fill="#b6fdff" fill-opacity="0.6"/>
<circle cx="111.0" cy="300.4" r="3.0" fill="#b6fdff" fill-opacity="0.6"/>
<circle cx="64.7" cy="316.7" r="3.0" fill="#b6fdff" fill-opacity="0.6"/>
<circle cx="18.3" cy="333.1" r="3.0" fill="#b6fdff" fill-opacity="0.6"/>
<circle cx="209.3" cy="223.8" r="3.0" fill="#b6fdff" fill-opacity="0.6"/>
<circle cx="168.6" cy="196.3" r="3.0" fill="#b6fdff" fill-opacity="0.6"/>
<circle cx="127.9" cy="168.7" r="3.0" fill="#b6fdff" fill-opacity="0.6"/>
<circle cx="87.2" cy="141.2" r="3.0" fill="#b6fdff" fill-opacity="0.6"/>
<circle cx="46.5" cy="113.7" r="3.0" fill="#b6fdff" fill-opacity="0.6"/>
<circle cx="247.9" cy="202.3" r="3.0" fill="#b6fdff" fill-opacity="0.6"/>
<circle cx="245.9" cy="153.2" r="3.0" fill="#b6fdff" fill-opacity="0.6"/>
<circle cx="243.8" cy="104.1" r="3.0" fill="#b6fdff" fill-opacity="0.6"/>
<circle cx="241.8" cy="55.0" r="3.0" fill="#b6fdff" fill-opacity="0.6"/>
<circle cx="239.7" cy="5.9" r="3.0" fill="#b6fdff" fill-opacity="0.6"/>
<circle cx="288.2" cy="220.5" r="3.0" fill="#b6fdff" fill-opacity="0.6"/>
<circle cx="326.5" cy="189.7" r="3.0" fill="#b6fdff" fill-opacity="0.6"/>
<circle cx="364.7" cy="158.8" r="3.0" fill="#b6fdff" fill-opacity="0.6"/>
<circle cx="403.0" cy="128.0" r="3.0" fill="#b6fdff" fill-opacity="0.6"/>
<circle cx="441.2" cy="97.1" r="3.0" fill="#b6fdff" fill-opacity="0.6"/>
<circle cx="297.5" cy="263.8" r="3.0" fill="#b6fdff" fill-opacity="0.6"/>
<circle cx="345.1" cy="276.2" r="3.0" fill="#b6fdff" fill-opacity="0.6"/>
<circle cx="392.6" cy="288.6" r="3.0" fill="#b6fdff" fill-opacity="0.6"/>
<circle cx="440.2" cy="301.0" r="3.0" fill="#b6fdff" fill-opacity="0.6"/>
<circle cx="487.7" cy="313.4" r="3.0" fill="#b6fdff" fill-opacity="0.6"/>
<circle cx="323.7" cy="251.3" r="3.0" fill="#a9cfff" fill-opacity="0.6"/>
<circle cx="372.8" cy="251.3" r="3.0" fill="#a9cfff" fill-opacity="0.6"/>
<circle cx="422.0" cy="251.3" r="3.0" fill="#a9cfff" fill-opacity="0.6"/>
<circle cx="471.1" cy="251.3" r="3.0" fill="#a9cfff" fill-opacity="0.6"/>
<circle cx="296.7" cy="308.3" r="3.0" fill="#a9cfff" fill-opacity="0.6"/>
<circle cx="327.9" cy="346.3" r="3.0" fill="#a9cfff" fill-opacity="0.6"/>
<circle cx="359.1" cy="384.3" r="3.0" fill="#a9cfff" fill-opacity="0.6"/>
<circle cx="390.2" cy="422.3" r="3.0" fill="#a9cfff" fill-opacity="0.6"/>
<circle cx="235.6" cy="323.6" r="3.0" fill="#a9cfff" fill-opacity="0.6"/>
<circle cx="226.0" cy="371.8" r="3.0" fill="#a9cfff" fill-opacity="0.6"/>
<circle cx="216.4" cy="420.0" r="3.0" fill="#a9cfff" fill-opacity="0.6"/>
<circle cx="206.8" cy="468.2" r="3.0" fill="#a9cfff" fill-opacity="0.6"/>
<circle cx="185.0" cy="286.0" r="3.0" fill="#a9cfff" fill-opacity="0.6"/>
<circle cx="141.6" cy="309.2" r="3.0" fill="#a9cfff" fill-opacity="0.6"/>
<circle cx="98.3" cy="332.3" r="3.0" fill="#a9cfff" fill-opacity="0.6"/>
<circle cx="54.9" cy="355.4" r="3.0" fill="#a9cfff" fill-opacity="0.6"/>
<circle cx="181.9" cy="223.1" r="3.0" fill="#a9cfff" fill-opacity="0.6"/>
<circle cx="136.6" cy="204.2" r="3.0" fill="#a9cfff" fill-opacity="0.6"/>
<circle cx="91.2" cy="185.4" r="3.0" fill="#a9cfff" fill-opacity="0.6"/>
<circle cx="45.8" cy="166.5" r="3.0" fill="#a9cfff" fill-opacity="0.6"/>
<circle cx="228.7" cy="180.8" r="3.0" fill="#a9cfff" fill-opacity="0.6"/>
<circle cx="214.5" cy="133.8" r="3.0" fill="#a9cfff" fill-opacity="0.6"/>
<circle cx="200.3" cy="86.7" r="3.0" fill="#a9cfff" fill-opacity="0.6"/>
<circle cx="186.1" cy="39.7" r="3.0" fill="#a9cfff" fill-opacity="0.6"/>
<circle cx="291.0" cy="190.1" r="3.0" fill="#a9cfff" fill-opacity="0.6"/>
<circle cx="318.4" cy="149.3" r="3.0" fill="#a9cfff" fill-opacity="0.6"/>
<circle cx="345.8" cy="108.5" r="3.0" fill="#a9cfff" fill-opacity="0.6"/>
<circle cx="373.1" cy="67.7" r="3.0" fill="#a9cfff" fill-opacity="0.6"/>
<circle cx="323.4" cy="244.3" r="3.0" fill="#a9cfff" fill-opacity="0.6"/>
<circle cx="372.3" cy="239.5" r="3.0" fill="#a9cfff" fill-opacity="0.6"/>
<circle cx="421.2" cy="234.8" r="3.0" fill="#a9cfff" fill-opacity="0.6"/>
<circle cx="470.1" cy="230.1" r="3.0" fill="#a9cfff" fill-opacity="0.6"/>
<circle cx="250.0" cy="251.34" r="270.2" fill="#f05bd4" fill-opacity="0.21" stroke="#f05bd4" stroke-width="1.5"/>
<circle cx="250.0" cy="251.34" r="245.7" fill="#de64e1" fill-opacity="0.21" stroke="#de64e1" stroke-width="1.5"/>
<circle cx="250.0" cy="251.34" r="221.1" fill="#cc6ded" fill-opacity="0.20" stroke="#cc6ded" stroke-width="1.5"/>
<circle cx="250.0" cy="251.34" r="196.5" fill="#ba75f7" fill-opacity="0.20" stroke="#ba75f7" stroke-width="1.5"/>
<circle cx="250.0" cy="251.34" r="172.0" fill="#a87efe" fill-opacity="0.20" stroke="#a87efe" stroke-width="1.5"/>
<circle cx="250.0" cy="251.34" r="147.4" fill="#9687102" fill-opacity="0.19" stroke="#9687102" stroke-width="1.5"/>
<circle cx="250.0" cy="251.34" r="122.8" fill="#848f102" fill-opacity="0.19" stroke="#848f102" stroke-width="1.5"/>
<circle cx="250.0" cy="251.34" r="98.3" fill="#7298fe" fill-opacity="0.18" stroke="#7298fe" stroke-width="1.5"/>
<circle cx="250.0" cy="251.34" r="73.7" fill="#60a1f7" fill-opacity="0.18" stroke="#60a1f7" stroke-width="1.5"/>
<circle cx="250.0" cy="251.34" r="49.1" fill="#4ea9ed" fill-opacity="0.18" stroke="#4ea9ed" stroke-width="1.5"/>
<circle cx="250.0" cy="251.34" r="24.6" fill="#3cb2e1" fill-opacity="0.17" stroke="#3cb2e1" stroke-width="1.5"/>
<circle cx="348.3" cy="251.3" r="3.0" fill="#91c0f3" fill-opacity="0.6"/>
<circle cx="397.4" cy="251.3" r="3.0" fill="#91c0f3" fill-opacity="0.6"/>
<circle cx="446.5" cy="251.3" r="3.0" fill="#91c0f3" fill-opacity="0.6"/>
<circle cx="495.7" cy="251.3" r="3.0" fill="#91c0f3" fill-opacity="0.6"/>
<circle cx="324.4" cy="315.5" r="3.0" fill="#91c0f3" fill-opacity="0.6"/>
<circle cx="361.6" cy="347.7" r="3.0" fill="#91c0f3" fill-opacity="0.6"/>
<circle cx="398.8" cy="379.8" r="3.0" fill="#91c0f3" fill-opacity="0.6"/>
<circle cx="436.0" cy="411.9" r="3.0" fill="#91c0f3" fill-opacity="0.6"/>
<circle cx="264.4" cy="348.6" r="3.0" fill="#91c0f3" fill-opacity="0.6"/>
<circle cx="271.5" cy="397.2" r="3.0" fill="#91c0f3" fill-opacity="0.6"/>
<circle cx="278.7" cy="445.8" r="3.0" fill="#91c0f3" fill-opacity="0.6"/>
<circle cx="285.9" cy="494.4" r="3.0" fill="#91c0f3" fill-opacity="0.6"/>
<circle cx="197.3" cy="334.3" r="3.0" fill="#91c0f3" fill-opacity="0.6"/>
<circle cx="171.0" cy="375.8" r="3.0" fill="#91c0f3" fill-opacity="0.6"/>
<circle cx="144.7" cy="417.3" r="3.0" fill="#91c0f3" fill-opacity="0.6"/>
<circle cx="118.4" cy="458.8" r="3.0" fill="#91c0f3" fill-opacity="0.6"/>
<circle cx="155.9" cy="279.7" r="3.0" fill="#91c0f3" fill-opacity="0.6"/>
<circle cx="108.9" cy="293.9" r="3.0" fill="#91c0f3" fill-opacity="0.6"/>
<circle cx="61.9" cy="308.1" r="3.0" fill="#91c0f3" fill-opacity="0.6"/>
<circle cx="14.8" cy="322.3" r="3.0" fill="#91c0f3" fill-opacity="0.6"/>
<circle cx="160.2" cy="211.4" r="3.0" fill="#91c0f3" fill-opacity="0.6"/>
<circle cx="115.3" cy="191.4" r="3.0" fill="#91c0f3" fill-opacity="0.6"/>
<circle cx="70.5" cy="171.4" r="3.0" fill="#91c0f3" fill-opacity="0.6"/>
<circle cx="25.6" cy="151.4" r="3.0" fill="#91c0f3" fill-opacity="0.6"/>
<circle cx="208.2" cy="162.4" r="3.0" fill="#91c0f3" fill-opacity="0.6"/>
<circle cx="187.2" cy="118.0" r="3.0" fill="#91c0f3" fill-opacity="0.6"/>
<circle cx="166.3" cy="73.5" r="3.0" fill="#91c0f3" fill-opacity="0.6"/>
<circle cx="145.4" cy="29.1" r="3.0" fill="#91c0f3" fill-opacity="0.6"/>
<circle cx="276.4" cy="156.7" r="3.0" fill="#91c0f3" fill-opacity="0.6"/>
<circle cx="289.6" cy="109.4" r="3.0" fill="#91c0f3" fill-opacity="0.6"/>
<circle cx="302.9" cy="62.0" r="3.0" fill="#91c0f3" fill-opacity="0.6"/>
<circle cx="316.1" cy="14.7" r="3.0" fill="#91c0f3" fill-opacity="0.6"/>
<circle cx="250.0" cy="251.34" r="270.2" fill="#bc41ae" fill-opacity="0.26" stroke="#bc41ae" stroke-width="1.5"/>
<circle cx="250.0" cy="251.34" r="245.7" fill="#ae48be" fill-opacity="0.25" stroke="#ae48be" stroke-width="1.5"/>
<circle cx="250.0" cy="251.34" r="221.1" fill="#a04fcd" fill-opacity="0.25" stroke="#a04fcd" stroke-width="1.5"/>
<circle cx="250.0" cy="251.34" r="196.5" fill="#9257da" fill-opacity="0.24" stroke="#9257da" stroke-width="1.5"/>
<circle cx="250.0" cy="251.34" r="172.0" fill="#845ee3" fill-opacity="0.24" stroke="#845ee3" stroke-width="1.5"/>
<circle cx="250.0" cy="251.34" r="147.4" fill="#7665e8" fill-opacity="0.23" stroke="#7665e8" stroke-width="1.5"/>
<circle cx="250.0" cy="251.34" r="122.8" fill="#696de8" fill-opacity="0.23" stroke="#696de8" stroke-width="1.5"/>
<circle cx="250.0" cy="251.34" r="98.3" fill="#5b74e3" fill-opacity="0.22" stroke="#5b74e3" stroke-width="1.5"/>
<circle cx="250.0" cy="251.34" r="73.7" fill="#4d7bda" fill-opacity="0.22" stroke="#4d7bda" stroke-width="1.5"/>
<circle cx="250.0" cy="251.34" r="49.1" fill="#3f83cd" fill-opacity="0.21" stroke="#3f83cd" stroke-width="1.5"/>
<circle cx="250.0" cy="251.34" r="24.6" fill="#318abe" fill-opacity="0.21" stroke="#318abe" stroke-width="1.5"/>
<circle cx="250.0" cy="251.34" r="270.2" fill="#13a14cb" fill-opacity="0.16" stroke="#13a14cb" stroke-width="1.5"/>
<circle cx="250.0" cy="251.34" r="245.7" fill="#1201be3" fill-opacity="0.15" stroke="#1201be3" stroke-width="1.5"/>
<circle cx="250.0" cy="251.34" r="221.1" fill="#10723fa" fill-opacity="0.15" stroke="#10723fa" stroke-width="1.5"/>
<circle cx="250.0" cy="251.34" r="196.5" fill="#ee2a10c" fill-opacity="0.14" stroke="#ee2a10c" stroke-width="1.5"/>
<circle cx="250.0" cy="251.34" r="172.0" fill="#d53111a" fill-opacity="0.14" stroke="#d53111a" stroke-width="1.5"/>
<circle cx="250.0" cy="251.34" r="147.4" fill="#bc39121" fill-opacity="0.13" stroke="#bc39121" stroke-width="1.5"/>
<circle cx="250.0" cy="251.34" r="122.8" fill="#a340121" fill-opacity="0.13" stroke="#a340121" stroke-width="1.5"/>
<circle cx="250.0" cy="251.34" r="98.3" fill="#8a4711a" fill-opacity="0.12" stroke="#8a4711a" stroke-width="1.5"/>
<circle cx="250.0" cy="251.34" r="73.7" fill="#714f10c" fill-opacity="0.12" stroke="#714f10c" stroke-width="1.5"/>
<circle cx="250.0" cy="251.34" r="49.1" fill="#5856fa" fill-opacity="0.11" stroke="#5856fa" stroke-width="1.5"/>
<circle cx="250.0" cy="251.34" r="24.6" fill="#3f5de3" fill-opacity="0.11" stroke="#3f5de3" stroke-width="1.5"/>
<circle cx="250.0" cy="251.34" r="270.2" fill="#15d06e8" fill-opacity="0.13" stroke="#15d06e8" stroke-width="1.5"/>
<circle cx="250.0" cy="251.34" r="245.7" fill="#1400cfc" fill-opacity="0.13" stroke="#1400cfc" stroke-width="1.5"/>
<circle cx="250.0" cy="251.34" r="221.1" fill="#1231110e" fill-opacity="0.12" stroke="#1231110e" stroke-width="1.5"/>
<circle cx="250.0" cy="251.34" r="196.5" fill="#1061711d" fill-opacity="0.12" stroke="#1061711d" stroke-width="1.5"/>
<circle cx="250.0" cy="251.34" r="172.0" fill="#e91c128" fill-opacity="0.11" stroke="#e91c128" stroke-width="1.5"/>
<circle cx="250.0" cy="251.34" r="147.4" fill="#cc2112e" fill-opacity="0.11" stroke="#cc2112e" stroke-width="1.5"/>
<circle cx="250.0" cy="251.34" r="122.8" fill="#af2712e" fill-opacity="0.10" stroke="#af2712e" stroke-width="1.5"/>
<circle cx="250.0" cy="251.34" r="98.3" fill="#922c128" fill-opacity="0.10" stroke="#922c128" stroke-width="1.5"/>
<circle cx="250.0" cy="251.34" r="73.7" fill="#753111d" fill-opacity="0.09" stroke="#753111d" stroke-width="1.5"/>
<circle cx="250.0" cy="251.34" r="49.1" fill="#583710e" fill-opacity="0.09" stroke="#583710e" stroke-width="1.5"/>
<circle cx="250.0" cy="251.34" r="24.6" fill="#3b3cfc" fill-opacity="0.08" stroke="#3b3cfc" stroke-width="1.5"/>
<line x1="250.0" y1="251.34" x2="443.1" y2="251.3" stroke="#2b32112" stroke-width="2.57" opacity="0.26"/>
<line x1="250.0" y1="251.34" x2="423.9" y2="335.4" stroke="#3737106" stroke-width="2.57" opacity="0.28"/>
<line x1="250.0" y1="251.34" x2="369.9" y2="402.7" stroke="#433dfa" stroke-width="2.57" opacity="0.31"/>
<line x1="250.0" y1="251.34" x2="292.1" y2="439.8" stroke="#4f43ee" stroke-width="2.57" opacity="0.33"/>
<line x1="250.0" y1="251.34" x2="205.9" y2="439.3" stroke="#5b49e2" stroke-width="2.57" opacity="0.36"/>
<line x1="250.0" y1="251.34" x2="128.5" y2="401.4" stroke="#674fd6" stroke-width="2.57" opacity="0.38"/>
<line x1="250.0" y1="251.34" x2="75.3" y2="333.6" stroke="#7355ca" stroke-width="2.57" opacity="0.41"/>
<line x1="250.0" y1="251.34" x2="56.9" y2="249.3" stroke="#7f5bbe" stroke-width="2.57" opacity="0.43"/>
<line x1="250.0" y1="251.34" x2="77.0" y2="165.5" stroke="#8b61b2" stroke-width="2.57" opacity="0.46"/>
<line x1="250.0" y1="251.34" x2="131.6" y2="98.8" stroke="#9766a6" stroke-width="2.57" opacity="0.48"/>
<line x1="250.0" y1="251.34" x2="209.9" y2="62.4" stroke="#a36c9a" stroke-width="2.57" opacity="0.51"/>
<line x1="250.0" y1="251.34" x2="296.1" y2="63.8" stroke="#af728e" stroke-width="2.57" opacity="0.53"/>
<line x1="250.0" y1="251.34" x2="373.1" y2="102.5" stroke="#bb7882" stroke-width="2.57" opacity="0.56"/>
<line x1="250.0" y1="251.34" x2="425.6" y2="171.0" stroke="#c77e76" stroke-width="2.57" opacity="0.58"/>
<line x1="250.0" y1="251.34" x2="443.1" y2="255.4" stroke="#d3846a" stroke-width="2.57" opacity="0.61"/>
<circle cx="348.3" cy="251.3" r="3.0" fill="#cbe9e8" fill-opacity="0.6"/>
<circle cx="397.4" cy="251.3" r="3.0" fill="#cbe9e8" fill-opacity="0.6"/>
<circle cx="446.5" cy="251.3" r="3.0" fill="#cbe9e8" fill-opacity="0.6"/>
<circle cx="495.7" cy="251.3" r="3.0" fill="#cbe9e8" fill-opacity="0.6"/>
<circle cx="275.6" cy="346.2" r="3.0" fill="#cbe9e8" fill-opacity="0.6"/>
<circle cx="288.4" cy="393.6" r="3.0" fill="#cbe9e8" fill-opacity="0.6"/>
<circle cx="301.3" cy="441.1" r="3.0" fill="#cbe9e8" fill-opacity="0.6"/>
<circle cx="314.1" cy="488.5" r="3.0" fill="#cbe9e8" fill-opacity="0.6"/>
<circle cx="165.1" cy="300.8" r="3.0" fill="#cbe9e8" fill-opacity="0.6"/>
<circle cx="122.7" cy="325.6" r="3.0" fill="#cbe9e8" fill-opacity="0.6"/>
<circle cx="80.2" cy="350.3" r="3.0" fill="#cbe9e8" fill-opacity="0.6"/>
<circle cx="37.8" cy="375.1" r="3.0" fill="#cbe9e8" fill-opacity="0.6"/>
<circle cx="180.1" cy="182.3" r="3.0" fill="#cbe9e8" fill-opacity="0.6"/>
<circle cx="145.1" cy="147.8" r="3.0" fill="#cbe9e8" fill-opacity="0.6"/>
<circle cx="110.2" cy="113.2" r="3.0" fill="#cbe9e8" fill-opacity="0.6"/>
<circle cx="75.2" cy="78.7" r="3.0" fill="#cbe9e8" fill-opacity="0.6"/>
<circle cx="250.0" cy="251.34" r="8.0" fill="#e1c5ca" fill-opacity="0.9"/>
</svg>