<svg xmlns="http://www.w3.org/2000/svg" width="500" height="500" viewBox="0 0 500 500">
<rect width="500" height="500" fill="#004951"/>
<circle cx="363.1" cy="267.9" r="3.0" fill="#a6ffe3" fill-opacity="0.6"/>
<circle cx="408.3" cy="267.9" r="3.0" fill="#a6ffe3" fill-opacity="0.6"/>
<circle cx="453.5" cy="267.9" r="3.0" fill="#a6ffe3" fill-opacity="0.6"/>
<circle cx="302.0" cy="368.3" r="3.0" fill="#a6ffe3" fill-opacity="0.6"/>
<circle cx="322.7" cy="408.5" r="3.0" fill="#a6ffe3" fill-opacity="0.6"/>
<circle cx="343.5" cy="448.6" r="3.0" fill="#a6ffe3" fill-opacity="0.6"/>
<circle cx="184.7" cy="360.2" r="3.0" fill="#a6ffe3" fill-opacity="0.6"/>
<circle cx="158.6" cy="397.1" r="3.0" fill="#a6ffe3" fill-opacity="0.6"/>
<circle cx="132.5" cy="434.0" r="3.0" fill="#a6ffe3" fill-opacity="0.6"/>
<circle cx="138.0" cy="252.3" r="3.0" fill="#a6ffe3" fill-opacity="0.6"/>
<circle cx="93.2" cy="246.1" r="3.0" fill="#a6ffe3" fill-opacity="0.6"/>
<circle cx="48.4" cy="239.8" r="3.0" fill="#a6ffe3" fill-opacity="0.6"/>
<circle cx="212.4" cy="161.3" r="3.0" fill="#a6ffe3" fill-opacity="0.6"/>
<circle cx="197.3" cy="118.6" r="3.0" fill="#a6ffe3" fill-opacity="0.6"/>
<circle cx="182.3" cy="76.0" r="3.0" fill="#a6ffe3" fill-opacity="0.6"/>
<circle cx="250.0" cy="267.89" r="226.1" fill="#11414cb" fill-opacity="0.18" stroke="#11414cb" stroke-width="1.5"/>
<circle cx="250.0" cy="267.89" r="203.5" fill="#fc1ce5" fill-opacity="0.17" stroke="#fc1ce5" stroke-width="1.5"/>
<circle cx="250.0" cy="267.89" r="180.9" fill="#e424fe" fill-opacity="0.17" stroke="#e424fe" stroke-width="1.5"/>
<circle cx="250.0" cy="267.89" r="158.3" fill="#cc2c111" fill-opacity="0.16" stroke="#cc2c111" stroke-width="1.5"/>
<circle cx="250.0" cy="267.89" r="135.7" fill="#b43411d" fill-opacity="0.16" stroke="#b43411d" stroke-width="1.5"/>
<circle cx="250.0" cy="267.89" r="113.1" fill="#9d3c122" fill-opacity="0.15" stroke="#9d3c122" stroke-width="1.5"/>
<circle cx="250.0" cy="267.89" r="90.4" fill="#854411d" fill-opacity="0.14" stroke="#854411d" stroke-width="1.5"/>
<circle cx="250.0" cy="267.89" r="67.8" fill="#6d4d111" fill-opacity="0.14" stroke="#6d4d111" stroke-width="1.5"/>
<circle cx="250.0" cy="267.89" r="45.2" fill="#5555fe" fill-opacity="0.13" stroke="#5555fe" stroke-width="1.5"/>
<circle cx="250.0" cy="267.89" r="22.6" fill="#3d5de5" fill-opacity="0.13" stroke="#3d5de5" stroke-width="1.5"/>
<circle cx="295.2" cy="267.9" r="3.0" fill="#cbe6ea" fill-opacity="0.6"/>
<circle cx="340.4" cy="267.9" r="3.0" fill="#cbe6ea" fill-opacity="0.6"/>
<circle cx="385.7" cy="267.9" r="3.0" fill="#cbe6ea" fill-opacity="0.6"/>
<circle cx="430.9" cy="267.9" r="3.0" fill="#cbe6ea" fill-opacity="0.6"/>
<circle cx="276.9" cy="304.3" r="3.0" fill="#cbe6ea" fill-opacity="0.6"/>
<circle cx="303.8" cy="340.6" r="3.0" fill="#cbe6ea" fill-opacity="0.6"/>
<circle cx="330.7" cy="377.0" r="3.0" fill="#cbe6ea" fill-opacity="0.6"/>
<circle cx="357.6" cy="413.3" r="3.0" fill="#cbe6ea" fill-opacity="0.6"/>
<circle cx="236.7" cy="311.1" r="3.0" fill="#cbe6ea" fill-opacity="0.6"/>
<circle cx="223.5" cy="354.4" r="3.0" fill="#cbe6ea" fill-opacity="0.6"/>
<circle cx="210.2" cy="397.6" r="3.0" fill="#cbe6ea" fill-opacity="0.6"/>
<circle cx="197.0" cy="440.8" r="3.0" fill="#cbe6ea" fill-opacity="0.6"/>
<circle cx="207.4" cy="282.9" r="3.0" fill="#cbe6ea" fill-opacity="0.6"/>
<circle cx="164.7" cy="298.0" r="3.0" fill="#cbe6ea" fill-opacity="0.6"/>
<circle cx="122.1" cy="313.0" r="3.0" fill="#cbe6ea" fill-opacity="0.6"/>
<circle cx="79.4" cy="328.1" r="3.0" fill="#cbe6ea" fill-opacity="0.6"/>
<circle cx="212.5" cy="242.5" r="3.0" fill="#cbe6ea" fill-opacity="0.6"/>
<circle cx="175.1" cy="217.2" r="3.0" fill="#cbe6ea" fill-opacity="0.6"/>
<circle cx="137.6" cy="191.9" r="3.0" fill="#cbe6ea" fill-opacity="0.6"/>
<circle cx="100.2" cy="166.5" r="3.0" fill="#cbe6ea" fill-opacity="0.6"/>
<circle cx="248.1" cy="222.7" r="3.0" fill="#cbe6ea" fill-opacity="0.6"/>
<circle cx="246.2" cy="177.5" r="3.0" fill="#cbe6ea" fill-opacity="0.6"/>
<circle cx="244.3" cy="132.3" r="3.0" fill="#cbe6ea" fill-opacity="0.6"/>
<circle cx="242.4" cy="87.2" r="3.0" fill="#cbe6ea" fill-opacity="0.6"/>
<circle cx="285.2" cy="239.5" r="3.0" fill="#cbe6ea" fill-opacity="0.6"/>
<circle cx="320.4" cy="211.1" r="3.0" fill="#cbe6ea" fill-opacity="0.6"/>
<circle cx="355.6" cy="182.7" r="3.0" fill="#cbe6ea" fill-opacity="0.6"/>
<circle cx="390.8" cy="154.3" r="3.0" fill="#cbe6ea" fill-opacity="0.6"/>
<circle cx="293.8" cy="279.3" r="3.0" fill="#cbe6ea" fill-opacity="0.6"/>
<circle cx="337.5" cy="290.8" r="3.0" fill="#cbe6ea" fill-opacity="0.6"/>
<circle cx="381.3" cy="302.2" r="3.0" fill="#cbe6ea" fill-opacity="0.6"/>
<circle cx="425.0" cy="313.6" r="3.0" fill="#cbe6ea" fill-opacity="0.6"/>
<circle cx="340.4" cy="267.9" r="3.0" fill="#a3ddff" fill-opacity="0.6"/>
<circle cx="385.7" cy="267.9" r="3.0" fill="#a3ddff" fill-opacity="0.6"/>
<circle cx="430.9" cy="267.9" r="3.0" fill="#a3ddff" fill-opacity="0.6"/>
<circle cx="273.6" cy="355.2" r="3.0" fill="#a3ddff" fill-opacity="0.6"/>
<circle cx="285.4" cy="398.9" r="3.0" fill="#a3ddff" fill-opacity="0.6"/>
<circle cx="297.2" cy="442.5" r="3.0" fill="#a3ddff" fill-opacity="0.6"/>
<circle cx="171.9" cy="313.4" r="3.0" fill="#a3ddff" fill-opacity="0.6"/>
<circle cx="132.8" cy="336.2" r="3.0" fill="#a3ddff" fill-opacity="0.6"/>
<circle cx="93.7" cy="359.0" r="3.0" fill="#a3ddff" fill-opacity="0.6"/>
<circle cx="185.6" cy="204.3" r="3.0" fill="#a3ddff" fill-opacity="0.6"/>
<circle cx="153.5" cy="172.6" r="3.0" fill="#a3ddff" fill-opacity="0.6"/>
<circle cx="121.3" cy="140.8" r="3.0" fill="#a3ddff" fill-opacity="0.6"/>
<circle cx="250.0" cy="267.89" r="226.1" fill="#bc41ae" fill-opacity="0.25" stroke="#bc41ae" stroke-width="1.5"/>
<circle cx="250.0" cy="267.89" r="203.5" fill="#ac49c0" fill-opacity="0.24" stroke="#ac49c0" stroke-width="1.5"/>
<circle cx="250.0" cy="267.89" r="180.9" fill="#9d51d0" fill-opacity="0.24" stroke="#9d51d0" stroke-width="1.5"/>
<circle cx="250.0" cy="267.89" r="158.3" fill="#8e59dd" fill-opacity="0.23" stroke="#8e59dd" stroke-width="1.5"/>
<circle cx="250.0" cy="267.89" r="135.7" fill="#7f61e6" fill-opacity="0.23" stroke="#7f61e6" stroke-width="1.5"/>
<circle cx="250.0" cy="267.89" r="113.1" fill="#7069e9" fill-opacity="0.22" stroke="#7069e9" stroke-width="1.5"/>
<circle cx="250.0" cy="267.89" r="90.4" fill="#6071e6" fill-opacity="0.21" stroke="#6071e6" stroke-width="1.5"/>
<circle cx="250.0" cy="267.89" r="67.8" fill="#5179dd" fill-opacity="0.21" stroke="#5179dd" stroke-width="1.5"/>
<circle cx="250.0" cy="267.89" r="45.2" fill="#4281d0" fill-opacity="0.20" stroke="#4281d0" stroke-width="1.5"/>
<circle cx="250.0" cy="267.89" r="22.6" fill="#3389c0" fill-opacity="0.20" stroke="#3389c0" stroke-width="1.5"/>
<line x1="250.0" y1="267.89" x2="443.1" y2="267.9" stroke="#5028c8" stroke-width="2.57" opacity="0.30"/>
<line x1="250.0" y1="267.89" x2="426.4" y2="346.4" stroke="#612fb7" stroke-width="2.57" opacity="0.33"/>
<line x1="250.0" y1="267.89" x2="379.2" y2="411.4" stroke="#7237a6" stroke-width="2.57" opacity="0.35"/>
<line x1="250.0" y1="267.89" x2="309.7" y2="451.5" stroke="#833f95" stroke-width="2.57" opacity="0.38"/>
<line x1="250.0" y1="267.89" x2="229.8" y2="459.9" stroke="#944784" stroke-width="2.57" opacity="0.41"/>
<line x1="250.0" y1="267.89" x2="153.4" y2="435.1" stroke="#a54f73" stroke-width="2.57" opacity="0.43"/>
<line x1="250.0" y1="267.89" x2="93.8" y2="381.4" stroke="#b65662" stroke-width="2.57" opacity="0.46"/>
<line x1="250.0" y1="267.89" x2="61.1" y2="308.0" stroke="#c75e51" stroke-width="2.57" opacity="0.49"/>
<line x1="250.0" y1="267.89" x2="61.1" y2="227.7" stroke="#d86640" stroke-width="2.57" opacity="0.51"/>
<line x1="250.0" y1="267.89" x2="93.8" y2="154.4" stroke="#e96e2f" stroke-width="2.57" opacity="0.54"/>
<line x1="250.0" y1="267.89" x2="153.4" y2="100.7" stroke="#fa761e" stroke-width="2.57" opacity="0.57"/>
<line x1="250.0" y1="267.89" x2="229.8" y2="75.8" stroke="#ff7e0d" stroke-width="2.57" opacity="0.59"/>
<line x1="250.0" y1="267.89" x2="309.7" y2="84.2" stroke="#ff8500" stroke-width="2.57" opacity="0.62"/>
<line x1="250.0" y1="267.89" x2="379.2" y2="124.4" stroke="#ff8d00" stroke-width="2.57" opacity="0.65"/>
<line x1="250.0" y1="267.89" x2="426.4" y2="189.3" stroke="#ff9500" stroke-width="2.57" opacity="0.67"/>
<circle cx="317.8" cy="267.9" r="3.0" fill="#adedd8" fill-opacity="0.6"/>
<circle cx="385.7" cy="267.9" r="3.0" fill="#adedd8" fill-opacity="0.6"/>
<circle cx="453.5" cy="267.9" r="3.0" fill="#adedd8" fill-opacity="0.6"/>
<circle cx="271.0" cy="332.4" r="3.0" fill="#adedd8" fill-opacity="0.6"/>
<circle cx="291.9" cy="396.9" r="3.0" fill="#adedd8" fill-opacity="0.6"/>
<circle cx="312.9" cy="461.4" r="3.0" fill="#adedd8" fill-opacity="0.6"/>
<circle cx="195.1" cy="307.8" r="3.0" fill="#adedd8" fill-opacity="0.6"/>
<circle cx="140.2" cy="347.6" r="3.0" fill="#adedd8" fill-opacity="0.6"/>
<circle cx="85.4" cy="387.5" r="3.0" fill="#adedd8" fill-opacity="0.6"/>
<circle cx="195.1" cy="228.0" r="3.0" fill="#adedd8" fill-opacity="0.6"/>
<circle cx="140.2" cy="188.1" r="3.0" fill="#adedd8" fill-opacity="0.6"/>
<circle cx="85.4" cy="148.3" r="3.0" fill="#adedd8" fill-opacity="0.6"/>
<circle cx="271.0" cy="203.4" r="3.0" fill="#adedd8" fill-opacity="0.6"/>
<circle cx="291.9" cy="138.9" r="3.0" fill="#adedd8" fill-opacity="0.6"/>
<circle cx="312.9" cy="74.3" r="3.0" fill="#adedd8" fill-opacity="0.6"/>
<circle cx="250.0" cy="267.89" r="226.1" fill="#e53ccd" fill-opacity="0.20" stroke="#e53ccd" stroke-width="1.5"/>
<circle cx="250.0" cy="267.89" r="203.5" fill="#d146e4" fill-opacity="0.20" stroke="#d146e4" stroke-width="1.5"/>
<circle cx="250.0" cy="267.89" r="180.9" fill="#bd50f9" fill-opacity="0.19" stroke="#bd50f9" stroke-width="1.5"/>
<circle cx="250.0" cy="267.89" r="158.3" fill="#a95a109" fill-opacity="0.18" stroke="#a95a109" stroke-width="1.5"/>
<circle cx="250.0" cy="267.89" r="135.7" fill="#9564114" fill-opacity="0.18" stroke="#9564114" stroke-width="1.5"/>
<circle cx="250.0" cy="267.89" r="113.1" fill="#816e118" fill-opacity="0.17" stroke="#816e118" stroke-width="1.5"/>
<circle cx="250.0" cy="267.89" r="90.4" fill="#6d78114" fill-opacity="0.17" stroke="#6d78114" stroke-width="1.5"/>
<circle cx="250.0" cy="267.89" r="67.8" fill="#5982109" fill-opacity="0.16" stroke="#5982109" stroke-width="1.5"/>
<circle cx="250.0" cy="267.89" r="45.2" fill="#458cf9" fill-opacity="0.16" stroke="#458cf9" stroke-width="1.5"/>
<circle cx="250.0" cy="267.89" r="22.6" fill="#3196e4" fill-opacity="0.15" stroke="#3196e4" stroke-width="1.5"/>
<circle cx="363.1" cy="267.9" r="3.0" fill="#aad6ff" fill-opacity="0.6"/>
<circle cx="408.3" cy="267.9" r="3.0" fill="#aad6ff" fill-opacity="0.6"/>
<circle cx="453.5" cy="267.9" r="3.0" fill="#aad6ff" fill-opacity="0.6"/>
<circle cx="267.7" cy="379.6" r="3.0" fill="#aad6ff" fill-opacity="0.6"/>
<circle cx="274.8" cy="424.2" r="3.0" fill="#aad6ff" fill-opacity="0.6"/>
<circle cx="281.8" cy="468.9" r="3.0" fill="#aad6ff" fill-opacity="0.6"/>
<circle cx="142.5" cy="302.8" r="3.0" fill="#aad6ff" fill-opacity="0.6"/>
<circle cx="99.5" cy="316.8" r="3.0" fill="#aad6ff" fill-opacity="0.6"/>
<circle cx="56.5" cy="330.8" r="3.0" fill="#aad6ff" fill-opacity="0.6"/>
<circle cx="317.8" cy="267.9" r="3.0" fill="#abbddc" fill-opacity="0.6"/>
<circle cx="363.1" cy="267.9" r="3.0" fill="#abbddc" fill-opacity="0.6"/>
<circle cx="408.3" cy="267.9" r="3.0" fill="#abbddc" fill-opacity="0.6"/>
<circle cx="453.5" cy="267.9" r="3.0" fill="#abbddc" fill-opacity="0.6"/>
<circle cx="305.2" cy="307.3" r="3.0" fill="#abbddc" fill-opacity="0.6"/>
<circle cx="342.0" cy="333.6" r="3.0" fill="#abbddc" fill-opacity="0.6"/>
<circle cx="378.8" cy="359.9" r="3.0" fill="#abbddc" fill-opacity="0.6"/>
<circle cx="415.6" cy="386.1" r="3.0" fill="#abbddc" fill-opacity="0.6"/>
<circle cx="272.0" cy="332.0" r="3.0" fill="#abbddc" fill-opacity="0.6"/>
<circle cx="286.7" cy="374.8" r="3.0" fill="#abbddc" fill-opacity="0.6"/>
<circle cx="301.4" cy="417.6" r="3.0" fill="#abbddc" fill-opacity="0.6"/>
<circle cx="316.1" cy="460.4" r="3.0" fill="#abbddc" fill-opacity="0.6"/>
<circle cx="230.7" cy="332.9" r="3.0" fill="#abbddc" fill-opacity="0.6"/>
<circle cx="217.8" cy="376.3" r="3.0" fill="#abbddc" fill-opacity="0.6"/>
<circle cx="204.9" cy="419.6" r="3.0" fill="#abbddc" fill-opacity="0.6"/>
<circle cx="192.0" cy="463.0" r="3.0" fill="#abbddc" fill-opacity="0.6"/>
<circle cx="196.5" cy="309.6" r="3.0" fill="#abbddc" fill-opacity="0.6"/>
<circle cx="160.8" cy="337.4" r="3.0" fill="#abbddc" fill-opacity="0.6"/>
<circle cx="125.1" cy="365.2" r="3.0" fill="#abbddc" fill-opacity="0.6"/>
<circle cx="89.5" cy="393.0" r="3.0" fill="#abbddc" fill-opacity="0.6"/>
<circle cx="182.2" cy="270.7" r="3.0" fill="#abbddc" fill-opacity="0.6"/>
<circle cx="137.0" cy="272.6" r="3.0" fill="#abbddc" fill-opacity="0.6"/>
<circle cx="91.9" cy="274.5" r="3.0" fill="#abbddc" fill-opacity="0.6"/>
<circle cx="46.7" cy="276.4" r="3.0" fill="#abbddc" fill-opacity="0.6"/>
<circle cx="193.2" cy="230.8" r="3.0" fill="#abbddc" fill-opacity="0.6"/>
<circle cx="155.3" cy="206.1" r="3.0" fill="#abbddc" fill-opacity="0.6"/>
<circle cx="117.4" cy="181.4" r="3.0" fill="#abbddc" fill-opacity="0.6"/>
<circle cx="79.6" cy="156.7" r="3.0" fill="#abbddc" fill-opacity="0.6"/>
<circle cx="225.3" cy="204.7" r="3.0" fill="#abbddc" fill-opacity="0.6"/>
<circle cx="208.8" cy="162.6" r="3.0" fill="#abbddc" fill-opacity="0.6"/>
<circle cx="192.3" cy="120.5" r="3.0" fill="#abbddc" fill-opacity="0.6"/>
<circle cx="175.9" cy="78.4" r="3.0" fill="#abbddc" fill-opacity="0.6"/>
<circle cx="340.4" cy="267.9" r="3.0" fill="#91c0f3" fill-opacity="0.6"/>
<circle cx="385.7" cy="267.9" r="3.0" fill="#91c0f3" fill-opacity="0.6"/>
<circle cx="430.9" cy="267.9" r="3.0" fill="#91c0f3" fill-opacity="0.6"/>
<circle cx="318.5" cy="327.0" r="3.0" fill="#91c0f3" fill-opacity="0.6"/>
<circle cx="352.7" cy="356.5" r="3.0" fill="#91c0f3" fill-opacity="0.6"/>
<circle cx="386.9" cy="386.1" r="3.0" fill="#91c0f3" fill-opacity="0.6"/>
<circle cx="263.2" cy="357.4" r="3.0" fill="#91c0f3" fill-opacity="0.6"/>
<circle cx="269.8" cy="402.1" r="3.0" fill="#91c0f3" fill-opacity="0.6"/>
<circle cx="276.4" cy="446.8" r="3.0" fill="#91c0f3" fill-opacity="0.6"/>
<circle cx="201.5" cy="344.3" r="3.0" fill="#91c0f3" fill-opacity="0.6"/>
<circle cx="177.3" cy="382.4" r="3.0" fill="#91c0f3" fill-opacity="0.6"/>
<circle cx="153.1" cy="420.6" r="3.0" fill="#91c0f3" fill-opacity="0.6"/>
<circle cx="163.4" cy="294.0" r="3.0" fill="#91c0f3" fill-opacity="0.6"/>
<circle cx="120.1" cy="307.1" r="3.0" fill="#91c0f3" fill-opacity="0.6"/>
<circle cx="76.8" cy="320.2" r="3.0" fill="#91c0f3" fill-opacity="0.6"/>
<circle cx="167.4" cy="231.1" r="3.0" fill="#91c0f3" fill-opacity="0.6"/>
<circle cx="126.1" cy="212.7" r="3.0" fill="#91c0f3" fill-opacity="0.6"/>
<circle cx="84.7" cy="194.3" r="3.0" fill="#91c0f3" fill-opacity="0.6"/>
<circle cx="211.5" cy="186.1" r="3.0" fill="#91c0f3" fill-opacity="0.6"/>
<circle cx="192.2" cy="145.1" r="3.0" fill="#91c0f3" fill-opacity="0.6"/>
<circle cx="173.0" cy="104.2" r="3.0" fill="#91c0f3" fill-opacity="0.6"/>
<circle cx="274.3" cy="180.8" r="3.0" fill="#91c0f3" fill-opacity="0.6"/>
<circle cx="286.5" cy="137.2" r="3.0" fill="#91c0f3" fill-opacity="0.6"/>
<circle cx="298.6" cy="93.7" r="3.0" fill="#91c0f3" fill-opacity="0.6"/>
<circle cx="295.2" cy="267.9" r="3.0" fill="#add9b9" fill-opacity="0.6"/>
<circle cx="363.1" cy="267.9" r="3.0" fill="#add9b9" fill-opacity="0.6"/>
<circle cx="430.9" cy="267.9" r="3.0" fill="#add9b9" fill-opacity="0.6"/>
<circle cx="268.6" cy="309.1" r="3.0" fill="#add9b9" fill-opacity="0.6"/>
<circle cx="296.4" cy="371.0" r="3.0" fill="#add9b9" fill-opacity="0.6"/>
<circle cx="324.3" cy="432.8" r="3.0" fill="#add9b9" fill-opacity="0.6"/>
<circle cx="220.0" cy="301.8" r="3.0" fill="#add9b9" fill-opacity="0.6"/>
<circle cx="175.1" cy="352.5" r="3.0" fill="#add9b9" fill-opacity="0.6"/>
<circle cx="130.1" cy="403.3" r="3.0" fill="#add9b9" fill-opacity="0.6"/>
<circle cx="206.8" cy="254.5" r="3.0" fill="#add9b9" fill-opacity="0.6"/>
<circle cx="142.0" cy="234.3" r="3.0" fill="#add9b9" fill-opacity="0.6"/>
<circle cx="77.3" cy="214.2" r="3.0" fill="#add9b9" fill-opacity="0.6"/>
<circle cx="317.8" cy="267.9" r="3.0" fill="#a9cfff" fill-opacity="0.6"/>
<circle cx="363.1" cy="267.9" r="3.0" fill="#a9cfff" fill-opacity="0.6"/>
<circle cx="408.3" cy="267.9" r="3.0" fill="#a9cfff" fill-opacity="0.6"/>
<circle cx="453.5" cy="267.9" r="3.0" fill="#a9cfff" fill-opacity="0.6"/>
<circle cx="293.0" cy="320.3" r="3.0" fill="#a9cfff" fill-opacity="0.6"/>
<circle cx="321.7" cy="355.3" r="3.0" fill="#a9cfff" fill-opacity="0.6"/>
<circle cx="350.4" cy="390.3" r="3.0" fill="#a9cfff" fill-opacity="0.6"/>
<circle cx="379.1" cy="425.2" r="3.0" fill="#a9cfff" fill-opacity="0.6"/>
<circle cx="236.7" cy="334.4" r="3.0" fill="#a9cfff" fill-opacity="0.6"/>
<circle cx="227.9" cy="378.8" r="3.0" fill="#a9cfff" fill-opacity="0.6"/>
<circle cx="219.0" cy="423.1" r="3.0" fill="#a9cfff" fill-opacity="0.6"/>
<circle cx="210.2" cy="467.5" r="3.0" fill="#a9cfff" fill-opacity="0.6"/>
<circle cx="190.1" cy="299.8" r="3.0" fill="#a9cfff" fill-opacity="0.6"/>
<circle cx="150.2" cy="321.1" r="3.0" fill="#a9cfff" fill-opacity="0.6"/>
<circle cx="110.3" cy="342.4" r="3.0" fill="#a9cfff" fill-opacity="0.6"/>
<circle cx="70.4" cy="363.7" r="3.0" fill="#a9cfff" fill-opacity="0.6"/>
<circle cx="187.4" cy="241.9" r="3.0" fill="#a9cfff" fill-opacity="0.6"/>
<circle cx="145.6" cy="224.5" r="3.0" fill="#a9cfff" fill-opacity="0.6"/>
<circle cx="103.8" cy="207.2" r="3.0" fill="#a9cfff" fill-opacity="0.6"/>
<circle cx="62.1" cy="189.8" r="3.0" fill="#a9cfff" fill-opacity="0.6"/>
<circle cx="230.4" cy="202.9" r="3.0" fill="#a9cfff" fill-opacity="0.6"/>
<circle cx="217.3" cy="159.7" r="3.0" fill="#a9cfff" fill-opacity="0.6"/>
<circle cx="204.3" cy="116.4" r="3.0" fill="#a9cfff" fill-opacity="0.6"/>
<circle cx="191.2" cy="73.1" r="3.0" fill="#a9cfff" fill-opacity="0.6"/>
<circle cx="287.8" cy="211.5" r="3.0" fill="#a9cfff" fill-opacity="0.6"/>
<circle cx="313.0" cy="174.0" r="3.0" fill="#a9cfff" fill-opacity="0.6"/>
<circle cx="338.1" cy="136.4" r="3.0" fill="#a9cfff" fill-opacity="0.6"/>
<circle cx="363.3" cy="98.9" r="3.0" fill="#a9cfff" fill-opacity="0.6"/>
<circle cx="317.5" cy="261.4" r="3.0" fill="#a9cfff" fill-opacity="0.6"/>
<circle cx="362.5" cy="257.0" r="3.0" fill="#a9cfff" fill-opacity="0.6"/>
<circle cx="407.5" cy="252.7" r="3.0" fill="#a9cfff" fill-opacity="0.6"/>
<circle cx="452.6" cy="248.3" r="3.0" fill="#a9cfff" fill-opacity="0.6"/>
<circle cx="317.8" cy="267.9" r="3.0" fill="#a9cfff" fill-opacity="0.6"/>
<circle cx="363.1" cy="267.9" r="3.0" fill="#a9cfff" fill-opacity="0.6"/>
<circle cx="408.3" cy="267.9" r="3.0" fill="#a9cfff" fill-opacity="0.6"/>
<circle cx="453.5" cy="267.9" r="3.0" fill="#a9cfff" fill-opacity="0.6"/>
<circle cx="279.7" cy="328.9" r="3.0" fill="#a9cfff" fill-opacity="0.6"/>
<circle cx="299.4" cy="369.6" r="3.0" fill="#a9cfff" fill-opacity="0.6"/>
<circle cx="319.2" cy="410.3" r="3.0" fill="#a9cfff" fill-opacity="0.6"/>
<circle cx="339.0" cy="450.9" r="3.0" fill="#a9cfff" fill-opacity="0.6"/>
<circle cx="208.1" cy="321.2" r="3.0" fill="#a9cfff" fill-opacity="0.6"/>
<circle cx="180.1" cy="356.8" r="3.0" fill="#a9cfff" fill-opacity="0.6"/>
<circle cx="152.2" cy="392.3" r="3.0" fill="#a9cfff" fill-opacity="0.6"/>
<circle cx="124.3" cy="427.9" r="3.0" fill="#a9cfff" fill-opacity="0.6"/>
<circle cx="183.7" cy="253.5" r="3.0" fill="#a9cfff" fill-opacity="0.6"/>
<circle cx="139.5" cy="243.9" r="3.0" fill="#a9cfff" fill-opacity="0.6"/>
<circle cx="95.3" cy="234.3" r="3.0" fill="#a9cfff" fill-opacity="0.6"/>
<circle cx="51.1" cy="224.7" r="3.0" fill="#a9cfff" fill-opacity="0.6"/>
<circle cx="234.0" cy="202.0" r="3.0" fill="#a9cfff" fill-opacity="0.6"/>
<circle cx="223.3" cy="158.0" r="3.0" fill="#a9cfff" fill-opacity="0.6"/>
<circle cx="212.6" cy="114.1" r="3.0" fill="#a9cfff" fill-opacity="0.6"/>
<circle cx="201.9" cy="70.2" r="3.0" fill="#a9cfff" fill-opacity="0.6"/>
<circle cx="302.3" cy="224.6" r="3.0" fill="#a9cfff" fill-opacity="0.6"/>
<circle cx="337.1" cy="195.8" r="3.0" fill="#a9cfff" fill-opacity="0.6"/>
<circle cx="372.0" cy="167.0" r="3.0" fill="#a9cfff" fill-opacity="0.6"/>
<circle cx="406.8" cy="138.2" r="3.0" fill="#a9cfff" fill-opacity="0.6"/>
<circle cx="311.7" cy="296.0" r="3.0" fill="#a9cfff" fill-opacity="0.6"/>
<circle cx="352.9" cy="314.7" r="3.0" fill="#a9cfff" fill-opacity="0.6"/>
<circle cx="394.1" cy="333.5" r="3.0" fill="#a9cfff" fill-opacity="0.6"/>
<circle cx="435.2" cy="352.2" r="3.0" fill="#a9cfff" fill-opacity="0.6"/>
<circle cx="251.7" cy="335.7" r="3.0" fill="#a9cfff" fill-opacity="0.6"/>
<circle cx="252.8" cy="380.9" r="3.0" fill="#a9cfff" fill-opacity="0.6"/>
<circle cx="254.0" cy="426.1" r="3.0" fill="#a9cfff" fill-opacity="0.6"/>
<circle cx="255.1" cy="471.3" r="3.0" fill="#a9cfff" fill-opacity="0.6"/>
<circle cx="250.0" cy="267.89" r="226.1" fill="#f05bd4" fill-opacity="0.21" stroke="#f05bd4" stroke-width="1.5"/>
<circle cx="250.0" cy="267.89" r="203.5" fill="#dc65e2" fill-opacity="0.21" stroke="#dc65e2" stroke-width="1.5"/>
<circle cx="250.0" cy="267.89" r="180.9" fill="#c86eef" fill-opacity="0.20" stroke="#c86eef" stroke-width="1.5"/>
<circle cx="250.0" cy="267.89" r="158.3" fill="#b478fa" fill-opacity="0.20" stroke="#b478fa" stroke-width="1.5"/>
<circle cx="250.0" cy="267.89" r="135.7" fill="#a181100" fill-opacity="0.19" stroke="#a181100" stroke-width="1.5"/>
<circle cx="250.0" cy="267.89" r="113.1" fill="#8d8b103" fill-opacity="0.19" stroke="#8d8b103" stroke-width="1.5"/>
<circle cx="250.0" cy="267.89" r="90.4" fill="#7994100" fill-opacity="0.19" stroke="#7994100" stroke-width="1.5"/>
<circle cx="250.0" cy="267.89" r="67.8" fill="#669efa" fill-opacity="0.18" stroke="#669efa" stroke-width="1.5"/>
<circle cx="250.0" cy="267.89" r="45.2" fill="#52a7ef" fill-opacity="0.18" stroke="#52a7ef" stroke-width="1.5"/>
<circle cx="250.0" cy="267.89" r="22.6" fill="#3eb1e2" fill-opacity="0.17" stroke="#3eb1e2" stroke-width="1.5"/>
<line x1="250.0" y1="267.89" x2="443.1" y2="267.9" stroke="#392de5" stroke-width="2.57" opacity="0.38"/>
<line x1="250.0" y1="267.89" x2="416.6" y2="365.5" stroke="#4835d6" stroke-width="2.57" opacity="0.40"/>
<line x1="250.0" y1="267.89" x2="344.4" y2="436.3" stroke="#573ec7" stroke-width="2.57" opacity="0.42"/>
<line x1="250.0" y1="267.89" x2="246.4" y2="461.0" stroke="#6646b8" stroke-width="2.57" opacity="0.44"/>
<line x1="250.0" y1="267.89" x2="149.3" y2="432.6" stroke="#754fa9" stroke-width="2.57" opacity="0.47"/>
<line x1="250.0" y1="267.89" x2="79.8" y2="359.1" stroke="#855899" stroke-width="2.57" opacity="0.49"/>
<line x1="250.0" y1="267.89" x2="57.0" y2="260.6" stroke="#94608a" stroke-width="2.57" opacity="0.51"/>
<line x1="250.0" y1="267.89" x2="87.2" y2="164.1" stroke="#a3697b" stroke-width="2.57" opacity="0.53"/>
<line x1="250.0" y1="267.89" x2="162.0" y2="96.0" stroke="#b2716c" stroke-width="2.57" opacity="0.55"/>
<line x1="250.0" y1="267.89" x2="260.9" y2="75.1" stroke="#c17a5d" stroke-width="2.57" opacity="0.57"/>
<line x1="250.0" y1="267.89" x2="356.9" y2="107.0" stroke="#d1834d" stroke-width="2.57" opacity="0.59"/>
<line x1="250.0" y1="267.89" x2="423.5" y2="183.1" stroke="#dd8c3e" stroke-width="2.57" opacity="0.61"/>
<line x1="250.0" y1="267.89" x2="442.6" y2="282.4" stroke="#dd942f" stroke-width="2.57" opacity="0.64"/>
<line x1="250.0" y1="267.89" x2="408.8" y2="377.8" stroke="#dd9d20" stroke-width="2.57" opacity="0.66"/>
<line x1="250.0" y1="267.89" x2="331.5" y2="443.0" stroke="#dda511" stroke-width="2.57" opacity="0.68"/>
<line x1="250.0" y1="267.89" x2="443.1" y2="267.9" stroke="#2b32112" stroke-width="2.57" opacity="0.26"/>
<line x1="250.0" y1="267.89" x2="423.9" y2="351.9" stroke="#3637107" stroke-width="2.57" opacity="0.28"/>
<line x1="250.0" y1="267.89" x2="369.9" y2="419.2" stroke="#413cfc" stroke-width="2.57" opacity="0.31"/>
<line x1="250.0" y1="267.89" x2="292.1" y2="456.3" stroke="#4c42f1" stroke-width="2.57" opacity="0.33"/>
<line x1="250.0" y1="267.89" x2="205.9" y2="455.9" stroke="#5747e6" stroke-width="2.57" opacity="0.36"/>
<line x1="250.0" y1="267.89" x2="128.5" y2="418.0" stroke="#624cdb" stroke-width="2.57" opacity="0.38"/>
<line x1="250.0" y1="267.89" x2="75.3" y2="350.1" stroke="#6d52d0" stroke-width="2.57" opacity="0.41"/>
<line x1="250.0" y1="267.89" x2="56.9" y2="265.9" stroke="#7857c5" stroke-width="2.57" opacity="0.43"/>
<line x1="250.0" y1="267.89" x2="77.0" y2="182.0" stroke="#845db9" stroke-width="2.57" opacity="0.46"/>
<line x1="250.0" y1="267.89" x2="131.6" y2="115.3" stroke="#8f63ae" stroke-width="2.57" opacity="0.48"/>
<line x1="250.0" y1="267.89" x2="209.9" y2="79.0" stroke="#9a68a3" stroke-width="2.57" opacity="0.51"/>
<line x1="250.0" y1="267.89" x2="296.1" y2="80.4" stroke="#a56d98" stroke-width="2.57" opacity="0.53"/>
<line x1="250.0" y1="267.89" x2="373.1" y2="119.1" stroke="#b0738d" stroke-width="2.57" opacity="0.56"/>
<line x1="250.0" y1="267.89" x2="425.6" y2="187.5" stroke="#bb7882" stroke-width="2.57" opacity="0.58"/>
<line x1="250.0" y1="267.89" x2="443.1" y2="271.9" stroke="#c67d77" stroke-width="2.57" opacity="0.61"/>
<circle cx="250.0" cy="267.89" r="8.0" fill="#dcdba6" fill-opacity="0.9"/>
</svg>